<svg xmlns="http://www.w3.org/2000/svg" viewBox="0 0 364.25 525.66"><defs><style>.cls-1{fill:#fff;stroke-width:4px;}.cls-1,.cls-2{stroke:#546784;}.cls-1,.cls-2,.cls-3{stroke-miterlimit:10;}.cls-2,.cls-3{fill:none;stroke-width:5px;}.cls-3{stroke:#fdd54b;}.cls-4{font-size:81.18px;}.cls-4,.cls-5{fill:#546784;}.cls-4,.cls-5,.cls-6,.cls-7,.cls-8,.cls-9{font-family:CambriaMath, Cambria Math;}.cls-5{font-size:81.82px;}.cls-6{font-size:80.29px;}.cls-6,.cls-7,.cls-8,.cls-9{fill:#586884;}.cls-7{font-size:56.78px;}.cls-8{font-size:55.95px;}.cls-9{font-size:57.18px;}</style></defs><g id="Livello_2" data-name="Livello 2"><line class="cls-1" x1="221.96" y1="222.21" x2="212.45" y2="213.66"/><line class="cls-1" x1="210.09" y1="226.61" x2="222" y2="221.97"/><line class="cls-1" x1="36.01" y1="1.34" x2="27.47" y2="10.84"/><line class="cls-1" x1="40.42" y1="13.21" x2="35.78" y2="1.29"/><polyline class="cls-2" points="35.9 1.31 2.91 182.27 221.96 222.21"/><path class="cls-3" d="M268.63,288c7-11.88,39.32-65.92,69.42-78.35a60.83,60.83,0,0,1,9.48-3c23.14-4.89,42.87,7.84,52.47,12.46,15.48,7.45,41.16,11.37,85.33-6.4" transform="translate(-250.2 -126.82)"/><text class="cls-4" transform="translate(285.22 93.54) rotate(8.48)">d</text><text class="cls-4" transform="translate(252.46 166.48) rotate(8.48)">dx</text><text class="cls-5" transform="translate(267.36 94.75) rotate(8.48) scale(2.9 1)">_</text></g><g id="Livello_3" data-name="Livello 3"><text x="-250.2" y="-126.82"/></g><g id="Livello_4" data-name="Livello 4"><text class="cls-6" transform="translate(64.35 331.61) rotate(-11.2) scale(1.05 1)">lim</text><text class="cls-7" transform="translate(181.23 326.74) rotate(-11.2)">x</text><text x="-250.2" y="-126.82"/><text class="cls-8" transform="translate(209.8 325.88) rotate(-11.2)">→</text><text class="cls-9" transform="translate(256.47 316.64) rotate(-11.2)">∞</text></g></svg>