<svg id="Livello_2" data-name="Livello 2" xmlns="http://www.w3.org/2000/svg" viewBox="0 0 358.13 388.08"><defs><style>.cls-1{font-size:271.78px;}.cls-1,.cls-3{fill:#546784;font-family:ArialNarrow, Arial;}.cls-2{fill:#fac84e;}.cls-3{font-size:137.02px;}</style></defs><text class="cls-1" transform="translate(30.34 230.35) rotate(21.35)">∫</text><path class="cls-2" d="M583.78,237.6a37.32,37.32,0,0,1-.49-3.72l-1.74-.21-.5.52a26.7,26.7,0,0,1-3.91,3.23,12.83,12.83,0,0,1-6,2.19,12.42,12.42,0,0,1-6.22-1.19,14.15,14.15,0,0,1-3.8-2.52l-9.75-10.38L539,210.1l-6.43-8.28c.18-1.29.45-3.27.73-5.68,1.13-9.33,1.53-16.57,1.68-19.82.1-2,.2-4.71.26-8l0-.52-1.84-2.14L524,163.19l-2.13,2.51c.5,2.23,1,4.57,1.34,7a123.9,123.9,0,0,1,1.6,19.72l-1.48-1.51-4.68-5.21-4.51-4.31-7.77-5.26-6.24-1.75-3.72-.13-3.52.19-4.12.66-3.89,1.32-5.75,2.24-5.65,3.1-5.11,3.75-4.8,4.89-3.74,4.85-3.51,6.31L454.51,207l-1.69,6.66-.86,6.91-.52,6.94.39,7.61,1.92,12.65,3.47,10.3,4.07,8.77,2.91,4.52,4.09,5.05,3.2,2.62,3.82,2.27,4.56,1.49,5.07.15,3.74-.32,4.2-1,4.08-1.26,5.32-2.57,4.2-2.81,3.95-3.38,3.95-4.32a62.48,62.48,0,0,0,3.69-5.52A71.18,71.18,0,0,0,524.62,247c1.12-3.36,1.73-5.84,2.6-9.4,1.22-5,2-9.17,2.55-12.17l.37.16,1.17,1.53,6.79,8.85c3.4,4.14,5.72,7.24,7.26,9.38a39.72,39.72,0,0,0,3.72,4.51,15.77,15.77,0,0,0,4,3.5,13,13,0,0,0,7.51,1.16,19.37,19.37,0,0,0,6.87-2,34,34,0,0,0,5.59-3.81c1.13-.88,2-1.64,2.68-2.19l5.62-5.57,2.51-2.78C583.85,238,583.81,237.79,583.78,237.6Zm-61.32-7.28c-1,4.11-1.79,7.45-2.52,10a107.56,107.56,0,0,1-3.51,10.84,49,49,0,0,1-4.33,9,35.23,35.23,0,0,1-5,6.29,21.42,21.42,0,0,1-4.82,3.84,14.34,14.34,0,0,1-4.92,1.92,13.82,13.82,0,0,1-6.51-.51,15.89,15.89,0,0,1-5.14-2.57,16.78,16.78,0,0,1-3.46-3.55,91.32,91.32,0,0,1-7.66-11.28,104.92,104.92,0,0,1-7.26-16.37,73.06,73.06,0,0,1-2.26-7,66.86,66.86,0,0,1-2-12.38c-.28-4.34-.55-8.6.68-13.85a34.8,34.8,0,0,1,2.44-7A20.75,20.75,0,0,1,469,193a20.43,20.43,0,0,1,4.2-3.87A20.07,20.07,0,0,1,478,186.7a20.41,20.41,0,0,1,4.51-1,19.77,19.77,0,0,1,6.86.27,20.32,20.32,0,0,1,6.49,3c1.81,1.14,4.5,3,10.07,8.66,1.79,1.8,4.16,4.28,6.85,7.35L524,218.48Z" transform="translate(-225.75 -90.44)"/><text class="cls-3" transform="translate(126.53 324.38) rotate(13.53)">∑</text></svg>