<svg id="Livello_1" data-name="Livello 1" xmlns="http://www.w3.org/2000/svg" xmlns:xlink="http://www.w3.org/1999/xlink" width="662.5" height="541.5" viewBox="0 0 662.5 541.5">
  <defs>
    <style>
      .cls-1, .cls-10, .cls-2, .cls-20, .cls-4, .cls-5, .cls-7, .cls-8 {
        fill: none;
      }

      .cls-2, .cls-3 {
        stroke: #d3d3d3;
        stroke-width: 0.5px;
      }

      .cls-3 {
        fill: url(#_.6468837480708505);
      }

      .cls-12, .cls-13, .cls-14, .cls-20, .cls-4, .cls-5, .cls-6, .cls-8, .cls-9 {
        stroke: #000;
      }

      .cls-5 {
        stroke-width: 3px;
      }

      .cls-11, .cls-15, .cls-16, .cls-17, .cls-18, .cls-19, .cls-6 {
        fill: red;
      }

      .cls-7 {
        stroke: #d0021b;
      }

      .cls-8 {
        stroke-dasharray: 6 6;
      }

      .cls-10 {
        stroke: red;
        stroke-width: 4px;
      }

      .cls-12, .cls-13, .cls-14 {
        stroke-miterlimit: 10;
      }

      .cls-12 {
        stroke-width: 0.24px;
      }

      .cls-13 {
        stroke-width: 0.16px;
      }

      .cls-14 {
        stroke-width: 0.17px;
      }

      .cls-15, .cls-16, .cls-17, .cls-18, .cls-19 {
        isolation: isolate;
        font-family: ArialMT, Arial;
      }

      .cls-15 {
        font-size: 25px;
      }

      .cls-16 {
        font-size: 18.04px;
      }

      .cls-17 {
        font-size: 15.44px;
      }

      .cls-18 {
        font-size: 13.34px;
      }

      .cls-19 {
        font-size: 16.89px;
      }

      .cls-20 {
        stroke-width: 2px;
      }
    </style>
    <pattern id="_.6468837480708505" data-name=".6468837480708505" width="10" height="10" patternTransform="matrix(1, 0, 0, -1, -2.75, 842.14)" patternUnits="userSpaceOnUse" viewBox="0 0 10 10">
      <rect class="cls-1" width="10" height="10"/>
      <path class="cls-2" d="M10,10H0V0"/>
    </pattern>
  </defs>
  <rect class="cls-3" x="0.25" y="0.25" width="662" height="541"/>
  <g>
    <path class="cls-4" d="M39.66,265.76c0-75.26,43.51-136.27,97.18-136.27S234,190.5,234,265.76,190.5,402,136.84,402,39.66,341,39.66,265.76Z" transform="translate(0.25 0.25)"/>
    <g>
      <path class="cls-5" d="M136.84,265.76H626.39" transform="translate(0.25 0.25)"/>
      <path d="M617.1,272.62l14.29-6.86L617.1,258.9Z" transform="translate(0.25 0.25)"/>
    </g>
    <path class="cls-4" d="M18.63,265.76c0-86.61,50.06-156.82,111.83-156.82s111.83,70.21,111.83,156.82S192.22,422.57,130.46,422.57,18.63,352.36,18.63,265.76Z" transform="translate(0.25 0.25)"/>
    <path class="cls-4" d="M63.55,353.16l73.29-87.4" transform="translate(0.25 0.25)"/>
    <path class="cls-6" d="M120,106.69h25v23.89H120Z" transform="translate(0.25 0.25)"/>
    <path class="cls-7" d="M127.61,398.76h25v23.89h-25Z" transform="translate(0.25 0.25)"/>
    <path class="cls-6" d="M127.61,398.76h25v23.89h-25Z" transform="translate(0.25 0.25)"/>
    <path class="cls-8" d="M140.09,410.7,392.53,266.3" transform="translate(0.25 0.25)"/>
    <path class="cls-8" d="M132.49,118.64l260,147.66" transform="translate(0.25 0.25)"/>
    <path class="cls-9" d="M130.46,265.76a6.38,6.38,0,1,0,6.38-6.38A6.37,6.37,0,0,0,130.46,265.76Z" transform="translate(0.25 0.25)"/>
    <path class="cls-9" d="M379.77,266.3a6.38,6.38,0,1,0,6.38-6.38A6.38,6.38,0,0,0,379.77,266.3Z" transform="translate(0.25 0.25)"/>
    <g>
      <path class="cls-10" d="M386.15,266.3h173" transform="translate(0.25 0.25)"/>
      <path class="cls-11" d="M548.19,274.45l17-8.15-17-8.15Z" transform="translate(0.25 0.25)"/>
    </g>
    <g>
      <path class="cls-10" d="M386.15,266.3l101,54.69" transform="translate(0.25 0.25)"/>
      <path class="cls-11" d="M473.62,322.93l18.8.91-11-15.25Z" transform="translate(0.25 0.25)"/>
    </g>
    <g>
      <path class="cls-10" d="M386.15,266.3l101-54.69" transform="translate(0.25 0.25)"/>
      <path class="cls-11" d="M481.38,224l11-15.25-18.8.92Z" transform="translate(0.25 0.25)"/>
    </g>
    <path class="cls-4" d="M332,266c-21-4-8-36,7-30" transform="translate(0.25 0.25)"/>
  </g>
  <path class="cls-12" d="M104.73,324.88l1.68.06c.72,0,1,.27,1,.81a18.52,18.52,0,0,1-.27,2.28l-2.25,13c-.48,2.73-.54,2.79-1.74,2.91l-1.23.09-.12.84,1.26,0c1.41-.06,2-.06,2.7-.06l2.91.09h.78l.09-.84-1.47-.09c-.81-.06-1.08-.3-1.08-.9a5.81,5.81,0,0,1,.12-1.05l3-16.65a10.17,10.17,0,0,1,2.28-.24c2.61,0,4,1.17,4,3.39,0,2.85-2.34,4.95-5.46,4.95h-1.32l-.09.33c4,5.85,5,7.29,7.2,11.1l2.55-.09,1,.09h.39v-.81c-1.2-.15-1.53-.39-2.4-1.65l-5.52-8.25a7.71,7.71,0,0,0,3.6-1.44A5.82,5.82,0,0,0,119.1,328c0-2.58-1.92-4-5.25-3.93h-9Z" transform="translate(0.25 0.25)"/>
  <path class="cls-13" d="M127.51,255.47c0-3.56-2.08-5.62-5.68-5.62-4.74,0-8.22,3.66-8.22,8.68,0,3.78,1.88,5.8,5.4,5.8C124.45,264.33,127.51,259.83,127.51,255.47Zm-1.76.32c0,3.76-1.78,7.7-6,7.7-2.88,0-4.38-1.72-4.38-5.06,0-3,1.16-7.74,5.84-7.74C123.53,250.69,125.75,251.77,125.75,255.79Z" transform="translate(0.25 0.25)"/>
  <g>
    <path class="cls-12" d="M136.83,433.65l-.36-.33a11.75,11.75,0,0,1-4.8,1.26l-.12.63H133c.72,0,1,.21,1,.72a5.37,5.37,0,0,1-.06.72l-.84,4.62a8.63,8.63,0,0,0-2.46-.42c-2.07,0-4.89,2.16-6.27,4.77a16.57,16.57,0,0,0-1.53,7.11c0,1.95.45,2.91,1.32,2.91a5.35,5.35,0,0,0,2.94-1.32,21.22,21.22,0,0,0,4.62-5.52l-.69,2.73a13,13,0,0,0-.48,3.06c0,.63.27,1,.78,1a4.53,4.53,0,0,0,2.25-1.11l2.43-1.8-.3-.57-1.32.93a2.51,2.51,0,0,1-1.17.51c-.24,0-.42-.27-.42-.69a5.82,5.82,0,0,1,.24-1.38Zm-11.07,19.89c-.48,0-.75-.42-.75-1.17,0-3.78,1.38-8.46,2.85-9.6a2.84,2.84,0,0,1,1.77-.45,6.3,6.3,0,0,1,3.18.69l-.36,1.77C131.34,450.18,127.11,453.54,125.76,453.54Zm23.1-12a8,8,0,0,0-3-.72c-2.25,0-4.89,2.64-5.43,3.24-1.2,1.41-2.37,5.79-2.37,8.88,0,1.77.36,2.67,1.08,2.67a3.76,3.76,0,0,0,2.19-.9,18.23,18.23,0,0,0,5.25-5.7l-2.28,12.42a3.64,3.64,0,0,1-.81,1.71l.27.42a21.59,21.59,0,0,1,2.58-.51,47.16,47.16,0,0,1,.57-4.77l2.58-13.68a24.81,24.81,0,0,1,.81-3.54l-.42-.18Zm-8,12c-.42,0-.66-.63-.66-1.62,0-2.88,1.29-7.38,2.55-8.88a2.94,2.94,0,0,1,2.19-.72,6.67,6.67,0,0,1,2.91.81l-.63,2.85C146.34,450.09,142.11,453.54,140.85,453.54Z" transform="translate(0.25 0.25)"/>
    <path class="cls-14" d="M152.4,460.11v.55c3.93,0,3.93-.07,4.68-.07s.76.07,4.81.07v-1.79c-2.41.11-3.38,0-7.27.11l3.83-4.06c2-2.16,2.66-3.31,2.66-4.89,0-2.41-1.63-3.91-4.3-3.91a4.52,4.52,0,0,0-3.57,1.47l-.36,2.86h.61l.27-1a2.23,2.23,0,0,1,2.5-1.74,2.75,2.75,0,0,1,3,2.92c0,1.58-.88,3.13-3.25,5.65Z" transform="translate(0.25 0.25)"/>
  </g>
  <g>
    <path class="cls-12" d="M129.24,69.93l-.36-.33a11.75,11.75,0,0,1-4.8,1.26l-.12.63h1.44c.72,0,1,.21,1,.72a5.37,5.37,0,0,1-.06.72l-.84,4.62a8.63,8.63,0,0,0-2.46-.42c-2.07,0-4.89,2.16-6.27,4.77A16.57,16.57,0,0,0,115.26,89c0,1.95.45,2.91,1.32,2.91a5.35,5.35,0,0,0,2.94-1.32,21.22,21.22,0,0,0,4.62-5.52l-.69,2.73a13,13,0,0,0-.48,3.06c0,.63.27,1,.78,1A4.53,4.53,0,0,0,126,90.75l2.43-1.8-.3-.57-1.32.93a2.51,2.51,0,0,1-1.17.51c-.24,0-.42-.27-.42-.69a5.82,5.82,0,0,1,.24-1.38ZM118.17,89.82c-.48,0-.75-.42-.75-1.17,0-3.78,1.38-8.46,2.85-9.6A2.84,2.84,0,0,1,122,78.6a6.3,6.3,0,0,1,3.18.69l-.36,1.77C123.75,86.46,119.52,89.82,118.17,89.82Zm23.1-12a8,8,0,0,0-3-.72c-2.25,0-4.89,2.64-5.43,3.24-1.2,1.41-2.37,5.79-2.37,8.88,0,1.77.36,2.67,1.08,2.67a3.76,3.76,0,0,0,2.19-.9,18.23,18.23,0,0,0,5.25-5.7l-2.28,12.42a3.64,3.64,0,0,1-.81,1.71l.27.42a21.59,21.59,0,0,1,2.58-.51,47.16,47.16,0,0,1,.57-4.77l2.58-13.68a24.81,24.81,0,0,1,.81-3.54l-.42-.18Zm-8,12c-.42,0-.66-.63-.66-1.62,0-2.88,1.29-7.38,2.55-8.88a2.94,2.94,0,0,1,2.19-.72,6.67,6.67,0,0,1,2.91.81l-.63,2.85C138.75,86.37,134.52,89.82,133.26,89.82Z" transform="translate(0.25 0.25)"/>
    <path class="cls-14" d="M153.25,96.94v-.63l-1.1-.07c-1.15-.06-1.36-.29-1.36-1.38V82.17l-5.06,2.15.15,1.05L149,84V94.86c0,1.09-.24,1.32-1.37,1.38l-1.18.07v.63l3.47-.07C150.6,96.87,152.91,96.94,153.25,96.94Z" transform="translate(0.25 0.25)"/>
  </g>
  <text class="cls-15" transform="translate(88.91 137.85)">+</text>
  <text class="cls-15" transform="translate(59.17 161.75)">+</text>
  <text class="cls-15" transform="translate(38.12 194.84)">+</text>
  <text class="cls-15" transform="translate(24.89 241.97)">+</text>
  <text class="cls-15" transform="translate(23.49 292.02)">+</text>
  <text class="cls-15" transform="translate(33.58 343.86)">+</text>
  <text class="cls-15" transform="translate(61.17 386.61)">+</text>
  <text class="cls-15" transform="translate(183.32 397.73)">+</text>
  <text class="cls-16" transform="translate(217.32 349.65)">+</text>
  <text class="cls-17" transform="translate(232.2 298.22)">+</text>
  <text class="cls-18" transform="translate(229.47 227.36)">+</text>
  <text class="cls-19" transform="translate(213.19 185.76)">+</text>
  <text class="cls-15" transform="translate(192.74 160.94)">+</text>
  <text class="cls-15" transform="translate(162.14 137.85)">+</text>
  <path class="cls-12" d="M394.54,223.89l1.65.06c.72,0,1.05.27,1.05.81l-2.49,15.3c-.51,2.73-.54,2.82-1.74,2.91l-1.23.09-.12.84,1.26,0c1.23,0,2.16-.06,2.7-.06s1.38,0,2.58.06l1.59,0,.09-.84-1.95-.09c-.78,0-1.08-.27-1.08-.9a6.42,6.42,0,0,1,.12-1l2.94-16.65a12.17,12.17,0,0,1,2.13-.24c3.06,0,4.53,1.32,4.53,4.11,0,3.24-2.16,5.88-4.8,5.88a6.42,6.42,0,0,1-2.37-.57l.06.93a5.2,5.2,0,0,0,2.58.69,7.52,7.52,0,0,0,7.17-7.59c0-3-1.89-4.62-5.46-4.53h-9.12Z" transform="translate(0.25 0.25)"/>
  <g>
    <path class="cls-12" d="M510.51,175.25l-.36-.33a11.75,11.75,0,0,1-4.8,1.26l-.12.63h1.44c.72,0,1,.21,1,.72a5.37,5.37,0,0,1-.06.72l-.84,4.62a8.63,8.63,0,0,0-2.46-.42c-2.07,0-4.89,2.16-6.27,4.77a16.57,16.57,0,0,0-1.53,7.11c0,1.95.45,2.91,1.32,2.91a5.35,5.35,0,0,0,2.94-1.32,21.22,21.22,0,0,0,4.62-5.52l-.69,2.73a13,13,0,0,0-.48,3.06c0,.63.27,1,.78,1a4.53,4.53,0,0,0,2.25-1.11l2.43-1.8-.3-.57-1.32.93a2.51,2.51,0,0,1-1.17.51c-.24,0-.42-.27-.42-.69a5.82,5.82,0,0,1,.24-1.38Zm-11.07,19.89c-.48,0-.75-.42-.75-1.17,0-3.78,1.38-8.46,2.85-9.6a2.84,2.84,0,0,1,1.77-.45,6.3,6.3,0,0,1,3.18.69l-.36,1.77C505,191.78,500.79,195.14,499.44,195.14Zm18.18-8.25h3.51l4,.12.57-1.35-.12-.21c-2.43.12-4.23.18-6.57.18h-1.11l1.41-8.1c1,0,3.45-.12,4.11-.12,1.86,0,3.09.27,3.12.72l.24,2.67h.72a20.27,20.27,0,0,1,.63-4.56c-.63-.06-1.53-.09-2.07-.09-.09,0-.42,0-1.14,0l-3.6,0c-.27,0-5.49,0-5.79,0l-1.35,0-.09.84,1.62.06c.72,0,1.05.27,1.05.81a18.52,18.52,0,0,1-.27,2.28l-2.61,15.12c-.12.54-.48.75-1.8,1l-.15.78,1.23,0c.93,0,2.79-.06,3.39-.06l6.75.09c.42,0,1.17,0,2.16-.06l1,0,.12-1.08c.06-.6.21-1.5.48-3l.15-.78h-.81l-.48,1.8c-.3,1.08-.57,1.44-1.23,1.59a34.72,34.72,0,0,1-4.41.27,40.28,40.28,0,0,1-4.11-.21Z" transform="translate(0.25 0.25)"/>
    <path class="cls-14" d="M530.51,201.7v.55c3.92,0,3.92-.06,4.68-.06s.76.06,4.81.06v-1.78c-2.42.1-3.38,0-7.27.1l3.83-4c2-2.17,2.66-3.32,2.66-4.9,0-2.41-1.64-3.9-4.3-3.9a4.52,4.52,0,0,0-3.57,1.47L531,192h.61l.27-1a2.22,2.22,0,0,1,2.5-1.74,2.74,2.74,0,0,1,3,2.91c0,1.58-.88,3.13-3.25,5.65Z" transform="translate(0.25 0.25)"/>
  </g>
  <g>
    <path class="cls-12" d="M512.13,334.93l-.36-.33a11.75,11.75,0,0,1-4.8,1.26l-.12.63h1.44c.72,0,1,.21,1,.72a5.37,5.37,0,0,1-.06.72l-.84,4.62a8.63,8.63,0,0,0-2.46-.42c-2.07,0-4.89,2.16-6.27,4.77a16.57,16.57,0,0,0-1.53,7.11c0,1.95.45,2.91,1.32,2.91a5.35,5.35,0,0,0,2.94-1.32,21.22,21.22,0,0,0,4.62-5.52l-.69,2.73a13,13,0,0,0-.48,3.06c0,.63.27,1,.78,1a4.53,4.53,0,0,0,2.25-1.11l2.43-1.8-.3-.57-1.32.93a2.51,2.51,0,0,1-1.17.51c-.24,0-.42-.27-.42-.69a5.82,5.82,0,0,1,.24-1.38Zm-11.07,19.89c-.48,0-.75-.42-.75-1.17,0-3.78,1.38-8.46,2.85-9.6a2.84,2.84,0,0,1,1.77-.45,6.3,6.3,0,0,1,3.18.69l-.36,1.77C506.64,351.46,502.41,354.82,501.06,354.82Zm18.18-8.25h3.51l4,.12.57-1.35-.12-.21c-2.43.12-4.23.18-6.57.18h-1.11l1.41-8.1c1,0,3.45-.12,4.11-.12,1.86,0,3.09.27,3.12.72l.24,2.67h.72a20.27,20.27,0,0,1,.63-4.56c-.63-.06-1.53-.09-2.07-.09-.09,0-.42,0-1.14,0l-3.6,0c-.27,0-5.49,0-5.79,0l-1.35,0-.09.84,1.62.06c.72,0,1.05.27,1.05.81a18.52,18.52,0,0,1-.27,2.28l-2.61,15.12c-.12.54-.48.75-1.8,1l-.15.78,1.23,0c.93,0,2.79-.06,3.39-.06l6.75.09c.42,0,1.17,0,2.16-.06l1,0,.12-1.08c.06-.6.21-1.5.48-3l.15-.78H528l-.48,1.8c-.3,1.08-.57,1.44-1.23,1.59a34.72,34.72,0,0,1-4.41.27,40.28,40.28,0,0,1-4.11-.21Z" transform="translate(0.25 0.25)"/>
    <path class="cls-14" d="M540.57,361.94v-.63l-1.09-.07c-1.15-.06-1.36-.29-1.36-1.38V347.17l-5.06,2.15.14,1.05,3.15-1.39v10.88c0,1.09-.23,1.32-1.36,1.38l-1.18.07v.63l3.47-.07C537.93,361.87,540.24,361.94,540.57,361.94Z" transform="translate(0.25 0.25)"/>
  </g>
  <path class="cls-12" d="M562.6,286l-.36-.33a11.75,11.75,0,0,1-4.8,1.26l-.12.63h1.44c.72,0,1,.21,1,.72a5.37,5.37,0,0,1-.06.72l-.84,4.62a8.63,8.63,0,0,0-2.46-.42c-2.07,0-4.89,2.16-6.27,4.77a16.57,16.57,0,0,0-1.53,7.11c0,2,.45,2.91,1.32,2.91a5.35,5.35,0,0,0,2.94-1.32,21.22,21.22,0,0,0,4.62-5.52l-.69,2.73a13,13,0,0,0-.48,3.06c0,.63.27,1,.78,1a4.53,4.53,0,0,0,2.25-1.11l2.43-1.8-.3-.57-1.32.93a2.51,2.51,0,0,1-1.17.51c-.24,0-.42-.27-.42-.69a5.82,5.82,0,0,1,.24-1.38Zm-11.07,19.89c-.48,0-.75-.42-.75-1.17,0-3.78,1.38-8.46,2.85-9.6a2.84,2.84,0,0,1,1.77-.45,6.3,6.3,0,0,1,3.18.69l-.36,1.77C557.11,302.48,552.88,305.84,551.53,305.84Zm18.18-8.25h3.51l4,.12.57-1.35-.12-.21c-2.43.12-4.23.18-6.57.18H570l1.41-8.1c1,0,3.45-.12,4.11-.12,1.86,0,3.09.27,3.12.72l.24,2.67h.72a20.27,20.27,0,0,1,.63-4.56c-.63-.06-1.53-.09-2.07-.09-.09,0-.42,0-1.14,0l-3.6,0c-.27,0-5.49,0-5.79,0l-1.35,0-.09.84,1.62.06c.72,0,1,.27,1,.81a18.52,18.52,0,0,1-.27,2.28L565.93,306c-.12.54-.48.75-1.8,1l-.15.78,1.23,0c.93,0,2.79-.06,3.39-.06l6.75.09c.42,0,1.17,0,2.16-.06l1,0,.12-1.08c.06-.6.21-1.5.48-3l.15-.78h-.81l-.48,1.8c-.3,1.08-.57,1.44-1.23,1.59a34.72,34.72,0,0,1-4.41.27,40.28,40.28,0,0,1-4.11-.21Z" transform="translate(0.25 0.25)"/>
  <g>
    <path class="cls-12" d="M623.61,255.2a2.91,2.91,0,0,0,1.29.36c1,0,2.16-.87,3.09-2.28l2.28-3.51.33,2.07c.39,2.55,1.08,3.72,2.16,3.72a4.55,4.55,0,0,0,2.58-1.38l1.47-1.32-.27-.57a4.76,4.76,0,0,1-2.31,1.35c-.45,0-.84-.3-1.14-.9a11.77,11.77,0,0,1-.75-2.55l-.54-3,1.05-1.47c1.41-1.95,2.22-2.64,3.15-2.64a1,1,0,0,1,1,.69l.42-.12.45-2.55a1.76,1.76,0,0,0-.9-.3c-1.2,0-2.4,1.08-4.26,3.84l-1.11,1.65-.18-1.44c-.36-3-1.17-4-2.94-4a2.11,2.11,0,0,0-1.71.63L625,243.89l.51.3c.9-1,1.5-1.44,2.07-1.44,1,0,1.65,1.23,2.16,4.17l.33,1.86-1.2,1.86c-1.29,2-2.31,3-3.15,3-.45,0-.78-.12-.84-.27l-.33-.84-.6.09A14.81,14.81,0,0,1,623.61,255.2Z" transform="translate(0.25 0.25)"/>
    <polyline class="cls-20" points="623.59 235.81 631.07 230.82 638.56 235.81"/>
  </g>
  <path class="cls-12" d="M279.84,175.83a27.83,27.83,0,0,1,.48-3.33,1.35,1.35,0,0,0-.6-.18c-.93,0-1.86.72-2.94,2.25A37,37,0,0,0,274,179.1l1-4.56a5.5,5.5,0,0,0,.18-1.26c0-.6-.24-1-.69-1-.63,0-1.77.63-4,2.22l-.84.6.21.6,1-.63c.84-.54,1.17-.69,1.44-.69s.51.27.51.66a64,64,0,0,1-2.49,11.76l.3.21a16.3,16.3,0,0,1,1.62-.39l.39-.06.78-3.6a13.14,13.14,0,0,1,2.55-5.79c1-1.32,1.83-2,2.49-2a1.24,1.24,0,0,1,1.08.57Z" transform="translate(0.25 0.25)"/>
  <path class="cls-12" d="M288.45,343.66a27.83,27.83,0,0,1,.48-3.33,1.35,1.35,0,0,0-.6-.18c-.93,0-1.86.72-2.94,2.25a37,37,0,0,0-2.82,4.53l1-4.56a5.5,5.5,0,0,0,.18-1.26c0-.6-.24-1-.69-1-.63,0-1.77.63-4,2.22l-.84.6.21.6,1-.63c.84-.54,1.17-.69,1.44-.69s.51.27.51.66a64,64,0,0,1-2.49,11.76l.3.21a16.3,16.3,0,0,1,1.62-.39l.39-.06.78-3.6a13.14,13.14,0,0,1,2.55-5.79c1-1.32,1.83-2,2.49-2a1.24,1.24,0,0,1,1.08.57Z" transform="translate(0.25 0.25)"/>
  <path class="cls-13" d="M309.54,249.1c4.72,0,6.7-6.64,6.78-10.4,0-2.28-.6-4-3.14-4-5.2,0-6.94,5.8-7,10.06C306.14,247.18,306.82,249.1,309.54,249.1Zm3.28-13.84c2.7,0,2.1,3.7,1.68,5.9h-6.32C308.68,239.08,310.24,235.26,312.82,235.26Zm-3,13.26c-3,0-2.12-5-1.8-6.72h6.32C313.88,244,312.72,248.52,309.86,248.52Z" transform="translate(0.25 0.25)"/>
  <path class="cls-12" d="M287.61,290.2a2.91,2.91,0,0,0,1.29.36c1,0,2.16-.87,3.09-2.28l2.28-3.51.33,2.07c.39,2.55,1.08,3.72,2.16,3.72a4.55,4.55,0,0,0,2.58-1.38l1.47-1.32-.27-.57a4.76,4.76,0,0,1-2.31,1.35c-.45,0-.84-.3-1.14-.9a11.77,11.77,0,0,1-.75-2.55l-.54-3,1.05-1.47c1.41-1.95,2.22-2.64,3.15-2.64a1,1,0,0,1,1,.69l.42-.12.45-2.55a1.76,1.76,0,0,0-.9-.3c-1.2,0-2.4,1.08-4.26,3.84l-1.11,1.65-.18-1.44c-.36-3-1.17-4.05-2.94-4.05a2.11,2.11,0,0,0-1.71.63L289,278.89l.51.3c.9-1,1.5-1.44,2.07-1.44,1,0,1.65,1.23,2.16,4.17l.33,1.86-1.2,1.86c-1.29,2-2.31,3-3.15,3-.45,0-.78-.12-.84-.27l-.33-.84-.6.09A14.81,14.81,0,0,1,287.61,290.2Z" transform="translate(0.25 0.25)"/>
</svg>
