<svg id="Livello_1" data-name="Livello 1" xmlns="http://www.w3.org/2000/svg" xmlns:xlink="http://www.w3.org/1999/xlink" width="662.5" height="784.5" viewBox="0 0 662.5 784.5">
  <defs>
    <style>
      .cls-1, .cls-10, .cls-11, .cls-12, .cls-13, .cls-14, .cls-19, .cls-2, .cls-4, .cls-6, .cls-7, .cls-8, .cls-9 {
        fill: none;
      }

      .cls-2, .cls-3 {
        stroke: #d3d3d3;
        stroke-width: 0.5px;
      }

      .cls-3 {
        fill: url(#_.843999549798788);
      }

      .cls-17, .cls-4 {
        stroke: red;
      }

      .cls-12, .cls-4, .cls-9 {
        stroke-width: 4px;
      }

      .cls-17, .cls-5 {
        fill: red;
      }

      .cls-15, .cls-24, .cls-25, .cls-6, .cls-7 {
        stroke: #4a90e2;
      }

      .cls-10, .cls-6, .cls-8 {
        stroke-width: 3px;
      }

      .cls-13, .cls-14, .cls-7 {
        stroke-width: 2px;
      }

      .cls-10, .cls-11, .cls-12, .cls-13, .cls-14, .cls-16, .cls-18, .cls-19, .cls-20, .cls-8, .cls-9 {
        stroke: #000;
      }

      .cls-10 {
        stroke-dasharray: 3.38 4.02;
      }

      .cls-12 {
        stroke-dasharray: 4.5 4.36;
      }

      .cls-14 {
        stroke-dasharray: 2.25 3.68;
      }

      .cls-15, .cls-24, .cls-25 {
        fill: #4a90e2;
      }

      .cls-15, .cls-16, .cls-17, .cls-18, .cls-20, .cls-21, .cls-23, .cls-24, .cls-25 {
        stroke-miterlimit: 10;
      }

      .cls-15 {
        stroke-width: 0.4px;
      }

      .cls-16 {
        stroke-width: 0.24px;
      }

      .cls-17 {
        stroke-width: 0.32px;
      }

      .cls-18 {
        stroke-width: 0.2px;
      }

      .cls-20 {
        stroke-width: 0.14px;
      }

      .cls-21, .cls-22, .cls-23 {
        fill: #ff001f;
      }

      .cls-21, .cls-23 {
        stroke: #ff001f;
      }

      .cls-21, .cls-24 {
        stroke-width: 0.24px;
      }

      .cls-23 {
        stroke-width: 0.17px;
      }

      .cls-25 {
        stroke-width: 0.28px;
      }
    </style>
    <pattern id="_.843999549798788" data-name=".843999549798788" width="10" height="10" patternTransform="matrix(1, 0, 0, -1, -2.75, 851.14)" patternUnits="userSpaceOnUse" viewBox="0 0 10 10">
      <rect class="cls-1" width="10" height="10"/>
      <path class="cls-2" d="M10,10H0V0"/>
    </pattern>
  </defs>
  <rect class="cls-3" x="0.25" y="0.25" width="662" height="784"/>
  <g>
    <g>
      <path class="cls-4" d="M112.58,310.64H17.25" transform="translate(0.25 0.25)"/>
      <path class="cls-5" d="M28.22,302.49l-17,8.15,17,8.15Z" transform="translate(0.25 0.25)"/>
    </g>
    <g>
      <path class="cls-4" d="M112.58,287H17.25" transform="translate(0.25 0.25)"/>
      <path class="cls-5" d="M28.22,278.85l-17,8.15,17,8.15Z" transform="translate(0.25 0.25)"/>
    </g>
    <g>
      <path class="cls-4" d="M112.84,255.75H17.5" transform="translate(0.25 0.25)"/>
      <path class="cls-5" d="M28.47,247.6l-17,8.15,17,8.15Z" transform="translate(0.25 0.25)"/>
    </g>
    <g>
      <path class="cls-4" d="M109.46,340.2H14.13" transform="translate(0.25 0.25)"/>
      <path class="cls-5" d="M25.1,332.05l-17,8.15,17,8.15Z" transform="translate(0.25 0.25)"/>
    </g>
    <path class="cls-6" d="M534.13,564.41l-429.72,2.12" transform="translate(0.25 0.25)"/>
    <path class="cls-6" d="M103.36,583.64l-.15-34.22" transform="translate(0.25 0.25)"/>
    <path class="cls-6" d="M534.2,581.52l-.15-34.23" transform="translate(0.25 0.25)"/>
    <path class="cls-7" d="M124.36,261.05,99.59,272.42" transform="translate(0.25 0.25)"/>
    <path class="cls-8" d="M515.93,242.24c8.43,0,15.38,23.38,15.51,52.32s-6.58,52.42-15,52.46-15.37-23.38-15.51-52.32S507.5,242.28,515.93,242.24Z" transform="translate(0.25 0.25)"/>
    <path class="cls-8" d="M515.93,242.24l-111.38.52" transform="translate(0.25 0.25)"/>
    <path class="cls-8" d="M516.42,347l-111.37.53" transform="translate(0.25 0.25)"/>
    <path class="cls-8" d="M407.32,347.65l-58.79.27" transform="translate(0.25 0.25)"/>
    <path class="cls-8" d="M406.83,242.86l-58.8.28" transform="translate(0.25 0.25)"/>
    <path class="cls-9" d="M348,243.14c-22.45,34-22.26,74.74.5,104.78" transform="translate(0.25 0.25)"/>
    <path class="cls-10" d="M348,243.14c22.78,33.82,23,74.52.5,104.78" transform="translate(0.25 0.25)"/>
    <g>
      <path class="cls-4" d="M516.19,297.13h95.34" transform="translate(0.25 0.25)"/>
      <path class="cls-5" d="M600.56,305.28l17-8.15-17-8.15Z" transform="translate(0.25 0.25)"/>
    </g>
    <path class="cls-11" d="M221.79,485l2.64-291.62L440.07,84.14l-2.65,291.62Z" transform="translate(0.25 0.25)"/>
    <path class="cls-8" d="M224.57,348.77l-110.93.28" transform="translate(0.25 0.25)"/>
    <path class="cls-8" d="M223.64,244l-110.93.28" transform="translate(0.25 0.25)"/>
    <path class="cls-9" d="M112.71,244.27c-22.46,34-22.27,74.73.49,104.78" transform="translate(0.25 0.25)"/>
    <path class="cls-12" d="M112.71,244.27c22.77,33.81,23,74.52.49,104.78" transform="translate(0.25 0.25)"/>
    <path class="cls-7" d="M131.11,285.82,97.33,297.19" transform="translate(0.25 0.25)"/>
    <path class="cls-7" d="M130,297.08,98.46,308.45" transform="translate(0.25 0.25)"/>
    <path class="cls-7" d="M128.86,311.72l-28.15,11.36" transform="translate(0.25 0.25)"/>
    <path class="cls-7" d="M130,323l-24.77,11.36" transform="translate(0.25 0.25)"/>
    <path class="cls-7" d="M131.11,273.44,97.33,284.8" transform="translate(0.25 0.25)"/>
    <path class="cls-7" d="M360.81,262.18,336,273.54" transform="translate(0.25 0.25)"/>
    <path class="cls-7" d="M367.56,287l-33.78,11.36" transform="translate(0.25 0.25)"/>
    <path class="cls-7" d="M366.44,298.21l-31.53,11.36" transform="translate(0.25 0.25)"/>
    <path class="cls-7" d="M365.31,312.84l-28.15,11.37" transform="translate(0.25 0.25)"/>
    <path class="cls-7" d="M366.44,324.1l-24.77,11.37" transform="translate(0.25 0.25)"/>
    <path class="cls-7" d="M367.56,274.56l-33.78,11.37" transform="translate(0.25 0.25)"/>
    <path class="cls-7" d="M526.32,255.42l-24.77,11.37" transform="translate(0.25 0.25)"/>
    <path class="cls-7" d="M533.08,280.19,499.3,291.56" transform="translate(0.25 0.25)"/>
    <path class="cls-7" d="M532,291.45l-31.52,11.37" transform="translate(0.25 0.25)"/>
    <path class="cls-7" d="M530.83,306.09l-28.15,11.36" transform="translate(0.25 0.25)"/>
    <path class="cls-7" d="M532,317.35l-24.77,11.36" transform="translate(0.25 0.25)"/>
    <path class="cls-7" d="M533.08,267.81,499.3,279.17" transform="translate(0.25 0.25)"/>
    <path class="cls-13" d="M351.8,298.21l-3.75,43.14" transform="translate(0.25 0.25)"/>
    <g>
      <path class="cls-4" d="M516.19,273.49h95.34" transform="translate(0.25 0.25)"/>
      <path class="cls-5" d="M600.56,281.64l17-8.15-17-8.15Z" transform="translate(0.25 0.25)"/>
    </g>
    <g>
      <path class="cls-4" d="M515.93,242.24h95.34" transform="translate(0.25 0.25)"/>
      <path class="cls-5" d="M600.3,250.39l17-8.15-17-8.15Z" transform="translate(0.25 0.25)"/>
    </g>
    <g>
      <path class="cls-4" d="M514.81,208.46h95.33" transform="translate(0.25 0.25)"/>
      <path class="cls-5" d="M599.17,216.61l17-8.15-17-8.15Z" transform="translate(0.25 0.25)"/>
    </g>
    <g>
      <path class="cls-4" d="M514.81,171.3h95.33" transform="translate(0.25 0.25)"/>
      <path class="cls-5" d="M599.17,179.45l17-8.15-17-8.15Z" transform="translate(0.25 0.25)"/>
    </g>
    <g>
      <path class="cls-4" d="M513.68,131.9H609" transform="translate(0.25 0.25)"/>
      <path class="cls-5" d="M598.05,140.05l17-8.15-17-8.15Z" transform="translate(0.25 0.25)"/>
    </g>
    <g>
      <path class="cls-4" d="M520.43,403.25h95.34" transform="translate(0.25 0.25)"/>
      <path class="cls-5" d="M604.8,411.4l17-8.15-17-8.15Z" transform="translate(0.25 0.25)"/>
    </g>
    <g>
      <path class="cls-4" d="M520.43,366.09h95.34" transform="translate(0.25 0.25)"/>
      <path class="cls-5" d="M604.8,374.24l17-8.15-17-8.15Z" transform="translate(0.25 0.25)"/>
    </g>
    <g>
      <path class="cls-4" d="M519.31,336.82h95.33" transform="translate(0.25 0.25)"/>
      <path class="cls-5" d="M603.67,345l17-8.15-17-8.15Z" transform="translate(0.25 0.25)"/>
    </g>
    <path class="cls-6" d="M533,500.55l-213.3,1.29" transform="translate(0.25 0.25)"/>
    <path class="cls-6" d="M319.22,512.27l-.07-20.86" transform="translate(0.25 0.25)"/>
    <path class="cls-6" d="M533.08,511,533,490.12" transform="translate(0.25 0.25)"/>
    <path class="cls-6" d="M314.61,500.55l-213.3,1.29" transform="translate(0.25 0.25)"/>
    <path class="cls-6" d="M100.79,512.27l-.08-20.86" transform="translate(0.25 0.25)"/>
    <path class="cls-6" d="M314.64,511l-.07-20.86" transform="translate(0.25 0.25)"/>
    <g>
      <path class="cls-4" d="M114,222H18.63" transform="translate(0.25 0.25)"/>
      <path class="cls-5" d="M29.6,213.82l-17,8.15,17,8.15Z" transform="translate(0.25 0.25)"/>
    </g>
    <g>
      <path class="cls-4" d="M114,184.82H18.63" transform="translate(0.25 0.25)"/>
      <path class="cls-5" d="M29.6,176.67l-17,8.15,17,8.15Z" transform="translate(0.25 0.25)"/>
    </g>
    <g>
      <path class="cls-4" d="M115.09,145.41H19.76" transform="translate(0.25 0.25)"/>
      <path class="cls-5" d="M30.73,137.26l-17,8.15,17,8.15Z" transform="translate(0.25 0.25)"/>
    </g>
    <g>
      <path class="cls-4" d="M108.34,416.76H13" transform="translate(0.25 0.25)"/>
      <path class="cls-5" d="M24,408.61,7,416.76l17,8.15Z" transform="translate(0.25 0.25)"/>
    </g>
    <g>
      <path class="cls-4" d="M108.34,379.61H13" transform="translate(0.25 0.25)"/>
      <path class="cls-5" d="M24,371.46,7,379.61l17,8.15Z" transform="translate(0.25 0.25)"/>
    </g>
    <g>
      <path class="cls-13" d="M516.18,294.63h50.05" transform="translate(0.25 0.25)"/>
      <path d="M558.62,300.21l11.61-5.58-11.61-5.58Z" transform="translate(0.25 0.25)"/>
    </g>
    <path class="cls-14" d="M224.57,348.77l124-.85" transform="translate(0.25 0.25)"/>
    <path class="cls-14" d="M223.64,244l124-.85" transform="translate(0.25 0.25)"/>
  </g>
  <g>
    <path class="cls-15" d="M270.33,577.12l-.6-.55a19.58,19.58,0,0,1-8,2.1l-.2,1.05h2.4c1.2,0,1.7.35,1.7,1.1a7.34,7.34,0,0,1-.15,1.3c-.55,2.75-4.2,22-5,24.5a22.61,22.61,0,0,0-.95,5c0,1.25.55,2,1.5,2,1.3,0,3.1-1,8-4.7l-.5-.9-1.3.85a8.28,8.28,0,0,1-3,1.5c-.35,0-.65-.5-.65-1a7.39,7.39,0,0,1,.2-1.4Z" transform="translate(0.25 0.25)"/>
    <path class="cls-15" d="M316.84,595.87v-3H289.89v3Zm0,10.65v-2.95H289.89v2.95Z" transform="translate(0.25 0.25)"/>
    <path class="cls-15" d="M335.85,612.07v1.3c9.35,0,9.35-.15,11.15-.15s1.8.15,11.45.15v-4.25c-5.75.25-8.05,0-17.3.25l9.1-9.65c4.85-5.15,6.35-7.9,6.35-11.65,0-5.75-3.9-9.3-10.25-9.3a10.76,10.76,0,0,0-8.5,3.5l-.85,6.8h1.45l.65-2.3c.8-2.9,2.6-4.15,5.95-4.15,4.3,0,7.05,2.7,7.05,7,0,3.75-2.1,7.45-7.75,13.45Zm48.3-35-.6-.55a19.58,19.58,0,0,1-8,2.1l-.2,1.05h2.4c1.2,0,1.7.35,1.7,1.2a9,9,0,0,1-.1,1.2l-1.4,7.7a14.39,14.39,0,0,0-4.1-.7c-3.45,0-8.15,3.6-10.45,8a27.62,27.62,0,0,0-2.55,11.85c0,3.25.75,4.85,2.2,4.85a8.92,8.92,0,0,0,4.9-2.2c2.7-2.2,4.35-4.15,7.7-9.2l-1.15,4.55a21.63,21.63,0,0,0-.8,5.1c0,1.05.45,1.65,1.3,1.65s2.05-.6,3.75-1.85l4.05-3-.5-1-2.2,1.55a4.18,4.18,0,0,1-2,.85c-.4,0-.7-.45-.7-1.15a9.69,9.69,0,0,1,.4-2.3ZM365.7,610.27c-.8,0-1.25-.7-1.25-1.95,0-6.3,2.3-14.1,4.75-16a4.74,4.74,0,0,1,2.95-.75,10.5,10.5,0,0,1,5.3,1.15l-.6,2.95C375,604.67,368,610.27,365.7,610.27Z" transform="translate(0.25 0.25)"/>
  </g>
  <path class="cls-16" d="M349,361.34h1.68c.72,0,1.06.23,1.07.77a17.2,17.2,0,0,1-.19,2.29l-1.79,13.09c-.39,2.75-.45,2.81-1.64,3l-1.23.13-.09.85,1.26-.08c1.41-.11,2-.13,2.7-.15h2.91l.78,0,.06-.84-1.47,0c-.81,0-1.09-.26-1.11-.86a6,6,0,0,1,.08-1.06l2.45-16.74a10.25,10.25,0,0,1,2.27-.32c2.61-.09,4,1,4.11,3.25.09,2.85-2.17,5-5.29,5.14l-1.32,0-.08.33c4.22,5.71,5.2,7.12,7.58,10.85l2.55-.18s.45,0,1,.05h.39l0-.81c-1.2-.11-1.54-.34-2.45-1.57l-5.81-8a7.8,7.8,0,0,0,3.55-1.56,5.82,5.82,0,0,0,2.51-4.83c-.09-2.58-2.06-3.92-5.39-3.75l-9,.32Z" transform="translate(0.25 0.25)"/>
  <path class="cls-17" d="M264.29,431h2.36l0-9.6,9.52,0V419l-9.52,0,0-9.6h-2.36l.05,9.6-9.64,0v2.36l9.64-.05Z" transform="translate(0.25 0.25)"/>
  <g>
    <g>
      <path class="cls-18" d="M580.33,307.94l-.17-.22-1.7.42-.25,1.28a13.8,13.8,0,0,1-1.76,4.83c-1.47,2.28-3.42,4.06-4.42,4.06-.2,0-.33-.23-.33-.65a6.11,6.11,0,0,1,.18-1.3l1.4-6.78a5.54,5.54,0,0,0,.13-1.07c0-.48-.23-.78-.58-.78-.5,0-1.45.53-3.3,1.86l-.69.5.17.5.8-.53c.7-.45,1-.57,1.2-.57a.48.48,0,0,1,.43.49,3.44,3.44,0,0,1-.05.45l-1.56,7.43a7.77,7.77,0,0,0-.1,1.18.94.94,0,0,0,.88,1c1.57,0,4.59-2.81,6.68-6.26l-.91,3.55a6.5,6.5,0,0,0-.27,1.65c0,.62.27,1,.75,1,.65,0,1.55-.53,4-2.36l-.25-.45-.65.43a3.82,3.82,0,0,1-1.52.67c-.2,0-.33-.17-.33-.42C578.1,317,580,309.37,580.33,307.94Z" transform="translate(0.25 0.25)"/>
      <polyline class="cls-19" points="568.27 303.65 575.2 299.02 582.15 303.62"/>
    </g>
    <path class="cls-20" d="M589.13,322.61a17.85,17.85,0,0,1,.27-1.95.85.85,0,0,0-.35-.1c-.54,0-1.08.42-1.71,1.32a22,22,0,0,0-1.64,2.64l.56-2.66a3.15,3.15,0,0,0,.1-.73c0-.35-.14-.56-.4-.56s-1,.37-2.33,1.3l-.49.35.13.35.56-.37a2,2,0,0,1,.83-.41c.18,0,.3.16.3.39a37,37,0,0,1-1.43,6.86l.17.12c.26-.08.54-.14.95-.23l.22,0,.45-2.1a7.87,7.87,0,0,1,1.48-3.38c.6-.77,1.07-1.14,1.45-1.14a.7.7,0,0,1,.63.33Z" transform="translate(0.25 0.25)"/>
  </g>
  <g>
    <g>
      <path class="cls-21" d="M560.07,96.34h3.51l4,.12.57-1.35L568,94.9c-2.43.12-4.23.18-6.57.18h-1.11l1.41-8.1c1,0,3.45-.12,4.11-.12,1.86,0,3.09.27,3.12.72l.24,2.67h.72a20.27,20.27,0,0,1,.63-4.56c-.63-.06-1.53-.09-2.07-.09-.09,0-.42,0-1.14,0l-3.6,0c-.27,0-5.49,0-5.79,0l-1.35,0-.09.84,1.62.06c.72,0,1,.27,1,.81a18.52,18.52,0,0,1-.27,2.28l-2.61,15.12c-.12.54-.48.75-1.8,1l-.15.78,1.23,0c.93,0,2.79-.06,3.39-.06l6.75.09c.42,0,1.17,0,2.16-.06l1,0,.12-1.08c.06-.6.21-1.5.48-3l.15-.78h-.81l-.48,1.8c-.3,1.08-.57,1.44-1.23,1.59a34.72,34.72,0,0,1-4.41.27,40.28,40.28,0,0,1-4.11-.21Z" transform="translate(0.25 0.25)"/>
      <path class="cls-22" d="M573.22,74.92l-5.56-5.86-.86.92,3.4,4.1h-.27v1.59h.27l-3.4,4.1.86.92Zm-16.81.67h16V74h-16Z" transform="translate(0.25 0.25)"/>
    </g>
    <path class="cls-23" d="M573,117v.55c3.93,0,3.93-.07,4.68-.07s.76.07,4.81.07v-1.79c-2.41.11-3.38,0-7.26.11l3.82-4.06c2-2.16,2.67-3.31,2.67-4.89,0-2.41-1.64-3.91-4.31-3.91a4.52,4.52,0,0,0-3.57,1.47l-.36,2.86h.61l.28-1a2.21,2.21,0,0,1,2.49-1.74,2.75,2.75,0,0,1,3,2.92c0,1.58-.89,3.13-3.26,5.65Z" transform="translate(0.25 0.25)"/>
  </g>
  <path class="cls-17" d="M326.22,407.36h2.36l0-9.6,9.52,0v-2.36l-9.52,0,0-9.6h-2.36l.05,9.6-9.64.05v2.36l9.64-.05Z" transform="translate(0.25 0.25)"/>
  <path class="cls-17" d="M393.79,379.21l2.36,0,0-9.6,9.52,0v-2.36l-9.52,0,0-9.6-2.36,0,.05,9.6-9.64,0v2.36l9.64,0Z" transform="translate(0.25 0.25)"/>
  <path class="cls-17" d="M266.16,389.21l2.36,0,0-9.6,9.52,0v-2.36l-9.52,0,0-9.6-2.36,0,0,9.6-9.64,0,0,2.36,9.64,0Z" transform="translate(0.25 0.25)"/>
  <path class="cls-17" d="M262,341.05h2.36l0-9.6,9.52-.05V329l-9.52.05,0-9.6h-2.36l.05,9.6-9.64,0v2.36l9.64,0Z" transform="translate(0.25 0.25)"/>
  <path class="cls-17" d="M261.79,292.38h2.36l0-9.6,9.52,0v-2.36l-9.52.05,0-9.6h-2.36l.05,9.6-9.64,0v2.36l9.64,0Z" transform="translate(0.25 0.25)"/>
  <path class="cls-17" d="M263.54,229l2.36,0,0-9.6,9.52,0v-2.36l-9.52,0,0-9.6-2.36,0,.05,9.6-9.64,0v2.36l9.64,0Z" transform="translate(0.25 0.25)"/>
  <path class="cls-17" d="M327.35,188.92h2.36l0-9.6,9.52,0v-2.36l-9.52,0,0-9.6h-2.36l0,9.6-9.64,0v2.36l9.64-.05Z" transform="translate(0.25 0.25)"/>
  <path class="cls-17" d="M330.72,235.1l2.36,0,0-9.6,9.52,0v-2.36l-9.52,0,0-9.59h-2.36l.05,9.6-9.64,0v2.36l9.64,0Z" transform="translate(0.25 0.25)"/>
  <path class="cls-17" d="M391.52,159.64h2.36l-.05-9.6,9.52,0v-2.36l-9.52,0,0-9.6h-2.36l0,9.6-9.64,0v2.36l9.64-.05Z" transform="translate(0.25 0.25)"/>
  <path class="cls-17" d="M394.91,211.44h2.36l0-9.6,9.52-.05v-2.36l-9.52.05,0-9.6h-2.36l0,9.6-9.64.05,0,2.36,9.63,0Z" transform="translate(0.25 0.25)"/>
  <path class="cls-17" d="M309.21,272.25h2.36l-.05-9.6,9.52,0v-2.36l-9.52,0,0-9.6h-2.36l0,9.6-9.64,0v2.36l9.64-.05Z" transform="translate(0.25 0.25)"/>
  <path class="cls-17" d="M312.71,329.67h2.36l-.05-9.6,9.52,0v-2.36l-9.52,0,0-9.6h-2.36l0,9.6-9.64.05v2.36l9.64-.05Z" transform="translate(0.25 0.25)"/>
  <g>
    <g>
      <path class="cls-21" d="M71,110.35h3.51l4,.12.57-1.35-.12-.21c-2.43.12-4.23.18-6.57.18H71.21l1.41-8.1c1,0,3.45-.12,4.11-.12,1.86,0,3.09.27,3.12.72l.24,2.67h.72a20.27,20.27,0,0,1,.63-4.56c-.63-.06-1.53-.09-2.07-.09-.09,0-.42,0-1.14,0l-3.6,0c-.27,0-5.49,0-5.79,0l-1.35,0-.09.84,1.62.06c.72,0,1,.27,1,.81a18.52,18.52,0,0,1-.27,2.28l-2.61,15.12c-.12.54-.48.75-1.8,1l-.15.78,1.23,0c.93,0,2.79-.06,3.39-.06l6.75.09c.42,0,1.17,0,2.16-.06l1,0,.12-1.08c.06-.6.21-1.5.48-3l.15-.78H79.7l-.48,1.8c-.3,1.08-.57,1.44-1.23,1.59a34.72,34.72,0,0,1-4.41.27,40.28,40.28,0,0,1-4.11-.21Z" transform="translate(0.25 0.25)"/>
      <path class="cls-22" d="M84.12,88.93l-5.56-5.86L77.7,84l3.4,4.1h-.27v1.59h.27l-3.4,4.1.86.92Zm-16.81.67h16V88h-16Z" transform="translate(0.25 0.25)"/>
    </g>
    <path class="cls-23" d="M92.31,131.53v-.63l-1.09-.06c-1.16-.06-1.37-.3-1.37-1.39V116.77l-5.06,2.14.15,1,3.15-1.39v10.88c0,1.09-.23,1.33-1.37,1.39l-1.17.06v.63l3.46-.06C89.66,131.47,92,131.53,92.31,131.53Z" transform="translate(0.25 0.25)"/>
  </g>
  <path class="cls-24" d="M437.32,512.92l-.36-.33a11.75,11.75,0,0,1-4.8,1.26l-.12.63h1.44c.72,0,1,.21,1,.72a5.37,5.37,0,0,1-.06.72l-.84,4.62a8.63,8.63,0,0,0-2.46-.42c-2.07,0-4.89,2.16-6.27,4.77a16.57,16.57,0,0,0-1.53,7.11c0,2,.45,2.91,1.32,2.91a5.35,5.35,0,0,0,2.94-1.32,21.22,21.22,0,0,0,4.62-5.52l-.69,2.73a13,13,0,0,0-.48,3.06c0,.63.27,1,.78,1a4.53,4.53,0,0,0,2.25-1.11l2.43-1.8-.3-.57-1.32.93a2.51,2.51,0,0,1-1.17.51c-.24,0-.42-.27-.42-.69a5.82,5.82,0,0,1,.24-1.38Zm-11.07,19.89c-.48,0-.75-.42-.75-1.17,0-3.78,1.38-8.46,2.85-9.6a2.84,2.84,0,0,1,1.77-.45,6.3,6.3,0,0,1,3.18.69l-.36,1.77C431.83,529.45,427.6,532.81,426.25,532.81Z" transform="translate(0.25 0.25)"/>
  <path class="cls-24" d="M217.76,512.92l-.36-.33a11.75,11.75,0,0,1-4.8,1.26l-.12.63h1.44c.72,0,1,.21,1,.72a5.37,5.37,0,0,1-.06.72l-.84,4.62a8.63,8.63,0,0,0-2.46-.42c-2.07,0-4.89,2.16-6.27,4.77a16.57,16.57,0,0,0-1.53,7.11c0,2,.45,2.91,1.32,2.91a5.35,5.35,0,0,0,2.94-1.32,21.22,21.22,0,0,0,4.62-5.52L212,530.8a13,13,0,0,0-.48,3.06c0,.63.27,1,.78,1a4.53,4.53,0,0,0,2.25-1.11l2.43-1.8-.3-.57-1.32.93a2.51,2.51,0,0,1-1.17.51c-.24,0-.42-.27-.42-.69a5.82,5.82,0,0,1,.24-1.38Zm-11.07,19.89c-.48,0-.75-.42-.75-1.17,0-3.78,1.38-8.46,2.85-9.6a2.84,2.84,0,0,1,1.77-.45,6.3,6.3,0,0,1,3.18.69l-.36,1.77C212.27,529.45,208,532.81,206.69,532.81Z" transform="translate(0.25 0.25)"/>
  <path class="cls-24" d="M493,342.7c.39-2,.72-3.93,1.26-5.91v-.09h-.66v.09c-1,2.46-1.26,3.51-4.11,3.51H478.74c2.49-3.24,5.1-6.45,7.77-9.51-1.35-2.43-2.49-5-3.63-7.53h7.59c3,0,3.12.51,3,3.24h.66v-.12c.33-1.41.57-2.88,1-4.29v-.18c-5.22.24-10.56.21-15.78.24v.48a90.54,90.54,0,0,1,4.59,9.75,110.86,110.86,0,0,1-8.64,9.75v.57C481.26,342.55,487.08,342.55,493,342.7Z" transform="translate(0.25 0.25)"/>
  <path class="cls-24" d="M385.46,344c.39-2,.72-3.93,1.26-5.91V338h-.66V338c-1,2.46-1.26,3.51-4.11,3.51H371.21c2.49-3.24,5.1-6.45,7.77-9.51-1.35-2.43-2.49-5-3.63-7.53h7.59c3,0,3.12.51,3,3.24h.66v-.12c.33-1.41.57-2.88,1-4.29v-.18c-5.22.24-10.56.21-15.78.24v.48a90.54,90.54,0,0,1,4.59,9.75,110.86,110.86,0,0,1-8.64,9.75V344C373.73,343.8,379.55,343.8,385.46,344Z" transform="translate(0.25 0.25)"/>
  <path class="cls-24" d="M149,342.82c.39-2,.72-3.93,1.26-5.91v-.09h-.66v.09c-1,2.46-1.26,3.51-4.11,3.51H134.77c2.49-3.24,5.1-6.45,7.77-9.51-1.35-2.43-2.49-5-3.63-7.53h7.59c3,0,3.12.51,3,3.24h.66v-.12c.33-1.41.57-2.88,1-4.29V322c-5.22.24-10.56.21-15.78.24v.48A90.54,90.54,0,0,1,140,332.5a110.86,110.86,0,0,1-8.64,9.75v.57C137.29,342.67,143.11,342.67,149,342.82Z" transform="translate(0.25 0.25)"/>
  <g>
    <path class="cls-15" d="M265.43,731.48c.65-3.3,1.2-6.55,2.1-9.85v-.15h-1.1v.15c-1.7,4.1-2.1,5.85-6.85,5.85h-17.9c4.15-5.4,8.5-10.75,12.95-15.85-2.25-4-4.15-8.35-6-12.55h12.65c5-.05,5.2.85,5,5.4h1.1v-.2c.55-2.35.95-4.8,1.7-7.15v-.3c-8.7.4-17.6.35-26.3.4v.8a150.89,150.89,0,0,1,7.65,16.25A184.76,184.76,0,0,1,236,730.53v1C245.88,731.23,255.58,731.23,265.43,731.48Z" transform="translate(0.25 0.25)"/>
    <path class="cls-15" d="M316.23,713.93V711h-27v2.95Zm0,10.65v-3h-27v3Z" transform="translate(0.25 0.25)"/>
    <path class="cls-15" d="M360.69,729.18c-2.8,0-3.05-4.15-3-6.2a24,24,0,0,1,3.6-12l3.1-.65a17.52,17.52,0,0,1,.7-2.45c-7.7.3-15.65.2-23.4.05-3.25-.05-3.95,3.85-4.9,6.3-.05.4.6.45.8.6v-.2c2.15-3.15,3.35-3.65,7.1-3.65h1.15c-2,7-3.35,13.8-6.5,20.35v.5a14.62,14.62,0,0,0,3.6-1.25c2.05-6.4,3.5-13,4.9-19.6h11.35a28.83,28.83,0,0,0-5,14.85c0,2.45.75,6.15,3.8,6.15,2.05,0,4.85-2,6.35-3.3V728h-.6v-.05A6.11,6.11,0,0,1,360.69,729.18Zm11.65-31.1,2.8.1c1.2.05,1.75.45,1.75,1.35a30.86,30.86,0,0,1-.45,3.8L372.69,725c-.8,4.55-.9,4.65-2.9,4.85l-2.05.15-.2,1.4,2.1,0c2.35-.1,3.3-.1,4.5-.1l4.85.15h1.3l.15-1.4-2.45-.15c-1.35-.1-1.8-.5-1.8-1.5a9.69,9.69,0,0,1,.2-1.75l5.05-27.75a17,17,0,0,1,3.8-.4c4.35,0,6.65,1.95,6.65,5.65,0,4.75-3.9,8.25-9.1,8.25h-2.2l-.15.55c6.7,9.75,8.25,12.15,12,18.5l4.25-.15c.05,0,.75.05,1.7.15H399v-1.35c-2-.25-2.55-.65-4-2.75l-9.2-13.75a12.85,12.85,0,0,0,6-2.4c2.9-2.1,4.45-4.85,4.45-7.9,0-4.3-3.2-6.65-8.75-6.55H372.49Z" transform="translate(0.25 0.25)"/>
    <path class="cls-25" d="M403.84,710.77v.91c6.55,0,6.55-.1,7.81-.1s1.26.1,8,.1v-3c-4,.17-5.63,0-12.11.17l6.37-6.75c3.4-3.61,4.45-5.53,4.45-8.16,0-4-2.73-6.51-7.18-6.51a7.54,7.54,0,0,0-5.95,2.45l-.59,4.76h1l.46-1.61c.56-2,1.82-2.9,4.16-2.9a4.58,4.58,0,0,1,4.94,4.86c0,2.63-1.47,5.22-5.43,9.42Z" transform="translate(0.25 0.25)"/>
  </g>
  <path class="cls-17" d="M318.27,375.22h2.36l-.05-9.6,9.52-.05v-2.35l-9.52,0,0-9.6h-2.36l0,9.6-9.64.05v2.36l9.64-.05Z" transform="translate(0.25 0.25)"/>
</svg>
