<svg id="Livello_1" data-name="Livello 1" xmlns="http://www.w3.org/2000/svg" xmlns:xlink="http://www.w3.org/1999/xlink" width="662.5" height="606.5" viewBox="0 0 662.5 606.5">
  <defs>
    <style>
      .cls-1, .cls-2, .cls-4, .cls-5, .cls-6, .cls-7 {
        fill: none;
      }

      .cls-2, .cls-3 {
        stroke: #d3d3d3;
        stroke-width: 0.5px;
      }

      .cls-3 {
        fill: url(#_.843999549798788);
      }

      .cls-10, .cls-11, .cls-4, .cls-5, .cls-6, .cls-9 {
        stroke: #000;
      }

      .cls-4, .cls-5 {
        stroke-width: 3px;
      }

      .cls-4 {
        stroke-dasharray: 3.38 4.02;
      }

      .cls-6 {
        stroke-width: 2px;
      }

      .cls-12, .cls-7 {
        stroke: red;
      }

      .cls-7 {
        stroke-width: 4px;
      }

      .cls-12, .cls-8 {
        fill: red;
      }

      .cls-10, .cls-11, .cls-12 {
        stroke-miterlimit: 10;
      }

      .cls-10 {
        stroke-width: 0.4px;
      }

      .cls-11, .cls-12 {
        stroke-width: 0.32px;
      }
    </style>
    <pattern id="_.843999549798788" data-name=".843999549798788" width="10" height="10" patternTransform="matrix(1, 0, 0, -1, -2.75, 850.14)" patternUnits="userSpaceOnUse" viewBox="0 0 10 10">
      <rect class="cls-1" width="10" height="10"/>
      <path class="cls-2" d="M10,10H0V0"/>
    </pattern>
  </defs>
  <rect class="cls-3" x="0.25" y="0.25" width="662" height="606"/>
  <g>
    <path class="cls-4" d="M138.78,335.26a145,145,0,1,1,145,145A145,145,0,0,1,138.78,335.26Z" transform="translate(0.25 0.25)"/>
    <path class="cls-5" d="M50,335.26c0-129.08,104.65-233.73,233.74-233.73S517.47,206.18,517.47,335.26,412.82,569,283.74,569,50,464.35,50,335.26Z" transform="translate(0.25 0.25)"/>
    <path class="cls-6" d="M171.28,425.9l112.46-90.64" transform="translate(0.25 0.25)"/>
    <path class="cls-6" d="M51,335.26H283.74" transform="translate(0.25 0.25)"/>
    <g>
      <path class="cls-7" d="M579.71,65.26,400,246.72" transform="translate(0.25 0.25)"/>
      <path class="cls-8" d="M577.78,78.79,583.93,61,566.2,67.32Z" transform="translate(0.25 0.25)"/>
    </g>
    <path class="cls-9" d="M276.49,335.26a7.25,7.25,0,1,1,7.25,7.25A7.24,7.24,0,0,1,276.49,335.26Z" transform="translate(0.25 0.25)"/>
    <path class="cls-9" d="M392.75,246.72A7.25,7.25,0,1,1,400,254,7.25,7.25,0,0,1,392.75,246.72Z" transform="translate(0.25 0.25)"/>
  </g>
  <path class="cls-10" d="M225.85,361.45a46.38,46.38,0,0,1,.8-5.55,2.25,2.25,0,0,0-1-.3c-1.55,0-3.1,1.2-4.9,3.75a61.65,61.65,0,0,0-4.7,7.55l1.6-7.6a9.17,9.17,0,0,0,.3-2.1c0-1-.4-1.6-1.15-1.6-1.05,0-3,1-6.65,3.7l-1.4,1,.35,1,1.6-1.05c1.4-.9,2-1.15,2.4-1.15s.85.45.85,1.1c0,2.9-2.15,13.2-4.15,19.6l.5.35a27.17,27.17,0,0,1,2.7-.65l.65-.1,1.3-6a21.9,21.9,0,0,1,4.25-9.65c1.7-2.2,3.05-3.25,4.15-3.25a2.07,2.07,0,0,1,1.8.95Z" transform="translate(0.25 0.25)"/>
  <path class="cls-11" d="M107.61,298l2.24.08c1,0,1.4.36,1.4,1.08a24.69,24.69,0,0,1-.36,3l-3,17.36c-.64,3.64-.72,3.72-2.32,3.88l-1.64.12-.16,1.12,1.68,0c1.88-.08,2.64-.08,3.6-.08l3.88.12h1l.12-1.12-2-.12c-1.08-.08-1.44-.4-1.44-1.2a7.75,7.75,0,0,1,.16-1.4l4-22.2a13.56,13.56,0,0,1,3-.32c3.48,0,5.32,1.56,5.32,4.52,0,3.8-3.12,6.6-7.28,6.6h-1.76l-.12.44c5.36,7.8,6.6,9.72,9.6,14.8l3.4-.12s.6,0,1.36.12H129V323.6c-1.6-.2-2-.52-3.2-2.2l-7.36-11a10.28,10.28,0,0,0,4.8-1.92,7.76,7.76,0,0,0,3.56-6.32c0-3.44-2.56-5.32-7-5.24h-12Z" transform="translate(0.25 0.25)"/>
  <path class="cls-11" d="M324,325.2c0-7.12-4.16-11.24-11.36-11.24-9.48,0-16.44,7.32-16.44,17.36,0,7.56,3.76,11.6,10.8,11.6C317.85,342.92,324,333.92,324,325.2Zm-3.52.64c0,7.52-3.56,15.4-12,15.4-5.76,0-8.76-3.44-8.76-10.12,0-5.92,2.32-15.48,11.68-15.48C316,315.64,320.45,317.8,320.45,325.84Z" transform="translate(0.25 0.25)"/>
  <path class="cls-12" d="M210.58,256.45v-2.36H201v-9.52h-2.36v9.52H189v2.36h9.6v9.64H201v-9.64Z" transform="translate(0.25 0.25)"/>
  <path class="cls-12" d="M254.07,225.66V223.3h-9.6v-9.52h-2.36v9.52h-9.6v2.36h9.6v9.64h2.36v-9.64Z" transform="translate(0.25 0.25)"/>
  <path class="cls-12" d="M326.55,225.66V223.3H317v-9.52h-2.36v9.52H305v2.36h9.6v9.64H317v-9.64Z" transform="translate(0.25 0.25)"/>
  <path class="cls-12" d="M371.85,249.2v-2.36h-9.6v-9.52h-2.36v9.52h-9.6v2.36h9.6v9.64h2.36V249.2Z" transform="translate(0.25 0.25)"/>
  <path class="cls-12" d="M405.36,287.27v-2.36h-9.6v-9.52H393.4v9.52h-9.6v2.36h9.6v9.64h2.36v-9.64Z" transform="translate(0.25 0.25)"/>
  <path class="cls-12" d="M414.43,338.89v-2.36h-9.6V327h-2.36v9.52h-9.6v2.36h9.6v9.64h2.36v-9.64Z" transform="translate(0.25 0.25)"/>
  <path class="cls-12" d="M399.93,382.39V380h-9.6v-9.52H388V380h-9.6v2.36H388V392h2.36v-9.64Z" transform="translate(0.25 0.25)"/>
  <path class="cls-12" d="M369.13,424.06V421.7h-9.6v-9.52h-2.36v9.52h-9.6v2.36h9.6v9.64h2.36v-9.64Z" transform="translate(0.25 0.25)"/>
  <path class="cls-12" d="M329.27,448.52v-2.36h-9.6v-9.52h-2.36v9.52h-9.6v2.36h9.6v9.64h2.36v-9.64Z" transform="translate(0.25 0.25)"/>
  <path class="cls-12" d="M274,453.05v-2.36h-9.6v-9.52H262v9.52h-9.6v2.36H262v9.64h2.36v-9.64Z" transform="translate(0.25 0.25)"/>
  <path class="cls-12" d="M226.89,432.22v-2.36h-9.6v-9.52h-2.36v9.52h-9.6v2.36h9.6v9.64h2.36v-9.64Z" transform="translate(0.25 0.25)"/>
  <path class="cls-12" d="M192.47,400.5v-2.36h-9.6v-9.52h-2.36v9.52h-9.6v2.36h9.6v9.64h2.36V400.5Z" transform="translate(0.25 0.25)"/>
  <path class="cls-12" d="M175.25,355.2v-2.36h-9.6v-9.52h-2.36v9.52h-9.6v2.36h9.6v9.64h2.36V355.2Z" transform="translate(0.25 0.25)"/>
  <path class="cls-12" d="M186.13,297.22v-2.36h-9.6v-9.52h-2.36v9.52h-9.6v2.36h9.6v9.64h2.36v-9.64Z" transform="translate(0.25 0.25)"/>
  <path class="cls-11" d="M443,570.8c.52-2.64,1-5.24,1.68-7.88v-.12h-.88v.12c-1.36,3.28-1.68,4.68-5.48,4.68H424c3.32-4.32,6.8-8.6,10.36-12.68-1.8-3.24-3.32-6.68-4.84-10h10.12c4,0,4.16.68,4,4.32h.88V549c.44-1.88.76-3.84,1.36-5.72v-.24c-7,.32-14.08.28-21,.32V544A120.72,120.72,0,0,1,431,557a147.81,147.81,0,0,1-11.52,13v.76C427.4,570.6,435.16,570.6,443,570.8Z" transform="translate(0.25 0.25)"/>
  <g>
    <path class="cls-12" d="M550,157.81h4.68L560,158l.76-1.8-.16-.28c-3.24.16-5.64.24-8.76.24h-1.48l1.88-10.8c1.28,0,4.6-.16,5.48-.16,2.48,0,4.12.36,4.16,1l.32,3.56h1a27,27,0,0,1,.84-6.08c-.84-.08-2-.12-2.76-.12-.12,0-.56,0-1.52,0l-4.8,0c-.36,0-7.32,0-7.72,0l-1.8,0-.12,1.12,2.16.08c1,0,1.4.36,1.4,1.08a24.69,24.69,0,0,1-.36,3L545,169c-.16.72-.64,1-2.4,1.28l-.2,1,1.64,0c1.24,0,3.72-.08,4.52-.08l9,.12c.56,0,1.56,0,2.88-.08l1.32,0,.16-1.44c.08-.8.28-2,.64-4l.2-1h-1.08l-.64,2.4c-.4,1.44-.76,1.92-1.64,2.12a46.29,46.29,0,0,1-5.88.36,53.7,53.7,0,0,1-5.48-.28Z" transform="translate(0.25 0.25)"/>
    <path class="cls-8" d="M567.55,128.6l-7.42-7.81L559,122l4.54,5.47h-.36v2.12h.36L559,135.07l1.15,1.22Zm-22.43.9h21.35v-2.12H545.12Z" transform="translate(0.25 0.25)"/>
  </g>
  <path class="cls-11" d="M390.25,199.16l2.2.08c1,0,1.4.36,1.4,1.08l-3.32,20.4c-.68,3.64-.72,3.76-2.32,3.88l-1.64.12-.16,1.12,1.68,0c1.64,0,2.88-.08,3.6-.08s1.84,0,3.44.08l2.12,0,.12-1.12-2.6-.12c-1,0-1.44-.36-1.44-1.2a8.55,8.55,0,0,1,.16-1.4l3.92-22.2a16.23,16.23,0,0,1,2.84-.32c4.08,0,6,1.76,6,5.48,0,4.32-2.88,7.84-6.4,7.84a8.56,8.56,0,0,1-3.16-.76l.08,1.24a6.94,6.94,0,0,0,3.44.92c5.16,0,9.56-4.68,9.56-10.12,0-4-2.52-6.16-7.28-6H390.37Z" transform="translate(0.25 0.25)"/>
</svg>
