<svg id="Livello_1" data-name="Livello 1" xmlns="http://www.w3.org/2000/svg" xmlns:xlink="http://www.w3.org/1999/xlink" width="662.5" height="962.5" viewBox="0 0 662.5 962.5">
  <defs>
    <style>
      .cls-1, .cls-10, .cls-11, .cls-12, .cls-2, .cls-4, .cls-5, .cls-6, .cls-7, .cls-8, .cls-9 {
        fill: none;
      }

      .cls-2, .cls-3 {
        stroke: #d3d3d3;
        stroke-width: 0.5px;
      }

      .cls-3 {
        fill: url(#_.843999549798788);
      }

      .cls-10, .cls-11, .cls-15, .cls-17, .cls-18, .cls-4, .cls-6, .cls-7, .cls-8, .cls-9 {
        stroke: #000;
      }

      .cls-14, .cls-5 {
        stroke: #4a90e2;
      }

      .cls-5, .cls-6, .cls-7 {
        stroke-width: 3px;
      }

      .cls-6 {
        stroke-dasharray: 3.38 4.02;
      }

      .cls-12, .cls-8, .cls-9 {
        stroke-width: 4px;
      }

      .cls-9 {
        stroke-dasharray: 4.5 4.36;
      }

      .cls-10, .cls-11 {
        stroke-width: 2px;
      }

      .cls-10 {
        stroke-dasharray: 2.25 3.68;
      }

      .cls-12, .cls-16 {
        stroke: red;
      }

      .cls-13, .cls-16 {
        fill: red;
      }

      .cls-14 {
        fill: #4a90e2;
      }

      .cls-14, .cls-15, .cls-16, .cls-17, .cls-18, .cls-19 {
        stroke-miterlimit: 10;
      }

      .cls-14, .cls-17, .cls-19 {
        stroke-width: 0.4px;
      }

      .cls-15 {
        stroke-width: 0.24px;
      }

      .cls-16 {
        stroke-width: 0.32px;
      }

      .cls-18 {
        stroke-width: 0.28px;
      }

      .cls-19, .cls-20 {
        fill: #ff001f;
      }

      .cls-19 {
        stroke: #ff001f;
      }
    </style>
    <pattern id="_.843999549798788" data-name=".843999549798788" width="10" height="10" patternTransform="matrix(1, 0, 0, -1, -2.75, 833.14)" patternUnits="userSpaceOnUse" viewBox="0 0 10 10">
      <rect class="cls-1" width="10" height="10"/>
      <path class="cls-2" d="M10,10H0V0"/>
    </pattern>
  </defs>
  <rect class="cls-3" x="0.25" y="0.25" width="662" height="962"/>
  <g>
    <path class="cls-4" d="M479.85,203.05V547c0,26.26-71,47.55-158.5,47.55S162.85,573.21,162.85,547V203.05c0-26.26,71-47.55,158.5-47.55s158.5,21.29,158.5,47.55-71,47.55-158.5,47.55-158.5-21.29-158.5-47.55" transform="translate(0.25 0.25)"/>
    <path class="cls-5" d="M129.85,196.5v355" transform="translate(0.25 0.25)"/>
    <path class="cls-5" d="M143.35,551.5h-27" transform="translate(0.25 0.25)"/>
    <path class="cls-5" d="M143.35,196.5h-27" transform="translate(0.25 0.25)"/>
    <path class="cls-6" d="M252.85,243.5v345" transform="translate(0.25 0.25)"/>
    <path class="cls-6" d="M391.85,243.5v345" transform="translate(0.25 0.25)"/>
    <path class="cls-7" d="M252.85,95.75c0-11.18,31.12-20.25,69.5-20.25s69.5,9.07,69.5,20.25S360.73,116,322.35,116,252.85,106.93,252.85,95.75Z" transform="translate(0.25 0.25)"/>
    <path class="cls-7" d="M252.85,95.75V243.5" transform="translate(0.25 0.25)"/>
    <path class="cls-7" d="M391.85,95.75V243.5" transform="translate(0.25 0.25)"/>
    <path class="cls-7" d="M391.85,588.5v78" transform="translate(0.25 0.25)"/>
    <path class="cls-7" d="M252.85,588.5v78" transform="translate(0.25 0.25)"/>
    <path class="cls-8" d="M252.85,666.5c45,30,99,30,139,0" transform="translate(0.25 0.25)"/>
    <path class="cls-9" d="M252.85,666.5c45-30,99-30,139,0" transform="translate(0.25 0.25)"/>
    <path class="cls-10" d="M162.85,547c45-30,277-30,317,0" transform="translate(0.25 0.25)"/>
    <path class="cls-6" d="M322.35,44.5v741" transform="translate(0.25 0.25)"/>
    <path class="cls-11" d="M322.35,95.75l60.5,8.75" transform="translate(0.25 0.25)"/>
    <path class="cls-11" d="M321.85,203.05l134,25.45" transform="translate(0.25 0.25)"/>
    <path class="cls-7" d="M407.85,329.5v82" transform="translate(0.25 0.25)"/>
    <path class="cls-7" d="M455.85,305.5v82" transform="translate(0.25 0.25)"/>
    <path class="cls-8" d="M407.85,411.5c57-4,47-37,48-24" transform="translate(0.25 0.25)"/>
    <path class="cls-8" d="M407.85,329.5c57-4,47-37,48-24" transform="translate(0.25 0.25)"/>
    <g>
      <path class="cls-11" d="M439.85,366.05h90" transform="translate(0.25 0.25)"/>
      <path d="M522.24,371.63l11.61-5.58-11.61-5.58Z" transform="translate(0.25 0.25)"/>
    </g>
    <g>
      <path class="cls-12" d="M435.85,359.05h168" transform="translate(0.25 0.25)"/>
      <path class="cls-13" d="M592.88,367.2l17-8.15-17-8.15Z" transform="translate(0.25 0.25)"/>
    </g>
    <g>
      <path class="cls-11" d="M321.85,667.05V745.5" transform="translate(0.25 0.25)"/>
      <path d="M316.27,737.89l5.58,11.61,5.58-11.61Z" transform="translate(0.25 0.25)"/>
    </g>
  </g>
  <path class="cls-14" d="M94.65,335.4l-.6-.55a20,20,0,0,1-8,2.1l-.2,1.05h2.4c.9,0,1.7.15,1.7,1.15a6.18,6.18,0,0,1-.1,1.25l-2.1,11.7a182,182,0,0,1-4.4,19.3l.35.55,3.45-.8c.4-2.85,1.1-7.85,3.1-11.45,2.25-4.05,7.4-8.9,9.5-8.9a1,1,0,0,1,1.1,1.05,21,21,0,0,1-.75,4.5l-2.55,9.8a15.91,15.91,0,0,0-.65,3.8c0,1.25.5,2,1.55,2,1.6,0,5-2.5,8-4.7l-.5-.9-1.3.85a8.74,8.74,0,0,1-3,1.5c-.35,0-.65-.45-.65-1a8,8,0,0,1,.35-2l3.2-12.8a17,17,0,0,0,.55-3.75c0-.85-.3-1.75-1.6-1.75-1.75,0-5.6,2.25-9,5.4a46.34,46.34,0,0,0-4.35,5.05l-.2-.1Z" transform="translate(0.25 0.25)"/>
  <path class="cls-15" d="M381,60.58l1.68.06c.72,0,1.05.27,1.05.81a18.52,18.52,0,0,1-.27,2.28l-2.25,13c-.48,2.73-.54,2.79-1.74,2.91l-1.23.09-.12.84,1.26,0c1.41-.06,2-.06,2.7-.06l2.91.09h.78l.09-.84-1.47-.09c-.81-.06-1.08-.3-1.08-.9a5.81,5.81,0,0,1,.12-1.05l3-16.65a10.17,10.17,0,0,1,2.28-.24c2.61,0,4,1.17,4,3.39,0,2.85-2.34,5-5.46,5H386l-.09.33c4,5.85,4.95,7.29,7.2,11.1l2.55-.09,1,.09H397v-.81c-1.2-.15-1.53-.39-2.4-1.65l-5.52-8.25a7.71,7.71,0,0,0,3.6-1.44,5.82,5.82,0,0,0,2.67-4.74c0-2.58-1.92-4-5.25-3.93h-9Z" transform="translate(0.25 0.25)"/>
  <path class="cls-15" d="M425.89,200.55a27.83,27.83,0,0,1,.48-3.33,1.35,1.35,0,0,0-.6-.18c-.93,0-1.86.72-2.94,2.25a37,37,0,0,0-2.82,4.53l1-4.56a5.5,5.5,0,0,0,.18-1.26c0-.6-.24-1-.69-1-.63,0-1.77.63-4,2.22l-.84.6.21.6,1-.63c.84-.54,1.17-.69,1.44-.69s.51.27.51.66a64,64,0,0,1-2.49,11.76l.3.21a16.3,16.3,0,0,1,1.62-.39l.39-.06.78-3.6a13.14,13.14,0,0,1,2.55-5.79c1-1.32,1.83-2,2.49-2a1.24,1.24,0,0,1,1.08.57Z" transform="translate(0.25 0.25)"/>
  <path class="cls-16" d="M333,140.86V138.5h-9.6V129h-2.36v9.52h-9.6v2.36h9.6v9.64h2.36v-9.64Z" transform="translate(0.25 0.25)"/>
  <path class="cls-16" d="M333,182.86V180.5h-9.6V171h-2.36v9.52h-9.6v2.36h9.6v9.64h2.36v-9.64Z" transform="translate(0.25 0.25)"/>
  <path class="cls-16" d="M333,233.86V231.5h-9.6V222h-2.36v9.52h-9.6v2.36h9.6v9.64h2.36v-9.64Z" transform="translate(0.25 0.25)"/>
  <path class="cls-16" d="M334,284.86V282.5h-9.6V273h-2.36v9.52h-9.6v2.36h9.6v9.64h2.36v-9.64Z" transform="translate(0.25 0.25)"/>
  <path class="cls-16" d="M333,337.86V335.5h-9.6V326h-2.36v9.52h-9.6v2.36h9.6v9.64h2.36v-9.64Z" transform="translate(0.25 0.25)"/>
  <path class="cls-16" d="M333,389.86V387.5h-9.6V378h-2.36v9.52h-9.6v2.36h9.6v9.64h2.36v-9.64Z" transform="translate(0.25 0.25)"/>
  <path class="cls-16" d="M334,438.86V436.5h-9.6V427h-2.36v9.52h-9.6v2.36h9.6v9.64h2.36v-9.64Z" transform="translate(0.25 0.25)"/>
  <path class="cls-16" d="M333,493.86V491.5h-9.6V482h-2.36v9.52h-9.6v2.36h9.6v9.64h2.36v-9.64Z" transform="translate(0.25 0.25)"/>
  <path class="cls-16" d="M332,552.86V550.5h-9.6V541h-2.36v9.52h-9.6v2.36h9.6v9.64h2.36v-9.64Z" transform="translate(0.25 0.25)"/>
  <path class="cls-16" d="M333,621.86V619.5h-9.6V610h-2.36v9.52h-9.6v2.36h9.6v9.64h2.36v-9.64Z" transform="translate(0.25 0.25)"/>
  <g>
    <g>
      <path class="cls-17" d="M522.45,397.85l-.35-.45-3.4.85-.5,2.55a27.45,27.45,0,0,1-3.55,9.65c-2.95,4.55-6.85,8.1-8.85,8.1-.4,0-.65-.45-.65-1.3a12.83,12.83,0,0,1,.35-2.6l2.85-13.55a11.85,11.85,0,0,0,.25-2.15c0-.95-.45-1.55-1.15-1.55-1,0-2.9,1.05-6.6,3.7l-1.4,1,.35,1,1.6-1.05c1.4-.9,2-1.15,2.4-1.15a1,1,0,0,1,.85,1,5.51,5.51,0,0,1-.1.9l-3.15,14.85a15.28,15.28,0,0,0-.2,2.35,1.88,1.88,0,0,0,1.75,2.05c3.15,0,9.2-5.6,13.4-12.5l-1.85,7.1A13.63,13.63,0,0,0,514,420c0,1.25.55,2,1.5,2,1.3,0,3.1-1.05,8-4.7l-.5-.9-1.3.85a7.67,7.67,0,0,1-3,1.35c-.4,0-.65-.35-.65-.85C518,415.9,521.7,400.7,522.45,397.85Z" transform="translate(0.25 0.25)"/>
      <polyline class="cls-7" points="498.1 388.97 511.98 379.72 525.85 388.97"/>
    </g>
    <path class="cls-18" d="M540,427.22a33.28,33.28,0,0,1,.56-3.88,1.48,1.48,0,0,0-.7-.21c-1.08,0-2.17.84-3.43,2.62a43.39,43.39,0,0,0-3.29,5.29l1.12-5.32a6.45,6.45,0,0,0,.21-1.47c0-.7-.28-1.12-.8-1.12-.74,0-2.07.73-4.66,2.59l-1,.7.25.7,1.12-.74c1-.63,1.36-.8,1.68-.8s.59.31.59.77c0,2-1.5,9.24-2.9,13.72l.35.24a18.52,18.52,0,0,1,1.89-.45l.45-.07.91-4.2a15.36,15.36,0,0,1,3-6.76c1.19-1.54,2.13-2.27,2.9-2.27a1.43,1.43,0,0,1,1.26.66Z" transform="translate(0.25 0.25)"/>
  </g>
  <g>
    <path class="cls-19" d="M576.9,329.8h5.85l6.6.2.95-2.25-.2-.35c-4.05.2-7.05.3-11,.3H577.3l2.35-13.5c1.6-.05,5.75-.2,6.85-.2,3.1,0,5.15.45,5.2,1.2l.4,4.45h1.2a33.79,33.79,0,0,1,1.05-7.6c-1.05-.1-2.55-.15-3.45-.15-.15,0-.7,0-1.9.05l-6,.05c-.45.05-9.15-.05-9.65-.05l-2.25-.05-.15,1.4,2.7.1c1.2.05,1.75.45,1.75,1.35a30.86,30.86,0,0,1-.45,3.8l-4.35,25.2c-.2.9-.8,1.25-3,1.6l-.25,1.3,2,0c1.55-.05,4.65-.1,5.65-.1l11.25.15c.7,0,2,0,3.6-.1l1.65-.05.2-1.8c.1-1,.35-2.5.8-4.95l.25-1.3h-1.35l-.8,3c-.5,1.8-.95,2.4-2,2.65a57.86,57.86,0,0,1-7.35.45,67.13,67.13,0,0,1-6.85-.35Z" transform="translate(0.25 0.25)"/>
    <path class="cls-20" d="M598.85,293.77,589.58,284l-1.44,1.53,5.67,6.84h-.45V295h.45l-5.67,6.84,1.44,1.53Zm-28.05,1.12h26.7v-2.66H570.8Z" transform="translate(0.25 0.25)"/>
  </g>
  <g>
    <g>
      <path class="cls-17" d="M363.45,718.85l-.35-.45-3.4.85-.5,2.55a27.45,27.45,0,0,1-3.55,9.65c-2.95,4.55-6.85,8.1-8.85,8.1-.4,0-.65-.45-.65-1.3a12.83,12.83,0,0,1,.35-2.6l2.85-13.55a11.85,11.85,0,0,0,.25-2.15c0-1-.45-1.55-1.15-1.55-1,0-2.9,1.05-6.6,3.7l-1.4,1,.35,1,1.6-1.05c1.4-.9,2-1.15,2.4-1.15a1,1,0,0,1,.85,1,5.51,5.51,0,0,1-.1.9l-3.15,14.85a15.28,15.28,0,0,0-.2,2.35,1.88,1.88,0,0,0,1.75,2c3.15,0,9.2-5.6,13.4-12.5l-1.85,7.1A13.63,13.63,0,0,0,355,741c0,1.25.55,2,1.5,2,1.3,0,3.1-1.05,8-4.7l-.5-.9-1.3.85a7.67,7.67,0,0,1-3,1.35c-.4,0-.65-.35-.65-.85C359,736.9,362.7,721.7,363.45,718.85Z" transform="translate(0.25 0.25)"/>
      <polyline class="cls-7" points="339.1 709.97 352.98 700.72 366.85 709.97"/>
    </g>
    <path class="cls-18" d="M381,748.22a33.28,33.28,0,0,1,.56-3.88,1.48,1.48,0,0,0-.7-.21c-1.08,0-2.17.84-3.43,2.62a43.39,43.39,0,0,0-3.29,5.29l1.12-5.32a6.45,6.45,0,0,0,.21-1.47c0-.7-.28-1.12-.8-1.12-.74,0-2.07.73-4.66,2.59l-1,.7.25.7,1.12-.74c1-.63,1.36-.8,1.68-.8s.59.31.59.77c0,2-1.5,9.24-2.9,13.72l.35.24a18.52,18.52,0,0,1,1.89-.45l.45-.07.91-4.2a15.36,15.36,0,0,1,3-6.76c1.19-1.54,2.13-2.27,2.9-2.27a1.43,1.43,0,0,1,1.26.66Z" transform="translate(0.25 0.25)"/>
  </g>
  <g>
    <g>
      <path class="cls-17" d="M125.05,837.3h5.85l6.6.2.95-2.25-.2-.35c-4.05.2-7.05.3-11,.3h-1.85l2.35-13.5c1.6-.05,5.75-.2,6.85-.2,3.1,0,5.15.45,5.2,1.2l.4,4.45h1.2a33.79,33.79,0,0,1,1.05-7.6c-1.05-.1-2.55-.15-3.45-.15-.15,0-.7,0-1.9.05l-6,0c-.45,0-9.15,0-9.65,0l-2.25-.05-.15,1.4,2.7.1c1.2.05,1.75.45,1.75,1.35a30.86,30.86,0,0,1-.45,3.8l-4.35,25.2c-.2.9-.8,1.25-3,1.6l-.25,1.3,2,0c1.55-.05,4.65-.1,5.65-.1l11.25.15c.7,0,2,0,3.6-.1l1.65,0,.2-1.8c.1-1,.35-2.5.8-5L141,846H139.6l-.8,3c-.5,1.8-1,2.4-2.05,2.65a57.86,57.86,0,0,1-7.35.45,67.13,67.13,0,0,1-6.85-.35Z" transform="translate(0.25 0.25)"/>
      <path d="M147,801.27l-9.27-9.77L136.29,793l5.67,6.84h-.45v2.66H142l-5.67,6.84,1.44,1.53Zm-28,1.12h26.7v-2.66H119Z" transform="translate(0.25 0.25)"/>
    </g>
    <path class="cls-17" d="M193.7,854v-3h-14v-26h-2.95v26h-14v3Z" transform="translate(0.25 0.25)"/>
    <g>
      <path class="cls-17" d="M236.51,830.35l-.35-.45-3.4.85-.5,2.55a27.45,27.45,0,0,1-3.55,9.65c-3,4.55-6.85,8.1-8.85,8.1-.4,0-.65-.45-.65-1.3a12.83,12.83,0,0,1,.35-2.6l2.85-13.55a11.85,11.85,0,0,0,.25-2.15c0-1-.45-1.55-1.15-1.55-1,0-2.9,1.05-6.6,3.7l-1.4,1,.35,1,1.6-1.05c1.4-.9,1.95-1.15,2.4-1.15a1,1,0,0,1,.85,1,5.51,5.51,0,0,1-.1.9l-3.15,14.85a15.28,15.28,0,0,0-.2,2.35,1.88,1.88,0,0,0,1.75,2c3.15,0,9.2-5.6,13.4-12.5l-1.85,7.1a13.63,13.63,0,0,0-.55,3.3c0,1.25.55,2,1.5,2,1.3,0,3.1-1.05,8-4.7l-.5-.9-1.3.85a7.67,7.67,0,0,1-3.05,1.35c-.4,0-.65-.35-.65-.85C232,848.4,235.76,833.2,236.51,830.35Z" transform="translate(0.25 0.25)"/>
      <polyline class="cls-7" points="212.16 821.47 226.04 812.22 239.91 821.47"/>
    </g>
    <path class="cls-18" d="M254,859.73a31.7,31.7,0,0,1,.56-3.89,1.68,1.68,0,0,0-.7-.21c-1.09,0-2.17.84-3.43,2.63a42.92,42.92,0,0,0-3.29,5.28l1.12-5.32a6.38,6.38,0,0,0,.21-1.47c0-.7-.28-1.12-.81-1.12-.73,0-2.06.74-4.65,2.59l-1,.7.24.7,1.12-.73c1-.63,1.37-.81,1.68-.81s.6.32.6.77c0,2-1.51,9.24-2.91,13.72l.35.25c.53-.18,1.09-.28,1.89-.46l.46-.07.91-4.2a15.31,15.31,0,0,1,3-6.75c1.19-1.54,2.14-2.28,2.91-2.28a1.46,1.46,0,0,1,1.26.67Z" transform="translate(0.25 0.25)"/>
    <path class="cls-17" d="M276,838.9v3h63.25l-6.25,7.6,1.6,1.7L345,840.3,334.6,829.6l-1.6,1.7,6.25,7.6Z" transform="translate(0.25 0.25)"/>
    <g>
      <path class="cls-17" d="M374.46,837.3h5.85l6.6.2.95-2.25-.2-.35c-4.05.2-7.05.3-11,.3h-1.85l2.35-13.5c1.6-.05,5.75-.2,6.85-.2,3.1,0,5.15.45,5.2,1.2l.4,4.45h1.2a33.79,33.79,0,0,1,1.05-7.6c-1.05-.1-2.55-.15-3.45-.15-.15,0-.7,0-1.9.05l-6,0c-.45,0-9.15,0-9.65,0l-2.25-.05-.15,1.4,2.7.1c1.2.05,1.75.45,1.75,1.35a30.86,30.86,0,0,1-.45,3.8l-4.35,25.2c-.2.9-.8,1.25-3,1.6l-.25,1.3,2,0c1.55-.05,4.65-.1,5.65-.1l11.25.15c.7,0,1.95,0,3.6-.1l1.65,0,.2-1.8c.1-1,.35-2.5.8-5l.25-1.3H389l-.8,3c-.5,1.8-.95,2.4-2,2.65a57.86,57.86,0,0,1-7.35.45,67.13,67.13,0,0,1-6.85-.35Z" transform="translate(0.25 0.25)"/>
      <path d="M396.41,801.27l-9.27-9.77L385.7,793l5.67,6.84h-.45v2.66h.45l-5.67,6.84,1.44,1.53Zm-28.05,1.12h26.7v-2.66h-26.7Z" transform="translate(0.25 0.25)"/>
    </g>
    <path class="cls-17" d="M410.11,837.55a2.9,2.9,0,1,0,2.95,3A3.06,3.06,0,0,0,410.11,837.55Z" transform="translate(0.25 0.25)"/>
    <g>
      <path class="cls-17" d="M451,830.35l-.35-.45-3.4.85-.5,2.55a27.45,27.45,0,0,1-3.55,9.65c-3,4.55-6.85,8.1-8.85,8.1-.4,0-.65-.45-.65-1.3a12.83,12.83,0,0,1,.35-2.6l2.85-13.55a11.85,11.85,0,0,0,.25-2.15c0-1-.45-1.55-1.15-1.55-1,0-2.9,1.05-6.6,3.7l-1.4,1,.35,1,1.6-1.05c1.4-.9,1.95-1.15,2.4-1.15a1,1,0,0,1,.85,1,5.51,5.51,0,0,1-.1.9l-3.15,14.85a15.28,15.28,0,0,0-.2,2.35,1.88,1.88,0,0,0,1.75,2c3.15,0,9.2-5.6,13.4-12.5l-1.85,7.1a13.63,13.63,0,0,0-.55,3.3c0,1.25.55,2,1.5,2,1.3,0,3.1-1.05,8-4.7l-.5-.9-1.3.85a7.67,7.67,0,0,1-3.05,1.35c-.4,0-.65-.35-.65-.85C446.46,848.4,450.21,833.2,451,830.35Z" transform="translate(0.25 0.25)"/>
      <polyline class="cls-7" points="426.61 821.47 440.49 812.22 454.36 821.47"/>
    </g>
    <path class="cls-18" d="M468.49,859.73a31.7,31.7,0,0,1,.56-3.89,1.68,1.68,0,0,0-.7-.21c-1.09,0-2.17.84-3.43,2.63a42.92,42.92,0,0,0-3.29,5.28l1.12-5.32a6.38,6.38,0,0,0,.21-1.47c0-.7-.28-1.12-.81-1.12-.73,0-2.06.74-4.65,2.59l-1,.7.24.7,1.12-.73c1-.63,1.37-.81,1.68-.81s.6.32.6.77c0,2-1.51,9.24-2.91,13.72l.35.25c.53-.18,1.09-.28,1.89-.46l.46-.07.91-4.2a15.31,15.31,0,0,1,3-6.75c1.19-1.54,2.14-2.28,2.91-2.28a1.46,1.46,0,0,1,1.26.67Z" transform="translate(0.25 0.25)"/>
    <path class="cls-17" d="M517.4,836.65V833.7H490.45v2.95Zm0,10.65v-2.95H490.45v2.95Z" transform="translate(0.25 0.25)"/>
    <path class="cls-17" d="M548.76,819.55c-7.75,0-11.7,6.15-11.7,18.25,0,5.85,1.05,10.9,2.8,13.35a9.27,9.27,0,0,0,7.65,3.85c7.55,0,11.35-6.5,11.35-19.3C558.86,824.75,555.61,819.55,548.76,819.55Zm-.9,1.75c4.85,0,6.8,4.9,6.8,16.9,0,10.65-1.9,15-6.5,15-4.85,0-6.9-5-6.9-17.25C541.26,825.45,543.11,821.3,547.86,821.3Z" transform="translate(0.25 0.25)"/>
  </g>
</svg>
