<svg id="Livello_1" data-name="Livello 1" xmlns="http://www.w3.org/2000/svg" xmlns:xlink="http://www.w3.org/1999/xlink" width="662.5" height="606.5" viewBox="0 0 662.5 606.5">
  <defs>
    <style>
      .cls-1, .cls-2, .cls-4, .cls-5, .cls-6, .cls-9 {
        fill: none;
      }

      .cls-2, .cls-3 {
        stroke: #d3d3d3;
        stroke-width: 0.5px;
      }

      .cls-3 {
        fill: url(#_.843999549798788);
      }

      .cls-4, .cls-6, .cls-7, .cls-8, .cls-9 {
        stroke: #000;
      }

      .cls-4, .cls-6 {
        stroke-width: 3px;
      }

      .cls-5 {
        stroke: red;
        stroke-width: 7px;
      }

      .cls-6 {
        stroke-dasharray: 3.38 4.02;
      }

      .cls-7, .cls-8 {
        stroke-miterlimit: 10;
      }

      .cls-7 {
        stroke-width: 0.24px;
      }

      .cls-8 {
        stroke-width: 0.17px;
      }

      .cls-9 {
        stroke-width: 2px;
      }
    </style>
    <pattern id="_.843999549798788" data-name=".843999549798788" width="10" height="10" patternTransform="matrix(1, 0, 0, -1, -2.75, 850.14)" patternUnits="userSpaceOnUse" viewBox="0 0 10 10">
      <rect class="cls-1" width="10" height="10"/>
      <path class="cls-2" d="M10,10H0V0"/>
    </pattern>
  </defs>
  <rect class="cls-3" x="0.25" y="0.25" width="662" height="606"/>
  <g>
    <g>
      <path class="cls-4" d="M65,460.8H629M121.4,72V504" transform="translate(0.25 0.25)"/>
      <path class="cls-4" d="M622,455.8l7,5-7,5" transform="translate(0.25 0.25)"/>
      <path class="cls-4" d="M116.4,79l5-7,5,7" transform="translate(0.25 0.25)"/>
      <path class="cls-4" d="M186.4,455.8v10m65-10v10m65-10v10m65-10v10m65-10v10m65-10v10m65-10v10m-460-70h10m-10-65h10m-10-65h10m-10-65h10m-10-65h10" transform="translate(0.25 0.25)"/>
    </g>
    <path class="cls-5" d="M121.4,460.8,316.4,204" transform="translate(0.25 0.25)"/>
    <path class="cls-6" d="M316.4,460.8V204" transform="translate(0.25 0.25)"/>
    <path class="cls-6" d="M121.4,204h195" transform="translate(0.25 0.25)"/>
    <path class="cls-5" d="M316,209c72,214,189,244,307,242" transform="translate(0.25 0.25)"/>
  </g>
  <path class="cls-7" d="M312.15,476.08l1.68.06c.72,0,1.05.27,1.05.81a18.52,18.52,0,0,1-.27,2.28l-2.25,13c-.48,2.73-.54,2.79-1.74,2.91l-1.23.09-.12.84,1.26,0c1.41-.06,2-.06,2.7-.06l2.91.09h.78l.09-.84-1.47-.09c-.81-.06-1.08-.3-1.08-.9a5.81,5.81,0,0,1,.12-1.05l3-16.65a10.17,10.17,0,0,1,2.28-.24c2.61,0,4,1.17,4,3.39,0,2.85-2.34,5-5.46,5H317.1L317,485c4,5.85,4.95,7.29,7.2,11.1l2.55-.09,1,.09h.39v-.81c-1.2-.15-1.53-.39-2.4-1.65l-5.52-8.25a7.71,7.71,0,0,0,3.6-1.44,5.82,5.82,0,0,0,2.67-4.74c0-2.58-1.92-4-5.25-3.93h-9Z" transform="translate(0.25 0.25)"/>
  <g>
    <path class="cls-7" d="M60.8,173.32v.24a.5.5,0,0,0,.27.33,9.46,9.46,0,0,1,1.92-.48c1.56,0,1.83,4.59,1.95,5.79a79.07,79.07,0,0,0-9.66,13.86l.3.42c.75-.33,1.5-.6,2.28-.87,1.29-4.38,4.5-8.85,7.26-12.45.24,1.89.93,12.45,1.44,13,1.65,1.08,3.81-1.5,5.07-2.4v-.39h-.36v0a4.86,4.86,0,0,1-2,1c-1.17,0-1.41-4-1.56-4.92-.45-3.21-1.2-13.59-1.68-14.1C64.94,171.16,62.06,173,60.8,173.32Z" transform="translate(0.25 0.25)"/>
    <g>
      <path class="cls-7" d="M16.46,240.12v.78c5.61,0,5.61-.09,6.69-.09s1.08.09,6.87.09v-2.55c-3.45.15-4.83,0-10.38.15l5.46-5.79c2.91-3.09,3.81-4.74,3.81-7,0-3.45-2.34-5.58-6.15-5.58a6.46,6.46,0,0,0-5.1,2.1l-.51,4.08H18l.39-1.38c.48-1.74,1.56-2.49,3.57-2.49a3.92,3.92,0,0,1,4.23,4.17c0,2.25-1.26,4.47-4.65,8.07Zm30.24-.57c-1.68,0-1.83-2.49-1.8-3.72a14.42,14.42,0,0,1,2.16-7.17l1.86-.39a10.51,10.51,0,0,1,.42-1.47c-4.62.18-9.39.12-14,0-1.95,0-2.37,2.31-2.94,3.78,0,.24.36.27.48.36v-.12c1.29-1.89,2-2.19,4.26-2.19h.69c-1.2,4.17-2,8.28-3.9,12.21v.3a8.77,8.77,0,0,0,2.16-.75c1.23-3.84,2.1-7.83,2.94-11.76H45.8a17.3,17.3,0,0,0-3,8.91c0,1.47.45,3.69,2.28,3.69,1.23,0,2.91-1.2,3.81-2v-.45h-.36v0A3.67,3.67,0,0,1,46.7,239.55Zm13.8-5.4a8.81,8.81,0,0,1,.45-1.23c-2.37.06-4.68,0-7,0,.57-2.61,2.22-5.28,5.22-5.28,1.8,0,2.46.54,3.27,2.07H63l1.23-1.59c-5.25-5.1-13.32,1.83-13.32,8,0,3.39,2,5,5.19,5,2.31,0,4.23-1.74,6-3.09v-.57c-1.41,1-3.09,2.16-4.86,2.16-2.22,0-4-2.61-3.57-5.43C54.05,234.24,59.69,234.15,60.5,234.15Z" transform="translate(0.25 0.25)"/>
      <path class="cls-8" d="M70.9,231.62c-3.26,0-4.92,2.59-4.92,7.67,0,2.46.44,4.58,1.18,5.61a3.87,3.87,0,0,0,3.21,1.61c3.17,0,4.77-2.73,4.77-8.1C75.14,233.81,73.77,231.62,70.9,231.62Zm-.38.74c2,0,2.86,2.06,2.86,7.1,0,4.47-.8,6.32-2.73,6.32s-2.9-2.12-2.9-7.25C67.75,234.1,68.52,232.36,70.52,232.36Z" transform="translate(0.25 0.25)"/>
      <path class="cls-7" d="M80.81,220.89l1.68.06c.72,0,1.05.27,1.05.81a18.52,18.52,0,0,1-.27,2.28l-2.25,13c-.48,2.73-.54,2.79-1.74,2.91l-1.23.09-.12.84,1.26,0c1.41-.06,2-.06,2.7-.06l2.91.09h.78l.09-.84L84.2,240c-.81-.06-1.08-.3-1.08-.9a5.81,5.81,0,0,1,.12-1l3-16.65a10.17,10.17,0,0,1,2.28-.24c2.61,0,4,1.17,4,3.39,0,2.85-2.34,4.95-5.46,4.95H85.76l-.09.33c4,5.85,5,7.29,7.2,11.1l2.55-.09,1,.09h.39v-.81c-1.2-.15-1.53-.39-2.4-1.65l-5.52-8.25a7.71,7.71,0,0,0,3.6-1.44A5.82,5.82,0,0,0,95.18,224c0-2.58-1.92-4-5.25-3.93h-9Z" transform="translate(0.25 0.25)"/>
      <path class="cls-8" d="M99.7,228.52v.54c3.92,0,3.92-.06,4.68-.06s.75.06,4.81.06v-1.78c-2.42.1-3.38,0-7.27.1l3.82-4c2-2.16,2.67-3.32,2.67-4.89,0-2.42-1.64-3.91-4.3-3.91a4.5,4.5,0,0,0-3.57,1.47l-.36,2.86h.61l.27-1a2.22,2.22,0,0,1,2.5-1.74,2.74,2.74,0,0,1,3,2.92c0,1.57-.88,3.13-3.25,5.65Z" transform="translate(0.25 0.25)"/>
    </g>
    <line class="cls-9" x1="16.23" y1="206.77" x2="111.89" y2="206.77"/>
  </g>
  <path class="cls-7" d="M638,488.05a27.83,27.83,0,0,1,.48-3.33,1.35,1.35,0,0,0-.6-.18c-.93,0-1.86.72-2.94,2.25a37,37,0,0,0-2.82,4.53l1-4.56a5.5,5.5,0,0,0,.18-1.26c0-.6-.24-1-.69-1-.63,0-1.77.63-4,2.22l-.84.6.21.6,1-.63c.84-.54,1.17-.69,1.44-.69s.51.27.51.66a64,64,0,0,1-2.49,11.76l.3.21a16.3,16.3,0,0,1,1.62-.39l.39-.06.78-3.6a13.14,13.14,0,0,1,2.55-5.79c1-1.32,1.83-1.95,2.49-1.95a1.24,1.24,0,0,1,1.08.57Z" transform="translate(0.25 0.25)"/>
  <path class="cls-7" d="M99.63,75h3.51l4,.12.57-1.35-.12-.21c-2.43.12-4.23.18-6.57.18H99.87l1.41-8.1c1,0,3.45-.12,4.11-.12,1.86,0,3.09.27,3.12.72l.24,2.67h.72a20.27,20.27,0,0,1,.63-4.56c-.63-.06-1.53-.09-2.07-.09-.09,0-.42,0-1.14,0l-3.6,0c-.27,0-5.49,0-5.79,0l-1.35,0-.09.84,1.62.06c.72,0,1,.27,1,.81a18.52,18.52,0,0,1-.27,2.28L95.85,83.35c-.12.54-.48.75-1.8,1l-.15.78,1.23,0c.93,0,2.79-.06,3.39-.06l6.75.09c.42,0,1.17,0,2.16-.06l1,0,.12-1.08c.06-.6.21-1.5.48-3l.15-.78h-.81l-.48,1.8c-.3,1.08-.57,1.44-1.23,1.59a34.72,34.72,0,0,1-4.41.27,40.28,40.28,0,0,1-4.11-.21Z" transform="translate(0.25 0.25)"/>
  <path class="cls-7" d="M101.89,472.33c-4.65,0-7,3.69-7,10.95,0,3.51.63,6.54,1.68,8a5.56,5.56,0,0,0,4.59,2.31c4.53,0,6.81-3.9,6.81-11.58C108,475.45,106,472.33,101.89,472.33Zm-.54,1.05c2.91,0,4.08,2.94,4.08,10.14,0,6.39-1.14,9-3.9,9s-4.14-3-4.14-10.35C97.39,475.87,98.5,473.38,101.35,473.38Z" transform="translate(0.25 0.25)"/>
</svg>
