<svg id="Livello_1" data-name="Livello 1" xmlns="http://www.w3.org/2000/svg" xmlns:xlink="http://www.w3.org/1999/xlink" width="1326.5" height="606.5" viewBox="0 0 1326.5 606.5">
  <defs>
    <style>
      .cls-1, .cls-11, .cls-12, .cls-13, .cls-14, .cls-15, .cls-18, .cls-2, .cls-4, .cls-5 {
        fill: none;
      }

      .cls-2, .cls-3 {
        stroke: #d3d3d3;
        stroke-width: 0.5px;
      }

      .cls-3 {
        fill: url(#_.843999549798788);
      }

      .cls-10, .cls-13, .cls-14, .cls-15, .cls-16, .cls-17, .cls-18, .cls-4, .cls-7, .cls-8 {
        stroke: #000;
      }

      .cls-13, .cls-4 {
        stroke-width: 3px;
      }

      .cls-11, .cls-12, .cls-5, .cls-9 {
        stroke: red;
      }

      .cls-14, .cls-5 {
        stroke-width: 4px;
      }

      .cls-6, .cls-9 {
        fill: red;
      }

      .cls-10, .cls-16, .cls-17, .cls-8, .cls-9 {
        stroke-miterlimit: 10;
      }

      .cls-8 {
        stroke-width: 0.16px;
      }

      .cls-10, .cls-9 {
        stroke-width: 0.32px;
      }

      .cls-11, .cls-12 {
        stroke-width: 7px;
      }

      .cls-12 {
        stroke-dasharray: 7.88 5.36;
      }

      .cls-13 {
        stroke-dasharray: 3.38 4.02;
      }

      .cls-15 {
        stroke-width: 4px;
      }

      .cls-16 {
        stroke-width: 0.24px;
      }

      .cls-17 {
        stroke-width: 0.17px;
      }

      .cls-18 {
        stroke-width: 2px;
      }
    </style>
    <pattern id="_.843999549798788" data-name=".843999549798788" width="10" height="10" patternTransform="matrix(1, 0, 0, -1, -2.75, 850.14)" patternUnits="userSpaceOnUse" viewBox="0 0 10 10">
      <rect class="cls-1" width="10" height="10"/>
      <path class="cls-2" d="M10,10H0V0"/>
    </pattern>
  </defs>
  <rect class="cls-3" x="0.25" y="0.25" width="662" height="606"/>
  <g>
    <path class="cls-4" d="M89.78,296.61C89.78,161,199.75,51,335.39,51S581,161,581,296.61,471,542.22,335.39,542.22,89.78,432.25,89.78,296.61Z" transform="translate(0.25 0.25)"/>
    <g>
      <path class="cls-5" d="M336,338.23V520.72" transform="translate(0.25 0.25)"/>
      <path class="cls-6" d="M344.15,349.2l-8.15-17-8.15,17Z" transform="translate(0.25 0.25)"/>
    </g>
    <path class="cls-7" d="M323.11,296.61a12.28,12.28,0,1,1,12.28,12.28A12.28,12.28,0,0,1,323.11,296.61Z" transform="translate(0.25 0.25)"/>
    <g>
      <path class="cls-5" d="M335,81.23V263.72" transform="translate(0.25 0.25)"/>
      <path class="cls-6" d="M326.85,252.75l8.15,17,8.15-17Z" transform="translate(0.25 0.25)"/>
    </g>
    <g>
      <path class="cls-5" d="M516,297.72H369" transform="translate(0.25 0.25)"/>
      <path class="cls-6" d="M380,289.57l-17,8.15,17,8.15Z" transform="translate(0.25 0.25)"/>
    </g>
    <g>
      <path class="cls-5" d="M301,296.76,141,298" transform="translate(0.25 0.25)"/>
      <path class="cls-6" d="M290.09,305,307,296.72l-17-8Z" transform="translate(0.25 0.25)"/>
    </g>
    <g>
      <path class="cls-5" d="M469,168,360.3,273.54" transform="translate(0.25 0.25)"/>
      <path class="cls-6" d="M362.5,260.05,356,277.72l17.85-6Z" transform="translate(0.25 0.25)"/>
    </g>
    <g>
      <path class="cls-5" d="M307.67,324.15,191,436" transform="translate(0.25 0.25)"/>
      <path class="cls-6" d="M305.39,337.63,312,320l-17.89,5.86Z" transform="translate(0.25 0.25)"/>
    </g>
    <g>
      <path class="cls-5" d="M370.36,332.12,493,448" transform="translate(0.25 0.25)"/>
      <path class="cls-6" d="M383.93,333.73,366,328l6.74,17.58Z" transform="translate(0.25 0.25)"/>
    </g>
    <g>
      <path class="cls-5" d="M313.7,273.54,205,168" transform="translate(0.25 0.25)"/>
      <path class="cls-6" d="M300.15,271.74l17.85,6-6.5-17.67Z" transform="translate(0.25 0.25)"/>
    </g>
  </g>
  <path class="cls-8" d="M363.6,314.75c0-3.56-2.08-5.62-5.68-5.62-4.74,0-8.22,3.66-8.22,8.68,0,3.78,1.88,5.8,5.4,5.8C360.54,323.61,363.6,319.11,363.6,314.75Zm-1.76.32c0,3.76-1.78,7.7-6,7.7-2.88,0-4.38-1.72-4.38-5.06,0-3,1.16-7.74,5.84-7.74C359.62,310,361.84,311.05,361.84,315.07Z" transform="translate(0.25 0.25)"/>
  <path class="cls-9" d="M175.05,192.67v-2.36h-9.6v-9.52h-2.36v9.52h-9.6v2.36h9.6v9.64h2.36v-9.64Z" transform="translate(0.25 0.25)"/>
  <path class="cls-9" d="M223.74,136.47v-2.36h-9.6v-9.52h-2.36v9.52h-9.6v2.36h9.6v9.64h2.36v-9.64Z" transform="translate(0.25 0.25)"/>
  <path class="cls-9" d="M400.53,106.47v-2.36h-9.6V94.59h-2.36v9.52H379v2.36h9.6v9.64h2.36v-9.64Z" transform="translate(0.25 0.25)"/>
  <path class="cls-9" d="M477.28,146.39V144h-9.6v-9.52h-2.36V144h-9.6v2.36h9.6V156h2.36v-9.64Z" transform="translate(0.25 0.25)"/>
  <path class="cls-9" d="M534.08,210.86V208.5h-9.6V199h-2.36v9.52h-9.6v2.36h9.6v9.64h2.36v-9.64Z" transform="translate(0.25 0.25)"/>
  <path class="cls-9" d="M549.44,298.36V296h-9.6v-9.52h-2.36V296h-9.6v2.36h9.6V308h2.36v-9.64Z" transform="translate(0.25 0.25)"/>
  <path class="cls-9" d="M524.88,372v-2.36h-9.6v-9.52h-2.36v9.52h-9.6V372h9.6v9.64h2.36V372Z" transform="translate(0.25 0.25)"/>
  <path class="cls-9" d="M470.69,460.66V458.3h-9.6v-9.52h-2.36v9.52h-9.6v2.36h9.6v9.64h2.36v-9.64Z" transform="translate(0.25 0.25)"/>
  <path class="cls-9" d="M399.14,496.09v-2.36h-9.6v-9.52h-2.36v9.52h-9.6v2.36h9.6v9.64h2.36v-9.64Z" transform="translate(0.25 0.25)"/>
  <path class="cls-9" d="M296.5,498.77v-2.36h-9.6v-9.52h-2.36v9.52h-9.6v2.36h9.6v9.64h2.36v-9.64Z" transform="translate(0.25 0.25)"/>
  <path class="cls-9" d="M221.14,467.06V464.7h-9.6v-9.52h-2.36v9.52h-9.6v2.36h9.6v9.64h2.36v-9.64Z" transform="translate(0.25 0.25)"/>
  <path class="cls-9" d="M173.35,402.73v-2.36h-9.6v-9.52h-2.36v9.52h-9.6v2.36h9.6v9.64h2.36v-9.64Z" transform="translate(0.25 0.25)"/>
  <path class="cls-9" d="M144.19,326v-2.36h-9.6V314.1h-2.36v9.52h-9.6V326h9.6v9.64h2.36V326Z" transform="translate(0.25 0.25)"/>
  <path class="cls-9" d="M151.6,254.75v-2.36H142v-9.52h-2.36v9.52H130v2.36h9.6v9.64H142v-9.64Z" transform="translate(0.25 0.25)"/>
  <path class="cls-10" d="M443,570.8c.52-2.64,1-5.24,1.68-7.88v-.12h-.88v.12c-1.36,3.28-1.68,4.68-5.48,4.68H424c3.32-4.32,6.8-8.6,10.36-12.68-1.8-3.24-3.32-6.68-4.84-10h10.12c4,0,4.16.68,4,4.32h.88V549c.44-1.88.76-3.84,1.36-5.72v-.24c-7,.32-14.08.28-21,.32V544A120.72,120.72,0,0,1,431,557a147.81,147.81,0,0,1-11.52,13v.76C427.4,570.6,435.16,570.6,443,570.8Z" transform="translate(0.25 0.25)"/>
  <g>
    <path class="cls-9" d="M401,422.81h4.68L411,423l.76-1.8-.16-.28c-3.24.16-5.64.24-8.76.24h-1.48l1.88-10.8c1.28,0,4.6-.16,5.48-.16,2.48,0,4.12.36,4.16,1l.32,3.56h1a27,27,0,0,1,.84-6.08c-.84-.08-2-.12-2.76-.12-.12,0-.56,0-1.52,0l-4.8,0c-.36,0-7.32,0-7.72,0l-1.8,0-.12,1.12,2.16.08c1,0,1.4.36,1.4,1.08a24.69,24.69,0,0,1-.36,3L396,434c-.16.72-.64,1-2.4,1.28l-.2,1,1.64,0c1.24,0,3.72-.08,4.52-.08l9,.12c.56,0,1.56,0,2.88-.08l1.32,0,.16-1.44c.08-.8.28-2,.64-4l.2-1h-1.08l-.64,2.4c-.4,1.44-.76,1.92-1.64,2.12a46.29,46.29,0,0,1-5.88.36,53.7,53.7,0,0,1-5.48-.28Z" transform="translate(0.25 0.25)"/>
    <path class="cls-6" d="M418.55,393.6l-7.42-7.81L410,387l4.54,5.47h-.36v2.12h.36L410,400.07l1.15,1.22Zm-22.43.9h21.35v-2.12H396.12Z" transform="translate(0.25 0.25)"/>
  </g>
  <path class="cls-9" d="M294.74,101.47V99.11h-9.6V89.59h-2.36v9.52h-9.6v2.36h9.6v9.64h2.36v-9.64Z" transform="translate(0.25 0.25)"/>
  <rect class="cls-3" x="664.25" y="0.25" width="662" height="606"/>
  <g>
    <g>
      <path class="cls-4" d="M714,461.8h564M770.4,73V505" transform="translate(0.25 0.25)"/>
      <path class="cls-4" d="M1271,456.8l7,5-7,5" transform="translate(0.25 0.25)"/>
      <path class="cls-4" d="M765.4,80l5-7,5,7" transform="translate(0.25 0.25)"/>
      <path class="cls-4" d="M835.4,456.8v10m65-10v10m65-10v10m65-10v10m65-10v10m65-10v10m65-10v10m-460-70h10m-10-65h10m-10-65h10m-10-65h10m-10-65h10" transform="translate(0.25 0.25)"/>
    </g>
    <path class="cls-11" d="M770.4,461.8h195" transform="translate(0.25 0.25)"/>
    <path class="cls-12" d="M965.4,461.8V205" transform="translate(0.25 0.25)"/>
    <path class="cls-13" d="M770.4,205h195" transform="translate(0.25 0.25)"/>
    <path class="cls-11" d="M965,210c72,214,189,244,307,242" transform="translate(0.25 0.25)"/>
    <g>
      <path class="cls-14" d="M1129,265l-65.06,50.92" transform="translate(0.25 0.25)"/>
      <path class="cls-15" d="M1072.5,301.28q-5.61,11.25-12.5,17.72,7.95-5.13,20.21-7.88" transform="translate(0.25 0.25)"/>
    </g>
  </g>
  <path class="cls-16" d="M961.15,477.08l1.68.06c.72,0,1,.27,1,.81a18.52,18.52,0,0,1-.27,2.28l-2.25,13c-.48,2.73-.54,2.79-1.74,2.91l-1.23.09-.12.84,1.26,0c1.41-.06,2-.06,2.7-.06l2.91.09h.78l.09-.84-1.47-.09c-.81-.06-1.08-.3-1.08-.9a5.81,5.81,0,0,1,.12-1.05l3-16.65a10.17,10.17,0,0,1,2.28-.24c2.61,0,4,1.17,4,3.39,0,2.85-2.34,5-5.46,5H966.1L966,486c4,5.85,5,7.29,7.2,11.1l2.55-.09,1,.09h.39v-.81c-1.2-.15-1.53-.39-2.4-1.65l-5.52-8.25a7.71,7.71,0,0,0,3.6-1.44,5.82,5.82,0,0,0,2.67-4.74c0-2.58-1.92-4-5.25-3.93h-9Z" transform="translate(0.25 0.25)"/>
  <g>
    <path class="cls-16" d="M734.4,200.45c4.8,0,7.8-3.45,7.89-8.16.06-2.58-.72-3.12-2.67-4.41v-.09a34.62,34.62,0,0,0,5-.12,9.17,9.17,0,0,0,.39-1.89c-1.17.63-4.8.21-6.33.51-4.89,1-8.55,3.84-8.55,9.12C730.11,198.56,731,200.45,734.4,200.45Zm5.88-8.46c0,3-1.14,7.62-4.92,7.62-2.76,0-3-3-3-5.07,0-3.3,1.17-6.9,5.1-6.9C740,187.64,740.28,190.16,740.28,192Z" transform="translate(0.25 0.25)"/>
    <g>
      <path class="cls-16" d="M733.94,238.34a8.81,8.81,0,0,1,.45-1.23c-2.37.06-4.68,0-7,0,.57-2.61,2.22-5.28,5.22-5.28,1.8,0,2.46.54,3.27,2.07h.6l1.23-1.59c-5.25-5.1-13.32,1.83-13.32,8,0,3.39,2,5,5.19,5,2.31,0,4.23-1.74,6-3.09v-.57c-1.41,1-3.09,2.16-4.86,2.16-2.22,0-4.05-2.61-3.57-5.43C727.49,238.43,733.13,238.34,733.94,238.34Z" transform="translate(0.25 0.25)"/>
      <path class="cls-17" d="M744.35,235.81c-3.25,0-4.91,2.59-4.91,7.67,0,2.45.44,4.58,1.17,5.6a3.9,3.9,0,0,0,3.22,1.62c3.17,0,4.76-2.73,4.76-8.1C748.59,238,747.23,235.81,744.35,235.81Zm-.38.74c2,0,2.86,2.06,2.86,7.1,0,4.47-.8,6.32-2.73,6.32s-2.9-2.12-2.9-7.25C741.2,238.29,742,236.55,744,236.55Z" transform="translate(0.25 0.25)"/>
    </g>
    <line class="cls-18" x1="724.23" y1="213.77" x2="751.36" y2="213.77"/>
  </g>
  <path class="cls-16" d="M1287,489.05a27.83,27.83,0,0,1,.48-3.33,1.35,1.35,0,0,0-.6-.18c-.93,0-1.86.72-2.94,2.25a37,37,0,0,0-2.82,4.53l1-4.56a5.5,5.5,0,0,0,.18-1.26c0-.6-.24-1-.69-1-.63,0-1.77.63-4,2.22l-.84.6.21.6,1-.63c.84-.54,1.17-.69,1.44-.69s.51.27.51.66a64,64,0,0,1-2.49,11.76l.3.21a16.3,16.3,0,0,1,1.62-.39l.39-.06.78-3.6a13.14,13.14,0,0,1,2.55-5.79c1-1.32,1.83-1.95,2.49-1.95a1.24,1.24,0,0,1,1.08.57Z" transform="translate(0.25 0.25)"/>
  <path class="cls-16" d="M748.63,76h3.51l4,.12.57-1.35-.12-.21c-2.43.12-4.23.18-6.57.18h-1.11l1.41-8.1c1,0,3.45-.12,4.11-.12,1.86,0,3.09.27,3.12.72l.24,2.67h.72a20.27,20.27,0,0,1,.63-4.56c-.63-.06-1.53-.09-2.07-.09-.09,0-.42,0-1.14,0l-3.6,0c-.27,0-5.49,0-5.79,0l-1.35,0-.09.84,1.62.06c.72,0,1.05.27,1.05.81a18.52,18.52,0,0,1-.27,2.28l-2.61,15.12c-.12.54-.48.75-1.8,1l-.15.78,1.23,0c.93,0,2.79-.06,3.39-.06l6.75.09c.42,0,1.17,0,2.16-.06l1,0,.12-1.08c.06-.6.21-1.5.48-3l.15-.78h-.81l-.48,1.8c-.3,1.08-.57,1.44-1.23,1.59a34.72,34.72,0,0,1-4.41.27,40.28,40.28,0,0,1-4.11-.21Z" transform="translate(0.25 0.25)"/>
  <g>
    <path class="cls-16" d="M1180.25,206.26a8,8,0,0,0-3-.72c-2.25,0-4.89,2.64-5.43,3.24-1.2,1.41-2.37,5.79-2.37,8.88,0,1.77.36,2.67,1.08,2.67a3.76,3.76,0,0,0,2.19-.9,18.23,18.23,0,0,0,5.25-5.7l-2.28,12.42a3.64,3.64,0,0,1-.81,1.71l.27.42a21.59,21.59,0,0,1,2.58-.51,47.16,47.16,0,0,1,.57-4.77l2.58-13.68a24.81,24.81,0,0,1,.81-3.54l-.42-.18Zm-8,12c-.42,0-.66-.63-.66-1.62,0-2.88,1.29-7.38,2.55-8.88a2.94,2.94,0,0,1,2.19-.72,6.67,6.67,0,0,1,2.91.81l-.63,2.85C1177.73,214.78,1173.5,218.23,1172.24,218.23Z" transform="translate(0.25 0.25)"/>
    <g>
      <path class="cls-16" d="M1147.38,259.57v2.25c0,1.8-.33,2.22-1.8,2.28l-1.86.09v.9c4-.09,4-.09,4.71-.09s.72,0,4.71.09v-.9l-1.44-.09c-1.47-.09-1.8-.48-1.8-2.28v-2.25a26.91,26.91,0,0,1,3.24.12v-2.13l-3.24.09,0-13.56-2.4.9L1139,258.88v.69Zm0-1.92h-6.45l6.45-10.56Zm22.32,6.09c-1.68,0-1.83-2.49-1.8-3.72a14.42,14.42,0,0,1,2.16-7.17l1.86-.39a10.51,10.51,0,0,1,.42-1.47c-4.62.18-9.39.12-14,0-2,0-2.37,2.31-2.94,3.78,0,.24.36.27.48.36V255c1.29-1.89,2-2.19,4.26-2.19h.69c-1.2,4.17-2,8.28-3.9,12.21v.3a8.77,8.77,0,0,0,2.16-.75c1.23-3.84,2.1-7.83,2.94-11.76h6.81a17.3,17.3,0,0,0-3,8.91c0,1.47.45,3.69,2.28,3.69,1.23,0,2.91-1.2,3.81-2V263h-.36v0A3.67,3.67,0,0,1,1169.7,263.74Zm13.8-5.4a8.81,8.81,0,0,1,.45-1.23c-2.37.06-4.68,0-7,0,.57-2.61,2.22-5.28,5.22-5.28,1.8,0,2.46.54,3.27,2.07h.6l1.23-1.59c-5.25-5.1-13.32,1.83-13.32,8,0,3.39,2,5,5.19,5,2.31,0,4.23-1.74,6-3.09v-.57c-1.41,1-3.09,2.16-4.86,2.16-2.22,0-4-2.61-3.57-5.43C1177.05,258.43,1182.69,258.34,1183.5,258.34Z" transform="translate(0.25 0.25)"/>
      <path class="cls-17" d="M1193.9,255.81c-3.26,0-4.92,2.59-4.92,7.67,0,2.45.44,4.58,1.18,5.6a3.88,3.88,0,0,0,3.21,1.62c3.17,0,4.77-2.73,4.77-8.1C1198.14,258,1196.77,255.81,1193.9,255.81Zm-.38.74c2,0,2.86,2.06,2.86,7.1,0,4.47-.8,6.32-2.73,6.32s-2.9-2.12-2.9-7.25C1190.75,258.29,1191.52,256.55,1193.52,256.55Z" transform="translate(0.25 0.25)"/>
      <path class="cls-16" d="M1211.7,254.05a27.83,27.83,0,0,1,.48-3.33,1.35,1.35,0,0,0-.6-.18c-.93,0-1.86.72-2.94,2.25a37,37,0,0,0-2.82,4.53l1-4.56a5.5,5.5,0,0,0,.18-1.26c0-.6-.24-1-.69-1-.63,0-1.77.63-4,2.22l-.84.6.21.6,1-.63c.84-.54,1.17-.69,1.44-.69s.51.27.51.66a64,64,0,0,1-2.49,11.76l.3.21a16.3,16.3,0,0,1,1.62-.39l.39-.06.78-3.6a13.14,13.14,0,0,1,2.55-5.79c1-1.32,1.83-2,2.49-2a1.24,1.24,0,0,1,1.08.57Z" transform="translate(0.25 0.25)"/>
    </g>
    <line class="cls-18" x1="1139.23" y1="233.77" x2="1212.55" y2="233.77"/>
  </g>
  <path class="cls-16" d="M750.89,473.33c-4.65,0-7,3.69-7,10.95,0,3.51.63,6.54,1.68,8a5.56,5.56,0,0,0,4.59,2.31c4.53,0,6.81-3.9,6.81-11.58C757,476.45,755,473.33,750.89,473.33Zm-.54,1.05c2.91,0,4.08,2.94,4.08,10.14,0,6.39-1.14,9-3.9,9s-4.14-3-4.14-10.35C746.39,476.87,747.5,474.38,750.35,474.38Z" transform="translate(0.25 0.25)"/>
</svg>
