<svg id="Livello_1" data-name="Livello 1" xmlns="http://www.w3.org/2000/svg" xmlns:xlink="http://www.w3.org/1999/xlink" width="662.5" height="606.5" viewBox="0 0 662.5 606.5">
  <defs>
    <style>
      .cls-1, .cls-2, .cls-4, .cls-5, .cls-6, .cls-9 {
        fill: none;
      }

      .cls-2, .cls-3 {
        stroke: #d3d3d3;
        stroke-width: 0.5px;
      }

      .cls-3 {
        fill: url(#_.843999549798788);
      }

      .cls-4, .cls-6, .cls-7, .cls-8, .cls-9 {
        stroke: #000;
      }

      .cls-4, .cls-6 {
        stroke-width: 3px;
      }

      .cls-5 {
        stroke: red;
        stroke-width: 7px;
      }

      .cls-6 {
        stroke-dasharray: 3.38 4.02;
      }

      .cls-7, .cls-8 {
        stroke-miterlimit: 10;
      }

      .cls-7 {
        stroke-width: 0.24px;
      }

      .cls-8 {
        stroke-width: 0.17px;
      }

      .cls-9 {
        stroke-width: 2px;
      }
    </style>
    <pattern id="_.843999549798788" data-name=".843999549798788" width="10" height="10" patternTransform="matrix(1, 0, 0, -1, -2.75, 850.14)" patternUnits="userSpaceOnUse" viewBox="0 0 10 10">
      <rect class="cls-1" width="10" height="10"/>
      <path class="cls-2" d="M10,10H0V0"/>
    </pattern>
  </defs>
  <rect class="cls-3" x="0.25" y="0.25" width="662" height="606"/>
  <g>
    <g>
      <path class="cls-4" d="M50,461.8H614M106.4,73V505" transform="translate(0.25 0.25)"/>
      <path class="cls-4" d="M607,456.8l7,5-7,5" transform="translate(0.25 0.25)"/>
      <path class="cls-4" d="M101.4,80l5-7,5,7" transform="translate(0.25 0.25)"/>
      <path class="cls-4" d="M171.4,456.8v10m65-10v10m65-10v10m65-10v10m65-10v10m65-10v10m65-10v10m-460-70h10m-10-65h10m-10-65h10m-10-65h10m-10-65h10" transform="translate(0.25 0.25)"/>
    </g>
    <path class="cls-5" d="M106.4,461.8,301.4,205" transform="translate(0.25 0.25)"/>
    <path class="cls-6" d="M301.4,461.8V205" transform="translate(0.25 0.25)"/>
    <path class="cls-6" d="M106.4,205h195" transform="translate(0.25 0.25)"/>
    <path class="cls-5" d="M301,210c72,214,189,244,307,242" transform="translate(0.25 0.25)"/>
  </g>
  <path class="cls-7" d="M297.15,477.08l1.68.06c.72,0,1.05.27,1.05.81a18.52,18.52,0,0,1-.27,2.28l-2.25,13c-.48,2.73-.54,2.79-1.74,2.91l-1.23.09-.12.84,1.26,0c1.41-.06,2-.06,2.7-.06l2.91.09h.78l.09-.84-1.47-.09c-.81-.06-1.08-.3-1.08-.9a5.81,5.81,0,0,1,.12-1.05l3-16.65a10.17,10.17,0,0,1,2.28-.24c2.61,0,4,1.17,4,3.39,0,2.85-2.34,5-5.46,5H302.1L302,486c4,5.85,4.95,7.29,7.2,11.1l2.55-.09,1,.09h.39v-.81c-1.2-.15-1.53-.39-2.4-1.65l-5.52-8.25a7.71,7.71,0,0,0,3.6-1.44,5.82,5.82,0,0,0,2.67-4.74c0-2.58-1.92-4-5.25-3.93h-9Z" transform="translate(0.25 0.25)"/>
  <g>
    <path class="cls-7" d="M70.3,177.81c-3.57,0-7.2,2.31-8,5.88-1.2,5.37-1.77,11.22-2.55,16.83a7.29,7.29,0,0,0,2.52-.54,39.05,39.05,0,0,1,.81-8.85,3.46,3.46,0,0,0,3.06,1.32c5.31,0,8.25-5.49,8.34-10.2C74.53,179.4,73.18,177.81,70.3,177.81Zm-1.17,1c2.37,0,3,1.83,2.94,3.9,0,3.24-1.41,9-5.55,9-2.34,0-2.88-1.83-2.82-3.81C63.76,184.71,65,178.77,69.13,178.77Zm17.61,2.28a27.83,27.83,0,0,1,.48-3.33,1.35,1.35,0,0,0-.6-.18c-.93,0-1.86.72-2.94,2.25a37,37,0,0,0-2.82,4.53l1-4.56A5.5,5.5,0,0,0,82,178.5c0-.6-.24-1-.69-1-.63,0-1.77.63-4,2.22l-.84.6.21.6,1-.63c.84-.54,1.17-.69,1.44-.69s.51.27.51.66a64,64,0,0,1-2.49,11.76l.3.21a16.3,16.3,0,0,1,1.62-.39l.39-.06.78-3.6a13.14,13.14,0,0,1,2.55-5.79c1-1.32,1.83-2,2.49-2a1.24,1.24,0,0,1,1.08.57Z" transform="translate(0.25 0.25)"/>
    <g>
      <path class="cls-7" d="M65.84,230.28c0-3.63-3.21-4.26-4.62-4.5,2.4-1.86,3.3-3.24,3.3-5,0-2.67-2.22-4.44-5.55-4.44a6.14,6.14,0,0,0-4.83,2l-.87,3.72h.93l.54-1.68c.33-1,2.22-2,3.78-2a3.53,3.53,0,0,1,3.54,3.48,4.06,4.06,0,0,1-3.9,4.14c-.24,0-.57,0-1-.06l-.45,0-.36,1.59.21.18a5.51,5.51,0,0,1,2.52-.66c2.49,0,3.93,1.59,3.93,4.32,0,3.06-1.83,5.07-4.62,5.07a5.06,5.06,0,0,1-3.51-1.29,6.37,6.37,0,0,1-1.68-3l-.81.3a18.93,18.93,0,0,1,1,4.41,12.68,12.68,0,0,0,4,.78C61.19,237.6,65.84,234.39,65.84,230.28Zm11.07.06a8.81,8.81,0,0,1,.45-1.23c-2.37.06-4.68,0-7,0,.57-2.61,2.22-5.28,5.22-5.28,1.8,0,2.46.54,3.27,2.07h.6l1.23-1.59c-5.25-5.1-13.32,1.83-13.32,8,0,3.39,2,5,5.19,5,2.31,0,4.23-1.74,6-3.09v-.57c-1.41,1-3.09,2.16-4.86,2.16-2.22,0-4-2.61-3.57-5.43C70.46,230.43,76.1,230.34,76.91,230.34Z" transform="translate(0.25 0.25)"/>
      <path class="cls-8" d="M87.32,227.81c-3.26,0-4.91,2.59-4.91,7.67,0,2.45.44,4.58,1.17,5.6a3.9,3.9,0,0,0,3.21,1.62c3.18,0,4.77-2.73,4.77-8.1C91.56,230,90.2,227.81,87.32,227.81Zm-.38.74c2,0,2.86,2.06,2.86,7.1,0,4.47-.8,6.32-2.73,6.32s-2.9-2.12-2.9-7.25C84.17,230.29,85,228.55,86.94,228.55Z" transform="translate(0.25 0.25)"/>
    </g>
    <line class="cls-9" x1="52.23" y1="205.77" x2="94.33" y2="205.77"/>
  </g>
  <path class="cls-7" d="M623,489.05a27.83,27.83,0,0,1,.48-3.33,1.35,1.35,0,0,0-.6-.18c-.93,0-1.86.72-2.94,2.25a37,37,0,0,0-2.82,4.53l1-4.56a5.5,5.5,0,0,0,.18-1.26c0-.6-.24-1-.69-1-.63,0-1.77.63-4,2.22l-.84.6.21.6,1-.63c.84-.54,1.17-.69,1.44-.69s.51.27.51.66a64,64,0,0,1-2.49,11.76l.3.21a16.3,16.3,0,0,1,1.62-.39l.39-.06.78-3.6a13.14,13.14,0,0,1,2.55-5.79c1-1.32,1.83-1.95,2.49-1.95a1.24,1.24,0,0,1,1.08.57Z" transform="translate(0.25 0.25)"/>
  <path class="cls-7" d="M84.63,76h3.51l4,.12.57-1.35-.12-.21c-2.43.12-4.23.18-6.57.18H84.87l1.41-8.1c1,0,3.45-.12,4.11-.12,1.86,0,3.09.27,3.12.72l.24,2.67h.72a20.27,20.27,0,0,1,.63-4.56c-.63-.06-1.53-.09-2.07-.09-.09,0-.42,0-1.14,0l-3.6,0c-.27,0-5.49,0-5.79,0l-1.35,0-.09.84,1.62.06c.72,0,1,.27,1,.81a18.52,18.52,0,0,1-.27,2.28L80.85,84.35c-.12.54-.48.75-1.8,1l-.15.78,1.23,0c.93,0,2.79-.06,3.39-.06l6.75.09c.42,0,1.17,0,2.16-.06l1,0,.12-1.08c.06-.6.21-1.5.48-3l.15-.78h-.81L92.88,83c-.3,1.08-.57,1.44-1.23,1.59a34.72,34.72,0,0,1-4.41.27,40.28,40.28,0,0,1-4.11-.21Z" transform="translate(0.25 0.25)"/>
  <path class="cls-7" d="M86.89,473.33c-4.65,0-7,3.69-7,10.95,0,3.51.63,6.54,1.68,8a5.56,5.56,0,0,0,4.59,2.31c4.53,0,6.81-3.9,6.81-11.58C93,476.45,91,473.33,86.89,473.33Zm-.54,1.05c2.91,0,4.08,2.94,4.08,10.14,0,6.39-1.14,9-3.9,9s-4.14-3-4.14-10.35C82.39,476.87,83.5,474.38,86.35,474.38Z" transform="translate(0.25 0.25)"/>
</svg>
