<svg id="Livello_1" data-name="Livello 1" xmlns="http://www.w3.org/2000/svg" xmlns:xlink="http://www.w3.org/1999/xlink" width="662.5" height="790.5" viewBox="0 0 662.5 790.5">
  <defs>
    <style>
      .cls-1, .cls-15, .cls-2, .cls-4, .cls-5, .cls-6, .cls-7 {
        fill: none;
      }

      .cls-2, .cls-3 {
        stroke: #d3d3d3;
        stroke-width: 0.5px;
      }

      .cls-3 {
        fill: url(#_.843999549798788);
      }

      .cls-10, .cls-11, .cls-4, .cls-5, .cls-6, .cls-9 {
        stroke: #000;
      }

      .cls-15, .cls-4, .cls-5 {
        stroke-width: 3px;
      }

      .cls-5 {
        stroke-dasharray: 3.38 4.02;
      }

      .cls-6 {
        stroke-width: 2px;
      }

      .cls-12, .cls-13, .cls-14, .cls-15, .cls-7 {
        stroke: red;
      }

      .cls-7 {
        stroke-width: 4px;
      }

      .cls-12, .cls-13, .cls-14, .cls-8 {
        fill: red;
      }

      .cls-10, .cls-11, .cls-12, .cls-13, .cls-14 {
        stroke-miterlimit: 10;
      }

      .cls-10, .cls-13 {
        stroke-width: 0.4px;
      }

      .cls-11, .cls-12 {
        stroke-width: 0.32px;
      }

      .cls-14 {
        stroke-width: 0.28px;
      }
    </style>
    <pattern id="_.843999549798788" data-name=".843999549798788" width="10" height="10" patternTransform="matrix(1, 0, 0, -1, -2.75, 848.14)" patternUnits="userSpaceOnUse" viewBox="0 0 10 10">
      <rect class="cls-1" width="10" height="10"/>
      <path class="cls-2" d="M10,10H0V0"/>
    </pattern>
  </defs>
  <rect class="cls-3" x="0.25" y="0.25" width="662" height="790"/>
  <g>
    <path class="cls-4" d="M169,310A160,160,0,1,1,329,470,160,160,0,0,1,169,310Z" transform="translate(0.25 0.25)"/>
    <path class="cls-5" d="M121,310c0-114.88,93.12-208,208-208s208,93.12,208,208S443.88,518,329,518,121,424.88,121,310Z" transform="translate(0.25 0.25)"/>
    <path class="cls-5" d="M71,310C71,167.51,186.51,52,329,52S587,167.51,587,310,471.49,568,329,568,71,452.49,71,310Z" transform="translate(0.25 0.25)"/>
    <path class="cls-6" d="M128,472,329,310" transform="translate(0.25 0.25)"/>
    <path class="cls-6" d="M170,310H329" transform="translate(0.25 0.25)"/>
    <g>
      <path class="cls-7" d="M169,310H45" transform="translate(0.25 0.25)"/>
      <path class="cls-8" d="M56,301.85,39,310l17,8.15Z" transform="translate(0.25 0.25)"/>
    </g>
    <g>
      <path class="cls-7" d="M613,310H489" transform="translate(0.25 0.25)"/>
      <path class="cls-8" d="M602,318.15,619,310l-17-8.15Z" transform="translate(0.25 0.25)"/>
    </g>
    <g>
      <path class="cls-7" d="M327.33,26,329,150" transform="translate(0.25 0.25)"/>
      <path class="cls-8" d="M335.63,36.87,327.25,20l-7.92,17.08Z" transform="translate(0.25 0.25)"/>
    </g>
    <g>
      <path class="cls-7" d="M329,470l1.67,124" transform="translate(0.25 0.25)"/>
      <path class="cls-8" d="M322.37,583.13,330.75,600l7.92-17.08Z" transform="translate(0.25 0.25)"/>
    </g>
    <g>
      <path class="cls-7" d="M444,423l74.31,95.27" transform="translate(0.25 0.25)"/>
      <path class="cls-8" d="M505.14,514.63,522,523l-4-18.39Z" transform="translate(0.25 0.25)"/>
    </g>
    <g>
      <path class="cls-7" d="M117.17,122.31,203,211" transform="translate(0.25 0.25)"/>
      <path class="cls-8" d="M130.66,124.53,113,118l5.94,17.86Z" transform="translate(0.25 0.25)"/>
    </g>
    <g>
      <path class="cls-7" d="M546.83,120.31,458,212" transform="translate(0.25 0.25)"/>
      <path class="cls-8" d="M545.05,133.86,551,116l-17.66,6.52Z" transform="translate(0.25 0.25)"/>
    </g>
    <g>
      <path class="cls-7" d="M214,421l-87.73,86.78" transform="translate(0.25 0.25)"/>
      <path class="cls-8" d="M128.33,494.27,122,512l17.8-6.14Z" transform="translate(0.25 0.25)"/>
    </g>
    <path class="cls-9" d="M321,310a8,8,0,1,1,8,8A8,8,0,0,1,321,310Z" transform="translate(0.25 0.25)"/>
  </g>
  <path class="cls-10" d="M181.4,402.75a46.38,46.38,0,0,1,.8-5.55,2.25,2.25,0,0,0-1-.3c-1.55,0-3.1,1.2-4.9,3.75a61.65,61.65,0,0,0-4.7,7.55l1.6-7.6a9.17,9.17,0,0,0,.3-2.1c0-1-.4-1.6-1.15-1.6-1,0-2.95,1.05-6.65,3.7l-1.4,1,.35,1,1.6-1.05c1.4-.9,1.95-1.15,2.4-1.15s.85.45.85,1.1c0,2.9-2.15,13.2-4.15,19.6l.5.35a27.17,27.17,0,0,1,2.7-.65l.65-.1,1.3-6a21.9,21.9,0,0,1,4.25-9.65c1.7-2.2,3.05-3.25,4.15-3.25a2.07,2.07,0,0,1,1.8.95Z" transform="translate(0.25 0.25)"/>
  <path class="cls-11" d="M225.2,276.44l2.24.08c1,0,1.4.36,1.4,1.08a24.69,24.69,0,0,1-.36,3l-3,17.36c-.64,3.64-.72,3.72-2.32,3.88l-1.64.12-.16,1.12,1.68,0c1.88-.08,2.64-.08,3.6-.08l3.88.12h1l.12-1.12-2-.12c-1.08-.08-1.44-.4-1.44-1.2a7.75,7.75,0,0,1,.16-1.4l4-22.2a13.56,13.56,0,0,1,3-.32c3.48,0,5.32,1.56,5.32,4.52,0,3.8-3.12,6.6-7.28,6.6H231.8l-.12.44c5.36,7.8,6.6,9.72,9.6,14.8l3.4-.12s.6,0,1.36.12h.52V302c-1.6-.2-2-.52-3.2-2.2l-7.36-11a10.28,10.28,0,0,0,4.8-1.92,7.76,7.76,0,0,0,3.56-6.32c0-3.44-2.56-5.32-7-5.24h-12Z" transform="translate(0.25 0.25)"/>
  <path class="cls-11" d="M371.92,299c0-7.12-4.16-11.24-11.36-11.24-9.48,0-16.44,7.32-16.44,17.36,0,7.56,3.76,11.6,10.8,11.6C365.8,316.72,371.92,307.72,371.92,299Zm-3.52.64c0,7.52-3.56,15.4-12,15.4-5.76,0-8.76-3.44-8.76-10.12,0-5.92,2.32-15.48,11.68-15.48C364,289.44,368.4,291.6,368.4,299.64Z" transform="translate(0.25 0.25)"/>
  <path class="cls-12" d="M247.16,222.36V220h-9.6v-9.52H235.2V220h-9.6v2.36h9.6V232h2.36v-9.64Z" transform="translate(0.25 0.25)"/>
  <path class="cls-12" d="M295.16,188.36V186h-9.6v-9.52H283.2V186h-9.6v2.36h9.6V198h2.36v-9.64Z" transform="translate(0.25 0.25)"/>
  <path class="cls-12" d="M375.16,188.36V186h-9.6v-9.52H363.2V186h-9.6v2.36h9.6V198h2.36v-9.64Z" transform="translate(0.25 0.25)"/>
  <path class="cls-12" d="M425.16,214.36V212h-9.6v-9.52H413.2V212h-9.6v2.36h9.6V224h2.36v-9.64Z" transform="translate(0.25 0.25)"/>
  <path class="cls-12" d="M462.16,256.36V254h-9.6v-9.52H450.2V254h-9.6v2.36h9.6V266h2.36v-9.64Z" transform="translate(0.25 0.25)"/>
  <path class="cls-12" d="M472.16,313.36V311h-9.6v-9.52H460.2V311h-9.6v2.36h9.6V323h2.36v-9.64Z" transform="translate(0.25 0.25)"/>
  <path class="cls-12" d="M456.16,361.36V359h-9.6v-9.52H444.2V359h-9.6v2.36h9.6V371h2.36v-9.64Z" transform="translate(0.25 0.25)"/>
  <path class="cls-12" d="M422.16,407.36V405h-9.6v-9.52H410.2V405h-9.6v2.36h9.6V417h2.36v-9.64Z" transform="translate(0.25 0.25)"/>
  <path class="cls-12" d="M378.16,434.36V432h-9.6v-9.52H366.2V432h-9.6v2.36h9.6V444h2.36v-9.64Z" transform="translate(0.25 0.25)"/>
  <path class="cls-12" d="M317.16,439.36V437h-9.6v-9.52H305.2V437h-9.6v2.36h9.6V449h2.36v-9.64Z" transform="translate(0.25 0.25)"/>
  <path class="cls-12" d="M265.16,416.36V414h-9.6v-9.52H253.2V414h-9.6v2.36h9.6V426h2.36v-9.64Z" transform="translate(0.25 0.25)"/>
  <path class="cls-12" d="M227.16,381.36V379h-9.6v-9.52H215.2V379h-9.6v2.36h9.6V391h2.36v-9.64Z" transform="translate(0.25 0.25)"/>
  <path class="cls-12" d="M208.16,331.36V329h-9.6v-9.52H196.2V329h-9.6v2.36h9.6V341h2.36v-9.64Z" transform="translate(0.25 0.25)"/>
  <path class="cls-12" d="M220.16,267.36V265h-9.6v-9.52H208.2V265h-9.6v2.36h9.6V277h2.36v-9.64Z" transform="translate(0.25 0.25)"/>
  <path class="cls-11" d="M425.88,482.16c.52-2.64,1-5.24,1.68-7.88v-.12h-.88v.12c-1.36,3.28-1.68,4.68-5.48,4.68H406.88c3.32-4.32,6.8-8.6,10.36-12.68-1.8-3.24-3.32-6.68-4.84-10h10.12c4,0,4.16.68,4,4.32h.88v-.16c.44-1.88.76-3.84,1.36-5.72v-.24c-7,.32-14.08.28-21,.32v.64a120.72,120.72,0,0,1,6.12,13,147.81,147.81,0,0,1-11.52,13v.76C410.24,482,418,482,425.88,482.16Z" transform="translate(0.25 0.25)"/>
  <g>
    <path class="cls-12" d="M572.84,150.62h4.68l5.28.16.76-1.8-.16-.28c-3.24.16-5.64.24-8.76.24h-1.48l1.88-10.8c1.28,0,4.6-.16,5.48-.16,2.48,0,4.12.36,4.16,1l.32,3.56h1a27,27,0,0,1,.84-6.08c-.84-.08-2-.12-2.76-.12-.12,0-.56,0-1.52,0l-4.8,0c-.36,0-7.32,0-7.72,0l-1.8,0-.12,1.12,2.16.08c1,0,1.4.36,1.4,1.08a24.69,24.69,0,0,1-.36,3l-3.48,20.16c-.16.72-.64,1-2.4,1.28l-.2,1,1.64,0c1.24,0,3.72-.08,4.52-.08l9,.12c.56,0,1.56,0,2.88-.08l1.32,0,.16-1.44c.08-.8.28-2,.64-4l.2-1h-1.08l-.64,2.4c-.4,1.44-.76,1.92-1.64,2.12a46.29,46.29,0,0,1-5.88.36,53.7,53.7,0,0,1-5.48-.28Z" transform="translate(0.25 0.25)"/>
    <path class="cls-8" d="M590.39,121.41,583,113.6l-1.15,1.22,4.54,5.47H586v2.12h.36l-4.54,5.47L583,129.1Zm-22.43.9h21.35v-2.12H568Z" transform="translate(0.25 0.25)"/>
  </g>
  <g>
    <path class="cls-12" d="M572.84,150.62h4.68l5.28.16.76-1.8-.16-.28c-3.24.16-5.64.24-8.76.24h-1.48l1.88-10.8c1.28,0,4.6-.16,5.48-.16,2.48,0,4.12.36,4.16,1l.32,3.56h1a27,27,0,0,1,.84-6.08c-.84-.08-2-.12-2.76-.12-.12,0-.56,0-1.52,0l-4.8,0c-.36,0-7.32,0-7.72,0l-1.8,0-.12,1.12,2.16.08c1,0,1.4.36,1.4,1.08a24.69,24.69,0,0,1-.36,3l-3.48,20.16c-.16.72-.64,1-2.4,1.28l-.2,1,1.64,0c1.24,0,3.72-.08,4.52-.08l9,.12c.56,0,1.56,0,2.88-.08l1.32,0,.16-1.44c.08-.8.28-2,.64-4l.2-1h-1.08l-.64,2.4c-.4,1.44-.76,1.92-1.64,2.12a46.29,46.29,0,0,1-5.88.36,53.7,53.7,0,0,1-5.48-.28Z" transform="translate(0.25 0.25)"/>
    <path class="cls-8" d="M590.39,121.41,583,113.6l-1.15,1.22,4.54,5.47H586v2.12h.36l-4.54,5.47L583,129.1Zm-22.43.9h21.35v-2.12H568Z" transform="translate(0.25 0.25)"/>
  </g>
  <g>
    <g>
      <path class="cls-13" d="M226.05,676.3h5.85l6.6.2.95-2.25-.2-.35c-4.05.2-7.05.3-10.95.3h-1.85l2.35-13.5c1.6-.05,5.75-.2,6.85-.2,3.1,0,5.15.45,5.2,1.2l.4,4.45h1.2a33.79,33.79,0,0,1,1.05-7.6c-1.05-.1-2.55-.15-3.45-.15-.15,0-.7,0-1.9.05l-6,0c-.45,0-9.15,0-9.65,0l-2.25-.05-.15,1.4,2.7.1c1.2.05,1.75.45,1.75,1.35a30.86,30.86,0,0,1-.45,3.8l-4.35,25.2c-.2.9-.8,1.25-3,1.6l-.25,1.3,2.05,0c1.55-.05,4.65-.1,5.65-.1l11.25.15c.7,0,2,0,3.6-.1l1.65,0,.2-1.8c.1-1,.35-2.5.8-5L242,685H240.6l-.8,3c-.5,1.8-1,2.4-2.05,2.65a57.86,57.86,0,0,1-7.35.45,67.13,67.13,0,0,1-6.85-.35Z" transform="translate(0.25 0.25)"/>
      <path class="cls-8" d="M248,640.27l-9.27-9.77L237.29,632l5.67,6.84h-.45v2.66H243l-5.67,6.84,1.44,1.53ZM220,641.39h26.7v-2.66H220Z" transform="translate(0.25 0.25)"/>
    </g>
    <g>
      <path class="cls-14" d="M252.11,702.19c0-9.1,3.4-12.81,5.43-15.19l-.67-.91c-2,1.79-7.77,6.44-7.77,16.1a22,22,0,0,0,2.56,10.43c1.22,2.35,2.34,3.71,5.21,6.41l.67-.74C255.93,716.3,252.11,712,252.11,702.19Z" transform="translate(0.25 0.25)"/>
      <path class="cls-14" d="M271.51,698.73a31.7,31.7,0,0,1,.56-3.89,1.68,1.68,0,0,0-.7-.21c-1.09,0-2.17.84-3.43,2.63a42.92,42.92,0,0,0-3.29,5.28l1.12-5.32a6.38,6.38,0,0,0,.21-1.47c0-.7-.28-1.12-.81-1.12-.73,0-2.06.74-4.65,2.59l-1,.7.24.7,1.12-.73c1-.63,1.37-.81,1.68-.81s.6.32.6.77c0,2-1.51,9.24-2.91,13.72l.35.25c.53-.18,1.09-.28,1.89-.46l.46-.07.91-4.2a15.31,15.31,0,0,1,3-6.75c1.19-1.54,2.14-2.28,2.91-2.28a1.46,1.46,0,0,1,1.26.67Z" transform="translate(0.25 0.25)"/>
      <path class="cls-14" d="M274,686.09l-.66.91c1.92,2.24,5.42,6.09,5.42,15.19,0,9.66-3.64,13.9-5.42,16.1l.66.74a21.49,21.49,0,0,0,7.77-16.8C281.77,692.53,276,687.88,274,686.09Z" transform="translate(0.25 0.25)"/>
    </g>
    <g>
      <path class="cls-14" d="M385.53,693.91c0-9.1,3.4-12.81,5.43-15.19l-.67-.91c-2,1.79-7.77,6.44-7.77,16.1a22,22,0,0,0,2.56,10.43c1.22,2.35,2.34,3.71,5.21,6.41L391,710C389.35,708,385.53,703.75,385.53,693.91Z" transform="translate(0.25 0.25)"/>
      <path class="cls-14" d="M404.93,690.45a31.7,31.7,0,0,1,.56-3.89,1.68,1.68,0,0,0-.7-.21c-1.09,0-2.17.84-3.43,2.63a42.92,42.92,0,0,0-3.29,5.28l1.12-5.32a6.38,6.38,0,0,0,.21-1.47c0-.7-.28-1.12-.81-1.12-.73,0-2.06.74-4.65,2.59l-1,.7.24.7,1.12-.73c1-.63,1.37-.81,1.68-.81s.6.32.6.77c0,2-1.51,9.24-2.91,13.72l.35.25c.53-.18,1.09-.28,1.89-.46l.46-.07.91-4.2a15.31,15.31,0,0,1,3-6.75c1.19-1.54,2.14-2.28,2.91-2.28a1.46,1.46,0,0,1,1.26.67Z" transform="translate(0.25 0.25)"/>
      <path class="cls-14" d="M407.43,677.81l-.67.91c1.93,2.24,5.43,6.09,5.43,15.19,0,9.66-3.64,13.9-5.43,16.1l.67.74A21.52,21.52,0,0,0,415.2,694C415.2,684.25,409.42,679.6,407.43,677.81Z" transform="translate(0.25 0.25)"/>
    </g>
    <path class="cls-13" d="M332,675.65V672.7h-27v2.95Zm0,10.65v-2.95h-27v2.95Z" transform="translate(0.25 0.25)"/>
    <path class="cls-13" d="M361.3,676.3h5.85l6.6.2.95-2.25-.2-.35c-4.05.2-7.05.3-10.95.3H361.7l2.35-13.5c1.6-.05,5.75-.2,6.85-.2,3.1,0,5.15.45,5.2,1.2l.4,4.45h1.2a33.79,33.79,0,0,1,1.05-7.6c-1.05-.1-2.55-.15-3.45-.15-.15,0-.7,0-1.9.05l-6,0c-.45,0-9.15,0-9.65,0l-2.25-.05-.15,1.4,2.7.1c1.2.05,1.75.45,1.75,1.35a30.86,30.86,0,0,1-.45,3.8L355,690.25c-.2.9-.8,1.25-3,1.6l-.25,1.3,2.05,0c1.55-.05,4.65-.1,5.65-.1l11.25.15c.7,0,1.95,0,3.6-.1l1.65,0,.2-1.8c.1-1,.35-2.5.8-5l.25-1.3h-1.35l-.8,3c-.5,1.8-.95,2.4-2.05,2.65a57.86,57.86,0,0,1-7.35.45,67.13,67.13,0,0,1-6.85-.35Z" transform="translate(0.25 0.25)"/>
    <g>
      <path class="cls-13" d="M452.89,670.08l-.35-.45-3.4.85-.5,2.55a27.45,27.45,0,0,1-3.55,9.65c-2.95,4.55-6.85,8.1-8.85,8.1-.4,0-.65-.45-.65-1.3a12.83,12.83,0,0,1,.35-2.6l2.85-13.55a11.85,11.85,0,0,0,.25-2.15c0-.95-.45-1.55-1.15-1.55-1,0-2.9,1-6.6,3.7l-1.4,1,.35,1,1.6-1.05c1.4-.9,2-1.15,2.4-1.15a1,1,0,0,1,.85,1,5.51,5.51,0,0,1-.1.9l-3.15,14.85a15.28,15.28,0,0,0-.2,2.35,1.88,1.88,0,0,0,1.75,2c3.15,0,9.2-5.6,13.4-12.5l-1.85,7.1a13.63,13.63,0,0,0-.55,3.3c0,1.25.55,2,1.5,2,1.3,0,3.1-1,8-4.7l-.5-.9-1.3.85a7.67,7.67,0,0,1-3,1.35c-.4,0-.65-.35-.65-.85C448.39,688.13,452.14,672.93,452.89,670.08Z" transform="translate(0.25 0.25)"/>
      <polyline class="cls-15" points="428.54 661.2 442.42 651.95 456.29 661.2"/>
    </g>
    <path class="cls-14" d="M469.21,694.37a33.14,33.14,0,0,1,.56-3.89,1.48,1.48,0,0,0-.7-.21c-1.08,0-2.17.84-3.43,2.62a45,45,0,0,0-3.29,5.29l1.12-5.32a6.45,6.45,0,0,0,.21-1.47c0-.7-.28-1.12-.8-1.12-.74,0-2.07.73-4.66,2.59l-1,.7.25.7,1.12-.73c1-.64,1.36-.81,1.68-.81s.59.31.59.77c0,2-1.5,9.24-2.9,13.72l.35.25a18.19,18.19,0,0,1,1.89-.46l.45-.07.91-4.2a15.32,15.32,0,0,1,3-6.75c1.19-1.54,2.13-2.28,2.9-2.28a1.44,1.44,0,0,1,1.26.67Z" transform="translate(0.25 0.25)"/>
  </g>
</svg>
