<svg id="Livello_1" data-name="Livello 1" xmlns="http://www.w3.org/2000/svg" viewBox="0 0 841.89 595.28"><defs><style>.cls-1{fill:#374458;}.cls-2,.cls-3{fill:#fff;}.cls-2,.cls-4{opacity:0.2;}.cls-4,.cls-5{fill:#f9b233;}</style></defs><rect class="cls-1" width="841.89" height="595.28"/><circle class="cls-2" cx="132" cy="124.39" r="27.61"/><circle class="cls-2" cx="633.64" cy="258.38" r="27.61"/><circle class="cls-3" cx="335.52" cy="353.44" r="19.52"/><circle class="cls-3" cx="633.64" cy="258.38" r="11.86"/><circle class="cls-3" cx="525.93" cy="365.38" r="8.39"/><circle class="cls-3" cx="570.49" cy="82.14" r="8.39"/><circle class="cls-3" cx="416.55" cy="468.58" r="8.39"/><circle class="cls-3" cx="757.7" cy="149.38" r="8.39"/><circle class="cls-3" cx="237.54" cy="237.95" r="8.39"/><circle class="cls-3" cx="211.48" cy="54.66" r="8.39"/><circle class="cls-3" cx="100.75" cy="270.51" r="18.25"/><circle class="cls-3" cx="132" cy="124.39" r="18.25"/><circle class="cls-3" cx="389.91" cy="67.91" r="18.25"/><circle class="cls-4" cx="450.53" cy="163.12" r="24.21"/><circle class="cls-4" cx="633.64" cy="517.78" r="24.21"/><circle class="cls-5" cx="118.85" cy="412.11" r="13.81"/><circle class="cls-5" cx="289.25" cy="110.58" r="13.81"/><circle class="cls-5" cx="633.64" cy="517.78" r="13.81"/><circle class="cls-5" cx="450.53" cy="163.12" r="13.81"/><circle class="cls-5" cx="806.71" cy="324.63" r="7.26"/><circle class="cls-5" cx="211.48" cy="530.23" r="7.26"/></svg>