<svg xmlns="http://www.w3.org/2000/svg" xmlns:xlink="http://www.w3.org/1999/xlink" viewBox="0 0 841.89 514.28"><defs><style>.cls-1,.cls-11,.cls-12,.cls-14,.cls-15,.cls-16,.cls-18,.cls-21,.cls-9{fill:none;}.cls-2{fill:#374458;}.cls-3,.cls-4{fill:#fff;}.cls-3,.cls-6{opacity:0.2;}.cls-5,.cls-6{fill:#f9b233;}.cls-7{clip-path:url(#clip-path);}.cls-8{fill:#d97161;}.cls-9{stroke:#d97161;}.cls-11,.cls-12,.cls-14,.cls-15,.cls-16,.cls-18,.cls-21,.cls-9{stroke-miterlimit:10;stroke-width:1.08px;}.cls-10{fill:#1a2051;}.cls-11{stroke:#1a2051;}.cls-12{stroke:#fff;}.cls-13{fill:#936037;}.cls-14{stroke:#936037;}.cls-15{stroke:#5c3725;}.cls-16{stroke:#683c11;}.cls-17{fill:#5c3725;}.cls-18{stroke:#1d1d1b;}.cls-19{fill:#1d1d1b;}.cls-20{fill:#941710;}.cls-21{stroke:#6e3b29;}.cls-22{fill:#6e3b29;}</style><clipPath id="clip-path" transform="translate(0 -83.7)"><rect class="cls-1" x="583.61" y="327" width="215.28" height="304.47"/></clipPath></defs><g id="Livello_1" data-name="Livello 1"><path class="cls-2" d="M841.89,598H0V308.51S178.16,335.4,370,195.3C458.69,130.5,539.22,83.67,650.69,83.7c50.64,0,120.64,5.12,191.2,48.67" transform="translate(0 -83.7)"/><circle class="cls-3" cx="521.2" cy="182.48" r="27.61"/><circle class="cls-3" cx="236.74" cy="312.83" r="27.61"/><circle class="cls-4" cx="521.2" cy="182.48" r="19.52"/><circle class="cls-4" cx="236.74" cy="312.83" r="11.86"/><circle class="cls-4" cx="330.74" cy="193.62" r="8.39"/><circle class="cls-4" cx="126.74" cy="436.02" r="8.39"/><circle class="cls-4" cx="632.4" cy="285.31" r="8.39"/><circle class="cls-4" cx="764.27" cy="236.47" r="18.25"/><circle class="cls-4" cx="501.68" cy="472.5" r="18.25"/><circle class="cls-5" cx="509.42" cy="319.25" r="13.81"/><circle class="cls-5" cx="729.2" cy="98.1" r="13.81"/><circle class="cls-5" cx="56.93" cy="267.96" r="7.26"/><circle class="cls-6" cx="509.42" cy="319.25" r="28.47"/></g><g id="Livello_2" data-name="Livello 2"><g class="cls-7"><polyline class="cls-8" points="761.32 413.51 757.33 421.86 743.96 423.58 745.63 433.82 762.44 431.12 767.56 419.81"/><polyline class="cls-9" points="761.32 413.51 757.33 421.86 743.96 423.58 745.63 433.82 762.44 431.12 767.56 419.81"/><g class="cls-7"><path class="cls-8" d="M761.32,497.21a12.51,12.51,0,0,1-1.13-5.24c.22-5.43,4.86-12.73,12.73-12.73a12.73,12.73,0,1,1,0,25.46c-2.56,0-5.36-1.36-5.36-1.18" transform="translate(0 -83.7)"/><path class="cls-9" d="M761.32,497.21a12.51,12.51,0,0,1-1.13-5.24c.22-5.43,4.86-12.73,12.73-12.73a12.73,12.73,0,1,1,0,25.46c-2.56,0-5.36-1.36-5.36-1.18" transform="translate(0 -83.7)"/><path class="cls-8" d="M650.9,507a9.57,9.57,0,1,1-9.57-9.57A9.56,9.56,0,0,1,650.9,507" transform="translate(0 -83.7)"/><path class="cls-9" d="M650.9,507a9.57,9.57,0,1,1-9.57-9.57A9.56,9.56,0,0,1,650.9,507Z" transform="translate(0 -83.7)"/><polygon class="cls-8" points="661.27 415.01 648.54 417.56 649.99 424.8 662.04 421.95 661.27 415.01"/><polyline class="cls-9" points="661.27 415.01 648.54 417.56 649.99 424.8 662.04 421.95 661.27 415.01"/></g><g class="cls-7"><path class="cls-10" d="M687.62,489.84s-5.9,3.47-26.35,8.87a39.88,39.88,0,0,1,0,11.38h14.1S670,518.2,663.59,523l40.82,29.74s14.15-16.24,19-28.68c0,0,5.59,1.44,22.57-1.06,0,0-.47-15.82-3-17.36a75.09,75.09,0,0,1-17.42-4.34l-5.11,5.21-12,1.83-.87-.77s-18.71,10-19.48-5.4l-1.93,4.72-2.31-6.46.58-4.53Z" transform="translate(0 -83.7)"/><path class="cls-11" d="M687.62,489.84s-5.9,3.47-26.35,8.87a39.88,39.88,0,0,1,0,11.38h14.1S670,518.2,663.59,523l40.82,29.74s14.15-16.24,19-28.68c0,0,5.59,1.44,22.57-1.06,0,0-.47-15.82-3-17.36a75.09,75.09,0,0,1-17.42-4.34l-5.11,5.21-12,1.83-.87-.77s-18.71,10-19.48-5.4l-1.93,4.72-2.31-6.46.58-4.53Z" transform="translate(0 -83.7)"/></g><polygon class="cls-4" points="665.8 386.94 662.04 392.92 658.28 386.94 652.98 394.76 648.54 387.33 641.79 394.76 637.84 389.64 637.84 384.24 633.69 390.61 632.44 381.64 634.27 367.08 639.28 350.2 640.15 347.89 635.91 349.52 639.67 334.96 644.11 325.14 648.16 317.8 641.98 322.81 644.49 313.94 649.12 304.29 654.71 295.23 662.62 285.97 669.86 282.88 661.84 282.39 673.42 276.62 689.12 271.5 705.83 271.5 715.66 275.94 728.2 272.28 740.21 275.41 747.3 281.2 759.61 287.99 751.34 288.43 765.62 298.22 760.84 300.24 772.92 311.05 766.2 314.13 769.87 322.43 776.81 341.33 771.02 340.56 774.3 346.15 780.47 362.45 780.47 373.15 777.39 370.79 777.39 377.58 773.91 384.92 771.22 390.9 765.04 382.8 760.84 391.48 752.49 382.22 747.7 387.43 747.7 392.25 738.44 388.54 665.8 386.94"/><polygon class="cls-12" points="665.8 386.94 662.04 392.92 658.28 386.94 652.98 394.76 648.54 387.33 641.79 394.76 637.84 389.64 637.84 384.24 633.69 390.61 632.44 381.64 634.27 367.08 639.28 350.2 640.15 347.89 635.91 349.52 639.67 334.96 644.11 325.14 648.16 317.8 641.98 322.81 644.49 313.94 649.12 304.29 654.71 295.23 662.62 285.97 669.86 282.88 661.84 282.39 673.42 276.62 689.12 271.5 705.83 271.5 715.66 275.94 728.2 272.28 740.21 275.41 747.3 281.2 759.61 287.99 751.34 288.43 765.62 298.22 760.84 300.24 772.92 311.05 766.2 314.13 769.87 322.43 776.81 341.33 771.02 340.56 774.3 346.15 780.47 362.45 780.47 373.15 777.39 370.79 777.39 377.58 773.91 384.92 771.22 390.9 765.04 382.8 760.84 391.48 752.49 382.22 747.7 387.43 747.7 392.25 738.44 388.54 665.8 386.94"/><g class="cls-7"><path class="cls-13" d="M660.79,567.19l-2.24-.68a6.35,6.35,0,0,0-3.81,0l-3.55,1.13a4.62,4.62,0,0,1-3.07-.09,20.27,20.27,0,0,0-12.41-.51c-6.34,1.7-1.6,12.21.64,16.51a8.88,8.88,0,0,0,2.76,3.17,40.58,40.58,0,0,0,10.4,5.22c7.33,2.41,20.06-2.6,20.06-2.6s6.17-3.86,3-8a16.58,16.58,0,0,0-2.89-3.08A7.44,7.44,0,0,1,667.2,575l-2.26-6.14Z" transform="translate(0 -83.7)"/><path class="cls-14" d="M660.79,567.19l-2.24-.68a6.35,6.35,0,0,0-3.81,0l-3.55,1.13a4.62,4.62,0,0,1-3.07-.09,20.27,20.27,0,0,0-12.41-.51c-6.34,1.7-1.6,12.21.64,16.51a8.88,8.88,0,0,0,2.76,3.17,40.58,40.58,0,0,0,10.4,5.22c7.33,2.41,20.06-2.6,20.06-2.6s6.17-3.86,3-8a16.58,16.58,0,0,0-2.89-3.08A7.44,7.44,0,0,1,667.2,575l-2.26-6.14Z" transform="translate(0 -83.7)"/><polyline class="cls-15" points="642.85 489 647.38 489.56 653 494.48 655.68 500.26"/><path class="cls-13" d="M636,539.47l-5.72-10.27s-1.61-3.13-10-6.8c-6.1-2.66-10.44,4.88-12.38,9.24a10.78,10.78,0,0,0-.84,5.8c.55,4.24,2.16,12.27,6.7,18.64,5.58,7.84,19.25,1.64,22.93-.22a4.24,4.24,0,0,0,1.51-1.28l1.2-1.62a4.7,4.7,0,0,0,.52-4.71Z" transform="translate(0 -83.7)"/><path class="cls-14" d="M636,539.47l-5.72-10.27s-1.61-3.13-10-6.8c-6.1-2.66-10.44,4.88-12.38,9.24a10.78,10.78,0,0,0-.84,5.8c.55,4.24,2.16,12.27,6.7,18.64,5.58,7.84,19.25,1.64,22.93-.22a4.24,4.24,0,0,0,1.51-1.28l1.2-1.62a4.7,4.7,0,0,0,.52-4.71Z" transform="translate(0 -83.7)"/><polyline class="cls-16" points="615.8 463.05 613.78 457.31 614.79 449.73 617.54 444.71 622.12 441.92 625.97 441.58"/></g><g class="cls-7"><path class="cls-8" d="M701.22,501.25l17.15-9.19-.49-5.21a29.47,29.47,0,0,1,12-5.73,10.81,10.81,0,0,0,7.68-6.18,16.42,16.42,0,0,0,1.19-4.31,23,23,0,0,1,3.44-9.57,13.42,13.42,0,0,1,3.77-4s2.79-.53,9.83-3.47c0,0,12.35-13.6-1.54-19,0,0-3.08-2.41-9.74,3.28l-1.93-.87s4.15-21.5-1.35-29.41-6.65-13-24.2-10.71c0,0-3.48,2.9-17.94,4.82,0,0-5,.39-13.7-4.24s-17.36,2.7-17.36,2.7-3.86,4.05-6,15.43,0,15.05,0,15.05A30.28,30.28,0,0,1,664,445.3s.77,14.36,1.16,27.18S682,486.37,682,486.37l13.11,1.35s4-1.64,4,6.27-1,4.15-1,4.15Z" transform="translate(0 -83.7)"/><path class="cls-9" d="M701.22,501.25l17.15-9.19-.49-5.21a29.47,29.47,0,0,1,12-5.73,10.81,10.81,0,0,0,7.68-6.18,16.42,16.42,0,0,0,1.19-4.31,23,23,0,0,1,3.44-9.57,13.42,13.42,0,0,1,3.77-4s2.79-.53,9.83-3.47c0,0,12.35-13.6-1.54-19,0,0-3.08-2.41-9.74,3.28l-1.93-.87s4.15-21.5-1.35-29.41-6.65-13-24.2-10.71c0,0-3.48,2.9-17.94,4.82,0,0-5,.39-13.7-4.24s-17.36,2.7-17.36,2.7-3.86,4.05-6,15.43,0,15.05,0,15.05A30.28,30.28,0,0,1,664,445.3s.77,14.36,1.16,27.18S682,486.37,682,486.37l13.11,1.35s4-1.64,4,6.27-1,4.15-1,4.15Z" transform="translate(0 -83.7)"/><path class="cls-8" d="M663,563.69l-5.63,5.4s-.7,3,3.95,3.62l6.9-5.28Z" transform="translate(0 -83.7)"/><path class="cls-9" d="M663,563.69l-5.63,5.4s-.7,3,3.95,3.62l6.9-5.28Z" transform="translate(0 -83.7)"/><path class="cls-8" d="M638.42,537.58l-6.22,3.24s-1.54,2.54,2,4.39l7.19-2.78Z" transform="translate(0 -83.7)"/><path class="cls-9" d="M638.42,537.58l-6.22,3.24s-1.54,2.54,2,4.39l7.19-2.78Z" transform="translate(0 -83.7)"/></g><g class="cls-7"><path class="cls-17" d="M663.12,524.08l41.29,28.68-24.74,22.53s-12.92-4.41-18.44-14.18l7.88-11.43s-3.94,1.34-6.77-5.91c0,0-7.1,5.83-20.65,3,0,0-6.14-2.52-2.2-16.7,0,0,6.93-1.84,23.63-6" transform="translate(0 -83.7)"/><path class="cls-15" d="M663.12,524.08l41.29,28.68-24.74,22.53s-12.92-4.41-18.44-14.18l7.88-11.43s-3.94,1.34-6.77-5.91c0,0-7.1,5.83-20.65,3,0,0-6.14-2.52-2.2-16.7C639.49,530.07,646.42,528.23,663.12,524.08Z" transform="translate(0 -83.7)"/></g><g class="cls-7"><path class="cls-4" d="M688.56,500.45l6.37-11.95c5.42-.64,3.18,9.64,3.18,9.64l3.11,3.11,17.15-9.19,7.13,9.26-5.11,5.21-11.64,2-1.19-.91c-22.08,9.81-19-7.14-19-7.14l-2.31,6.92L684,500.84l.39-4.57,5.19-7.77h5.37" transform="translate(0 -83.7)"/><path class="cls-18" d="M688.56,500.45l6.37-11.95c5.42-.64,3.18,9.64,3.18,9.64l3.11,3.11,17.15-9.19,7.13,9.26-5.11,5.21-11.64,2-1.19-.91c-22.08,9.81-19-7.14-19-7.14l-2.31,6.92L684,500.84l.39-4.57,5.19-7.77h5.37" transform="translate(0 -83.7)"/><line class="cls-4" x1="707.56" y1="423.88" x2="705.95" y2="415.01"/><line class="cls-18" x1="707.56" y1="423.88" x2="705.95" y2="415.01"/><polyline class="cls-4" points="701.22 417.54 695.33 425.03 698.11 414.43"/><polyline class="cls-18" points="701.22 417.54 695.33 425.03 698.11 414.43"/></g><g class="cls-7"><path class="cls-19" d="M685.29,434.63c0,2.64-1.15,4.77-2.56,4.77s-2.56-2.13-2.56-4.77,1.15-4.78,2.56-4.78,2.56,2.14,2.56,4.78" transform="translate(0 -83.7)"/><path class="cls-18" d="M685.29,434.63c0,2.64-1.15,4.77-2.56,4.77s-2.56-2.13-2.56-4.77,1.15-4.78,2.56-4.78S685.29,432,685.29,434.63Z" transform="translate(0 -83.7)"/><path class="cls-19" d="M715.66,434.63c0,2.64-1.14,4.77-2.55,4.77s-2.56-2.13-2.56-4.77,1.15-4.78,2.56-4.78,2.55,2.14,2.55,4.78" transform="translate(0 -83.7)"/><path class="cls-18" d="M715.66,434.63c0,2.64-1.14,4.77-2.55,4.77s-2.56-2.13-2.56-4.77,1.15-4.78,2.56-4.78S715.66,432,715.66,434.63Z" transform="translate(0 -83.7)"/></g><g class="cls-7"><path class="cls-19" d="M683.5,470.65s8.68,22.93,25.25,0c0,0-14-3.47-25.25,0" transform="translate(0 -83.7)"/><path class="cls-18" d="M683.5,470.65s8.68,22.93,25.25,0C708.75,470.65,694.71,467.18,683.5,470.65Z" transform="translate(0 -83.7)"/></g><g class="cls-7"><path class="cls-20" d="M698.45,473.4c-4.71-2.85-8.08,2-9.18,3.93a1.13,1.13,0,0,0,.22,1.39c2,1.82,8.47,6.19,17.45-5.79,0,0-5.41-1.43-8.49.47a4.29,4.29,0,0,0-2,3.4" transform="translate(0 -83.7)"/><path class="cls-18" d="M698.45,473.4c-4.71-2.85-8.08,2-9.18,3.93a1.13,1.13,0,0,0,.22,1.39c2,1.82,8.47,6.19,17.45-5.79,0,0-5.41-1.43-8.49.47a4.29,4.29,0,0,0-2,3.4" transform="translate(0 -83.7)"/></g><g class="cls-7"><path class="cls-4" d="M731.48,415c-4.93-8.09-22.57-5.88-22.57-5.88v8.1s15.53-1.25,22.57,5.88a7.43,7.43,0,0,0,0-8.1" transform="translate(0 -83.7)"/><path class="cls-12" d="M731.48,415c-4.93-8.09-22.57-5.88-22.57-5.88v8.1s15.53-1.25,22.57,5.88A7.43,7.43,0,0,0,731.48,415Z" transform="translate(0 -83.7)"/><path class="cls-4" d="M670.85,415c4.1-8.09,18.78-5.88,18.78-5.88v8.1s-12.92-1.25-18.78,5.88a8.69,8.69,0,0,1,0-8.1" transform="translate(0 -83.7)"/><path class="cls-12" d="M670.85,415c4.1-8.09,18.78-5.88,18.78-5.88v8.1s-12.92-1.25-18.78,5.88A8.69,8.69,0,0,1,670.85,415Z" transform="translate(0 -83.7)"/><path class="cls-4" d="M677.79,471.81c-1.45-7.49,9.71-14.4,9.71-14.4s4.13,8.69,12.82,1.59l.58-1.15s2.66,3.15,6.18.13c0,0,12.15,9.7,7.23,13.83,0,0-18-6.59-36.52,0" transform="translate(0 -83.7)"/><path class="cls-12" d="M677.79,471.81c-1.45-7.49,9.71-14.4,9.71-14.4s4.13,8.69,12.82,1.59l.58-1.15s2.66,3.15,6.18.13c0,0,12.15,9.7,7.23,13.83,0,0-18-6.59-36.52,0" transform="translate(0 -83.7)"/></g><g class="cls-7"><path class="cls-21" d="M691.25,429.37s2.43,4.44.4,15.24" transform="translate(0 -83.7)"/><path class="cls-21" d="M702,429.37s-2,8.39.77,16" transform="translate(0 -83.7)"/><path class="cls-21" d="M675.37,445.3s5.3,3.85,12.25,0" transform="translate(0 -83.7)"/><path class="cls-21" d="M707.91,446.16s5.3,3.84,12.24,0" transform="translate(0 -83.7)"/><path class="cls-21" d="M701.91,454.87c-.49,2.81-3.3,6.42-7.47,6.41a7.74,7.74,0,0,1-7.57-7.56c0-4.08,4-5.87,4.24-6" transform="translate(0 -83.7)"/><path class="cls-21" d="M705.26,452.1a3.94,3.94,0,0,1,3,3.18c.16,2-1.85,3.73-3.82,3.93a4.7,4.7,0,0,1-3.73-1.57" transform="translate(0 -83.7)"/><path class="cls-22" d="M748.17,451.49c2.71-7.66-1.47-10.24-1.47-10.24a9.35,9.35,0,0,1,1.57-.1,17.24,17.24,0,0,1,3.28.3c2,.4,3.78,1.3,4.31,2.61s-.44,2.39-1.71,3.67c-1,1-6.56,4.28-6,3.76" transform="translate(0 -83.7)"/><path class="cls-21" d="M748.17,451.49c2.71-7.66-1.47-10.24-1.47-10.24a9.35,9.35,0,0,1,1.57-.1,17.24,17.24,0,0,1,3.28.3c2,.4,3.78,1.3,4.31,2.61s-.44,2.39-1.71,3.67c-1,1-6.56,4.28-6,3.76" transform="translate(0 -83.7)"/></g></g></g></svg>