<?xml version="1.0" encoding="utf-8"?>
<!-- Generator: Adobe Illustrator 26.0.1, SVG Export Plug-In . SVG Version: 6.00 Build 0)  -->
<svg version="1.1" xmlns="http://www.w3.org/2000/svg" xmlns:xlink="http://www.w3.org/1999/xlink" x="0px" y="0px"
	 viewBox="0 0 841.89 595.28" style="enable-background:new 0 0 841.89 595.28;" xml:space="preserve">
<style type="text/css">
	.st0{fill:#546885;}
	.st1{opacity:0.2;fill:#FFFFFF;}
	.st2{fill:#FFFFFF;}
	.st3{opacity:0.2;fill:#F9B233;}
	.st4{fill:#F9B233;}
	.st5{clip-path:url(#SVGID_00000170255408165285673970000003570509139967661739_);}
	.st6{clip-path:url(#SVGID_00000116916324179496815550000014120712766693162924_);fill:#FFFFFF;}
	
		.st7{clip-path:url(#SVGID_00000116916324179496815550000014120712766693162924_);fill:none;stroke:#FFFFFF;stroke-width:0.4146;stroke-miterlimit:10;}
	
		.st8{clip-path:url(#SVGID_00000116916324179496815550000014120712766693162924_);fill:none;stroke:#000000;stroke-width:0.8292;stroke-miterlimit:10;}
	.st9{fill:#E94E1B;stroke:#E94E1B;stroke-miterlimit:10;}
	.st10{fill:#F39200;stroke:#F39200;stroke-miterlimit:10;}
	.st11{fill:#FFFFFF;stroke:#FFFFFF;stroke-miterlimit:10;}
	.st12{fill:#C40D0E;stroke:#C40D0E;stroke-miterlimit:10;}
	.st13{fill:#FFFFFF;stroke:#000000;stroke-miterlimit:10;}
	.st14{fill:#29235C;stroke:#29235C;stroke-miterlimit:10;}
</style>
<g id="Livello_1">
	<rect class="st0" width="841.89" height="595.28"/>
	<circle class="st1" cx="132" cy="124.39" r="27.61"/>
	<circle class="st1" cx="633.64" cy="258.38" r="27.61"/>
	<circle class="st2" cx="335.52" cy="353.44" r="19.52"/>
	<circle class="st2" cx="633.64" cy="258.38" r="11.86"/>
	<circle class="st2" cx="525.93" cy="365.38" r="8.39"/>
	<circle class="st2" cx="570.49" cy="82.14" r="8.39"/>
	<circle class="st2" cx="416.55" cy="468.58" r="8.39"/>
	<circle class="st2" cx="757.7" cy="149.38" r="8.39"/>
	<circle class="st2" cx="237.54" cy="237.95" r="8.39"/>
	<circle class="st2" cx="211.48" cy="54.66" r="8.39"/>
	<circle class="st2" cx="100.75" cy="270.51" r="18.25"/>
	<circle class="st2" cx="132" cy="124.39" r="18.25"/>
	<circle class="st2" cx="389.91" cy="67.91" r="18.25"/>
	<circle class="st3" cx="450.53" cy="163.12" r="24.21"/>
	<circle class="st3" cx="633.64" cy="517.78" r="24.21"/>
	<circle class="st4" cx="118.85" cy="412.11" r="13.81"/>
	<circle class="st4" cx="289.25" cy="110.58" r="13.81"/>
	<circle class="st4" cx="633.64" cy="517.78" r="13.81"/>
	<circle class="st4" cx="450.53" cy="163.12" r="13.81"/>
	<circle class="st4" cx="806.71" cy="324.63" r="7.26"/>
	<circle class="st4" cx="211.48" cy="530.23" r="7.26"/>
	<g>
		<g>
			<defs>
				<rect id="SVGID_1_" x="483.32" y="-37.23" width="349.04" height="246.8"/>
			</defs>
			<clipPath id="SVGID_00000068675978026456657580000018104814139494916994_">
				<use xlink:href="#SVGID_1_"  style="overflow:visible;"/>
			</clipPath>
			<g style="clip-path:url(#SVGID_00000068675978026456657580000018104814139494916994_);">
				<defs>
					<rect id="SVGID_00000003794487574316463270000002283781354404088738_" x="483.32" y="-37.23" width="349.04" height="246.8"/>
				</defs>
				<clipPath id="SVGID_00000170991275891736797790000000549113411436110242_">
					<use xlink:href="#SVGID_00000003794487574316463270000002283781354404088738_"  style="overflow:visible;"/>
				</clipPath>
			</g>
			<g style="clip-path:url(#SVGID_00000068675978026456657580000018104814139494916994_);">
				<defs>
					<rect id="SVGID_00000042696248910537782280000013819279628281192617_" x="483.32" y="-37.23" width="349.04" height="246.8"/>
				</defs>
				<clipPath id="SVGID_00000131329765147061025740000017282543713052187531_">
					<use xlink:href="#SVGID_00000042696248910537782280000013819279628281192617_"  style="overflow:visible;"/>
				</clipPath>
				<path style="clip-path:url(#SVGID_00000131329765147061025740000017282543713052187531_);fill:#FFFFFF;" d="M738.58,84.42
					c0,37.8-30.65,68.45-68.45,68.45c-37.8,0-68.45-30.65-68.45-68.45s30.65-68.45,68.45-68.45
					C707.93,15.97,738.58,46.62,738.58,84.42"/>
				
					<circle style="clip-path:url(#SVGID_00000131329765147061025740000017282543713052187531_);fill:none;stroke:#FFFFFF;stroke-width:0.4146;stroke-miterlimit:10;" cx="670.12" cy="84.42" r="68.45"/>
				<path style="clip-path:url(#SVGID_00000131329765147061025740000017282543713052187531_);fill:#FFFFFF;" d="M663.29,40.86
					c0,4.88-3.96,8.84-8.84,8.84c-4.88,0-8.84-3.96-8.84-8.84c0-4.88,3.96-8.84,8.84-8.84C659.33,32.01,663.29,35.97,663.29,40.86"
					/>
				
					<path style="clip-path:url(#SVGID_00000131329765147061025740000017282543713052187531_);fill:none;stroke:#000000;stroke-width:0.8292;stroke-miterlimit:10;" d="
					M663.29,40.86c0,4.88-3.96,8.84-8.84,8.84c-4.88,0-8.84-3.96-8.84-8.84c0-4.88,3.96-8.84,8.84-8.84
					C659.33,32.01,663.29,35.97,663.29,40.86z"/>
				<path style="clip-path:url(#SVGID_00000131329765147061025740000017282543713052187531_);fill:#FFFFFF;" d="M701.52,64.73
					c4.52-1.85,9.69,0.32,11.53,4.85c1.85,4.52-0.32,9.69-4.85,11.53c-4.52,1.85-9.69-0.32-11.53-4.85
					C694.83,71.74,697,66.58,701.52,64.73"/>
				
					<ellipse transform="matrix(0.1323 -0.9912 0.9912 0.1323 539.3323 761.9379)" style="clip-path:url(#SVGID_00000131329765147061025740000017282543713052187531_);fill:none;stroke:#000000;stroke-width:0.8292;stroke-miterlimit:10;" cx="704.86" cy="72.92" rx="8.84" ry="8.84"/>
				<path style="clip-path:url(#SVGID_00000131329765147061025740000017282543713052187531_);fill:#FFFFFF;" d="M632.77,118.27
					c2.59-1.06,5.56,0.19,6.62,2.78c1.06,2.59-0.19,5.56-2.78,6.62c-2.59,1.06-5.56-0.19-6.62-2.78
					C628.93,122.29,630.18,119.33,632.77,118.27"/>
				
					<path style="clip-path:url(#SVGID_00000131329765147061025740000017282543713052187531_);fill:none;stroke:#000000;stroke-width:0.8292;stroke-miterlimit:10;" d="
					M632.77,118.27c2.59-1.06,5.56,0.19,6.62,2.78c1.06,2.59-0.19,5.56-2.78,6.62c-2.59,1.06-5.56-0.19-6.62-2.78
					C628.93,122.29,630.18,119.33,632.77,118.27z"/>
				<path style="clip-path:url(#SVGID_00000131329765147061025740000017282543713052187531_);fill:#FFFFFF;" d="M673.97,84.61
					c1.3-0.53,2.78,0.09,3.31,1.39c0.53,1.3-0.09,2.78-1.39,3.31c-1.3,0.53-2.78-0.09-3.31-1.39
					C672.05,86.62,672.67,85.14,673.97,84.61"/>
				
					<path style="clip-path:url(#SVGID_00000131329765147061025740000017282543713052187531_);fill:none;stroke:#000000;stroke-width:0.8292;stroke-miterlimit:10;" d="
					M673.97,84.61c1.3-0.53,2.78,0.09,3.31,1.39c0.53,1.3-0.09,2.78-1.39,3.31c-1.3,0.53-2.78-0.09-3.31-1.39
					C672.05,86.62,672.67,85.14,673.97,84.61z"/>
				<path style="clip-path:url(#SVGID_00000131329765147061025740000017282543713052187531_);fill:#FFFFFF;" d="M621.85,63.98
					c1.3-0.53,2.78,0.09,3.31,1.39s-0.09,2.78-1.39,3.31c-1.3,0.53-2.78-0.09-3.31-1.39C619.93,65.99,620.55,64.51,621.85,63.98"/>
				
					<path style="clip-path:url(#SVGID_00000131329765147061025740000017282543713052187531_);fill:none;stroke:#000000;stroke-width:0.8292;stroke-miterlimit:10;" d="
					M621.85,63.98c1.3-0.53,2.78,0.09,3.31,1.39s-0.09,2.78-1.39,3.31c-1.3,0.53-2.78-0.09-3.31-1.39
					C619.93,65.99,620.55,64.51,621.85,63.98z"/>
				<path style="clip-path:url(#SVGID_00000131329765147061025740000017282543713052187531_);fill:#FFFFFF;" d="M700.13,131.2
					c1.3-0.53,2.78,0.09,3.31,1.39c0.53,1.3-0.09,2.78-1.39,3.31c-1.3,0.53-2.78-0.09-3.31-1.39
					C698.21,133.21,698.83,131.73,700.13,131.2"/>
				
					<path style="clip-path:url(#SVGID_00000131329765147061025740000017282543713052187531_);fill:none;stroke:#000000;stroke-width:0.8292;stroke-miterlimit:10;" d="
					M700.13,131.2c1.3-0.53,2.78,0.09,3.31,1.39c0.53,1.3-0.09,2.78-1.39,3.31c-1.3,0.53-2.78-0.09-3.31-1.39
					C698.21,133.21,698.83,131.73,700.13,131.2z"/>
				<path style="clip-path:url(#SVGID_00000131329765147061025740000017282543713052187531_);fill:#FFFFFF;" d="M720.87,83.82
					c1.3-0.53,2.78,0.09,3.31,1.39c0.53,1.3-0.09,2.78-1.39,3.31c-1.3,0.53-2.78-0.09-3.31-1.39
					C718.95,85.83,719.57,84.35,720.87,83.82"/>
				
					<path style="clip-path:url(#SVGID_00000131329765147061025740000017282543713052187531_);fill:none;stroke:#000000;stroke-width:0.8292;stroke-miterlimit:10;" d="
					M720.87,83.82c1.3-0.53,2.78,0.09,3.31,1.39c0.53,1.3-0.09,2.78-1.39,3.31c-1.3,0.53-2.78-0.09-3.31-1.39
					C718.95,85.83,719.57,84.35,720.87,83.82z"/>
				<path style="clip-path:url(#SVGID_00000131329765147061025740000017282543713052187531_);fill:#FFFFFF;" d="M652.53,78.3
					c0,2.55-2.07,4.62-4.62,4.62c-2.55,0-4.62-2.07-4.62-4.62c0-2.55,2.07-4.62,4.62-4.62C650.47,73.68,652.53,75.75,652.53,78.3"/>
				
					<path style="clip-path:url(#SVGID_00000131329765147061025740000017282543713052187531_);fill:none;stroke:#000000;stroke-width:0.8292;stroke-miterlimit:10;" d="
					M652.53,78.3c0,2.55-2.07,4.62-4.62,4.62c-2.55,0-4.62-2.07-4.62-4.62c0-2.55,2.07-4.62,4.62-4.62
					C650.47,73.68,652.53,75.75,652.53,78.3z"/>
				<path style="clip-path:url(#SVGID_00000131329765147061025740000017282543713052187531_);fill:#FFFFFF;" d="M686.59,113.57
					c0,3.22-2.61,5.83-5.83,5.83c-3.22,0-5.83-2.61-5.83-5.83c0-3.22,2.61-5.83,5.83-5.83
					C683.98,107.74,686.59,110.35,686.59,113.57"/>
				
					<circle style="clip-path:url(#SVGID_00000131329765147061025740000017282543713052187531_);fill:none;stroke:#000000;stroke-width:0.8292;stroke-miterlimit:10;" cx="680.76" cy="113.57" r="5.83"/>
				<path style="clip-path:url(#SVGID_00000131329765147061025740000017282543713052187531_);fill:#FFFFFF;" d="M688.35,45.11
					c0,1.56-1.27,2.83-2.83,2.83c-1.56,0-2.83-1.27-2.83-2.83c0-1.56,1.27-2.83,2.83-2.83C687.09,42.29,688.35,43.55,688.35,45.11"
					/>
				
					<path style="clip-path:url(#SVGID_00000131329765147061025740000017282543713052187531_);fill:none;stroke:#000000;stroke-width:0.8292;stroke-miterlimit:10;" d="
					M688.35,45.11c0,1.56-1.27,2.83-2.83,2.83c-1.56,0-2.83-1.27-2.83-2.83c0-1.56,1.27-2.83,2.83-2.83
					C687.09,42.29,688.35,43.55,688.35,45.11z"/>
			</g>
		</g>
	</g>
</g>
<g id="Livello_2">
	<path class="st9" d="M88.54,432.69L107,449.75c0,0-1.62,20.21-32.95,17.13l0.07,0.06c-5.2-31.6,14.49-34.19,14.49-34.19"/>
	<path class="st10" d="M89.32,436.94l13.39,12.38c0,0-5.22,11.53-23.91,12.43l0.05,0.04c-0.57-18.7,10.51-24.81,10.51-24.81"/>
	<path class="st9" d="M68.7,392.56l18.46,17.06c0,0-1.62,20.21-32.95,17.13l0.07,0.06c-5.2-31.6,14.49-34.19,14.49-34.19"/>
	<path class="st10" d="M69.49,396.81l13.39,12.38c0,0-5.22,11.53-23.91,12.43l0.05,0.04c-0.57-18.7,10.51-24.81,10.51-24.81"/>
	<path class="st9" d="M130.08,449.29l18.46,17.06c0,0-1.62,20.21-32.95,17.13l0.07,0.06c-5.2-31.6,14.49-34.19,14.49-34.19"/>
	<path class="st10" d="M130.86,453.54l13.39,12.38c0,0-5.22,11.53-23.91,12.43l0.05,0.04c-0.57-18.7,10.51-24.81,10.51-24.81"/>
	<g>
		<path class="st11" d="M66.38,392.27c4.24,14.42,17.48,18.71,20.64,19.54c0.43,0.11,0.88,0.08,1.29-0.09
			c29.53-12.14,49.82-41.77,52.45-76.23c0.1-1.31-1.05-2.37-2.34-2.17c-34.38,5.36-62.47,28.19-72.07,58.9"/>
	</g>
	<path class="st12" d="M140.11,333.85c-2.54-2.49-21.48,4.72-21.48,4.72s1.01,16.31,18.46,17.06
		C137.08,355.64,142.79,336.19,140.11,333.85z"/>
	<g>
		<path class="st11" d="M127.75,449c4.24,14.42,17.48,18.71,20.64,19.54c0.43,0.11,0.88,0.08,1.29-0.09
			c29.53-12.14,49.82-41.77,52.45-76.23c0.1-1.31-1.05-2.37-2.34-2.17c-34.38,5.36-62.47,28.19-72.07,58.9"/>
	</g>
	<path class="st12" d="M201.48,390.58c-2.54-2.49-21.48,4.72-21.48,4.72s1.01,16.31,18.46,17.06
		C198.46,412.37,204.17,392.92,201.48,390.58z"/>
	<g>
		<path class="st13" d="M100.62,401.47c7.28,24.77,30.02,32.14,35.45,33.56c0.74,0.19,1.52,0.14,2.22-0.15
			c50.71-20.86,85.56-71.74,90.08-130.91c0.17-2.24-1.81-4.07-4.03-3.72c-59.04,9.21-107.29,48.42-123.78,101.16"/>
	</g>
	<path class="st12" d="M227.25,301.14c-4.37-4.28-36.89,8.11-36.89,8.11s1.73,28.01,31.7,29.3
		C222.05,338.56,231.85,305.16,227.25,301.14z"/>
	<circle class="st12" cx="177.02" cy="355.48" r="19.59"/>
	<circle class="st14" cx="177.02" cy="355.48" r="13.17"/>
	<g>
		<path class="st13" d="M86.33,432.25c4.24,14.42,17.48,18.71,20.64,19.54c0.43,0.11,0.88,0.08,1.29-0.09
			c29.53-12.14,49.82-41.77,52.45-76.23c0.1-1.31-1.05-2.37-2.34-2.17c-34.38,5.36-62.47,28.19-72.07,58.9"/>
	</g>
	<path class="st12" d="M160.06,373.83c-2.54-2.49-21.48,4.72-21.48,4.72s1.01,16.31,18.46,17.06
		C157.04,395.62,162.74,376.17,160.06,373.83z"/>
</g>
</svg>
