<svg id="Livello_1" data-name="Livello 1" xmlns="http://www.w3.org/2000/svg" viewBox="0 0 841.89 595.28"><defs><style>.cls-1{fill:#546885;}.cls-2,.cls-3{fill:#fff;}.cls-2,.cls-4{opacity:0.2;}.cls-4,.cls-5{fill:#f9b233;}</style></defs><rect class="cls-1" width="841.89" height="595.28" transform="translate(841.89 595.28) rotate(180)"/><circle class="cls-2" cx="709.89" cy="470.88" r="27.61"/><circle class="cls-2" cx="208.25" cy="336.89" r="27.61"/><circle class="cls-3" cx="506.37" cy="241.83" r="19.52"/><circle class="cls-3" cx="208.25" cy="336.89" r="11.86"/><circle class="cls-3" cx="315.96" cy="229.9" r="8.39"/><circle class="cls-3" cx="271.4" cy="513.13" r="8.39"/><circle class="cls-3" cx="425.34" cy="126.7" r="8.39"/><circle class="cls-3" cx="84.19" cy="445.9" r="8.39"/><circle class="cls-3" cx="604.35" cy="357.33" r="8.39"/><circle class="cls-3" cx="630.41" cy="540.61" r="8.39"/><circle class="cls-3" cx="741.14" cy="324.76" r="18.25"/><circle class="cls-3" cx="709.89" cy="470.88" r="18.25"/><circle class="cls-3" cx="451.98" cy="527.37" r="18.25"/><circle class="cls-4" cx="391.36" cy="432.15" r="24.21"/><circle class="cls-4" cx="208.25" cy="77.49" r="24.21"/><circle class="cls-5" cx="723.04" cy="183.17" r="13.81"/><circle class="cls-5" cx="552.64" cy="484.69" r="13.81"/><circle class="cls-5" cx="208.25" cy="77.49" r="13.81"/><circle class="cls-5" cx="391.36" cy="432.15" r="13.81"/><circle class="cls-5" cx="35.18" cy="270.65" r="7.26"/><circle class="cls-5" cx="630.41" cy="65.05" r="7.26"/></svg>