<svg xmlns="http://www.w3.org/2000/svg" viewBox="0 0 426.03 654.4"><defs><style>.cls-1,.cls-9{fill:#fff;}.cls-2{fill:#461d00;}.cls-3{fill:#f49d83;}.cls-4{fill:#692f03;}.cls-5{fill:#b2b2b2;}.cls-10,.cls-14,.cls-6,.cls-7{fill:none;}.cls-6{stroke:#fff;}.cls-10,.cls-12,.cls-13,.cls-14,.cls-6,.cls-7,.cls-9{stroke-miterlimit:10;}.cls-10,.cls-14,.cls-6,.cls-9{stroke-width:2px;}.cls-10,.cls-12,.cls-13,.cls-7,.cls-9{stroke:#1d1d1b;}.cls-13,.cls-7{stroke-width:3px;}.cls-13,.cls-8{fill:#1d1d1b;}.cls-11,.cls-12{fill:#664233;}.cls-14{stroke:#706f6f;}</style></defs><g id="Livello_15" data-name="Livello 15"><rect class="cls-1" width="426.03" height="654.4"/></g><g id="Livello_10" data-name="Livello 10"><path class="cls-2" d="M345.07,658c35.06-5.07,29.23-4.35,45-2S394,701.2,394,701.2H283.19V668.4l13-15.91,22.6-9h17.4l14.4,7.09,5.6,6.2Z" transform="translate(-70.17 -92.4)"/><path class="cls-2" d="M296,701.2H184.2s5.18-46.76,55.9-43.82S296,701.2,296,701.2Z" transform="translate(-70.17 -92.4)"/><path class="cls-2" d="M292.8,676.68h-76s3.52-31.79,38-29.79S292.8,676.68,292.8,676.68Z" transform="translate(-70.17 -92.4)"/></g><g id="Livello_9" data-name="Livello 9"><path class="cls-3" d="M317,633.2v14.6s11.2,11.2,19.2-1V632.4Z" transform="translate(-70.17 -92.4)"/><path class="cls-3" d="M249.72,634.27v14.6s11.2,11.2,19.2-1v-14.4Z" transform="translate(-70.17 -92.4)"/></g><g id="Livello_8" data-name="Livello 8"><path class="cls-4" d="M361.93,630.8c-2,1.84-5.51,2.74-12.53,4.53-23.8,6.09-41,.67-42.13,0a4,4,0,0,0-1.8-.6,3.82,3.82,0,0,0-1,.07c-3.73.74-40.48,13.26-50.27,6.93-11.16-7.21.34-46.92,14.67-73.6,8.86-16.51,18.66-34.13,39.46-42.13,6.72-2.58,21.22-9.28,33.6-2.93,10.79,5.52,14.28,17.85,19.2,35.2,2.61,9.2,3.34,18.31,4.8,36.53C368,620.42,366.29,626.8,361.93,630.8Z" transform="translate(-70.17 -92.4)"/></g><g id="Livello_7" data-name="Livello 7"><polygon class="cls-5" points="214.96 478.4 251.89 437.2 302.43 487 297.43 374.8 270.43 334.65 234.83 332.6 216.03 356.6 201.43 446 214.96 478.4"/></g><g id="Livello_12" data-name="Livello 12"><path class="cls-6" d="M252.33,355.4" transform="translate(-70.17 -92.4)"/><polyline class="cls-7" points="240.23 284.6 228.63 290.08 230.43 295.2"/></g><g id="Livello_4" data-name="Livello 4"><polygon class="cls-1" points="183.67 271.73 182.16 247.2 253.63 286.4 234.69 290.08 214.96 299.2 192.56 288.53 183.67 271.73"/><polygon class="cls-1" points="192.56 288.53 214.96 299.2 244.83 322.4 248.83 334.65 244.29 348.53 241.36 354.4 217.89 332 205.89 313.87 194.43 292.27 192.56 290.08 192.56 288.53"/></g><g id="Livello_5" data-name="Livello 5"><polygon class="cls-8" points="180.23 254.67 167.76 271.2 145.36 299.2 112.83 338.4 93.63 364.27 90.96 374.93 94.69 394.4 107.23 428.53 112.83 442.4 102.16 509.07 92.83 535.73 90.96 544.53 112.56 547.47 138.43 554.4 220.03 553.33 223.23 456.8 227.47 415.2 227.47 403.6 233.89 403.2 239.23 380.53 243.49 357.6 232.23 343 209.83 307.8 197.76 286.67 180.23 254.67"/><polygon class="cls-8" points="256.29 272 297.89 297.87 328.29 327.47 343.76 350.13 354.43 374.13 355.76 390.4 345.63 404 332.56 415.73 318.83 415.73 316.83 438.4 316.43 482.8 324.43 529.2 327.63 540.8 288.83 540.8 288.83 473.2 298.43 481.2 292.03 446.8 288.83 412.8 288.83 390 269.63 340.4 285.23 334.65 287.23 321.47 284.03 306.8 273.23 299.2 262.83 293.6 253.63 286.4 256.29 272"/></g><g id="Livello_6" data-name="Livello 6"><polygon class="cls-1" points="243.49 338 253.63 342.6 274.03 341.2 288.83 334.65 288.83 320.6 286.03 305.8 269.03 295.2 255.63 287.4 243.49 286 232.43 290.08 217.89 296.8 214.96 299.2 223.03 312.2 243.49 338"/><path class="cls-1" d="M415.53,411.07" transform="translate(-70.17 -92.4)"/></g><g id="Livello_13" data-name="Livello 13"><polyline class="cls-7" points="241.23 284.6 230.43 290.08 223.61 295.2"/><polyline class="cls-7" points="257.83 288.6 243.49 294.4 233.55 304.4"/><polyline class="cls-7" points="269.83 294.2 253.63 302.4 245.69 309.2"/><polyline class="cls-7" points="282.63 301.7 264.23 310 246.83 322.6"/><polyline class="cls-7" points="290.43 307.2 269.83 323.6 256.03 336.2"/><polyline class="cls-7" points="182.83 265.73 182.16 255.66 188.56 250.71 212.13 283.1 219.93 298.3 238.23 322.2 247.19 339.68 239.73 358"/></g><g id="Livello_3" data-name="Livello 3"><path class="cls-9" d="M358.2,348c3.85,1.06,11.21,3.21,13.2,8.8,2.32,6.53-4.88,11.65-2.4,18.8,2.29,6.6,10.78,9,12.8,9.6,1.8.51,9.58,2.73,15.6-1.2,6.68-4.37,7.15-13.68,7.6-22.8.78-15.65-4-29.43-5.2-32.8-1.42-3.93-3.11-7.64-4.4-14a48.66,48.66,0,0,1-1.2-15.2c.64-6.6,2.39-7.65,4-15.2,1-4.63.51-5.11,1.2-17.6,1-17.1,1.89-17.27,1.2-23.6a77.91,77.91,0,0,0-4-16.8c-2.37-7.24-4.22-10.17-5.2-11.6a36.55,36.55,0,0,0-7.2-7.6c-7.13-6.22-6.59-13-15.6-38.4-5-14-6.73-16.44-8-18-6.34-7.77-14.45-10.77-22.4-13.6-3.21-1.14-17.14-5.9-37.6-5.6-9,.13-23.2.48-40,7.2-15.46,6.19-24.87,10-30.8,19.6-3.61,5.88-6.85,15.43-15.6,20.4-1.09.62-2.79,1.47-5.6,3.2a82.73,82.73,0,0,0-12,8.8c-7.24,6.76-10.24,14.85-12,19.6-3.3,8.9-5.44,14.67-4,21.6.59,2.86,2,6.66,0,10-.37.64-1.27,2-4.8,4a39.92,39.92,0,0,1-10,4c-7.35,2.13-12.24,7.3-14.8,10-4.89,5.16-6.57,10.3-9.6,19.6-3.12,9.54-4.67,14.32-4,20.8.84,8.12,4.24,10.63,2.8,17.2-1,4.69-2.95,4.28-5.6,10.8-3.33,8.21-1,10.58-4,17.2-1.61,3.54-4.41,6.36-10,12-8.4,8.47-10.52,8.26-13.6,13.2a31.12,31.12,0,0,0-4.4,16.4c-.08,9.7,4.13,16.66,7.6,22.4,3.81,6.3,6.27,10.4,11.2,13.6,12.34,8,28.11,2.56,33.2.8,2.5-.86,18.4-6.36,22.4-15.2a12.17,12.17,0,0,1,4.8-6c2.76-1.61,4-.41,6.4-1.6s2.84-3.1,7.6-14.4c1.87-4.44,2.59-6,4.4-7.6,2.36-2.05,3.47-1.39,6.8-3.2,5.94-3.23,5.29-6.91,10.8-9.6,3.06-1.49,3.8-.63,8-2a37,37,0,0,0,10.8-6.4c8.22-7,7.65-16.64,11.6-22.8C257.6,320.15,291.13,329.43,358.2,348Z" transform="translate(-70.17 -92.4)"/><path class="cls-6" d="M384.71,449.86s18.38,8.25,18.82,16.5" transform="translate(-70.17 -92.4)"/><circle class="cls-6" cx="213.01" cy="415.3" r="7.2"/><circle class="cls-6" cx="230.43" cy="363.61" r="7.2"/><circle class="cls-6" cx="210.88" cy="442.68" r="7.2"/><circle class="cls-6" cx="209.06" cy="471.44" r="7.2"/></g><g id="Livello_14" data-name="Livello 14"><path class="cls-9" d="M141.79,357.6l-6,17.95s-13.4,8.45-17.6,22.85-2.8,19.07-2.8,19.07" transform="translate(-70.17 -92.4)"/><path class="cls-9" d="M156.2,369.05s5.6,11.4-8,23.6-4.6,34.4-4.6,34.4" transform="translate(-70.17 -92.4)"/><path class="cls-9" d="M138,300.32s-5.86,34.95,38.94,57.81" transform="translate(-70.17 -92.4)"/><path class="cls-10" d="M187,257.53s-29.87,11.4-9.6,65.8" transform="translate(-70.17 -92.4)"/><path class="cls-10" d="M199.53,338.53s12,19.74,1.6,39.87" transform="translate(-70.17 -92.4)"/><path class="cls-10" d="M217.1,334.14s8,14.8-1.6,33.4" transform="translate(-70.17 -92.4)"/><path class="cls-10" d="M170.35,264s-24.15,6.8-3.35,66.27" transform="translate(-70.17 -92.4)"/><path class="cls-10" d="M386.47,351.5s3.73,5.5,4.33,16.7-4.33,12.73-4.33,12.73-1.47-.33-.87,5.67" transform="translate(-70.17 -92.4)"/><path class="cls-10" d="M380.2,348.06s4.8,13.29-3.6,34.42" transform="translate(-70.17 -92.4)"/><path class="cls-10" d="M372.8,357.2a24.91,24.91,0,0,1-4.4,18.3" transform="translate(-70.17 -92.4)"/></g><g id="Livello_2" data-name="Livello 2"><path class="cls-3" d="M363,156.13c7.6,3.2,11.76,10.37,16.4,19.87,5,10.28,9.05,21.25,10,36,.87,13.45-5.08,17.05-3.6,32.4.35,3.65,1,7.63,2.4,15.6,2.12,12.35,3,14.65,3.6,20.4A82,82,0,0,1,391,302a98.09,98.09,0,0,1-18.8,44c-7.84,10.37-11.19,16-17.6,18a66.9,66.9,0,0,1-23.6,3.2c-1.81,0,.15,2.81-1,8-.63,2.87-1,4.7-2,5.8-2.87,3.28-11.18.54-20-2.8-19.16-7.25-28.74-10.87-35.4-16.2-10-8-16.91-17.89-18.8-16.6-1.24.84-.9,1.8-.6,6.6.11,1.68-5-2.08-5.2-2.6-2.75-6.55-5.58-11.47-9.6-25-3.28-11.06-5-12.8-6.4-13.8-4.16-3.05-10.24-3.33-14.6-3.53-5.42-.25-7.25.65-10.93-.8-2.86-1.13-7.08-3.78-6.94-6.67.11-2.26,2.78-2.46,5.87-6.4,1.54-2,1.23-2.37,4.2-9,3.44-7.69,4.3-8.13,4.4-10.6.16-3.83-1.78-5.85-3.6-9.6-3.18-6.53-3.19-12.5-3.2-19.2,0-11.25,4.21-19.66,7.53-26.27,6.94-13.79,16-21.93,25.6-30.66,6.48-5.86,10.65-9.57,17.6-12.8a57.72,57.72,0,0,1,22.94-5.34c3,0,8.19.68,18.66,2.14,13.54,1.88,15.48,2.63,19.74,1.6,1.66-.41,5.93-2.94,14.4-8,8.87-5.31,9.17-6.47,14.84-8.15C352.93,156,360.48,155.07,363,156.13Z" transform="translate(-70.17 -92.4)"/><circle class="cls-3" cx="288.83" cy="370.4" r="30"/><path class="cls-6" d="M246.93,536.6s-25.8-33.2-23.4-57.8" transform="translate(-70.17 -92.4)"/><path class="cls-6" d="M198.26,536.6s-13.2-7.93-19.73-15.67" transform="translate(-70.17 -92.4)"/><path class="cls-11" d="M205.2,290.4s.2,8.2,14.7,4.6l-6.7-5.53,2.07-6.47-5.74-2.2Z" transform="translate(-70.17 -92.4)"/><path class="cls-12" d="M123.8,198.53" transform="translate(-70.17 -92.4)"/></g><g id="Livello_11" data-name="Livello 11"><polyline class="cls-7" points="223.43 156.6 229.43 170.6 204.03 171.6"/><polyline class="cls-7" points="290.51 150.13 296.51 164.13 271.11 165.13"/><path class="cls-13" d="M293.5,263.24a21.09,21.09,0,0,1,.36,4.83c0,5.81-2.2,10.53-4.91,10.53s-4.9-4.72-4.9-10.53a24.37,24.37,0,0,1,.45-4.82" transform="translate(-70.17 -92.4)"/><path class="cls-13" d="M356.9,257.53a21.13,21.13,0,0,1,.36,4.83c0,5.82-2.2,10.53-4.91,10.53s-4.9-4.71-4.9-10.53a24.37,24.37,0,0,1,.45-4.82" transform="translate(-70.17 -92.4)"/><circle class="cls-7" cx="216.06" cy="173.03" r="27.43"/><circle class="cls-7" cx="283.81" cy="165.13" r="27.43"/><line class="cls-7" x1="242.59" y1="166.01" x2="256.38" y2="165.13"/><line class="cls-7" x1="309.2" y1="154.73" x2="316.29" y2="151.47"/><line class="cls-7" x1="189.54" y1="166.01" x2="139.76" y2="164.1"/><path class="cls-7" d="M334.27,276.6l1.93,6.73,2.4,4.8v4.74l-3.07,2.86s-5.47,9-20,.94l-3.46-.14-2.8,2s-4.4,3.6-7.6-1.73" transform="translate(-70.17 -92.4)"/><path class="cls-7" d="M342.7,288.32s12.7,12.08-8.2,8.65" transform="translate(-70.17 -92.4)"/><path class="cls-1" d="M256.27,238.89c-.93-1.55,20.6-15.94,27.8-12.94.18.07.85.37,1.85.76a63.28,63.28,0,0,0,9,2.74c7.91,1.86,11.87,2.78,13.09,2.59,5.87-.94,8.82-5.46,9.45-4.87.78.74-2.6,9.32-9.45,11.57s-10.09-3.94-23.45-5a53.1,53.1,0,0,0-12.79.61C261.38,236,256.71,239.63,256.27,238.89Z" transform="translate(-70.17 -92.4)"/><path class="cls-1" d="M336.26,230.55c-1.35-1.54,10.11-20.87,22.93-18.74,6.3,1,10.4,6.85,13.23,10.86,4.82,6.83,6.75,14.7,5.64,15.3-.9.47-3-4.06-9.21-8.91-2.41-1.9-6.35-5-10.74-6C347.08,220.46,337.39,231.84,336.26,230.55Z" transform="translate(-70.17 -92.4)"/><line class="cls-7" x1="221.89" y1="207.65" x2="213.01" y2="225.6"/><line class="cls-7" x1="276.15" y1="203.25" x2="284.96" y2="220.67"/><line class="cls-7" x1="249.96" y1="213.2" x2="248.83" y2="224.8"/><line class="cls-7" x1="255.63" y1="211.96" x2="257.63" y2="224.8"/><path class="cls-7" d="M347.45,325s-11.05,5.4-46.85,0" transform="translate(-70.17 -92.4)"/><path class="cls-7" d="M302.5,314.27s-.26,11.6-9.73,16" transform="translate(-70.17 -92.4)"/><path class="cls-10" d="M331,368.2s-38.37-1.07-54.5-20.14" transform="translate(-70.17 -92.4)"/><path class="cls-10" d="M305.47,634.73V582.27s27.13-2.94,26.86-24.8" transform="translate(-70.17 -92.4)"/><path class="cls-10" d="M322.07,529.6" transform="translate(-70.17 -92.4)"/><line class="cls-10" x1="251.89" y1="438.4" x2="251.89" y2="341.83"/><path class="cls-14" d="M194,569c35.4,45.4,59,0,59,0V536.6H194Z" transform="translate(-70.17 -92.4)"/><path class="cls-6" d="M204.6,418.8s26.8,9.8,15,31.6" transform="translate(-70.17 -92.4)"/><path class="cls-6" d="M403.2,463.3" transform="translate(-70.17 -92.4)"/><path class="cls-6" d="M384.38,446.8" transform="translate(-70.17 -92.4)"/><polyline class="cls-7" points="212.13 283.1 186.51 252.3 183.13 256.7 182.16 261.8 182.16 265.73"/><polyline class="cls-7" points="201.43 269.2 234.43 284.6 245.69 288.6 255.42 289.9 259.53 288.53"/></g></svg>