<svg id="Livello_1" data-name="Livello 1" xmlns="http://www.w3.org/2000/svg" xmlns:xlink="http://www.w3.org/1999/xlink" width="662.5" height="503.5" viewBox="0 0 662.5 503.5">
  <defs>
    <style>
      .cls-1, .cls-10, .cls-2, .cls-4, .cls-5, .cls-6, .cls-7, .cls-8, .cls-9 {
        fill: none;
      }

      .cls-2, .cls-3 {
        stroke: #d3d3d3;
        stroke-width: 0.5px;
      }

      .cls-3 {
        fill: url(#_.44066836137648413);
      }

      .cls-13, .cls-14, .cls-15, .cls-4, .cls-5, .cls-6, .cls-8, .cls-9 {
        stroke: #000;
      }

      .cls-5, .cls-7 {
        stroke-width: 2px;
      }

      .cls-6 {
        stroke-dasharray: 6 6;
      }

      .cls-10, .cls-12, .cls-7 {
        stroke: red;
      }

      .cls-8 {
        stroke-dasharray: 1.13 3.35;
      }

      .cls-10, .cls-9 {
        stroke-width: 3px;
      }

      .cls-11, .cls-12 {
        fill: red;
      }

      .cls-12, .cls-13, .cls-14, .cls-15 {
        stroke-miterlimit: 10;
      }

      .cls-12, .cls-13 {
        stroke-width: 0.32px;
      }

      .cls-14 {
        stroke-width: 0.24px;
      }

      .cls-15 {
        stroke-width: 0.17px;
      }
    </style>
    <pattern id="_.44066836137648413" data-name=".44066836137648413" width="10" height="10" patternTransform="matrix(1, 0, 0, -1, -2.75, 851.14)" patternUnits="userSpaceOnUse" viewBox="0 0 10 10">
      <rect class="cls-1" width="10" height="10"/>
      <path class="cls-2" d="M10,10H0V0"/>
    </pattern>
  </defs>
  <rect class="cls-3" x="0.25" y="0.25" width="662" height="503"/>
  <g>
    <path class="cls-4" d="M135,15.84H524.14V49.31H135Z" transform="translate(0.25 0.25)"/>
    <path class="cls-5" d="M135,15.84l34.31,34.31" transform="translate(0.25 0.25)"/>
    <path class="cls-5" d="M164.29,15,198.6,49.31" transform="translate(0.25 0.25)"/>
    <path class="cls-5" d="M194.42,15.84l34.31,34.31" transform="translate(0.25 0.25)"/>
    <path class="cls-5" d="M194.42,15.84l34.31,34.31" transform="translate(0.25 0.25)"/>
    <path class="cls-5" d="M226.22,15.84l34.31,34.31" transform="translate(0.25 0.25)"/>
    <path class="cls-5" d="M255.51,15l34.31,34.31" transform="translate(0.25 0.25)"/>
    <path class="cls-5" d="M285.63,15.84l34.31,34.31" transform="translate(0.25 0.25)"/>
    <path class="cls-5" d="M318.27,16.67,352.58,51" transform="translate(0.25 0.25)"/>
    <path class="cls-5" d="M347.56,15.84l34.31,34.31" transform="translate(0.25 0.25)"/>
    <path class="cls-5" d="M377.69,16.67,412,51" transform="translate(0.25 0.25)"/>
    <path class="cls-5" d="M411.16,15.84l34.31,34.31" transform="translate(0.25 0.25)"/>
    <path class="cls-5" d="M440.45,15l34.31,34.31" transform="translate(0.25 0.25)"/>
    <path class="cls-5" d="M470.58,15.84l34.31,34.31" transform="translate(0.25 0.25)"/>
    <path class="cls-6" d="M319.94,50.15V379" transform="translate(0.25 0.25)"/>
    <path class="cls-4" d="M319.94,50.15,186.05,282.79" transform="translate(0.25 0.25)"/>
    <path class="cls-4" d="M319.94,50.15l133.9,232.64" transform="translate(0.25 0.25)"/>
    <path class="cls-7" d="M165.13,303.71a20.92,20.92,0,1,1,20.92,20.93A20.92,20.92,0,0,1,165.13,303.71Z" transform="translate(0.25 0.25)"/>
    <path class="cls-7" d="M432.92,303.71a20.92,20.92,0,1,1,20.92,20.93A20.92,20.92,0,0,1,432.92,303.71Z" transform="translate(0.25 0.25)"/>
    <path class="cls-8" d="M207,303.71H432.08" transform="translate(0.25 0.25)"/>
    <path class="cls-4" d="M319.94,93.66c4.19,5,20.93,5.86,20.93-5" transform="translate(0.25 0.25)"/>
    <g>
      <path class="cls-9" d="M453.84,282.79l-51.06-88.56" transform="translate(0.25 0.25)"/>
      <path d="M413.36,198.85l-13.08-8.95,1.2,15.81Z" transform="translate(0.25 0.25)"/>
    </g>
    <g>
      <path class="cls-10" d="M474.76,303.71H554" transform="translate(0.25 0.25)"/>
      <path class="cls-11" d="M544.71,310.57,559,303.71l-14.29-6.86Z" transform="translate(0.25 0.25)"/>
    </g>
    <g>
      <path class="cls-9" d="M556.43,463.71l-85-147.44" transform="translate(0.25 0.25)"/>
      <path d="M545.84,459.09l13.09,9-1.2-15.8Z" transform="translate(0.25 0.25)"/>
    </g>
    <g>
      <path class="cls-9" d="M453.84,324.64V465.7" transform="translate(0.25 0.25)"/>
      <path d="M447,456.41l6.86,14.29,6.86-14.29Z" transform="translate(0.25 0.25)"/>
    </g>
    <path class="cls-4" d="M455.94,331.66c4.19,5,20.93,5.86,20.93-5" transform="translate(0.25 0.25)"/>
  </g>
  <path class="cls-12" d="M196.28,306.72v-2.36h-9.6v-9.52h-2.36v9.52h-9.6v2.36h9.6v9.64h2.36v-9.64Z" transform="translate(0.25 0.25)"/>
  <path class="cls-12" d="M465.75,305.88v-2.36h-9.6V294h-2.36v9.52h-9.6v2.36h9.6v9.63h2.36v-9.63Z" transform="translate(0.25 0.25)"/>
  <path class="cls-13" d="M312.42,316.82a37.1,37.1,0,0,1,.64-4.44,1.8,1.8,0,0,0-.8-.24c-1.24,0-2.48,1-3.92,3a49.32,49.32,0,0,0-3.76,6l1.28-6.08a7.33,7.33,0,0,0,.24-1.68c0-.8-.32-1.28-.92-1.28-.84,0-2.36.84-5.32,3l-1.12.8.28.8,1.28-.84c1.12-.72,1.56-.92,1.92-.92s.68.36.68.88c0,2.32-1.72,10.56-3.32,15.68l.4.28a21.74,21.74,0,0,1,2.16-.52l.52-.08,1-4.8a17.52,17.52,0,0,1,3.4-7.72c1.36-1.76,2.44-2.6,3.32-2.6a1.65,1.65,0,0,1,1.44.76Z" transform="translate(0.25 0.25)"/>
  <path class="cls-13" d="M389.26,106.71l-.48-.44a15.67,15.67,0,0,1-6.4,1.68l-.16.84h1.92c1,0,1.36.28,1.36.88a5.88,5.88,0,0,1-.12,1c-.44,2.2-3.36,17.6-4,19.6a18.09,18.09,0,0,0-.76,4c0,1,.44,1.6,1.2,1.6,1,0,2.48-.84,6.4-3.76l-.4-.72-1,.68a6.63,6.63,0,0,1-2.44,1.2c-.28,0-.52-.4-.52-.8a5.91,5.91,0,0,1,.16-1.12Z" transform="translate(0.25 0.25)"/>
  <path class="cls-14" d="M341.48,78.53c7.08,0,10-10,10.17-15.6.06-3.42-.9-5.94-4.71-5.94-7.8,0-10.41,8.7-10.5,15.09C336.38,75.65,337.4,78.53,341.48,78.53Zm4.92-20.76c4.05,0,3.15,5.55,2.52,8.85h-9.48C340.19,63.5,342.53,57.77,346.4,57.77ZM342,77.66c-4.53,0-3.18-7.44-2.7-10.08h9.48C348,70.94,346.25,77.66,342,77.66Z" transform="translate(0.25 0.25)"/>
  <path class="cls-13" d="M441.54,208.5h2.92c3.12,0,4.56.2,4.68.68a4.43,4.43,0,0,1,.16,1.48l-.16,2.56h1.12l1.08-6.56-3.64,0c-3.52,0-6.24.08-7.64.08s-4,0-7.48-.08l-3.8,0-.72,6.56h1.16l.6-2.4a4.66,4.66,0,0,1,.72-1.8,7.14,7.14,0,0,1,3.24-.52h4.48l-3.44,20.84c-.64,3.64-.72,3.76-2.32,3.88l-2,.12-.16,1.12,2.28,0c1.6,0,2.76-.08,3.4-.08s2,0,3.56.08l1.76,0,.12-1.12-2.36-.12c-1,0-1.44-.36-1.44-1.2a8.55,8.55,0,0,1,.16-1.4Z" transform="translate(0.25 0.25)"/>
  <g>
    <path class="cls-14" d="M552.55,411.78l3.18-.12c1.86,0,3.06.27,3.09.72l.24,2.67h.72a20.54,20.54,0,0,1,.63-4.56c-.66-.06-1.5-.09-2-.09l-1.23,0-4.95.06h-.87c-.75,0-2,0-3.09-.06l-1.47,0-.09.84,1.68.06c.72,0,1,.3,1,.81a18.52,18.52,0,0,1-.27,2.28l-2.25,13c-.51,2.76-.51,2.79-1.74,2.91l-1.08.09-.12.84,1,0c1.2,0,2.16-.06,2.79-.06s1.41,0,2.58.06l1.56,0,.09-.84-1.92-.09c-.81,0-1.08-.27-1.08-.87a3.74,3.74,0,0,1,.06-.63l1.08-6.69h3.51c.81,0,1.74,0,3.18.09l.78,0,.57-1.35-.12-.21c-2.43.12-4.23.18-6.57.18h-1.11l1.38-8.13a3.36,3.36,0,0,1,.27-1Z" transform="translate(0.25 0.25)"/>
    <path class="cls-15" d="M569.71,422.87h1.53c1.64,0,2.39.11,2.46.36a2.46,2.46,0,0,1,.08.78l-.08,1.34h.58l.57-3.44-1.91,0-4,0-3.93,0-2,0-.38,3.44h.61l.31-1.26a2.53,2.53,0,0,1,.38-.95,3.86,3.86,0,0,1,1.7-.27H568l-1.8,10.94c-.34,1.91-.38,2-1.22,2l-1.07.06-.09.59,1.2,0,1.79,0,1.87,0,.92,0,.06-.59-1.24-.06c-.54,0-.75-.19-.75-.63a4.75,4.75,0,0,1,.08-.74Z" transform="translate(0.25 0.25)"/>
  </g>
  <g>
    <path class="cls-14" d="M414.55,402.78l3.18-.12c1.86,0,3.06.27,3.09.72l.24,2.67h.72a20.54,20.54,0,0,1,.63-4.56c-.66-.06-1.5-.09-2-.09l-1.23,0-4.95.06h-.87c-.75,0-2,0-3.09-.06l-1.47,0-.09.84,1.68.06c.72,0,1.05.3,1.05.81a18.52,18.52,0,0,1-.27,2.28l-2.25,13c-.51,2.76-.51,2.79-1.74,2.91l-1.08.09-.12.84,1,0c1.2,0,2.16-.06,2.79-.06s1.41,0,2.58.06l1.56,0,.09-.84-1.92-.09c-.81,0-1.08-.27-1.08-.87a3.74,3.74,0,0,1,.06-.63l1.08-6.69h3.51c.81,0,1.74,0,3.18.09l.78,0,.57-1.35-.12-.21c-2.43.12-4.23.18-6.57.18h-1.11l1.38-8.13a3.36,3.36,0,0,1,.27-1Z" transform="translate(0.25 0.25)"/>
    <path class="cls-15" d="M429.29,417.32a4.84,4.84,0,0,0-4.62,4.68,2.36,2.36,0,0,0,2.56,2.58c.17,0,.4,0,.63,0l-.86.8a1.58,1.58,0,0,0-.57,1,1,1,0,0,0,.45.69c-1.45.48-4.14,1.41-4.14,3.74,0,1.49,1.47,2.45,3.76,2.45,2.71,0,5.08-1.51,5.08-3.25a3,3,0,0,0-1.34-2.25l-1.26-1c-.72-.56-1-1-1-1.36s.31-.59.57-1a4.47,4.47,0,0,0,3.54-4.11,4.69,4.69,0,0,0-.08-.8,5.45,5.45,0,0,0,.71,0,7.24,7.24,0,0,0,1-.08l.19-.95-.06-.13a7.58,7.58,0,0,1-2.14.19S431.26,417.32,429.29,417.32Zm-2.08,10.1,1.62,1.24c1,.75,1.36,1.32,1.36,2,0,1.09-1.45,2-3.19,2s-2.92-.89-2.92-2.17C424.08,428.34,426.39,427.67,427.21,427.42Zm1.56-9.39c1.21,0,1.82.76,1.82,2.25,0,2.16-1,3.63-2.48,3.63-1.28,0-1.95-.86-1.95-2.52C426.16,419.39,427.23,418,428.77,418Z" transform="translate(0.25 0.25)"/>
  </g>
  <path class="cls-14" d="M466.05,363.14c7.08,0,10.05-10,10.17-15.6.06-3.42-.9-5.94-4.71-5.94-7.8,0-10.41,8.7-10.5,15.09C461,360.26,462,363.14,466.05,363.14ZM471,342.38c4,0,3.15,5.55,2.52,8.85H464C464.76,348.11,467.1,342.38,471,342.38Zm-4.44,19.89c-4.53,0-3.18-7.44-2.7-10.08h9.48C472.56,355.55,470.82,362.27,466.53,362.27Z" transform="translate(0.25 0.25)"/>
  <g>
    <path class="cls-14" d="M555.55,264.78l3.18-.12c1.86,0,3.06.27,3.09.72l.24,2.67h.72a20.54,20.54,0,0,1,.63-4.56c-.66-.06-1.5-.09-2-.09l-1.23,0-4.95.06h-.87c-.75,0-2,0-3.09-.06l-1.47,0-.09.84,1.68.06c.72,0,1,.3,1,.81a18.52,18.52,0,0,1-.27,2.28l-2.25,13c-.51,2.76-.51,2.79-1.74,2.91l-1.08.09-.12.84,1,0c1.2,0,2.16-.06,2.79-.06s1.41,0,2.58.06l1.56,0,.09-.84-1.92-.09c-.81,0-1.08-.27-1.08-.87a3.74,3.74,0,0,1,.06-.63l1.08-6.69h3.51c.81,0,1.74,0,3.18.09l.78,0,.57-1.35-.12-.21c-2.43.12-4.23.18-6.57.18h-1.11l1.38-8.13a3.36,3.36,0,0,1,.27-1Z" transform="translate(0.25 0.25)"/>
    <path class="cls-15" d="M571.4,287.11l-.5.35a5.43,5.43,0,0,1-2.88,1.22c-1,0-1.59-.78-1.59-2a10.66,10.66,0,0,1,.16-1.7c.36-.08,2.65-.71,3.18-.94,1.78-.78,2.6-1.74,2.6-3.05a1.61,1.61,0,0,0-1.76-1.63c-1.43-.3-3.74,1.23-4.52,2.79a12.6,12.6,0,0,0-1.26,4.95,2.32,2.32,0,0,0,2.44,2.61c1.19,0,2.37-.59,4.3-2.16Zm-4.51-3.43a5.58,5.58,0,0,1,1.38-2.89,2.56,2.56,0,0,1,1.54-.59,1,1,0,0,1,1,1.09,3,3,0,0,1-1.83,2.44,10.49,10.49,0,0,1-2.29.73Z" transform="translate(0.25 0.25)"/>
  </g>
  <path class="cls-14" d="M166.52,271.42a8,8,0,0,0-3-.72c-2.25,0-4.89,2.64-5.43,3.24-1.2,1.41-2.37,5.79-2.37,8.88,0,1.77.36,2.67,1.08,2.67a3.76,3.76,0,0,0,2.19-.9,18.23,18.23,0,0,0,5.25-5.7l-2.28,12.42a3.64,3.64,0,0,1-.81,1.71l.27.42a21.59,21.59,0,0,1,2.58-.51,47.16,47.16,0,0,1,.57-4.77l2.58-13.68a24.81,24.81,0,0,1,.81-3.54l-.42-.18Zm-8,12c-.42,0-.66-.63-.66-1.62,0-2.88,1.29-7.38,2.55-8.88a2.94,2.94,0,0,1,2.19-.72,6.67,6.67,0,0,1,2.91.81l-.63,2.85C164,279.94,159.77,283.39,158.51,283.39Z" transform="translate(0.25 0.25)"/>
  <g>
    <path class="cls-14" d="M418.52,275.42a8,8,0,0,0-3-.72c-2.25,0-4.89,2.64-5.43,3.24-1.2,1.41-2.37,5.79-2.37,8.88,0,1.77.36,2.67,1.08,2.67a3.76,3.76,0,0,0,2.19-.9,18.23,18.23,0,0,0,5.25-5.7l-2.28,12.42a3.64,3.64,0,0,1-.81,1.71l.27.42a21.59,21.59,0,0,1,2.58-.51,47.16,47.16,0,0,1,.57-4.77l2.58-13.68a24.81,24.81,0,0,1,.81-3.54l-.42-.18Zm-8,12c-.42,0-.66-.63-.66-1.62,0-2.88,1.29-7.38,2.55-8.88a2.94,2.94,0,0,1,2.19-.72,6.67,6.67,0,0,1,2.91.81l-.63,2.85C416,283.94,411.77,287.39,410.51,287.39Z" transform="translate(0.25 0.25)"/>
    <path class="cls-15" d="M427.24,280c-3.25,0-4.91,2.58-4.91,7.66,0,2.46.44,4.58,1.17,5.61a3.9,3.9,0,0,0,3.22,1.62c3.17,0,4.76-2.73,4.76-8.11C431.48,282.15,430.12,280,427.24,280Zm-.38.73c2,0,2.86,2.06,2.86,7.1,0,4.47-.8,6.32-2.73,6.32s-2.9-2.12-2.9-7.24C424.09,282.45,424.87,280.7,426.86,280.7Z" transform="translate(0.25 0.25)"/>
  </g>
</svg>
