<svg id="Livello_1" data-name="Livello 1" xmlns="http://www.w3.org/2000/svg" xmlns:xlink="http://www.w3.org/1999/xlink" width="662.5" height="483.5" viewBox="0 0 662.5 483.5">
  <defs>
    <style>
      .cls-1, .cls-2, .cls-4, .cls-5, .cls-6, .cls-8 {
        fill: none;
      }

      .cls-2, .cls-3 {
        stroke: #d3d3d3;
        stroke-width: 0.5px;
      }

      .cls-3 {
        fill: url(#_.9600461161706699);
      }

      .cls-4, .cls-9 {
        stroke: red;
      }

      .cls-4, .cls-7 {
        stroke-width: 4px;
      }

      .cls-10, .cls-11, .cls-12, .cls-5, .cls-6, .cls-7, .cls-8 {
        stroke: #000;
      }

      .cls-5, .cls-6 {
        stroke-width: 3px;
      }

      .cls-6 {
        stroke-dasharray: 3.38 4.02;
      }

      .cls-9 {
        fill: red;
      }

      .cls-10, .cls-11, .cls-12, .cls-9 {
        stroke-miterlimit: 10;
      }

      .cls-10, .cls-9 {
        stroke-width: 0.4px;
      }

      .cls-11 {
        stroke-width: 0.24px;
      }

      .cls-12 {
        stroke-width: 0.17px;
      }
    </style>
    <pattern id="_.9600461161706699" data-name=" .9600461161706699" width="10" height="10" patternTransform="translate(-5.75 -0.25)" patternUnits="userSpaceOnUse" viewBox="0 0 10 10">
      <rect class="cls-1" width="10" height="10"/>
      <rect class="cls-1" width="10" height="10"/>
      <path class="cls-2" d="M10,0H0V10"/>
    </pattern>
  </defs>
  <rect class="cls-3" x="0.25" y="0.25" width="662" height="483"/>
  <path class="cls-4" d="M247.1,184a30,30,0,1,1,30,30,30,30,0,0,1-30-30Z" transform="translate(0 0)"/>
  <g>
    <path class="cls-5" d="M307.15,184l249.63,15.3" transform="translate(0 0)"/>
    <path d="M547.09,205.54l14.68-6-13.84-7.73Z" transform="translate(0 0)"/>
  </g>
  <g>
    <path class="cls-5" d="M289.55,209.2l71.86,117.41" transform="translate(0 0)"/>
    <path d="M352.14,323.31l11.53,7-1.4-14.12Z" transform="translate(0 0)"/>
  </g>
  <path class="cls-6" d="M69.35,97.48C373.25-41.84,160.63,406.15,590.6,402.54" transform="translate(0 0)"/>
  <path class="cls-7" d="M69.35,97.48a6,6,0,1,1,6,6A6,6,0,0,1,69.35,97.48Z" transform="translate(0 0)"/>
  <path class="cls-7" d="M584.59,402.54a6,6,0,1,1,6,6A6,6,0,0,1,584.59,402.54Z" transform="translate(0 0)"/>
  <path class="cls-8" d="M311.78,183.25c39.51,22,20.56,47.39-12.08,39.18" transform="translate(0 0)"/>
  <path class="cls-9" d="M291.42,184.68v-3h-12v-11.9h-2.95v11.9h-12v3h12v12h2.95v-12Z" transform="translate(0 0)"/>
  <path class="cls-10" d="M36.65,82.3c0,.8-.75,1.25-2.15,1.35l-2.2.15v1.45c5.1-.15,5.1-.15,6.1-.15s1,0,6.1.15v-1.4l-1.25-.2c-2.35-.35-2.4-.35-2.8-2.6L36.05,49.8h-2.3L15.1,79.45c-1.8,2.8-2.7,3.6-4.4,4l-1,.25v1.55c4.6-.15,4.6-.15,5.6-.15s1.05,0,5.35.15v-1.4l-2.6-.15c-.8,0-1.55-.5-1.55-1s.35-1.1,1.3-2.75l5.1-8.7H35.25l1.25,9.4v.15A9.53,9.53,0,0,1,36.65,82.3ZM33.1,55,35,69.4H24.15Z" transform="translate(0 0)"/>
  <path class="cls-10" d="M644.88,423.25c0-5.5-4.2-6.3-8.3-6.9,2.85-1,4.1-1.6,5.65-3a8.85,8.85,0,0,0,3.45-6.85c0-4.1-2.9-6.5-7.9-6.5-.1,0-.6,0-1.35.05l-3.15.05c-.6,0-2.4,0-3,0-.95,0-2.5,0-4.95-.1l-2.6-.05-.15,1.4,2.65.1c1.2.05,1.75.45,1.75,1.35a30.52,30.52,0,0,1-.45,3.8l-4.35,25.2c-.2.9-.8,1.25-2.9,1.6l-.25,1.3,1.85-.05c1.35-.1,2.1-.1,2.7-.1s1.85,0,3.15.1l1.85.05,1,.05c.95.05,1.6.1,2,.1C637.33,434.85,644.88,430.25,644.88,423.25ZM626,432.55l2.55-14.95h4.25c5.15,0,7.65,2.1,7.65,6.45a8.45,8.45,0,0,1-8.06,8.84h-.59c-2.7,0-3.75-.25-5.8-.4Zm9.3-30.7c4,0,6,1.8,6,5.55,0,5.25-3.7,8.4-9.9,8.4h-2.6l2.45-13.7c.85-.05,2.9-.3,4.05-.3Z" transform="translate(0 0)"/>
  <path class="cls-10" d="M300.8,342.25c0,9.7,5.35,15.1,14.9,15.1,4.8,0,8.35-1.15,12.85-4.25l.5-1.8-.5-.35c-4.7,2.85-7.3,3.75-11.2,3.75-7.85,0-12.15-4.8-12.15-13.7,0-6.9,2.85-17.2,14.25-17.2a15.19,15.19,0,0,1,8.95,2.5v4.2h1.35a33.55,33.55,0,0,1,1.35-7.3,26.16,26.16,0,0,0-9.75-2.05C312.35,321.18,300.8,327.58,300.8,342.25Z" transform="translate(0 0)"/>
  <path class="cls-11" d="M339,238.75c7.08,0,10-10,10.17-15.6.06-3.42-.9-5.94-4.71-5.94-7.8,0-10.41,8.7-10.5,15.09C333.94,235.87,335,238.75,339,238.75ZM344,218c4.05,0,3.15,5.55,2.52,8.85H337c.79-3.12,3.09-8.85,7-8.85Zm-4.44,19.89c-4.53,0-3.18-7.44-2.7-10.08h9.48c-.75,3.35-2.51,10.08-6.78,10.08Z" transform="translate(0 0)"/>
  <g>
    <g>
      <path class="cls-11" d="M503.75,158.45l3.18-.12c1.86,0,3.06.27,3.09.72l.24,2.67H511a20.62,20.62,0,0,1,.63-4.56c-.66-.06-1.5-.09-2-.09h-1.23l-5,.06h-.87c-.75,0-1.95,0-3.09-.06H498l-.09.84,1.68.06c.72,0,1,.3,1,.81a17.3,17.3,0,0,1-.27,2.28l-2.25,13c-.51,2.76-.51,2.79-1.74,2.91l-1.08.09-.12.84h1c1.2,0,2.16-.06,2.79-.06s1.41,0,2.58.06h1.56l.09-.84-1.92-.09c-.81,0-1.08-.27-1.08-.87a3.36,3.36,0,0,1,.06-.63l1.08-6.69h3.61c.81,0,1.74,0,3.18.09h.78l.57-1.35-.12-.21c-2.43.12-4.23.18-6.57.18h-1.11l1.38-8.13a3.45,3.45,0,0,1,.27-1Z" transform="translate(0 0)"/>
      <path d="M513.31,146.39l-5.56-5.86-.86.92,3.4,4.1H510v1.58h.27l-3.4,4.1.86.92Zm-15.17.67H512.5v-1.59H498.14Z" transform="translate(0 0)"/>
    </g>
    <path class="cls-11" d="M538.9,167.42v-1.77H522.76v1.77Zm0,6.39V172H522.76v1.77Z" transform="translate(0 0)"/>
    <path class="cls-11" d="M561.39,164.13a8,8,0,0,0-3-.72c-2.25,0-4.89,2.64-5.43,3.24-1.2,1.41-2.37,5.79-2.37,8.88,0,1.77.36,2.67,1.08,2.67a3.75,3.75,0,0,0,2.19-.9,18.22,18.22,0,0,0,5.25-5.7L556.83,184a3.57,3.57,0,0,1-.81,1.71l.27.42a22.63,22.63,0,0,1,2.58-.51,47.74,47.74,0,0,1,.57-4.77L562,167.13a23.88,23.88,0,0,1,.81-3.54l-.42-.18Zm-8,12c-.42,0-.66-.63-.66-1.62,0-2.88,1.29-7.38,2.55-8.88a2.92,2.92,0,0,1,2.19-.72,6.62,6.62,0,0,1,2.91.81l-.63,2.85c-.85,4-5.11,7.49-6.37,7.49Z" transform="translate(0 0)"/>
    <path class="cls-12" d="M570.11,168.65c-3.25,0-4.91,2.58-4.91,7.66,0,2.46.44,4.58,1.17,5.61a3.91,3.91,0,0,0,3.22,1.61c3.17,0,4.76-2.73,4.76-8.1C574.35,170.83,573,168.65,570.11,168.65Zm-.38.73c2,0,2.86,2.06,2.86,7.1,0,4.47-.8,6.32-2.73,6.32s-2.9-2.12-2.9-7.25C567,171.13,567.74,169.38,569.73,169.38Z" transform="translate(0 0)"/>
    <g>
      <path class="cls-11" d="M583.5,167.81H587l4,.12.57-1.35-.12-.21c-2.43.12-4.23.18-6.57.18h-1.11l1.41-8.1c1,0,3.45-.12,4.11-.12,1.86,0,3.09.27,3.12.72l.24,2.67h.72a20.62,20.62,0,0,1,.63-4.56c-.63-.06-1.53-.09-2.07-.09H580.06l-.09.84,1.62.06c.72,0,1,.27,1,.81a17.3,17.3,0,0,1-.27,2.28l-2.61,15.12c-.12.54-.48.75-1.8,1l-.15.78H579c.93,0,2.79-.06,3.39-.06l6.75.09c.42,0,1.17,0,2.16-.06h1l.12-1.08c.06-.6.21-1.5.48-3l.15-.78h-.81l-.48,1.8c-.3,1.08-.57,1.44-1.23,1.59a36.13,36.13,0,0,1-4.41.27,40.4,40.4,0,0,1-4.11-.21Z" transform="translate(0 0)"/>
      <path d="M596.65,146.39l-5.56-5.86-.86.92,3.4,4.1h-.27v1.58h.27l-3.4,4.1.86.92Zm-16.81.67h16v-1.59h-16Z" transform="translate(0 0)"/>
    </g>
  </g>
  <g>
    <path class="cls-11" d="M378.67,281.45l-.36-.33a12,12,0,0,1-4.8,1.26l-.12.63h1.44c.72,0,1,.21,1,.72a4.37,4.37,0,0,1-.06.72l-.84,4.62a8.52,8.52,0,0,0-2.46-.42c-2.07,0-4.89,2.16-6.27,4.77a16.57,16.57,0,0,0-1.53,7.11c0,2,.45,2.91,1.32,2.91a5.35,5.35,0,0,0,2.94-1.32,21.26,21.26,0,0,0,4.62-5.52l-.69,2.73a13.11,13.11,0,0,0-.48,3.06c0,.63.27,1,.78,1a4.64,4.64,0,0,0,2.25-1.11l2.43-1.81-.3-.57-1.32.93a2.42,2.42,0,0,1-1.17.51c-.24,0-.42-.27-.42-.69a6.54,6.54,0,0,1,.24-1.38Zm-11.07,19.9c-.48,0-.75-.42-.75-1.17,0-3.78,1.38-8.46,2.85-9.6a2.79,2.79,0,0,1,1.77-.45,6.15,6.15,0,0,1,3.18.69l-.36,1.77C373.18,298,369,301.35,367.6,301.35Z" transform="translate(0 0)"/>
    <g>
      <path class="cls-11" d="M381.76,298.68a26.07,26.07,0,0,1-.66,4,7.51,7.51,0,0,0,3.21.81,7,7,0,0,0,4.38-1.74,4.57,4.57,0,0,0,2.16-3.81c0-1.62-1-2.49-3.18-2.91l-1.29-.25c-1.8-.33-2.37-.83-2.37-2.07a2.91,2.91,0,0,1,3-2.82h.06a3.36,3.36,0,0,1,2.85,1.35v1.65h.69a32.85,32.85,0,0,1,.57-3.39,6.57,6.57,0,0,0-3-.81,7.41,7.41,0,0,0-4.83,2.34,3.52,3.52,0,0,0-1.11,2.64c0,1.68.93,2.64,2.91,3L387,297c1.32.24,1.8.78,1.8,2a3.2,3.2,0,0,1-3.11,3.29,2.75,2.75,0,0,1-.4,0,4.15,4.15,0,0,1-2.82-1.05v-2.52Z" transform="translate(0 0)"/>
      <path d="M395.62,277.68l-5.56-5.86-.86.92,3.4,4.1h-.27v1.61h.27l-3.4,4.1.86.92Zm-13.5.67h12.69v-1.59H382.12Z" transform="translate(0 0)"/>
    </g>
  </g>
  <g>
    <path class="cls-11" d="M315.41,128.46a8,8,0,0,0-3-.72c-2.25,0-4.89,2.64-5.43,3.24-1.2,1.41-2.37,5.79-2.37,8.88,0,1.77.36,2.67,1.08,2.67a3.75,3.75,0,0,0,2.19-.9,18.22,18.22,0,0,0,5.25-5.7l-2.28,12.42a3.57,3.57,0,0,1-.81,1.71l.27.42a22.63,22.63,0,0,1,2.58-.51,47.74,47.74,0,0,1,.57-4.77L316,131.52a23.88,23.88,0,0,1,.81-3.54l-.42-.18Zm-8,12c-.42,0-.66-.63-.66-1.62,0-2.88,1.29-7.38,2.55-8.88a2.92,2.92,0,0,1,2.19-.72,6.62,6.62,0,0,1,2.91.81l-.63,2.85c-.88,4.08-5.11,7.53-6.37,7.53Z" transform="translate(0 0)"/>
    <path class="cls-12" d="M324.13,133c-3.25,0-4.91,2.58-4.91,7.66,0,2.46.44,4.58,1.17,5.61a3.91,3.91,0,0,0,3.22,1.61c3.17,0,4.76-2.73,4.76-8.1C328.37,135.25,327,133,324.13,133Zm-.38.73c2,0,2.86,2.06,2.86,7.1,0,4.47-.8,6.32-2.73,6.32s-2.9-2.12-2.9-7.25C321,135.49,321.76,133.75,323.75,133.75Z" transform="translate(0 0)"/>
  </g>
</svg>
