<svg id="Livello_1" data-name="Livello 1" xmlns="http://www.w3.org/2000/svg" xmlns:xlink="http://www.w3.org/1999/xlink" width="662.5" height="560.5" viewBox="0 0 662.5 560.5">
  <defs>
    <style>
      .cls-1, .cls-10, .cls-2, .cls-4, .cls-5, .cls-6, .cls-7, .cls-8 {
        fill: none;
      }

      .cls-2, .cls-3 {
        stroke: #d3d3d3;
        stroke-width: 0.5px;
      }

      .cls-3 {
        fill: url(#_.43677617041400585);
      }

      .cls-11, .cls-12, .cls-4, .cls-5, .cls-6, .cls-8 {
        stroke: #000;
      }

      .cls-10, .cls-4, .cls-6, .cls-7 {
        stroke-width: 4px;
      }

      .cls-5 {
        stroke-width: 4px;
      }

      .cls-6 {
        stroke-dasharray: 4.5 4.36;
      }

      .cls-13, .cls-7 {
        stroke: red;
      }

      .cls-8 {
        stroke-width: 4px;
      }

      .cls-9 {
        stroke: #a76464;
      }

      .cls-10, .cls-14 {
        stroke: #4a90e2;
      }

      .cls-11, .cls-12, .cls-13, .cls-14 {
        stroke-miterlimit: 10;
      }

      .cls-11 {
        stroke-width: 0.24px;
      }

      .cls-12 {
        stroke-width: 0.17px;
      }

      .cls-13 {
        fill: red;
      }

      .cls-13, .cls-14 {
        stroke-width: 0.32px;
      }

      .cls-14 {
        fill: #4a90e2;
      }
    </style>
    <pattern id="_.43677617041400585" data-name=".43677617041400585" width="10" height="10" patternTransform="matrix(1, 0, 0, -1, -2.75, 843.14)" patternUnits="userSpaceOnUse" viewBox="0 0 10 10">
      <rect class="cls-1" width="10" height="10"/>
      <path class="cls-2" d="M10,10H0V0"/>
    </pattern>
  </defs>
  <rect class="cls-3" x="0.25" y="0.25" width="662" height="560"/>
  <g>
    <g>
      <path class="cls-4" d="M366.23,329.12,631.16,204.8" transform="translate(0.25 0.25)"/>
      <path d="M372.7,317.08l-11.9,14.59,18.83.16Z" transform="translate(0.25 0.25)"/>
    </g>
    <g>
      <path class="cls-4" d="M280.84,184.87,546.67,60.12" transform="translate(0.25 0.25)"/>
      <path class="cls-5" d="M535.05,72.48q8-9.7,16.15-14.48-8.9,3.22-21.46,3.17" transform="translate(0.25 0.25)"/>
    </g>
    <path class="cls-6" d="M175.54,228.85l105.3-44" transform="translate(0.25 0.25)"/>
    <path class="cls-7" d="M46.77,277.58a28.37,28.37,0,0,1,29.67-28.45,30.83,30.83,0,0,1,29.66,30.5,28.37,28.37,0,0,1-29.66,28.46A30.84,30.84,0,0,1,46.77,277.58Z" transform="translate(0.25 0.25)"/>
    <g>
      <path class="cls-4" d="M101.65,263.78,171,231" transform="translate(0.25 0.25)"/>
      <path class="cls-8" d="M159.43,243.38q7.95-9.74,16.11-14.53-8.88,3.26-21.45,3.23" transform="translate(0.25 0.25)"/>
    </g>
    <path class="cls-9" d="M274.27,184.87a6.57,6.57,0,1,1,6.57,6.56A6.57,6.57,0,0,1,274.27,184.87Z" transform="translate(0.25 0.25)"/>
    <path class="cls-6" d="M255.5,375.65l105.3-44" transform="translate(0.25 0.25)"/>
    <path class="cls-10" d="M126.73,424.38a28.37,28.37,0,0,1,29.67-28.45,30.84,30.84,0,0,1,29.67,30.5,28.38,28.38,0,0,1-29.67,28.46A30.85,30.85,0,0,1,126.73,424.38Z" transform="translate(0.25 0.25)"/>
    <g>
      <path class="cls-4" d="M181.62,410.58,251,377.79" transform="translate(0.25 0.25)"/>
      <path class="cls-8" d="M239.39,390.18q8-9.74,16.11-14.53-8.88,3.24-21.45,3.22" transform="translate(0.25 0.25)"/>
    </g>
    <path class="cls-9" d="M624.6,204.8a6.57,6.57,0,1,1,6.56,6.56A6.57,6.57,0,0,1,624.6,204.8Z" transform="translate(0.25 0.25)"/>
  </g>
  <g>
    <path class="cls-11" d="M384.52,94.21H388l4,.12.57-1.35-.12-.21c-2.43.12-4.23.18-6.57.18h-1.11l1.41-8.1c1,0,3.45-.12,4.11-.12,1.86,0,3.09.27,3.12.72l.24,2.67h.72a20.27,20.27,0,0,1,.63-4.56c-.63-.06-1.53-.09-2.07-.09-.09,0-.42,0-1.14,0l-3.6,0c-.27,0-5.49,0-5.79,0l-1.35,0-.09.84,1.62.06c.72,0,1.05.27,1.05.81a18.52,18.52,0,0,1-.27,2.28l-2.61,15.12c-.12.54-.48.75-1.8,1l-.15.78,1.23,0c.93,0,2.79-.06,3.39-.06l6.75.09c.42,0,1.17,0,2.16-.06l1,0,.12-1.08c.06-.6.21-1.5.48-3l.15-.78h-.81l-.48,1.8c-.3,1.08-.57,1.44-1.23,1.59a34.72,34.72,0,0,1-4.41.27,40.28,40.28,0,0,1-4.11-.21Z" transform="translate(0.25 0.25)"/>
    <path class="cls-12" d="M405.86,109.58V109l-1.1-.06c-1.15-.07-1.36-.3-1.36-1.39V94.82L398.34,97l.15,1.05,3.15-1.39V107.5c0,1.09-.24,1.32-1.37,1.39l-1.18.06v.63l3.47-.06C403.21,109.52,405.52,109.58,405.86,109.58Z" transform="translate(0.25 0.25)"/>
  </g>
  <path class="cls-13" d="M86.13,276.3v-2.36h-9.6v-9.52H74.17v9.52h-9.6v2.36h9.6v9.64h2.36V276.3Z" transform="translate(0.25 0.25)"/>
  <g>
    <path class="cls-11" d="M26.5,226.17a8,8,0,0,0-3-.72c-2.25,0-4.89,2.64-5.43,3.24-1.2,1.41-2.37,5.79-2.37,8.88,0,1.77.36,2.67,1.08,2.67a3.76,3.76,0,0,0,2.19-.9,18.23,18.23,0,0,0,5.25-5.7l-2.28,12.42a3.64,3.64,0,0,1-.81,1.71l.27.42a21.59,21.59,0,0,1,2.58-.51,47.16,47.16,0,0,1,.57-4.77l2.58-13.68a24.81,24.81,0,0,1,.81-3.54l-.42-.18Zm-8,12c-.42,0-.66-.63-.66-1.62,0-2.88,1.29-7.38,2.55-8.88a2.94,2.94,0,0,1,2.19-.72,6.67,6.67,0,0,1,2.91.81l-.63,2.85C24,234.69,19.75,238.14,18.49,238.14Z" transform="translate(0.25 0.25)"/>
    <path class="cls-12" d="M38.48,245.25v-.63l-1.09-.06c-1.16-.07-1.37-.3-1.37-1.39V230.49L31,232.63l.15,1.05,3.15-1.39v10.88c0,1.09-.23,1.32-1.36,1.39l-1.18.06v.63l3.46-.06C35.84,245.19,38.15,245.25,38.48,245.25Z" transform="translate(0.25 0.25)"/>
  </g>
  <g>
    <path class="cls-11" d="M195.31,171a27.83,27.83,0,0,1,.48-3.33,1.35,1.35,0,0,0-.6-.18c-.93,0-1.86.72-2.94,2.25a37,37,0,0,0-2.82,4.53l1-4.56a5.5,5.5,0,0,0,.18-1.26c0-.6-.24-1-.69-1-.63,0-1.77.63-4,2.22l-.84.6.21.6,1-.63c.84-.54,1.17-.69,1.44-.69s.51.27.51.66A64,64,0,0,1,185.68,182l.3.21a16.3,16.3,0,0,1,1.62-.39l.39-.06.78-3.6a13.14,13.14,0,0,1,2.55-5.79c1-1.32,1.83-1.95,2.49-1.95a1.24,1.24,0,0,1,1.08.57Z" transform="translate(0.25 0.25)"/>
    <path class="cls-12" d="M205.57,187.33v-.63l-1.09-.06c-1.15-.07-1.36-.3-1.36-1.39V172.57l-5.06,2.14.14,1,3.15-1.39v10.88c0,1.09-.23,1.32-1.36,1.39l-1.18.06v.63l3.47-.06C202.93,187.27,205.24,187.33,205.57,187.33Z" transform="translate(0.25 0.25)"/>
  </g>
  <g>
    <path class="cls-11" d="M111.1,206.79l-.21-.27-2,.51-.3,1.53a16.47,16.47,0,0,1-2.13,5.79c-1.77,2.73-4.11,4.86-5.31,4.86-.24,0-.39-.27-.39-.78a7.7,7.7,0,0,1,.21-1.56l1.71-8.13a7.11,7.11,0,0,0,.15-1.29c0-.57-.27-.93-.69-.93-.6,0-1.74.63-4,2.22l-.84.6.21.6,1-.63c.84-.54,1.17-.69,1.44-.69a.57.57,0,0,1,.51.6,3.31,3.31,0,0,1-.06.54l-1.89,8.91a9.17,9.17,0,0,0-.12,1.41,1.13,1.13,0,0,0,1.05,1.23c1.89,0,5.52-3.36,8-7.5l-1.11,4.26a8.18,8.18,0,0,0-.33,2c0,.75.33,1.2.9,1.2.78,0,1.86-.63,4.8-2.82l-.3-.54-.78.51a4.6,4.6,0,0,1-1.83.81c-.24,0-.39-.21-.39-.51C108.4,217.62,110.65,208.5,111.1,206.79Z" transform="translate(0.25 0.25)"/>
    <path class="cls-12" d="M122.67,226.33v-.63l-1.09-.06c-1.16-.07-1.37-.3-1.37-1.39V211.57l-5.06,2.14.15,1,3.15-1.39v10.88c0,1.09-.23,1.32-1.37,1.39l-1.17.06v.63l3.46-.06C120,226.27,122.33,226.33,122.67,226.33Z" transform="translate(0.25 0.25)"/>
  </g>
  <g>
    <path class="cls-11" d="M514.6,297.1h3.51l4,.12.57-1.35-.12-.21c-2.43.12-4.23.18-6.57.18h-1.11l1.41-8.1c1,0,3.45-.12,4.11-.12,1.86,0,3.09.27,3.12.72l.24,2.67h.72a20.27,20.27,0,0,1,.63-4.56c-.63-.06-1.53-.09-2.07-.09-.09,0-.42,0-1.14,0l-3.6,0c-.27,0-5.49,0-5.79,0l-1.35,0-.09.84,1.62.06c.72,0,1.05.27,1.05.81a18.52,18.52,0,0,1-.27,2.28l-2.61,15.12c-.12.54-.48.75-1.8,1l-.15.78,1.23,0c.93,0,2.79-.06,3.39-.06l6.75.09c.42,0,1.17,0,2.16-.06l1,0,.12-1.08c.06-.6.21-1.5.48-3l.15-.78h-.81l-.48,1.8c-.3,1.08-.57,1.44-1.23,1.59a34.72,34.72,0,0,1-4.41.27,40.28,40.28,0,0,1-4.11-.21Z" transform="translate(0.25 0.25)"/>
    <path class="cls-12" d="M535.93,312.47v-.63l-1.09-.06c-1.15-.07-1.36-.3-1.36-1.39V297.71l-5.06,2.14.14,1,3.15-1.39v10.88c0,1.09-.23,1.32-1.36,1.39l-1.18.06v.63l3.47-.06C533.29,312.41,535.6,312.47,535.93,312.47Z" transform="translate(0.25 0.25)"/>
  </g>
  <path class="cls-14" d="M166.23,424.2V422H146.07v2.24Z" transform="translate(0.25 0.25)"/>
  <g>
    <path class="cls-11" d="M180.47,475.6a8,8,0,0,0-3-.72c-2.25,0-4.89,2.64-5.43,3.24-1.2,1.41-2.37,5.79-2.37,8.88,0,1.77.36,2.67,1.08,2.67a3.76,3.76,0,0,0,2.19-.9,18.23,18.23,0,0,0,5.25-5.7l-2.28,12.42a3.64,3.64,0,0,1-.81,1.71l.27.42a21.59,21.59,0,0,1,2.58-.51,47.16,47.16,0,0,1,.57-4.77l2.58-13.68a24.81,24.81,0,0,1,.81-3.54l-.42-.18Zm-8,12c-.42,0-.66-.63-.66-1.62,0-2.88,1.29-7.38,2.55-8.88a2.94,2.94,0,0,1,2.19-.72,6.67,6.67,0,0,1,2.91.81l-.63,2.85C178,484.12,173.72,487.57,172.46,487.57Z" transform="translate(0.25 0.25)"/>
    <path class="cls-12" d="M192.45,494.69v-.63l-1.09-.07c-1.16-.06-1.37-.29-1.37-1.38V479.92l-5.06,2.15.15,1.05,3.15-1.39v10.88c0,1.09-.23,1.32-1.37,1.38l-1.17.07v.63l3.46-.07C189.8,494.62,192.11,494.69,192.45,494.69Z" transform="translate(0.25 0.25)"/>
  </g>
  <g>
    <path class="cls-11" d="M336.15,381.1a27.83,27.83,0,0,1,.48-3.33,1.35,1.35,0,0,0-.6-.18c-.93,0-1.86.72-2.94,2.25a37,37,0,0,0-2.82,4.53l1-4.56a5.5,5.5,0,0,0,.18-1.26c0-.6-.24-1-.69-1-.63,0-1.77.63-4,2.22l-.84.6.21.6,1-.63c.84-.54,1.17-.69,1.44-.69s.51.27.51.66a64,64,0,0,1-2.49,11.76l.3.21a16.3,16.3,0,0,1,1.62-.39l.39-.06.78-3.6a13.14,13.14,0,0,1,2.55-5.79c1-1.32,1.83-2,2.49-2a1.24,1.24,0,0,1,1.08.57Z" transform="translate(0.25 0.25)"/>
    <path class="cls-12" d="M346.42,397.39v-.63l-1.09-.06c-1.16-.06-1.37-.3-1.37-1.39V382.63l-5.06,2.14.15,1.05,3.15-1.39v10.88c0,1.09-.23,1.33-1.37,1.39l-1.17.06v.63l3.46-.06C343.77,397.33,346.08,397.39,346.42,397.39Z" transform="translate(0.25 0.25)"/>
  </g>
  <g>
    <path class="cls-11" d="M239.79,413.89l-.21-.27-2,.51-.3,1.53a16.47,16.47,0,0,1-2.13,5.79c-1.77,2.73-4.11,4.86-5.31,4.86-.24,0-.39-.27-.39-.78a7.7,7.7,0,0,1,.21-1.56l1.71-8.13a7.11,7.11,0,0,0,.15-1.29c0-.57-.27-.93-.69-.93-.6,0-1.74.63-4,2.22l-.84.6.21.6,1-.63c.84-.54,1.17-.69,1.44-.69a.57.57,0,0,1,.51.6,3.31,3.31,0,0,1-.06.54l-1.89,8.91a9.17,9.17,0,0,0-.12,1.41,1.13,1.13,0,0,0,1.05,1.23c1.89,0,5.52-3.36,8-7.5L235,425.17a8.18,8.18,0,0,0-.33,2c0,.75.33,1.2.9,1.2.78,0,1.86-.63,4.8-2.82l-.3-.54-.78.51a4.6,4.6,0,0,1-1.83.81c-.24,0-.39-.21-.39-.51C237.09,424.72,239.34,415.6,239.79,413.89Z" transform="translate(0.25 0.25)"/>
    <path class="cls-12" d="M251.36,433.42v-.63l-1.1-.06c-1.15-.06-1.36-.29-1.36-1.39V418.66l-5.06,2.14.15,1.05,3.15-1.38v10.87c0,1.1-.24,1.33-1.37,1.39l-1.18.06v.63l3.47-.06C248.71,433.36,251,433.42,251.36,433.42Z" transform="translate(0.25 0.25)"/>
  </g>
  <path class="cls-11" d="M259.23,142.5l1.65.06c.72,0,1.05.27,1.05.81l-2.49,15.3c-.51,2.73-.54,2.82-1.74,2.91l-1.23.09-.12.84,1.26,0c1.23,0,2.16-.06,2.7-.06s1.38,0,2.58.06l1.59,0,.09-.84-1.95-.09c-.78,0-1.08-.27-1.08-.9a6.42,6.42,0,0,1,.12-1.05L264.6,143a12.17,12.17,0,0,1,2.13-.24c3.06,0,4.53,1.32,4.53,4.11,0,3.24-2.16,5.88-4.8,5.88a6.42,6.42,0,0,1-2.37-.57l.06.93a5.2,5.2,0,0,0,2.58.69,7.52,7.52,0,0,0,7.17-7.59c0-3-1.89-4.62-5.46-4.53h-9.12Z" transform="translate(0.25 0.25)"/>
  <path class="cls-11" d="M640,234.41l1.65.06c.72,0,1,.27,1,.81l-2.49,15.3c-.51,2.73-.54,2.82-1.74,2.91l-1.23.09-.12.84,1.26,0c1.23,0,2.16-.06,2.7-.06s1.38,0,2.58.06l1.59,0,.09-.84-1.95-.09c-.78,0-1.08-.27-1.08-.9a6.42,6.42,0,0,1,.12-1.05l2.94-16.65a12.17,12.17,0,0,1,2.13-.24c3.06,0,4.53,1.32,4.53,4.11,0,3.24-2.16,5.88-4.8,5.88a6.42,6.42,0,0,1-2.37-.57l.06.93a5.2,5.2,0,0,0,2.58.69,7.52,7.52,0,0,0,7.17-7.59c0-3-1.89-4.62-5.46-4.53h-9.12Z" transform="translate(0.25 0.25)"/>
</svg>
