<svg id="Livello_1" data-name="Livello 1" xmlns="http://www.w3.org/2000/svg" xmlns:xlink="http://www.w3.org/1999/xlink" width="662.5" height="467.5" viewBox="0 0 662.5 467.5">
  <defs>
    <style>
      .cls-1, .cls-10, .cls-2, .cls-4, .cls-5, .cls-6, .cls-7 {
        fill: none;
      }

      .cls-2, .cls-3 {
        stroke: #d3d3d3;
        stroke-width: 0.5px;
      }

      .cls-3 {
        fill: url(#_.8550207122953815);
      }

      .cls-10, .cls-11, .cls-12, .cls-15, .cls-4, .cls-5, .cls-9 {
        stroke: #000;
      }

      .cls-4 {
        stroke-linecap: round;
        stroke-linejoin: round;
      }

      .cls-10, .cls-4, .cls-7 {
        stroke-width: 4px;
      }

      .cls-13, .cls-6 {
        stroke: #4a90e2;
      }

      .cls-6 {
        stroke-width: 3px;
      }

      .cls-14, .cls-7 {
        stroke: #d0021b;
      }

      .cls-14, .cls-8 {
        fill: #d0021b;
      }

      .cls-11, .cls-12, .cls-13, .cls-14, .cls-15 {
        stroke-miterlimit: 10;
      }

      .cls-11 {
        stroke-width: 0.4px;
      }

      .cls-12, .cls-13, .cls-14 {
        stroke-width: 0.24px;
      }

      .cls-13 {
        fill: #4a90e2;
      }

      .cls-15 {
        stroke-width: 0.16px;
      }
    </style>
    <pattern id="_.8550207122953815" data-name=".8550207122953815" width="10" height="10" patternTransform="matrix(1, 0, 0, -1, -3.55, 848.34)" patternUnits="userSpaceOnUse" viewBox="0 0 10 10">
      <rect class="cls-1" width="10" height="10"/>
      <path class="cls-2" d="M10,10H0V0"/>
    </pattern>
  </defs>
  <rect class="cls-3" x="0.25" y="0.25" width="662" height="467"/>
  <g>
    <path class="cls-4" d="M287.49,148.8a172.06,172.06,0,0,0,23.78-23.51c13.3-19.2,44.91-48.61,66.37-62.38C396.61,50.72,418.52,46,444,44.82,544.94,40.07,630.19,102.23,621.79,175c-.95,8.25-5.63,12.76-10,19.89-18,29.29-60.71,31.87-95.15,44.3-12.54,4.53-33.17,4.22-48.84,11.76-15.27,7.35-30.35,19.27-41.31,29.83-11.13,10.71-15.25,24.91-31.31,33.45-50.37,26.81-144.77,35.6-191.56,1.81-5.34-3.85-13.3-4.81-18.78-9a73.79,73.79,0,0,1-12.53-11.75c-7.38-9.14-6.24-21.53-7.51-31.65-4.19-33.27-6.57-76.4,37.56-97.64,22.72-10.94,41.36-10.06,68.87-10.85,4.6-.14,12.19-4.44,16.28-6.33" transform="translate(-0.55 -0.55)"/>
    <path class="cls-5" d="M365.55,146.25h58.86V205.1H365.55Z" transform="translate(-0.55 -0.55)"/>
    <path class="cls-5" d="M390.27,128.59l-24.72,17.66" transform="translate(-0.55 -0.55)"/>
    <path class="cls-5" d="M449.13,128.59l-24.72,17.66" transform="translate(-0.55 -0.55)"/>
    <path class="cls-5" d="M449.13,187.45,424.41,205.1" transform="translate(-0.55 -0.55)"/>
    <path class="cls-5" d="M449.13,128.59v58.86" transform="translate(-0.55 -0.55)"/>
    <path class="cls-5" d="M449.13,128.59H390.27" transform="translate(-0.55 -0.55)"/>
    <path class="cls-6" d="M337.3,168c0-27.63,29.77-50,66.51-50s66.5,22.4,66.5,50-29.77,50-66.5,50S337.3,195.65,337.3,168Z" transform="translate(-0.55 -0.55)"/>
    <path class="cls-5" d="M151.31,351.07,395,175.67" transform="translate(-0.55 -0.55)"/>
    <g>
      <path class="cls-7" d="M28,432.52l123.3-81.45" transform="translate(-0.55 -0.55)"/>
      <path class="cls-8" d="M32.67,419.67,23,435.82l18.65-2.55Z" transform="translate(-0.55 -0.55)"/>
    </g>
    <path class="cls-9" d="M143.66,351.07a7.65,7.65,0,1,1,7.65,7.65A7.64,7.64,0,0,1,143.66,351.07Z" transform="translate(-0.55 -0.55)"/>
    <path class="cls-9" d="M387.33,175.67a7.65,7.65,0,1,1,7.65,7.66A7.65,7.65,0,0,1,387.33,175.67Z" transform="translate(-0.55 -0.55)"/>
    <g>
      <path class="cls-10" d="M324.48,227.45,395,175.67" transform="translate(-0.55 -0.55)"/>
      <path d="M328.49,214.39,319.64,231l18.5-3.47Z" transform="translate(-0.55 -0.55)"/>
    </g>
  </g>
  <path class="cls-11" d="M304.49,69.35c0,9.7,5.35,15.1,14.9,15.1,4.8,0,8.35-1.15,12.85-4.25l.5-1.8-.5-.35c-4.7,2.85-7.3,3.75-11.2,3.75-7.85,0-12.15-4.8-12.15-13.7,0-6.9,2.85-17.2,14.25-17.2a15.23,15.23,0,0,1,8.95,2.5v4.2h1.35a33.89,33.89,0,0,1,1.35-7.3,26.05,26.05,0,0,0-9.75-2C316,48.25,304.49,54.65,304.49,69.35Z" transform="translate(-0.55 -0.55)"/>
  <path class="cls-12" d="M414.38,84.78l-.36-.33a11.75,11.75,0,0,1-4.8,1.26l-.12.63h1.44c.72,0,1,.21,1,.72a5.37,5.37,0,0,1-.06.72l-.84,4.62A8.63,8.63,0,0,0,408.2,92c-2.07,0-4.89,2.16-6.27,4.77a16.57,16.57,0,0,0-1.53,7.11c0,2,.45,2.91,1.32,2.91a5.35,5.35,0,0,0,2.94-1.32,21.22,21.22,0,0,0,4.62-5.52l-.69,2.73a13,13,0,0,0-.48,3.06c0,.63.27,1,.78,1a4.53,4.53,0,0,0,2.25-1.11l2.43-1.8-.3-.57-1.32.93a2.51,2.51,0,0,1-1.17.51c-.24,0-.42-.27-.42-.69a5.82,5.82,0,0,1,.24-1.38Zm-11.07,19.89c-.48,0-.75-.42-.75-1.17,0-3.78,1.38-8.46,2.85-9.6a2.84,2.84,0,0,1,1.77-.45,6.3,6.3,0,0,1,3.18.69L410,95.91C408.89,101.31,404.66,104.67,403.31,104.67Zm23.1-12a8,8,0,0,0-3-.72c-2.25,0-4.89,2.64-5.43,3.24-1.2,1.41-2.37,5.79-2.37,8.88,0,1.77.36,2.67,1.08,2.67a3.76,3.76,0,0,0,2.19-.9,18.23,18.23,0,0,0,5.25-5.7l-2.28,12.42a3.64,3.64,0,0,1-.81,1.71l.27.42a21.59,21.59,0,0,1,2.58-.51,47.16,47.16,0,0,1,.57-4.77L427,95.76a24.81,24.81,0,0,1,.81-3.54L427.4,92Zm-8,12c-.42,0-.66-.63-.66-1.62,0-2.88,1.29-7.38,2.55-8.88a2.94,2.94,0,0,1,2.19-.72,6.67,6.67,0,0,1,2.91.81l-.63,2.85C423.89,101.22,419.66,104.67,418.4,104.67Z" transform="translate(-0.55 -0.55)"/>
  <path class="cls-13" d="M491.07,191.9l-.36-.33a11.75,11.75,0,0,1-4.8,1.26l-.12.63h1.44c.72,0,1,.21,1,.72a5.37,5.37,0,0,1-.06.72l-.84,4.62a8.63,8.63,0,0,0-2.46-.42c-2.07,0-4.89,2.16-6.27,4.77a16.57,16.57,0,0,0-1.53,7.11c0,2,.45,2.91,1.32,2.91a5.35,5.35,0,0,0,2.94-1.32,21.22,21.22,0,0,0,4.62-5.52l-.69,2.73a13,13,0,0,0-.48,3.06c0,.63.27,1,.78,1a4.53,4.53,0,0,0,2.25-1.11l2.43-1.8-.3-.57-1.32.93a2.51,2.51,0,0,1-1.17.51c-.24,0-.42-.27-.42-.69a5.82,5.82,0,0,1,.24-1.38ZM480,211.79c-.48,0-.75-.42-.75-1.17,0-3.78,1.38-8.46,2.85-9.6a2.84,2.84,0,0,1,1.77-.45,6.3,6.3,0,0,1,3.18.69l-.36,1.77C485.58,208.43,481.35,211.79,480,211.79Zm13-6.57.18-.09c.9-4.26.9-3.63,5.79-3.81-.72,3-1.47,6.84-1,10.11.21,1.47.9,2.61,2.52,2.61a6.11,6.11,0,0,0,4.2-2.25l0-.18-.33-.3-.15,0a3.38,3.38,0,0,1-2.13,1.23c-3.66,0-1.89-10.5-1.77-11.37a25,25,0,0,0,4.26-.24l.12-1.11-.15-.18h-9.81a4.26,4.26,0,0,0-1.23.09c-.72.45-.87,4.23-.93,5.19C492.63,205.13,492.78,205.19,493,205.22Z" transform="translate(-0.55 -0.55)"/>
  <path class="cls-14" d="M120.44,406.14l-.36-.33a11.75,11.75,0,0,1-4.8,1.26l-.12.63h1.44c.72,0,1,.21,1,.72a5.37,5.37,0,0,1-.06.72l-.84,4.62a8.63,8.63,0,0,0-2.46-.42c-2.07,0-4.89,2.16-6.27,4.77a16.57,16.57,0,0,0-1.53,7.11c0,1.95.45,2.91,1.32,2.91a5.35,5.35,0,0,0,2.94-1.32,21.22,21.22,0,0,0,4.62-5.52l-.69,2.73a13,13,0,0,0-.48,3.06c0,.63.27,1,.78,1A4.53,4.53,0,0,0,117.2,427l2.43-1.8-.3-.57-1.32.93a2.51,2.51,0,0,1-1.17.51c-.24,0-.42-.27-.42-.69a5.82,5.82,0,0,1,.24-1.38ZM109.37,426c-.48,0-.75-.42-.75-1.17,0-3.78,1.38-8.46,2.85-9.6a2.84,2.84,0,0,1,1.77-.45,6.3,6.3,0,0,1,3.18.69l-.36,1.77C115,422.67,110.72,426,109.37,426Zm18.18-8.25h3.51l4,.12.57-1.35-.12-.21c-2.43.12-4.23.18-6.57.18h-1.11l1.41-8.1c1,0,3.45-.12,4.11-.12,1.86,0,3.09.27,3.12.72l.24,2.67h.72a20.27,20.27,0,0,1,.63-4.56c-.63-.06-1.53-.09-2.07-.09-.09,0-.42,0-1.14,0l-3.6,0c-.27,0-5.49,0-5.79,0l-1.35,0-.09.84,1.62.06c.72,0,1.05.27,1.05.81a18.52,18.52,0,0,1-.27,2.28l-2.61,15.12c-.12.54-.48.75-1.8,1l-.15.78,1.23,0c.93,0,2.79-.06,3.39-.06l6.75.09c.42,0,1.17,0,2.16-.06l1,0,.12-1.08c.06-.6.21-1.5.48-3l.15-.78h-.81l-.48,1.8c-.3,1.08-.57,1.44-1.23,1.59a34.72,34.72,0,0,1-4.41.27,40.28,40.28,0,0,1-4.11-.21Z" transform="translate(-0.55 -0.55)"/>
  <path class="cls-12" d="M126.62,316.06l1.65.06c.72,0,1,.27,1,.81l-2.49,15.3c-.51,2.73-.54,2.82-1.74,2.91l-1.23.09-.12.84,1.26,0c1.23,0,2.16-.06,2.7-.06s1.38,0,2.58.06l1.59,0,.09-.84-2-.09c-.78,0-1.08-.27-1.08-.9a6.42,6.42,0,0,1,.12-1.05L132,316.54a12.17,12.17,0,0,1,2.13-.24c3.06,0,4.53,1.32,4.53,4.11,0,3.24-2.16,5.88-4.8,5.88a6.42,6.42,0,0,1-2.37-.57l.06.93a5.2,5.2,0,0,0,2.58.69,7.52,7.52,0,0,0,7.17-7.59c0-3-1.89-4.62-5.46-4.53h-9.12Z" transform="translate(-0.55 -0.55)"/>
  <g>
    <path class="cls-15" d="M478.38,131.55l1.1,0c.48,0,.7.18.7.54l-1.66,10.2c-.34,1.82-.36,1.88-1.16,1.94l-.82.06-.08.56.84,0,1.8,0,1.72,0,1.06,0,.06-.56-1.3-.06c-.52,0-.72-.18-.72-.6a4.28,4.28,0,0,1,.08-.7l2-11.1a8.12,8.12,0,0,1,1.42-.16c2,0,3,.88,3,2.74,0,2.16-1.44,3.92-3.2,3.92a4.28,4.28,0,0,1-1.58-.38l0,.62a3.47,3.47,0,0,0,1.72.46,5,5,0,0,0,4.78-5.06c0-2-1.26-3.08-3.64-3h-6.08Zm12.18,3.88a17.19,17.19,0,0,0,2.58-4.52l-.26-.26c-.72.24-.92.3-1.94.6a9.3,9.3,0,0,1-1.56,4.46l.3.2Z" transform="translate(-0.55 -0.55)"/>
    <path class="cls-15" d="M497,139.51c0-5.2,1.94-7.32,3.1-8.68l-.38-.52a11.5,11.5,0,0,0-4.44,9.2,12.57,12.57,0,0,0,1.46,6,12.26,12.26,0,0,0,3,3.66l.38-.42C499.13,147.57,497,145.13,497,139.51Z" transform="translate(-0.55 -0.55)"/>
    <path class="cls-15" d="M500.85,144.81a1.94,1.94,0,0,0,.86.24,2.89,2.89,0,0,0,2.06-1.52l1.52-2.34.22,1.38c.26,1.7.72,2.48,1.44,2.48a3,3,0,0,0,1.72-.92l1-.88-.18-.38a3.17,3.17,0,0,1-1.54.9c-.3,0-.56-.2-.76-.6a7.84,7.84,0,0,1-.5-1.7l-.36-2,.7-1c.94-1.3,1.48-1.76,2.1-1.76a.65.65,0,0,1,.66.46l.28-.08.3-1.7a1.18,1.18,0,0,0-.6-.2c-.8,0-1.6.72-2.84,2.56l-.74,1.1-.12-1c-.24-2-.78-2.7-2-2.7a1.4,1.4,0,0,0-1.14.42l-1.16,1.66.34.2c.6-.68,1-1,1.38-1,.66,0,1.1.82,1.44,2.78l.22,1.24-.8,1.24c-.86,1.34-1.54,2-2.1,2-.3,0-.52-.08-.56-.18l-.22-.56-.4.06A9.87,9.87,0,0,1,500.85,144.81Zm11.88-9.38a17.19,17.19,0,0,0,2.58-4.52l-.26-.26c-.72.24-.92.3-1.94.6a9.3,9.3,0,0,1-1.56,4.46l.3.2Z" transform="translate(-0.55 -0.55)"/>
    <path class="cls-15" d="M520.28,142.37c-.54.18-.9.3-2,.6a10.59,10.59,0,0,1-1.8,4.74l.28.22.82-.38a17.34,17.34,0,0,0,2.94-4.9Z" transform="translate(-0.55 -0.55)"/>
    <path class="cls-15" d="M525.05,148.43a2.43,2.43,0,0,0,0,.36,1.61,1.61,0,0,0,1.64,1.56c2.12,0,4.32-2.48,5.5-6.18l2.82-8.8-.22-.18a5.56,5.56,0,0,1-1.48.38l-.7,2.64a12.9,12.9,0,0,1-1.6,3.38c-.7,1-1.68,1.9-2.12,1.9-.24,0-.42-.46-.4-1l.32-4.14c0-.62.08-1.38.08-1.94,0-.9-.14-1.26-.48-1.26s-.54.14-1.5.8l-1.64,1.12.22.36,1-.6a1.17,1.17,0,0,1,.5-.24c.28,0,.44.38.44,1a2.48,2.48,0,0,1,0,.3l-.34,4.86,0,.8c0,.84.36,1.42.86,1.42.74,0,2.42-1.7,3.92-4l-1,3.42c-1,3.54-2,5-3.42,5a1.22,1.22,0,0,1-1.24-1.24c0-.1,0-.26,0-.44l-.2-.08Zm12.2-13a17.19,17.19,0,0,0,2.58-4.52l-.26-.26c-.72.24-.92.3-1.94.6a9.3,9.3,0,0,1-1.56,4.46l.3.2Z" transform="translate(-0.55 -0.55)"/>
    <path class="cls-15" d="M544.8,142.37c-.54.18-.9.3-2,.6a10.59,10.59,0,0,1-1.8,4.74l.28.22.82-.38a17.34,17.34,0,0,0,2.94-4.9Z" transform="translate(-0.55 -0.55)"/>
    <path class="cls-15" d="M556.14,145.05a3.59,3.59,0,0,0,1-.2c.22-1.24.38-1.92.6-2.86h-.44l-.44,1.2a.7.7,0,0,1-.78.5,4.36,4.36,0,0,1-1-.14l-.36-.08a9.91,9.91,0,0,0-1.72-.24,4.62,4.62,0,0,0-1.9.42L557.9,136l.12-.64-.18-.18-.46.46a.88.88,0,0,1-.68.28,11.44,11.44,0,0,1-2.68-.42l-.36-.1a5.77,5.77,0,0,0-1.24-.22,4.39,4.39,0,0,0-1.22.2l-.64,2.44H551l.6-1.16a3,3,0,0,1,.78-.1c.82,0,1.46.3,2.52.3a3.62,3.62,0,0,0,1.86-.46l-7.06,8,.18.54a2.71,2.71,0,0,1,1.82-.64C552.94,144.31,554.76,145.05,556.14,145.05Zm4.5-9.62a17.19,17.19,0,0,0,2.58-4.52l-.26-.26c-.72.24-.92.3-1.94.6a9.3,9.3,0,0,1-1.56,4.46l.3.2Z" transform="translate(-0.55 -0.55)"/>
    <path class="cls-15" d="M565.13,130.31l-.38.52c1.1,1.28,3.1,3.48,3.1,8.68,0,5.52-2.08,7.94-3.1,9.2l.38.42a12.29,12.29,0,0,0,4.44-9.6A11.52,11.52,0,0,0,565.13,130.31Z" transform="translate(-0.55 -0.55)"/>
  </g>
  <path class="cls-12" d="M223,261.47a27.83,27.83,0,0,1,.48-3.33,1.35,1.35,0,0,0-.6-.18c-.93,0-1.86.72-2.94,2.25a37,37,0,0,0-2.82,4.53l1-4.56a5.5,5.5,0,0,0,.18-1.26c0-.6-.24-1-.69-1-.63,0-1.77.63-4,2.22l-.84.6.21.6,1-.63c.84-.54,1.17-.69,1.44-.69s.51.27.51.66a64,64,0,0,1-2.49,11.76l.3.21a16.3,16.3,0,0,1,1.62-.39l.39-.06.78-3.6a13.14,13.14,0,0,1,2.55-5.79c1-1.32,1.83-2,2.49-2a1.24,1.24,0,0,1,1.08.57Zm3.72-3.15a25.78,25.78,0,0,0,3.87-6.78l-.39-.39c-1.08.36-1.38.45-2.91.9a14,14,0,0,1-2.34,6.69l.45.3Z" transform="translate(-0.55 -0.55)"/>
  <path class="cls-12" d="M364.85,230l-.21-.27-2,.51-.3,1.53a16.47,16.47,0,0,1-2.13,5.79c-1.77,2.73-4.11,4.86-5.31,4.86-.24,0-.39-.27-.39-.78a7.7,7.7,0,0,1,.21-1.56l1.71-8.13a7.11,7.11,0,0,0,.15-1.29c0-.57-.27-.93-.69-.93-.6,0-1.74.63-4,2.22l-.84.6.21.6,1-.63c.84-.54,1.17-.69,1.44-.69a.57.57,0,0,1,.51.6,3.31,3.31,0,0,1-.06.54l-1.89,8.91a9.17,9.17,0,0,0-.12,1.41,1.13,1.13,0,0,0,1,1.23c1.89,0,5.52-3.36,8-7.5l-1.11,4.26a8.18,8.18,0,0,0-.33,2c0,.75.33,1.2.9,1.2.78,0,1.86-.63,4.8-2.82l-.3-.54-.78.51a4.6,4.6,0,0,1-1.83.81c-.24,0-.39-.21-.39-.51C362.15,240.81,364.4,231.69,364.85,230Zm5,.09a25.78,25.78,0,0,0,3.87-6.78l-.39-.39c-1.08.36-1.38.45-2.91.9a14,14,0,0,1-2.34,6.69l.45.3Z" transform="translate(-0.55 -0.55)"/>
</svg>
