<svg id="Livello_1" data-name="Livello 1" xmlns="http://www.w3.org/2000/svg" xmlns:xlink="http://www.w3.org/1999/xlink" width="662.5" height="467.5" viewBox="0 0 662.5 467.5">
  <defs>
    <style>
      .cls-1, .cls-2, .cls-4, .cls-5, .cls-6, .cls-7 {
        fill: none;
      }

      .cls-2, .cls-3 {
        stroke: #d3d3d3;
        stroke-width: 0.5px;
      }

      .cls-3 {
        fill: url(#_.5324015702695393);
      }

      .cls-11, .cls-12, .cls-13, .cls-14, .cls-15, .cls-4, .cls-5, .cls-7, .cls-8, .cls-9 {
        stroke: #000;
      }

      .cls-4, .cls-6, .cls-7 {
        stroke-width: 4px;
      }

      .cls-5 {
        stroke-width: 4px;
      }

      .cls-10, .cls-16, .cls-6 {
        stroke: red;
      }

      .cls-7 {
        stroke-dasharray: 4.5 4.36;
      }

      .cls-10, .cls-11, .cls-12, .cls-13, .cls-14, .cls-15, .cls-16, .cls-8, .cls-9 {
        stroke-miterlimit: 10;
      }

      .cls-8 {
        stroke-width: 0.24px;
      }

      .cls-9 {
        stroke-width: 0.17px;
      }

      .cls-10, .cls-16 {
        fill: red;
      }

      .cls-10 {
        stroke-width: 0.4px;
      }

      .cls-11 {
        stroke-width: 0.24px;
      }

      .cls-12 {
        stroke-width: 0.17px;
      }

      .cls-13 {
        stroke-width: 0.24px;
      }

      .cls-14 {
        stroke-width: 0.17px;
      }

      .cls-15 {
        stroke-width: 0.24px;
      }

      .cls-16 {
        stroke-width: 0.32px;
      }
    </style>
    <pattern id="_.5324015702695393" data-name=".5324015702695393" width="10" height="10" patternTransform="matrix(1, 0, 0, -1, -2.75, 849.14)" patternUnits="userSpaceOnUse" viewBox="0 0 10 10">
      <rect class="cls-1" width="10" height="10"/>
      <path class="cls-2" d="M10,10H0V0"/>
    </pattern>
  </defs>
  <rect class="cls-3" x="0.25" y="0.25" width="662" height="467"/>
  <g>
    <g>
      <path class="cls-4" d="M391.34,150.2l248.76.3" transform="translate(0.25 0.25)"/>
      <path class="cls-5" d="M624.32,156.74q11.35-5.4,20.78-6.23-9.42-.87-20.77-6.27" transform="translate(0.25 0.25)"/>
    </g>
    <path class="cls-6" d="M17.1,150c-.6-24.21,19.21-43.65,44.24-43.41s45.83,20.07,46.43,44.28-19.2,43.65-44.24,43.41S17.71,174.2,17.1,150Z" transform="translate(0.25 0.25)"/>
    <path class="cls-7" d="M117.56,333.29l215.56-.1" transform="translate(0.25 0.25)"/>
    <g>
      <path class="cls-4" d="M401.12,332.63h133.6" transform="translate(0.25 0.25)"/>
      <path class="cls-4" d="M519,338.88q11.35-5.4,20.77-6.25-9.42-.86-20.77-6.25" transform="translate(0.25 0.25)"/>
    </g>
    <path class="cls-6" d="M65.77,320.85a23.89,23.89,0,0,1,32.75-11.19,26,26,0,0,1,11.82,33.82,23.89,23.89,0,0,1-32.75,11.19A26,26,0,0,1,65.77,320.85Z" transform="translate(0.25 0.25)"/>
    <path class="cls-7" d="M107.77,150.85l215.56-.09" transform="translate(0.25 0.25)"/>
    <path class="cls-4" d="M323.33,150.76a32.51,32.51,0,0,1,32.56-34c18.78-.15,34.65,14.83,35.45,33.46a32.51,32.51,0,0,1-32.56,34C340,184.37,324.13,169.39,323.33,150.76Z" transform="translate(0.25 0.25)"/>
    <path class="cls-4" d="M333.12,333.19a32.51,32.51,0,0,1,32.56-34c18.78-.15,34.65,14.83,35.44,33.46a32.51,32.51,0,0,1-32.55,34C349.79,366.8,333.92,351.82,333.12,333.19Z" transform="translate(0.25 0.25)"/>
  </g>
  <g>
    <path class="cls-8" d="M480.5,94.7l3.18-.09c1.86,0,3.06.3,3.09.75L487,98h.72a20.62,20.62,0,0,1,.67-4.55c-.66-.07-1.5-.11-2-.11h-1.23l-4.95,0h-.87c-.75,0-1.95-.05-3.08-.09l-1.47,0-.1.84,1.68.07c.72,0,1,.31,1,.82a17.49,17.49,0,0,1-.29,2.28l-2.37,13c-.54,2.75-.54,2.78-1.77,2.89l-1.08.08-.13.84,1,0c1.2,0,2.16,0,2.79,0s1.41,0,2.58.08l1.56,0,.1-.83-1.92-.11c-.81,0-1.08-.28-1.07-.88a3.74,3.74,0,0,1,.06-.63L478,105l3.51,0c.81,0,1.74,0,3.18.12l.78,0,.59-1.35-.12-.21c-2.43.1-4.23.14-6.57.12h-1.11l1.45-8.12a3.6,3.6,0,0,1,.28-1Z" transform="translate(0.25 0.25)"/>
    <path class="cls-9" d="M498,119.59V119l-1.09-.07c-1.16-.08-1.36-.31-1.35-1.4l.12-12.68-5.09,2.09.14,1,3.16-1.35-.1,10.87c0,1.09-.24,1.32-1.38,1.38l-1.17.05v.63l3.47,0C495.37,119.5,497.68,119.59,498,119.59Z" transform="translate(0.25 0.25)"/>
  </g>
  <path class="cls-10" d="M77.61,151.58l0-3-12-.16.16-11.9-3,0-.16,11.9-12-.16,0,2.95,12,.16-.16,12.05,3,0,.16-12.05Z" transform="translate(0.25 0.25)"/>
  <g>
    <path class="cls-11" d="M46.7,75.34a8,8,0,0,0-3-.77c-2.25,0-4.93,2.56-5.48,3.15-1.22,1.39-2.46,5.75-2.51,8.84,0,1.77.32,2.68,1,2.69a3.77,3.77,0,0,0,2.2-.86,18.28,18.28,0,0,0,5.34-5.62L41.79,95.15a3.62,3.62,0,0,1-.84,1.7l.27.42a22.82,22.82,0,0,1,2.58-.47c.15-1.61.36-3.26.65-4.76l2.8-13.63a24.16,24.16,0,0,1,.87-3.53l-.42-.19ZM38.5,87.18c-.42,0-.65-.64-.64-1.63,0-2.88,1.41-7.36,2.7-8.84a3,3,0,0,1,2.2-.69,6.77,6.77,0,0,1,2.89.86L45,79.72C44,83.82,39.76,87.2,38.5,87.18Z" transform="translate(0.25 0.25)"/>
    <path class="cls-12" d="M58.37,94.61V94l-1.09-.08c-1.15-.08-1.36-.31-1.34-1.41l.2-12.68-5.09,2.06.13,1,3.17-1.33-.18,10.88c0,1.09-.25,1.31-1.38,1.36l-1.18,0v.63c3.23,0,3.23,0,3.46,0C55.73,94.51,58,94.61,58.37,94.61Z" transform="translate(0.25 0.25)"/>
  </g>
  <g>
    <path class="cls-13" d="M52.73,366.49a8,8,0,0,0-3-.63c-2.25.06-4.81,2.77-5.33,3.39-1.16,1.44-2.21,5.85-2.12,8.94.05,1.77.44,2.66,1.16,2.64a3.73,3.73,0,0,0,2.16-1A18.36,18.36,0,0,0,50.64,374L48.71,386.5a3.6,3.6,0,0,1-.76,1.73l.28.42a20.77,20.77,0,0,1,2.57-.59,45.4,45.4,0,0,1,.43-4.78l2.19-13.75a25.58,25.58,0,0,1,.71-3.56l-.43-.17Zm-7.66,12.19c-.42,0-.68-.61-.71-1.6-.08-2.88,1.08-7.41,2.3-8.95a3,3,0,0,1,2.17-.78,6.73,6.73,0,0,1,2.93.73l-.55,2.86C50.46,375.08,46.33,378.65,45.07,378.68Z" transform="translate(0.25 0.25)"/>
    <path class="cls-14" d="M56.8,384.92v.55c3.93-.12,3.92-.18,4.68-.2s.76,0,4.81-.07l0-1.79c-2.41.17-3.38.12-7.26.31l3.7-4.16c2-2.22,2.57-3.39,2.53-5-.07-2.42-1.75-3.86-4.41-3.79a4.57,4.57,0,0,0-3.53,1.57L57,375.25l.61,0,.25-1a2.21,2.21,0,0,1,2.45-1.81,2.74,2.74,0,0,1,3,2.83c0,1.57-.79,3.15-3.09,5.74Z" transform="translate(0.25 0.25)"/>
  </g>
  <path class="cls-15" d="M209,364.61a28,28,0,0,1,.51-3.32,1.27,1.27,0,0,0-.6-.19c-.93,0-1.86.71-3,2.23a36.62,36.62,0,0,0-2.86,4.5l1-4.55a5.67,5.67,0,0,0,.2-1.26c0-.6-.24-1-.69-1-.63,0-1.77.62-4,2.19l-.84.59.2.6,1-.62c.84-.53,1.18-.68,1.45-.68s.5.28.5.67a63.75,63.75,0,0,1-2.6,11.73l.3.22c.45-.15.93-.23,1.62-.38l.39-.05.82-3.6A13,13,0,0,1,205,366c1-1.31,1.85-1.94,2.51-1.93a1.22,1.22,0,0,1,1.07.58Z" transform="translate(0.25 0.25)"/>
  <path class="cls-16" d="M98.73,330.88l0-2.36-9.6-.13.13-9.52-2.36,0-.13,9.52-9.6-.13,0,2.36,9.6.13-.13,9.64,2.36,0,.13-9.64Z" transform="translate(0.25 0.25)"/>
  <path class="cls-15" d="M198.73,116.05a26.18,26.18,0,0,1,.51-3.33,1.35,1.35,0,0,0-.6-.18c-.93,0-1.87.7-3,2.22a36.15,36.15,0,0,0-2.86,4.51l1-4.55a5.59,5.59,0,0,0,.19-1.26c0-.6-.23-1-.68-1-.63,0-1.78.62-4,2.18l-.85.6.21.6,1-.62c.85-.53,1.18-.68,1.45-.68s.51.28.5.67c0,1.74-1.36,7.9-2.59,11.73l.29.22a14.93,14.93,0,0,1,1.63-.38l.39-.06.81-3.59a13.22,13.22,0,0,1,2.6-5.77c1-1.31,1.85-1.93,2.51-1.92a1.23,1.23,0,0,1,1.08.58Z" transform="translate(0.25 0.25)"/>
  <g>
    <path class="cls-8" d="M459.88,362.73l3.18-.09c1.86,0,3.06.3,3.08.75l.22,2.67h.72a20,20,0,0,1,.67-4.55c-.66-.07-1.5-.11-2-.11l-1.23,0h-5.82c-.75,0-1.95-.05-3.09-.09l-1.47,0-.1.84,1.68.07c.72,0,1.05.31,1,.82a17.49,17.49,0,0,1-.29,2.28l-2.37,13c-.54,2.75-.54,2.78-1.77,2.89l-1.08.08-.13.84,1,0c1.2,0,2.16,0,2.79,0s1.41,0,2.58.08l1.56.05.1-.84-1.92-.11c-.81,0-1.07-.28-1.07-.88a3.67,3.67,0,0,1,.07-.63l1.14-6.68,3.51,0c.81,0,1.74.05,3.18.12l.78,0,.58-1.34-.12-.22c-2.43.1-4.23.14-6.57.12h-1.11l1.46-8.11a3,3,0,0,1,.28-1Z" transform="translate(0.25 0.25)"/>
    <path class="cls-9" d="M469,387v.54c3.92,0,3.92,0,4.68,0s.76.07,4.81.11v-1.78c-2.41.08-3.38,0-7.26,0l3.86-4c2.06-2.15,2.7-3.3,2.71-4.87,0-2.41-1.6-3.92-4.27-3.95a4.53,4.53,0,0,0-3.58,1.44l-.38,2.85h.6l.29-1a2.21,2.21,0,0,1,2.51-1.71,2.75,2.75,0,0,1,2.94,2.94c0,1.58-.92,3.12-3.31,5.62Z" transform="translate(0.25 0.25)"/>
  </g>
  <path class="cls-8" d="M318.77,397.31c0-2.31.76-3.38,2.35-3.37a5.91,5.91,0,0,1,2.87.9l4.33,2.32c1.79.95,2.33,1.13,3.53,1.14,2.25,0,3.34-1.25,3.67-4.16h-.75c-.2,1.62-.87,2.36-2.07,2.35a5.1,5.1,0,0,1-1.85-.47l-7.05-2.94a4.94,4.94,0,0,0-2-.44A3.59,3.59,0,0,0,318,396.4a4.18,4.18,0,0,0,0,.51Zm18.08-17.74c0-5.34-3-8.46-8.44-8.51C321.3,371,316,376.43,316,384c0,5.67,2.74,8.73,8,8.78C332.14,392.82,336.79,386.11,336.85,379.57Zm-2.64.46c0,5.64-2.78,11.52-9.11,11.46-4.32,0-6.55-2.64-6.5-7.65,0-4.44,1.85-11.59,8.87-11.53C331,372.34,334.27,374,334.21,380Z" transform="translate(0.25 0.25)"/>
  <path class="cls-8" d="M310.76,115.55c0-2.31.75-3.39,2.34-3.37a5.86,5.86,0,0,1,2.87.89l4.33,2.32c1.79,1,2.33,1.14,3.53,1.15,2.25,0,3.34-1.26,3.67-4.17h-.75c-.2,1.61-.86,2.36-2.06,2.35a5.41,5.41,0,0,1-1.86-.47l-7.05-3a5.12,5.12,0,0,0-2-.44,3.59,3.59,0,0,0-3.78,3.78c0,.06,0,.27,0,.51ZM328.84,97.8c.05-5.34-3-8.45-8.44-8.51-7.11-.06-12.38,5.38-12.46,12.91-.05,5.67,2.74,8.72,8,8.77C324.12,111.05,328.78,104.34,328.84,97.8Zm-2.65.46c-.05,5.64-2.78,11.52-9.11,11.46-4.32,0-6.54-2.64-6.49-7.65,0-4.44,1.85-11.59,8.87-11.52C322.94,90.58,326.25,92.23,326.19,98.26Z" transform="translate(0.25 0.25)"/>
</svg>
