<svg id="Livello_1" data-name="Livello 1" xmlns="http://www.w3.org/2000/svg" xmlns:xlink="http://www.w3.org/1999/xlink" width="662.5" height="459.5" viewBox="0 0 662.5 459.5">
  <defs>
    <style>
      .cls-1, .cls-2, .cls-4, .cls-5, .cls-6, .cls-7 {
        fill: none;
      }

      .cls-2, .cls-3 {
        stroke: #d3d3d3;
        stroke-width: 0.5px;
      }

      .cls-3 {
        fill: url(#_.6480971327569929);
      }

      .cls-4, .cls-9 {
        stroke: red;
      }

      .cls-4, .cls-5, .cls-6, .cls-7 {
        stroke-width: 4px;
      }

      .cls-10, .cls-5 {
        stroke: #4a90e2;
      }

      .cls-6, .cls-7, .cls-8 {
        stroke: #000;
      }

      .cls-7 {
        stroke-dasharray: 4.5 4.36;
      }

      .cls-10, .cls-8, .cls-9 {
        stroke-miterlimit: 10;
      }

      .cls-8 {
        stroke-width: 0.24px;
      }

      .cls-9 {
        fill: red;
      }

      .cls-10, .cls-9 {
        stroke-width: 0.32px;
      }

      .cls-10 {
        fill: #4a90e2;
      }
    </style>
    <pattern id="_.6480971327569929" data-name=" .6480971327569929" width="10" height="10" patternTransform="translate(-5.75 -0.25)" patternUnits="userSpaceOnUse" viewBox="0 0 10 10">
      <rect class="cls-1" width="10" height="10"/>
      <rect class="cls-1" width="10" height="10"/>
      <path class="cls-2" d="M10,0H0V10"/>
    </pattern>
  </defs>
  <rect class="cls-3" x="0.25" y="0.25" width="662" height="459"/>
  <path class="cls-4" d="M72.39,413.53a21.11,21.11,0,0,1,21-21.2c.35,0,.7,0,1,0a22.94,22.94,0,0,1,22.08,22.7,21.11,21.11,0,0,1-21,21.22c-.35,0-.71,0-1.06,0A23,23,0,0,1,72.39,413.53Z" transform="translate(0 0)"/>
  <path class="cls-5" d="M383.79,147.61a21.11,21.11,0,0,1,21-21.2c.35,0,.7,0,1.05,0A23,23,0,0,1,428,149.14a21.11,21.11,0,0,1-21,21.2c-.35,0-.7,0-1.05,0A23,23,0,0,1,383.79,147.61Z" transform="translate(0 0)"/>
  <path class="cls-6" d="M113.12,403.52l161.65-79.6" transform="translate(0 0)"/>
  <path class="cls-6" d="M263.38,336.49q7.8-9.86,15.87-14.78-8.83,3.39-21.39,3.57" transform="translate(0 0)"/>
  <path class="cls-7" d="M279.25,321.71l49.66-21.25,28.81-13.21" transform="translate(0 0)"/>
  <path class="cls-6" d="M529.89,201l-167.7,84" transform="translate(0 0)"/>
  <path class="cls-6" d="M373.49,272.39q-7.73,9.92-15.77,14.89,8.8-3.45,21.37-3.71" transform="translate(0 0)"/>
  <path class="cls-5" d="M529,191.31a21.11,21.11,0,0,1,21-21.2c.35,0,.69,0,1,0a23,23,0,0,1,22.13,22.71,21.11,21.11,0,0,1-21,21.2c-.35,0-.7,0-1.05,0A23,23,0,0,1,529,191.31Z" transform="translate(0 0)"/>
  <path class="cls-6" d="M569.41,178.59l62.37-31.18" transform="translate(0 0)"/>
  <path class="cls-6" d="M620.47,160.05q7.78-9.9,15.78-14.88-8.81,3.45-21.37,3.7" transform="translate(0 0)"/>
  <path class="cls-4" d="M238.9,240.85a21.17,21.17,0,0,1-20.69,21.64h-1.06a23,23,0,0,1-22.68-22.24,21.18,21.18,0,0,1,20.71-21.64c.35,0,.71,0,1.07,0A23,23,0,0,1,238.9,240.85Z" transform="translate(0 0)"/>
  <path class="cls-6" d="M194.3,251.71,28.93,331.93" transform="translate(0 0)"/>
  <path class="cls-6" d="M40.39,319.43q-7.85,9.81-16,14.68,8.85-3.33,21.42-3.44" transform="translate(0 0)"/>
  <path class="cls-6" d="M239.08,230l62.37-31.18" transform="translate(0 0)"/>
  <path class="cls-6" d="M290.14,211.46q7.74-9.9,15.78-14.88-8.81,3.45-21.37,3.7" transform="translate(0 0)"/>
  <path class="cls-7" d="M305.92,196.58l49.66-21.25,28.81-13.17" transform="translate(0 0)"/>
  <path class="cls-6" d="M425.46,137.46,587.1,57.85" transform="translate(0 0)"/>
  <path class="cls-6" d="M575.71,70.43q7.8-9.86,15.88-14.79-8.83,3.39-21.4,3.57" transform="translate(0 0)"/>
  <path class="cls-8" d="M252.35,371.63V370h-15.1v1.68Z" transform="translate(0 0)"/>
  <path class="cls-8" d="M262.44,359.54l3.18-.12c1.86,0,3.06.27,3.09.72l.24,2.67h.72a20.62,20.62,0,0,1,.63-4.56c-.66-.06-1.5-.09-2-.09h-1.23l-4.95.06h-.87c-.75,0-1.95,0-3.09-.06h-1.47l-.09.84,1.68.06c.72,0,1.05.3,1.05.81a17.51,17.51,0,0,1-.27,2.28l-2.25,13c-.51,2.76-.51,2.79-1.74,2.91l-1.08.09-.12.84h1c1.2,0,2.16-.06,2.79-.06s1.41,0,2.58.06h1.56l.09-.84-1.92-.09c-.81,0-1.08-.27-1.08-.87a3.36,3.36,0,0,1,.06-.63l1.08-6.69h3.51c.81,0,1.74,0,3.18.09h.78l.57-1.35-.12-.21c-2.43.12-4.23.18-6.57.18h-1.13l1.38-8.13a3.45,3.45,0,0,1,.27-1Z" transform="translate(0 0)"/>
  <path class="cls-9" d="M105.43,413.19v-2.36h-9.6v-9.52H93.47v9.52h-9.6v2.36h9.6v9.64h2.36v-9.64Z" transform="translate(0 0)"/>
  <path class="cls-10" d="M415.18,147.19V145H395v2.24Z" transform="translate(0 0)"/>
  <path class="cls-8" d="M623.87,200.17l-.21-.27-2,.51-.3,1.53a16.45,16.45,0,0,1-2.13,5.79c-1.77,2.73-4.11,4.86-5.31,4.86-.24,0-.39-.27-.39-.78a8.13,8.13,0,0,1,.21-1.56l1.71-8.13a7,7,0,0,0,.15-1.29c0-.57-.27-.93-.69-.93-.6,0-1.74.63-4,2.22l-.84.6.21.6,1-.63c.84-.54,1.17-.69,1.44-.69a.57.57,0,0,1,.51.6,5,5,0,0,1-.06.54l-1.92,8.91a8.39,8.39,0,0,0-.12,1.41,1.13,1.13,0,0,0,1,1.23c1.89,0,5.52-3.36,8-7.5L619,211.45a8.45,8.45,0,0,0-.33,2c0,.75.33,1.2.9,1.2.78,0,1.86-.63,4.8-2.82l-.3-.54-.78.51a4.57,4.57,0,0,1-1.83.81c-.24,0-.39-.21-.39-.51C621.17,211,623.42,201.88,623.87,200.17Z" transform="translate(0 0)"/>
  <path class="cls-10" d="M561.72,194.75v-2.24H541.56v2.24Z" transform="translate(0 0)"/>
  <path class="cls-8" d="M420.38,283.7l3.18-.12c1.86,0,3.06.27,3.09.72l.24,2.67h.72a20.62,20.62,0,0,1,.63-4.56c-.66-.06-1.5-.09-2-.09H425l-4.95.06h-.87c-.75,0-1.95,0-3.09-.06h-1.47l-.09.84,1.71.09c.72,0,1.05.3,1.05.81a17.51,17.51,0,0,1-.27,2.28l-2.25,13c-.51,2.76-.51,2.79-1.74,2.91l-1.08.09-.12.84h1c1.2,0,2.16-.06,2.79-.06s1.41,0,2.58.06h1.56l.09-.84-1.92-.09c-.81,0-1.08-.27-1.08-.87a3.36,3.36,0,0,1,.06-.63l1.08-6.69h3.51c.81,0,1.74,0,3.18.09h.78l.57-1.35-.12-.21c-2.43.12-4.23.18-6.57.18h-1.1l1.38-8.13a3.45,3.45,0,0,1,.27-1Z" transform="translate(0 0)"/>
  <path class="cls-8" d="M43.94,288.3v-1.68l-15.12.23v1.68Z" transform="translate(0 0)"/>
  <path class="cls-8" d="M53.84,276.05l3.18-.17c1.86,0,3.06.23,3.1.68l.28,2.66h.72a20.7,20.7,0,0,1,.56-4.57c-.66,0-1.5-.06-2-.06l-1.23.05-5,.14H48.06l-.08.84h1.68c.72,0,1.06.28,1.06.79a17.59,17.59,0,0,1-.23,2.29l-2.05,13c-.46,2.77-.46,2.8-1.69,2.94l-1.08.1-.11.84h1c1.2-.05,2.16-.09,2.79-.1h4.14l.08-.84-1.92-.06c-.81,0-1.09-.25-1.1-.85q0-.32,0-.63l1-6.71,3.51-.05h4l.55-1.35-.12-.21c-2.43.15-4.23.24-6.57.28H51.77L53,276.91a3.21,3.21,0,0,1,.26-1Z" transform="translate(0 0)"/>
  <path class="cls-9" d="M206.63,241.56l.05,2.36,9.6-.21.2,9.52h2.36l-.2-9.52,9.59-.2v-2.36l-9.59.2-.21-9.63-2.36.05.21,9.64Z" transform="translate(0 0)"/>
  <path class="cls-8" d="M239.56,169.33l-.21-.27-2,.51-.3,1.53a16.45,16.45,0,0,1-2.13,5.79c-1.77,2.73-4.11,4.86-5.31,4.86-.24,0-.39-.27-.39-.78a8.13,8.13,0,0,1,.21-1.56l1.71-8.13a7,7,0,0,0,.15-1.29c0-.57-.27-.93-.69-.93-.6,0-1.74.63-4,2.22l-.84.6.21.6,1-.63c.84-.54,1.17-.69,1.44-.69a.57.57,0,0,1,.51.6,5,5,0,0,1-.06.54l-1.93,8.95a8.39,8.39,0,0,0-.12,1.41,1.13,1.13,0,0,0,1,1.23h0c1.89,0,5.52-3.36,8-7.5l-1.11,4.26a8.45,8.45,0,0,0-.33,2c0,.75.33,1.2.9,1.2.78,0,1.86-.63,4.8-2.82l-.3-.54L239,181a4.57,4.57,0,0,1-1.83.81c-.24,0-.39-.21-.39-.51C236.86,180.16,239.11,171,239.56,169.33Z" transform="translate(0 0)"/>
  <path class="cls-8" d="M537.35,38.25l3.18-.12c1.86,0,3.06.27,3.09.72l.24,2.67h.72a20.62,20.62,0,0,1,.63-4.56c-.66-.06-1.5-.09-2-.09H542l-5,.06h-.87c-.75,0-2,0-3.09-.06h-1.47l-.09.84,1.68.06c.72,0,1.05.3,1.05.81a17.51,17.51,0,0,1-.27,2.28l-2.25,13c-.51,2.76-.51,2.79-1.74,2.91l-1.08.09-.12.84h1c1.2,0,2.16-.06,2.79-.06s1.41,0,2.58.06h1.56l.09-.84-1.92-.09c-.81,0-1.08-.27-1.08-.87a3.36,3.36,0,0,1,.06-.63l1.08-6.69h3.51c.81,0,1.74,0,3.18.09h.78l.57-1.35-.12-.21c-2.43.12-4.23.18-6.57.18h-1.11l1.38-8.13a3.45,3.45,0,0,1,.27-1Z" transform="translate(0 0)"/>
</svg>
