<svg id="Livello_1" data-name="Livello 1" xmlns="http://www.w3.org/2000/svg" xmlns:xlink="http://www.w3.org/1999/xlink" width="662.5" height="694.5" viewBox="0 0 662.5 694.5">
  <defs>
    <style>
      .cls-1, .cls-10, .cls-14, .cls-17, .cls-2, .cls-4, .cls-5, .cls-6, .cls-7, .cls-8 {
        fill: none;
      }

      .cls-2, .cls-3 {
        stroke: #d3d3d3;
        stroke-width: 0.5px;
      }

      .cls-3 {
        fill: url(#_.10595472142447826);
      }

      .cls-10, .cls-12, .cls-13, .cls-14, .cls-15, .cls-16, .cls-17, .cls-18, .cls-20, .cls-4, .cls-5, .cls-7, .cls-8 {
        stroke: #000;
      }

      .cls-10, .cls-4, .cls-6 {
        stroke-width: 4px;
      }

      .cls-5, .cls-7, .cls-8 {
        stroke-width: 3px;
      }

      .cls-5 {
        stroke-dasharray: 3.38 4.02;
      }

      .cls-11, .cls-6 {
        stroke: red;
      }

      .cls-8 {
        stroke-dasharray: 9 6;
      }

      .cls-11, .cls-9 {
        fill: red;
      }

      .cls-10 {
        stroke-linecap: round;
        stroke-linejoin: round;
      }

      .cls-11, .cls-12, .cls-13, .cls-15, .cls-16, .cls-18, .cls-19, .cls-20 {
        stroke-miterlimit: 10;
      }

      .cls-11, .cls-16, .cls-19 {
        stroke-width: 0.24px;
      }

      .cls-12 {
        stroke-width: 0.4px;
      }

      .cls-13 {
        stroke-width: 0.24px;
      }

      .cls-14 {
        stroke-width: 2px;
      }

      .cls-15 {
        stroke-width: 0.17px;
      }

      .cls-17 {
        stroke-width: 2px;
      }

      .cls-18 {
        stroke-width: 0.17px;
      }

      .cls-19 {
        fill: #ff0505;
        stroke: #ff0505;
      }

      .cls-20 {
        stroke-width: 1.36px;
      }
    </style>
    <pattern id="_.10595472142447826" data-name=".10595472142447826" width="10" height="10" patternTransform="matrix(1, 0, 0, -1, -2.75, 846.14)" patternUnits="userSpaceOnUse" viewBox="0 0 10 10">
      <rect class="cls-1" width="10" height="10"/>
      <path class="cls-2" d="M10,10H0V0"/>
    </pattern>
  </defs>
  <rect class="cls-3" x="0.25" y="0.25" width="662" height="694"/>
  <g>
    <path class="cls-4" d="M267.62,315.46c-50.73,14.45-121.71,2.91-158-20.3" transform="translate(0.25 0.25)"/>
    <path class="cls-5" d="M375.59,95.6,109.42,403.23" transform="translate(0.25 0.25)"/>
    <path class="cls-6" d="M89.71,412.65a12.19,12.19,0,1,1,12.19,12.19A12.18,12.18,0,0,1,89.71,412.65Z" transform="translate(0.25 0.25)"/>
    <g>
      <path class="cls-7" d="M185.1,313l-12.33,45.76" transform="translate(0.25 0.25)"/>
      <path d="M168.57,348l2.9,15.58,10.34-12Z" transform="translate(0.25 0.25)"/>
    </g>
    <path class="cls-8" d="M128.23,167.91,101.9,400.47" transform="translate(0.25 0.25)"/>
    <path class="cls-8" d="M157.12,116.07,103.36,401.73" transform="translate(0.25 0.25)"/>
    <path class="cls-4" d="M286.43,297.18c-16.22,4.62-34.51,6.58-53.08,6.36-39.49-.48-80.24-10.88-104.94-26.66" transform="translate(0.25 0.25)"/>
    <path class="cls-4" d="M267.62,315.46l18.81-18.28" transform="translate(0.25 0.25)"/>
    <path class="cls-4" d="M109.6,295.16l18.81-18.28" transform="translate(0.25 0.25)"/>
    <path class="cls-8" d="M551,101.67,112.53,406.3" transform="translate(0.25 0.25)"/>
    <path class="cls-8" d="M518.54,168.56,113.82,408.76" transform="translate(0.25 0.25)"/>
    <path class="cls-4" d="M163.76,99.3c115.06-65,291.92-55.4,391,4.26" transform="translate(0.25 0.25)"/>
    <path class="cls-4" d="M127.53,164.29c36.79-20.78,79.9-33.93,124.76-40.26,95.45-13.48,198.85,3.94,266.25,44.53" transform="translate(0.25 0.25)"/>
    <path class="cls-4" d="M163.76,99.3l-36.23,65" transform="translate(0.25 0.25)"/>
    <path class="cls-4" d="M554.77,103.56l-36.23,65" transform="translate(0.25 0.25)"/>
    <g>
      <path class="cls-6" d="M185.1,313l59.33-65.47" transform="translate(0.25 0.25)"/>
      <path class="cls-9" d="M243.1,261.11l5.35-18.05L231,250.17Z" transform="translate(0.25 0.25)"/>
    </g>
    <path class="cls-10" d="M161.09,92.65c-5.25,0-11,5.88-16.22,9s-10.66,4.17-17.11,9c-1.87,1.4-4.54,5.2-7.21,7.2-20.06,15-39.22,34.87-52.24,57.65-5.06,8.86-4.3,21.64-5.4,31.53C59.4,238.58,67,263.37,84.53,280.89c1,1,3.41,6.21,5.4,7.21,23.52,11.76,43.69,20.15,71.16,27,11.68,2.92,25.58,8.45,37.82,9,22.79,1,45.11-2.6,67.56-5.41.87-.11,5.13-2.44,7.2-2.7,33.85-4.23,66.9-9.87,102.68-8.11,11.53.57,21.27,5.19,32.43,6.31,25.4,2.54,51.58,8,77.46,5.4,45.09-4.51,71.77-27.14,92.77-62.15,5-8.33,11.27-36.05,12.61-46.83,3.24-25.88,7.27-53.92-4.5-77.46-.6-1.19-4.34-4.34-5.4-5.41-2.18-2.17-3.17-7.67-5.41-9.91-9.42-9.41-16.39-13.59-28.82-19.81-.08,0-1.75-2.68-1.8-2.7-7.85-2.62-20.43-11-27.92-13.51C465.2,64.31,409.13,49.45,346.63,53.91c-25.85,1.85-54.38,2.31-78.36,6.31-11.95,2-23.94,6-34.23,8.11-14.41,2.88-23.29,3.54-34.22,9C189.25,82.62,180.55,88,169.19,90.84c-3.51.88-8.93,4.51-11.71,4.51" transform="translate(0.25 0.25)"/>
    <g>
      <path class="cls-6" d="M375.59,95.6,430,30.53" transform="translate(0.25 0.25)"/>
      <path class="cls-9" d="M429.23,44.17l4.64-18.24-17.14,7.79Z" transform="translate(0.25 0.25)"/>
    </g>
    <g>
      <path class="cls-7" d="M375.59,94.73V32.21" transform="translate(0.25 0.25)"/>
      <path d="M382.45,41.5l-6.86-14.29L368.73,41.5Z" transform="translate(0.25 0.25)"/>
    </g>
  </g>
  <path class="cls-11" d="M109.53,414.79V413h-7.2v-7.14h-1.77V413h-7.2v1.77h7.2V422h1.77v-7.23Z" transform="translate(0.25 0.25)"/>
  <path class="cls-12" d="M125.67,422.77a13.41,13.41,0,0,0-5-1.2c-3.75,0-8.15,4.4-9.05,5.4-2,2.35-3.95,9.65-3.95,14.8,0,3,.6,4.45,1.8,4.45s2-.4,3.65-1.5a30.38,30.38,0,0,0,8.75-9.5l-3.8,20.7a6.07,6.07,0,0,1-1.35,2.85l.45.7a36,36,0,0,1,4.3-.85,78.6,78.6,0,0,1,1-7.95l4.3-22.8A41.35,41.35,0,0,1,128,422l-.7-.3Zm-13.35,20c-.7,0-1.1-1.05-1.1-2.7,0-4.8,2.15-12.3,4.25-14.8a4.91,4.91,0,0,1,3.65-1.2c1.4,0,2.45.3,4.85,1.35l-1,4.75C121.47,437,114.42,442.72,112.32,442.72Z" transform="translate(0.25 0.25)"/>
  <g>
    <g>
      <path class="cls-13" d="M146,325.8l-.21-.27-2.05.49-.31,1.52a16.45,16.45,0,0,1-2.2,5.77c-1.8,2.71-4.16,4.81-5.36,4.8-.24,0-.39-.27-.38-.78a7.34,7.34,0,0,1,.23-1.56l1.8-8.11a7.19,7.19,0,0,0,.16-1.29c0-.57-.26-.93-.68-.94-.6,0-1.75.61-4,2.18l-.85.59.2.6,1-.62c.85-.53,1.18-.68,1.45-.67a.56.56,0,0,1,.5.6,2.5,2.5,0,0,1-.07.54l-2,8.89a7.89,7.89,0,0,0-.14,1.41,1.13,1.13,0,0,0,1,1.24c1.89,0,5.55-3.3,8.12-7.41L141.11,337a7.81,7.81,0,0,0-.35,2c0,.75.32,1.21.89,1.21.78,0,1.86-.61,4.83-2.76l-.3-.55-.78.51a4.72,4.72,0,0,1-1.84.79c-.24,0-.39-.22-.39-.52C143.19,336.6,145.54,327.51,146,325.8Z" transform="translate(0.25 0.25)"/>
      <polyline class="cls-14" points="131.56 320.41 139.95 314.95 148.22 320.59"/>
    </g>
    <path class="cls-15" d="M149.11,343l.14.43.68-.44c.78-.47.84-.51,1-.51s.37.21.37.53a50.44,50.44,0,0,1-1.81,8.1l.14.24a14,14,0,0,1,1.48-.34,11.9,11.9,0,0,1,1.86-5.44c1.16-1.75,2.75-3,3.69-3,.23,0,.36.19.35.51a5.76,5.76,0,0,1-.25,1.49L155.61,349a8.35,8.35,0,0,0-.29,1.59c0,.53.22.84.62.85.55,0,1.31-.43,3.38-1.94l-.2-.38-.55.35a3.58,3.58,0,0,1-1.29.62c-.15,0-.27-.19-.27-.43a2.84,2.84,0,0,1,.05-.42l1.45-5.78a8.11,8.11,0,0,0,.25-1.55c0-.48-.22-.76-.64-.76a6.57,6.57,0,0,0-3.6,1.91,17.9,17.9,0,0,0-2.51,3l.84-3.37a3.73,3.73,0,0,0,.13-.86c0-.45-.16-.7-.47-.7s-1.27.45-2.81,1.52Z" transform="translate(0.25 0.25)"/>
  </g>
  <g>
    <g>
      <path class="cls-16" d="M356.4,70.5l-.21-.27-2,.51-.3,1.53a16.47,16.47,0,0,1-2.13,5.79c-1.77,2.73-4.11,4.86-5.31,4.86-.24,0-.39-.27-.39-.78a7.7,7.7,0,0,1,.21-1.56l1.71-8.13a7.11,7.11,0,0,0,.15-1.29c0-.57-.27-.93-.69-.93-.6,0-1.74.63-4,2.22l-.84.6.21.6,1-.63c.84-.54,1.17-.69,1.44-.69a.57.57,0,0,1,.51.6,3.31,3.31,0,0,1-.06.54l-1.89,8.91a9.17,9.17,0,0,0-.12,1.41A1.13,1.13,0,0,0,344.7,85c1.89,0,5.52-3.36,8-7.5l-1.11,4.26a8.18,8.18,0,0,0-.33,2c0,.75.33,1.2.9,1.2.78,0,1.86-.63,4.8-2.82l-.3-.54-.78.51a4.6,4.6,0,0,1-1.83.81c-.24,0-.39-.21-.39-.51C353.7,81.33,356,72.21,356.4,70.5Z" transform="translate(0.25 0.25)"/>
      <polyline class="cls-17" points="341.89 65.27 350.22 59.72 358.55 65.27"/>
    </g>
    <path class="cls-18" d="M359.69,87.63l.15.42.67-.44c.78-.48.84-.52,1-.52s.38.21.38.52a50.67,50.67,0,0,1-1.73,8.13l.15.23c.53-.15,1-.27,1.47-.36a12,12,0,0,1,1.81-5.46c1.13-1.76,2.71-3.06,3.65-3.06.23,0,.36.19.36.5a6.52,6.52,0,0,1-.23,1.49l-1.1,4.45a8.05,8.05,0,0,0-.27,1.6c0,.53.23.84.63.84.55,0,1.3-.44,3.36-2l-.21-.38-.54.36a3.66,3.66,0,0,1-1.29.63c-.14,0-.27-.19-.27-.42a2.61,2.61,0,0,1,0-.42L369.1,88a7.32,7.32,0,0,0,.23-1.55c0-.49-.23-.76-.65-.76a6.59,6.59,0,0,0-3.57,2,17.38,17.38,0,0,0-2.48,3l.8-3.38a4.27,4.27,0,0,0,.13-.86c0-.44-.17-.69-.49-.69s-1.26.46-2.79,1.55Z" transform="translate(0.25 0.25)"/>
  </g>
  <path class="cls-19" d="M442.3,45h3.51l4,.12.57-1.35-.12-.21c-2.43.12-4.23.18-6.57.18h-1.11l1.41-8.1c1,0,3.45-.12,4.11-.12,1.86,0,3.09.27,3.12.72l.24,2.67h.72a20.27,20.27,0,0,1,.63-4.56c-.63-.06-1.53-.09-2.07-.09-.09,0-.42,0-1.14,0l-3.6,0c-.27,0-5.49,0-5.79,0l-1.35,0-.09.84,1.62.06c.72,0,1,.27,1,.81a18.52,18.52,0,0,1-.27,2.28l-2.61,15.12c-.12.54-.48.75-1.8,1l-.15.78,1.23,0c.93,0,2.79-.06,3.39-.06l6.75.09c.42,0,1.17,0,2.16-.06l1,0,.12-1.08c.06-.6.21-1.5.48-3l.15-.78H451l-.48,1.8c-.3,1.08-.57,1.44-1.23,1.59a34.72,34.72,0,0,1-4.41.27,40.28,40.28,0,0,1-4.11-.21Z" transform="translate(0.25 0.25)"/>
  <g>
    <path class="cls-16" d="M273.08,320l-.36-.33a11.75,11.75,0,0,1-4.8,1.26l-.12.63h1.44c.72,0,1,.21,1,.72a5.37,5.37,0,0,1-.06.72l-.84,4.62a8.63,8.63,0,0,0-2.46-.42c-2.07,0-4.89,2.16-6.27,4.77a16.57,16.57,0,0,0-1.53,7.11c0,1.95.45,2.91,1.32,2.91a5.35,5.35,0,0,0,2.94-1.32,21.22,21.22,0,0,0,4.62-5.52l-.69,2.73a13,13,0,0,0-.48,3.06c0,.63.27,1,.78,1a4.53,4.53,0,0,0,2.25-1.11l2.43-1.8-.3-.57-1.32.93a2.51,2.51,0,0,1-1.17.51c-.24,0-.42-.27-.42-.69a5.82,5.82,0,0,1,.24-1.38ZM262,339.87c-.48,0-.75-.42-.75-1.17,0-3.78,1.38-8.46,2.85-9.6a2.84,2.84,0,0,1,1.77-.45,6.3,6.3,0,0,1,3.18.69l-.36,1.77C267.59,336.51,263.36,339.87,262,339.87Zm28.71,1.89c.39-2,.72-3.93,1.26-5.91v-.09h-.66v.09c-1,2.46-1.26,3.51-4.11,3.51H276.47c2.49-3.24,5.1-6.45,7.77-9.51-1.35-2.43-2.49-5-3.63-7.53h7.59c3,0,3.12.51,3,3.24h.66v-.12c.33-1.41.57-2.88,1-4.29V321c-5.22.24-10.56.21-15.78.24v.48a90.54,90.54,0,0,1,4.59,9.75,110.86,110.86,0,0,1-8.64,9.75v.57C279,341.61,284.81,341.61,290.72,341.76Z" transform="translate(0.25 0.25)"/>
    <path class="cls-18" d="M303.75,347v-.63l-1.1-.06c-1.15-.06-1.36-.29-1.36-1.38V332.22l-5.06,2.14.15,1.05,3.15-1.38v10.88c0,1.09-.24,1.32-1.37,1.38l-1.18.06V347l3.47-.06C301.1,346.92,303.41,347,303.75,347Z" transform="translate(0.25 0.25)"/>
  </g>
  <g>
    <path class="cls-16" d="M551.41,143.36l-.36-.33a11.75,11.75,0,0,1-4.8,1.26l-.12.63h1.44c.72,0,1,.21,1,.72a5.37,5.37,0,0,1-.06.72l-.84,4.62a8.63,8.63,0,0,0-2.46-.42c-2.07,0-4.89,2.16-6.27,4.77a16.57,16.57,0,0,0-1.53,7.11c0,1.95.45,2.91,1.32,2.91a5.35,5.35,0,0,0,2.94-1.32,21.22,21.22,0,0,0,4.62-5.52l-.69,2.73a13,13,0,0,0-.48,3.06c0,.63.27,1,.78,1a4.53,4.53,0,0,0,2.25-1.11l2.43-1.8-.3-.57-1.32.93a2.51,2.51,0,0,1-1.17.51c-.24,0-.42-.27-.42-.69a5.82,5.82,0,0,1,.24-1.38Zm-11.07,19.89c-.48,0-.75-.42-.75-1.17,0-3.78,1.38-8.46,2.85-9.6a2.84,2.84,0,0,1,1.77-.45,6.3,6.3,0,0,1,3.18.69l-.36,1.77C545.92,159.89,541.69,163.25,540.34,163.25Zm28.71,1.89c.39-2,.72-3.93,1.26-5.91v-.09h-.66v.09c-1,2.46-1.26,3.51-4.11,3.51H554.8c2.49-3.24,5.1-6.45,7.77-9.51-1.35-2.43-2.49-5-3.63-7.53h7.59c3,0,3.12.51,3,3.24h.66v-.12c.33-1.41.57-2.88,1-4.29v-.18c-5.22.24-10.56.21-15.78.24v.48a90.54,90.54,0,0,1,4.59,9.75,110.86,110.86,0,0,1-8.64,9.75v.57C557.32,165,563.14,165,569.05,165.14Z" transform="translate(0.25 0.25)"/>
    <path class="cls-18" d="M573.63,169.81v.55c3.93,0,3.93-.06,4.69-.06s.75.06,4.8.06v-1.79c-2.41.11-3.38,0-7.26.11l3.82-4.05c2-2.17,2.67-3.32,2.67-4.9,0-2.41-1.64-3.9-4.31-3.9a4.52,4.52,0,0,0-3.57,1.47l-.35,2.85h.6l.28-1a2.22,2.22,0,0,1,2.5-1.75,2.75,2.75,0,0,1,3,2.92c0,1.58-.88,3.13-3.26,5.65Z" transform="translate(0.25 0.25)"/>
  </g>
  <path class="cls-19" d="M246.47,271.62H250l4,.12.57-1.35-.12-.21c-2.43.12-4.23.18-6.57.18h-1.11l1.41-8.1c1,0,3.45-.12,4.11-.12,1.86,0,3.09.27,3.12.72l.24,2.67h.72a20.27,20.27,0,0,1,.63-4.56c-.63-.06-1.53-.09-2.07-.09-.09,0-.42,0-1.14,0l-3.6,0c-.27,0-5.49,0-5.79,0l-1.35,0-.09.84,1.62.06c.72,0,1,.27,1,.81a18.52,18.52,0,0,1-.27,2.28L242.69,280c-.12.54-.48.75-1.8,1l-.15.78,1.23,0c.93,0,2.79-.06,3.39-.06l6.75.09c.42,0,1.17,0,2.16-.06l1,0,.12-1.08c.06-.6.21-1.5.48-3l.15-.78h-.81l-.48,1.8c-.3,1.08-.57,1.44-1.23,1.59a34.72,34.72,0,0,1-4.41.27,40.28,40.28,0,0,1-4.11-.21Z" transform="translate(0.25 0.25)"/>
  <g>
    <path class="cls-16" d="M53.94,536.49v-.93a6.4,6.4,0,0,1-2.4-.39,5.33,5.33,0,0,1,.18-2.25c5.25,0,9.66-1.83,10.68-7.71,1-5.49-3.78-6.39-8.19-6.39.48-2.49.81-2.07,3.24-2.22v-.9c-2.64.12-5.22.12-7.89,0v.9c2.34.15,2.7-.3,2.34,2.22-4.74,0-9.57,1.17-10.56,6.81s3.21,7.29,8.07,7.29c-.51,2.82-.6,2.46-3.36,2.64v.93A62.94,62.94,0,0,1,53.94,536.49Zm5.43-10.89c-.72,4-3.45,6.51-7.53,6.63l2.22-12.66C58,519.63,60.09,521.43,59.37,525.6Zm-9.84,6.63c-4-.12-5.94-2.58-5.22-6.6.75-4.32,3.33-5.91,7.44-6.06Z" transform="translate(0.25 0.25)"/>
    <path class="cls-18" d="M72.57,541.72v-.63L71.48,541c-1.15-.07-1.36-.3-1.36-1.39V527l-5.06,2.14.14,1,3.15-1.39v10.88c0,1.09-.23,1.32-1.36,1.39l-1.18.06v.63l3.47-.06C69.93,541.66,72.24,541.72,72.57,541.72Z" transform="translate(0.25 0.25)"/>
    <path class="cls-18" d="M80,536.07c0-5.46,2-7.69,3.26-9.11l-.4-.55a12.06,12.06,0,0,0-4.66,9.66,13.18,13.18,0,0,0,1.53,6.26,13,13,0,0,0,3.13,3.84l.4-.44C82.32,544.53,80,542,80,536.07Z" transform="translate(0.25 0.25)"/>
    <path class="cls-18" d="M91.27,534.64h2.45l2.77.09.4-1-.08-.15c-1.7.09-3,.13-4.6.13h-.78l1-5.67c.67,0,2.42-.08,2.88-.08,1.3,0,2.16.19,2.18.5l.17,1.87h.5a14.71,14.71,0,0,1,.44-3.19c-.44,0-1.07-.07-1.44-.07-.07,0-.3,0-.8,0l-2.52,0c-.19,0-3.85,0-4.06,0l-.94,0-.06.59,1.13,0c.5,0,.74.19.74.57a14,14,0,0,1-.19,1.6L88.62,540.5c-.08.38-.34.53-1.26.67l-.11.55.87,0,2.37,0,4.72.06,1.52,0,.69,0,.08-.76c0-.42.15-1,.34-2.08l.1-.54h-.56L97,539.54c-.21.75-.4,1-.86,1.11a25,25,0,0,1-3.09.19,27,27,0,0,1-2.87-.15Z" transform="translate(0.25 0.25)"/>
    <path class="cls-18" d="M103.2,526.41l-.4.55c1.15,1.34,3.25,3.65,3.25,9.11,0,5.8-2.18,8.34-3.25,9.66l.4.44a12.91,12.91,0,0,0,4.66-10.08A12.1,12.1,0,0,0,103.2,526.41Z" transform="translate(0.25 0.25)"/>
    <path class="cls-16" d="M138,526v-1.77H121.82V526Zm0,6.39v-1.77H121.82v1.77Z" transform="translate(0.25 0.25)"/>
    <g>
      <g>
        <path class="cls-16" d="M155.54,526.35h3.51l4,.12.57-1.35-.12-.21c-2.43.12-4.23.18-6.57.18h-1.11l1.41-8.1c1,0,3.45-.12,4.11-.12,1.86,0,3.09.27,3.12.72l.24,2.67h.72a20.27,20.27,0,0,1,.63-4.56c-.63-.06-1.53-.09-2.07-.09-.09,0-.42,0-1.14,0l-3.6,0c-.27,0-5.49,0-5.79,0l-1.35,0-.09.84,1.62.06c.72,0,1,.27,1,.81a18.52,18.52,0,0,1-.27,2.28l-2.61,15.12c-.12.54-.48.75-1.8,1l-.15.78,1.23,0c.93,0,2.79-.06,3.39-.06l6.75.09c.42,0,1.17,0,2.16-.06l1,0,.12-1.08c.06-.6.21-1.5.48-3l.15-.78h-.81l-.48,1.8c-.3,1.08-.57,1.44-1.23,1.59a34.72,34.72,0,0,1-4.41.27A40.28,40.28,0,0,1,154,535Z" transform="translate(0.25 0.25)"/>
        <path class="cls-18" d="M176.87,541.72v-.63l-1.09-.06c-1.16-.07-1.37-.3-1.37-1.39V527l-5.06,2.14.15,1,3.15-1.39v10.88c0,1.09-.23,1.32-1.36,1.39l-1.18.06v.63l3.46-.06C174.23,541.66,176.54,541.72,176.87,541.72Z" transform="translate(0.25 0.25)"/>
      </g>
      <path d="M181.86,505.88l-6.18-6.51-1,1L178.5,505h-.3v1.77h.3l-3.78,4.56,1,1Zm-29.65.75H181v-1.77H152.21Z" transform="translate(0.25 0.25)"/>
    </g>
    <g>
      <path class="cls-16" d="M195.13,522.18l-.21-.27-2,.51-.3,1.53a16.47,16.47,0,0,1-2.13,5.79c-1.77,2.73-4.11,4.86-5.31,4.86-.24,0-.39-.27-.39-.78a7.7,7.7,0,0,1,.21-1.56l1.71-8.13a7.11,7.11,0,0,0,.15-1.29c0-.57-.27-.93-.69-.93-.6,0-1.74.63-4,2.22l-.84.6.21.6,1-.63c.84-.54,1.17-.69,1.44-.69a.57.57,0,0,1,.51.6,3.31,3.31,0,0,1-.06.54l-1.89,8.91a9.17,9.17,0,0,0-.12,1.41,1.13,1.13,0,0,0,1.05,1.23c1.89,0,5.52-3.36,8-7.5l-1.11,4.26a8.18,8.18,0,0,0-.33,2c0,.75.33,1.2.9,1.2.78,0,1.86-.63,4.8-2.82l-.3-.54-.78.51a4.6,4.6,0,0,1-1.83.81c-.24,0-.39-.21-.39-.51C192.43,533,194.68,523.89,195.13,522.18Z" transform="translate(0.25 0.25)"/>
      <polyline class="cls-17" points="180.63 516.96 188.96 511.4 197.28 516.96"/>
    </g>
    <path class="cls-18" d="M198.43,539.32l.14.42.67-.44c.78-.48.84-.53,1-.53s.38.21.38.53a50.59,50.59,0,0,1-1.72,8.13l.14.23a14.85,14.85,0,0,1,1.47-.36,12,12,0,0,1,1.81-5.46c1.13-1.76,2.71-3.07,3.65-3.07.24,0,.36.19.36.51a6,6,0,0,1-.23,1.49L205,545.22a7.36,7.36,0,0,0-.27,1.6c0,.52.23.84.63.84s1.3-.44,3.36-2l-.21-.37-.55.35a3.47,3.47,0,0,1-1.28.63c-.15,0-.27-.19-.27-.42a2.85,2.85,0,0,1,0-.42l1.38-5.79a7.31,7.31,0,0,0,.23-1.56c0-.48-.23-.75-.65-.75a6.52,6.52,0,0,0-3.57,1.95,17.48,17.48,0,0,0-2.47,3l.79-3.38a3.73,3.73,0,0,0,.13-.86c0-.44-.17-.69-.48-.69s-1.26.46-2.8,1.55Z" transform="translate(0.25 0.25)"/>
    <path class="cls-16" d="M225.86,514.71l-.36-.33a11.75,11.75,0,0,1-4.8,1.26l-.12.63H222c.72,0,1,.21,1,.72a5.37,5.37,0,0,1-.06.72l-.84,4.62a8.63,8.63,0,0,0-2.46-.42c-2.07,0-4.89,2.16-6.27,4.77a16.57,16.57,0,0,0-1.53,7.11c0,2,.45,2.91,1.32,2.91a5.35,5.35,0,0,0,2.94-1.32,21.22,21.22,0,0,0,4.62-5.52l-.69,2.73a13,13,0,0,0-.48,3.06c0,.63.27,1,.78,1a4.53,4.53,0,0,0,2.25-1.11l2.43-1.8-.3-.57-1.32.93a2.51,2.51,0,0,1-1.17.51c-.24,0-.42-.27-.42-.69a5.82,5.82,0,0,1,.24-1.38ZM214.79,534.6c-.48,0-.75-.42-.75-1.17,0-3.78,1.38-8.46,2.85-9.6a2.84,2.84,0,0,1,1.77-.45,6.3,6.3,0,0,1,3.18.69l-.36,1.77C220.37,531.24,216.14,534.6,214.79,534.6Zm28.71,1.89c.39-2,.72-3.93,1.26-5.91v-.09h-.66v.09c-1,2.46-1.26,3.51-4.11,3.51H229.25c2.49-3.24,5.1-6.45,7.77-9.51-1.35-2.43-2.49-5-3.63-7.53H241c3,0,3.12.51,3,3.24h.66v-.12c.33-1.41.57-2.88,1-4.29v-.18c-5.22.24-10.56.21-15.78.24v.48a90.54,90.54,0,0,1,4.59,9.75,110.86,110.86,0,0,1-8.64,9.75v.57C231.77,536.34,237.59,536.34,243.5,536.49Z" transform="translate(0.25 0.25)"/>
    <path class="cls-18" d="M256.53,541.72v-.63l-1.09-.06c-1.16-.07-1.37-.3-1.37-1.39V527L249,529.1l.15,1,3.15-1.39v10.88c0,1.09-.23,1.32-1.37,1.39l-1.17.06v.63l3.46-.06C253.88,541.66,256.19,541.72,256.53,541.72Z" transform="translate(0.25 0.25)"/>
    <path class="cls-16" d="M287.14,526v-1.77H271V526Zm0,6.39v-1.77H271v1.77Z" transform="translate(0.25 0.25)"/>
    <path class="cls-16" d="M320.68,529.08V527.4H305.56v1.68Z" transform="translate(0.25 0.25)"/>
    <g>
      <path class="cls-16" d="M366.61,501.63a8,8,0,0,0-3-.72c-2.25,0-4.89,2.64-5.43,3.24-1.2,1.41-2.37,5.79-2.37,8.88,0,1.77.36,2.67,1.08,2.67a3.76,3.76,0,0,0,2.19-.9,18.23,18.23,0,0,0,5.25-5.7L362,521.52a3.64,3.64,0,0,1-.81,1.71l.27.42a21.59,21.59,0,0,1,2.58-.51,47.16,47.16,0,0,1,.57-4.77l2.58-13.68a24.81,24.81,0,0,1,.81-3.54l-.42-.18Zm-8,12c-.42,0-.66-.63-.66-1.62,0-2.88,1.29-7.38,2.55-8.88a2.94,2.94,0,0,1,2.19-.72,6.67,6.67,0,0,1,2.91.81L365,506C364.09,510.15,359.86,513.6,358.6,513.6Z" transform="translate(0.25 0.25)"/>
      <g>
        <path class="cls-16" d="M339.56,554.94v2.25c0,1.8-.33,2.22-1.8,2.28l-1.86.09v.9c4-.09,4-.09,4.71-.09s.72,0,4.71.09v-.9l-1.44-.09c-1.47-.09-1.8-.48-1.8-2.28v-2.25a26.91,26.91,0,0,1,3.24.12v-2.13l-3.24.09,0-13.56-2.4.9-8.49,13.89v.69Zm0-1.92h-6.45l6.45-10.56Zm22.32,6.09c-1.68,0-1.83-2.49-1.8-3.72a14.42,14.42,0,0,1,2.16-7.17l1.86-.39a10.51,10.51,0,0,1,.42-1.47c-4.62.18-9.39.12-14,0-2,0-2.37,2.31-2.94,3.78,0,.24.36.27.48.36v-.12c1.29-1.89,2-2.19,4.26-2.19H353c-1.2,4.17-2,8.28-3.9,12.21v.3a8.77,8.77,0,0,0,2.16-.75c1.23-3.84,2.1-7.83,2.94-11.76H361a17.3,17.3,0,0,0-3,8.91c0,1.47.45,3.69,2.28,3.69,1.23,0,2.91-1.2,3.81-2v-.45h-.36v0A3.67,3.67,0,0,1,361.88,559.11Zm13.8-5.4a8.81,8.81,0,0,1,.45-1.23c-2.37.06-4.68,0-7,0,.57-2.61,2.22-5.28,5.22-5.28,1.8,0,2.46.54,3.27,2.07h.6l1.23-1.59c-5.25-5.1-13.32,1.83-13.32,8,0,3.39,2,5,5.19,5,2.31,0,4.23-1.74,6-3.09V557c-1.41,1-3.09,2.16-4.86,2.16-2.22,0-4.05-2.61-3.57-5.43C369.23,553.8,374.87,553.71,375.68,553.71Z" transform="translate(0.25 0.25)"/>
        <path class="cls-18" d="M386.07,551.19c-3.26,0-4.91,2.58-4.91,7.66,0,2.46.44,4.58,1.17,5.61a3.9,3.9,0,0,0,3.21,1.62c3.18,0,4.77-2.73,4.77-8.11C390.31,553.37,389,551.19,386.07,551.19Zm-.38.73c2,0,2.86,2.06,2.86,7.1,0,4.47-.8,6.32-2.73,6.32s-2.9-2.12-2.9-7.24C382.92,553.67,383.7,551.92,385.69,551.92Z" transform="translate(0.25 0.25)"/>
      </g>
      <line class="cls-17" x1="331.41" y1="529.14" x2="393.08" y2="529.14"/>
    </g>
    <path class="cls-16" d="M425.24,514.71l-.36-.33a11.75,11.75,0,0,1-4.8,1.26l-.12.63h1.44c.72,0,1,.21,1,.72a5.37,5.37,0,0,1-.06.72l-.84,4.62a8.63,8.63,0,0,0-2.46-.42c-2.07,0-4.89,2.16-6.27,4.77a16.57,16.57,0,0,0-1.53,7.11c0,2,.45,2.91,1.32,2.91a5.35,5.35,0,0,0,2.94-1.32,21.22,21.22,0,0,0,4.62-5.52l-.69,2.73a13,13,0,0,0-.48,3.06c0,.63.27,1,.78,1a4.53,4.53,0,0,0,2.25-1.11l2.43-1.8-.3-.57-1.32.93a2.51,2.51,0,0,1-1.17.51c-.24,0-.42-.27-.42-.69a5.82,5.82,0,0,1,.24-1.38ZM414.17,534.6c-.48,0-.75-.42-.75-1.17,0-3.78,1.38-8.46,2.85-9.6a2.84,2.84,0,0,1,1.77-.45,6.3,6.3,0,0,1,3.18.69l-.36,1.77C419.75,531.24,415.52,534.6,414.17,534.6ZM440,516.06c5.82,0,6.78,4,5.88,9.09-.72,4.23-2.91,8.55-7.8,9.18l-.36,2c3.09.06,6.24.06,9.3.18.36-1.5.75-3,1.23-4.53v-.09h-.57V532c-.66,1.59-.75,2.1-2.55,2.1h-3.84a12.61,12.61,0,0,0,7.92-9.69c1.14-6.48-3.09-9.18-9.06-9.18s-11.49,2.49-12.66,9.18c-.78,4.32.78,8,4.5,9.69h-3.87c-1.83,0-1.77-.6-1.89-2.19h-.6c-.06,1.53-.15,3.09-.27,4.62,3.12-.12,6.24-.09,9.33-.18l.36-2c-4.71-.63-5.28-5-4.53-9.27C431.48,519.81,434.33,516.06,440,516.06Z" transform="translate(0.25 0.25)"/>
  </g>
  <g>
    <path class="cls-16" d="M54.93,614.85v-.93a6.4,6.4,0,0,1-2.4-.39,5.33,5.33,0,0,1,.18-2.25c5.25,0,9.66-1.83,10.68-7.71,1-5.49-3.78-6.39-8.19-6.39.48-2.49.81-2.07,3.24-2.22v-.9c-2.64.12-5.22.12-7.89,0v.9c2.34.15,2.7-.3,2.34,2.22-4.74,0-9.57,1.17-10.56,6.81s3.21,7.29,8.07,7.29c-.51,2.82-.6,2.46-3.36,2.64v.93A62.94,62.94,0,0,1,54.93,614.85ZM60.36,604c-.72,4-3.45,6.51-7.53,6.63l2.22-12.66C59,598,61.08,599.79,60.36,604Zm-9.84,6.63c-4-.12-5.94-2.58-5.22-6.6.75-4.32,3.33-5.91,7.44-6.06Z" transform="translate(0.25 0.25)"/>
    <path class="cls-18" d="M65.12,619.53v.55c3.92,0,3.92-.06,4.68-.06s.76.06,4.81.06v-1.79c-2.42.11-3.38,0-7.27.11l3.83-4c2-2.17,2.66-3.32,2.66-4.9,0-2.41-1.64-3.9-4.3-3.9A4.52,4.52,0,0,0,66,607l-.36,2.85h.61l.27-1a2.22,2.22,0,0,1,2.5-1.75,2.75,2.75,0,0,1,3,2.92c0,1.58-.88,3.13-3.25,5.65Z" transform="translate(0.25 0.25)"/>
    <path class="cls-18" d="M81,614.43c0-5.46,2-7.69,3.25-9.11l-.39-.55a12.06,12.06,0,0,0-4.67,9.66,13.18,13.18,0,0,0,1.54,6.26,12.79,12.79,0,0,0,3.13,3.84l.39-.44C83.31,622.89,81,620.33,81,614.43Z" transform="translate(0.25 0.25)"/>
    <path class="cls-18" d="M92.25,613h2.46l2.77.09.4-1-.09-.15c-1.7.09-3,.13-4.59.13h-.78l1-5.67c.67,0,2.41-.08,2.87-.08,1.3,0,2.17.18,2.19.5l.16,1.87h.51a13.94,13.94,0,0,1,.44-3.19c-.44,0-1.07-.07-1.45-.07l-.8,0-2.52,0c-.19,0-3.84,0-4,0l-1,0-.06.59,1.14,0c.5,0,.73.19.73.57a12.2,12.2,0,0,1-.19,1.6L89.6,618.86c-.08.38-.33.53-1.26.67l-.1.55.86,0,2.37,0,4.73.06,1.51,0,.69,0,.09-.76c0-.42.14-1,.33-2.08l.11-.55h-.57L98,617.89c-.21.76-.4,1-.87,1.12a25,25,0,0,1-3.08.19,27.31,27.31,0,0,1-2.88-.15Z" transform="translate(0.25 0.25)"/>
    <path class="cls-18" d="M104.18,604.77l-.4.55c1.16,1.34,3.26,3.65,3.26,9.11,0,5.8-2.19,8.34-3.26,9.66l.4.44a12.91,12.91,0,0,0,4.66-10.08A12.07,12.07,0,0,0,104.18,604.77Z" transform="translate(0.25 0.25)"/>
    <path class="cls-16" d="M139,604.32v-1.77H122.81v1.77Zm0,6.39v-1.77H122.81v1.77Z" transform="translate(0.25 0.25)"/>
    <g>
      <g>
        <path class="cls-16" d="M156.52,604.71H160l4,.12.57-1.35-.12-.21c-2.43.12-4.23.18-6.57.18h-1.11l1.41-8.1c1,0,3.45-.12,4.11-.12,1.86,0,3.09.27,3.12.72l.24,2.67h.72a20.27,20.27,0,0,1,.63-4.56c-.63-.06-1.53-.09-2.07-.09-.09,0-.42,0-1.14,0l-3.6,0c-.27,0-5.49,0-5.79,0L153,594l-.09.84,1.62.06c.72,0,1.05.27,1.05.81a18.52,18.52,0,0,1-.27,2.28l-2.61,15.12c-.12.54-.48.75-1.8,1l-.15.78,1.23,0c.93,0,2.79-.06,3.39-.06l6.75.09c.42,0,1.17,0,2.16-.06l1,0,.12-1.08c.06-.6.21-1.5.48-3l.15-.78h-.81l-.48,1.8c-.3,1.08-.57,1.44-1.23,1.59a34.72,34.72,0,0,1-4.41.27,40.28,40.28,0,0,1-4.11-.21Z" transform="translate(0.25 0.25)"/>
        <path class="cls-18" d="M169.41,619.53v.55c3.93,0,3.93-.06,4.69-.06s.75.06,4.81.06v-1.79c-2.42.11-3.38,0-7.27.11l3.82-4c2-2.17,2.67-3.32,2.67-4.9,0-2.41-1.64-3.9-4.31-3.9a4.52,4.52,0,0,0-3.57,1.47l-.35,2.85h.61l.27-1a2.22,2.22,0,0,1,2.5-1.75,2.75,2.75,0,0,1,3,2.92c0,1.58-.88,3.13-3.26,5.65Z" transform="translate(0.25 0.25)"/>
      </g>
      <path d="M182.84,584.24l-6.18-6.51-1,1,3.78,4.56h-.3v1.77h.3l-3.78,4.56,1,1Zm-29.65.75h28.75v-1.77H153.19Z" transform="translate(0.25 0.25)"/>
    </g>
    <g>
      <path class="cls-16" d="M196.12,600.54l-.21-.27-2,.51-.3,1.53a16.47,16.47,0,0,1-2.13,5.79c-1.77,2.73-4.11,4.86-5.31,4.86-.24,0-.39-.27-.39-.78a7.7,7.7,0,0,1,.21-1.56l1.71-8.13a7.11,7.11,0,0,0,.15-1.29c0-.57-.27-.93-.69-.93-.6,0-1.74.63-4,2.22l-.84.6.21.6,1-.63c.84-.54,1.17-.69,1.44-.69a.57.57,0,0,1,.51.6,3.31,3.31,0,0,1-.06.54l-1.89,8.91a9.17,9.17,0,0,0-.12,1.41,1.13,1.13,0,0,0,1,1.23c1.89,0,5.52-3.36,8-7.5l-1.11,4.26a8.18,8.18,0,0,0-.33,2c0,.75.33,1.2.9,1.2.78,0,1.86-.63,4.8-2.82l-.3-.54-.78.51a4.6,4.6,0,0,1-1.83.81c-.24,0-.39-.21-.39-.51C193.42,611.37,195.67,602.25,196.12,600.54Z" transform="translate(0.25 0.25)"/>
      <polyline class="cls-17" points="181.61 595.31 189.94 589.76 198.27 595.31"/>
    </g>
    <path class="cls-18" d="M199.41,617.68l.15.42.67-.44c.78-.48.84-.53,1-.53s.37.21.37.53a50.59,50.59,0,0,1-1.72,8.13l.15.23a14.2,14.2,0,0,1,1.47-.36,12,12,0,0,1,1.81-5.46c1.13-1.76,2.7-3.07,3.65-3.07.23,0,.36.19.36.51a6.52,6.52,0,0,1-.23,1.49l-1.1,4.45a7.36,7.36,0,0,0-.27,1.6c0,.52.23.84.63.84s1.3-.44,3.36-2l-.21-.38-.55.36a3.4,3.4,0,0,1-1.28.63c-.14,0-.27-.19-.27-.42a2.85,2.85,0,0,1,0-.42l1.39-5.79a7.31,7.31,0,0,0,.23-1.56c0-.48-.23-.75-.65-.75a6.52,6.52,0,0,0-3.57,1.95,17,17,0,0,0-2.48,3l.8-3.38a4.23,4.23,0,0,0,.12-.86c0-.44-.16-.69-.48-.69s-1.26.46-2.79,1.55Z" transform="translate(0.25 0.25)"/>
    <path class="cls-16" d="M226.85,593.07l-.36-.33a11.75,11.75,0,0,1-4.8,1.26l-.12.63H223c.72,0,1,.21,1,.72a5.37,5.37,0,0,1-.06.72l-.84,4.62a8.63,8.63,0,0,0-2.46-.42c-2.07,0-4.89,2.16-6.27,4.77a16.57,16.57,0,0,0-1.53,7.11c0,2,.45,2.91,1.32,2.91a5.35,5.35,0,0,0,2.94-1.32,21.22,21.22,0,0,0,4.62-5.52l-.69,2.73a13,13,0,0,0-.48,3.06c0,.63.27,1,.78,1a4.53,4.53,0,0,0,2.25-1.11l2.43-1.8-.3-.57-1.32.93a2.51,2.51,0,0,1-1.17.51c-.24,0-.42-.27-.42-.69a5.82,5.82,0,0,1,.24-1.38ZM215.78,613c-.48,0-.75-.42-.75-1.17,0-3.78,1.38-8.46,2.85-9.6a2.84,2.84,0,0,1,1.77-.45,6.3,6.3,0,0,1,3.18.69l-.36,1.77C221.36,609.6,217.13,613,215.78,613Zm28.71,1.89c.39-2,.72-3.93,1.26-5.91v-.09h-.66v.09c-1,2.46-1.26,3.51-4.11,3.51H230.24c2.49-3.24,5.1-6.45,7.77-9.51-1.35-2.43-2.49-5-3.63-7.53H242c3,0,3.12.51,3,3.24h.66v-.12c.33-1.41.57-2.88,1-4.29v-.18c-5.22.24-10.56.21-15.78.24v.48a90.54,90.54,0,0,1,4.59,9.75,110.86,110.86,0,0,1-8.64,9.75v.57C232.76,614.7,238.58,614.7,244.49,614.85Z" transform="translate(0.25 0.25)"/>
    <path class="cls-18" d="M249.07,619.53v.55c3.93,0,3.93-.06,4.68-.06s.76.06,4.81.06v-1.79c-2.41.11-3.38,0-7.26.11l3.82-4c2-2.17,2.67-3.32,2.67-4.9,0-2.41-1.64-3.9-4.31-3.9a4.52,4.52,0,0,0-3.57,1.47l-.36,2.85h.61l.28-1a2.21,2.21,0,0,1,2.49-1.75,2.75,2.75,0,0,1,3,2.92c0,1.58-.89,3.13-3.26,5.65Z" transform="translate(0.25 0.25)"/>
    <path class="cls-16" d="M288.12,604.32v-1.77H272v1.77Zm0,6.39v-1.77H272v1.77Z" transform="translate(0.25 0.25)"/>
    <path class="cls-16" d="M323.14,607.5v-1.77h-7.2v-7.14h-1.77v7.14H307v1.77h7.2v7.23h1.77V607.5Z" transform="translate(0.25 0.25)"/>
    <g>
      <path class="cls-16" d="M369.49,580a8,8,0,0,0-3-.72c-2.25,0-4.89,2.64-5.43,3.24-1.2,1.41-2.37,5.79-2.37,8.88,0,1.77.36,2.67,1.08,2.67a3.76,3.76,0,0,0,2.19-.9,18.23,18.23,0,0,0,5.25-5.7l-2.28,12.42a3.64,3.64,0,0,1-.81,1.71l.27.42a21.59,21.59,0,0,1,2.58-.51,47.16,47.16,0,0,1,.57-4.77l2.58-13.68a24.81,24.81,0,0,1,.81-3.54l-.42-.18Zm-8,12c-.42,0-.66-.63-.66-1.62,0-2.88,1.29-7.38,2.55-8.88a2.94,2.94,0,0,1,2.19-.72,6.67,6.67,0,0,1,2.91.81l-.63,2.85C367,588.51,362.74,592,361.48,592Z" transform="translate(0.25 0.25)"/>
      <g>
        <path class="cls-16" d="M342.43,633.3v2.25c0,1.8-.33,2.22-1.8,2.28l-1.86.09v.9c4-.09,4-.09,4.71-.09s.72,0,4.71.09v-.9l-1.44-.09c-1.47-.09-1.8-.48-1.8-2.28V633.3a26.91,26.91,0,0,1,3.24.12v-2.13l-3.24.09,0-13.56-2.4.9-8.49,13.89v.69Zm0-1.92H336l6.45-10.56Zm22.32,6.09c-1.68,0-1.83-2.49-1.8-3.72a14.42,14.42,0,0,1,2.16-7.17l1.86-.39a10.51,10.51,0,0,1,.42-1.47c-4.62.18-9.39.12-14,0-2,0-2.37,2.31-2.94,3.78,0,.24.36.27.48.36v-.12c1.29-1.89,2-2.19,4.26-2.19h.69c-1.2,4.17-2,8.28-3.9,12.21v.3a8.77,8.77,0,0,0,2.16-.75c1.23-3.84,2.1-7.83,2.94-11.76h6.81a17.3,17.3,0,0,0-3,8.91c0,1.47.45,3.69,2.28,3.69,1.23,0,2.91-1.2,3.81-2v-.45h-.36v0A3.67,3.67,0,0,1,364.75,637.47Zm13.8-5.4a8.81,8.81,0,0,1,.45-1.23c-2.37.06-4.68,0-7,0,.57-2.61,2.22-5.28,5.22-5.28,1.8,0,2.46.54,3.27,2.07h.6l1.23-1.59c-5.25-5.1-13.32,1.83-13.32,8,0,3.39,2,5,5.19,5,2.31,0,4.23-1.74,6-3.09v-.57c-1.41,1-3.09,2.16-4.86,2.16-2.22,0-4.05-2.61-3.57-5.43C372.1,632.16,377.74,632.07,378.55,632.07Z" transform="translate(0.25 0.25)"/>
        <path class="cls-18" d="M388.94,629.55c-3.25,0-4.91,2.58-4.91,7.66,0,2.46.44,4.58,1.18,5.61a3.88,3.88,0,0,0,3.21,1.62c3.17,0,4.77-2.73,4.77-8.11C393.19,631.73,391.82,629.55,388.94,629.55Zm-.37.73c2,0,2.85,2.06,2.85,7.1,0,4.47-.8,6.32-2.73,6.32s-2.9-2.12-2.9-7.24C385.79,632,386.57,630.28,388.57,630.28Z" transform="translate(0.25 0.25)"/>
      </g>
      <line class="cls-17" x1="334.28" y1="607.5" x2="395.95" y2="607.5"/>
    </g>
    <path class="cls-16" d="M428.12,593.07l-.36-.33A11.75,11.75,0,0,1,423,594l-.12.63h1.44c.72,0,1,.21,1,.72a5.37,5.37,0,0,1-.06.72l-.84,4.62a8.63,8.63,0,0,0-2.46-.42c-2.07,0-4.89,2.16-6.27,4.77a16.57,16.57,0,0,0-1.53,7.11c0,2,.45,2.91,1.32,2.91a5.35,5.35,0,0,0,2.94-1.32,21.22,21.22,0,0,0,4.62-5.52l-.69,2.73a13,13,0,0,0-.48,3.06c0,.63.27,1,.78,1a4.53,4.53,0,0,0,2.25-1.11l2.43-1.8-.3-.57-1.32.93a2.51,2.51,0,0,1-1.17.51c-.24,0-.42-.27-.42-.69a5.82,5.82,0,0,1,.24-1.38ZM417.05,613c-.48,0-.75-.42-.75-1.17,0-3.78,1.38-8.46,2.85-9.6a2.84,2.84,0,0,1,1.77-.45,6.3,6.3,0,0,1,3.18.69l-.36,1.77C422.63,609.6,418.4,613,417.05,613Zm25.86-18.54c5.82,0,6.78,4,5.88,9.09-.72,4.23-2.91,8.55-7.8,9.18l-.36,2c3.09.06,6.24.06,9.3.18.36-1.5.75-3,1.23-4.53v-.09h-.57v.09c-.66,1.59-.75,2.1-2.55,2.1H444.2a12.61,12.61,0,0,0,7.92-9.69c1.14-6.48-3.09-9.18-9.06-9.18s-11.49,2.49-12.66,9.18c-.78,4.32.78,8,4.5,9.69H431c-1.83,0-1.77-.6-1.89-2.19h-.6c-.06,1.53-.15,3.09-.27,4.62,3.12-.12,6.24-.09,9.33-.18l.36-2c-4.71-.63-5.28-5-4.53-9.27C434.36,598.17,437.21,594.42,442.91,594.42Z" transform="translate(0.25 0.25)"/>
  </g>
  <g>
    <path class="cls-16" d="M518.77,576.43v-.93a6.4,6.4,0,0,1-2.4-.39,5.33,5.33,0,0,1,.18-2.25c5.25,0,9.66-1.83,10.68-7.71,1-5.49-3.78-6.39-8.19-6.39.48-2.49.81-2.07,3.24-2.22v-.9c-2.64.12-5.22.12-7.89,0v.9c2.34.15,2.7-.3,2.34,2.22-4.74,0-9.57,1.17-10.56,6.81s3.21,7.29,8.07,7.29c-.51,2.82-.6,2.46-3.36,2.64v.93A62.94,62.94,0,0,1,518.77,576.43Zm5.43-10.89c-.72,4.05-3.45,6.51-7.53,6.63l2.22-12.66C522.85,559.57,524.92,561.37,524.2,565.54Zm-9.84,6.63c-4-.12-5.94-2.58-5.22-6.6.75-4.32,3.33-5.91,7.44-6.06Z" transform="translate(0.25 0.25)"/>
    <path class="cls-18" d="M531.69,576c0-5.46,2-7.69,3.26-9.12l-.4-.54a12.06,12.06,0,0,0-4.67,9.66,13.21,13.21,0,0,0,1.54,6.26,12.79,12.79,0,0,0,3.13,3.84l.4-.44C534,584.47,531.69,581.91,531.69,576Z" transform="translate(0.25 0.25)"/>
    <path class="cls-18" d="M542.92,574.58h2.46l2.77.08.4-.94-.08-.15c-1.7.09-3,.13-4.6.13h-.78l1-5.67c.67,0,2.41-.09,2.87-.09,1.31,0,2.17.19,2.19.51l.17,1.87h.5a14.13,14.13,0,0,1,.44-3.2c-.44,0-1.07-.06-1.45-.06l-.8,0-2.52,0c-.18,0-3.84,0-4.05,0l-.94,0-.07.59,1.14,0c.5,0,.73.19.73.57a12.09,12.09,0,0,1-.19,1.59l-1.82,10.59c-.09.38-.34.52-1.26.67l-.11.55.86,0c.65,0,2,0,2.38,0l4.72.07,1.51,0,.7,0,.08-.75c0-.42.15-1.05.34-2.08l.1-.55H549l-.33,1.26c-.21.76-.4,1-.86,1.12a25.62,25.62,0,0,1-3.09.18c-.86,0-1.43,0-2.88-.14Z" transform="translate(0.25 0.25)"/>
    <path class="cls-18" d="M554.85,566.35l-.4.54c1.16,1.35,3.26,3.66,3.26,9.12,0,5.79-2.19,8.33-3.26,9.66l.4.44A12.88,12.88,0,0,0,559.51,576,12.07,12.07,0,0,0,554.85,566.35Z" transform="translate(0.25 0.25)"/>
    <path class="cls-16" d="M589.65,565.9v-1.77H573.48v1.77Zm0,6.39v-1.77H573.48v1.77Z" transform="translate(0.25 0.25)"/>
    <path class="cls-16" d="M608.45,555.64c-4.65,0-7,3.69-7,11,0,3.51.63,6.54,1.68,8a5.56,5.56,0,0,0,4.59,2.31c4.53,0,6.81-3.9,6.81-11.58C614.51,558.76,612.56,555.64,608.45,555.64Zm-.54,1.05c2.91,0,4.08,2.94,4.08,10.14,0,6.39-1.14,9-3.9,9-2.91,0-4.14-3-4.14-10.35C604,559.18,605.06,556.69,607.91,556.69Z" transform="translate(0.25 0.25)"/>
  </g>
  <path class="cls-20" d="M492.27,569.87c-10.54-3.23-12.92-9.18-12.92-20.23V518c0-21.25-9.35-25.16-26.35-25.16,11.05,3.23,14.11,10,14.11,22.27v31.62c0,12.58,2,19.89,13.77,23V570c-12.24,3.23-13.77,11.05-13.77,24.48v29.41c0,12.24-3.4,19.72-14.11,22.1,19.21,0,26.35-4.42,26.35-26.86V590.61C479.35,578.37,481.05,573.1,492.27,569.87Z" transform="translate(0.25 0.25)"/>
</svg>
