<svg id="Livello_1" data-name="Livello 1" xmlns="http://www.w3.org/2000/svg" xmlns:xlink="http://www.w3.org/1999/xlink" width="662.5" height="556.5" viewBox="0 0 662.5 556.5">
  <defs>
    <style>
      .cls-1, .cls-10, .cls-11, .cls-2, .cls-4, .cls-5, .cls-6, .cls-7, .cls-8, .cls-9 {
        fill: none;
      }

      .cls-2, .cls-3 {
        stroke: #d3d3d3;
        stroke-width: 0.5px;
      }

      .cls-3 {
        fill: url(#_.7457492991407171);
      }

      .cls-13, .cls-16, .cls-17, .cls-18, .cls-19, .cls-4, .cls-5, .cls-7, .cls-8, .cls-9 {
        stroke: #000;
      }

      .cls-4, .cls-6 {
        stroke-width: 4px;
      }

      .cls-10, .cls-11, .cls-5, .cls-7, .cls-9 {
        stroke-width: 3px;
      }

      .cls-5 {
        stroke-dasharray: 3.38 4.02;
      }

      .cls-12, .cls-6 {
        stroke: red;
      }

      .cls-8 {
        stroke-width: 2px;
      }

      .cls-9 {
        stroke-dasharray: 9 6;
      }

      .cls-10, .cls-20, .cls-21 {
        stroke: #4a90e2;
      }

      .cls-11 {
        stroke: #f39804;
      }

      .cls-12 {
        fill: red;
      }

      .cls-12, .cls-13, .cls-14, .cls-15, .cls-16, .cls-17, .cls-18, .cls-19, .cls-20, .cls-21 {
        stroke-miterlimit: 10;
      }

      .cls-12, .cls-16 {
        stroke-width: 0.24px;
      }

      .cls-13 {
        stroke-width: 0.4px;
      }

      .cls-14, .cls-15 {
        fill: #f5a623;
        stroke: #f5a623;
      }

      .cls-14, .cls-18, .cls-20 {
        stroke-width: 0.32px;
      }

      .cls-15, .cls-19, .cls-21 {
        stroke-width: 0.22px;
      }

      .cls-17 {
        stroke-width: 0.17px;
      }

      .cls-20, .cls-21 {
        fill: #4a90e2;
      }
    </style>
    <pattern id="_.7457492991407171" data-name=".7457492991407171" width="10" height="10" patternTransform="matrix(1, 0, 0, -1, -2.75, 845.14)" patternUnits="userSpaceOnUse" viewBox="0 0 10 10">
      <rect class="cls-1" width="10" height="10"/>
      <path class="cls-2" d="M10,10H0V0"/>
    </pattern>
  </defs>
  <rect class="cls-3" x="0.25" y="0.25" width="662" height="556"/>
  <g>
    <path class="cls-4" d="M122.82,300.69c62.2-35.13,157.79-29.95,211.34,2.3" transform="translate(0.25 0.25)"/>
    <path class="cls-5" d="M394.15,119.28,98.64,460.83" transform="translate(0.25 0.25)"/>
    <path class="cls-6" d="M76.76,471.28a13.53,13.53,0,1,1,13.53,13.53A13.53,13.53,0,0,1,76.76,471.28Z" transform="translate(0.25 0.25)"/>
    <g>
      <path class="cls-7" d="M237.32,297.74V256.16" transform="translate(0.25 0.25)"/>
      <path d="M244.18,265.45l-6.86-14.29-6.86,14.29Z" transform="translate(0.25 0.25)"/>
    </g>
    <path class="cls-8" d="M103.24,335.81c80.62-10.36,143.39,51.83,158.94,58.74" transform="translate(0.25 0.25)"/>
    <path class="cls-8" d="M281.76,359.42l-19.58,35.13" transform="translate(0.25 0.25)"/>
    <path class="cls-8" d="M160.83,315.38c61.34-7.78,109.1,38.86,120.93,44" transform="translate(0.25 0.25)"/>
    <path class="cls-9" d="M482.67,242.23l-380.58,222" transform="translate(0.25 0.25)"/>
    <path class="cls-9" d="M443.67,315.56,102.09,464.23" transform="translate(0.25 0.25)"/>
    <path class="cls-9" d="M119.52,199.56,90.29,457.75" transform="translate(0.25 0.25)"/>
    <path class="cls-9" d="M151.6,142,91.91,459.15" transform="translate(0.25 0.25)"/>
    <path class="cls-4" d="M103.24,335.81c62.2-35.12,157.79-29.94,211.34,2.31" transform="translate(0.25 0.25)"/>
    <path class="cls-4" d="M103.24,335.81c19.89-11.23,43.19-18.34,67.44-21.76,51.59-7.28,107.47,2.13,143.9,24.07" transform="translate(0.25 0.25)"/>
    <path class="cls-4" d="M122.82,300.69l-19.58,35.12" transform="translate(0.25 0.25)"/>
    <path class="cls-4" d="M334.16,303l-19.58,35.13" transform="translate(0.25 0.25)"/>
    <path class="cls-9" d="M588.88,126,102.09,464.23" transform="translate(0.25 0.25)"/>
    <path class="cls-9" d="M551.43,197.55,102.09,464.23" transform="translate(0.25 0.25)"/>
    <path class="cls-4" d="M159,123.39c127.76-72.15,324.11-61.51,434.12,4.73" transform="translate(0.25 0.25)"/>
    <g>
      <path class="cls-4" d="M394.15,119.28,455,46.53" transform="translate(0.25 0.25)"/>
      <path d="M454.22,60.17l4.64-18.24-17.14,7.79Z" transform="translate(0.25 0.25)"/>
    </g>
    <g>
      <path class="cls-7" d="M394.15,118.31v-70" transform="translate(0.25 0.25)"/>
      <path d="M401,57.64l-6.86-14.29-6.86,14.29Z" transform="translate(0.25 0.25)"/>
    </g>
    <path class="cls-8" d="M118.75,195.55C284.35,174.25,413.28,302,445.22,316.2" transform="translate(0.25 0.25)"/>
    <path class="cls-8" d="M485.44,244,445.22,316.2" transform="translate(0.25 0.25)"/>
    <path class="cls-8" d="M237,153.57c126-16,224.11,79.83,248.41,90.47" transform="translate(0.25 0.25)"/>
    <path class="cls-4" d="M118.75,195.55c40.84-23.07,88.7-37.68,138.51-44.71,106-15,220.77,4.38,295.6,49.44" transform="translate(0.25 0.25)"/>
    <path class="cls-4" d="M159,123.39l-40.21,72.16" transform="translate(0.25 0.25)"/>
    <path class="cls-4" d="M593.08,128.12l-40.22,72.16" transform="translate(0.25 0.25)"/>
    <path class="cls-10" d="M98,199,70.29,460.75" transform="translate(0.25 0.25)"/>
    <path class="cls-11" d="M267.48,406.36,106.82,476.28" transform="translate(0.25 0.25)"/>
  </g>
  <path class="cls-12" d="M97.85,473.13v-1.77h-7.2v-7.14H88.88v7.14h-7.2v1.77h7.2v7.23h1.77v-7.23Z" transform="translate(0.25 0.25)"/>
  <path class="cls-13" d="M115.83,482.83a13.41,13.41,0,0,0-5-1.2c-3.75,0-8.15,4.4-9,5.4-2,2.35-4,9.65-4,14.8,0,2.95.6,4.45,1.8,4.45s2-.4,3.65-1.5a30.38,30.38,0,0,0,8.75-9.5l-3.8,20.7a6.07,6.07,0,0,1-1.35,2.85l.45.7a36,36,0,0,1,4.3-.85,78.6,78.6,0,0,1,1-7.95l4.3-22.8a41.35,41.35,0,0,1,1.35-5.9l-.7-.3Zm-13.35,19.95c-.7,0-1.1-1-1.1-2.7,0-4.8,2.15-12.3,4.25-14.8a4.91,4.91,0,0,1,3.65-1.2c1.4,0,2.45.3,4.85,1.35l-1,4.75C111.63,497,104.58,502.78,102.48,502.78Z" transform="translate(0.25 0.25)"/>
  <g>
    <path class="cls-14" d="M204.52,456.13a37.1,37.1,0,0,1,.64-4.44,1.8,1.8,0,0,0-.8-.24c-1.24,0-2.48,1-3.92,3a49.32,49.32,0,0,0-3.76,6l1.28-6.08a7.33,7.33,0,0,0,.24-1.68c0-.8-.32-1.28-.92-1.28-.84,0-2.36.84-5.32,3l-1.12.8.28.8,1.28-.84c1.12-.72,1.56-.92,1.92-.92s.68.36.68.88c0,2.32-1.72,10.56-3.32,15.68l.4.28a21.74,21.74,0,0,1,2.16-.52l.52-.08,1-4.8a17.52,17.52,0,0,1,3.4-7.72c1.36-1.76,2.44-2.6,3.32-2.6a1.65,1.65,0,0,1,1.44.76Z" transform="translate(0.25 0.25)"/>
    <path class="cls-15" d="M218.22,477.86V477l-1.46-.08c-1.54-.08-1.82-.39-1.82-1.85V458.18L208.2,461l.19,1.4,4.2-1.85v14.5c0,1.46-.31,1.77-1.82,1.85l-1.57.08v.84l4.62-.08C214.69,477.78,217.77,477.86,218.22,477.86Z" transform="translate(0.25 0.25)"/>
  </g>
  <g>
    <g>
      <path class="cls-16" d="M216.6,244.78l-.21-.27-2,.51-.3,1.53a16.47,16.47,0,0,1-2.13,5.79c-1.77,2.73-4.11,4.86-5.31,4.86-.24,0-.39-.27-.39-.78a7.7,7.7,0,0,1,.21-1.56l1.71-8.13a7.11,7.11,0,0,0,.15-1.29c0-.57-.27-.93-.69-.93-.6,0-1.74.63-4,2.22l-.84.6.21.6,1-.63c.84-.54,1.17-.69,1.44-.69a.57.57,0,0,1,.51.6,3.31,3.31,0,0,1-.06.54L204,256.66a9.17,9.17,0,0,0-.12,1.41,1.13,1.13,0,0,0,1.05,1.23c1.89,0,5.52-3.36,8-7.5l-1.11,4.26a8.18,8.18,0,0,0-.33,2c0,.75.33,1.2.9,1.2.78,0,1.86-.63,4.8-2.82l-.3-.54-.78.51a4.6,4.6,0,0,1-1.83.81c-.24,0-.39-.21-.39-.51C213.9,255.61,216.15,246.49,216.6,244.78Z" transform="translate(0.25 0.25)"/>
      <polyline class="cls-8" points="202.09 239.55 210.42 234 218.75 239.55"/>
    </g>
    <path class="cls-17" d="M219.89,261.91l.15.42.67-.44c.78-.48.84-.52,1-.52s.38.21.38.52a50.37,50.37,0,0,1-1.72,8.13l.14.23c.53-.15,1-.27,1.47-.36a12,12,0,0,1,1.81-5.46c1.13-1.76,2.71-3.06,3.65-3.06.23,0,.36.19.36.5a6,6,0,0,1-.23,1.49l-1.09,4.46a7.5,7.5,0,0,0-.28,1.59c0,.53.24.84.63.84.55,0,1.31-.44,3.36-2l-.21-.38-.54.36a3.47,3.47,0,0,1-1.28.63c-.15,0-.28-.19-.28-.42a2.55,2.55,0,0,1,0-.42l1.38-5.8a7.32,7.32,0,0,0,.23-1.55c0-.49-.23-.76-.65-.76a6.59,6.59,0,0,0-3.57,1.95,17.59,17.59,0,0,0-2.48,3l.8-3.39a3.65,3.65,0,0,0,.13-.86c0-.44-.17-.69-.48-.69s-1.26.46-2.8,1.55Z" transform="translate(0.25 0.25)"/>
  </g>
  <g>
    <path class="cls-18" d="M284.49,406.67l-.48-.44a15.67,15.67,0,0,1-6.4,1.68l-.16.84h1.92c1,0,1.36.28,1.36,1a7.17,7.17,0,0,1-.08,1l-1.12,6.16a11.51,11.51,0,0,0-3.28-.56c-2.76,0-6.52,2.88-8.36,6.36a22.1,22.1,0,0,0-2,9.48c0,2.6.6,3.88,1.76,3.88a7.13,7.13,0,0,0,3.92-1.76c2.16-1.76,3.48-3.32,6.16-7.36l-.92,3.64a17.31,17.31,0,0,0-.64,4.08c0,.84.36,1.32,1,1.32a6,6,0,0,0,3-1.48l3.24-2.4-.4-.76-1.76,1.24a3.35,3.35,0,0,1-1.56.68c-.32,0-.56-.36-.56-.92a7.75,7.75,0,0,1,.32-1.84Zm-14.76,26.52c-.64,0-1-.56-1-1.56,0-5,1.84-11.28,3.8-12.8a3.79,3.79,0,0,1,2.36-.6,8.4,8.4,0,0,1,4.24.92l-.48,2.36C277.17,428.71,271.53,433.19,269.73,433.19ZM308,435.71c.52-2.64,1-5.24,1.68-7.88v-.12h-.88v.12c-1.36,3.28-1.68,4.68-5.48,4.68H289c3.32-4.32,6.8-8.6,10.36-12.68-1.8-3.24-3.32-6.68-4.84-10h10.12c4,0,4.16.68,4,4.32h.88V414c.44-1.88.76-3.84,1.36-5.72V408c-7,.32-14.08.28-21,.32V409A120.72,120.72,0,0,1,296,422a147.81,147.81,0,0,1-11.52,13v.76C292.37,435.51,300.13,435.51,308,435.71Z" transform="translate(0.25 0.25)"/>
    <path class="cls-19" d="M325.38,441.68v-.84l-1.46-.09c-1.54-.08-1.82-.39-1.82-1.84V422l-6.75,2.86.2,1.4,4.2-1.85v14.51c0,1.45-.31,1.76-1.82,1.84l-1.57.09v.84l4.62-.09C321.85,441.59,324.93,441.68,325.38,441.68Zm8-3.53c-.76.25-1.26.42-2.75.84a14.7,14.7,0,0,1-2.52,6.64l.39.3,1.15-.53a24.34,24.34,0,0,0,4.12-6.86ZM342,422.3c-4.34,0-6.55,3.45-6.55,10.22,0,3.28.59,6.11,1.57,7.48a5.18,5.18,0,0,0,4.28,2.15c4.23,0,6.36-3.64,6.36-10.8C347.64,425.21,345.82,422.3,342,422.3Zm-.5,1c2.71,0,3.8,2.75,3.8,9.47,0,6-1.06,8.42-3.64,8.42s-3.86-2.82-3.86-9.66C337.78,425.61,338.82,423.28,341.48,423.28Z" transform="translate(0.25 0.25)"/>
  </g>
  <g>
    <g>
      <path class="cls-16" d="M372.93,92l-.21-.27-2,.51-.3,1.53a16.47,16.47,0,0,1-2.13,5.79c-1.77,2.73-4.11,4.86-5.31,4.86-.24,0-.39-.27-.39-.78a7.7,7.7,0,0,1,.21-1.56l1.71-8.13a7.11,7.11,0,0,0,.15-1.29c0-.57-.27-.93-.69-.93-.6,0-1.74.63-4,2.22l-.84.6.21.6,1-.63c.84-.54,1.17-.69,1.44-.69a.57.57,0,0,1,.51.6,3.31,3.31,0,0,1-.06.54l-1.89,8.91a9.17,9.17,0,0,0-.12,1.41,1.13,1.13,0,0,0,1.05,1.23c1.89,0,5.52-3.36,8-7.5l-1.11,4.26a8.18,8.18,0,0,0-.33,2c0,.75.33,1.2.9,1.2.78,0,1.86-.63,4.8-2.82l-.3-.54-.78.51a4.6,4.6,0,0,1-1.83.81c-.24,0-.39-.21-.39-.51C370.23,102.81,372.48,93.69,372.93,92Z" transform="translate(0.25 0.25)"/>
      <polyline class="cls-8" points="358.42 86.75 366.75 81.2 375.08 86.75"/>
    </g>
    <path class="cls-17" d="M376.22,109.12l.15.42.67-.44c.78-.49.84-.53,1-.53s.38.21.38.53a49.5,49.5,0,0,1-1.73,8.12l.15.23c.53-.14,1-.27,1.47-.35a12,12,0,0,1,1.81-5.46c1.13-1.77,2.71-3.07,3.65-3.07.23,0,.36.19.36.51a6.13,6.13,0,0,1-.23,1.49L382.8,115a7.6,7.6,0,0,0-.28,1.59c0,.53.23.84.63.84.55,0,1.3-.44,3.36-2l-.21-.38-.54.36a3.47,3.47,0,0,1-1.28.63c-.15,0-.28-.19-.28-.42a2.61,2.61,0,0,1,0-.42l1.39-5.8a7.23,7.23,0,0,0,.23-1.55c0-.48-.23-.76-.65-.76a6.55,6.55,0,0,0-3.57,2,17,17,0,0,0-2.48,3l.8-3.38a4.37,4.37,0,0,0,.13-.86c0-.44-.17-.7-.49-.7s-1.26.47-2.79,1.56Z" transform="translate(0.25 0.25)"/>
  </g>
  <g>
    <path class="cls-18" d="M490.49,279.67l-.48-.44a15.67,15.67,0,0,1-6.4,1.68l-.16.84h1.92c1,0,1.36.28,1.36,1a7.17,7.17,0,0,1-.08,1l-1.12,6.16a11.51,11.51,0,0,0-3.28-.56c-2.76,0-6.52,2.88-8.36,6.36a22.1,22.1,0,0,0-2,9.48c0,2.6.6,3.88,1.76,3.88a7.13,7.13,0,0,0,3.92-1.76c2.16-1.76,3.48-3.32,6.16-7.36l-.92,3.64a17.31,17.31,0,0,0-.64,4.08c0,.84.36,1.32,1,1.32a6,6,0,0,0,3-1.48l3.24-2.4-.4-.76-1.76,1.24a3.35,3.35,0,0,1-1.56.68c-.32,0-.56-.36-.56-.92a7.75,7.75,0,0,1,.32-1.84Zm-14.76,26.52c-.64,0-1-.56-1-1.56,0-5,1.84-11.28,3.8-12.8a3.79,3.79,0,0,1,2.36-.6,8.4,8.4,0,0,1,4.24.92l-.48,2.36C483.17,301.71,477.53,306.19,475.73,306.19ZM514,308.71c.52-2.64,1-5.24,1.68-7.88v-.12h-.88v.12c-1.36,3.28-1.68,4.68-5.48,4.68H495c3.32-4.32,6.8-8.6,10.36-12.68-1.8-3.24-3.32-6.68-4.84-10h10.12c4,0,4.16.68,4,4.32h.88V287c.44-1.88.76-3.84,1.36-5.72V281c-7,.32-14.08.28-21,.32V282A120.72,120.72,0,0,1,502,295a147.81,147.81,0,0,1-11.52,13v.76C498.37,308.51,506.13,308.51,514,308.71Z" transform="translate(0.25 0.25)"/>
    <path class="cls-19" d="M520.12,314v.73c5.24,0,5.24-.09,6.24-.09s1,.09,6.42.09V312.3c-3.22.14-4.51,0-9.69.14l5.09-5.41c2.72-2.88,3.56-4.42,3.56-6.52,0-3.22-2.18-5.21-5.74-5.21a6,6,0,0,0-4.76,2l-.48,3.81h.82l.36-1.29c.45-1.62,1.46-2.32,3.33-2.32a3.66,3.66,0,0,1,4,3.89c0,2.1-1.18,4.17-4.34,7.53Zm19.24-2.8c-.76.25-1.26.42-2.75.84a14.7,14.7,0,0,1-2.52,6.64l.39.3,1.15-.53a24.34,24.34,0,0,0,4.12-6.86ZM548,295.3c-4.34,0-6.55,3.45-6.55,10.22,0,3.28.59,6.11,1.57,7.48a5.18,5.18,0,0,0,4.28,2.15c4.23,0,6.36-3.64,6.36-10.8C553.64,298.21,551.82,295.3,548,295.3Zm-.5,1c2.71,0,3.8,2.75,3.8,9.47,0,6-1.06,8.42-3.64,8.42s-3.86-2.82-3.86-9.66C543.78,298.61,544.82,296.28,547.48,296.28Z" transform="translate(0.25 0.25)"/>
  </g>
  <g>
    <g>
      <path class="cls-16" d="M493.93,53l-.21-.27-2,.51-.3,1.53a16.47,16.47,0,0,1-2.13,5.79c-1.77,2.73-4.11,4.86-5.31,4.86-.24,0-.39-.27-.39-.78a7.7,7.7,0,0,1,.21-1.56l1.71-8.13a7.11,7.11,0,0,0,.15-1.29c0-.57-.27-.93-.69-.93-.6,0-1.74.63-4,2.22l-.84.6.21.6,1-.63c.84-.54,1.17-.69,1.44-.69a.57.57,0,0,1,.51.6,3.31,3.31,0,0,1-.06.54l-1.89,8.91a9.17,9.17,0,0,0-.12,1.41,1.13,1.13,0,0,0,1.05,1.23c1.89,0,5.52-3.36,8-7.5l-1.11,4.26a8.18,8.18,0,0,0-.33,2c0,.75.33,1.2.9,1.2.78,0,1.86-.63,4.8-2.82l-.3-.54-.78.51a4.6,4.6,0,0,1-1.83.81c-.24,0-.39-.21-.39-.51C491.23,63.81,493.48,54.69,493.93,53Z" transform="translate(0.25 0.25)"/>
      <polyline class="cls-8" points="479.42 47.75 487.75 42.2 496.08 47.75"/>
    </g>
    <path class="cls-17" d="M504.45,70.6a18.38,18.38,0,0,1,.33-2.33.88.88,0,0,0-.42-.13c-.65,0-1.3.51-2.06,1.58a26.58,26.58,0,0,0-2,3.17L501,69.7a3.59,3.59,0,0,0,.13-.88c0-.42-.17-.68-.48-.68s-1.24.44-2.8,1.56l-.59.42.15.42.67-.44c.59-.38.82-.49,1-.49s.36.19.36.47a44.88,44.88,0,0,1-1.74,8.23l.21.14c.31-.1.65-.16,1.13-.27l.27,0,.55-2.52a9.23,9.23,0,0,1,1.78-4.05c.72-.93,1.28-1.37,1.75-1.37a.87.87,0,0,1,.75.4Z" transform="translate(0.25 0.25)"/>
  </g>
  <g>
    <path class="cls-20" d="M61.52,286.13a37.1,37.1,0,0,1,.64-4.44,1.8,1.8,0,0,0-.8-.24c-1.24,0-2.48,1-3.92,3a49.32,49.32,0,0,0-3.76,6L55,284.41a7.33,7.33,0,0,0,.24-1.68c0-.8-.32-1.28-.92-1.28-.84,0-2.36.84-5.32,3l-1.12.8.28.8,1.28-.84c1.12-.72,1.56-.92,1.92-.92s.68.36.68.88c0,2.32-1.72,10.56-3.32,15.68l.4.28a21.74,21.74,0,0,1,2.16-.52l.52-.08,1-4.8A17.52,17.52,0,0,1,56.2,288c1.36-1.76,2.44-2.6,3.32-2.6a1.65,1.65,0,0,1,1.44.76Z" transform="translate(0.25 0.25)"/>
    <path class="cls-21" d="M64,307.14v.72c5.24,0,5.24-.08,6.25-.08s1,.08,6.41.08v-2.38c-3.22.14-4.51,0-9.69.14l5.1-5.4c2.71-2.88,3.55-4.42,3.55-6.52,0-3.22-2.18-5.21-5.74-5.21a6,6,0,0,0-4.76,2l-.47,3.81h.81l.36-1.29c.45-1.62,1.46-2.32,3.34-2.32a3.66,3.66,0,0,1,3.94,3.89c0,2.1-1.17,4.17-4.34,7.53Z" transform="translate(0.25 0.25)"/>
  </g>
  <g>
    <path class="cls-16" d="M351.66,365.89l-.36-.33a11.75,11.75,0,0,1-4.8,1.26l-.12.63h1.44c.72,0,1,.21,1,.72a5.37,5.37,0,0,1-.06.72l-.84,4.62a8.63,8.63,0,0,0-2.46-.42c-2.07,0-4.89,2.16-6.27,4.77a16.57,16.57,0,0,0-1.53,7.11c0,1.95.45,2.91,1.32,2.91a5.35,5.35,0,0,0,2.94-1.32,21.22,21.22,0,0,0,4.62-5.52l-.69,2.73a13,13,0,0,0-.48,3.06c0,.63.27,1,.78,1a4.53,4.53,0,0,0,2.25-1.11l2.43-1.8-.3-.57-1.32.93a2.51,2.51,0,0,1-1.17.51c-.24,0-.42-.27-.42-.69a5.82,5.82,0,0,1,.24-1.38Zm-11.07,19.89c-.48,0-.75-.42-.75-1.17,0-3.78,1.38-8.46,2.85-9.6a2.84,2.84,0,0,1,1.77-.45,6.3,6.3,0,0,1,3.18.69l-.36,1.77C346.17,382.42,341.94,385.78,340.59,385.78Zm28.71,1.89c.39-2,.72-3.93,1.26-5.91v-.09h-.66v.09c-1,2.46-1.26,3.51-4.11,3.51H355.05c2.49-3.24,5.1-6.45,7.77-9.51-1.35-2.43-2.49-5-3.63-7.53h7.59c3,0,3.12.51,3,3.24h.66v-.12c.33-1.41.57-2.88,1-4.29v-.18c-5.22.24-10.56.21-15.78.24v.48a90.54,90.54,0,0,1,4.59,9.75,110.86,110.86,0,0,1-8.64,9.75v.57C357.57,387.52,363.39,387.52,369.3,387.67Z" transform="translate(0.25 0.25)"/>
    <path class="cls-17" d="M382.32,392.89v-.63l-1.09-.06c-1.15-.06-1.36-.3-1.36-1.39V378.13l-5.06,2.14.14,1.05,3.15-1.39v10.88c0,1.09-.23,1.33-1.36,1.39l-1.18.06v.63l3.47-.06C379.68,392.83,382,392.89,382.32,392.89Z" transform="translate(0.25 0.25)"/>
  </g>
  <g>
    <path class="cls-16" d="M590.46,173.53l-.36-.33a11.75,11.75,0,0,1-4.8,1.26l-.12.63h1.44c.72,0,1,.21,1,.72a5.37,5.37,0,0,1-.06.72l-.84,4.62a8.63,8.63,0,0,0-2.46-.42c-2.07,0-4.89,2.16-6.27,4.77a16.57,16.57,0,0,0-1.53,7.11c0,1.95.45,2.91,1.32,2.91a5.35,5.35,0,0,0,2.94-1.32,21.22,21.22,0,0,0,4.62-5.52l-.69,2.73a13,13,0,0,0-.48,3.06c0,.63.27,1,.78,1a4.53,4.53,0,0,0,2.25-1.11l2.43-1.8-.3-.57-1.32.93a2.51,2.51,0,0,1-1.17.51c-.24,0-.42-.27-.42-.69a5.82,5.82,0,0,1,.24-1.38Zm-11.07,19.89c-.48,0-.75-.42-.75-1.17,0-3.78,1.38-8.46,2.85-9.6a2.84,2.84,0,0,1,1.77-.45,6.3,6.3,0,0,1,3.18.69l-.36,1.77C585,190.06,580.74,193.42,579.39,193.42Zm28.71,1.89c.39-2,.72-3.93,1.26-5.91v-.09h-.66v.09c-1,2.46-1.26,3.51-4.11,3.51H593.85c2.49-3.24,5.1-6.45,7.77-9.51-1.35-2.43-2.49-5-3.63-7.53h7.59c3,0,3.12.51,3,3.24h.66V179c.33-1.41.57-2.88,1-4.29v-.18c-5.22.24-10.56.21-15.78.24v.48A90.54,90.54,0,0,1,599.1,185a110.86,110.86,0,0,1-8.64,9.75v.57C596.37,195.16,602.19,195.16,608.1,195.31Z" transform="translate(0.25 0.25)"/>
    <path class="cls-17" d="M612.68,200v.54c3.93,0,3.93-.06,4.68-.06s.76.06,4.81.06v-1.78c-2.41.1-3.38,0-7.26.1l3.82-4c2-2.16,2.66-3.32,2.66-4.89,0-2.42-1.63-3.91-4.3-3.91a4.52,4.52,0,0,0-3.57,1.47l-.36,2.86h.61l.27-1a2.22,2.22,0,0,1,2.5-1.74,2.74,2.74,0,0,1,3,2.92c0,1.57-.88,3.12-3.25,5.64Z" transform="translate(0.25 0.25)"/>
  </g>
  <path class="cls-16" d="M215.46,500.53l-.36-.33a11.75,11.75,0,0,1-4.8,1.26l-.12.63h1.44c.72,0,1,.21,1,.72a5.37,5.37,0,0,1-.06.72l-.84,4.62a8.63,8.63,0,0,0-2.46-.42c-2.07,0-4.89,2.16-6.27,4.77a16.57,16.57,0,0,0-1.53,7.11c0,1.95.45,2.91,1.32,2.91a5.35,5.35,0,0,0,2.94-1.32,21.22,21.22,0,0,0,4.62-5.52l-.69,2.73a13,13,0,0,0-.48,3.06c0,.63.27,1,.78,1a4.53,4.53,0,0,0,2.25-1.11l2.43-1.8-.3-.57-1.32.93a2.51,2.51,0,0,1-1.17.51c-.24,0-.42-.27-.42-.69a5.82,5.82,0,0,1,.24-1.38Zm-11.07,19.89c-.48,0-.75-.42-.75-1.17,0-3.78,1.38-8.46,2.85-9.6a2.84,2.84,0,0,1,1.77-.45,6.3,6.3,0,0,1,3.18.69l-.36,1.77C210,517.06,205.74,520.42,204.39,520.42Zm25.86-18.54c5.82,0,6.78,4,5.88,9.09-.72,4.23-2.91,8.55-7.8,9.18l-.36,2c3.09.06,6.24.06,9.3.18.36-1.5.75-3,1.23-4.53v-.09h-.57v.09c-.66,1.59-.75,2.1-2.55,2.1h-3.84a12.61,12.61,0,0,0,7.92-9.69c1.14-6.48-3.09-9.18-9.06-9.18s-11.49,2.49-12.66,9.18c-.78,4.32.78,8,4.5,9.69h-3.87c-1.83,0-1.77-.6-1.89-2.19h-.6c-.06,1.53-.15,3.09-.27,4.62,3.12-.12,6.24-.09,9.33-.18l.36-2c-4.71-.63-5.28-5-4.53-9.27C221.7,505.63,224.55,501.88,230.25,501.88Z" transform="translate(0.25 0.25)"/>
</svg>
