<svg id="Livello_1" data-name="Livello 1" xmlns="http://www.w3.org/2000/svg" xmlns:xlink="http://www.w3.org/1999/xlink" width="662.5" height="556.5" viewBox="0 0 662.5 556.5">
  <defs>
    <style>
      .cls-1, .cls-12, .cls-2, .cls-4, .cls-5, .cls-6, .cls-8 {
        fill: none;
      }

      .cls-2, .cls-3 {
        stroke: #d3d3d3;
        stroke-width: 0.5px;
      }

      .cls-3 {
        fill: url(#_.2987665196650495);
      }

      .cls-4, .cls-9 {
        stroke: red;
      }

      .cls-4, .cls-5, .cls-6 {
        stroke-width: 4px;
      }

      .cls-10, .cls-11, .cls-12, .cls-13, .cls-15, .cls-16, .cls-5, .cls-6, .cls-8 {
        stroke: #000;
      }

      .cls-6 {
        stroke-linecap: round;
        stroke-linejoin: round;
      }

      .cls-7, .cls-9 {
        fill: red;
      }

      .cls-8 {
        stroke-width: 3px;
      }

      .cls-10, .cls-11, .cls-13, .cls-14, .cls-15, .cls-16, .cls-9 {
        stroke-miterlimit: 10;
      }

      .cls-11, .cls-14, .cls-9 {
        stroke-width: 0.24px;
      }

      .cls-10 {
        stroke-width: 0.4px;
      }

      .cls-12 {
        stroke-width: 2px;
      }

      .cls-13 {
        stroke-width: 0.17px;
      }

      .cls-14 {
        fill: #ff0505;
        stroke: #ff0505;
      }

      .cls-15 {
        stroke-width: 0.32px;
      }

      .cls-16 {
        stroke-width: 0.22px;
      }
    </style>
    <pattern id="_.2987665196650495" data-name=".2987665196650495" width="10" height="10" patternTransform="matrix(1, 0, 0, -1, -1.9, 845.14)" patternUnits="userSpaceOnUse" viewBox="0 0 10 10">
      <rect class="cls-1" width="10" height="10"/>
      <path class="cls-2" d="M10,10H0V0"/>
    </pattern>
  </defs>
  <rect class="cls-3" x="0.25" y="0.25" width="662" height="556"/>
  <g>
    <path class="cls-4" d="M304.76,251.28a13.53,13.53,0,1,1,13.53,13.53A13.53,13.53,0,0,1,304.76,251.28Z" transform="translate(1.1 0.25)"/>
    <path class="cls-5" d="M217.08,141.31c80.46-45.45,204.12-38.74,273.41,3" transform="translate(1.1 0.25)"/>
    <path class="cls-5" d="M191.75,186.75C217.47,172.22,247.61,163,279,158.59c66.75-9.42,139,2.76,186.18,31.14" transform="translate(1.1 0.25)"/>
    <path class="cls-5" d="M217.08,141.31l-25.33,45.44" transform="translate(1.1 0.25)"/>
    <path class="cls-5" d="M490.49,144.29l-25.33,45.44" transform="translate(1.1 0.25)"/>
    <path class="cls-6" d="M134,139c-6.1,3.11-12.22,6.53-18,10-5.93,3.56-11.84,4.63-19,10-2.07,1.56-6.74,5.17-9.7,7.39C65,183.1,45.45,205.71,31,231c-5.62,9.84-4.78,24-6,35-3.89,35,3.08,64.24,22.53,83.69,1.14,1.14,5.26,5.21,7.47,6.31,26.12,13.06,48.5,22.38,79,30,13,3.24,28.41,9.38,42,10,25.3,1.15,50.08-2.89,75-6,1-.12,6.07-1.15,8.37-1.44C297,383.86,333.27,376.05,373,378c12.79.63,23.61,5.76,36,7,28.2,2.82,57.26,8.87,86,6,50.06-5,79.68-30.14,103-69,5.55-9.26,12.5-40,14-52,3.59-28.73,8.07-59.86-5-86a41.38,41.38,0,0,0-4.25-6.76c-2-3-4.45-6.2-7.75-10.24-11.4-9.91-16.26-14.4-30.4-22.71-.08,0-3.54-2.27-3.6-2.29-8.1-5-22.67-12.22-31-15-58.37-19.46-120.61-36-190-31-28.7,2-60.37,2.56-87,7-13.27,2.21-26.58,6.72-38,9-16,3.2-25.87,3.93-38,10-12.07,5.56-21.6,8.71-33.87,13.82-4.26,1.8-4.26,1.27-9.13,3.18" transform="translate(1.1 0.25)"/>
    <g>
      <path class="cls-4" d="M348.2,136.72l77.13-100" transform="translate(1.1 0.25)"/>
      <path class="cls-7" d="M425.09,50.41,429,32l-16.82,8.46Z" transform="translate(1.1 0.25)"/>
    </g>
    <g>
      <path class="cls-8" d="M348.2,136.72v-64" transform="translate(1.1 0.25)"/>
      <path d="M355.06,82,348.2,67.72,341.34,82Z" transform="translate(1.1 0.25)"/>
    </g>
  </g>
  <path class="cls-9" d="M325.85,253.13v-1.77h-7.2v-7.14h-1.77v7.14h-7.2v1.77h7.2v7.23h1.77v-7.23Z" transform="translate(1.1 0.25)"/>
  <path class="cls-10" d="M343.83,262.83a13.41,13.41,0,0,0-5.05-1.2c-3.75,0-8.15,4.4-9,5.4-2,2.35-4,9.65-4,14.8,0,2.95.6,4.45,1.8,4.45s2.05-.4,3.65-1.5a30.38,30.38,0,0,0,8.75-9.5l-3.8,20.7a6.07,6.07,0,0,1-1.35,2.85l.45.7a36,36,0,0,1,4.3-.85,78.6,78.6,0,0,1,.95-7.95l4.3-22.8a41.35,41.35,0,0,1,1.35-5.9l-.7-.3Zm-13.35,19.95c-.7,0-1.1-1-1.1-2.7,0-4.8,2.15-12.3,4.25-14.8a4.91,4.91,0,0,1,3.65-1.2c1.4,0,2.45.3,4.85,1.35l-1.05,4.75C339.63,277,332.58,282.78,330.48,282.78Z" transform="translate(1.1 0.25)"/>
  <g>
    <g>
      <path class="cls-11" d="M321.56,61.61l-.21-.27-2,.51-.3,1.53a16.47,16.47,0,0,1-2.13,5.79c-1.77,2.73-4.11,4.86-5.31,4.86-.24,0-.39-.27-.39-.78a7.7,7.7,0,0,1,.21-1.56l1.71-8.13a7.11,7.11,0,0,0,.15-1.29c0-.57-.27-.93-.69-.93-.6,0-1.74.63-4,2.22l-.84.6.21.6,1-.63c.84-.54,1.17-.69,1.44-.69a.57.57,0,0,1,.51.6,3.31,3.31,0,0,1-.06.54l-1.89,8.91a9.17,9.17,0,0,0-.12,1.41,1.13,1.13,0,0,0,1.05,1.23c1.89,0,5.52-3.36,8-7.5l-1.11,4.26a8.18,8.18,0,0,0-.33,2c0,.75.33,1.2.9,1.2.78,0,1.86-.63,4.8-2.82l-.3-.54-.78.51a4.6,4.6,0,0,1-1.83.81c-.24,0-.39-.21-.39-.51C318.86,72.44,321.11,63.32,321.56,61.61Z" transform="translate(1.1 0.25)"/>
      <polyline class="cls-12" points="307.9 56.38 316.23 50.83 324.56 56.38"/>
    </g>
    <path class="cls-13" d="M324.85,78.74l.14.42.68-.44c.77-.48.84-.52,1-.52s.38.21.38.52a50.37,50.37,0,0,1-1.72,8.13l.15.23c.52-.15,1-.27,1.47-.36a12.17,12.17,0,0,1,1.8-5.46c1.14-1.76,2.71-3.06,3.66-3.06.23,0,.35.19.35.5a6,6,0,0,1-.23,1.49l-1.09,4.45a7.36,7.36,0,0,0-.27,1.6c0,.52.23.84.63.84s1.3-.44,3.36-2l-.21-.38-.55.35a3.47,3.47,0,0,1-1.28.63c-.15,0-.27-.18-.27-.42a2.85,2.85,0,0,1,0-.42l1.39-5.79a8,8,0,0,0,.23-1.56c0-.48-.23-.75-.65-.75a6.52,6.52,0,0,0-3.57,2,17.38,17.38,0,0,0-2.48,3l.8-3.38a4.23,4.23,0,0,0,.12-.86c0-.44-.17-.69-.48-.69s-1.26.46-2.79,1.55Z" transform="translate(1.1 0.25)"/>
  </g>
  <path class="cls-14" d="M434.13,64.93h3.51l4,.12.57-1.35-.12-.21c-2.43.12-4.23.18-6.57.18h-1.11l1.41-8.1c1,0,3.45-.12,4.11-.12,1.86,0,3.09.27,3.12.72l.24,2.67H444a20.27,20.27,0,0,1,.63-4.56c-.63-.06-1.53-.09-2.07-.09-.09,0-.42,0-1.14,0l-3.6,0c-.27,0-5.49,0-5.79,0l-1.35,0-.09.84,1.62.06c.72,0,1.05.27,1.05.81a18.52,18.52,0,0,1-.27,2.28L430.35,73.3c-.12.54-.48.75-1.8,1l-.15.78,1.23,0c.93,0,2.79-.06,3.39-.06l6.75.09c.42,0,1.17,0,2.16-.06l1,0,.12-1.08c.06-.6.21-1.5.48-3l.15-.78h-.81l-.48,1.8c-.3,1.08-.57,1.44-1.23,1.59a34.72,34.72,0,0,1-4.41.27,40.28,40.28,0,0,1-4.11-.21Z" transform="translate(1.1 0.25)"/>
  <g>
    <path class="cls-15" d="M254.84,476.16v-1.24c-.68,0-2.64-.08-3.2-.52a7.11,7.11,0,0,1,.24-3c7,0,12.88-2.44,14.24-10.28,1.28-7.32-5-8.52-10.92-8.52.64-3.32,1.08-2.76,4.32-3v-1.2c-3.52.16-7,.16-10.52,0v1.2c3.12.2,3.6-.4,3.12,3-6.32,0-12.76,1.56-14.08,9.08s4.28,9.72,10.76,9.72c-.68,3.76-.8,3.28-4.48,3.52v1.24A83.92,83.92,0,0,1,254.84,476.16Zm7.24-14.52c-1,5.4-4.6,8.68-10,8.84l3-16.88C260.28,453.68,263,456.08,262.08,461.64ZM249,470.48c-5.36-.16-7.92-3.44-7-8.8,1-5.76,4.44-7.88,9.92-8.08Z" transform="translate(1.1 0.25)"/>
    <path class="cls-16" d="M272.07,475.6c0-7.28,2.72-10.25,4.34-12.15l-.53-.73a16.09,16.09,0,0,0-6.22,12.88,17.54,17.54,0,0,0,2,8.34,17.11,17.11,0,0,0,4.17,5.13l.53-.59C275.12,486.88,272.07,483.47,272.07,475.6Z" transform="translate(1.1 0.25)"/>
    <g>
      <path class="cls-16" d="M287.05,472.69h3.27l3.7.12.53-1.26-.11-.2c-2.27.11-3.95.17-6.13.17h-1l1.32-7.56c.89,0,3.22-.11,3.83-.11,1.74,0,2.89.25,2.92.67l.22,2.49h.67a19.25,19.25,0,0,1,.59-4.26c-.59-.05-1.43-.08-1.93-.08-.09,0-.39,0-1.07,0l-3.36,0c-.25,0-5.12,0-5.4,0l-1.26,0-.08.78,1.51.06c.67,0,1,.25,1,.76a17.14,17.14,0,0,1-.25,2.12l-2.44,14.12c-.11.5-.45.7-1.68.89l-.14.73,1.15,0c.87,0,2.6-.05,3.16-.05l6.3.08c.39,0,1.09,0,2-.06l.92,0,.11-1c.06-.56.2-1.4.45-2.77l.14-.73h-.75l-.45,1.68c-.28,1-.53,1.34-1.15,1.48a32.84,32.84,0,0,1-4.12.25,36.63,36.63,0,0,1-3.83-.19Z" transform="translate(1.1 0.25)"/>
      <path class="cls-16" d="M306.33,462.72l-.53.73c1.54,1.79,4.34,4.87,4.34,12.15,0,7.73-2.91,11.11-4.34,12.88l.53.59a17.19,17.19,0,0,0,6.22-13.44A16.11,16.11,0,0,0,306.33,462.72Z" transform="translate(1.1 0.25)"/>
    </g>
    <path class="cls-15" d="M352.74,462.12v-2.36H331.18v2.36Zm0,8.52v-2.36H331.18v2.36Z" transform="translate(1.1 0.25)"/>
    <g>
      <path class="cls-15" d="M395.49,429.68a10.73,10.73,0,0,0-4-1c-3,0-6.52,3.52-7.24,4.32-1.6,1.88-3.16,7.72-3.16,11.84,0,2.36.48,3.56,1.44,3.56a5,5,0,0,0,2.92-1.2,24.31,24.31,0,0,0,7-7.6l-3,16.56a4.86,4.86,0,0,1-1.08,2.28l.36.56a28.78,28.78,0,0,1,3.44-.68,62.88,62.88,0,0,1,.76-6.36l3.44-18.24a33.08,33.08,0,0,1,1.08-4.72l-.56-.24Zm-10.68,16c-.56,0-.88-.84-.88-2.16,0-3.84,1.72-9.84,3.4-11.84a3.93,3.93,0,0,1,2.92-1,8.9,8.9,0,0,1,3.88,1.08l-.84,3.8C392.13,441,386.49,445.64,384.81,445.64Z" transform="translate(1.1 0.25)"/>
      <g>
        <path class="cls-15" d="M384.55,499.14a11.75,11.75,0,0,1,.6-1.64c-3.16.08-6.24,0-9.36,0,.76-3.48,3-7,7-7,2.4,0,3.28.72,4.36,2.76h.8l1.64-2.12c-7-6.8-17.76,2.44-17.76,10.68,0,4.51,2.64,6.63,6.92,6.63,3.08,0,5.64-2.32,8-4.12v-.76c-1.88,1.32-4.12,2.88-6.48,2.88-3,0-5.4-3.48-4.76-7.23C376,499.26,383.47,499.14,384.55,499.14Z" transform="translate(1.1 0.25)"/>
        <path class="cls-16" d="M398.43,495.77c-4.34,0-6.56,3.44-6.56,10.22,0,3.28.59,6.1,1.57,7.48a5.2,5.2,0,0,0,4.29,2.15c4.22,0,6.35-3.64,6.35-10.81C404.08,498.68,402.26,495.77,398.43,495.77Zm-.51,1c2.72,0,3.81,2.74,3.81,9.46,0,6-1.06,8.43-3.64,8.43s-3.86-2.83-3.86-9.66C394.23,499.07,395.26,496.75,397.92,496.75Z" transform="translate(1.1 0.25)"/>
      </g>
      <line class="cls-12" x1="372.37" y1="466.27" x2="408.52" y2="466.27"/>
    </g>
  </g>
</svg>
