<svg id="Livello_1" data-name="Livello 1" xmlns="http://www.w3.org/2000/svg" xmlns:xlink="http://www.w3.org/1999/xlink" width="662.5" height="582.5" viewBox="0 0 662.5 582.5">
  <defs>
    <style>
      .cls-1, .cls-10, .cls-11, .cls-12, .cls-2, .cls-4, .cls-5, .cls-7, .cls-8, .cls-9 {
        fill: none;
      }

      .cls-2, .cls-3 {
        stroke: #d3d3d3;
        stroke-width: 0.5px;
      }

      .cls-3 {
        fill: url(#_.7457492991407171);
      }

      .cls-10, .cls-11, .cls-12, .cls-15, .cls-16, .cls-17, .cls-18, .cls-19, .cls-4, .cls-7, .cls-9 {
        stroke: #000;
      }

      .cls-4, .cls-8 {
        stroke-width: 4px;
      }

      .cls-13, .cls-14, .cls-5, .cls-8 {
        stroke: red;
      }

      .cls-5 {
        stroke-width: 6px;
      }

      .cls-13, .cls-14, .cls-6 {
        fill: red;
      }

      .cls-11, .cls-7, .cls-9 {
        stroke-width: 3px;
      }

      .cls-7 {
        stroke-dasharray: 3.38 4.02;
      }

      .cls-10 {
        stroke-width: 2px;
      }

      .cls-11 {
        stroke-dasharray: 9 6;
      }

      .cls-13, .cls-14, .cls-15, .cls-16, .cls-17, .cls-18, .cls-19 {
        stroke-miterlimit: 10;
      }

      .cls-13, .cls-15 {
        stroke-width: 0.4px;
      }

      .cls-14, .cls-16 {
        stroke-width: 0.24px;
      }

      .cls-17 {
        stroke-width: 0.17px;
      }

      .cls-18 {
        stroke-width: 0.32px;
      }

      .cls-19 {
        stroke-width: 0.22px;
      }
    </style>
    <pattern id="_.7457492991407171" data-name=".7457492991407171" width="10" height="10" patternTransform="matrix(1, 0, 0, -1, -2.75, 842.14)" patternUnits="userSpaceOnUse" viewBox="0 0 10 10">
      <rect class="cls-1" width="10" height="10"/>
      <path class="cls-2" d="M10,10H0V0"/>
    </pattern>
  </defs>
  <rect class="cls-3" x="0.25" y="0.25" width="662" height="582"/>
  <g>
    <path class="cls-4" d="M161.42,170.24c122.06-68.95,309.69-58.78,414.8,4.52" transform="translate(0.25 0.25)"/>
    <g>
      <path class="cls-5" d="M386.14,164.45,512.31,13.62" transform="translate(0.25 0.25)"/>
      <path class="cls-6" d="M510.86,33.41l6.59-25.93L493.09,18.55Z" transform="translate(0.25 0.25)"/>
    </g>
    <g>
      <path class="cls-5" d="M386.14,164.45,512.31,13.62" transform="translate(0.25 0.25)"/>
      <path class="cls-6" d="M510.86,33.41l6.59-25.93L493.09,18.55Z" transform="translate(0.25 0.25)"/>
    </g>
    <path class="cls-7" d="M386.14,164.45,114,484.55" transform="translate(0.25 0.25)"/>
    <path class="cls-8" d="M71,505.07a26.56,26.56,0,1,1,26.55,26.56A26.55,26.55,0,0,1,71,505.07Z" transform="translate(0.25 0.25)"/>
    <g>
      <path class="cls-9" d="M114,484.55l55.56-66.35" transform="translate(0.25 0.25)"/>
      <path d="M168.8,429.73l3.92-15.36-14.43,6.55Z" transform="translate(0.25 0.25)"/>
    </g>
    <g>
      <path class="cls-9" d="M386.14,164.45V78" transform="translate(0.25 0.25)"/>
      <path d="M393,87.33,386.14,73l-6.86,14.29Z" transform="translate(0.25 0.25)"/>
    </g>
    <path class="cls-10" d="M123,239.18c158.23-20.34,281.43,101.72,312,115.29" transform="translate(0.25 0.25)"/>
    <path class="cls-10" d="M473.37,285.52l-38.43,69" transform="translate(0.25 0.25)"/>
    <path class="cls-10" d="M236,199.07c120.4-15.25,214.14,76.28,237.36,86.45" transform="translate(0.25 0.25)"/>
    <path class="cls-11" d="M473.37,285.52,120.73,491.23" transform="translate(0.25 0.25)"/>
    <path class="cls-11" d="M434.94,354.47,120.73,491.23" transform="translate(0.25 0.25)"/>
    <path class="cls-11" d="M123,239.18,97.56,478.52" transform="translate(0.25 0.25)"/>
    <path class="cls-11" d="M161.42,170.24,103.78,476.53" transform="translate(0.25 0.25)"/>
    <path class="cls-4" d="M123,239.18c122.07-68.94,309.69-58.77,414.8,4.52" transform="translate(0.25 0.25)"/>
    <path class="cls-4" d="M123,239.18c122.07-68.94,309.69-58.77,414.8,4.52" transform="translate(0.25 0.25)"/>
    <path class="cls-4" d="M161.42,170.24,123,239.18" transform="translate(0.25 0.25)"/>
    <path class="cls-4" d="M576.22,174.76,537.79,243.7" transform="translate(0.25 0.25)"/>
    <path class="cls-11" d="M576.22,174.76,120.73,491.23" transform="translate(0.25 0.25)"/>
    <path class="cls-11" d="M537.79,243.7,120.73,481.05" transform="translate(0.25 0.25)"/>
    <path class="cls-12" d="M385.21,143.11c4.91-13.68,19.13-16.81,17.56,4.4" transform="translate(0.25 0.25)"/>
  </g>
  <path class="cls-13" d="M111.17,507.29v-3h-12v-11.9h-3v11.9h-12v3h12v12.05h3V507.29Z" transform="translate(0.25 0.25)"/>
  <g>
    <path class="cls-14" d="M509.63,78.14h3.51l4,.12.57-1.35-.12-.21c-2.43.12-4.23.18-6.57.18h-1.11l1.41-8.1c1,0,3.45-.12,4.11-.12,1.86,0,3.09.27,3.12.72l.24,2.67h.72a20.27,20.27,0,0,1,.63-4.56c-.63-.06-1.53-.09-2.07-.09-.09,0-.42,0-1.14,0l-3.6,0c-.27,0-5.49,0-5.79,0l-1.35,0-.09.84,1.62.06c.72,0,1.05.27,1.05.81a18.52,18.52,0,0,1-.27,2.28l-2.61,15.12c-.12.54-.48.75-1.8,1l-.15.78,1.23,0c.93,0,2.79-.06,3.39-.06l6.75.09c.42,0,1.17,0,2.16-.06l1,0,.12-1.08c.06-.6.21-1.5.48-3l.15-.78h-.81l-.48,1.8c-.3,1.08-.57,1.44-1.23,1.59a34.72,34.72,0,0,1-4.41.27,40.28,40.28,0,0,1-4.11-.21Z" transform="translate(0.25 0.25)"/>
    <path class="cls-6" d="M522.78,56.72l-5.56-5.86-.86.92,3.4,4.1h-.27v1.59h.27l-3.4,4.1.86.92ZM506,57.39h16V55.8H506Z" transform="translate(0.25 0.25)"/>
  </g>
  <path class="cls-15" d="M140.25,530.55a13.41,13.41,0,0,0-5.05-1.2c-3.75,0-8.15,4.4-9,5.4-2,2.35-4,9.65-4,14.8,0,3,.6,4.45,1.8,4.45s2-.4,3.65-1.5a30.38,30.38,0,0,0,8.75-9.5l-3.8,20.7a6.07,6.07,0,0,1-1.35,2.85l.45.7a36,36,0,0,1,4.3-.85,78.6,78.6,0,0,1,.95-7.95l4.3-22.8a41.35,41.35,0,0,1,1.35-5.9l-.7-.3Zm-13.35,20c-.7,0-1.1-1-1.1-2.7,0-4.8,2.15-12.3,4.25-14.8a4.91,4.91,0,0,1,3.65-1.2c1.4,0,2.45.3,4.85,1.35l-1.05,4.75C136.05,544.75,129,550.5,126.9,550.5Z" transform="translate(0.25 0.25)"/>
  <g>
    <g>
      <path class="cls-16" d="M157.07,386.9l-.21-.27-2,.51-.3,1.53a16.47,16.47,0,0,1-2.13,5.79c-1.77,2.73-4.11,4.86-5.31,4.86-.24,0-.39-.27-.39-.78a7.7,7.7,0,0,1,.21-1.56l1.71-8.13a7.11,7.11,0,0,0,.15-1.29c0-.57-.27-.93-.69-.93-.6,0-1.74.63-4,2.22l-.84.6.21.6,1-.63c.84-.54,1.17-.69,1.44-.69a.57.57,0,0,1,.51.6,3.31,3.31,0,0,1-.06.54l-1.89,8.91a9.17,9.17,0,0,0-.12,1.41,1.13,1.13,0,0,0,1.05,1.23c1.89,0,5.52-3.36,8-7.5l-1.11,4.26a8.18,8.18,0,0,0-.33,2c0,.75.33,1.2.9,1.2.78,0,1.86-.63,4.8-2.82l-.3-.54-.78.51a4.6,4.6,0,0,1-1.83.81c-.24,0-.39-.21-.39-.51C154.37,397.73,156.62,388.61,157.07,386.9Z" transform="translate(0.25 0.25)"/>
      <polyline class="cls-10" points="142.56 381.67 150.89 376.12 159.22 381.67"/>
    </g>
    <path class="cls-17" d="M167.59,404.52a20.38,20.38,0,0,1,.33-2.33,1,1,0,0,0-.42-.12c-.65,0-1.3.5-2.05,1.57a27.18,27.18,0,0,0-2,3.17l.67-3.19a3.59,3.59,0,0,0,.13-.88c0-.42-.17-.67-.48-.67s-1.24.44-2.8,1.55l-.58.42.14.42.67-.44c.59-.38.82-.48,1-.48s.36.18.36.46a44.72,44.72,0,0,1-1.74,8.23l.21.15a10.93,10.93,0,0,1,1.13-.28l.27,0,.55-2.52a9.28,9.28,0,0,1,1.78-4.05c.72-.93,1.29-1.37,1.75-1.37a.87.87,0,0,1,.75.4Z" transform="translate(0.25 0.25)"/>
  </g>
  <path class="cls-18" d="M223.06,319a37.1,37.1,0,0,1,.64-4.44,1.8,1.8,0,0,0-.8-.24c-1.24,0-2.48,1-3.92,3a49.32,49.32,0,0,0-3.76,6l1.28-6.08a7.33,7.33,0,0,0,.24-1.68c0-.8-.32-1.28-.92-1.28-.84,0-2.36.84-5.32,3l-1.12.8.28.8,1.28-.84c1.12-.72,1.56-.92,1.92-.92s.68.36.68.88c0,2.32-1.72,10.56-3.32,15.68l.4.28a21.74,21.74,0,0,1,2.16-.52l.52-.08,1-4.8a17.52,17.52,0,0,1,3.4-7.72c1.36-1.76,2.44-2.6,3.32-2.6a1.65,1.65,0,0,1,1.44.76Z" transform="translate(0.25 0.25)"/>
  <g>
    <g>
      <path class="cls-16" d="M365.82,138.14l-.21-.27-2,.51-.3,1.53a16.47,16.47,0,0,1-2.13,5.79c-1.77,2.73-4.11,4.86-5.31,4.86-.24,0-.39-.27-.39-.78a7.7,7.7,0,0,1,.21-1.56l1.71-8.13a7.11,7.11,0,0,0,.15-1.29c0-.57-.27-.93-.69-.93-.6,0-1.74.63-4,2.22l-.84.6.21.6,1-.63c.84-.54,1.17-.69,1.44-.69a.57.57,0,0,1,.51.6,3.31,3.31,0,0,1-.06.54L353.19,150a9.17,9.17,0,0,0-.12,1.41,1.13,1.13,0,0,0,1.05,1.23c1.89,0,5.52-3.36,8-7.5l-1.11,4.26a8.18,8.18,0,0,0-.33,2c0,.75.33,1.2.9,1.2.78,0,1.86-.63,4.8-2.82l-.3-.54-.78.51a4.6,4.6,0,0,1-1.83.81c-.24,0-.39-.21-.39-.51C363.12,149,365.37,139.85,365.82,138.14Z" transform="translate(0.25 0.25)"/>
      <polyline class="cls-10" points="351.31 132.91 359.64 127.36 367.97 132.91"/>
    </g>
    <path class="cls-17" d="M369.11,155.27l.15.42.67-.44c.78-.48.84-.52,1-.52s.38.21.38.52a50.37,50.37,0,0,1-1.72,8.13l.14.23c.53-.15,1-.27,1.47-.36a12,12,0,0,1,1.81-5.46c1.13-1.76,2.71-3.06,3.65-3.06.23,0,.36.19.36.5a6,6,0,0,1-.23,1.49l-1.09,4.45a7.56,7.56,0,0,0-.28,1.6c0,.53.23.84.63.84s1.31-.44,3.36-2l-.21-.38-.54.36a3.65,3.65,0,0,1-1.28.63c-.15,0-.28-.19-.28-.42a1.79,1.79,0,0,1,.05-.42l1.38-5.8a7.32,7.32,0,0,0,.23-1.55c0-.49-.23-.76-.65-.76a6.59,6.59,0,0,0-3.57,1.95,17.85,17.85,0,0,0-2.48,3l.8-3.38A3.65,3.65,0,0,0,373,154c0-.44-.17-.69-.49-.69s-1.26.46-2.79,1.55Z" transform="translate(0.25 0.25)"/>
  </g>
  <path class="cls-18" d="M581,230.28l-.48-.44a15.67,15.67,0,0,1-6.4,1.68l-.16.84h1.92c1,0,1.36.28,1.36,1a7.17,7.17,0,0,1-.08,1L576,240.44a11.51,11.51,0,0,0-3.28-.56c-2.76,0-6.52,2.88-8.36,6.36a22.1,22.1,0,0,0-2,9.48c0,2.6.6,3.88,1.76,3.88a7.13,7.13,0,0,0,3.92-1.76c2.16-1.76,3.48-3.32,6.16-7.36l-.92,3.64a17.31,17.31,0,0,0-.64,4.08c0,.84.36,1.32,1,1.32a6,6,0,0,0,3-1.48l3.24-2.4-.4-.76-1.76,1.24a3.35,3.35,0,0,1-1.56.68c-.32,0-.56-.36-.56-.92A7.75,7.75,0,0,1,576,254ZM566.23,256.8c-.64,0-1-.56-1-1.56,0-5,1.84-11.28,3.8-12.8a3.79,3.79,0,0,1,2.36-.6,8.4,8.4,0,0,1,4.24.92l-.48,2.36C573.67,252.32,568,256.8,566.23,256.8Zm38.28,2.52c.52-2.64,1-5.24,1.68-7.88v-.12h-.88v.12c-1.36,3.28-1.68,4.68-5.48,4.68H585.51c3.32-4.32,6.8-8.6,10.36-12.68-1.8-3.24-3.32-6.68-4.84-10h10.12c4,0,4.16.68,4,4.32h.88v-.16c.44-1.88.76-3.84,1.36-5.72v-.24c-7,.32-14.08.28-21,.32v.64a120.72,120.72,0,0,1,6.12,13,147.81,147.81,0,0,1-11.52,13v.76C588.87,259.12,596.63,259.12,604.51,259.32Z" transform="translate(0.25 0.25)"/>
  <g>
    <path class="cls-18" d="M472.52,357.2l-.48-.44a15.67,15.67,0,0,1-6.4,1.68l-.16.84h1.92c1,0,1.36.28,1.36,1a7.17,7.17,0,0,1-.08,1l-1.12,6.16a11.51,11.51,0,0,0-3.28-.56c-2.76,0-6.52,2.88-8.36,6.36a22.1,22.1,0,0,0-2,9.48c0,2.6.6,3.88,1.76,3.88a7.13,7.13,0,0,0,3.92-1.76c2.16-1.76,3.48-3.32,6.16-7.36L464.8,381a17.31,17.31,0,0,0-.64,4.08c0,.84.36,1.32,1,1.32a6,6,0,0,0,3-1.48l3.24-2.4-.4-.76L469.28,383a3.35,3.35,0,0,1-1.56.68c-.32,0-.56-.36-.56-.92a7.75,7.75,0,0,1,.32-1.84Zm-14.76,26.52c-.64,0-1-.56-1-1.56,0-5,1.84-11.28,3.8-12.8a3.79,3.79,0,0,1,2.36-.6,8.4,8.4,0,0,1,4.24.92l-.48,2.36C465.2,379.24,459.56,383.72,457.76,383.72ZM496,386.24c.52-2.64,1-5.24,1.68-7.88v-.12h-.88v.12c-1.36,3.28-1.68,4.68-5.48,4.68H477c3.32-4.32,6.8-8.6,10.36-12.68-1.8-3.24-3.32-6.68-4.84-10h10.12c4,0,4.16.68,4,4.32h.88v-.16c.44-1.88.76-3.84,1.36-5.72v-.24c-7,.32-14.08.28-21,.32v.64a120.72,120.72,0,0,1,6.12,13,147.81,147.81,0,0,1-11.52,13v.76C480.4,386,488.16,386,496,386.24Z" transform="translate(0.25 0.25)"/>
    <path class="cls-19" d="M509.07,373.83c-4.34,0-6.55,3.45-6.55,10.22,0,3.28.58,6.11,1.56,7.48a5.2,5.2,0,0,0,4.29,2.15c4.22,0,6.35-3.64,6.35-10.8C514.72,376.74,512.9,373.83,509.07,373.83Zm-.51,1c2.72,0,3.81,2.75,3.81,9.47,0,6-1.06,8.42-3.64,8.42s-3.86-2.82-3.86-9.66C504.87,377.14,505.9,374.81,508.56,374.81Z" transform="translate(0.25 0.25)"/>
  </g>
  <path class="cls-16" d="M414.44,181.45c7.08,0,10.05-10,10.17-15.6.06-3.42-.9-5.94-4.71-5.94-7.8,0-10.41,8.7-10.5,15.09C409.34,178.57,410.36,181.45,414.44,181.45Zm4.92-20.76c4.05,0,3.15,5.55,2.52,8.85H412.4C413.15,166.42,415.49,160.69,419.36,160.69Zm-4.44,19.89c-4.53,0-3.18-7.44-2.7-10.08h9.48C421,173.86,419.21,180.58,414.92,180.58Z" transform="translate(0.25 0.25)"/>
</svg>
