<svg id="Livello_1" data-name="Livello 1" xmlns="http://www.w3.org/2000/svg" xmlns:xlink="http://www.w3.org/1999/xlink" width="662.5" height="575.5" viewBox="0 0 662.5 575.5">
  <defs>
    <style>
      .cls-1, .cls-10, .cls-2, .cls-4, .cls-5, .cls-6, .cls-7 {
        fill: none;
      }

      .cls-2, .cls-3 {
        stroke: #d3d3d3;
        stroke-width: 0.5px;
      }

      .cls-3 {
        fill: url(#_.441971228805659);
      }

      .cls-12, .cls-4 {
        stroke: #4a90e2;
      }

      .cls-10, .cls-4, .cls-5, .cls-7 {
        stroke-width: 3px;
      }

      .cls-13, .cls-5 {
        stroke: #ff001f;
      }

      .cls-14, .cls-15, .cls-6, .cls-9 {
        stroke: #000;
      }

      .cls-16, .cls-7 {
        stroke: red;
      }

      .cls-16, .cls-8 {
        fill: red;
      }

      .cls-10, .cls-17 {
        stroke: #7ed321;
      }

      .cls-11, .cls-17 {
        fill: #7ed321;
      }

      .cls-12 {
        fill: #4a90e2;
      }

      .cls-12, .cls-13, .cls-14, .cls-15, .cls-16, .cls-17 {
        stroke-miterlimit: 10;
      }

      .cls-12, .cls-13 {
        stroke-width: 0.4px;
      }

      .cls-13 {
        fill: #ff001f;
      }

      .cls-14, .cls-16, .cls-17 {
        stroke-width: 0.32px;
      }

      .cls-15 {
        stroke-width: 0.22px;
      }
    </style>
    <pattern id="_.441971228805659" data-name=".441971228805659" width="10" height="10" patternTransform="matrix(1, 0, 0, -1, -2.75, 845.14)" patternUnits="userSpaceOnUse" viewBox="0 0 10 10">
      <rect class="cls-1" width="10" height="10"/>
      <path class="cls-2" d="M10,10H0V0"/>
    </pattern>
  </defs>
  <rect class="cls-3" x="0.25" y="0.25" width="662" height="575"/>
  <g>
    <path class="cls-4" d="M138.26,425.57a22.93,22.93,0,1,1,22.93,22.93A22.92,22.92,0,0,1,138.26,425.57Z" transform="translate(0.25 0.25)"/>
    <path class="cls-4" d="M449.48,131.27A22.93,22.93,0,1,1,472.4,154.2,22.92,22.92,0,0,1,449.48,131.27Z" transform="translate(0.25 0.25)"/>
    <path class="cls-5" d="M449.48,131.27A22.93,22.93,0,1,1,472.4,154.2,22.92,22.92,0,0,1,449.48,131.27Z" transform="translate(0.25 0.25)"/>
    <path class="cls-6" d="M453.18,146.55l-272,264.57" transform="translate(0.25 0.25)"/>
    <g>
      <path class="cls-7" d="M67.51,95.58h502" transform="translate(0.25 0.25)"/>
      <path class="cls-8" d="M560.2,102.44l14.29-6.86L560.2,88.72Z" transform="translate(0.25 0.25)"/>
    </g>
    <g>
      <path class="cls-7" d="M64.6,164.25h502" transform="translate(0.25 0.25)"/>
      <path class="cls-8" d="M557.29,171.11l14.29-6.86-14.29-6.86Z" transform="translate(0.25 0.25)"/>
    </g>
    <g>
      <path class="cls-7" d="M60.5,221.48h502" transform="translate(0.25 0.25)"/>
      <path class="cls-8" d="M553.19,228.34l14.29-6.86-14.29-6.86Z" transform="translate(0.25 0.25)"/>
    </g>
    <g>
      <path class="cls-7" d="M61.5,279.66h502" transform="translate(0.25 0.25)"/>
      <path class="cls-8" d="M554.19,286.52l14.29-6.86-14.29-6.86Z" transform="translate(0.25 0.25)"/>
    </g>
    <g>
      <path class="cls-7" d="M61.5,391.25h502" transform="translate(0.25 0.25)"/>
      <path class="cls-8" d="M554.19,398.11l14.29-6.86-14.29-6.86Z" transform="translate(0.25 0.25)"/>
    </g>
    <g>
      <path class="cls-7" d="M59.5,451.34h502" transform="translate(0.25 0.25)"/>
      <path class="cls-8" d="M552.19,458.2l14.29-6.86-14.29-6.86Z" transform="translate(0.25 0.25)"/>
    </g>
    <g>
      <path class="cls-7" d="M58.5,333.07h502" transform="translate(0.25 0.25)"/>
      <path class="cls-8" d="M551.18,339.93l14.29-6.86-14.29-6.86Z" transform="translate(0.25 0.25)"/>
    </g>
    <path class="cls-9" d="M312.13,279.66a2.86,2.86,0,1,1,2.86,2.86A2.86,2.86,0,0,1,312.13,279.66Z" transform="translate(0.25 0.25)"/>
    <path class="cls-6" d="M339,256c32.43-18.12,38.06,25.57.86,23.66" transform="translate(0.25 0.25)"/>
    <g>
      <path class="cls-10" d="M495.33,131.27H580.5" transform="translate(0.25 0.25)"/>
      <path class="cls-11" d="M571.21,138.13l14.29-6.86-14.29-6.86Z" transform="translate(0.25 0.25)"/>
    </g>
    <g>
      <path class="cls-10" d="M53.09,425.57h85.17" transform="translate(0.25 0.25)"/>
      <path class="cls-11" d="M62.38,418.71l-14.29,6.86,14.29,6.86Z" transform="translate(0.25 0.25)"/>
    </g>
  </g>
  <path class="cls-12" d="M174.84,427.91v-2.8h-25.2v2.8Z" transform="translate(0.25 0.25)"/>
  <path class="cls-13" d="M486.56,133.72v-2.95h-12v-11.9h-2.95v11.9h-12v2.95h12v12.05h2.95V133.72Z" transform="translate(0.25 0.25)"/>
  <g>
    <path class="cls-14" d="M184.86,478.5v-2.24H164.7v2.24Z" transform="translate(0.25 0.25)"/>
    <path class="cls-14" d="M202.26,469.9a10.73,10.73,0,0,0-4-1c-3,0-6.52,3.52-7.24,4.32-1.6,1.88-3.16,7.72-3.16,11.84,0,2.36.48,3.56,1.44,3.56a5,5,0,0,0,2.92-1.2,24.31,24.31,0,0,0,7-7.6l-3,16.56a4.86,4.86,0,0,1-1.08,2.28l.36.56a28.78,28.78,0,0,1,3.44-.68,62.88,62.88,0,0,1,.76-6.36L203.06,474a33.08,33.08,0,0,1,1.08-4.72l-.56-.24Zm-10.68,16c-.56,0-.88-.84-.88-2.16,0-3.84,1.72-9.84,3.4-11.84a3.93,3.93,0,0,1,2.92-1A8.9,8.9,0,0,1,200.9,472l-.84,3.8C198.9,481.26,193.26,485.86,191.58,485.86Z" transform="translate(0.25 0.25)"/>
    <path class="cls-15" d="M218.24,495.35v-.84l-1.46-.08c-1.54-.09-1.82-.4-1.82-1.85V475.67l-6.75,2.85.2,1.4,4.2-1.85v14.51c0,1.45-.31,1.76-1.82,1.85l-1.57.08v.84l4.62-.08C214.71,495.27,217.79,495.35,218.24,495.35Z" transform="translate(0.25 0.25)"/>
  </g>
  <g>
    <path class="cls-16" d="M305.86,64.2h4.68l5.28.16.76-1.8-.16-.28c-3.24.16-5.64.24-8.76.24h-1.48l1.88-10.8c1.28,0,4.6-.16,5.48-.16,2.48,0,4.12.36,4.16,1l.32,3.56h1a27,27,0,0,1,.84-6.08c-.84-.08-2-.12-2.76-.12-.12,0-.56,0-1.52,0l-4.8,0c-.36,0-7.32,0-7.72,0l-1.8,0L301.1,51l2.16.08c1,0,1.4.36,1.4,1.08a24.69,24.69,0,0,1-.36,3l-3.48,20.16c-.16.72-.64,1-2.4,1.28l-.2,1,1.64,0c1.24,0,3.72-.08,4.52-.08l9,.12c.56,0,1.56,0,2.88-.08l1.32,0,.16-1.44c.08-.8.28-2,.64-4l.2-1H317.5l-.64,2.4c-.4,1.44-.76,1.92-1.64,2.12a46.29,46.29,0,0,1-5.88.36,53.7,53.7,0,0,1-5.48-.28Z" transform="translate(0.25 0.25)"/>
    <path class="cls-8" d="M323.41,35,316,27.18l-1.15,1.22,4.54,5.47H319V36h.36l-4.54,5.47L316,42.68Zm-22.43.9h21.35V33.77H301Z" transform="translate(0.25 0.25)"/>
  </g>
  <path class="cls-14" d="M347,299.64c0-7.12-4.16-11.24-11.36-11.24-9.48,0-16.44,7.32-16.44,17.36,0,7.56,3.76,11.6,10.8,11.6C340.92,317.36,347,308.36,347,299.64Zm-3.52.64c0,7.52-3.56,15.4-12,15.4-5.76,0-8.76-3.44-8.76-10.12,0-5.92,2.32-15.48,11.68-15.48C339.08,290.08,343.52,292.24,343.52,300.28Z" transform="translate(0.25 0.25)"/>
  <path class="cls-14" d="M382.39,269.59c9.44,0,13.4-13.28,13.56-20.8.08-4.56-1.2-7.92-6.28-7.92-10.4,0-13.88,11.6-14,20.12C375.59,265.75,377,269.59,382.39,269.59ZM389,241.91c5.4,0,4.2,7.4,3.36,11.8H379.67C380.67,249.55,383.79,241.91,389,241.91ZM383,268.43c-6,0-4.24-9.92-3.6-13.44h12.64C391.07,259.47,388.75,268.43,383,268.43Z" transform="translate(0.25 0.25)"/>
  <g>
    <path class="cls-17" d="M608.52,105.48v-2.36h-9.6V93.6h-2.36v9.52H587v2.36h9.6v9.64h2.36v-9.64Z" transform="translate(0.25 0.25)"/>
    <path class="cls-17" d="M622.52,89.28l4.24-.16c2.48,0,4.08.36,4.12,1l.32,3.56h1a27.39,27.39,0,0,1,.84-6.08c-.88-.08-2-.12-2.68-.12l-1.64,0-6.6.08h-1.16c-1,0-2.6,0-4.12-.08l-2,0-.12,1.12,2.24.08c1,0,1.4.4,1.4,1.08a24.69,24.69,0,0,1-.36,3l-3,17.36c-.68,3.68-.68,3.72-2.32,3.88l-1.44.12-.16,1.12,1.36,0c1.6,0,2.88-.08,3.72-.08s1.88,0,3.44.08l2.08,0,.12-1.12-2.56-.12c-1.08,0-1.44-.36-1.44-1.16a5,5,0,0,1,.08-.84l1.44-8.92H624c1.08,0,2.32,0,4.24.12l1,0,.76-1.8-.16-.28c-3.24.16-5.64.24-8.76.24h-1.48l1.84-10.84a4.48,4.48,0,0,1,.36-1.28Z" transform="translate(0.25 0.25)"/>
  </g>
  <g>
    <path class="cls-17" d="M28.56,403.4v-2.24H8.4v2.24Z" transform="translate(0.25 0.25)"/>
    <path class="cls-17" d="M42,387.28l4.24-.16c2.48,0,4.08.36,4.12,1l.32,3.56h1a27.39,27.39,0,0,1,.84-6.08c-.88-.08-2-.12-2.68-.12l-1.64,0-6.6.08H40.4c-1,0-2.6,0-4.12-.08l-2,0-.12,1.12,2.24.08c1,0,1.4.4,1.4,1.08a24.69,24.69,0,0,1-.36,3l-3,17.36c-.68,3.68-.68,3.72-2.32,3.88l-1.44.12-.16,1.12,1.36,0c1.6,0,2.88-.08,3.72-.08s1.88,0,3.44.08l2.08,0,.12-1.12L38.72,412c-1.08,0-1.44-.36-1.44-1.16a5,5,0,0,1,.08-.84l1.44-8.92h4.68c1.08,0,2.32,0,4.24.12l1,0,.76-1.8-.16-.28c-3.24.16-5.64.24-8.76.24H39.12L41,388.56a4.48,4.48,0,0,1,.36-1.28Z" transform="translate(0.25 0.25)"/>
  </g>
  <g>
    <path class="cls-14" d="M495.82,69.58V67.22h-9.6V57.7h-2.36v9.52h-9.6v2.36h9.6v9.64h2.36V69.58Z" transform="translate(0.25 0.25)"/>
    <path class="cls-14" d="M513.77,60.9a10.73,10.73,0,0,0-4-1c-3,0-6.52,3.52-7.24,4.32-1.6,1.88-3.16,7.72-3.16,11.84,0,2.36.48,3.56,1.44,3.56a5,5,0,0,0,2.92-1.2,24.31,24.31,0,0,0,7-7.6l-3,16.56a4.86,4.86,0,0,1-1.08,2.28l.36.56a28.78,28.78,0,0,1,3.44-.68,62.88,62.88,0,0,1,.76-6.36L514.57,65a33.08,33.08,0,0,1,1.08-4.72l-.56-.24Zm-10.68,16c-.56,0-.88-.84-.88-2.16,0-3.84,1.72-9.84,3.4-11.84a3.93,3.93,0,0,1,2.92-1A8.9,8.9,0,0,1,512.41,63l-.84,3.8C510.41,72.26,504.77,76.86,503.09,76.86Z" transform="translate(0.25 0.25)"/>
    <path class="cls-15" d="M518.49,85.62v.73c5.24,0,5.24-.08,6.25-.08s1,.08,6.41.08V84c-3.22.14-4.51,0-9.69.14l5.1-5.4c2.71-2.89,3.55-4.43,3.55-6.53,0-3.22-2.18-5.21-5.74-5.21a6,6,0,0,0-4.76,2l-.47,3.81H520l.36-1.29c.45-1.62,1.46-2.32,3.34-2.32A3.66,3.66,0,0,1,527.59,73c0,2.1-1.17,4.17-4.34,7.53Z" transform="translate(0.25 0.25)"/>
  </g>
</svg>
