<svg id="Livello_1" data-name="Livello 1" xmlns="http://www.w3.org/2000/svg" xmlns:xlink="http://www.w3.org/1999/xlink" width="662.5" height="668.5" viewBox="0 0 662.5 668.5">
  <defs>
    <style>
      .cls-1, .cls-10, .cls-11, .cls-14, .cls-16, .cls-2, .cls-27, .cls-4, .cls-5, .cls-7, .cls-8, .cls-9 {
        fill: none;
      }

      .cls-2, .cls-3 {
        stroke: #d3d3d3;
        stroke-width: 0.5px;
      }

      .cls-3 {
        fill: url(#_.7492148513693349);
      }

      .cls-10, .cls-13, .cls-16, .cls-19, .cls-20, .cls-21, .cls-24, .cls-4, .cls-7, .cls-8, .cls-9 {
        stroke: #000;
      }

      .cls-13, .cls-4, .cls-9 {
        stroke-width: 3px;
      }

      .cls-4 {
        stroke-dasharray: 9 6;
      }

      .cls-25, .cls-5 {
        stroke: #7ed321;
      }

      .cls-10, .cls-11, .cls-14, .cls-5 {
        stroke-width: 4px;
      }

      .cls-25, .cls-6 {
        fill: #7ed321;
      }

      .cls-8 {
        stroke-dasharray: 6 6;
      }

      .cls-11, .cls-18, .cls-26, .cls-27, .cls-28 {
        stroke: #4a90e2;
      }

      .cls-12, .cls-18, .cls-26, .cls-28 {
        fill: #4a90e2;
      }

      .cls-14, .cls-17, .cls-22, .cls-23 {
        stroke: #ff001f;
      }

      .cls-15, .cls-17, .cls-22, .cls-23 {
        fill: #ff001f;
      }

      .cls-16, .cls-27 {
        stroke-width: 2px;
      }

      .cls-17, .cls-18, .cls-19, .cls-20, .cls-21, .cls-22, .cls-23, .cls-24, .cls-25, .cls-26, .cls-28 {
        stroke-miterlimit: 10;
      }

      .cls-17, .cls-18, .cls-19, .cls-25 {
        stroke-width: 0.4px;
      }

      .cls-20 {
        stroke-width: 0.28px;
      }

      .cls-21, .cls-26 {
        stroke-width: 0.24px;
      }

      .cls-22, .cls-24 {
        stroke-width: 0.32px;
      }

      .cls-23 {
        stroke-width: 0.22px;
      }

      .cls-28 {
        stroke-width: 0.17px;
      }
    </style>
    <pattern id="_.7492148513693349" data-name=".7492148513693349" width="10" height="10" patternTransform="matrix(1, 0, 0, -1, -2.75, 849.14)" patternUnits="userSpaceOnUse" viewBox="0 0 10 10">
      <rect class="cls-1" width="10" height="10"/>
      <path class="cls-2" d="M10,10H0V0"/>
    </pattern>
  </defs>
  <rect class="cls-3" x="0.25" y="0.25" width="662" height="668"/>
  <g>
    <path class="cls-4" d="M258.2,56V641" transform="translate(0.25 0.25)"/>
    <g>
      <path class="cls-5" d="M258.2,505.3V173" transform="translate(0.25 0.25)"/>
      <path class="cls-6" d="M266.35,184l-8.15-17-8.15,17Z" transform="translate(0.25 0.25)"/>
    </g>
    <path class="cls-7" d="M402.51,157.2V507.63c0,23.7-64,42.91-143,42.91s-143-19.21-143-42.91V157.2c0-23.69,64-42.9,143-42.9s143,19.21,143,42.9-64,42.91-143,42.91-143-19.21-143-42.91" transform="translate(0.25 0.25)"/>
    <path class="cls-8" d="M488.38,147.62V523.25c0,38.38-103.73,69.5-231.69,69.5S25,561.63,25,523.25V147.62c0-38.39,103.73-69.51,231.69-69.51s231.69,31.12,231.69,69.51-103.73,69.51-231.69,69.51S25,186,25,147.62" transform="translate(0.25 0.25)"/>
    <path class="cls-9" d="M234.07,273.11a24.13,24.13,0,1,1,24.13,24.13A24.12,24.12,0,0,1,234.07,273.11Z" transform="translate(0.25 0.25)"/>
    <path class="cls-9" d="M234.07,428.91A24.13,24.13,0,1,1,258.2,453,24.12,24.12,0,0,1,234.07,428.91Z" transform="translate(0.25 0.25)"/>
    <path class="cls-8" d="M258.2,348.5,485.36,255" transform="translate(0.25 0.25)"/>
    <path class="cls-7" d="M258.2,428.91,485.36,255" transform="translate(0.25 0.25)"/>
    <path class="cls-7" d="M258.2,273.11,485.36,255" transform="translate(0.25 0.25)"/>
    <g>
      <path class="cls-10" d="M258.2,348.5l111.58-47.28" transform="translate(0.25 0.25)"/>
      <path d="M362.85,313l12.45-14.12L356.49,298Z" transform="translate(0.25 0.25)"/>
    </g>
    <g>
      <path class="cls-11" d="M258.2,348.5l41.3-18.09" transform="translate(0.25 0.25)"/>
      <path class="cls-12" d="M292.72,342.27,305,328l-18.81-.66Z" transform="translate(0.25 0.25)"/>
    </g>
    <path class="cls-13" d="M479.54,255a5.82,5.82,0,1,1,5.82,5.82A5.83,5.83,0,0,1,479.54,255Z" transform="translate(0.25 0.25)"/>
    <g>
      <path class="cls-14" d="M485.36,255l88.1-37.33" transform="translate(0.25 0.25)"/>
      <path class="cls-15" d="M566.54,229.47,579,215.35l-18.8-.88Z" transform="translate(0.25 0.25)"/>
    </g>
    <g>
      <path class="cls-14" d="M485.36,255H639.78" transform="translate(0.25 0.25)"/>
      <path class="cls-15" d="M628.81,263.17l17-8.15-17-8.15Z" transform="translate(0.25 0.25)"/>
    </g>
    <g>
      <path class="cls-14" d="M485.36,255l88.1,37.33" transform="translate(0.25 0.25)"/>
      <path class="cls-15" d="M560.18,295.57l18.8-.88-12.44-14.12Z" transform="translate(0.25 0.25)"/>
    </g>
    <path class="cls-16" d="M511.44,244.28c19.76-11.91,22.22,5.56,5.9,9.5" transform="translate(0.25 0.25)"/>
    <path class="cls-9" d="M180,255V450" transform="translate(0.25 0.25)"/>
    <path class="cls-9" d="M191,255H169" transform="translate(0.25 0.25)"/>
    <path class="cls-9" d="M191,450H169" transform="translate(0.25 0.25)"/>
    <path class="cls-13" d="M252.38,348.5a5.82,5.82,0,1,1,5.82,5.82A5.82,5.82,0,0,1,252.38,348.5Z" transform="translate(0.25 0.25)"/>
    <path class="cls-8" d="M333,371l-74.8-97.89" transform="translate(0.25 0.25)"/>
    <path class="cls-7" d="M319.48,352.39l18.61-13.52,13.52,18.61L333,371Z" transform="translate(0.25 0.25)"/>
    <path class="cls-16" d="M258.63,325.68C280.84,310.52,283,338,267.51,341.5" transform="translate(0.25 0.25)"/>
    <path class="cls-9" d="M275.32,482.47l86-62.79" transform="translate(0.25 0.25)"/>
    <path class="cls-9" d="M271.64,477.8l7.36,9.35" transform="translate(0.25 0.25)"/>
    <path class="cls-9" d="M357.65,415l7.35,9.35" transform="translate(0.25 0.25)"/>
  </g>
  <path class="cls-17" d="M271.39,276v-2.95h-12v-11.9h-2.95v11.9h-12V276h12v12.05h2.95V276Z" transform="translate(0.25 0.25)"/>
  <path class="cls-18" d="M269.94,431.73v-2.8h-25.2v2.8Z" transform="translate(0.25 0.25)"/>
  <g>
    <path class="cls-19" d="M336,237.69a46.38,46.38,0,0,1,.8-5.55,2.25,2.25,0,0,0-1-.3c-1.55,0-3.1,1.2-4.9,3.75a61.65,61.65,0,0,0-4.7,7.55l1.6-7.6a9.17,9.17,0,0,0,.3-2.1c0-1-.4-1.6-1.15-1.6-1.05,0-2.95,1-6.65,3.7l-1.4,1,.35,1,1.6-1c1.4-.9,2-1.15,2.4-1.15s.85.45.85,1.1c0,2.9-2.15,13.2-4.15,19.6l.5.35a27.17,27.17,0,0,1,2.7-.65l.65-.1,1.3-6a21.9,21.9,0,0,1,4.25-9.65c1.7-2.2,3.05-3.25,4.15-3.25a2.07,2.07,0,0,1,1.8.95Z" transform="translate(0.25 0.25)"/>
    <path class="cls-20" d="M353.13,264.87v-1.05l-1.82-.1c-1.92-.11-2.27-.49-2.27-2.31V240.27l-8.44,3.57.25,1.75,5.25-2.31v18.13c0,1.82-.39,2.2-2.28,2.31l-2,.1v1.05l5.78-.1C348.72,264.77,352.57,264.87,353.13,264.87Z" transform="translate(0.25 0.25)"/>
  </g>
  <g>
    <path class="cls-19" d="M355.13,380.38a46.38,46.38,0,0,1,.8-5.55,2.25,2.25,0,0,0-1-.3c-1.55,0-3.1,1.2-4.9,3.75a61.65,61.65,0,0,0-4.7,7.55l1.6-7.6a9.17,9.17,0,0,0,.3-2.1c0-1-.4-1.6-1.15-1.6-1.05,0-2.95,1.05-6.65,3.7l-1.4,1,.35,1,1.6-1.05c1.4-.9,1.95-1.15,2.4-1.15s.85.45.85,1.1c0,2.9-2.15,13.2-4.15,19.6l.5.35a27.17,27.17,0,0,1,2.7-.65l.65-.1,1.3-6a21.9,21.9,0,0,1,4.25-9.65c1.7-2.2,3-3.25,4.15-3.25a2.07,2.07,0,0,1,1.8.95Z" transform="translate(0.25 0.25)"/>
    <path class="cls-20" d="M358.2,406.65v.91c6.55,0,6.55-.11,7.81-.11s1.26.11,8,.11v-3c-4,.18-5.63,0-12.11.18l6.37-6.76c3.4-3.6,4.45-5.53,4.45-8.15,0-4-2.73-6.51-7.18-6.51a7.54,7.54,0,0,0-5.95,2.45l-.59,4.76h1l.46-1.61c.56-2,1.82-2.91,4.16-2.91a4.58,4.58,0,0,1,4.94,4.87c0,2.62-1.47,5.21-5.43,9.41Z" transform="translate(0.25 0.25)"/>
  </g>
  <path class="cls-21" d="M353.85,291.21a27.83,27.83,0,0,1,.48-3.33,1.35,1.35,0,0,0-.6-.18c-.93,0-1.86.72-2.94,2.25a37,37,0,0,0-2.82,4.53l1-4.56a5.5,5.5,0,0,0,.18-1.26c0-.6-.24-1-.69-1-.63,0-1.77.63-4,2.22l-.84.6.21.6,1-.63c.84-.54,1.17-.69,1.44-.69s.51.27.51.66a64,64,0,0,1-2.49,11.76l.3.21a16.3,16.3,0,0,1,1.62-.39l.39-.06.78-3.6a13.14,13.14,0,0,1,2.55-5.79c1-1.32,1.83-1.95,2.49-1.95a1.24,1.24,0,0,1,1.08.57Z" transform="translate(0.25 0.25)"/>
  <g>
    <g>
      <path class="cls-22" d="M526.43,195.56h4.68l5.28.16.76-1.8-.16-.28c-3.24.16-5.64.24-8.76.24h-1.48l1.88-10.8c1.28,0,4.6-.16,5.48-.16,2.48,0,4.12.36,4.16,1l.32,3.56h1a27,27,0,0,1,.84-6.08c-.84-.08-2-.12-2.76-.12-.12,0-.56,0-1.52,0l-4.8,0c-.36,0-7.32,0-7.72,0l-1.8,0-.12,1.12,2.16.08c1,0,1.4.36,1.4,1.08a24.69,24.69,0,0,1-.36,3l-3.48,20.16c-.16.72-.64,1-2.4,1.28l-.2,1,1.64,0c1.24,0,3.72-.08,4.52-.08l9,.12c.56,0,1.56,0,2.88-.08l1.32,0,.16-1.44c.08-.8.28-2,.64-4l.2-1h-1.08l-.64,2.4c-.4,1.44-.76,1.92-1.64,2.12a46.29,46.29,0,0,1-5.88.36,53.7,53.7,0,0,1-5.48-.28Z" transform="translate(0.25 0.25)"/>
      <path class="cls-15" d="M544,166.35l-7.42-7.81-1.15,1.22,4.54,5.47h-.36v2.12H540l-4.54,5.47,1.15,1.22Zm-22.43.9H542.9v-2.12H521.55Z" transform="translate(0.25 0.25)"/>
    </g>
    <path class="cls-23" d="M553.49,213.5a28.09,28.09,0,0,1,.45-3.11,1.28,1.28,0,0,0-.56-.17c-.87,0-1.74.67-2.74,2.1a34.16,34.16,0,0,0-2.64,4.23l.9-4.26a5.22,5.22,0,0,0,.17-1.17c0-.56-.23-.9-.65-.9-.58,0-1.65.59-3.72,2.07l-.78.56.19.56.9-.58c.78-.51,1.09-.65,1.34-.65s.48.25.48.62a59.78,59.78,0,0,1-2.33,11l.28.2a15.18,15.18,0,0,1,1.52-.36l.36-.06.73-3.36a12.22,12.22,0,0,1,2.38-5.4c1-1.24,1.71-1.82,2.32-1.82a1.17,1.17,0,0,1,1,.53Z" transform="translate(0.25 0.25)"/>
  </g>
  <path class="cls-24" d="M549.59,251.58c1.84,0,4.52-2.8,5.8-4v-.52h-.52c-.76.72-1.72,1.68-2.8,1.68-1.8,0-1.52-5.16-1.52-6.44a52.59,52.59,0,0,0,5.36-7.88c-.28-.6-.56-1.24-.88-1.84h-.44c-.56,2.72-2.76,5.76-4.2,8.08.08-3.16,1-8.6-3.52-8.64-6.72,0-12.2,9.2-12.32,15.2,0,2.4.76,4.36,3.48,4.36,3.68,0,7.44-3.2,9.84-5.88C547.87,247.1,547.51,251.54,549.59,251.58ZM545,233.46c3.48,0,3,8.52,2.92,10.92-1.72,2-5,5.44-7.8,5.44-2.12,0-2.56-1.68-2.52-3.48C537.59,242.86,540.59,233.46,545,233.46Z" transform="translate(0.25 0.25)"/>
  <path class="cls-24" d="M158.43,351.78l-1.16,5.08a9.14,9.14,0,0,0-.24,2c0,.88.36,1.4,1,1.4.92,0,2.56-1,5.84-3.76l-.28-.84c-1,.8-2.12,1.88-3,1.88-.36,0-.6-.36-.6-.92a1.37,1.37,0,0,1,0-.44l3.68-15.16-.4-.36-1.32.72a8.64,8.64,0,0,0-3.4-.76,6.26,6.26,0,0,0-3,.72,9.48,9.48,0,0,0-4.8,4.4,29.7,29.7,0,0,0-3,11.48c0,1.76.6,3.12,1.36,3.12C150.59,360.38,153.79,358.3,158.43,351.78Zm1.92-8.4c-.88,4.36-1.64,6.44-3,8.52-2.28,3.36-4.72,5.68-6,5.68-.48,0-.72-.52-.72-1.6a31.84,31.84,0,0,1,2.52-10.44c1-2.2,1.88-2.92,3.8-2.92A9.72,9.72,0,0,1,160.35,343.38Z" transform="translate(0.25 0.25)"/>
  <path class="cls-24" d="M248.51,340.94c0-7.12-4.16-11.24-11.36-11.24-9.48,0-16.44,7.32-16.44,17.36,0,7.56,3.76,11.6,10.8,11.6C242.39,358.66,248.51,349.66,248.51,340.94Zm-3.52.64c0,7.52-3.56,15.4-12,15.4-5.76,0-8.76-3.44-8.76-10.12,0-5.92,2.32-15.48,11.68-15.48C240.55,331.38,245,333.54,245,341.58Z" transform="translate(0.25 0.25)"/>
  <path class="cls-24" d="M285.07,320.58c9.44,0,13.4-13.28,13.56-20.8.08-4.56-1.2-7.92-6.28-7.92-10.4,0-13.88,11.6-14,20.12C278.27,316.74,279.63,320.58,285.07,320.58Zm6.56-27.68c5.4,0,4.2,7.4,3.36,11.8H282.35C283.35,300.54,286.47,292.9,291.63,292.9Zm-5.92,26.52c-6,0-4.24-9.92-3.6-13.44h12.64C293.75,310.46,291.43,319.42,285.71,319.42Z" transform="translate(0.25 0.25)"/>
  <g>
    <path class="cls-25" d="M283.41,180.49c2.8,0,8.55-3.65,10.7-6.8a25.86,25.86,0,0,0,3.75-12.3c0-3.35-1.15-5.55-2.95-5.55-2.1,0-4.75,1.3-7.35,3.65a21,21,0,0,0-4.85,6l1.2-6a13.44,13.44,0,0,0,.25-2.2c0-1-.4-1.5-1.1-1.5-1.05,0-2.95,1-6.65,3.7l-1.4,1,.35,1,1.6-1c1.4-.9,2-1.15,2.4-1.15s.85.45.85,1.15a13.66,13.66,0,0,1-.2,1.9l-2.9,17.15c-.5,3-1.45,7.55-2.45,12.05l-.4,1.85.35.3a20.9,20.9,0,0,1,3.65-.85l2.1-13.1A10.64,10.64,0,0,0,283.41,180.49Zm-1.65-8.8c1.1-6.4,6.45-12.95,10.6-12.95,1.3,0,1.9,1.1,1.9,3.4,0,4.05-2,10-4.65,13.8a5.33,5.33,0,0,1-4.65,2.2,7.37,7.37,0,0,1-4.1-1.15Z" transform="translate(0.25 0.25)"/>
    <path class="cls-6" d="M302.09,138.21l-9.27-9.77L291.38,130l5.67,6.84h-.45v2.66h.45l-5.67,6.84,1.44,1.53Zm-22.55,1.12h21.2v-2.66h-21.2Z" transform="translate(0.25 0.25)"/>
  </g>
  <g>
    <g>
      <path class="cls-26" d="M292.49,357.43l-.21-.27-2,.51-.3,1.53a16.47,16.47,0,0,1-2.13,5.79c-1.77,2.73-4.11,4.86-5.31,4.86-.24,0-.39-.27-.39-.78a7.7,7.7,0,0,1,.21-1.56l1.71-8.13a7.11,7.11,0,0,0,.15-1.29c0-.57-.27-.93-.69-.93-.6,0-1.74.63-4,2.22l-.84.6.21.6,1-.63c.84-.54,1.17-.69,1.44-.69a.57.57,0,0,1,.51.6,3.31,3.31,0,0,1-.06.54l-1.89,8.91a9.17,9.17,0,0,0-.12,1.41,1.13,1.13,0,0,0,1.05,1.23c1.89,0,5.52-3.36,8-7.5l-1.11,4.26a8.18,8.18,0,0,0-.33,2c0,.75.33,1.2.9,1.2.78,0,1.86-.63,4.8-2.82l-.3-.54L292,369a4.6,4.6,0,0,1-1.83.81c-.24,0-.39-.21-.39-.51C289.79,368.26,292,359.14,292.49,357.43Z" transform="translate(0.25 0.25)"/>
      <polyline class="cls-27" points="277.98 352.2 286.31 346.65 294.64 352.2"/>
    </g>
    <path class="cls-28" d="M303,375.05a18.72,18.72,0,0,1,.34-2.33,1,1,0,0,0-.42-.12c-.66,0-1.31.5-2.06,1.57a27.18,27.18,0,0,0-2,3.17l.68-3.19a4.05,4.05,0,0,0,.12-.88c0-.42-.17-.67-.48-.67s-1.24.44-2.79,1.55l-.59.42.14.42.68-.44c.58-.38.82-.48,1-.48s.36.19.36.46a44.72,44.72,0,0,1-1.74,8.23l.21.15a10.93,10.93,0,0,1,1.13-.28l.28,0,.54-2.52a9.18,9.18,0,0,1,1.79-4.05c.71-.92,1.28-1.37,1.74-1.37a.9.9,0,0,1,.76.4Z" transform="translate(0.25 0.25)"/>
  </g>
  <path class="cls-24" d="M455.79,216.38l2.2.08c1,0,1.4.36,1.4,1.08l-3.32,20.4c-.68,3.64-.72,3.76-2.32,3.88l-1.64.12-.16,1.12,1.68,0c1.64,0,2.88-.08,3.6-.08s1.84,0,3.44.08l2.12,0,.12-1.12-2.6-.12c-1,0-1.44-.36-1.44-1.2a8.55,8.55,0,0,1,.16-1.4L463,217a16.23,16.23,0,0,1,2.84-.32c4.08,0,6,1.76,6,5.48,0,4.32-2.88,7.84-6.4,7.84a8.56,8.56,0,0,1-3.16-.76l.08,1.24a6.94,6.94,0,0,0,3.44.92c5.16,0,9.56-4.68,9.56-10.12,0-4-2.52-6.16-7.28-6H455.91Z" transform="translate(0.25 0.25)"/>
  <g>
    <path class="cls-22" d="M617.43,299.56h4.68l5.28.16.76-1.8-.16-.28c-3.24.16-5.64.24-8.76.24h-1.48l1.88-10.8c1.28,0,4.6-.16,5.48-.16,2.48,0,4.12.36,4.16,1l.32,3.56h1a27,27,0,0,1,.84-6.08c-.84-.08-2-.12-2.76-.12-.12,0-.56,0-1.52,0l-4.8,0c-.36,0-7.32,0-7.72,0l-1.8,0-.12,1.12,2.16.08c1,0,1.4.36,1.4,1.08a24.69,24.69,0,0,1-.36,3l-3.48,20.16c-.16.72-.64,1-2.4,1.28l-.2,1,1.64,0c1.24,0,3.72-.08,4.52-.08l9,.12c.56,0,1.56,0,2.88-.08l1.32,0,.16-1.44c.08-.8.28-2,.64-4l.2-1h-1.08l-.64,2.4c-.4,1.44-.76,1.92-1.64,2.12a46.29,46.29,0,0,1-5.88.36,53.7,53.7,0,0,1-5.48-.28Z" transform="translate(0.25 0.25)"/>
    <path class="cls-15" d="M635,270.35l-7.42-7.81-1.15,1.22,4.54,5.47h-.36v2.12H631l-4.54,5.47,1.15,1.22Zm-22.43.9H633.9v-2.12H612.55Z" transform="translate(0.25 0.25)"/>
  </g>
  <g>
    <g>
      <path class="cls-22" d="M528.43,325.56h4.68l5.28.16.76-1.8-.16-.28c-3.24.16-5.64.24-8.76.24h-1.48l1.88-10.8c1.28,0,4.6-.16,5.48-.16,2.48,0,4.12.36,4.16,1l.32,3.56h1a27,27,0,0,1,.84-6.08c-.84-.08-2-.12-2.76-.12-.12,0-.56,0-1.52,0l-4.8,0c-.36,0-7.32,0-7.72,0l-1.8,0-.12,1.12,2.16.08c1,0,1.4.36,1.4,1.08a24.69,24.69,0,0,1-.36,3l-3.48,20.16c-.16.72-.64,1-2.4,1.28l-.2,1,1.64,0c1.24,0,3.72-.08,4.52-.08l9,.12c.56,0,1.56,0,2.88-.08l1.32,0,.16-1.44c.08-.8.28-2,.64-4l.2-1h-1.08l-.64,2.4c-.4,1.44-.76,1.92-1.64,2.12a46.29,46.29,0,0,1-5.88.36,53.7,53.7,0,0,1-5.48-.28Z" transform="translate(0.25 0.25)"/>
      <path class="cls-15" d="M546,296.35l-7.42-7.81-1.15,1.22,4.54,5.47h-.36v2.12H542l-4.54,5.47,1.15,1.22Zm-22.43.9H544.9v-2.12H523.55Z" transform="translate(0.25 0.25)"/>
    </g>
    <path class="cls-23" d="M551.82,353.17c6.61,0,9.38-9.3,9.5-14.56,0-3.2-.84-5.55-4.4-5.55-7.28,0-9.72,8.12-9.8,14.09C547.06,350.48,548,353.17,551.82,353.17Zm4.6-19.38c3.78,0,2.94,5.18,2.35,8.26h-8.85C550.62,339.14,552.8,333.79,556.42,333.79Zm-4.15,18.56c-4.23,0-3-6.94-2.52-9.4h8.85C557.9,346.08,556.28,352.35,552.27,352.35Z" transform="translate(0.25 0.25)"/>
  </g>
</svg>
