<svg id="Livello_1" data-name="Livello 1" xmlns="http://www.w3.org/2000/svg" xmlns:xlink="http://www.w3.org/1999/xlink" width="662.5" height="575.5" viewBox="0 0 662.5 575.5">
  <defs>
    <style>
      .cls-1, .cls-2, .cls-4, .cls-5, .cls-7 {
        fill: none;
      }

      .cls-2, .cls-3 {
        stroke: #d3d3d3;
        stroke-width: 0.5px;
      }

      .cls-3 {
        fill: url(#_.441971228805659);
      }

      .cls-4 {
        stroke: #000;
        stroke-dasharray: 10.5 6;
      }

      .cls-4, .cls-5 {
        stroke-width: 4px;
      }

      .cls-5, .cls-9 {
        stroke: red;
      }

      .cls-6, .cls-9 {
        fill: red;
      }

      .cls-7 {
        stroke: #4a90e2;
        stroke-width: 3px;
      }

      .cls-8 {
        fill: #4a90e2;
      }

      .cls-9 {
        stroke-miterlimit: 10;
        stroke-width: 0.4px;
      }
    </style>
    <pattern id="_.441971228805659" data-name=".441971228805659" width="10" height="10" patternTransform="matrix(1, 0, 0, -1, -2.75, 845.14)" patternUnits="userSpaceOnUse" viewBox="0 0 10 10">
      <rect class="cls-1" width="10" height="10"/>
      <path class="cls-2" d="M10,10H0V0"/>
    </pattern>
  </defs>
  <rect class="cls-3" x="0.25" y="0.25" width="662" height="575"/>
  <g>
    <path class="cls-4" d="M328.7,18V545" transform="translate(0.25 0.25)"/>
    <g>
      <path class="cls-5" d="M328.7,364V151.66" transform="translate(0.25 0.25)"/>
      <path class="cls-6" d="M336.85,162.63l-8.15-17-8.15,17Z" transform="translate(0.25 0.25)"/>
    </g>
    <g>
      <path class="cls-7" d="M328.7,267.2c116.82-102.66,114.46,126.26,0,11.8" transform="translate(0.25 0.25)"/>
      <path class="cls-8" d="M408,264.41l7.4,14,6.31-14.54Z" transform="translate(0.25 0.25)"/>
    </g>
    <g>
      <path class="cls-7" d="M328.7,267.2c-116.82-102.66-114.46,126.26,0,11.8" transform="translate(0.25 0.25)"/>
      <path class="cls-8" d="M235.68,263.89,242,278.43l7.4-14Z" transform="translate(0.25 0.25)"/>
    </g>
    <g>
      <path class="cls-7" d="M328.7,267.2c-193.27-169.84-189.37,201.17,0,11.8" transform="translate(0.25 0.25)"/>
      <path class="cls-8" d="M178.52,267.5l6.72,14.36,7-14.23Z" transform="translate(0.25 0.25)"/>
    </g>
    <g>
      <path class="cls-7" d="M328.7,267.2C522,97.36,518.07,468.37,328.7,279" transform="translate(0.25 0.25)"/>
      <path class="cls-8" d="M465.16,267.63l7,14.23,6.72-14.36Z" transform="translate(0.25 0.25)"/>
    </g>
    <g>
      <path class="cls-7" d="M328.7,267.2c292.44-257,286.53,304.39,0,17.85" transform="translate(0.25 0.25)"/>
      <path class="cls-8" d="M538.91,275.08l6.86,14.3,6.86-14.29Z" transform="translate(0.25 0.25)"/>
    </g>
    <g>
      <path class="cls-7" d="M328.7,267.2c-292.44-257-286.53,304.39,0,17.85" transform="translate(0.25 0.25)"/>
      <path class="cls-8" d="M104.77,275.09l6.86,14.29,6.86-14.3Z" transform="translate(0.25 0.25)"/>
    </g>
    <g>
      <path class="cls-7" d="M328.7,259.34c421.18-370.12,412.67,438.38,0,25.71" transform="translate(0.25 0.25)"/>
      <path class="cls-8" d="M634.61,276.92l6.72,14.36,7-14.22Z" transform="translate(0.25 0.25)"/>
    </g>
    <g>
      <path class="cls-7" d="M328.7,259.34C-92.48-110.78-84,697.72,328.7,285.05" transform="translate(0.25 0.25)"/>
      <path class="cls-8" d="M9.07,277.06l7,14.22,6.72-14.36Z" transform="translate(0.25 0.25)"/>
    </g>
  </g>
  <path class="cls-9" d="M286.81,151.91l2.75.1c1.2.05,1.75.45,1.75,1.35l-4.15,25.5c-.85,4.55-.9,4.7-2.9,4.85l-2.05.15-.2,1.4,2.1,0c2.05-.05,3.6-.1,4.5-.1s2.3,0,4.3.1l2.65,0,.15-1.4-3.25-.15c-1.3-.05-1.8-.45-1.8-1.5a10.69,10.69,0,0,1,.2-1.75l4.9-27.75a20.29,20.29,0,0,1,3.55-.4c5.1,0,7.55,2.2,7.55,6.85,0,5.4-3.6,9.8-8,9.8a10.69,10.69,0,0,1-3.95-1l.1,1.55a8.67,8.67,0,0,0,4.3,1.15c6.45,0,11.95-5.85,11.95-12.65,0-5.05-3.15-7.7-9.1-7.55H287Z" transform="translate(0.25 0.25)"/>
</svg>
