<svg id="Livello_1" data-name="Livello 1" xmlns="http://www.w3.org/2000/svg" xmlns:xlink="http://www.w3.org/1999/xlink" width="662.5" height="575.5" viewBox="0 0 662.5 575.5">
  <defs>
    <style>
      .cls-1, .cls-13, .cls-2, .cls-4, .cls-5, .cls-6, .cls-7 {
        fill: none;
      }

      .cls-2, .cls-3 {
        stroke: #d3d3d3;
        stroke-width: 0.5px;
      }

      .cls-3 {
        fill: url(#_.441971228805659);
      }

      .cls-4, .cls-9 {
        stroke: #4a90e2;
      }

      .cls-4, .cls-5, .cls-6, .cls-8 {
        stroke-width: 3px;
      }

      .cls-10, .cls-5 {
        stroke: #ff001f;
      }

      .cls-11, .cls-12, .cls-13, .cls-14, .cls-6, .cls-7, .cls-8 {
        stroke: #000;
      }

      .cls-9 {
        fill: #4a90e2;
      }

      .cls-10, .cls-11, .cls-12, .cls-14, .cls-9 {
        stroke-miterlimit: 10;
      }

      .cls-10, .cls-11, .cls-9 {
        stroke-width: 0.4px;
      }

      .cls-10 {
        fill: #ff001f;
      }

      .cls-12 {
        stroke-width: 0.32px;
      }

      .cls-13 {
        stroke-width: 2px;
      }

      .cls-14 {
        stroke-width: 0.22px;
      }
    </style>
    <pattern id="_.441971228805659" data-name=".441971228805659" width="10" height="10" patternTransform="matrix(1, 0, 0, -1, -2.75, 845.14)" patternUnits="userSpaceOnUse" viewBox="0 0 10 10">
      <rect class="cls-1" width="10" height="10"/>
      <path class="cls-2" d="M10,10H0V0"/>
    </pattern>
  </defs>
  <rect class="cls-3" x="0.25" y="0.25" width="662" height="575"/>
  <g>
    <path class="cls-4" d="M67.63,124.34A30.68,30.68,0,1,1,98.3,155,30.67,30.67,0,0,1,67.63,124.34Z" transform="translate(0.25 0.25)"/>
    <path class="cls-4" d="M552.27,247a30.67,30.67,0,1,1,30.67,30.67A30.68,30.68,0,0,1,552.27,247Z" transform="translate(0.25 0.25)"/>
    <path class="cls-4" d="M48,427.39a30.68,30.68,0,1,1,30.67,30.68A30.67,30.67,0,0,1,48,427.39Z" transform="translate(0.25 0.25)"/>
    <path class="cls-5" d="M48,427.39a30.68,30.68,0,1,1,30.67,30.68A30.67,30.67,0,0,1,48,427.39Z" transform="translate(0.25 0.25)"/>
    <path class="cls-4" d="M497.06,498.56a30.67,30.67,0,1,1,30.67,30.67A30.68,30.68,0,0,1,497.06,498.56Z" transform="translate(0.25 0.25)"/>
    <path class="cls-5" d="M497.06,498.56a30.67,30.67,0,1,1,30.67,30.67A30.68,30.68,0,0,1,497.06,498.56Z" transform="translate(0.25 0.25)"/>
    <g>
      <path class="cls-6" d="M317.92,308.38,497,471.87" transform="translate(0.25 0.25)"/>
      <path d="M485.56,470.68l15.18,4.56-5.93-14.7Z" transform="translate(0.25 0.25)"/>
    </g>
    <g>
      <path class="cls-6" d="M317.92,308.38,111.4,408" transform="translate(0.25 0.25)"/>
      <path d="M116.78,397.83l-9.89,12.39,15.85,0Z" transform="translate(0.25 0.25)"/>
    </g>
    <g>
      <path class="cls-6" d="M317.92,308.38,547.43,248.3" transform="translate(0.25 0.25)"/>
      <path d="M540.18,257.29,552.27,247l-15.56-3Z" transform="translate(0.25 0.25)"/>
    </g>
    <g>
      <path class="cls-6" d="M317.92,308.38,346.73,237" transform="translate(0.25 0.25)"/>
      <path d="M349.62,248.13l-1-15.82L336.89,243Z" transform="translate(0.25 0.25)"/>
    </g>
    <g>
      <path class="cls-6" d="M317.92,308.38,125.47,149.61" transform="translate(0.25 0.25)"/>
      <path d="M137,150.23l-15.38-3.8,6.65,14.38Z" transform="translate(0.25 0.25)"/>
    </g>
    <path class="cls-7" d="M411.89,75.35l-94,233" transform="translate(0.25 0.25)"/>
    <path class="cls-8" d="M404.22,75.35A7.67,7.67,0,1,1,411.89,83,7.67,7.67,0,0,1,404.22,75.35Z" transform="translate(0.25 0.25)"/>
    <path class="cls-8" d="M310.26,308.38a7.67,7.67,0,1,1,7.66,7.67A7.67,7.67,0,0,1,310.26,308.38Z" transform="translate(0.25 0.25)"/>
  </g>
  <path class="cls-9" d="M112.27,124.82V122H87.07v2.8Z" transform="translate(0.25 0.25)"/>
  <path class="cls-9" d="M596.91,247.52v-2.8h-25.2v2.8Z" transform="translate(0.25 0.25)"/>
  <path class="cls-10" d="M93,428v-3H81v-11.9H78V425H66v3H78v12h3V428Z" transform="translate(0.25 0.25)"/>
  <path class="cls-10" d="M542,499.14v-2.95H530v-11.9h-2.95v11.9h-12v2.95h12v12.05H530V499.14Z" transform="translate(0.25 0.25)"/>
  <path class="cls-11" d="M444.47,58.38l2.75.1c1.2.05,1.75.45,1.75,1.35l-4.15,25.5c-.85,4.55-.9,4.7-2.9,4.85l-2.05.15-.2,1.4,2.1,0c2.05-.05,3.6-.1,4.5-.1s2.3,0,4.3.1l2.65,0,.15-1.4-3.25-.15c-1.3-.05-1.8-.45-1.8-1.5a10.69,10.69,0,0,1,.2-1.75l4.9-27.75a20.29,20.29,0,0,1,3.55-.4c5.1,0,7.55,2.2,7.55,6.85,0,5.4-3.6,9.8-8,9.8a10.69,10.69,0,0,1-3.95-1l.1,1.55a8.67,8.67,0,0,0,4.3,1.15c6.45,0,11.95-5.85,11.95-12.65,0-5.05-3.15-7.7-9.1-7.55h-15.2Z" transform="translate(0.25 0.25)"/>
  <path class="cls-11" d="M329.07,358.66c0-8.9-5.2-14.05-14.2-14.05-11.85,0-20.55,9.15-20.55,21.7,0,9.45,4.7,14.5,13.5,14.5C321.42,380.81,329.07,369.56,329.07,358.66Zm-4.4.8c0,9.4-4.45,19.25-15,19.25-7.2,0-10.95-4.3-10.95-12.65,0-7.4,2.9-19.35,14.6-19.35C319.12,346.71,324.67,349.41,324.67,359.46Z" transform="translate(0.25 0.25)"/>
  <path class="cls-12" d="M400.7,172.35a37.1,37.1,0,0,1,.64-4.44,1.8,1.8,0,0,0-.8-.24c-1.24,0-2.48,1-3.92,3a49.32,49.32,0,0,0-3.76,6l1.28-6.08a7.33,7.33,0,0,0,.24-1.68c0-.8-.32-1.28-.92-1.28-.84,0-2.36.84-5.32,3l-1.12.8.28.8,1.28-.84c1.12-.72,1.56-.92,1.92-.92s.68.36.68.88c0,2.32-1.72,10.56-3.32,15.68l.4.28a21.74,21.74,0,0,1,2.16-.52l.52-.08,1-4.8a17.52,17.52,0,0,1,3.4-7.72c1.36-1.76,2.44-2.6,3.32-2.6a1.65,1.65,0,0,1,1.44.76Z" transform="translate(0.25 0.25)"/>
  <g>
    <g>
      <path class="cls-12" d="M314.66,243.31l-.28-.36-2.72.68-.4,2a22,22,0,0,1-2.84,7.72c-2.36,3.64-5.48,6.48-7.08,6.48-.32,0-.52-.36-.52-1a10.26,10.26,0,0,1,.28-2.08l2.28-10.84a9.48,9.48,0,0,0,.2-1.72c0-.76-.36-1.24-.92-1.24-.8,0-2.32.84-5.28,3l-1.12.8.28.8,1.28-.84c1.12-.72,1.56-.92,1.92-.92a.76.76,0,0,1,.68.8,4.41,4.41,0,0,1-.08.72l-2.52,11.88a12.22,12.22,0,0,0-.16,1.88,1.51,1.51,0,0,0,1.4,1.64c2.52,0,7.36-4.48,10.72-10l-1.48,5.68a10.91,10.91,0,0,0-.44,2.64c0,1,.44,1.6,1.2,1.6,1,0,2.48-.84,6.4-3.76l-.4-.72-1,.68a6.14,6.14,0,0,1-2.44,1.08c-.32,0-.52-.28-.52-.68C311.06,257.75,314.06,245.59,314.66,243.31Z" transform="translate(0.25 0.25)"/>
      <polyline class="cls-13" points="295.23 236.25 306.33 228.85 317.43 236.25"/>
    </g>
    <path class="cls-14" d="M328.68,266.81a24.29,24.29,0,0,1,.45-3.11,1.28,1.28,0,0,0-.56-.17c-.87,0-1.74.68-2.75,2.1a35.12,35.12,0,0,0-2.63,4.23l.9-4.25a5.21,5.21,0,0,0,.16-1.18c0-.56-.22-.9-.64-.9-.59,0-1.65.59-3.72,2.08l-.79.56.2.56.89-.59c.79-.51,1.1-.65,1.35-.65s.47.26.47.62a59.84,59.84,0,0,1-2.32,11l.28.19c.42-.14.87-.22,1.51-.36l.37-.06.72-3.36a12.33,12.33,0,0,1,2.38-5.4c1-1.23,1.71-1.82,2.33-1.82a1.17,1.17,0,0,1,1,.53Z" transform="translate(0.25 0.25)"/>
  </g>
  <g>
    <path class="cls-12" d="M206.63,164.87l-.48-.44a15.67,15.67,0,0,1-6.4,1.68l-.16.84h1.92c1,0,1.36.28,1.36,1a7.17,7.17,0,0,1-.08,1L201.67,175a11.51,11.51,0,0,0-3.28-.56c-2.76,0-6.52,2.88-8.36,6.36a22.1,22.1,0,0,0-2,9.48c0,2.6.6,3.88,1.76,3.88a7.13,7.13,0,0,0,3.92-1.76c2.16-1.76,3.48-3.32,6.16-7.36l-.92,3.64a17.31,17.31,0,0,0-.64,4.08c0,.84.36,1.32,1,1.32a6,6,0,0,0,3-1.48l3.24-2.4-.4-.76-1.76,1.24a3.35,3.35,0,0,1-1.56.68c-.32,0-.56-.36-.56-.92a7.75,7.75,0,0,1,.32-1.84Zm-14.76,26.52c-.64,0-1-.56-1-1.56,0-5,1.84-11.28,3.8-12.8a3.79,3.79,0,0,1,2.36-.6,8.4,8.4,0,0,1,4.24.92l-.48,2.36C199.31,186.91,193.67,191.39,191.87,191.39Z" transform="translate(0.25 0.25)"/>
    <path class="cls-14" d="M220.17,200.88V200l-1.45-.08c-1.54-.09-1.82-.4-1.82-1.85V181.2l-6.75,2.85.19,1.4,4.2-1.85v14.51c0,1.45-.3,1.76-1.82,1.85l-1.56.08v.84l4.62-.08C216.64,200.8,219.72,200.88,220.17,200.88Z" transform="translate(0.25 0.25)"/>
  </g>
  <g>
    <path class="cls-12" d="M146,67.37a10.73,10.73,0,0,0-4-1c-3,0-6.52,3.52-7.24,4.32-1.6,1.88-3.16,7.72-3.16,11.84,0,2.36.48,3.56,1.44,3.56a5,5,0,0,0,2.92-1.2,24.31,24.31,0,0,0,7-7.6l-3,16.56a4.86,4.86,0,0,1-1.08,2.28l.36.56a28.78,28.78,0,0,1,3.44-.68,62.88,62.88,0,0,1,.76-6.36l3.44-18.24a33.08,33.08,0,0,1,1.08-4.72l-.56-.24Zm-10.68,16c-.56,0-.88-.84-.88-2.16,0-3.84,1.72-9.84,3.4-11.84a3.93,3.93,0,0,1,2.92-1,8.9,8.9,0,0,1,3.88,1.08l-.84,3.8C142.63,78.73,137,83.33,135.31,83.33Z" transform="translate(0.25 0.25)"/>
    <path class="cls-14" d="M162,92.82V92l-1.46-.09c-1.54-.08-1.82-.39-1.82-1.84V73.13L152,76l.19,1.4,4.2-1.85V90.05c0,1.45-.31,1.76-1.82,1.84L153,92v.84l4.62-.09C158.44,92.73,161.52,92.82,162,92.82Z" transform="translate(0.25 0.25)"/>
  </g>
  <g>
    <path class="cls-12" d="M618.37,291.9a10.73,10.73,0,0,0-4-1c-3,0-6.52,3.52-7.24,4.32-1.6,1.88-3.16,7.72-3.16,11.84,0,2.36.48,3.56,1.44,3.56a5,5,0,0,0,2.92-1.2,24.31,24.31,0,0,0,7-7.6l-3,16.56a4.86,4.86,0,0,1-1.08,2.28l.36.56a28.78,28.78,0,0,1,3.44-.68,62.88,62.88,0,0,1,.76-6.36L619.17,296a33.08,33.08,0,0,1,1.08-4.72l-.56-.24Zm-10.68,16c-.56,0-.88-.84-.88-2.16,0-3.84,1.72-9.84,3.4-11.84a3.93,3.93,0,0,1,2.92-1A8.9,8.9,0,0,1,617,294l-.84,3.8C615,303.26,609.37,307.86,607.69,307.86Z" transform="translate(0.25 0.25)"/>
    <path class="cls-14" d="M634.34,317.35v-.84l-1.45-.08c-1.54-.09-1.82-.4-1.82-1.85V297.67l-6.75,2.85.2,1.4,4.2-1.85v14.51c0,1.45-.31,1.76-1.82,1.85l-1.57.08v.84l4.62-.08C630.82,317.27,633.9,317.35,634.34,317.35Z" transform="translate(0.25 0.25)"/>
  </g>
  <g>
    <path class="cls-12" d="M605.1,522.55a10.73,10.73,0,0,0-4-1c-3,0-6.52,3.52-7.24,4.32-1.6,1.88-3.16,7.72-3.16,11.84,0,2.36.48,3.56,1.44,3.56a5,5,0,0,0,2.92-1.2,24.31,24.31,0,0,0,7-7.6l-3,16.56a4.86,4.86,0,0,1-1.08,2.28l.36.56a28.78,28.78,0,0,1,3.44-.68,62.88,62.88,0,0,1,.76-6.36l3.44-18.24a33.08,33.08,0,0,1,1.08-4.72l-.56-.24Zm-10.68,16c-.56,0-.88-.84-.88-2.16,0-3.84,1.72-9.84,3.4-11.84a3.93,3.93,0,0,1,2.92-1,8.9,8.9,0,0,1,3.88,1.08l-.84,3.8C601.74,533.91,596.1,538.51,594.42,538.51Z" transform="translate(0.25 0.25)"/>
    <path class="cls-14" d="M610.05,537.06l.19.56.9-.59c1-.64,1.12-.7,1.31-.7s.51.28.51.7a67.13,67.13,0,0,1-2.3,10.84l.2.3c.7-.19,1.34-.36,2-.47.53-3.53,1.12-5.35,2.41-7.28,1.51-2.35,3.61-4.09,4.87-4.09.31,0,.47.25.47.67a8.29,8.29,0,0,1-.3,2l-1.46,5.94a10,10,0,0,0-.36,2.12c0,.7.3,1.12.84,1.12.72,0,1.73-.58,4.48-2.63l-.28-.5-.73.47a4.49,4.49,0,0,1-1.71.84c-.2,0-.36-.25-.36-.56a3.33,3.33,0,0,1,0-.56l1.85-7.72a9.84,9.84,0,0,0,.31-2.08c0-.64-.31-1-.87-1-1.18,0-3.11,1.06-4.76,2.6a22.79,22.79,0,0,0-3.3,4L615,536.5a5.57,5.57,0,0,0,.17-1.15c0-.59-.23-.92-.65-.92-.58,0-1.68.61-3.72,2.07Z" transform="translate(0.25 0.25)"/>
  </g>
  <g>
    <path class="cls-12" d="M123.23,467.35a10.73,10.73,0,0,0-4-1c-3,0-6.52,3.52-7.24,4.32-1.6,1.88-3.16,7.72-3.16,11.84,0,2.36.48,3.56,1.44,3.56a5,5,0,0,0,2.92-1.2,24.31,24.31,0,0,0,7-7.6l-3,16.56a4.86,4.86,0,0,1-1.08,2.28l.36.56a28.78,28.78,0,0,1,3.44-.68,62.88,62.88,0,0,1,.76-6.36L124,471.43a33.08,33.08,0,0,1,1.08-4.72l-.56-.24Zm-10.68,16c-.56,0-.88-.84-.88-2.16,0-3.84,1.72-9.84,3.4-11.84a3.93,3.93,0,0,1,2.92-1,8.9,8.9,0,0,1,3.88,1.08l-.84,3.8C119.87,478.71,114.23,483.31,112.55,483.31Z" transform="translate(0.25 0.25)"/>
    <path class="cls-14" d="M128.45,481.85l.2.56.89-.58c1-.65,1.12-.7,1.32-.7a.58.58,0,0,1,.5.64,6.86,6.86,0,0,1-.22,1.23l-1.85,6.72a9.79,9.79,0,0,0-.36,2.16c0,.67.31,1.09.84,1.09.73,0,1.73-.59,4.48-2.63l-.28-.51-.73.48a4.89,4.89,0,0,1-1.71.84c-.19,0-.36-.28-.36-.56a4.77,4.77,0,0,1,.19-1.12l2.16-8.51a5.15,5.15,0,0,0,.17-1,.64.64,0,0,0-.7-.73c-.62,0-1.65.59-3.75,2.07Zm5.43-9.07a1.89,1.89,0,0,0-1.62,1.88,1,1,0,0,0,1.09,1.15,1.71,1.71,0,0,0,1.54-1.88A1,1,0,0,0,133.88,472.78Z" transform="translate(0.25 0.25)"/>
  </g>
  <g>
    <path class="cls-12" d="M170.71,331.79l-.48-.44a15.67,15.67,0,0,1-6.4,1.68l-.16.84h1.92c1,0,1.36.28,1.36,1a7.17,7.17,0,0,1-.08,1L165.75,342a11.51,11.51,0,0,0-3.28-.56c-2.76,0-6.52,2.88-8.36,6.36a22.1,22.1,0,0,0-2,9.48c0,2.6.6,3.88,1.76,3.88a7.13,7.13,0,0,0,3.92-1.76c2.16-1.76,3.48-3.32,6.16-7.36l-.92,3.64a17.31,17.31,0,0,0-.64,4.08c0,.84.36,1.32,1,1.32a6,6,0,0,0,3-1.48l3.24-2.4-.4-.76-1.76,1.24a3.35,3.35,0,0,1-1.56.68c-.32,0-.56-.36-.56-.92a7.75,7.75,0,0,1,.32-1.84ZM156,358.31c-.64,0-1-.56-1-1.56,0-5,1.84-11.28,3.8-12.8a3.79,3.79,0,0,1,2.36-.6,8.4,8.4,0,0,1,4.24.92l-.48,2.36C163.39,353.83,157.75,358.31,156,358.31Z" transform="translate(0.25 0.25)"/>
    <path class="cls-14" d="M173.5,356.85l.19.56.9-.58c1-.65,1.12-.7,1.32-.7a.58.58,0,0,1,.5.64,6.86,6.86,0,0,1-.22,1.23l-1.85,6.72a9.33,9.33,0,0,0-.37,2.16c0,.67.31,1.09.84,1.09.73,0,1.74-.59,4.48-2.63l-.28-.51-.72.48a5,5,0,0,1-1.71.84c-.2,0-.37-.28-.37-.56a5,5,0,0,1,.2-1.12l2.16-8.51a4.94,4.94,0,0,0,.16-1,.64.64,0,0,0-.7-.73c-.61,0-1.65.59-3.75,2.07Zm5.43-9.07a1.89,1.89,0,0,0-1.62,1.88,1,1,0,0,0,1.09,1.15,1.71,1.71,0,0,0,1.54-1.88A1,1,0,0,0,178.93,347.78Z" transform="translate(0.25 0.25)"/>
  </g>
  <g>
    <path class="cls-12" d="M465.13,383.4l-.48-.44a15.67,15.67,0,0,1-6.4,1.68l-.16.84H460c1,0,1.36.28,1.36,1a7.17,7.17,0,0,1-.08,1l-1.12,6.16a11.51,11.51,0,0,0-3.28-.56c-2.76,0-6.52,2.88-8.36,6.36a22.1,22.1,0,0,0-2,9.48c0,2.6.6,3.88,1.76,3.88a7.13,7.13,0,0,0,3.92-1.76c2.16-1.76,3.48-3.32,6.16-7.36l-.92,3.64a17.31,17.31,0,0,0-.64,4.08c0,.84.36,1.32,1,1.32a6,6,0,0,0,3-1.48l3.24-2.4-.4-.76-1.76,1.24a3.35,3.35,0,0,1-1.56.68c-.32,0-.56-.36-.56-.92a7.75,7.75,0,0,1,.32-1.84Zm-14.76,26.52c-.64,0-1-.56-1-1.56,0-5,1.84-11.28,3.8-12.8a3.79,3.79,0,0,1,2.36-.6,8.4,8.4,0,0,1,4.24.92l-.48,2.36C457.81,405.44,452.17,409.92,450.37,409.92Z" transform="translate(0.25 0.25)"/>
    <path class="cls-14" d="M467.64,408.46l.2.56.89-.58c1-.65,1.12-.7,1.32-.7s.5.28.5.7a67.89,67.89,0,0,1-2.29,10.83l.19.31c.7-.2,1.35-.36,2-.48.53-3.52,1.12-5.34,2.41-7.28,1.51-2.35,3.61-4.08,4.87-4.08.31,0,.48.25.48.67a8.49,8.49,0,0,1-.31,2l-1.46,5.93a10,10,0,0,0-.36,2.13c0,.7.31,1.12.84,1.12.73,0,1.74-.59,4.48-2.63l-.28-.51-.73.48a4.66,4.66,0,0,1-1.71.84c-.19,0-.36-.25-.36-.56a3.2,3.2,0,0,1,.06-.56l1.84-7.73a9.68,9.68,0,0,0,.31-2.07c0-.64-.31-1-.87-1-1.17,0-3.1,1.07-4.76,2.61a23.5,23.5,0,0,0-3.3,4l1.06-4.51a4.88,4.88,0,0,0,.17-1.14c0-.59-.22-.93-.64-.93-.59,0-1.68.62-3.73,2.07Z" transform="translate(0.25 0.25)"/>
  </g>
  <g>
    <path class="cls-12" d="M463.88,226.21l-.48-.44a15.67,15.67,0,0,1-6.4,1.68l-.16.84h1.92c1,0,1.36.28,1.36,1a7.17,7.17,0,0,1-.08,1l-1.12,6.16a11.51,11.51,0,0,0-3.28-.56c-2.76,0-6.52,2.88-8.36,6.36a22.1,22.1,0,0,0-2,9.48c0,2.6.6,3.88,1.76,3.88a7.13,7.13,0,0,0,3.92-1.76c2.16-1.76,3.48-3.32,6.16-7.36l-.92,3.64a17.31,17.31,0,0,0-.64,4.08c0,.84.36,1.32,1,1.32a6,6,0,0,0,3-1.48l3.24-2.4-.4-.76-1.76,1.24a3.35,3.35,0,0,1-1.56.68c-.32,0-.56-.36-.56-.92a7.75,7.75,0,0,1,.32-1.84Zm-14.76,26.52c-.64,0-1-.56-1-1.56,0-5,1.84-11.28,3.8-12.8a3.79,3.79,0,0,1,2.36-.6,8.4,8.4,0,0,1,4.24.92l-.48,2.36C456.56,248.25,450.92,252.73,449.12,252.73Z" transform="translate(0.25 0.25)"/>
    <path class="cls-14" d="M466.17,261.5v.72c5.23,0,5.23-.08,6.24-.08s1,.08,6.41.08v-2.38c-3.22.14-4.51,0-9.69.14l5.1-5.4c2.72-2.88,3.56-4.42,3.56-6.52,0-3.22-2.19-5.21-5.74-5.21a6,6,0,0,0-4.76,2l-.48,3.81h.81l.37-1.29c.44-1.63,1.45-2.33,3.33-2.33a3.67,3.67,0,0,1,3.95,3.9c0,2.1-1.18,4.17-4.34,7.53Z" transform="translate(0.25 0.25)"/>
  </g>
</svg>
