<svg id="Livello_1" data-name="Livello 1" xmlns="http://www.w3.org/2000/svg" xmlns:xlink="http://www.w3.org/1999/xlink" width="662.5" height="543.5" viewBox="0 0 662.5 543.5">
  <defs>
    <style>
      .cls-1, .cls-13, .cls-2, .cls-4, .cls-5, .cls-6, .cls-7, .cls-8, .cls-9 {
        fill: none;
      }

      .cls-2, .cls-3 {
        stroke: #d3d3d3;
        stroke-width: 0.5px;
      }

      .cls-3 {
        fill: url(#_.441971228805659);
      }

      .cls-12, .cls-17, .cls-18, .cls-4, .cls-5, .cls-8 {
        stroke: #000;
      }

      .cls-13, .cls-4, .cls-5, .cls-6, .cls-7, .cls-9 {
        stroke-width: 3px;
      }

      .cls-5 {
        stroke-dasharray: 9 6;
      }

      .cls-15, .cls-20, .cls-6 {
        stroke: #4a90e2;
      }

      .cls-16, .cls-7 {
        stroke: #ff001f;
      }

      .cls-19, .cls-9 {
        stroke: red;
      }

      .cls-10, .cls-19 {
        fill: red;
      }

      .cls-11, .cls-15, .cls-20 {
        fill: #4a90e2;
      }

      .cls-13, .cls-21 {
        stroke: #7ed321;
      }

      .cls-14, .cls-21 {
        fill: #7ed321;
      }

      .cls-15, .cls-16, .cls-17, .cls-18, .cls-19, .cls-20, .cls-21 {
        stroke-miterlimit: 10;
      }

      .cls-15, .cls-16 {
        stroke-width: 0.4px;
      }

      .cls-16 {
        fill: #ff001f;
      }

      .cls-17, .cls-19, .cls-20, .cls-21 {
        stroke-width: 0.32px;
      }

      .cls-18 {
        stroke-width: 0.22px;
      }
    </style>
    <pattern id="_.441971228805659" data-name=".441971228805659" width="10" height="10" patternTransform="matrix(1, 0, 0, -1, -2.75, 851.14)" patternUnits="userSpaceOnUse" viewBox="0 0 10 10">
      <rect class="cls-1" width="10" height="10"/>
      <path class="cls-2" d="M10,10H0V0"/>
    </pattern>
  </defs>
  <rect class="cls-3" x="0.25" y="0.25" width="662" height="543"/>
  <g>
    <g>
      <path class="cls-4" d="M304.45,256.78,433.38,146.12" transform="translate(0.25 0.25)"/>
      <path d="M430.8,157.38l6.37-14.52L421.86,147Z" transform="translate(0.25 0.25)"/>
    </g>
    <path class="cls-5" d="M302.34,32V257.5" transform="translate(0.25 0.25)"/>
    <path class="cls-6" d="M129.88,383.15c0-10.9,10-19.74,22.37-19.74s22.37,8.84,22.37,19.74-10,19.75-22.37,19.75S129.88,394.06,129.88,383.15Z" transform="translate(0.25 0.25)"/>
    <path class="cls-6" d="M433.57,129.71c0-10.91,10-19.75,22.37-19.75s22.37,8.84,22.37,19.75-10,19.74-22.37,19.74S433.57,140.61,433.57,129.71Z" transform="translate(0.25 0.25)"/>
    <path class="cls-7" d="M433.57,129.71c0-10.91,10-19.75,22.37-19.75s22.37,8.84,22.37,19.75-10,19.74-22.37,19.74S433.57,140.61,433.57,129.71Z" transform="translate(0.25 0.25)"/>
    <path class="cls-8" d="M437.17,142.86,171.72,370.7" transform="translate(0.25 0.25)"/>
    <g>
      <path class="cls-9" d="M302.34,257.5H438.87" transform="translate(0.25 0.25)"/>
      <path class="cls-10" d="M429.58,264.36l14.29-6.86-14.29-6.86Z" transform="translate(0.25 0.25)"/>
    </g>
    <path class="cls-8" d="M325.76,237.12c31.65-15.61,37.14,22,.84,20.38" transform="translate(0.25 0.25)"/>
    <g>
      <path class="cls-6" d="M302.34,257.5l68.79-59.13" transform="translate(0.25 0.25)"/>
      <path class="cls-11" d="M368.56,209.62l6.36-14.51-15.31,4.11Z" transform="translate(0.25 0.25)"/>
    </g>
    <path class="cls-12" d="M298.42,257.5c0-2.54,1.76-4.6,3.92-4.6s3.91,2.06,3.91,4.6-1.75,4.59-3.91,4.59S298.42,260,298.42,257.5Z" transform="translate(0.25 0.25)"/>
    <g>
      <path class="cls-4" d="M478.31,129.71H544" transform="translate(0.25 0.25)"/>
      <path d="M534.71,136.57,549,129.71l-14.29-6.86Z" transform="translate(0.25 0.25)"/>
    </g>
    <path class="cls-8" d="M218.3,82H653L466.7,416H32Z" transform="translate(0.25 0.25)"/>
    <path class="cls-5" d="M302.34,262.09v225.5" transform="translate(0.25 0.25)"/>
    <g>
      <path class="cls-13" d="M302.34,257.5v63.08" transform="translate(0.25 0.25)"/>
      <path class="cls-14" d="M295.48,311.29l6.86,14.29,6.86-14.29Z" transform="translate(0.25 0.25)"/>
    </g>
    <g>
      <path class="cls-4" d="M302.34,257.5,175.5,367.43" transform="translate(0.25 0.25)"/>
      <path d="M178,356.16l-6.31,14.54L187,366.53Z" transform="translate(0.25 0.25)"/>
    </g>
    <g>
      <path class="cls-4" d="M64.19,383.15h65.69" transform="translate(0.25 0.25)"/>
      <path d="M73.48,376.29l-14.29,6.86L73.48,390Z" transform="translate(0.25 0.25)"/>
    </g>
  </g>
  <path class="cls-15" d="M165.89,386.26v-2.8h-25.2v2.8Z" transform="translate(0.25 0.25)"/>
  <path class="cls-16" d="M470.08,130.9v-3h-12v-11.9h-2.95V128h-12v3h12v12h2.95v-12Z" transform="translate(0.25 0.25)"/>
  <g>
    <path class="cls-17" d="M200.92,390.75v-2.24H180.76v2.24Z" transform="translate(0.25 0.25)"/>
    <path class="cls-17" d="M218.32,382.15a10.73,10.73,0,0,0-4-1c-3,0-6.52,3.52-7.24,4.32-1.6,1.88-3.16,7.72-3.16,11.84,0,2.36.48,3.56,1.44,3.56a5,5,0,0,0,2.92-1.2,24.31,24.31,0,0,0,7-7.6l-3,16.56a4.86,4.86,0,0,1-1.08,2.28l.36.56a28.78,28.78,0,0,1,3.44-.68,62.88,62.88,0,0,1,.76-6.36l3.44-18.24a33.08,33.08,0,0,1,1.08-4.72l-.56-.24Zm-10.68,16c-.56,0-.88-.84-.88-2.16,0-3.84,1.72-9.84,3.4-11.84a3.93,3.93,0,0,1,2.92-1,8.9,8.9,0,0,1,3.88,1.08l-.84,3.8C215,393.51,209.32,398.11,207.64,398.11Z" transform="translate(0.25 0.25)"/>
    <path class="cls-18" d="M234.3,407.6v-.84l-1.46-.08c-1.54-.09-1.82-.4-1.82-1.85V387.92l-6.75,2.85.2,1.4,4.2-1.85v14.51c0,1.45-.31,1.76-1.82,1.85l-1.57.08v.84l4.62-.08C230.77,407.52,233.85,407.6,234.3,407.6Z" transform="translate(0.25 0.25)"/>
  </g>
  <g>
    <path class="cls-19" d="M437.61,235.23h4.68l5.28.16.76-1.8-.16-.28c-3.24.16-5.64.24-8.76.24h-1.48l1.88-10.8c1.28,0,4.6-.16,5.48-.16,2.48,0,4.12.36,4.16,1l.32,3.56h1a27,27,0,0,1,.84-6.08c-.84-.08-2-.12-2.76-.12-.12,0-.56,0-1.52,0l-4.8,0c-.36,0-7.32,0-7.72,0l-1.8,0-.12,1.12,2.16.08c1,0,1.4.36,1.4,1.08a24.69,24.69,0,0,1-.36,3l-3.48,20.16c-.16.72-.64,1-2.4,1.28l-.2,1,1.64,0c1.24,0,3.72-.08,4.52-.08l9,.12c.56,0,1.56,0,2.88-.08l1.32,0,.16-1.44c.08-.8.28-2,.64-4l.2-1h-1.08l-.64,2.4c-.4,1.44-.76,1.92-1.64,2.12a46.29,46.29,0,0,1-5.88.36,53.7,53.7,0,0,1-5.48-.28Z" transform="translate(0.25 0.25)"/>
    <path class="cls-10" d="M455.16,206l-7.42-7.81-1.15,1.22,4.54,5.47h-.36V207h.36l-4.54,5.47,1.15,1.22Zm-22.43.9h21.35V204.8H432.73Z" transform="translate(0.25 0.25)"/>
  </g>
  <g>
    <path class="cls-17" d="M213.77,295.38a37.1,37.1,0,0,1,.64-4.44,1.8,1.8,0,0,0-.8-.24c-1.24,0-2.48,1-3.92,3a49.32,49.32,0,0,0-3.76,6l1.28-6.08a7.33,7.33,0,0,0,.24-1.68c0-.8-.32-1.28-.92-1.28-.84,0-2.36.84-5.32,3l-1.12.8.28.8,1.28-.84c1.12-.72,1.56-.92,1.92-.92s.68.36.68.88c0,2.32-1.72,10.56-3.32,15.68l.4.28a21.74,21.74,0,0,1,2.16-.52l.52-.08,1-4.8a17.52,17.52,0,0,1,3.4-7.72c1.36-1.76,2.44-2.6,3.32-2.6a1.65,1.65,0,0,1,1.44.76Z" transform="translate(0.25 0.25)"/>
    <path class="cls-18" d="M227.47,317.11v-.84l-1.46-.08c-1.54-.08-1.82-.39-1.82-1.85V297.43l-6.74,2.86.19,1.4,4.2-1.85v14.5c0,1.46-.31,1.77-1.82,1.85l-1.57.08v.84l4.62-.08C223.94,317,227,317.11,227.47,317.11Z" transform="translate(0.25 0.25)"/>
  </g>
  <path class="cls-17" d="M380.71,238.22c9.44,0,13.4-13.28,13.56-20.8.08-4.56-1.2-7.92-6.28-7.92-10.4,0-13.88,11.6-14,20.12C373.91,234.38,375.27,238.22,380.71,238.22Zm6.56-27.68c5.4,0,4.2,7.4,3.36,11.8H378C379,218.18,382.11,210.54,387.27,210.54Zm-5.92,26.52c-6,0-4.24-9.92-3.6-13.44h12.64C389.39,228.1,387.07,237.06,381.35,237.06Z" transform="translate(0.25 0.25)"/>
  <g>
    <path class="cls-17" d="M475,165.06V162.7h-9.6v-9.52h-2.36v9.52h-9.6v2.36h9.6v9.64h2.36v-9.64Z" transform="translate(0.25 0.25)"/>
    <path class="cls-17" d="M493,156.38a10.73,10.73,0,0,0-4-1c-3,0-6.52,3.52-7.24,4.32-1.6,1.88-3.16,7.72-3.16,11.84,0,2.36.48,3.56,1.44,3.56a5,5,0,0,0,2.92-1.2,24.31,24.31,0,0,0,7-7.6l-3,16.56a4.86,4.86,0,0,1-1.08,2.28l.36.56a28.78,28.78,0,0,1,3.44-.68,62.88,62.88,0,0,1,.76-6.36l3.44-18.24a33.08,33.08,0,0,1,1.08-4.72l-.56-.24Zm-10.68,16c-.56,0-.88-.84-.88-2.16,0-3.84,1.72-9.84,3.4-11.84a3.93,3.93,0,0,1,2.92-1,8.9,8.9,0,0,1,3.88,1.08l-.84,3.8C489.63,167.74,484,172.34,482.31,172.34Z" transform="translate(0.25 0.25)"/>
    <path class="cls-18" d="M497.71,181.11v.72c5.24,0,5.24-.08,6.25-.08s1,.08,6.41.08v-2.38c-3.22.14-4.51,0-9.69.14l5.1-5.4c2.71-2.88,3.55-4.42,3.55-6.52,0-3.22-2.18-5.21-5.74-5.21a6,6,0,0,0-4.76,2l-.47,3.81h.81l.36-1.29c.45-1.63,1.46-2.33,3.34-2.33a3.66,3.66,0,0,1,3.94,3.9c0,2.1-1.17,4.17-4.34,7.53Z" transform="translate(0.25 0.25)"/>
  </g>
  <g>
    <path class="cls-20" d="M329.38,219.31c2.24,0,6.84-2.92,8.56-5.44a20.69,20.69,0,0,0,3-9.84c0-2.68-.92-4.44-2.36-4.44-1.68,0-3.8,1-5.88,2.92a16.78,16.78,0,0,0-3.88,4.8l1-4.76a10.75,10.75,0,0,0,.2-1.76c0-.76-.32-1.2-.88-1.2-.84,0-2.36.84-5.32,3l-1.12.8.28.8,1.28-.84c1.12-.72,1.56-.92,1.92-.92s.68.36.68.92a10.93,10.93,0,0,1-.16,1.52l-2.32,13.72c-.4,2.4-1.16,6-2,9.64l-.32,1.48.28.24a16.72,16.72,0,0,1,2.92-.68l1.68-10.48A8.51,8.51,0,0,0,329.38,219.31Zm-1.32-7c.88-5.12,5.16-10.36,8.48-10.36,1,0,1.52.88,1.52,2.72a22.19,22.19,0,0,1-3.72,11,4.27,4.27,0,0,1-3.72,1.76,5.9,5.9,0,0,1-3.28-.92Z" transform="translate(0.25 0.25)"/>
    <path class="cls-11" d="M344.31,185.3l-7.42-7.81-1.15,1.22,4.54,5.47h-.36v2.12h.36l-4.54,5.47,1.15,1.22Zm-18,.9h16.93v-2.12H326.3Z" transform="translate(0.25 0.25)"/>
  </g>
  <g>
    <g>
      <path class="cls-21" d="M350.9,306.61l.52-1.24c-1.12-.16-7-.24-7.08.12l-3.4,6.24-9.84,16.88-6-23.12a46.54,46.54,0,0,1-6.68,0l-.12,1.12,1,.08c2.08.16,2.8.56,2.8,1.6,0,.24-5.84,20.88-5.92,21.16-.64,2.08-1.24,2.6-3.44,2.8l-.12,1,1.56,0c1.36,0,2.36-.08,2.92-.08s1.6,0,3,.08l1.4,0,.12-1.12-1.52-.12c-1.28-.08-2-.48-2-1.08a6.31,6.31,0,0,1,.28-1.64l5-18.56,6,23.12h.92l2.28-4.16,9.56-16.56,2.08-3.48-1.48,20.8c-.16,1.12-.64,1.4-2.68,1.56l-1.24.12-.12,1.12,1.88,0c1.68,0,2.88-.08,3.48-.08s1.84,0,3.48.08l1.84,0,.12-1.12-1.48-.12c-1.44-.12-2.16-.56-2.16-1.4l0-1.48,1.64-21.24c.08-.76.68-1.16,1.84-1.24Z" transform="translate(0.25 0.25)"/>
      <path class="cls-14" d="M353.53,290.6l-7.42-7.81L345,284l4.54,5.47h-.36v2.12h.36L345,297.07l1.15,1.22Zm-36.15.9h35.07v-2.12H317.38Z" transform="translate(0.25 0.25)"/>
    </g>
    <path class="cls-21" d="M387.69,319.29v-2.36H366.13v2.36Zm0,8.52v-2.36H366.13v2.36Z" transform="translate(0.25 0.25)"/>
    <g>
      <path class="cls-21" d="M409.27,333.61c2.24,0,6.84-2.92,8.56-5.44a20.69,20.69,0,0,0,3-9.84c0-2.68-.92-4.44-2.36-4.44-1.68,0-3.8,1-5.88,2.92a16.78,16.78,0,0,0-3.88,4.8l1-4.76a10.75,10.75,0,0,0,.2-1.76c0-.76-.32-1.2-.88-1.2-.84,0-2.36.84-5.32,3l-1.12.8.28.8,1.28-.84c1.12-.72,1.56-.92,1.92-.92s.68.36.68.92a10.93,10.93,0,0,1-.16,1.52l-2.32,13.72c-.4,2.4-1.16,6-2,9.64L402,344l.28.24a16.72,16.72,0,0,1,2.92-.68l1.68-10.48A8.51,8.51,0,0,0,409.27,333.61Zm-1.32-7c.88-5.12,5.16-10.36,8.48-10.36,1,0,1.52.88,1.52,2.72a22.19,22.19,0,0,1-3.72,11,4.27,4.27,0,0,1-3.72,1.76,5.9,5.9,0,0,1-3.28-.92Z" transform="translate(0.25 0.25)"/>
      <path class="cls-14" d="M424.2,299.6l-7.42-7.81L415.63,293l4.54,5.47h-.36v2.12h.36l-4.54,5.47,1.15,1.22Zm-18,.9h16.93v-2.12H406.19Z" transform="translate(0.25 0.25)"/>
    </g>
    <path class="cls-14" d="M448.62,333.17" transform="translate(0.25 0.25)"/>
    <path class="cls-21" d="M464.61,331.69l-9.4-9.36,9.4-9.36-1.72-1.68-9.32,9.36-9.36-9.36L442.53,313l9.36,9.36-9.36,9.36,1.68,1.68,9.36-9.36,9.32,9.36Z" transform="translate(0.25 0.25)"/>
    <g>
      <path class="cls-21" d="M483.71,319.81h4.68l5.28.16.76-1.8-.16-.28c-3.24.16-5.64.24-8.76.24H484l1.88-10.8c1.28,0,4.6-.16,5.48-.16,2.48,0,4.12.36,4.16,1l.32,3.56h1a27,27,0,0,1,.84-6.08c-.84-.08-2-.12-2.76-.12-.12,0-.56,0-1.52,0l-4.8,0c-.36,0-7.32,0-7.72,0l-1.8,0-.12,1.12,2.16.08c1,0,1.4.36,1.4,1.08a24.69,24.69,0,0,1-.36,3L478.67,331c-.16.72-.64,1-2.4,1.28l-.2,1,1.64,0c1.24,0,3.72-.08,4.52-.08l9,.12c.56,0,1.56,0,2.88-.08l1.32,0,.16-1.44c.08-.8.28-2,.64-4l.2-1h-1.08l-.64,2.4c-.4,1.44-.76,1.92-1.64,2.12a46.29,46.29,0,0,1-5.88.36,53.7,53.7,0,0,1-5.48-.28Z" transform="translate(0.25 0.25)"/>
      <path class="cls-14" d="M501.26,290.6l-7.42-7.81L492.69,284l4.55,5.47h-.36v2.12h.36l-4.55,5.47,1.15,1.22Zm-22.42.9h21.35v-2.12H478.84Z" transform="translate(0.25 0.25)"/>
    </g>
  </g>
  <g>
    <path class="cls-17" d="M380.61,148.4a37.1,37.1,0,0,1,.64-4.44,1.8,1.8,0,0,0-.8-.24c-1.24,0-2.48,1-3.92,3a49.32,49.32,0,0,0-3.76,6l1.28-6.08a7.33,7.33,0,0,0,.24-1.68c0-.8-.32-1.28-.92-1.28-.84,0-2.36.84-5.32,3l-1.12.8.28.8,1.28-.84c1.12-.72,1.56-.92,1.92-.92s.68.36.68.88c0,2.32-1.72,10.56-3.32,15.68l.4.28a21.74,21.74,0,0,1,2.16-.52l.52-.08,1-4.8a17.52,17.52,0,0,1,3.4-7.72c1.36-1.76,2.44-2.6,3.32-2.6a1.65,1.65,0,0,1,1.44.76Z" transform="translate(0.25 0.25)"/>
    <path class="cls-18" d="M383.06,169.4v.73c5.23,0,5.23-.08,6.24-.08s1,.08,6.41.08v-2.38c-3.22.14-4.5,0-9.68.14l5.09-5.4c2.72-2.89,3.56-4.43,3.56-6.53,0-3.22-2.19-5.21-5.74-5.21a6,6,0,0,0-4.76,2l-.48,3.81h.81l.37-1.29c.45-1.62,1.45-2.32,3.33-2.32a3.66,3.66,0,0,1,4,3.89c0,2.1-1.18,4.17-4.34,7.53Z" transform="translate(0.25 0.25)"/>
  </g>
  <g>
    <path class="cls-17" d="M96.92,364.73v-2.24H76.76v2.24Z" transform="translate(0.25 0.25)"/>
    <g>
      <path class="cls-17" d="M110.36,348.61l4.24-.16c2.48,0,4.08.36,4.12,1L119,353h1a27.39,27.39,0,0,1,.84-6.08c-.88-.08-2-.12-2.68-.12l-1.64,0-6.6.08h-1.16c-1,0-2.6,0-4.12-.08l-2,0-.12,1.12,2.24.08c1,0,1.4.4,1.4,1.08a24.69,24.69,0,0,1-.36,3l-3,17.36c-.68,3.68-.68,3.72-2.32,3.88l-1.44.12-.16,1.12,1.36,0c1.6,0,2.88-.08,3.72-.08s1.88,0,3.44.08l2.08,0,.12-1.12-2.56-.12c-1.08,0-1.44-.36-1.44-1.16a5,5,0,0,1,.08-.84l1.44-8.92h4.68c1.08,0,2.32,0,4.24.12l1,0,.76-1.8-.16-.28c-3.24.16-5.64.24-8.76.24h-1.48l1.84-10.84a4.48,4.48,0,0,1,.36-1.28Z" transform="translate(0.25 0.25)"/>
      <path d="M123.11,331.88l-7.42-7.81-1.15,1.22,4.54,5.47h-.36v2.12h.36l-4.54,5.47,1.15,1.22Zm-20.23.9H122v-2.12H102.88Z" transform="translate(0.25 0.25)"/>
    </g>
  </g>
  <g>
    <path class="cls-17" d="M571.16,113.61l4.24-.16c2.48,0,4.08.36,4.12,1l.32,3.56h1a27.39,27.39,0,0,1,.84-6.08c-.88-.08-2-.12-2.68-.12l-1.64,0-6.6.08h-1.16c-1,0-2.6,0-4.12-.08l-2,0-.12,1.12,2.24.08c1,0,1.4.4,1.4,1.08a24.69,24.69,0,0,1-.36,3l-3,17.36c-.68,3.68-.68,3.72-2.32,3.88l-1.44.12-.16,1.12,1.36,0c1.6,0,2.88-.08,3.72-.08s1.88,0,3.44.08l2.08,0,.12-1.12-2.56-.12c-1.08,0-1.44-.36-1.44-1.16a5,5,0,0,1,.08-.84l1.44-8.92h4.68c1.08,0,2.32,0,4.24.12l1,0,.76-1.8-.16-.28c-3.24.16-5.64.24-8.76.24h-1.48l1.84-10.84a4.48,4.48,0,0,1,.36-1.28Z" transform="translate(0.25 0.25)"/>
    <path d="M583.91,96.88l-7.42-7.81-1.15,1.22,4.54,5.47h-.36v2.12h.36l-4.54,5.47,1.15,1.22Zm-20.23.9h19.15V95.66H563.68Z" transform="translate(0.25 0.25)"/>
  </g>
</svg>
