<svg id="Livello_1" data-name="Livello 1" xmlns="http://www.w3.org/2000/svg" xmlns:xlink="http://www.w3.org/1999/xlink" width="662.5" height="543.5" viewBox="0 0 662.5 543.5">
  <defs>
    <style>
      .cls-1, .cls-11, .cls-2, .cls-4, .cls-5, .cls-6, .cls-7, .cls-8 {
        fill: none;
      }

      .cls-2, .cls-3 {
        stroke: #d3d3d3;
        stroke-width: 0.5px;
      }

      .cls-3 {
        fill: url(#_.441971228805659);
      }

      .cls-12, .cls-16, .cls-17, .cls-4, .cls-7 {
        stroke: #000;
      }

      .cls-11, .cls-4, .cls-5, .cls-6, .cls-8 {
        stroke-width: 3px;
      }

      .cls-4 {
        stroke-dasharray: 9 6;
      }

      .cls-14, .cls-19, .cls-5 {
        stroke: #4a90e2;
      }

      .cls-15, .cls-6 {
        stroke: #ff001f;
      }

      .cls-18, .cls-8 {
        stroke: red;
      }

      .cls-18, .cls-9 {
        fill: red;
      }

      .cls-10, .cls-14, .cls-19 {
        fill: #4a90e2;
      }

      .cls-11, .cls-20, .cls-21 {
        stroke: #7ed321;
      }

      .cls-13, .cls-20, .cls-21 {
        fill: #7ed321;
      }

      .cls-14, .cls-15, .cls-16, .cls-17, .cls-18, .cls-19, .cls-20, .cls-21 {
        stroke-miterlimit: 10;
      }

      .cls-14, .cls-15 {
        stroke-width: 0.4px;
      }

      .cls-15 {
        fill: #ff001f;
      }

      .cls-16, .cls-18, .cls-19, .cls-20 {
        stroke-width: 0.32px;
      }

      .cls-17, .cls-21 {
        stroke-width: 0.22px;
      }
    </style>
    <pattern id="_.441971228805659" data-name=".441971228805659" width="10" height="10" patternTransform="matrix(1, 0, 0, -1, -2.75, 851.14)" patternUnits="userSpaceOnUse" viewBox="0 0 10 10">
      <rect class="cls-1" width="10" height="10"/>
      <path class="cls-2" d="M10,10H0V0"/>
    </pattern>
  </defs>
  <rect class="cls-3" x="0.25" y="0.25" width="662" height="543"/>
  <g>
    <path class="cls-4" d="M637.65,259.81H9.6" transform="translate(0.25 0.25)"/>
    <path class="cls-5" d="M92.88,422.57a25.58,25.58,0,1,1,25.57,25.57A25.57,25.57,0,0,1,92.88,422.57Z" transform="translate(0.25 0.25)"/>
    <path class="cls-5" d="M440,94.29a25.58,25.58,0,1,1,25.58,25.57A25.58,25.58,0,0,1,440,94.29Z" transform="translate(0.25 0.25)"/>
    <path class="cls-6" d="M440,94.29a25.58,25.58,0,1,1,25.58,25.57A25.58,25.58,0,0,1,440,94.29Z" transform="translate(0.25 0.25)"/>
    <path class="cls-7" d="M444.17,111.33,140.71,406.45" transform="translate(0.25 0.25)"/>
    <g>
      <path class="cls-8" d="M411,259.81H567.79" transform="translate(0.25 0.25)"/>
      <path class="cls-9" d="M558.5,266.67l14.29-6.86L558.5,253Z" transform="translate(0.25 0.25)"/>
    </g>
    <path class="cls-7" d="M316.81,233.42c36.17-20.22,42.45,28.52,1,26.39" transform="translate(0.25 0.25)"/>
    <g>
      <path class="cls-5" d="M234.42,315l117.8-111.63" transform="translate(0.25 0.25)"/>
      <path class="cls-10" d="M350.19,214.76,355.85,200l-15.09,4.85Z" transform="translate(0.25 0.25)"/>
    </g>
    <path class="cls-11" d="M262.14,259.81A27.89,27.89,0,1,1,290,287.7,27.89,27.89,0,0,1,262.14,259.81Z" transform="translate(0.25 0.25)"/>
    <path class="cls-12" d="M285.55,259.81c0-3.29,2-5.95,4.47-5.95s4.48,2.66,4.48,5.95-2,6-4.48,6S285.55,263.1,285.55,259.81Z" transform="translate(0.25 0.25)"/>
    <g>
      <path class="cls-11" d="M349.65,229.39c28,28.27,24.27,43.76-.24,67.54" transform="translate(0.25 0.25)"/>
      <path class="cls-13" d="M360.87,230.54l-15.06-4.93,5.58,14.84Z" transform="translate(0.25 0.25)"/>
      <path class="cls-13" d="M351.6,285.59l-5.79,14.76,15.13-4.72Z" transform="translate(0.25 0.25)"/>
    </g>
  </g>
  <path class="cls-14" d="M132.22,424.27v-2.8H107v2.8Z" transform="translate(0.25 0.25)"/>
  <path class="cls-15" d="M479.83,96.09v-3h-12V81.24h-2.95v11.9h-12v3h12v12h2.95v-12Z" transform="translate(0.25 0.25)"/>
  <g>
    <path class="cls-16" d="M155.79,462.22V460H135.63v2.24Z" transform="translate(0.25 0.25)"/>
    <path class="cls-16" d="M173.2,453.62a10.73,10.73,0,0,0-4-1c-3,0-6.52,3.52-7.24,4.32-1.6,1.88-3.16,7.72-3.16,11.84,0,2.36.48,3.56,1.44,3.56a5,5,0,0,0,2.92-1.2,24.31,24.31,0,0,0,7-7.6l-3,16.56a4.86,4.86,0,0,1-1.08,2.28l.36.56a28.78,28.78,0,0,1,3.44-.68,62.88,62.88,0,0,1,.76-6.36L174,457.7a33.08,33.08,0,0,1,1.08-4.72l-.56-.24Zm-10.68,16c-.56,0-.88-.84-.88-2.16,0-3.84,1.72-9.84,3.4-11.84a3.93,3.93,0,0,1,2.92-1,8.9,8.9,0,0,1,3.88,1.08l-.84,3.8C169.84,465,164.2,469.58,162.52,469.58Z" transform="translate(0.25 0.25)"/>
    <path class="cls-17" d="M189.17,479.07v-.84l-1.45-.09c-1.54-.08-1.82-.39-1.82-1.84V459.38l-6.75,2.86.19,1.4,4.2-1.85V476.3c0,1.45-.3,1.76-1.82,1.84l-1.56.09v.84l4.62-.09C185.64,479,188.72,479.07,189.17,479.07Z" transform="translate(0.25 0.25)"/>
  </g>
  <g>
    <path class="cls-18" d="M569.11,219.14h4.68l5.28.16.76-1.8-.16-.28c-3.24.16-5.64.24-8.76.24h-1.48l1.88-10.8c1.28,0,4.6-.16,5.48-.16,2.48,0,4.12.36,4.16,1l.32,3.56h1a27,27,0,0,1,.84-6.08c-.84-.08-2-.12-2.76-.12-.12,0-.56,0-1.52,0l-4.8,0c-.36,0-7.32,0-7.72,0l-1.8,0-.12,1.12,2.16.08c1,0,1.4.36,1.4,1.08a24.69,24.69,0,0,1-.36,3l-3.48,20.16c-.16.72-.64,1-2.4,1.28l-.2,1,1.64,0c1.24,0,3.72-.08,4.52-.08l9,.12c.56,0,1.56,0,2.88-.08l1.32,0,.16-1.44c.08-.8.28-2,.64-4l.2-1h-1.08l-.64,2.4c-.4,1.44-.76,1.92-1.64,2.12a46.29,46.29,0,0,1-5.88.36,53.7,53.7,0,0,1-5.48-.28Z" transform="translate(0.25 0.25)"/>
    <path class="cls-9" d="M586.66,189.93l-7.42-7.81-1.15,1.22,4.54,5.47h-.36v2.12h.36l-4.54,5.47,1.15,1.22Zm-22.43.9h21.35v-2.12H564.23Z" transform="translate(0.25 0.25)"/>
  </g>
  <path class="cls-16" d="M249.37,280c0-7.12-4.16-11.24-11.36-11.24-9.48,0-16.44,7.32-16.44,17.36,0,7.56,3.76,11.6,10.8,11.6C243.25,297.7,249.37,288.7,249.37,280Zm-3.52.64c0,7.52-3.56,15.4-12,15.4-5.76,0-8.76-3.44-8.76-10.12,0-5.92,2.32-15.48,11.68-15.48C241.41,270.42,245.85,272.58,245.85,280.62Z" transform="translate(0.25 0.25)"/>
  <path class="cls-16" d="M380.06,229.92c9.44,0,13.4-13.28,13.56-20.8.08-4.56-1.2-7.92-6.28-7.92-10.4,0-13.88,11.6-14,20.12C373.26,226.08,374.62,229.92,380.06,229.92Zm6.56-27.68c5.4,0,4.2,7.4,3.36,11.8H377.34C378.34,209.88,381.46,202.24,386.62,202.24Zm-5.92,26.52c-6,0-4.24-9.92-3.6-13.44h12.64C388.74,219.8,386.42,228.76,380.7,228.76Z" transform="translate(0.25 0.25)"/>
  <g>
    <path class="cls-16" d="M426.77,40.64V38.28h-9.6V28.76h-2.36v9.52h-9.6v2.36h9.6v9.64h2.36V40.64Z" transform="translate(0.25 0.25)"/>
    <path class="cls-16" d="M444.73,32a10.73,10.73,0,0,0-4-1c-3,0-6.52,3.52-7.24,4.32-1.6,1.88-3.16,7.72-3.16,11.84,0,2.36.48,3.56,1.44,3.56a5,5,0,0,0,2.92-1.2,24.31,24.31,0,0,0,7-7.6l-3,16.56a4.86,4.86,0,0,1-1.08,2.28l.36.56a28.78,28.78,0,0,1,3.44-.68,62.88,62.88,0,0,1,.76-6.36L445.53,36a33.08,33.08,0,0,1,1.08-4.72l-.56-.24Zm-10.68,16c-.56,0-.88-.84-.88-2.16,0-3.84,1.72-9.84,3.4-11.84a3.93,3.93,0,0,1,2.92-1A8.9,8.9,0,0,1,443.37,34l-.84,3.8C441.37,43.32,435.73,47.92,434.05,47.92Z" transform="translate(0.25 0.25)"/>
    <path class="cls-17" d="M449.45,56.68v.73c5.23,0,5.23-.08,6.24-.08s1,.08,6.41.08V55c-3.22.14-4.5,0-9.68.14l5.09-5.4c2.72-2.89,3.56-4.43,3.56-6.53,0-3.22-2.19-5.2-5.74-5.2a6,6,0,0,0-4.76,2l-.48,3.8h.81l.37-1.28c.45-1.63,1.45-2.33,3.33-2.33a3.66,3.66,0,0,1,3.95,3.89c0,2.1-1.18,4.18-4.34,7.54Z" transform="translate(0.25 0.25)"/>
  </g>
  <g>
    <path class="cls-19" d="M299.35,197.77c2.24,0,6.84-2.92,8.56-5.44a20.69,20.69,0,0,0,3-9.84c0-2.68-.92-4.44-2.36-4.44-1.68,0-3.8,1-5.88,2.92a16.78,16.78,0,0,0-3.88,4.8l1-4.76a10.75,10.75,0,0,0,.2-1.76c0-.76-.32-1.2-.88-1.2-.84,0-2.36.84-5.32,3l-1.12.8.28.8,1.28-.84c1.12-.72,1.56-.92,1.92-.92s.68.36.68.92a10.93,10.93,0,0,1-.16,1.52L294.31,197c-.4,2.4-1.16,6-2,9.64l-.32,1.48.28.24a16.72,16.72,0,0,1,2.92-.68l1.68-10.48A8.51,8.51,0,0,0,299.35,197.77Zm-1.32-7c.88-5.12,5.16-10.36,8.48-10.36,1,0,1.52.88,1.52,2.72a22.19,22.19,0,0,1-3.72,11,4.27,4.27,0,0,1-3.72,1.76,5.9,5.9,0,0,1-3.28-.92Z" transform="translate(0.25 0.25)"/>
    <path class="cls-10" d="M314.28,163.75l-7.42-7.81-1.15,1.22,4.54,5.47h-.36v2.12h.36l-4.54,5.47,1.15,1.22Zm-18,.9H313.2v-2.12H296.27Z" transform="translate(0.25 0.25)"/>
  </g>
  <g>
    <g>
      <path class="cls-20" d="M336.49,312.61l.52-1.24c-1.12-.16-7-.24-7.07.12l-3.4,6.24-9.84,16.88-6-23.12a46.54,46.54,0,0,1-6.68,0l-.12,1.12,1,.08c2.08.16,2.8.56,2.8,1.6,0,.24-5.84,20.88-5.92,21.16-.64,2.08-1.24,2.6-3.44,2.8l-.12,1,1.56,0c1.36,0,2.36-.08,2.92-.08s1.6,0,3,.08l1.4,0,.12-1.12-1.52-.12c-1.28-.08-2-.48-2-1.08a6.31,6.31,0,0,1,.28-1.64l5-18.56,6,23.12h.92l2.28-4.16,9.56-16.56,2.08-3.48-1.48,20.8c-.16,1.12-.64,1.4-2.68,1.56l-1.24.12-.12,1.12,1.88,0c1.68,0,2.88-.08,3.48-.08s1.84,0,3.48.08l1.83,0,.12-1.12-1.47-.12c-1.44-.12-2.16-.56-2.16-1.4l0-1.48,1.64-21.24c.08-.76.68-1.16,1.83-1.24Z" transform="translate(0.25 0.25)"/>
      <path class="cls-13" d="M339.13,296.6l-7.42-7.81L330.56,290l4.54,5.47h-.36v2.12h.36l-4.54,5.47,1.15,1.22Zm-36.15.9h35.07v-2.12H303Z" transform="translate(0.25 0.25)"/>
    </g>
    <path class="cls-21" d="M347.51,349.86l-.67.48A7.28,7.28,0,0,1,343,352c-1.31,0-2.12-1-2.12-2.72a13.36,13.36,0,0,1,.22-2.26c.48-.12,3.53-1,4.23-1.26,2.38-1,3.47-2.33,3.47-4.06a2.15,2.15,0,0,0-2.35-2.19c-1.91-.39-5,1.65-6,3.73a16.79,16.79,0,0,0-1.68,6.6c0,2.19,1.23,3.48,3.25,3.48,1.59,0,3.16-.79,5.74-2.89Zm-6-4.56a7.44,7.44,0,0,1,1.85-3.87,3.4,3.4,0,0,1,2-.78,1.31,1.31,0,0,1,1.35,1.45,4,4,0,0,1-2.44,3.25,13.51,13.51,0,0,1-3.05,1Zm8.37-3.2.2.56.9-.58c1-.65,1.12-.7,1.31-.7s.51.28.51.7a67.07,67.07,0,0,1-2.3,10.83l.2.31c.7-.2,1.34-.36,2-.48.53-3.52,1.12-5.34,2.4-7.28,1.52-2.35,3.62-4.08,4.88-4.08.3,0,.47.25.47.67a8,8,0,0,1-.31,2L358.63,350a10.25,10.25,0,0,0-.37,2.13c0,.7.31,1.12.84,1.12.73,0,1.74-.59,4.48-2.63l-.28-.51-.72.48a4.74,4.74,0,0,1-1.71.84c-.2,0-.37-.25-.37-.56a3.2,3.2,0,0,1,.06-.56l1.85-7.73a10.36,10.36,0,0,0,.31-2.07c0-.64-.31-1-.87-1-1.18,0-3.11,1.07-4.76,2.61a23,23,0,0,0-3.31,4l1.07-4.51a5.49,5.49,0,0,0,.17-1.14c0-.59-.23-.93-.65-.93-.59,0-1.68.62-3.72,2.07Zm18.37-.05L366.66,350a12.29,12.29,0,0,0-.36,2.13c0,.7.31,1.12.84,1.12,1,0,2-.56,4.14-2.32l.87-.7-.28-.51-1.26.87a4,4,0,0,1-1.68.84c-.25,0-.39-.22-.39-.56a62,62,0,0,1,1.2-7.06l.37-1.73h3l.31-1.4a28.75,28.75,0,0,1-3.08.17,34.91,34.91,0,0,1,1.26-5.52l-.31-.42a14.68,14.68,0,0,1-2.18,1l-.7,4.76a16.82,16.82,0,0,1-2.46,1l-.06.37Zm16.1.7a28.09,28.09,0,0,1,.45-3.11,1.28,1.28,0,0,0-.56-.17c-.87,0-1.74.67-2.74,2.1a34.16,34.16,0,0,0-2.64,4.23l.9-4.26a5.22,5.22,0,0,0,.17-1.17c0-.56-.23-.9-.65-.9-.58,0-1.65.59-3.72,2.07l-.78.56.19.56.9-.58c.78-.51,1.09-.65,1.34-.65s.48.25.48.62a59.78,59.78,0,0,1-2.33,11l.28.2a15.18,15.18,0,0,1,1.52-.36l.36-.06.73-3.36a12.22,12.22,0,0,1,2.38-5.4c.95-1.24,1.71-1.82,2.32-1.82a1.17,1.17,0,0,1,1,.53Zm8.15,4.51-.81,3.55a6.56,6.56,0,0,0-.17,1.43c0,.62.25,1,.67,1,.65,0,1.79-.73,4.09-2.63l-.2-.59c-.67.56-1.48,1.32-2.1,1.32-.25,0-.42-.26-.42-.65a.93.93,0,0,1,0-.31l2.58-10.61-.28-.25-.93.5a6,6,0,0,0-2.38-.53,4.34,4.34,0,0,0-2.1.51,6.59,6.59,0,0,0-3.36,3.08,20.81,20.81,0,0,0-2.1,8c0,1.23.42,2.19,1,2.19C387,353.28,389.23,351.82,392.48,347.26Zm1.34-5.88a15.26,15.26,0,0,1-2.1,6c-1.59,2.35-3.3,4-4.2,4-.33,0-.5-.37-.5-1.12a22.24,22.24,0,0,1,1.76-7.31c.68-1.54,1.32-2.05,2.66-2.05A6.83,6.83,0,0,1,393.82,341.38Zm4.15.72.19.56.9-.58c1-.65,1.12-.7,1.32-.7s.5.28.5.7a67.07,67.07,0,0,1-2.3,10.83l.2.31c.7-.2,1.34-.36,2-.48.53-3.52,1.12-5.34,2.41-7.28,1.51-2.35,3.61-4.08,4.87-4.08.31,0,.47.25.47.67a8.36,8.36,0,0,1-.3,2L406.73,350a10,10,0,0,0-.36,2.13c0,.7.3,1.12.84,1.12.72,0,1.73-.59,4.48-2.63l-.28-.51-.73.48a4.66,4.66,0,0,1-1.71.84c-.2,0-.36-.25-.36-.56a3.24,3.24,0,0,1,.05-.56l1.85-7.73a9.68,9.68,0,0,0,.31-2.07c0-.64-.31-1-.87-1-1.18,0-3.11,1.07-4.76,2.61a23,23,0,0,0-3.3,4l1.06-4.51a5.49,5.49,0,0,0,.17-1.14c0-.59-.23-.93-.65-.93-.58,0-1.67.62-3.72,2.07Zm18.36-.05L414.77,350a11.16,11.16,0,0,0-.37,2.13c0,.7.31,1.12.84,1.12,1,0,2-.56,4.15-2.32l.86-.7-.28-.51-1.26.87a4,4,0,0,1-1.68.84c-.25,0-.39-.22-.39-.56a60.74,60.74,0,0,1,1.21-7.06l.36-1.73h3l.3-1.4a28.75,28.75,0,0,1-3.08.17,34.91,34.91,0,0,1,1.26-5.52l-.3-.42a14.84,14.84,0,0,1-2.19,1l-.7,4.76a16.82,16.82,0,0,1-2.46,1l-.06.37Zm15,7.81-.67.48a7.28,7.28,0,0,1-3.83,1.62c-1.32,0-2.13-1-2.13-2.72a13.36,13.36,0,0,1,.22-2.26c.48-.12,3.53-1,4.23-1.26,2.38-1,3.47-2.33,3.47-4.06a2.15,2.15,0,0,0-2.35-2.19c-1.9-.39-5,1.65-6,3.73a16.79,16.79,0,0,0-1.68,6.6c0,2.19,1.23,3.48,3.25,3.48,1.59,0,3.16-.79,5.74-2.89Zm-6-4.56a7.44,7.44,0,0,1,1.85-3.87,3.42,3.42,0,0,1,2.05-.78,1.31,1.31,0,0,1,1.34,1.45,4,4,0,0,1-2.44,3.25,13.51,13.51,0,0,1-3,1Z" transform="translate(0.25 0.25)"/>
  </g>
</svg>
