<svg id="Livello_1" data-name="Livello 1" xmlns="http://www.w3.org/2000/svg" xmlns:xlink="http://www.w3.org/1999/xlink" width="662.5" height="541.5" viewBox="0 0 662.5 541.5">
  <defs>
    <style>
      .cls-1, .cls-10, .cls-11, .cls-12, .cls-13, .cls-2, .cls-4, .cls-5, .cls-7, .cls-9 {
        fill: none;
      }

      .cls-2, .cls-3 {
        stroke: #d3d3d3;
        stroke-width: 0.5px;
      }

      .cls-3 {
        fill: url(#_.6468837480708505);
      }

      .cls-12, .cls-13, .cls-14, .cls-15, .cls-4, .cls-5, .cls-6 {
        stroke: #000;
      }

      .cls-10, .cls-4 {
        stroke-width: 3px;
      }

      .cls-16, .cls-7 {
        stroke: red;
      }

      .cls-7 {
        stroke-width: 4px;
      }

      .cls-16, .cls-17, .cls-8 {
        fill: red;
      }

      .cls-9 {
        stroke: #d0021b;
        stroke-width: 8px;
      }

      .cls-10, .cls-11 {
        stroke: #ff0303;
      }

      .cls-11 {
        stroke-width: 3px;
      }

      .cls-12 {
        stroke-width: 3px;
      }

      .cls-13 {
        stroke-width: 2px;
      }

      .cls-14, .cls-15, .cls-16 {
        stroke-miterlimit: 10;
      }

      .cls-14, .cls-16 {
        stroke-width: 0.24px;
      }

      .cls-15 {
        stroke-width: 0.16px;
      }

      .cls-17 {
        isolation: isolate;
        font-size: 25px;
        font-family: ArialMT, Arial;
      }
    </style>
    <pattern id="_.6468837480708505" data-name=".6468837480708505" width="10" height="10" patternTransform="matrix(1, 0, 0, -1, -2.75, 842.14)" patternUnits="userSpaceOnUse" viewBox="0 0 10 10">
      <rect class="cls-1" width="10" height="10"/>
      <path class="cls-2" d="M10,10H0V0"/>
    </pattern>
  </defs>
  <rect class="cls-3" x="0.25" y="0.25" width="662" height="541"/>
  <g>
    <g>
      <path class="cls-4" d="M136.84,265.76H626.39" transform="translate(0.25 0.25)"/>
      <path d="M617.1,272.62l14.29-6.86L617.1,258.9Z" transform="translate(0.25 0.25)"/>
    </g>
    <path class="cls-5" d="M11.77,265.76c0-91.92,53.14-166.43,118.69-166.43s118.68,74.51,118.68,166.43S196,432.18,130.46,432.18,11.77,357.67,11.77,265.76Z" transform="translate(0.25 0.25)"/>
    <path class="cls-5" d="M207,137,136.84,265.76" transform="translate(0.25 0.25)"/>
    <path class="cls-6" d="M130.46,265.76a6.38,6.38,0,1,0,6.38-6.38A6.37,6.37,0,0,0,130.46,265.76Z" transform="translate(0.25 0.25)"/>
    <path class="cls-6" d="M379.77,266.3a6.38,6.38,0,1,0,6.38-6.38A6.38,6.38,0,0,0,379.77,266.3Z" transform="translate(0.25 0.25)"/>
    <g>
      <path class="cls-7" d="M386.15,266.3h173" transform="translate(0.25 0.25)"/>
      <path class="cls-8" d="M548.19,274.45l17-8.15-17-8.15Z" transform="translate(0.25 0.25)"/>
    </g>
    <path class="cls-5" d="M72,182l64.84,83.76" transform="translate(0.25 0.25)"/>
    <path class="cls-9" d="M45.62,265.76c0-71.93,40.84-130.24,91.22-130.24s91.21,58.31,91.21,130.24S187.21,396,136.84,396,45.62,337.68,45.62,265.76Z" transform="translate(0.25 0.25)"/>
    <g>
      <path class="cls-10" d="M260,158l-41.38,19.31" transform="translate(0.25 0.25)"/>
      <path class="cls-11" d="M228.62,166.84A52.41,52.41,0,0,1,215,179a52.41,52.41,0,0,1,18.07-2.63" transform="translate(0.25 0.25)"/>
    </g>
    <g>
      <path class="cls-4" d="M209,401l-16.39-19" transform="translate(0.25 0.25)"/>
      <path class="cls-12" d="M205.41,388.8A52.36,52.36,0,0,1,190,379a52.29,52.29,0,0,1,7.45,16.67" transform="translate(0.25 0.25)"/>
    </g>
    <g>
      <path class="cls-4" d="M180.39,366,164,347" transform="translate(0.25 0.25)"/>
      <path class="cls-12" d="M167.59,359.2A52.36,52.36,0,0,1,183,369a52.29,52.29,0,0,1-7.45-16.67" transform="translate(0.25 0.25)"/>
    </g>
    <path class="cls-13" d="M183,386l16-15" transform="translate(0.25 0.25)"/>
    <path class="cls-13" d="M175,378l16-14" transform="translate(0.25 0.25)"/>
  </g>
  <path class="cls-14" d="M180.73,193.88l1.68.06c.72,0,1.05.27,1.05.81a18.52,18.52,0,0,1-.27,2.28l-2.25,13c-.48,2.73-.54,2.79-1.74,2.91l-1.23.09-.12.84,1.26,0c1.41-.06,2-.06,2.7-.06l2.91.09h.78l.09-.84-1.47-.09c-.81-.06-1.08-.3-1.08-.9a5.81,5.81,0,0,1,.12-1.05l3-16.65a10.17,10.17,0,0,1,2.28-.24c2.61,0,4,1.17,4,3.39,0,2.85-2.34,5-5.46,5h-1.32l-.09.33c4,5.85,4.95,7.29,7.2,11.1l2.55-.09,1,.09h.39v-.81c-1.2-.15-1.53-.39-2.4-1.65l-5.52-8.25a7.71,7.71,0,0,0,3.6-1.44A5.82,5.82,0,0,0,195.1,197c0-2.58-1.92-4-5.25-3.93h-9Z" transform="translate(0.25 0.25)"/>
  <path class="cls-15" d="M134.51,287.47c0-3.56-2.08-5.62-5.68-5.62-4.74,0-8.22,3.66-8.22,8.68,0,3.78,1.88,5.8,5.4,5.8C131.45,296.33,134.51,291.83,134.51,287.47Zm-1.76.32c0,3.76-1.78,7.7-6,7.7-2.88,0-4.38-1.72-4.38-5.06,0-3,1.16-7.74,5.84-7.74C130.53,282.69,132.75,283.77,132.75,287.79Z" transform="translate(0.25 0.25)"/>
  <g>
    <path class="cls-16" d="M267.83,127.65l-.36-.33a11.75,11.75,0,0,1-4.8,1.26l-.12.63H264c.72,0,1,.21,1,.72a5.37,5.37,0,0,1-.06.72l-.84,4.62a8.63,8.63,0,0,0-2.46-.42c-2.07,0-4.89,2.16-6.27,4.77a16.57,16.57,0,0,0-1.53,7.11c0,2,.45,2.91,1.32,2.91a5.35,5.35,0,0,0,2.94-1.32,21.22,21.22,0,0,0,4.62-5.52l-.69,2.73a13,13,0,0,0-.48,3.06c0,.63.27,1,.78,1a4.53,4.53,0,0,0,2.25-1.11l2.43-1.8-.3-.57-1.32.93a2.51,2.51,0,0,1-1.17.51c-.24,0-.42-.27-.42-.69a5.82,5.82,0,0,1,.24-1.38Zm-11.07,19.89c-.48,0-.75-.42-.75-1.17,0-3.78,1.38-8.46,2.85-9.6a2.84,2.84,0,0,1,1.77-.45,6.3,6.3,0,0,1,3.18.69l-.36,1.77C262.34,144.18,258.11,147.54,256.76,147.54Zm23.1-12a8,8,0,0,0-3-.72c-2.25,0-4.89,2.64-5.43,3.24-1.2,1.41-2.37,5.79-2.37,8.88,0,1.77.36,2.67,1.08,2.67a3.76,3.76,0,0,0,2.19-.9,18.23,18.23,0,0,0,5.25-5.7l-2.28,12.42a3.64,3.64,0,0,1-.81,1.71l.27.42a21.59,21.59,0,0,1,2.58-.51,47.16,47.16,0,0,1,.57-4.77l2.58-13.68a24.81,24.81,0,0,1,.81-3.54l-.42-.18Zm-8,12c-.42,0-.66-.63-.66-1.62,0-2.88,1.29-7.38,2.55-8.88a2.94,2.94,0,0,1,2.19-.72,6.67,6.67,0,0,1,2.91.81l-.63,2.85C277.34,144.09,273.11,147.54,271.85,147.54Z" transform="translate(0.25 0.25)"/>
    <path class="cls-16" d="M309.28,138.9v-1.77H293.11v1.77Zm0,6.39v-1.77H293.11v1.77Z" transform="translate(0.25 0.25)"/>
    <path class="cls-16" d="M320.67,148.62v.78c5.61,0,5.61-.09,6.69-.09s1.08.09,6.87.09v-2.55c-3.45.15-4.83,0-10.38.15l5.46-5.79c2.91-3.09,3.81-4.74,3.81-7,0-3.45-2.34-5.58-6.15-5.58a6.46,6.46,0,0,0-5.1,2.1l-.51,4.08h.87l.39-1.38c.48-1.74,1.56-2.49,3.57-2.49a3.92,3.92,0,0,1,4.23,4.17c0,2.25-1.26,4.47-4.65,8.07Zm30.24-.57c-1.68,0-1.83-2.49-1.8-3.72a14.42,14.42,0,0,1,2.16-7.17l1.86-.39a10.51,10.51,0,0,1,.42-1.47c-4.62.18-9.39.12-14,0-1.95,0-2.37,2.31-2.94,3.78,0,.24.36.27.48.36v-.12c1.29-1.89,2-2.19,4.26-2.19H342c-1.2,4.17-2,8.28-3.9,12.21v.3a8.77,8.77,0,0,0,2.16-.75c1.23-3.84,2.1-7.83,2.94-11.76H350a17.3,17.3,0,0,0-3,8.91c0,1.47.45,3.69,2.28,3.69,1.23,0,2.91-1.2,3.81-2v-.45h-.36v0A3.67,3.67,0,0,1,350.91,148.05Zm14.88-9.69a27.83,27.83,0,0,1,.48-3.33,1.35,1.35,0,0,0-.6-.18c-.93,0-1.86.72-2.94,2.25a37,37,0,0,0-2.82,4.53l1-4.56a5.5,5.5,0,0,0,.18-1.26c0-.6-.24-1-.69-1-.63,0-1.77.63-4,2.22l-.84.6.21.6,1-.63c.84-.54,1.17-.69,1.44-.69s.51.27.51.66a64,64,0,0,1-2.49,11.76l.3.21a16.3,16.3,0,0,1,1.62-.39l.39-.06.78-3.6a13.14,13.14,0,0,1,2.55-5.79c1-1.32,1.83-2,2.49-2a1.24,1.24,0,0,1,1.08.57Zm22.56-10.71-.36-.33a11.75,11.75,0,0,1-4.8,1.26l-.12.63h1.44c.72,0,1,.21,1,.72a5.37,5.37,0,0,1-.06.72l-.84,4.62a8.63,8.63,0,0,0-2.46-.42c-2.07,0-4.89,2.16-6.27,4.77a16.57,16.57,0,0,0-1.53,7.11c0,2,.45,2.91,1.32,2.91a5.35,5.35,0,0,0,2.94-1.32,21.22,21.22,0,0,0,4.62-5.52l-.69,2.73a13,13,0,0,0-.48,3.06c0,.63.27,1,.78,1a4.53,4.53,0,0,0,2.25-1.11l2.43-1.8-.3-.57-1.32.93a2.51,2.51,0,0,1-1.17.51c-.24,0-.42-.27-.42-.69a5.82,5.82,0,0,1,.24-1.38Zm-11.07,19.89c-.48,0-.75-.42-.75-1.17,0-3.78,1.38-8.46,2.85-9.6a2.84,2.84,0,0,1,1.77-.45,6.3,6.3,0,0,1,3.18.69l-.36,1.77C382.86,144.18,378.63,147.54,377.28,147.54Zm22.59-9.18a27.83,27.83,0,0,1,.48-3.33,1.35,1.35,0,0,0-.6-.18c-.93,0-1.86.72-2.94,2.25a37,37,0,0,0-2.82,4.53l1-4.56a5.5,5.5,0,0,0,.18-1.26c0-.6-.24-1-.69-1-.63,0-1.77.63-4,2.22l-.84.6.21.6,1-.63c.84-.54,1.17-.69,1.44-.69s.51.27.51.66a64,64,0,0,1-2.49,11.76l.3.21a16.3,16.3,0,0,1,1.62-.39l.39-.06.78-3.6a13.14,13.14,0,0,1,2.55-5.79c1-1.32,1.83-2,2.49-2a1.24,1.24,0,0,1,1.08.57Z" transform="translate(0.25 0.25)"/>
  </g>
  <text class="cls-17" transform="translate(156.91 128.89)">+</text>
  <text class="cls-17" transform="translate(93.57 128.89)">+</text>
  <text class="cls-17" transform="translate(47.77 170.63)">+</text>
  <text class="cls-17" transform="translate(21.61 232.92)">+</text>
  <text class="cls-17" transform="translate(27.91 327.57)">+</text>
  <text class="cls-17" transform="translate(80.2 409.03)">+</text>
  <text class="cls-17" transform="translate(164.25 413.99)">+</text>
  <text class="cls-17" transform="translate(229.43 322.63)">+</text>
  <text class="cls-17" transform="translate(230.83 241.02)">+</text>
  <text class="cls-17" transform="translate(223.78 185.36)">+</text>
  <path class="cls-14" d="M394.54,223.89l1.65.06c.72,0,1.05.27,1.05.81l-2.49,15.3c-.51,2.73-.54,2.82-1.74,2.91l-1.23.09-.12.84,1.26,0c1.23,0,2.16-.06,2.7-.06s1.38,0,2.58.06l1.59,0,.09-.84-1.95-.09c-.78,0-1.08-.27-1.08-.9a6.42,6.42,0,0,1,.12-1l2.94-16.65a12.17,12.17,0,0,1,2.13-.24c3.06,0,4.53,1.32,4.53,4.11,0,3.24-2.16,5.88-4.8,5.88a6.42,6.42,0,0,1-2.37-.57l.06.93a5.2,5.2,0,0,0,2.58.69,7.52,7.52,0,0,0,7.17-7.59c0-3-1.89-4.62-5.46-4.53h-9.12Z" transform="translate(0.25 0.25)"/>
  <path class="cls-14" d="M562.6,286l-.36-.33a11.75,11.75,0,0,1-4.8,1.26l-.12.63h1.44c.72,0,1,.21,1,.72a5.37,5.37,0,0,1-.06.72l-.84,4.62a8.63,8.63,0,0,0-2.46-.42c-2.07,0-4.89,2.16-6.27,4.77a16.57,16.57,0,0,0-1.53,7.11c0,2,.45,2.91,1.32,2.91a5.35,5.35,0,0,0,2.94-1.32,21.22,21.22,0,0,0,4.62-5.52l-.69,2.73a13,13,0,0,0-.48,3.06c0,.63.27,1,.78,1a4.53,4.53,0,0,0,2.25-1.11l2.43-1.8-.3-.57-1.32.93a2.51,2.51,0,0,1-1.17.51c-.24,0-.42-.27-.42-.69a5.82,5.82,0,0,1,.24-1.38Zm-11.07,19.89c-.48,0-.75-.42-.75-1.17,0-3.78,1.38-8.46,2.85-9.6a2.84,2.84,0,0,1,1.77-.45,6.3,6.3,0,0,1,3.18.69l-.36,1.77C557.11,302.48,552.88,305.84,551.53,305.84Zm18.18-8.25h3.51l4,.12.57-1.35-.12-.21c-2.43.12-4.23.18-6.57.18H570l1.41-8.1c1,0,3.45-.12,4.11-.12,1.86,0,3.09.27,3.12.72l.24,2.67h.72a20.27,20.27,0,0,1,.63-4.56c-.63-.06-1.53-.09-2.07-.09-.09,0-.42,0-1.14,0l-3.6,0c-.27,0-5.49,0-5.79,0l-1.35,0-.09.84,1.62.06c.72,0,1,.27,1,.81a18.52,18.52,0,0,1-.27,2.28L565.93,306c-.12.54-.48.75-1.8,1l-.15.78,1.23,0c.93,0,2.79-.06,3.39-.06l6.75.09c.42,0,1.17,0,2.16-.06l1,0,.12-1.08c.06-.6.21-1.5.48-3l.15-.78h-.81l-.48,1.8c-.3,1.08-.57,1.44-1.23,1.59a34.72,34.72,0,0,1-4.41.27,40.28,40.28,0,0,1-4.11-.21Z" transform="translate(0.25 0.25)"/>
  <g>
    <path class="cls-14" d="M623.61,255.2a2.91,2.91,0,0,0,1.29.36c1,0,2.16-.87,3.09-2.28l2.28-3.51.33,2.07c.39,2.55,1.08,3.72,2.16,3.72a4.55,4.55,0,0,0,2.58-1.38l1.47-1.32-.27-.57a4.76,4.76,0,0,1-2.31,1.35c-.45,0-.84-.3-1.14-.9a11.77,11.77,0,0,1-.75-2.55l-.54-3,1.05-1.47c1.41-1.95,2.22-2.64,3.15-2.64a1,1,0,0,1,1,.69l.42-.12.45-2.55a1.76,1.76,0,0,0-.9-.3c-1.2,0-2.4,1.08-4.26,3.84l-1.11,1.65-.18-1.44c-.36-3-1.17-4-2.94-4a2.11,2.11,0,0,0-1.71.63L625,243.89l.51.3c.9-1,1.5-1.44,2.07-1.44,1,0,1.65,1.23,2.16,4.17l.33,1.86-1.2,1.86c-1.29,2-2.31,3-3.15,3-.45,0-.78-.12-.84-.27l-.33-.84-.6.09A14.81,14.81,0,0,1,623.61,255.2Z" transform="translate(0.25 0.25)"/>
    <polyline class="cls-13" points="623.59 235.81 631.07 230.82 638.56 235.81"/>
  </g>
  <path class="cls-14" d="M287.61,290.2a2.91,2.91,0,0,0,1.29.36c1,0,2.16-.87,3.09-2.28l2.28-3.51.33,2.07c.39,2.55,1.08,3.72,2.16,3.72a4.55,4.55,0,0,0,2.58-1.38l1.47-1.32-.27-.57a4.76,4.76,0,0,1-2.31,1.35c-.45,0-.84-.3-1.14-.9a11.77,11.77,0,0,1-.75-2.55l-.54-3,1.05-1.47c1.41-1.95,2.22-2.64,3.15-2.64a1,1,0,0,1,1,.69l.42-.12.45-2.55a1.76,1.76,0,0,0-.9-.3c-1.2,0-2.4,1.08-4.26,3.84l-1.11,1.65-.18-1.44c-.36-3-1.17-4.05-2.94-4.05a2.11,2.11,0,0,0-1.71.63L289,278.89l.51.3c.9-1,1.5-1.44,2.07-1.44,1,0,1.65,1.23,2.16,4.17l.33,1.86-1.2,1.86c-1.29,2-2.31,3-3.15,3-.45,0-.78-.12-.84-.27l-.33-.84-.6.09A14.81,14.81,0,0,1,287.61,290.2Z" transform="translate(0.25 0.25)"/>
  <text class="cls-17" transform="translate(134.98 182.52)">+</text>
  <text class="cls-17" transform="translate(77.78 259.36)">+</text>
  <text class="cls-17" transform="translate(172.78 292.36)">+</text>
  <text class="cls-17" transform="translate(125.78 337.36)">+</text>
  <path class="cls-14" d="M84.84,218.83a27.83,27.83,0,0,1,.48-3.33,1.35,1.35,0,0,0-.6-.18c-.93,0-1.86.72-2.94,2.25A37,37,0,0,0,79,222.1l1-4.56a5.5,5.5,0,0,0,.18-1.26c0-.6-.24-1-.69-1-.63,0-1.77.63-4,2.22l-.84.6.21.6,1-.63c.84-.54,1.17-.69,1.44-.69s.51.27.51.66a64,64,0,0,1-2.49,11.76l.3.21a16.3,16.3,0,0,1,1.62-.39l.39-.06.78-3.6a13.14,13.14,0,0,1,2.55-5.79c1-1.32,1.83-2,2.49-2a1.24,1.24,0,0,1,1.08.57Z" transform="translate(0.25 0.25)"/>
  <path class="cls-14" d="M188.83,327.65l-.36-.33a11.75,11.75,0,0,1-4.8,1.26l-.12.63H185c.72,0,1,.21,1,.72a5.37,5.37,0,0,1-.06.72l-.84,4.62a8.63,8.63,0,0,0-2.46-.42c-2.07,0-4.89,2.16-6.27,4.77a16.57,16.57,0,0,0-1.53,7.11c0,1.95.45,2.91,1.32,2.91a5.35,5.35,0,0,0,2.94-1.32,21.22,21.22,0,0,0,4.62-5.52l-.69,2.73a13,13,0,0,0-.48,3.06c0,.63.27,1,.78,1a4.53,4.53,0,0,0,2.25-1.11l2.43-1.8-.3-.57-1.32.93a2.51,2.51,0,0,1-1.17.51c-.24,0-.42-.27-.42-.69a5.82,5.82,0,0,1,.24-1.38Zm-11.07,19.89c-.48,0-.75-.42-.75-1.17,0-3.78,1.38-8.46,2.85-9.6a2.84,2.84,0,0,1,1.77-.45,6.3,6.3,0,0,1,3.18.69l-.36,1.77C183.34,344.18,179.11,347.54,177.76,347.54Zm22.59-9.18a27.83,27.83,0,0,1,.48-3.33,1.35,1.35,0,0,0-.6-.18c-.93,0-1.86.72-2.94,2.25a37,37,0,0,0-2.82,4.53l1-4.56a5.5,5.5,0,0,0,.18-1.26c0-.6-.24-1-.69-1-.63,0-1.77.63-4,2.22l-.84.6.21.6,1-.63c.84-.54,1.17-.69,1.44-.69s.51.27.51.66a64,64,0,0,1-2.49,11.76l.3.21a16.3,16.3,0,0,1,1.62-.39l.39-.06.78-3.6a13.14,13.14,0,0,1,2.55-5.79c1-1.32,1.83-1.95,2.49-1.95a1.24,1.24,0,0,1,1.08.57Z" transform="translate(0.25 0.25)"/>
</svg>
