<svg id="Livello_1" data-name="Livello 1" xmlns="http://www.w3.org/2000/svg" xmlns:xlink="http://www.w3.org/1999/xlink" width="662.5" height="536.5" viewBox="0 0 662.5 536.5">
  <defs>
    <style>
      .cls-1, .cls-2, .cls-4, .cls-5, .cls-6, .cls-7 {
        fill: none;
      }

      .cls-2, .cls-3 {
        stroke: #d3d3d3;
        stroke-width: 0.5px;
      }

      .cls-3 {
        fill: url(#_.4466353247942272);
      }

      .cls-4, .cls-7, .cls-8 {
        stroke: red;
      }

      .cls-4, .cls-7 {
        stroke-width: 4px;
      }

      .cls-10, .cls-5, .cls-6, .cls-9 {
        stroke: #000;
      }

      .cls-5 {
        stroke-dasharray: 6 6;
      }

      .cls-6 {
        stroke-width: 3px;
      }

      .cls-7 {
        stroke-dasharray: 4.5 4.36;
      }

      .cls-8 {
        fill: red;
        stroke-width: 0.4px;
      }

      .cls-10, .cls-8, .cls-9 {
        stroke-miterlimit: 10;
      }

      .cls-9 {
        stroke-width: 0.32px;
      }

      .cls-10 {
        stroke-width: 0.22px;
      }
    </style>
    <pattern id="_.4466353247942272" data-name=".4466353247942272" width="10" height="10" patternTransform="matrix(1, 0, 0, -1, -2.75, 845.14)" patternUnits="userSpaceOnUse" viewBox="0 0 10 10">
      <rect class="cls-1" width="10" height="10"/>
      <path class="cls-2" d="M10,10H0V0"/>
    </pattern>
  </defs>
  <rect class="cls-3" x="0.25" y="0.25" width="662" height="536"/>
  <g>
    <path class="cls-4" d="M228.93,422a22.13,22.13,0,1,1,22.12,22.43A22.27,22.27,0,0,1,228.93,422Z" transform="translate(0.25 0.25)"/>
    <path class="cls-4" d="M491.9,295.69A22.13,22.13,0,1,1,514,318.12,22.28,22.28,0,0,1,491.9,295.69Z" transform="translate(0.25 0.25)"/>
    <path class="cls-5" d="M252.58,422,515.31,295.77" transform="translate(0.25 0.25)"/>
    <g>
      <path class="cls-6" d="M273.75,212.76c111.39-58.37,130.18,141.36,241.57,83" transform="translate(0.25 0.25)"/>
      <path d="M380.78,249.46l14.73,5.86-4.64-15.16Z" transform="translate(0.25 0.25)"/>
    </g>
    <g>
      <path class="cls-6" d="M154.43,44.48c-93.87,36-61.5,251.93,119.32,168.28" transform="translate(0.25 0.25)"/>
      <path d="M106.9,182.74l13.33,8.58-1.64-15.76Z" transform="translate(0.25 0.25)"/>
    </g>
    <path class="cls-7" d="M81.9,148.69A22.13,22.13,0,1,1,104,171.12,22.28,22.28,0,0,1,81.9,148.69Z" transform="translate(0.25 0.25)"/>
  </g>
  <path class="cls-8" d="M266,426.12v-2.95H254v-11.9H251v11.9H239v2.95h12v12.05H254V426.12Z" transform="translate(0.25 0.25)"/>
  <g>
    <path class="cls-9" d="M237.49,455.63a10.73,10.73,0,0,0-4-1c-3,0-6.52,3.52-7.24,4.32-1.6,1.88-3.16,7.72-3.16,11.84,0,2.36.48,3.56,1.44,3.56a5,5,0,0,0,2.92-1.2,24.31,24.31,0,0,0,7-7.6l-3,16.56a4.86,4.86,0,0,1-1.08,2.28l.36.56a28.78,28.78,0,0,1,3.44-.68,62.88,62.88,0,0,1,.76-6.36l3.44-18.24a33.08,33.08,0,0,1,1.08-4.72l-.56-.24Zm-10.68,16c-.56,0-.88-.84-.88-2.16,0-3.84,1.72-9.84,3.4-11.84a3.93,3.93,0,0,1,2.92-1,8.9,8.9,0,0,1,3.88,1.08l-.84,3.8C234.13,467,228.49,471.59,226.81,471.59Z" transform="translate(0.25 0.25)"/>
    <path class="cls-10" d="M253.47,481.08v-.84l-1.46-.08c-1.54-.08-1.82-.39-1.82-1.85V461.4l-6.74,2.86.19,1.4,4.2-1.85v14.5c0,1.46-.31,1.77-1.82,1.85l-1.57.08v.84l4.62-.08C249.94,481,253,481.08,253.47,481.08Z" transform="translate(0.25 0.25)"/>
  </g>
  <g>
    <path class="cls-9" d="M534.1,326.21a10.73,10.73,0,0,0-4-1c-3,0-6.52,3.52-7.24,4.32-1.6,1.88-3.16,7.72-3.16,11.84,0,2.36.48,3.56,1.44,3.56a5,5,0,0,0,2.92-1.2,24.31,24.31,0,0,0,7-7.6l-3,16.56A4.86,4.86,0,0,1,526.9,355l.36.56a28.78,28.78,0,0,1,3.44-.68,62.88,62.88,0,0,1,.76-6.36l3.44-18.24a33.08,33.08,0,0,1,1.08-4.72l-.56-.24Zm-10.68,16c-.56,0-.88-.84-.88-2.16,0-3.84,1.72-9.84,3.4-11.84a3.93,3.93,0,0,1,2.92-1,8.9,8.9,0,0,1,3.88,1.08l-.84,3.8C530.74,337.57,525.1,342.17,523.42,342.17Z" transform="translate(0.25 0.25)"/>
    <path class="cls-10" d="M538.82,350.93v.73c5.24,0,5.24-.08,6.25-.08s1,.08,6.41.08v-2.38c-3.22.14-4.51,0-9.69.14l5.1-5.4c2.71-2.89,3.55-4.43,3.55-6.53,0-3.22-2.18-5.2-5.74-5.2a6,6,0,0,0-4.76,2l-.47,3.8h.81l.36-1.28c.45-1.63,1.46-2.33,3.33-2.33a3.66,3.66,0,0,1,3.95,3.89c0,2.1-1.17,4.18-4.34,7.54Z" transform="translate(0.25 0.25)"/>
  </g>
  <path class="cls-9" d="M397.94,380.49a37.1,37.1,0,0,1,.64-4.44,1.8,1.8,0,0,0-.8-.24c-1.24,0-2.48,1-3.92,3a49.32,49.32,0,0,0-3.76,6l1.28-6.08a7.33,7.33,0,0,0,.24-1.68c0-.8-.32-1.28-.92-1.28-.84,0-2.36.84-5.32,3l-1.12.8.28.8,1.28-.84c1.12-.72,1.56-.92,1.92-.92s.68.36.68.88c0,2.32-1.72,10.56-3.32,15.68l.4.28a21.74,21.74,0,0,1,2.16-.52l.52-.08,1-4.8a17.52,17.52,0,0,1,3.4-7.72c1.36-1.76,2.44-2.6,3.32-2.6a1.65,1.65,0,0,1,1.44.76Z" transform="translate(0.25 0.25)"/>
  <path class="cls-9" d="M197,40.91c0-3.84-2-7.08-6.24-7.08-3.48,0-6.84,3.32-9,5.84-1.76-2.88-5.16-5.92-8.72-5.92-4.64,0-7.6,4.44-7.6,8.76,0,3.84,2.16,7.11,6.32,7.11,3.32,0,7-3.43,8.92-6,2,2.92,5,6,8.76,6C194.11,49.66,197,45.11,197,40.91Zm-2.4,1.92c0,2.8-1.4,5.11-4.4,5.11-3.16,0-6-4.71-7.68-7,1.28-1.92,4.64-5,7-5C192.87,35.91,194.59,40,194.59,42.83ZM180,42.47c-1.24,1.88-4.68,4.91-7,4.91-3.36,0-5-4.07-5-7s1.44-5.12,4.48-5.12C175.27,35.31,178.75,40.11,180,42.47Z" transform="translate(0.25 0.25)"/>
  <path class="cls-8" d="M528.17,297.25V294.3h-12V282.4h-2.95v11.9h-12v2.95h12V309.3h2.95V297.25Z" transform="translate(0.25 0.25)"/>
  <path class="cls-8" d="M117.17,149.25V146.3h-12V134.4h-3v11.9h-12v2.95h12V161.3h3V149.25Z" transform="translate(0.25 0.25)"/>
</svg>
