<svg id="Livello_1" data-name="Livello 1" xmlns="http://www.w3.org/2000/svg" xmlns:xlink="http://www.w3.org/1999/xlink" width="662.5" height="536.5" viewBox="0 0 662.5 536.5">
  <defs>
    <style>
      .cls-1, .cls-2, .cls-4, .cls-5, .cls-6, .cls-7, .cls-8 {
        fill: none;
      }

      .cls-2, .cls-3 {
        stroke: #d3d3d3;
        stroke-width: 0.5px;
      }

      .cls-3 {
        fill: url(#_.4466353247942272);
      }

      .cls-4, .cls-9 {
        stroke: red;
      }

      .cls-4, .cls-5, .cls-7, .cls-8 {
        stroke-width: 4px;
      }

      .cls-10, .cls-11, .cls-12, .cls-14, .cls-15, .cls-5, .cls-6, .cls-7 {
        stroke: #000;
      }

      .cls-6 {
        stroke-dasharray: 6 6;
      }

      .cls-7 {
        stroke-linecap: round;
        stroke-linejoin: round;
      }

      .cls-13, .cls-8 {
        stroke: #4a90e2;
      }

      .cls-9 {
        fill: red;
      }

      .cls-10, .cls-11, .cls-12, .cls-13, .cls-14, .cls-15, .cls-9 {
        stroke-miterlimit: 10;
      }

      .cls-12, .cls-13, .cls-9 {
        stroke-width: 0.4px;
      }

      .cls-10 {
        stroke-width: 0.32px;
      }

      .cls-11 {
        stroke-width: 0.22px;
      }

      .cls-13 {
        fill: #4a90e2;
      }

      .cls-14 {
        stroke-width: 0.24px;
      }

      .cls-15 {
        stroke-width: 0.17px;
      }
    </style>
    <pattern id="_.4466353247942272" data-name=".4466353247942272" width="10" height="10" patternTransform="matrix(1, 0, 0, -1, -2.75, 845.14)" patternUnits="userSpaceOnUse" viewBox="0 0 10 10">
      <rect class="cls-1" width="10" height="10"/>
      <path class="cls-2" d="M10,10H0V0"/>
    </pattern>
  </defs>
  <rect class="cls-3" x="0.25" y="0.25" width="662" height="536"/>
  <g>
    <path class="cls-4" d="M282,215.51a19.16,19.16,0,1,1,19.16,19.42A19.3,19.3,0,0,1,282,215.51Z" transform="translate(0.25 0.25)"/>
    <path class="cls-5" d="M508.41,106.12a19.16,19.16,0,1,1,19.16,19.42A19.3,19.3,0,0,1,508.41,106.12Z" transform="translate(0.25 0.25)"/>
    <path class="cls-6" d="M301.17,215.51l227.5-109.32" transform="translate(0.25 0.25)"/>
    <path class="cls-7" d="M344.83,83c-.57-.57-6.5-2.58-6.93-2.6-29.4-1-70.5-.42-99.58,4.33C187.88,93,160,108,128.35,145.35c-10.09,11.92-21.56,22.85-24.25,39-5.82,34.9,3.59,47.52,8.66,77.93,2.15,12.89,3.18,34.89,2.6,47.63-.73,15.93-18.69,42.72-25.11,56.28C77,394.08,98.72,441.76,124,456.22c23.11,13.21,45.67,16.56,71.87,13,9.61-1.31,19.83-2,28.58-6.93,27.07-15.11,51.89-33.22,82.26-41.57,29.84-8.2,68.59-17.72,99.58-15.58,42.67,2.94,105.21,30.56,140.28-9.53,5.46-6.24,15-15.48,18.19-23.38,21.7-53.27,3.78-119.82-30.31-163.66C530.05,202.88,512,190.4,512,190.38c-17.15-16.72-27.36-39.49-44.16-56.29C436,102.34,388.37,83.87,346.56,83.87" transform="translate(0.25 0.25)"/>
    <path class="cls-4" d="M146.06,325.48a19.16,19.16,0,1,1,19.16,19.42A19.3,19.3,0,0,1,146.06,325.48Z" transform="translate(0.25 0.25)"/>
    <path class="cls-4" d="M469.47,316.46a19.16,19.16,0,1,1,19.16,19.42A19.29,19.29,0,0,1,469.47,316.46Z" transform="translate(0.25 0.25)"/>
    <path class="cls-8" d="M258.63,361.85a19.16,19.16,0,1,1,19.16,19.42A19.3,19.3,0,0,1,258.63,361.85Z" transform="translate(0.25 0.25)"/>
    <path class="cls-8" d="M375.81,278.3A19.16,19.16,0,1,1,395,297.73,19.3,19.3,0,0,1,375.81,278.3Z" transform="translate(0.25 0.25)"/>
    <path class="cls-8" d="M179.83,212A19.16,19.16,0,1,1,199,231.47,19.29,19.29,0,0,1,179.83,212Z" transform="translate(0.25 0.25)"/>
    <path class="cls-8" d="M301.93,135a19.16,19.16,0,1,1,19.16,19.43A19.3,19.3,0,0,1,301.93,135Z" transform="translate(0.25 0.25)"/>
    <path class="cls-6" d="M301.17,215.51,395,278.3" transform="translate(0.25 0.25)"/>
  </g>
  <path class="cls-9" d="M314.59,219.26v-2.95h-12v-11.9h-2.95v11.9h-12v2.95h12v12.05h2.95V219.26Z" transform="translate(0.25 0.25)"/>
  <g>
    <path class="cls-10" d="M143.13,354a10.73,10.73,0,0,0-4-1c-3,0-6.52,3.52-7.24,4.32-1.6,1.88-3.16,7.72-3.16,11.83,0,2.36.48,3.56,1.44,3.56a5,5,0,0,0,2.92-1.2,24.37,24.37,0,0,0,7-7.59l-3,16.55a4.86,4.86,0,0,1-1.08,2.28l.36.56a28.78,28.78,0,0,1,3.44-.68,62.88,62.88,0,0,1,.76-6.36L143.93,358a33.08,33.08,0,0,1,1.08-4.72l-.56-.24ZM132.45,369.9c-.56,0-.88-.84-.88-2.16,0-3.83,1.72-9.83,3.4-11.83a3.93,3.93,0,0,1,2.92-1,8.9,8.9,0,0,1,3.88,1.08l-.84,3.8C139.77,365.31,134.13,369.9,132.45,369.9Z" transform="translate(0.25 0.25)"/>
    <path class="cls-11" d="M159.11,379.4v-.84l-1.46-.09c-1.54-.08-1.82-.39-1.82-1.85V359.71l-6.74,2.86.19,1.4,4.2-1.85v14.5c0,1.46-.31,1.77-1.82,1.85l-1.57.09v.84l4.62-.09C155.58,379.31,158.66,379.4,159.11,379.4Z" transform="translate(0.25 0.25)"/>
  </g>
  <g>
    <path class="cls-10" d="M544.6,131.9a10.73,10.73,0,0,0-4-1c-3,0-6.52,3.52-7.24,4.32-1.6,1.88-3.16,7.72-3.16,11.84,0,2.36.48,3.56,1.44,3.56a5,5,0,0,0,2.92-1.2,24.31,24.31,0,0,0,7-7.6l-3,16.56a4.86,4.86,0,0,1-1.08,2.28l.36.56a28.78,28.78,0,0,1,3.44-.68,62.88,62.88,0,0,1,.76-6.36L545.4,136a33.08,33.08,0,0,1,1.08-4.72l-.56-.24Zm-10.68,16c-.56,0-.88-.84-.88-2.16,0-3.84,1.72-9.84,3.4-11.84a3.93,3.93,0,0,1,2.92-1,8.9,8.9,0,0,1,3.88,1.08l-.84,3.8C541.24,143.26,535.6,147.86,533.92,147.86Z" transform="translate(0.25 0.25)"/>
    <path class="cls-11" d="M556.24,138c-4.34,0-6.55,3.45-6.55,10.22,0,3.28.58,6.11,1.56,7.48a5.21,5.21,0,0,0,4.29,2.16c4.23,0,6.35-3.64,6.35-10.81C561.89,140.89,560.07,138,556.24,138Zm-.51,1c2.72,0,3.81,2.75,3.81,9.47,0,6-1.06,8.43-3.64,8.43S552,154,552,147.19C552,141.28,553.07,139,555.73,139Z" transform="translate(0.25 0.25)"/>
  </g>
  <g>
    <path class="cls-10" d="M400.2,138.4a37.1,37.1,0,0,1,.64-4.44,1.8,1.8,0,0,0-.8-.24c-1.24,0-2.48,1-3.92,3a49.32,49.32,0,0,0-3.76,6l1.28-6.08a7.33,7.33,0,0,0,.24-1.68c0-.8-.32-1.28-.92-1.28-.84,0-2.36.84-5.32,3l-1.12.8.28.8,1.28-.84c1.12-.72,1.56-.92,1.92-.92s.68.36.68.88c0,2.32-1.72,10.56-3.32,15.68l.4.28a21.74,21.74,0,0,1,2.16-.52l.52-.08,1-4.8a17.52,17.52,0,0,1,3.4-7.72c1.36-1.76,2.44-2.6,3.32-2.6a1.65,1.65,0,0,1,1.44.76Z" transform="translate(0.25 0.25)"/>
    <path class="cls-11" d="M403.16,149.18l.19.56.9-.59c1-.64,1.12-.7,1.31-.7a.59.59,0,0,1,.51.65,6.33,6.33,0,0,1-.23,1.23L404,157.05a9.25,9.25,0,0,0-.37,2.16c0,.67.31,1.09.84,1.09.73,0,1.74-.59,4.48-2.63l-.28-.51-.73.48a4.88,4.88,0,0,1-1.7.84c-.2,0-.37-.28-.37-.56a5,5,0,0,1,.2-1.12l2.15-8.51a4.48,4.48,0,0,0,.17-1,.64.64,0,0,0-.7-.73c-.61,0-1.65.59-3.75,2.07Zm5.43-9.07A1.89,1.89,0,0,0,407,142a1,1,0,0,0,1.1,1.14,1.7,1.7,0,0,0,1.53-1.87A1,1,0,0,0,408.59,140.11Z" transform="translate(0.25 0.25)"/>
  </g>
  <path class="cls-12" d="M541.64,108.53v-3h-12V93.68h-2.95v11.9h-12v3h12v12h2.95v-12Z" transform="translate(0.25 0.25)"/>
  <path class="cls-9" d="M504.64,318.48v-3h-12v-11.9h-2.95v11.9h-12v3h12v12h2.95v-12Z" transform="translate(0.25 0.25)"/>
  <path class="cls-9" d="M180.37,328.37v-2.95h-12v-11.9h-3v11.9h-12v2.95h12v12.05h3V328.37Z" transform="translate(0.25 0.25)"/>
  <path class="cls-13" d="M291.55,365.51v-2.8h-25.2v2.8Z" transform="translate(0.25 0.25)"/>
  <path class="cls-13" d="M408.73,282v-2.8h-25.2V282Z" transform="translate(0.25 0.25)"/>
  <path class="cls-13" d="M212.75,215.69v-2.8h-25.2v2.8Z" transform="translate(0.25 0.25)"/>
  <path class="cls-13" d="M334.84,138.63v-2.8h-25.2v2.8Z" transform="translate(0.25 0.25)"/>
  <g>
    <path class="cls-10" d="M242.73,388.57a10.73,10.73,0,0,0-4-1c-3,0-6.52,3.52-7.24,4.32-1.6,1.88-3.16,7.72-3.16,11.84,0,2.36.48,3.56,1.44,3.56a5,5,0,0,0,2.92-1.2,24.31,24.31,0,0,0,7-7.6l-3,16.56a4.86,4.86,0,0,1-1.08,2.28l.36.56a28.78,28.78,0,0,1,3.44-.68,62.88,62.88,0,0,1,.76-6.36l3.44-18.24a33.08,33.08,0,0,1,1.08-4.72l-.56-.24Zm-10.68,16c-.56,0-.88-.84-.88-2.16,0-3.84,1.72-9.84,3.4-11.84a3.93,3.93,0,0,1,2.92-1,8.9,8.9,0,0,1,3.88,1.08l-.84,3.8C239.37,399.93,233.73,404.53,232.05,404.53Z" transform="translate(0.25 0.25)"/>
    <path class="cls-11" d="M247.45,413.29V414c5.23,0,5.23-.08,6.24-.08s1,.08,6.41.08v-2.38c-3.22.14-4.5,0-9.68.14l5.09-5.4c2.72-2.89,3.56-4.43,3.56-6.53,0-3.22-2.19-5.2-5.74-5.2a6,6,0,0,0-4.76,2l-.48,3.8h.81l.37-1.28c.45-1.63,1.45-2.33,3.33-2.33a3.66,3.66,0,0,1,4,3.89c0,2.1-1.18,4.18-4.34,7.54Z" transform="translate(0.25 0.25)"/>
  </g>
  <g>
    <path class="cls-10" d="M516.77,337.12a10.73,10.73,0,0,0-4-1c-3,0-6.52,3.52-7.24,4.32-1.6,1.88-3.16,7.72-3.16,11.84,0,2.36.48,3.56,1.44,3.56a5,5,0,0,0,2.92-1.2,24.31,24.31,0,0,0,7-7.6l-3,16.56a4.86,4.86,0,0,1-1.08,2.28l.36.56a28.78,28.78,0,0,1,3.44-.68,62.88,62.88,0,0,1,.76-6.36l3.44-18.24a33.08,33.08,0,0,1,1.08-4.72l-.56-.24Zm-10.68,16c-.56,0-.88-.84-.88-2.16,0-3.84,1.72-9.84,3.4-11.84a3.93,3.93,0,0,1,2.92-1,8.9,8.9,0,0,1,3.88,1.08l-.84,3.8C513.41,348.48,507.77,353.08,506.09,353.08Z" transform="translate(0.25 0.25)"/>
    <path class="cls-11" d="M534,356.21c0-3.39-3-4-4.31-4.2,2.24-1.73,3.08-3,3.08-4.67,0-2.5-2.07-4.15-5.18-4.15a5.73,5.73,0,0,0-4.51,1.88l-.81,3.47h.87l.5-1.57c.31-1,2.07-1.9,3.53-1.9a3.29,3.29,0,0,1,3.3,3.25,3.79,3.79,0,0,1-3.64,3.86c-.22,0-.53,0-.89-.06l-.42,0-.34,1.48.2.17a5.07,5.07,0,0,1,2.35-.62c2.32,0,3.67,1.49,3.67,4,0,2.86-1.71,4.74-4.31,4.74a4.71,4.71,0,0,1-3.28-1.21,5.92,5.92,0,0,1-1.57-2.77l-.75.28a18.25,18.25,0,0,1,1,4.12,11.86,11.86,0,0,0,3.75.72C529.64,363,534,360.05,534,356.21Z" transform="translate(0.25 0.25)"/>
  </g>
  <g>
    <path class="cls-10" d="M437.2,239.49a10.73,10.73,0,0,0-4-1c-3,0-6.52,3.52-7.24,4.32-1.6,1.88-3.16,7.72-3.16,11.84,0,2.36.48,3.56,1.44,3.56a5,5,0,0,0,2.92-1.2,24.31,24.31,0,0,0,7-7.6l-3,16.56a4.86,4.86,0,0,1-1.08,2.28l.36.56a28.78,28.78,0,0,1,3.44-.68,62.88,62.88,0,0,1,.76-6.36L438,243.57a33.08,33.08,0,0,1,1.08-4.72l-.56-.24Zm-10.68,16c-.56,0-.88-.84-.88-2.16,0-3.84,1.72-9.84,3.4-11.84a3.93,3.93,0,0,1,2.92-1,8.9,8.9,0,0,1,3.88,1.08l-.84,3.8C433.84,250.85,428.2,255.45,426.52,255.45Z" transform="translate(0.25 0.25)"/>
    <path class="cls-11" d="M446.9,255l-2.8,13.86c-.31,1.46-.81,2.44-1.32,2.44a3,3,0,0,1-1.48-.54l-.22,1.6a2.39,2.39,0,0,0,1.06.2c1.12,0,2.24-1.21,3.25-3.48a32.1,32.1,0,0,0,1.73-6.21l2.13-9.8a6.3,6.3,0,0,0,.17-1,.64.64,0,0,0-.7-.7c-.62,0-1.65.59-3.75,2.08l-.79.56.2.56.9-.59c1-.65,1.12-.7,1.31-.7a.58.58,0,0,1,.51.64C447.1,254.16,446.9,254.89,446.9,255Zm2.55-10.11a1.9,1.9,0,0,0-1.63,1.88,1,1,0,0,0,1.1,1.15,1.71,1.71,0,0,0,1.54-1.88A1,1,0,0,0,449.45,244.92Z" transform="translate(0.25 0.25)"/>
  </g>
  <g>
    <path class="cls-10" d="M276.9,244a10.73,10.73,0,0,0-4-1c-3,0-6.52,3.52-7.24,4.32-1.6,1.88-3.16,7.72-3.16,11.84,0,2.36.48,3.56,1.44,3.56a5,5,0,0,0,2.92-1.2,24.31,24.31,0,0,0,7-7.6l-3,16.56a4.86,4.86,0,0,1-1.08,2.28l.36.56a28.78,28.78,0,0,1,3.44-.68,62.88,62.88,0,0,1,.76-6.36L277.7,248a33.08,33.08,0,0,1,1.08-4.72l-.56-.24Zm-10.68,16c-.56,0-.88-.84-.88-2.16,0-3.84,1.72-9.84,3.4-11.84a3.93,3.93,0,0,1,2.92-1,8.9,8.9,0,0,1,3.88,1.08l-.84,3.8C273.54,255.32,267.9,259.92,266.22,259.92Z" transform="translate(0.25 0.25)"/>
    <path class="cls-11" d="M282.12,258.46l.2.56.9-.58c1-.65,1.12-.7,1.31-.7a.58.58,0,0,1,.51.64,7,7,0,0,1-.23,1.23L283,266.33a9.79,9.79,0,0,0-.36,2.16c0,.67.31,1.09.84,1.09.73,0,1.74-.59,4.48-2.63l-.28-.51-.73.48a4.81,4.81,0,0,1-1.71.84c-.19,0-.36-.28-.36-.56a5,5,0,0,1,.2-1.12l2.15-8.51a5.15,5.15,0,0,0,.17-1,.64.64,0,0,0-.7-.73c-.62,0-1.65.59-3.75,2.07Zm5.44-9.07a1.89,1.89,0,0,0-1.63,1.88,1,1,0,0,0,1.09,1.15,1.71,1.71,0,0,0,1.54-1.88A1,1,0,0,0,287.56,249.39Z" transform="translate(0.25 0.25)"/>
  </g>
  <g>
    <path class="cls-10" d="M195.1,242.24a10.73,10.73,0,0,0-4-1c-3,0-6.52,3.52-7.24,4.32-1.6,1.88-3.16,7.72-3.16,11.84,0,2.36.48,3.56,1.44,3.56a5,5,0,0,0,2.92-1.2,24.31,24.31,0,0,0,7-7.6l-3,16.56A4.86,4.86,0,0,1,187.9,271l.36.56a28.78,28.78,0,0,1,3.44-.68,62.88,62.88,0,0,1,.76-6.36l3.44-18.24A33.08,33.08,0,0,1,197,241.6l-.56-.24Zm-10.68,16c-.56,0-.88-.84-.88-2.16,0-3.84,1.72-9.84,3.4-11.84a3.93,3.93,0,0,1,2.92-1,8.9,8.9,0,0,1,3.88,1.08l-.84,3.8C191.74,253.6,186.1,258.2,184.42,258.2Z" transform="translate(0.25 0.25)"/>
    <path class="cls-11" d="M207.21,262.54v2.1c0,1.68-.3,2.07-1.68,2.13l-1.73.08v.84c3.72-.08,3.72-.08,4.39-.08s.68,0,4.4.08v-.84l-1.34-.08c-1.38-.09-1.68-.45-1.68-2.13v-2.1a26,26,0,0,1,3,.11v-2l-3,.09,0-12.66-2.24.84-7.92,13v.64Zm0-1.79h-6l6-9.86Z" transform="translate(0.25 0.25)"/>
  </g>
  <g>
    <path class="cls-10" d="M272.9,121.87a10.73,10.73,0,0,0-4-1c-3,0-6.52,3.52-7.24,4.32-1.6,1.88-3.16,7.72-3.16,11.84,0,2.36.48,3.56,1.44,3.56a5,5,0,0,0,2.92-1.2,24.31,24.31,0,0,0,7-7.6l-3,16.56a4.86,4.86,0,0,1-1.08,2.28l.36.56a28.78,28.78,0,0,1,3.44-.68,62.88,62.88,0,0,1,.76-6.36L273.7,126a33.08,33.08,0,0,1,1.08-4.72l-.56-.24Zm-10.68,16c-.56,0-.88-.84-.88-2.16,0-3.84,1.72-9.84,3.4-11.84a3.93,3.93,0,0,1,2.92-1,8.9,8.9,0,0,1,3.88,1.08l-.84,3.8C269.54,133.23,263.9,137.83,262.22,137.83Z" transform="translate(0.25 0.25)"/>
    <path class="cls-11" d="M277.84,136.37l.2.56.9-.59c1-.64,1.12-.7,1.31-.7s.51.28.51.7a67.13,67.13,0,0,1-2.3,10.84l.2.31a19.83,19.83,0,0,1,2-.48c.53-3.53,1.12-5.35,2.4-7.28,1.52-2.35,3.62-4.09,4.88-4.09.3,0,.47.25.47.67a7.86,7.86,0,0,1-.31,2l-1.45,5.94a10.14,10.14,0,0,0-.37,2.13c0,.7.31,1.12.84,1.12.73,0,1.74-.59,4.48-2.64l-.28-.5-.72.48a4.74,4.74,0,0,1-1.71.84c-.2,0-.37-.26-.37-.56a3.2,3.2,0,0,1,.06-.56l1.85-7.73a10.46,10.46,0,0,0,.31-2.07c0-.65-.31-1-.87-1-1.18,0-3.11,1.06-4.76,2.6a22.76,22.76,0,0,0-3.31,4l1.07-4.51a5.48,5.48,0,0,0,.17-1.15c0-.59-.23-.92-.65-.92-.59,0-1.68.61-3.72,2.07Z" transform="translate(0.25 0.25)"/>
  </g>
  <g>
    <path class="cls-14" d="M82.52,68.81l.09-.84h-.48l-2.73.09c-.45,0-1.08,0-2.4,0L75.11,68l-.09.84,1.44.06c.72,0,1.05.27,1.05.84a1.34,1.34,0,0,1,0,.36L75.35,83.42a10.59,10.59,0,0,1-3.87,3.27,7.13,7.13,0,0,1-3.39.87c-2.55,0-4.17-1.35-4.17-3.45a10,10,0,0,1,.21-1.83L66.77,68l-.93,0c-.81,0-1.41.06-1.74.06s-.9,0-1.74-.06l-1,0-.09.84,1.56.06c.78,0,1,.18,1,.69a13.15,13.15,0,0,1-.21,1.74L61.76,82.55a11.06,11.06,0,0,0-.18,1.86c0,3,2,4.89,5.37,4.89a8.57,8.57,0,0,0,4-1,11.82,11.82,0,0,0,4.29-3.42c-.24,1.38-.42,2.16-.81,3.81l.15.15h.66l1.86-.09,1.74.06,1,0,.15-.84-1.8-.12c-.69-.06-1-.24-1-.63a10.68,10.68,0,0,1,.18-1.68l2.55-15.21c.18-1.14.39-1.32,1.53-1.44Z" transform="translate(0.25 0.25)"/>
    <path class="cls-15" d="M89.76,91.68l-.5.36a5.43,5.43,0,0,1-2.88,1.22c-1,0-1.59-.78-1.59-2a10.66,10.66,0,0,1,.16-1.7c.36-.08,2.65-.71,3.17-.94,1.79-.78,2.61-1.75,2.61-3A1.62,1.62,0,0,0,89,83.89c-1.42-.29-3.73,1.24-4.51,2.8a12.6,12.6,0,0,0-1.26,5,2.32,2.32,0,0,0,2.44,2.61c1.19,0,2.37-.59,4.3-2.17Zm-4.51-3.42a5.51,5.51,0,0,1,1.38-2.9,2.61,2.61,0,0,1,1.54-.58,1,1,0,0,1,1,1.09,3,3,0,0,1-1.82,2.43,9.94,9.94,0,0,1-2.29.74Z" transform="translate(0.25 0.25)"/>
    <path class="cls-15" d="M96.78,88.43c0-5.46,2-7.69,3.26-9.11l-.4-.55A12.06,12.06,0,0,0,95,88.43a12.94,12.94,0,0,0,4.66,10.1l.4-.44C99.07,96.89,96.78,94.33,96.78,88.43Z" transform="translate(0.25 0.25)"/>
    <path class="cls-15" d="M104,90.91a19.5,19.5,0,0,1-.47,2.77,5.17,5.17,0,0,0,2.25.57A4.87,4.87,0,0,0,108.88,93a3.21,3.21,0,0,0,1.51-2.67c0-1.13-.67-1.74-2.23-2l-.9-.16c-1.26-.23-1.66-.59-1.66-1.45a2,2,0,0,1,2.14-2,2.34,2.34,0,0,1,2,1v1.15h.48a20.84,20.84,0,0,1,.4-2.37,4.52,4.52,0,0,0-2.1-.57,5.14,5.14,0,0,0-3.38,1.64,2.42,2.42,0,0,0-.78,1.85c0,1.18.65,1.85,2,2.12l1.32.25c.93.17,1.26.55,1.26,1.37a2.24,2.24,0,0,1-2.46,2.29,2.9,2.9,0,0,1-2-.74V90.91Z" transform="translate(0.25 0.25)"/>
    <path class="cls-15" d="M114.93,85.87l.15.42.67-.44c.78-.49.84-.53,1-.53a.44.44,0,0,1,.38.48,5.68,5.68,0,0,1-.17.93l-1.39,5a7,7,0,0,0-.27,1.62c0,.5.23.81.63.81s1.3-.44,3.36-2l-.21-.38-.55.36a3.62,3.62,0,0,1-1.28.63c-.14,0-.27-.21-.27-.42a3.42,3.42,0,0,1,.15-.84l1.61-6.38a3.37,3.37,0,0,0,.13-.76.49.49,0,0,0-.53-.55c-.46,0-1.23.44-2.81,1.56ZM119,79.06a1.42,1.42,0,0,0-1.22,1.41.78.78,0,0,0,.82.86,1.28,1.28,0,0,0,1.15-1.41A.78.78,0,0,0,119,79.06Z" transform="translate(0.25 0.25)"/>
    <path class="cls-15" d="M123.39,90.91a19.5,19.5,0,0,1-.47,2.77,5.17,5.17,0,0,0,2.25.57A4.87,4.87,0,0,0,128.24,93a3.21,3.21,0,0,0,1.51-2.67c0-1.13-.67-1.74-2.23-2l-.9-.16c-1.26-.23-1.66-.59-1.66-1.45a2,2,0,0,1,2.14-2,2.34,2.34,0,0,1,2,1v1.15h.48a20.84,20.84,0,0,1,.4-2.37,4.52,4.52,0,0,0-2.1-.57,5.14,5.14,0,0,0-3.38,1.64,2.42,2.42,0,0,0-.78,1.85c0,1.18.65,1.85,2,2.12l1.32.25c.93.17,1.26.55,1.26,1.37a2.24,2.24,0,0,1-2.46,2.29,2.9,2.9,0,0,1-2-.74V90.91Z" transform="translate(0.25 0.25)"/>
    <path class="cls-15" d="M136.2,85.83,135,91.77a8.37,8.37,0,0,0-.28,1.59c0,.53.24.84.63.84.74,0,1.47-.42,3.11-1.74l.65-.52-.21-.38-.94.65a3,3,0,0,1-1.26.63c-.19,0-.3-.17-.3-.42a46.84,46.84,0,0,1,.91-5.29l.27-1.3h2.25l.23-1a22.34,22.34,0,0,1-2.31.12,26.47,26.47,0,0,1,.94-4.14l-.23-.31a11.78,11.78,0,0,1-1.64.76l-.52,3.57a11.9,11.9,0,0,1-1.85.77l0,.28Z" transform="translate(0.25 0.25)"/>
    <path class="cls-15" d="M150.12,91.68l-.5.36a5.43,5.43,0,0,1-2.88,1.22c-1,0-1.59-.78-1.59-2a10.66,10.66,0,0,1,.16-1.7c.36-.08,2.65-.71,3.17-.94,1.79-.78,2.61-1.75,2.61-3a1.62,1.62,0,0,0-1.77-1.64c-1.42-.29-3.73,1.24-4.51,2.8a12.6,12.6,0,0,0-1.26,5A2.32,2.32,0,0,0,146,94.25c1.19,0,2.37-.59,4.3-2.17Zm-4.51-3.42a5.51,5.51,0,0,1,1.38-2.9,2.61,2.61,0,0,1,1.54-.58,1,1,0,0,1,1,1.09,3,3,0,0,1-1.82,2.43,9.94,9.94,0,0,1-2.29.74Z" transform="translate(0.25 0.25)"/>
    <path class="cls-15" d="M169.41,91.85l-.55.36a3.47,3.47,0,0,1-1.28.63c-.15,0-.27-.19-.27-.42a3.42,3.42,0,0,1,.15-.84L169,85.34a5.17,5.17,0,0,0,.15-.86.53.53,0,0,0-.55-.59,5.4,5.4,0,0,0-2.69,1.28,11.63,11.63,0,0,0-3.08,3.13l.63-2.87a6.91,6.91,0,0,0,.14-.89c0-.39-.21-.65-.54-.65a5.45,5.45,0,0,0-2.75,1.35,11.79,11.79,0,0,0-2.71,3l.69-2.79a4.14,4.14,0,0,0,.13-.91c0-.39-.19-.65-.49-.65s-1.24.44-2.79,1.56l-.59.42.15.42a10.62,10.62,0,0,1,1.66-1c.23,0,.38.21.38.53A49.5,49.5,0,0,1,155,94l.07.23,1.43-.31.46-2.14a9.19,9.19,0,0,1,2.22-4.83,4.31,4.31,0,0,1,2.42-1.6c.15,0,.23.17.23.44a50.26,50.26,0,0,1-1.32,6.81l-.34,1.4.11.23,1.44-.31.45-2.25a9.27,9.27,0,0,1,2-4.3c1.15-1.28,2.2-2,2.88-2,.16,0,.27.19.27.53a10.29,10.29,0,0,1-.53,2.62c-.84,3.34-1.17,3.78-1.17,4.89,0,.53.23.84.63.84s1.3-.44,3.36-2Z" transform="translate(0.25 0.25)"/>
    <path class="cls-15" d="M178.77,89.73l-.61,2.67a5,5,0,0,0-.13,1.07c0,.46.19.73.51.73.48,0,1.34-.54,3.06-2l-.14-.44c-.51.42-1.12,1-1.58,1-.19,0-.31-.19-.31-.49a.79.79,0,0,1,0-.23l1.93-8-.21-.19-.69.38a4.64,4.64,0,0,0-1.79-.4,3.28,3.28,0,0,0-1.57.38,5,5,0,0,0-2.52,2.31,15.51,15.51,0,0,0-1.58,6c0,.92.32,1.64.72,1.64C174.65,94.25,176.33,93.15,178.77,89.73Zm1-4.41a11.43,11.43,0,0,1-1.58,4.47c-1.19,1.77-2.48,3-3.15,3-.25,0-.38-.28-.38-.84A16.58,16.58,0,0,1,176,86.46c.5-1.16,1-1.54,2-1.54A5.25,5.25,0,0,1,179.78,85.32Z" transform="translate(0.25 0.25)"/>
    <path class="cls-15" d="M186.15,78.77l-.4.55C186.91,80.66,189,83,189,88.43c0,5.8-2.19,8.34-3.26,9.66l.4.44a12.91,12.91,0,0,0,4.66-10.08A12.07,12.07,0,0,0,186.15,78.77Z" transform="translate(0.25 0.25)"/>
  </g>
  <g>
    <path class="cls-14" d="M563.41,66.22l.09-.84H563l-2.73.09c-.45,0-1.08,0-2.4,0L556,65.38l-.09.84,1.44.06c.72,0,1,.27,1,.84a1.34,1.34,0,0,1,0,.36l-2.13,13.35a10.59,10.59,0,0,1-3.87,3.27A7.13,7.13,0,0,1,549,85c-2.55,0-4.17-1.35-4.17-3.45a10,10,0,0,1,.21-1.83l2.64-14.31-.93,0c-.81,0-1.41.06-1.74.06s-.9,0-1.74-.06l-1,0-.09.84,1.56.06c.78,0,1,.18,1,.69a13.15,13.15,0,0,1-.21,1.74L542.65,80a11.06,11.06,0,0,0-.18,1.86c0,3,2,4.89,5.37,4.89a8.57,8.57,0,0,0,4-1,11.82,11.82,0,0,0,4.29-3.42c-.24,1.38-.42,2.16-.81,3.81l.15.15h.66l1.86-.09,1.74.06,1,0,.15-.84-1.8-.12c-.69-.06-1-.24-1-.63a10.68,10.68,0,0,1,.18-1.68l2.55-15.21c.18-1.14.39-1.32,1.53-1.44Z" transform="translate(0.25 0.25)"/>
    <path class="cls-15" d="M570.65,89.09l-.5.36a5.43,5.43,0,0,1-2.88,1.22c-1,0-1.59-.78-1.59-2a10.56,10.56,0,0,1,.16-1.7c.36-.09,2.65-.72,3.18-1,1.78-.77,2.6-1.74,2.6-3a1.61,1.61,0,0,0-1.76-1.64c-1.43-.29-3.74,1.24-4.52,2.79a12.61,12.61,0,0,0-1.26,5,2.32,2.32,0,0,0,2.44,2.6c1.19,0,2.37-.59,4.3-2.16Zm-4.51-3.42a5.66,5.66,0,0,1,1.38-2.9,2.56,2.56,0,0,1,1.54-.59,1,1,0,0,1,1,1.09,3,3,0,0,1-1.83,2.44,10.49,10.49,0,0,1-2.29.73Z" transform="translate(0.25 0.25)"/>
    <path class="cls-15" d="M577.68,85.84c0-5.46,2-7.69,3.25-9.12l-.4-.54a12.06,12.06,0,0,0-4.66,9.66,13.17,13.17,0,0,0,1.53,6.25,13,13,0,0,0,3.13,3.85l.4-.44C580,94.3,577.68,91.74,577.68,85.84Z" transform="translate(0.25 0.25)"/>
    <path class="cls-15" d="M592.35,81.8a5.73,5.73,0,0,0-2.12-.5c-1.58,0-3.42,1.85-3.8,2.27-.84,1-1.66,4.05-1.66,6.21,0,1.24.25,1.87.76,1.87a2.64,2.64,0,0,0,1.53-.63,12.69,12.69,0,0,0,3.67-4l-1.59,8.7a2.6,2.6,0,0,1-.57,1.19l.19.3a14,14,0,0,1,1.81-.36c.08-1.13.21-2.29.39-3.34L592.77,84a16.85,16.85,0,0,1,.57-2.48l-.3-.13Zm-5.61,8.38c-.29,0-.46-.44-.46-1.13,0-2,.9-5.17,1.79-6.22a2.07,2.07,0,0,1,1.53-.5,4.57,4.57,0,0,1,2,.57l-.44,2C590.59,87.77,587.63,90.18,586.74,90.18Z" transform="translate(0.25 0.25)"/>
    <path class="cls-15" d="M602.18,77c-3.26,0-4.91,2.59-4.91,7.67,0,2.45.44,4.58,1.17,5.6a3.9,3.9,0,0,0,3.21,1.62c3.18,0,4.77-2.73,4.77-8.1C606.42,79.14,605.06,77,602.18,77Zm-.38.74c2,0,2.86,2.06,2.86,7.1,0,4.47-.8,6.32-2.73,6.32S599,89,599,83.86C599,79.43,599.81,77.69,601.8,77.69Z" transform="translate(0.25 0.25)"/>
    <path class="cls-15" d="M610.9,76.18l-.4.54c1.16,1.35,3.26,3.66,3.26,9.12,0,5.79-2.19,8.33-3.26,9.66l.4.44a12.93,12.93,0,0,0,4.66-10.08A12.07,12.07,0,0,0,610.9,76.18Z" transform="translate(0.25 0.25)"/>
  </g>
  <g>
    <path class="cls-10" d="M338.2,255.4a37.1,37.1,0,0,1,.64-4.44,1.8,1.8,0,0,0-.8-.24c-1.24,0-2.48,1-3.92,3a49.32,49.32,0,0,0-3.76,6l1.28-6.08a7.33,7.33,0,0,0,.24-1.68c0-.8-.32-1.28-.92-1.28-.84,0-2.36.84-5.32,3l-1.12.8.28.8,1.28-.84c1.12-.72,1.56-.92,1.92-.92s.68.36.68.88c0,2.32-1.72,10.56-3.32,15.68l.4.28a21.74,21.74,0,0,1,2.16-.52l.52-.08,1-4.8a17.52,17.52,0,0,1,3.4-7.72c1.36-1.76,2.44-2.6,3.32-2.6a1.65,1.65,0,0,1,1.44.76Z" transform="translate(0.25 0.25)"/>
    <path class="cls-11" d="M341.16,265.18l.19.56.9-.59c1-.64,1.12-.7,1.31-.7a.59.59,0,0,1,.51.65,6.33,6.33,0,0,1-.23,1.23L342,273.05a9.25,9.25,0,0,0-.37,2.16c0,.67.31,1.09.84,1.09.73,0,1.74-.59,4.48-2.63l-.28-.51-.73.48a4.88,4.88,0,0,1-1.7.84c-.2,0-.37-.28-.37-.56a5,5,0,0,1,.2-1.12l2.15-8.51a4.48,4.48,0,0,0,.17-1,.64.64,0,0,0-.7-.73c-.61,0-1.65.59-3.75,2.07Zm5.43-9.07A1.89,1.89,0,0,0,345,258a1,1,0,0,0,1.1,1.14,1.7,1.7,0,0,0,1.53-1.87A1,1,0,0,0,346.59,256.11Zm6.8,10.11-2.8,13.86c-.31,1.45-.81,2.43-1.32,2.43a2.92,2.92,0,0,1-1.48-.53l-.22,1.6a2.39,2.39,0,0,0,1.06.19c1.12,0,2.24-1.2,3.25-3.47a32.1,32.1,0,0,0,1.73-6.21l2.13-9.8a6.47,6.47,0,0,0,.17-1,.63.63,0,0,0-.7-.7c-.62,0-1.65.59-3.75,2.07l-.79.56.2.56.9-.59c1-.64,1.12-.7,1.31-.7a.59.59,0,0,1,.51.65C353.59,265.35,353.39,266.08,353.39,266.22Zm2.55-10.11a1.89,1.89,0,0,0-1.63,1.88,1,1,0,0,0,1.1,1.14,1.71,1.71,0,0,0,1.54-1.87A1,1,0,0,0,355.94,256.11Z" transform="translate(0.25 0.25)"/>
  </g>
</svg>
