<svg id="Livello_1" data-name="Livello 1" xmlns="http://www.w3.org/2000/svg" xmlns:xlink="http://www.w3.org/1999/xlink" width="662.5" height="483.5" viewBox="0 0 662.5 483.5">
  <defs>
    <style>
      .cls-1, .cls-11, .cls-2, .cls-4, .cls-5, .cls-6, .cls-7 {
        fill: none;
      }

      .cls-2, .cls-3 {
        stroke: #d3d3d3;
        stroke-width: 0.5px;
      }

      .cls-3 {
        fill: url(#_.4223191194073044);
      }

      .cls-10, .cls-11, .cls-12, .cls-4, .cls-5, .cls-6 {
        stroke: #000;
      }

      .cls-5 {
        stroke-dasharray: 1.13 3.35;
      }

      .cls-6, .cls-7 {
        stroke-width: 4px;
      }

      .cls-13, .cls-7, .cls-9 {
        stroke: red;
      }

      .cls-13, .cls-8, .cls-9 {
        fill: red;
      }

      .cls-10, .cls-12, .cls-13, .cls-9 {
        stroke-miterlimit: 10;
      }

      .cls-10, .cls-9 {
        stroke-width: 0.24px;
      }

      .cls-11 {
        stroke-width: 2px;
      }

      .cls-12, .cls-13 {
        stroke-width: 0.17px;
      }
    </style>
    <pattern id="_.4223191194073044" data-name=".4223191194073044" width="10" height="10" patternTransform="matrix(1, 0, 0, -1, -2.75, 851.14)" patternUnits="userSpaceOnUse" viewBox="0 0 10 10">
      <rect class="cls-1" width="10" height="10"/>
      <path class="cls-2" d="M10,10H0V0"/>
    </pattern>
  </defs>
  <rect class="cls-3" x="0.25" y="0.25" width="662" height="483"/>
  <g>
    <path class="cls-4" d="M404,92.1V242.9c0,14.41-38.95,26.1-87,26.1s-87-11.69-87-26.1V92.1C230,77.69,269,66,317,66s87,11.69,87,26.1-38.95,26.1-87,26.1-87-11.69-87-26.1" transform="translate(0.25 0.25)"/>
    <path class="cls-4" d="M404,242.9V393.7c0,14.41-38.95,26.1-87,26.1s-87-11.69-87-26.1V242.9c0-14.41,38.95-26.1,87-26.1s87,11.69,87,26.1S365.05,269,317,269s-87-11.69-87-26.1" transform="translate(0.25 0.25)"/>
    <path class="cls-4" d="M193.6,188,16,308" transform="translate(0.25 0.25)"/>
    <path class="cls-4" d="M608,188,430.4,308" transform="translate(0.25 0.25)"/>
    <path class="cls-4" d="M430.4,308H16" transform="translate(0.25 0.25)"/>
    <path class="cls-4" d="M193.6,188H230" transform="translate(0.25 0.25)"/>
    <path class="cls-5" d="M230,188H404" transform="translate(0.25 0.25)"/>
    <path class="cls-4" d="M404,188H608" transform="translate(0.25 0.25)"/>
    <g>
      <path class="cls-6" d="M318,244V197.8" transform="translate(0.25 0.25)"/>
      <path d="M326.15,208.77l-8.15-17-8.15,17Z" transform="translate(0.25 0.25)"/>
    </g>
    <g>
      <path class="cls-6" d="M312,94V47.8" transform="translate(0.25 0.25)"/>
      <path d="M320.15,58.77,312,41.8l-8.15,17Z" transform="translate(0.25 0.25)"/>
    </g>
    <g>
      <path class="cls-7" d="M312,94l65.94-71.59" transform="translate(0.25 0.25)"/>
      <path class="cls-8" d="M376.5,36,382,18l-17.49,7Z" transform="translate(0.25 0.25)"/>
    </g>
    <g>
      <path class="cls-7" d="M318,393l65.94,71.59" transform="translate(0.25 0.25)"/>
      <path class="cls-8" d="M370.51,462,388,469l-5.5-18Z" transform="translate(0.25 0.25)"/>
    </g>
    <path class="cls-5" d="M230,393.7c40-30,139-29.7,174,0" transform="translate(0.25 0.25)"/>
  </g>
  <path class="cls-9" d="M97.12,287.77V286h-7.2v-7.14H88.15V286H81v1.77h7.2V295h1.77v-7.23Z" transform="translate(0.25 0.25)"/>
  <path class="cls-9" d="M135.12,262.77V261h-7.2v-7.14h-1.77V261H119v1.77h7.2V270h1.77v-7.23Z" transform="translate(0.25 0.25)"/>
  <path class="cls-9" d="M164.12,236.77V235h-7.2v-7.14h-1.77V235H148v1.77h7.2V244h1.77v-7.23Z" transform="translate(0.25 0.25)"/>
  <path class="cls-9" d="M198.12,206.77V205h-7.2v-7.14h-1.77V205H182v1.77h7.2V214h1.77v-7.23Z" transform="translate(0.25 0.25)"/>
  <path class="cls-9" d="M208.12,236.77V235h-7.2v-7.14h-1.77V235H192v1.77h7.2V244h1.77v-7.23Z" transform="translate(0.25 0.25)"/>
  <path class="cls-9" d="M181.12,262.77V261h-7.2v-7.14h-1.77V261H165v1.77h7.2V270h1.77v-7.23Z" transform="translate(0.25 0.25)"/>
  <path class="cls-9" d="M162.12,287.77V286h-7.2v-7.14h-1.77V286H146v1.77h7.2V295h1.77v-7.23Z" transform="translate(0.25 0.25)"/>
  <path class="cls-9" d="M219.12,279.77V278h-7.2v-7.14h-1.77V278H203v1.77h7.2V287h1.77v-7.23Z" transform="translate(0.25 0.25)"/>
  <path class="cls-9" d="M258.12,290.77V289h-7.2v-7.14h-1.77V289H242v1.77h7.2V298h1.77v-7.23Z" transform="translate(0.25 0.25)"/>
  <path class="cls-9" d="M325.12,291.77V290h-7.2v-7.14h-1.77V290H309v1.77h7.2V299h1.77v-7.23Z" transform="translate(0.25 0.25)"/>
  <path class="cls-9" d="M385.12,287.77V286h-7.2v-7.14h-1.77V286H369v1.77h7.2V295h1.77v-7.23Z" transform="translate(0.25 0.25)"/>
  <path class="cls-9" d="M437.12,273.77V272h-7.2v-7.14h-1.77V272H421v1.77h7.2V281h1.77v-7.23Z" transform="translate(0.25 0.25)"/>
  <path class="cls-9" d="M361.12,253.77V252h-7.2v-7.14h-1.77V252H345v1.77h7.2V261h1.77v-7.23Z" transform="translate(0.25 0.25)"/>
  <path class="cls-9" d="M270.12,247.77V246h-7.2v-7.14h-1.77V246H254v1.77h7.2V255h1.77v-7.23Z" transform="translate(0.25 0.25)"/>
  <path class="cls-9" d="M300.12,233.77V232h-7.2v-7.14h-1.77V232H284v1.77h7.2V241h1.77v-7.23Z" transform="translate(0.25 0.25)"/>
  <path class="cls-9" d="M363.12,233.77V232h-7.2v-7.14h-1.77V232H347v1.77h7.2V241h1.77v-7.23Z" transform="translate(0.25 0.25)"/>
  <path class="cls-9" d="M258.12,203.77V202h-7.2v-7.14h-1.77V202H242v1.77h7.2V211h1.77v-7.23Z" transform="translate(0.25 0.25)"/>
  <path class="cls-9" d="M305.12,202.77V201h-7.2v-7.14h-1.77V201H289v1.77h7.2V210h1.77v-7.23Z" transform="translate(0.25 0.25)"/>
  <path class="cls-9" d="M375.12,203.77V202h-7.2v-7.14h-1.77V202H359v1.77h7.2V211h1.77v-7.23Z" transform="translate(0.25 0.25)"/>
  <path class="cls-9" d="M441.12,208.77V207h-7.2v-7.14h-1.77V207H425v1.77h7.2V216h1.77v-7.23Z" transform="translate(0.25 0.25)"/>
  <path class="cls-9" d="M475.12,245.77V244h-7.2v-7.14h-1.77V244H459v1.77h7.2V253h1.77v-7.23Z" transform="translate(0.25 0.25)"/>
  <path class="cls-9" d="M518.12,208.77V207h-7.2v-7.14h-1.77V207H502v1.77h7.2V216h1.77v-7.23Z" transform="translate(0.25 0.25)"/>
  <g>
    <g>
      <path class="cls-10" d="M346.76,200.81l-.21-.27-2,.51-.3,1.53a16.47,16.47,0,0,1-2.13,5.79c-1.77,2.73-4.11,4.86-5.31,4.86-.24,0-.39-.27-.39-.78a7.7,7.7,0,0,1,.21-1.56l1.71-8.13a7.11,7.11,0,0,0,.15-1.29c0-.57-.27-.93-.69-.93-.6,0-1.74.63-4,2.22l-.84.6.21.6,1-.63c.84-.54,1.17-.69,1.44-.69a.57.57,0,0,1,.51.6,3.31,3.31,0,0,1-.06.54l-1.89,8.91a9.17,9.17,0,0,0-.12,1.41,1.13,1.13,0,0,0,1.05,1.23c1.89,0,5.52-3.36,8-7.5L342,212.09a8.18,8.18,0,0,0-.33,2c0,.75.33,1.2.9,1.2.78,0,1.86-.63,4.8-2.82l-.3-.54-.78.51a4.6,4.6,0,0,1-1.83.81c-.24,0-.39-.21-.39-.51C344.06,211.64,346.31,202.52,346.76,200.81Z" transform="translate(0.25 0.25)"/>
      <polyline class="cls-11" points="332.25 195.58 340.58 190.03 348.91 195.58"/>
    </g>
    <path class="cls-12" d="M350.05,218l.15.42.67-.45c.78-.48.84-.52,1-.52s.37.21.37.52a50.15,50.15,0,0,1-1.72,8.13l.15.23c.52-.14,1-.27,1.47-.35a12,12,0,0,1,1.81-5.46c1.13-1.77,2.7-3.07,3.65-3.07.23,0,.36.19.36.5a6.52,6.52,0,0,1-.23,1.49l-1.1,4.46a7.29,7.29,0,0,0-.27,1.59c0,.53.23.84.63.84s1.3-.44,3.36-2l-.21-.38-.55.36a3.4,3.4,0,0,1-1.28.63c-.14,0-.27-.19-.27-.42a2.61,2.61,0,0,1,0-.42l1.39-5.8a7.32,7.32,0,0,0,.23-1.55c0-.49-.23-.76-.65-.76a6.59,6.59,0,0,0-3.57,1.95,17.13,17.13,0,0,0-2.48,3l.8-3.38a4.22,4.22,0,0,0,.12-.87c0-.44-.16-.69-.48-.69s-1.26.46-2.79,1.56Z" transform="translate(0.25 0.25)"/>
  </g>
  <g>
    <g>
      <path class="cls-10" d="M285.76,39.81l-.21-.27-2,.51-.3,1.53a16.47,16.47,0,0,1-2.13,5.79c-1.77,2.73-4.11,4.86-5.31,4.86-.24,0-.39-.27-.39-.78a7.7,7.7,0,0,1,.21-1.56l1.71-8.13a7.11,7.11,0,0,0,.15-1.29c0-.57-.27-.93-.69-.93-.6,0-1.74.63-4,2.22l-.84.6.21.6,1-.63c.84-.54,1.17-.69,1.44-.69a.57.57,0,0,1,.51.6,3.31,3.31,0,0,1-.06.54l-1.89,8.91A9.17,9.17,0,0,0,273,53.1a1.13,1.13,0,0,0,1.05,1.23c1.89,0,5.52-3.36,8-7.5L281,51.09a8.18,8.18,0,0,0-.33,2c0,.75.33,1.2.9,1.2.78,0,1.86-.63,4.8-2.82l-.3-.54-.78.51a4.6,4.6,0,0,1-1.83.81c-.24,0-.39-.21-.39-.51C283.06,50.64,285.31,41.52,285.76,39.81Z" transform="translate(0.25 0.25)"/>
      <polyline class="cls-11" points="271.25 34.58 279.58 29.03 287.91 34.58"/>
    </g>
    <path class="cls-12" d="M289.05,57l.15.42.67-.45c.78-.48.84-.52,1-.52s.37.21.37.52a50.15,50.15,0,0,1-1.72,8.13l.15.23c.52-.14,1-.27,1.47-.35a12,12,0,0,1,1.81-5.46c1.13-1.77,2.7-3.07,3.65-3.07.23,0,.36.19.36.5a6.52,6.52,0,0,1-.23,1.49l-1.1,4.46a7.29,7.29,0,0,0-.27,1.59c0,.53.23.84.63.84s1.3-.44,3.36-2l-.21-.38-.55.36a3.4,3.4,0,0,1-1.28.63c-.14,0-.27-.19-.27-.42a2.61,2.61,0,0,1,0-.42l1.39-5.8a7.32,7.32,0,0,0,.23-1.55c0-.49-.23-.76-.65-.76a6.59,6.59,0,0,0-3.57,2,17.13,17.13,0,0,0-2.48,3l.8-3.38a4.22,4.22,0,0,0,.12-.87c0-.44-.16-.69-.48-.69s-1.26.46-2.79,1.56Z" transform="translate(0.25 0.25)"/>
  </g>
  <g>
    <g>
      <path class="cls-9" d="M404.63,56h3.51l4,.12.57-1.35-.12-.21c-2.43.12-4.23.18-6.57.18h-1.11l1.41-8.1c1,0,3.45-.12,4.11-.12,1.86,0,3.09.27,3.12.72l.24,2.67h.72a20.27,20.27,0,0,1,.63-4.56c-.63-.06-1.53-.09-2.07-.09-.09,0-.42,0-1.14,0l-3.6,0c-.27,0-5.49,0-5.79,0l-1.35,0-.09.84,1.62.06c.72,0,1.05.27,1.05.81a18.52,18.52,0,0,1-.27,2.28l-2.61,15.12c-.12.54-.48.75-1.8,1l-.15.78,1.23,0c.93,0,2.79-.06,3.39-.06l6.75.09c.42,0,1.17,0,2.16-.06l1,0,.12-1.08c.06-.6.21-1.5.48-3l.15-.78h-.81l-.48,1.8c-.3,1.08-.57,1.44-1.23,1.59a34.72,34.72,0,0,1-4.41.27,40.28,40.28,0,0,1-4.11-.21Z" transform="translate(0.25 0.25)"/>
      <path class="cls-8" d="M417.78,34.56l-5.56-5.86-.86.92,3.4,4.1h-.27v1.59h.27l-3.4,4.1.86.92ZM401,35.23h16V33.64H401Z" transform="translate(0.25 0.25)"/>
    </g>
    <path class="cls-13" d="M417.52,76.61v.55c3.93,0,3.93-.07,4.69-.07s.75.07,4.81.07V75.37c-2.42.11-3.39,0-7.27.11l3.82-4.06c2-2.16,2.67-3.31,2.67-4.89,0-2.41-1.64-3.91-4.31-3.91a4.52,4.52,0,0,0-3.57,1.47L418,67h.61l.27-1a2.22,2.22,0,0,1,2.5-1.74,2.75,2.75,0,0,1,3,2.92c0,1.58-.88,3.13-3.26,5.65Z" transform="translate(0.25 0.25)"/>
  </g>
  <path class="cls-10" d="M509.49,271.34l-.36-.33a11.75,11.75,0,0,1-4.8,1.26l-.12.63h1.44c.72,0,1,.21,1,.72a5.37,5.37,0,0,1-.06.72l-.84,4.62a8.63,8.63,0,0,0-2.46-.42c-2.07,0-4.89,2.16-6.27,4.77a16.57,16.57,0,0,0-1.53,7.11c0,1.95.45,2.91,1.32,2.91a5.35,5.35,0,0,0,2.94-1.32,21.22,21.22,0,0,0,4.62-5.52l-.69,2.73a13,13,0,0,0-.48,3.06c0,.63.27,1,.78,1a4.53,4.53,0,0,0,2.25-1.11l2.43-1.8-.3-.57-1.32.93a2.51,2.51,0,0,1-1.17.51c-.24,0-.42-.27-.42-.69a5.82,5.82,0,0,1,.24-1.38Zm-11.07,19.89c-.48,0-.75-.42-.75-1.17,0-3.78,1.38-8.46,2.85-9.6a2.84,2.84,0,0,1,1.77-.45,6.3,6.3,0,0,1,3.18.69l-.36,1.77C504,287.87,499.77,291.23,498.42,291.23Zm28.71,1.89c.39-2,.72-3.93,1.26-5.91v-.09h-.66v.09c-1,2.46-1.26,3.51-4.11,3.51H512.88c2.49-3.24,5.1-6.45,7.77-9.51-1.35-2.43-2.49-5-3.63-7.53h7.59c3,0,3.12.51,3,3.24h.66v-.12c.33-1.41.57-2.88,1-4.29v-.18c-5.22.24-10.56.21-15.78.24v.48a90.54,90.54,0,0,1,4.59,9.75,110.86,110.86,0,0,1-8.64,9.75v.57C515.4,293,521.22,293,527.13,293.12Z" transform="translate(0.25 0.25)"/>
  <g>
    <g>
      <path class="cls-9" d="M408.63,436h3.51l4,.12.57-1.35-.12-.21c-2.43.12-4.23.18-6.57.18h-1.11l1.41-8.1c1,0,3.45-.12,4.11-.12,1.86,0,3.09.27,3.12.72l.24,2.67h.72a20.27,20.27,0,0,1,.63-4.56c-.63-.06-1.53-.09-2.07-.09-.09,0-.42,0-1.14,0l-3.6,0c-.27,0-5.49,0-5.79,0l-1.35,0-.09.84,1.62.06c.72,0,1.05.27,1.05.81a18.52,18.52,0,0,1-.27,2.28l-2.61,15.12c-.12.54-.48.75-1.8,1l-.15.78,1.23,0c.93,0,2.79-.06,3.39-.06l6.75.09c.42,0,1.17,0,2.16-.06l1,0,.12-1.08c.06-.6.21-1.5.48-3l.15-.78h-.81l-.48,1.8c-.3,1.08-.57,1.44-1.23,1.59a34.72,34.72,0,0,1-4.41.27,40.28,40.28,0,0,1-4.11-.21Z" transform="translate(0.25 0.25)"/>
      <path class="cls-8" d="M421.78,414.56l-5.56-5.86-.86.92,3.4,4.1h-.27v1.59h.27l-3.4,4.1.86.92Zm-16.81.67h16v-1.59H405Z" transform="translate(0.25 0.25)"/>
    </g>
    <path class="cls-13" d="M430,457.16v-.63l-1.1-.07c-1.15-.06-1.36-.29-1.36-1.38V442.39l-5.06,2.15.14,1,3.15-1.39v10.88c0,1.09-.23,1.32-1.36,1.38l-1.18.07v.63l3.47-.07C427.32,457.09,429.63,457.16,430,457.16Z" transform="translate(0.25 0.25)"/>
  </g>
</svg>
