<svg id="Livello_1" data-name="Livello 1" xmlns="http://www.w3.org/2000/svg" xmlns:xlink="http://www.w3.org/1999/xlink" width="662.5" height="483.5" viewBox="0 0 662.5 483.5">
  <defs>
    <style>
      .cls-1, .cls-10, .cls-2, .cls-4, .cls-5, .cls-6, .cls-7, .cls-8, .cls-9 {
        fill: none;
      }

      .cls-2, .cls-3 {
        stroke: #d3d3d3;
        stroke-width: 0.5px;
      }

      .cls-3 {
        fill: url(#_.4223191194073044);
      }

      .cls-10, .cls-13, .cls-14, .cls-4, .cls-7, .cls-8, .cls-9 {
        stroke: #000;
      }

      .cls-4 {
        stroke-dasharray: 6 6;
      }

      .cls-11, .cls-5 {
        stroke: red;
      }

      .cls-5, .cls-6, .cls-9 {
        stroke-width: 3px;
      }

      .cls-12, .cls-6 {
        stroke: #4a90e2;
      }

      .cls-7 {
        stroke-width: 6px;
      }

      .cls-10 {
        stroke-width: 4px;
      }

      .cls-11 {
        fill: red;
        stroke-width: 0.4px;
      }

      .cls-11, .cls-12, .cls-13, .cls-14 {
        stroke-miterlimit: 10;
      }

      .cls-12 {
        fill: #4a90e2;
      }

      .cls-12, .cls-13 {
        stroke-width: 0.24px;
      }

      .cls-14 {
        stroke-width: 0.17px;
      }
    </style>
    <pattern id="_.4223191194073044" data-name=".4223191194073044" width="10" height="10" patternTransform="matrix(1, 0, 0, -1, -2.75, 851.14)" patternUnits="userSpaceOnUse" viewBox="0 0 10 10">
      <rect class="cls-1" width="10" height="10"/>
      <path class="cls-2" d="M10,10H0V0"/>
    </pattern>
  </defs>
  <rect class="cls-3" x="0.25" y="0.25" width="662" height="483"/>
  <g>
    <path class="cls-4" d="M99,281H541" transform="translate(0.25 0.25)"/>
    <path class="cls-5" d="M49,281a25,25,0,1,1,25,25A25,25,0,0,1,49,281Z" transform="translate(0.25 0.25)"/>
    <path class="cls-5" d="M541,281a25,25,0,1,1,25,25A25,25,0,0,1,541,281Z" transform="translate(0.25 0.25)"/>
    <path class="cls-6" d="M303.49,110.49A16.51,16.51,0,1,1,320,127,16.52,16.52,0,0,1,303.49,110.49Z" transform="translate(0.25 0.25)"/>
    <path class="cls-7" d="M320,266v30" transform="translate(0.25 0.25)"/>
    <path class="cls-8" d="M101,344H543" transform="translate(0.25 0.25)"/>
    <path class="cls-9" d="M101,330v30" transform="translate(0.25 0.25)"/>
    <path class="cls-9" d="M543,329v30" transform="translate(0.25 0.25)"/>
    <path class="cls-4" d="M320,127V435" transform="translate(0.25 0.25)"/>
    <path class="cls-4" d="M85,255,303.49,110.49" transform="translate(0.25 0.25)"/>
    <path class="cls-4" d="M554,259,336.51,110.49" transform="translate(0.25 0.25)"/>
    <g>
      <path class="cls-10" d="M303.49,110.49,157,207.68" transform="translate(0.25 0.25)"/>
      <path d="M161.64,194.83,152,211l18.65-2.59Z" transform="translate(0.25 0.25)"/>
    </g>
    <g>
      <path class="cls-10" d="M336.51,110.49,483,207.68" transform="translate(0.25 0.25)"/>
      <path d="M469.35,208.41,488,211l-9.64-16.17Z" transform="translate(0.25 0.25)"/>
    </g>
  </g>
  <path class="cls-11" d="M89.2,283V280h-12V268.1h-3V280h-12V283h12V295h3V283Z" transform="translate(0.25 0.25)"/>
  <path class="cls-11" d="M580.2,283V280h-12V268.1h-3V280h-12V283h12V295h3V283Z" transform="translate(0.25 0.25)"/>
  <path class="cls-12" d="M328,112.38V110.7H312.84v1.68Z" transform="translate(0.25 0.25)"/>
  <path class="cls-13" d="M300.89,290.33c-4.65,0-7,3.69-7,10.95,0,3.51.63,6.54,1.68,8a5.56,5.56,0,0,0,4.59,2.31c4.53,0,6.81-3.9,6.81-11.58C307,293.45,305,290.33,300.89,290.33Zm-.54,1.05c2.91,0,4.08,2.94,4.08,10.14,0,6.39-1.14,9-3.9,9s-4.14-3-4.14-10.35C296.39,293.87,297.5,291.38,300.35,291.38Z" transform="translate(0.25 0.25)"/>
  <g>
    <path class="cls-13" d="M320.55,63.26a8,8,0,0,0-3-.72c-2.25,0-4.89,2.64-5.43,3.24-1.2,1.41-2.37,5.79-2.37,8.88,0,1.77.36,2.67,1.08,2.67a3.76,3.76,0,0,0,2.19-.9,18.23,18.23,0,0,0,5.25-5.7L316,83.15a3.64,3.64,0,0,1-.81,1.71l.27.42a21.59,21.59,0,0,1,2.58-.51,47.16,47.16,0,0,1,.57-4.77l2.58-13.68a24.81,24.81,0,0,1,.81-3.54l-.42-.18Zm-8,12c-.42,0-.66-.63-.66-1.62,0-2.88,1.29-7.38,2.55-8.88a2.94,2.94,0,0,1,2.19-.72,6.67,6.67,0,0,1,2.91.81l-.63,2.85C318,71.78,313.8,75.23,312.54,75.23Z" transform="translate(0.25 0.25)"/>
    <path class="cls-14" d="M329.27,67.81c-3.25,0-4.91,2.59-4.91,7.67,0,2.45.44,4.58,1.17,5.6a3.92,3.92,0,0,0,3.22,1.62c3.17,0,4.76-2.73,4.76-8.1C333.51,70,332.15,67.81,329.27,67.81Zm-.38.74c2,0,2.86,2.06,2.86,7.1,0,4.47-.8,6.32-2.73,6.32s-2.9-2.12-2.9-7.25C326.12,70.29,326.9,68.55,328.89,68.55Z" transform="translate(0.25 0.25)"/>
  </g>
  <path class="cls-13" d="M594.55,314.26a8,8,0,0,0-3-.72c-2.25,0-4.89,2.64-5.43,3.24-1.2,1.41-2.37,5.79-2.37,8.88,0,1.77.36,2.67,1.08,2.67a3.76,3.76,0,0,0,2.19-.9,18.23,18.23,0,0,0,5.25-5.7L590,334.15a3.64,3.64,0,0,1-.81,1.71l.27.42a21.59,21.59,0,0,1,2.58-.51,47.16,47.16,0,0,1,.57-4.77l2.58-13.68a24.81,24.81,0,0,1,.81-3.54l-.42-.18Zm-8,12c-.42,0-.66-.63-.66-1.62,0-2.88,1.29-7.38,2.55-8.88a2.94,2.94,0,0,1,2.19-.72,6.67,6.67,0,0,1,2.91.81l-.63,2.85C592,322.78,587.8,326.23,586.54,326.23Z" transform="translate(0.25 0.25)"/>
  <path class="cls-13" d="M52.55,312.26a8,8,0,0,0-3-.72c-2.25,0-4.89,2.64-5.43,3.24-1.2,1.41-2.37,5.79-2.37,8.88,0,1.77.36,2.67,1.08,2.67a3.76,3.76,0,0,0,2.19-.9,18.23,18.23,0,0,0,5.25-5.7L48,332.15a3.64,3.64,0,0,1-.81,1.71l.27.42a21.59,21.59,0,0,1,2.58-.51,47.16,47.16,0,0,1,.57-4.77l2.58-13.68a24.81,24.81,0,0,1,.81-3.54l-.42-.18Zm-8,12c-.42,0-.66-.63-.66-1.62,0-2.88,1.29-7.38,2.55-8.88a2.94,2.94,0,0,1,2.19-.72,6.67,6.67,0,0,1,2.91.81l-.63,2.85C50,320.78,45.8,324.23,44.54,324.23Z" transform="translate(0.25 0.25)"/>
  <path class="cls-13" d="M307.49,352.34l-.36-.33a11.75,11.75,0,0,1-4.8,1.26l-.12.63h1.44c.72,0,1,.21,1,.72a5.37,5.37,0,0,1-.06.72l-.84,4.62a8.63,8.63,0,0,0-2.46-.42c-2.07,0-4.89,2.16-6.27,4.77a16.57,16.57,0,0,0-1.53,7.11c0,1.95.45,2.91,1.32,2.91a5.35,5.35,0,0,0,2.94-1.32,21.22,21.22,0,0,0,4.62-5.52l-.69,2.73a13,13,0,0,0-.48,3.06c0,.63.27,1,.78,1a4.53,4.53,0,0,0,2.25-1.11l2.43-1.8-.3-.57-1.32.93a2.51,2.51,0,0,1-1.17.51c-.24,0-.42-.27-.42-.69a5.82,5.82,0,0,1,.24-1.38Zm-11.07,19.89c-.48,0-.75-.42-.75-1.17,0-3.78,1.38-8.46,2.85-9.6a2.84,2.84,0,0,1,1.77-.45,6.3,6.3,0,0,1,3.18.69l-.36,1.77C302,368.87,297.77,372.23,296.42,372.23Z" transform="translate(0.25 0.25)"/>
  <g>
    <path class="cls-13" d="M171.58,159.62l3.18-.12c1.86,0,3.06.27,3.09.72l.24,2.67h.72a20.54,20.54,0,0,1,.63-4.56c-.66-.06-1.5-.09-2-.09l-1.23,0-4.95.06h-.87c-.75,0-1.95,0-3.09-.06l-1.47,0-.09.84,1.68.06c.72,0,1.05.3,1.05.81a18.52,18.52,0,0,1-.27,2.28l-2.25,13c-.51,2.76-.51,2.79-1.74,2.91l-1.08.09-.12.84,1,0c1.2,0,2.16-.06,2.79-.06s1.41,0,2.58.06l1.56,0,.09-.84-1.92-.09c-.81,0-1.08-.27-1.08-.87a3.74,3.74,0,0,1,.06-.63l1.08-6.69h3.51c.81,0,1.74,0,3.18.09l.78,0,.57-1.35-.12-.21c-2.43.12-4.23.18-6.57.18h-1.11l1.38-8.13a3.36,3.36,0,0,1,.27-1Z" transform="translate(0.25 0.25)"/>
    <path d="M181.14,147.56l-5.56-5.86-.86.92,3.4,4.1h-.27v1.59h.27l-3.4,4.1.86.92Zm-15.17.67h14.36v-1.59H166Z" transform="translate(0.25 0.25)"/>
  </g>
  <g>
    <path class="cls-13" d="M473.58,163.62l3.18-.12c1.86,0,3.06.27,3.09.72l.24,2.67h.72a20.54,20.54,0,0,1,.63-4.56c-.66-.06-1.5-.09-2-.09l-1.23,0-4.95.06h-.87c-.75,0-1.95,0-3.09-.06l-1.47,0-.09.84,1.68.06c.72,0,1,.3,1,.81a18.52,18.52,0,0,1-.27,2.28l-2.25,13c-.51,2.76-.51,2.79-1.74,2.91l-1.08.09-.12.84,1,0c1.2,0,2.16-.06,2.79-.06s1.41,0,2.58.06l1.56,0,.09-.84-1.92-.09c-.81,0-1.08-.27-1.08-.87a3.74,3.74,0,0,1,.06-.63l1.08-6.69h3.51c.81,0,1.74,0,3.18.09l.78,0,.57-1.35-.12-.21c-2.43.12-4.23.18-6.57.18h-1.11l1.38-8.13a3.36,3.36,0,0,1,.27-1Z" transform="translate(0.25 0.25)"/>
    <path d="M483.14,151.56l-5.56-5.86-.86.92,3.4,4.1h-.27v1.59h.27l-3.4,4.1.86.92Zm-15.17.67h14.36v-1.59H468Z" transform="translate(0.25 0.25)"/>
  </g>
</svg>
