<svg id="Livello_1" data-name="Livello 1" xmlns="http://www.w3.org/2000/svg" xmlns:xlink="http://www.w3.org/1999/xlink" width="662.5" height="316.5" viewBox="0 0 662.5 316.5">
  <defs>
    <style>
      .cls-1, .cls-2, .cls-4, .cls-5, .cls-6, .cls-7, .cls-8 {
        fill: none;
      }

      .cls-2, .cls-3 {
        stroke: #d3d3d3;
        stroke-width: 0.5px;
      }

      .cls-3 {
        fill: url(#_.4223191194073044);
      }

      .cls-11, .cls-12, .cls-4, .cls-6, .cls-7, .cls-8 {
        stroke: #000;
      }

      .cls-4 {
        stroke-dasharray: 6 6;
      }

      .cls-10, .cls-5, .cls-9 {
        stroke: red;
      }

      .cls-5, .cls-8 {
        stroke-width: 3px;
      }

      .cls-6 {
        stroke-width: 6px;
      }

      .cls-10, .cls-9 {
        fill: red;
      }

      .cls-10, .cls-11, .cls-12, .cls-9 {
        stroke-miterlimit: 10;
      }

      .cls-9 {
        stroke-width: 0.4px;
      }

      .cls-10, .cls-11 {
        stroke-width: 0.24px;
      }

      .cls-12 {
        stroke-width: 0.17px;
      }
    </style>
    <pattern id="_.4223191194073044" data-name=".4223191194073044" width="10" height="10" patternTransform="matrix(1, 0, 0, -1, -2.75, 845.14)" patternUnits="userSpaceOnUse" viewBox="0 0 10 10">
      <rect class="cls-1" width="10" height="10"/>
      <path class="cls-2" d="M10,10H0V0"/>
    </pattern>
  </defs>
  <rect class="cls-3" x="0.25" y="0.25" width="662" height="316"/>
  <g>
    <path class="cls-4" d="M101,135H543" transform="translate(0.25 0.25)"/>
    <path class="cls-5" d="M51,135a25,25,0,1,1,25,25A25,25,0,0,1,51,135Z" transform="translate(0.25 0.25)"/>
    <path class="cls-5" d="M543,135a25,25,0,1,1,25,25A25,25,0,0,1,543,135Z" transform="translate(0.25 0.25)"/>
    <path class="cls-5" d="M346,134.65a16.51,16.51,0,1,1,16.51,16.51A16.52,16.52,0,0,1,346,134.65Z" transform="translate(0.25 0.25)"/>
    <path class="cls-6" d="M322,120v30" transform="translate(0.25 0.25)"/>
    <path class="cls-7" d="M103,198H545" transform="translate(0.25 0.25)"/>
    <path class="cls-8" d="M103,184v30" transform="translate(0.25 0.25)"/>
    <path class="cls-8" d="M545,183v30" transform="translate(0.25 0.25)"/>
  </g>
  <path class="cls-9" d="M91.2,137V134h-12V122.1h-3V134h-12V137h12V149h3V137Z" transform="translate(0.25 0.25)"/>
  <path class="cls-9" d="M582.2,137V134h-12V122.1h-3V134h-12V137h12V149h3V137Z" transform="translate(0.25 0.25)"/>
  <path class="cls-10" d="M371.43,135.44v-1.77h-7.2v-7.14h-1.77v7.14h-7.2v1.77h7.2v7.23h1.77v-7.23Z" transform="translate(0.25 0.25)"/>
  <path class="cls-11" d="M322.89,89.33c-4.65,0-7,3.69-7,11,0,3.51.63,6.54,1.68,8a5.56,5.56,0,0,0,4.59,2.31c4.53,0,6.81-3.9,6.81-11.58C329,92.45,327,89.33,322.89,89.33Zm-.54,1c2.91,0,4.08,2.94,4.08,10.14,0,6.39-1.14,9-3.9,9s-4.14-3-4.14-10.35C318.39,92.87,319.5,90.38,322.35,90.38Z" transform="translate(0.25 0.25)"/>
  <g>
    <path class="cls-11" d="M392.55,93.26a8,8,0,0,0-3-.72c-2.25,0-4.89,2.64-5.43,3.24-1.2,1.41-2.37,5.79-2.37,8.88,0,1.77.36,2.67,1.08,2.67a3.76,3.76,0,0,0,2.19-.9,18.23,18.23,0,0,0,5.25-5.7L388,113.15a3.64,3.64,0,0,1-.81,1.71l.27.42a21.59,21.59,0,0,1,2.58-.51,47.16,47.16,0,0,1,.57-4.77l2.58-13.68a24.81,24.81,0,0,1,.81-3.54l-.42-.18Zm-8,12c-.42,0-.66-.63-.66-1.62,0-2.88,1.29-7.38,2.55-8.88a2.94,2.94,0,0,1,2.19-.72,6.67,6.67,0,0,1,2.91.81l-.63,2.85C390,101.78,385.8,105.23,384.54,105.23Z" transform="translate(0.25 0.25)"/>
    <path class="cls-12" d="M401.27,97.81c-3.25,0-4.91,2.59-4.91,7.67,0,2.45.44,4.58,1.17,5.6a3.92,3.92,0,0,0,3.22,1.62c3.17,0,4.76-2.73,4.76-8.1C405.51,100,404.15,97.81,401.27,97.81Zm-.38.74c2,0,2.86,2.06,2.86,7.1,0,4.47-.8,6.32-2.73,6.32s-2.9-2.12-2.9-7.25C398.12,100.29,398.9,98.55,400.89,98.55Z" transform="translate(0.25 0.25)"/>
  </g>
  <path class="cls-11" d="M596.55,168.26a8,8,0,0,0-3-.72c-2.25,0-4.89,2.64-5.43,3.24-1.2,1.41-2.37,5.79-2.37,8.88,0,1.77.36,2.67,1.08,2.67a3.76,3.76,0,0,0,2.19-.9,18.23,18.23,0,0,0,5.25-5.7L592,188.15a3.64,3.64,0,0,1-.81,1.71l.27.42a21.59,21.59,0,0,1,2.58-.51,47.16,47.16,0,0,1,.57-4.77l2.58-13.68a24.81,24.81,0,0,1,.81-3.54l-.42-.18Zm-8,12c-.42,0-.66-.63-.66-1.62,0-2.88,1.29-7.38,2.55-8.88a2.94,2.94,0,0,1,2.19-.72,6.67,6.67,0,0,1,2.91.81l-.63,2.85C594,176.78,589.8,180.23,588.54,180.23Z" transform="translate(0.25 0.25)"/>
  <path class="cls-11" d="M54.55,166.26a8,8,0,0,0-3-.72c-2.25,0-4.89,2.64-5.43,3.24-1.2,1.41-2.37,5.79-2.37,8.88,0,1.77.36,2.67,1.08,2.67a3.76,3.76,0,0,0,2.19-.9,18.23,18.23,0,0,0,5.25-5.7L50,186.15a3.64,3.64,0,0,1-.81,1.71l.27.42a21.59,21.59,0,0,1,2.58-.51,47.16,47.16,0,0,1,.57-4.77l2.58-13.68a24.81,24.81,0,0,1,.81-3.54l-.42-.18Zm-8,12c-.42,0-.66-.63-.66-1.62,0-2.88,1.29-7.38,2.55-8.88a2.94,2.94,0,0,1,2.19-.72,6.67,6.67,0,0,1,2.91.81l-.63,2.85C52,174.78,47.8,178.23,46.54,178.23Z" transform="translate(0.25 0.25)"/>
  <path class="cls-11" d="M326.49,205.34l-.36-.33a11.75,11.75,0,0,1-4.8,1.26l-.12.63h1.44c.72,0,1,.21,1,.72a5.37,5.37,0,0,1-.06.72l-.84,4.62a8.63,8.63,0,0,0-2.46-.42c-2.07,0-4.89,2.16-6.27,4.77a16.57,16.57,0,0,0-1.53,7.11c0,2,.45,2.91,1.32,2.91a5.35,5.35,0,0,0,2.94-1.32,21.22,21.22,0,0,0,4.62-5.52l-.69,2.73a13,13,0,0,0-.48,3.06c0,.63.27,1,.78,1a4.53,4.53,0,0,0,2.25-1.11l2.43-1.8-.3-.57-1.32.93a2.51,2.51,0,0,1-1.17.51c-.24,0-.42-.27-.42-.69a5.82,5.82,0,0,1,.24-1.38Zm-11.07,19.89c-.48,0-.75-.42-.75-1.17,0-3.78,1.38-8.46,2.85-9.6a2.84,2.84,0,0,1,1.77-.45,6.3,6.3,0,0,1,3.18.69l-.36,1.77C321,221.87,316.77,225.23,315.42,225.23Z" transform="translate(0.25 0.25)"/>
</svg>
