<svg id="Livello_1" data-name="Livello 1" xmlns="http://www.w3.org/2000/svg" xmlns:xlink="http://www.w3.org/1999/xlink" width="662.5" height="568.5" viewBox="0 0 662.5 568.5">
  <defs>
    <style>
      .cls-1, .cls-10, .cls-11, .cls-2, .cls-4, .cls-5, .cls-6, .cls-8 {
        fill: none;
      }

      .cls-2, .cls-3 {
        stroke: #d3d3d3;
        stroke-width: 0.5px;
      }

      .cls-3 {
        fill: url(#_.4169564083222199);
      }

      .cls-10, .cls-11, .cls-13, .cls-4, .cls-9 {
        stroke: #000;
      }

      .cls-4, .cls-5, .cls-6 {
        stroke-width: 3px;
      }

      .cls-12, .cls-5, .cls-8 {
        stroke: #4a90e2;
      }

      .cls-6 {
        stroke: red;
      }

      .cls-7 {
        fill: red;
      }

      .cls-8 {
        stroke-width: 4px;
        stroke-dasharray: 10.5 6;
      }

      .cls-11 {
        stroke-dasharray: 6 6;
      }

      .cls-12 {
        fill: #4a90e2;
      }

      .cls-12, .cls-13, .cls-14 {
        stroke-miterlimit: 10;
        stroke-width: 0.24px;
      }

      .cls-14 {
        fill: #ff001f;
        stroke: #ff001f;
      }
    </style>
    <pattern id="_.4169564083222199" data-name=".4169564083222199" width="10" height="10" patternTransform="matrix(1, 0, 0, -1, -2.79, 849.14)" patternUnits="userSpaceOnUse" viewBox="0 0 10 10">
      <rect class="cls-1" width="10" height="10"/>
      <path class="cls-2" d="M10,10H0V0"/>
    </pattern>
  </defs>
  <rect class="cls-3" x="0.25" y="0.25" width="662" height="568"/>
  <g>
    <path class="cls-4" d="M5,345.37H579.9M62.49,37.55v342" transform="translate(0.21 0.25)"/>
    <path class="cls-4" d="M572.9,340.37l7,5-7,5" transform="translate(0.21 0.25)"/>
    <path class="cls-4" d="M57.49,44.55l5-7,5,7" transform="translate(0.21 0.25)"/>
  </g>
  <g>
    <path class="cls-4" d="M513.46,383.22V38" transform="translate(0.21 0.25)"/>
    <path d="M520.32,47.29,513.46,33,506.6,47.29Z" transform="translate(0.21 0.25)"/>
  </g>
  <path class="cls-5" d="M105.94,345a22.74,22.74,0,1,1,22.74,22.74A22.74,22.74,0,0,1,105.94,345Z" transform="translate(0.21 0.25)"/>
  <g>
    <path class="cls-6" d="M151.42,345h97.79" transform="translate(0.21 0.25)"/>
    <path class="cls-7" d="M239.92,351.87,254.21,345l-14.29-6.86Z" transform="translate(0.21 0.25)"/>
  </g>
  <path class="cls-8" d="M254.21,345C335.17,340.46,481,234,511,162" transform="translate(0.21 0.25)"/>
  <path class="cls-9" d="M508.91,226.76a5.46,5.46,0,1,1,5.46,5.45A5.46,5.46,0,0,1,508.91,226.76Z" transform="translate(0.21 0.25)"/>
  <path class="cls-10" d="M178.71,287.7H322.44v25.47H178.71Z" transform="translate(0.21 0.25)"/>
  <path class="cls-10" d="M181.44,375.94H325.17v25.47H181.44Z" transform="translate(0.21 0.25)"/>
  <g>
    <path class="cls-6" d="M188.26,323.18v40.48" transform="translate(0.21 0.25)"/>
    <path class="cls-7" d="M181.4,354.37l6.86,14.29,6.86-14.29Z" transform="translate(0.21 0.25)"/>
  </g>
  <g>
    <path class="cls-6" d="M227.38,321.36v40.48" transform="translate(0.21 0.25)"/>
    <path class="cls-7" d="M220.52,352.55l6.86,14.29,6.86-14.29Z" transform="translate(0.21 0.25)"/>
  </g>
  <g>
    <path class="cls-6" d="M276.5,322.27v40.48" transform="translate(0.21 0.25)"/>
    <path class="cls-7" d="M269.64,353.46l6.86,14.29,6.86-14.29Z" transform="translate(0.21 0.25)"/>
  </g>
  <g>
    <path class="cls-6" d="M312.88,322.27v40.48" transform="translate(0.21 0.25)"/>
    <path class="cls-7" d="M306,353.46l6.86,14.29,6.86-14.29Z" transform="translate(0.21 0.25)"/>
  </g>
  <path class="cls-9" d="M319.71,330a5.46,5.46,0,1,1,5.46,5.46A5.46,5.46,0,0,1,319.71,330Z" transform="translate(0.21 0.25)"/>
  <g>
    <path class="cls-6" d="M325.17,330l39.13-18.34" transform="translate(0.21 0.25)"/>
    <path class="cls-7" d="M358.8,321.81l10-12.28L353,309.39Z" transform="translate(0.21 0.25)"/>
  </g>
  <path class="cls-10" d="M368.83,309.53l145.54-82.77" transform="translate(0.21 0.25)"/>
  <path class="cls-11" d="M330.62,330h188.3" transform="translate(0.21 0.25)"/>
  <path class="cls-9" d="M508,330a5.46,5.46,0,1,1,5.45,5.46A5.46,5.46,0,0,1,508,330Z" transform="translate(0.21 0.25)"/>
  <path class="cls-4" d="M633,327.38v13" transform="translate(0.21 0.25)"/>
  <path class="cls-4" d="M599.09,227v116.6" transform="translate(0.21 0.25)"/>
  <path class="cls-4" d="M648.5,341.6h-31" transform="translate(0.21 0.25)"/>
  <path class="cls-4" d="M649.39,327.38h-31" transform="translate(0.21 0.25)"/>
  <path class="cls-4" d="M614.59,342.51h-31" transform="translate(0.21 0.25)"/>
  <path class="cls-4" d="M614.59,226.75h-31" transform="translate(0.21 0.25)"/>
  <path class="cls-10" d="M368.23,311.84c31.51-6.28,32.63,5.86,4.59,17.79" transform="translate(0.21 0.25)"/>
  <path class="cls-9" d="M505.54,167.46a5.46,5.46,0,1,1,5.46,5.46A5.46,5.46,0,0,1,505.54,167.46Z" transform="translate(0.21 0.25)"/>
  <path class="cls-4" d="M325,424.52H185.63" transform="translate(0.21 0.25)"/>
  <path class="cls-4" d="M325,440V409" transform="translate(0.21 0.25)"/>
  <path class="cls-4" d="M185.63,440V409" transform="translate(0.21 0.25)"/>
  <path class="cls-4" d="M514,424.52H325" transform="translate(0.21 0.25)"/>
  <path class="cls-4" d="M514,440V409" transform="translate(0.21 0.25)"/>
  <path class="cls-10" d="M493.51,311h20v19h-20Z" transform="translate(0.21 0.25)"/>
  <path class="cls-12" d="M207.27,389.74v-1.68H192.15v1.68Z" transform="translate(0.21 0.25)"/>
  <path class="cls-13" d="M528.41,231.14c0,5.82,3.21,9.06,8.94,9.06a12.39,12.39,0,0,0,7.71-2.55l.3-1.08-.3-.21c-2.82,1.71-4.38,2.25-6.72,2.25-4.71,0-7.29-2.88-7.29-8.22,0-4.14,1.71-10.32,8.55-10.32a9.14,9.14,0,0,1,5.37,1.5v2.52h.81a20.34,20.34,0,0,1,.81-4.38,15.63,15.63,0,0,0-5.85-1.23A12.18,12.18,0,0,0,528.41,231.14Z" transform="translate(0.21 0.25)"/>
  <path class="cls-12" d="M246.38,389.74v-1.68H231.26v1.68Z" transform="translate(0.21 0.25)"/>
  <path class="cls-12" d="M281.87,388.83v-1.68H266.75v1.68Z" transform="translate(0.21 0.25)"/>
  <path class="cls-12" d="M311,388.83v-1.68H295.86v1.68Z" transform="translate(0.21 0.25)"/>
  <path class="cls-14" d="M202.2,300.83v-1.77H195v-7.14h-1.77v7.14H186v1.77h7.2v7.23H195v-7.23Z" transform="translate(0.21 0.25)"/>
  <path class="cls-14" d="M236.59,299.47V297.7h-7.2v-7.14h-1.77v7.14h-7.2v1.77h7.2v7.23h1.77v-7.23Z" transform="translate(0.21 0.25)"/>
  <path class="cls-14" d="M274.15,299.47V297.7H267v-7.14h-1.77v7.14H258v1.77h7.2v7.23H267v-7.23Z" transform="translate(0.21 0.25)"/>
  <path class="cls-14" d="M309.62,301.57V299.8h-7.2v-7.14h-1.77v7.14h-7.2v1.77h7.2v7.23h1.77v-7.23Z" transform="translate(0.21 0.25)"/>
  <path class="cls-13" d="M523.41,166c0,5.82,3.21,9.06,8.94,9.06a12.39,12.39,0,0,0,7.71-2.55l.3-1.08-.3-.21c-2.82,1.71-4.38,2.25-6.72,2.25-4.71,0-7.29-2.88-7.29-8.22,0-4.14,1.71-10.32,8.55-10.32a9.14,9.14,0,0,1,5.37,1.5V159h.81a20.34,20.34,0,0,1,.81-4.38,15.63,15.63,0,0,0-5.85-1.23A12.18,12.18,0,0,0,523.41,166Zm22.38-5.58a25.78,25.78,0,0,0,3.87-6.78l-.39-.39c-1.08.36-1.38.45-2.91.9a14,14,0,0,1-2.34,6.69l.45.3Z" transform="translate(0.21 0.25)"/>
  <path class="cls-13" d="M543.07,336.26c0,.48-.45.75-1.29.81l-1.32.09V338c3.06-.09,3.06-.09,3.66-.09s.6,0,3.66.09v-.84l-.78-.09c-1.41-.21-1.44-.21-1.68-1.56l-2.61-18.75h-1.38l-11.19,17.79c-1.08,1.68-1.62,2.16-2.64,2.4l-.6.15v.9c2.76-.09,2.76-.09,3.36-.09s.63,0,3.21.09v-.84l-1.56-.09c-.48,0-.93-.3-.93-.57a4.93,4.93,0,0,1,.78-1.65l3.06-5.25h7.38l.75,5.64v.09A5.85,5.85,0,0,1,543.07,336.26Zm-2.13-16.38,1.11,8.64h-6.48Z" transform="translate(0.21 0.25)"/>
  <path class="cls-13" d="M586.89,270.67l-.36-.33a11.75,11.75,0,0,1-4.8,1.26l-.12.63h1.44c.72,0,1,.21,1,.72a5.37,5.37,0,0,1-.06.72l-.84,4.62a8.63,8.63,0,0,0-2.46-.42c-2.07,0-4.89,2.16-6.27,4.77a16.57,16.57,0,0,0-1.53,7.11c0,1.95.45,2.91,1.32,2.91a5.35,5.35,0,0,0,2.94-1.32,21.22,21.22,0,0,0,4.62-5.52l-.69,2.73a13,13,0,0,0-.48,3.06c0,.63.27,1,.78,1a4.53,4.53,0,0,0,2.25-1.11l2.43-1.8-.3-.57-1.32.93a2.51,2.51,0,0,1-1.17.51c-.24,0-.42-.27-.42-.69a5.82,5.82,0,0,1,.24-1.38Zm-11.07,19.89c-.48,0-.75-.42-.75-1.17,0-3.78,1.38-8.46,2.85-9.6a2.84,2.84,0,0,1,1.77-.45,6.3,6.3,0,0,1,3.18.69l-.36,1.77C581.4,287.2,577.17,290.56,575.82,290.56Z" transform="translate(0.21 0.25)"/>
  <path class="cls-13" d="M632.87,300.86l-.36-.33a12,12,0,0,1-4.8,1.26l-.12.63H629c.54,0,1,.09,1,.69a3.71,3.71,0,0,1-.06.75l-1.26,7a109.22,109.22,0,0,1-2.64,11.58l.21.33,2.07-.48a20.92,20.92,0,0,1,1.86-6.87c1.35-2.43,4.43-5.34,5.69-5.34a.62.62,0,0,1,.66.63,12.58,12.58,0,0,1-.45,2.7l-1.53,5.88a9.54,9.54,0,0,0-.39,2.28c0,.75.3,1.2.93,1.2,1,0,3-1.5,4.77-2.82l-.3-.54-.78.51a5.24,5.24,0,0,1-1.83.9c-.21,0-.39-.27-.39-.6a4.82,4.82,0,0,1,.21-1.2l1.92-7.68a10.2,10.2,0,0,0,.33-2.25c0-.51-.18-1.05-1-1.05-1.05,0-3.36,1.35-5.39,3.24a27.81,27.81,0,0,0-2.61,3l-.12-.06Z" transform="translate(0.21 0.25)"/>
  <path class="cls-13" d="M344.35,300.1c0-3.3-2.52-3.78-5-4.14a8.5,8.5,0,0,0,3.39-1.8,5.31,5.31,0,0,0,2.07-4.11c0-2.46-1.74-3.9-4.74-3.9-.06,0-.36,0-.81,0l-1.89,0c-.36,0-1.44,0-1.8,0-.57,0-1.5,0-3-.06l-1.56,0L331,287l1.59.06c.72,0,1.05.27,1.05.81a18.52,18.52,0,0,1-.27,2.28l-2.61,15.12c-.12.54-.48.75-1.74,1l-.15.78,1.11,0c.81-.06,1.26-.06,1.62-.06s1.11,0,1.89.06l1.11,0,.6,0c.57,0,1,.06,1.2.06C339.82,307.09,344.35,304.3,344.35,300.1ZM333,305.68l1.53-9h2.55c3.09,0,4.59,1.26,4.59,3.87a5.08,5.08,0,0,1-5.19,5.31C334.9,305.89,334.27,305.77,333,305.68Zm5.58-18.42c2.43,0,3.63,1.08,3.63,3.33,0,3.15-2.22,5-5.94,5h-1.56l1.47-8.22C336.7,287.41,337.93,287.26,338.62,287.26Z" transform="translate(0.21 0.25)"/>
  <path class="cls-13" d="M411.05,324.09c1.38,0,3.39-2.1,4.35-3v-.39H415c-.57.54-1.29,1.26-2.1,1.26-1.35,0-1.14-3.87-1.14-4.83a39.44,39.44,0,0,0,4-5.91c-.21-.45-.42-.93-.66-1.38h-.33c-.42,2-2.07,4.32-3.15,6.06.06-2.37.75-6.45-2.64-6.48-5,0-9.15,6.9-9.24,11.4,0,1.8.57,3.27,2.61,3.27,2.76,0,5.58-2.4,7.38-4.41C409.76,320.73,409.49,324.06,411.05,324.09Zm-3.48-13.59c2.61,0,2.22,6.39,2.19,8.19-1.29,1.53-3.72,4.08-5.85,4.08-1.59,0-1.92-1.26-1.89-2.61C402.05,317.55,404.3,310.5,407.57,310.5Z" transform="translate(0.21 0.25)"/>
  <path class="cls-12" d="M137.27,338.74v-1.68H122.15v1.68Z" transform="translate(0.21 0.25)"/>
  <path class="cls-13" d="M412.08,441.22l.09-.84-3.42.09c-.48,0-1,0-2.31,0l-1.92-.06-.09.84,1.41.06c.72,0,1.05.27,1.05.81L404,459.49c-.12.54-.48.75-1.8,1l-.15.78,1.23,0c.93,0,2.79-.06,3.39-.06l8.91,0,1,0a30.79,30.79,0,0,1,.69-4.95h-.93l-.51,1.86c-.27,1-.54,1.47-.81,1.62a22.08,22.08,0,0,1-4.32.3,38.91,38.91,0,0,1-4.26-.21c.09-.54,2.82-16.77,2.82-17,.21-1.14.42-1.35,1.53-1.44Z" transform="translate(0.21 0.25)"/>
  <path class="cls-13" d="M259.14,438.48l-.36-.33a11.75,11.75,0,0,1-4.8,1.26l-.12.63h1.44c.72,0,1,.21,1,.66a4.41,4.41,0,0,1-.09.78c-.33,1.65-2.52,13.2-3,14.7a13.57,13.57,0,0,0-.57,3c0,.75.33,1.2.9,1.2.78,0,1.86-.63,4.8-2.82l-.3-.54-.78.51a5,5,0,0,1-1.83.9c-.21,0-.39-.3-.39-.6a4.44,4.44,0,0,1,.12-.84Z" transform="translate(0.21 0.25)"/>
  <path class="cls-13" d="M558.65,369.78a2.91,2.91,0,0,0,1.29.36c1,0,2.16-.87,3.09-2.28l2.28-3.51.33,2.07c.39,2.55,1.08,3.72,2.16,3.72a4.55,4.55,0,0,0,2.58-1.38l1.47-1.32-.27-.57a4.76,4.76,0,0,1-2.31,1.35c-.45,0-.84-.3-1.14-.9a11.77,11.77,0,0,1-.75-2.55l-.54-3,1-1.47c1.41-1.94,2.22-2.63,3.15-2.63a1,1,0,0,1,1,.69l.42-.12.45-2.55a1.76,1.76,0,0,0-.9-.3c-1.2,0-2.4,1.08-4.26,3.83l-1.11,1.65-.18-1.44c-.36-3-1.17-4-2.94-4a2.11,2.11,0,0,0-1.71.63l-1.74,2.48.51.3c.9-1,1.5-1.43,2.07-1.43,1,0,1.65,1.22,2.16,4.16l.33,1.86-1.2,1.86c-1.29,2-2.31,3-3.15,3-.45,0-.78-.12-.84-.27l-.33-.84-.6.09A14.81,14.81,0,0,1,558.65,369.78Z" transform="translate(0.21 0.25)"/>
  <path class="cls-13" d="M502.5,351.47c-4.65,0-7,3.69-7,10.95,0,3.51.63,6.54,1.68,8a5.56,5.56,0,0,0,4.59,2.31c4.53,0,6.81-3.9,6.81-11.58C508.56,354.59,506.61,351.47,502.5,351.47Zm-.54,1c2.91,0,4.08,2.94,4.08,10.14,0,6.39-1.14,9-3.9,9s-4.14-3-4.14-10.35C498,355,499.11,352.52,502,352.52Z" transform="translate(0.21 0.25)"/>
  <path class="cls-13" d="M524.85,25c0,2.55,1.14,4,3.66,4.56l2.85.69a2.92,2.92,0,0,1,2.43,3.15c0,2.85-2.13,4.83-5.22,4.83A6.43,6.43,0,0,1,524.49,37V34h-.9a43.82,43.82,0,0,1-.72,4.56,10.23,10.23,0,0,0,4.65,1.14c4.65,0,8.64-3.51,8.64-7.56,0-2.37-1.29-3.63-4.32-4.29l-2-.42A3.2,3.2,0,0,1,527,23.9a4.49,4.49,0,0,1,4.77-4.5,4.16,4.16,0,0,1,3.36,1.35V23h.9a16,16,0,0,1,.75-4.05,8,8,0,0,0-4-1C529.11,18,524.85,20.72,524.85,25Z" transform="translate(0.21 0.25)"/>
  <path class="cls-13" d="M74.4,54.54a3.64,3.64,0,0,0,0,.54,2.41,2.41,0,0,0,2.46,2.34c3.18,0,6.48-3.72,8.25-9.27L89.31,35,89,34.68a8.34,8.34,0,0,1-2.22.57l-1.05,4a19.35,19.35,0,0,1-2.4,5.07c-1,1.53-2.52,2.85-3.18,2.85-.36,0-.63-.69-.6-1.44L80,39.48c.06-.93.12-2.07.12-2.91,0-1.35-.21-1.89-.72-1.89s-.81.21-2.25,1.2L74.7,37.56l.33.54,1.5-.9a1.75,1.75,0,0,1,.75-.36c.42,0,.66.57.66,1.56a3.73,3.73,0,0,1,0,.45l-.51,7.29,0,1.2c0,1.26.54,2.13,1.29,2.13,1.11,0,3.63-2.55,5.88-5.94l-1.47,5.13c-1.53,5.31-3,7.5-5.13,7.5a1.83,1.83,0,0,1-1.86-1.86c0-.15,0-.39.06-.66l-.3-.12Z" transform="translate(0.21 0.25)"/>
</svg>
