<svg id="Livello_1" data-name="Livello 1" xmlns="http://www.w3.org/2000/svg" xmlns:xlink="http://www.w3.org/1999/xlink" width="662.5" height="629.5" viewBox="0 0 662.5 629.5">
  <defs>
    <style>
      .cls-1, .cls-10, .cls-2, .cls-4, .cls-6, .cls-7, .cls-8, .cls-9 {
        fill: none;
      }

      .cls-2, .cls-3 {
        stroke: #d3d3d3;
        stroke-width: 0.5px;
      }

      .cls-3 {
        fill: url(#_.4169564083222199);
      }

      .cls-16, .cls-4 {
        stroke: red;
      }

      .cls-10, .cls-4, .cls-7 {
        stroke-width: 4px;
      }

      .cls-16, .cls-5 {
        fill: red;
      }

      .cls-12, .cls-13, .cls-15, .cls-18, .cls-6, .cls-7, .cls-8 {
        stroke: #000;
      }

      .cls-8 {
        stroke-dasharray: 6 6;
      }

      .cls-10, .cls-14, .cls-17, .cls-9 {
        stroke: #4a90e2;
      }

      .cls-9 {
        stroke-width: 3px;
      }

      .cls-11, .cls-14, .cls-17 {
        fill: #4a90e2;
      }

      .cls-12, .cls-13, .cls-14, .cls-15, .cls-16, .cls-17, .cls-18 {
        stroke-miterlimit: 10;
      }

      .cls-12 {
        stroke-width: 0.32px;
      }

      .cls-13 {
        stroke-width: 0.22px;
      }

      .cls-14, .cls-16 {
        stroke-width: 0.48px;
      }

      .cls-15 {
        stroke-width: 0.48px;
      }

      .cls-17 {
        stroke-width: 0.4px;
      }

      .cls-18 {
        stroke-width: 0.24px;
      }
    </style>
    <pattern id="_.4169564083222199" data-name=".4169564083222199" width="10" height="10" patternTransform="matrix(1, 0, 0, -1, -2.75, 848.14)" patternUnits="userSpaceOnUse" viewBox="0 0 10 10">
      <rect class="cls-1" width="10" height="10"/>
      <path class="cls-2" d="M10,10H0V0"/>
    </pattern>
  </defs>
  <rect class="cls-3" x="0.25" y="0.25" width="662" height="629"/>
  <g>
    <g>
      <path class="cls-4" d="M139.91,144.36H389" transform="translate(0.25 0.25)"/>
      <path class="cls-5" d="M150.88,136.21l-17,8.15,17,8.15Z" transform="translate(0.25 0.25)"/>
    </g>
    <path class="cls-6" d="M32.63,51.68H99.51V428.12H32.63Z" transform="translate(0.25 0.25)"/>
    <path class="cls-6" d="M416.71,39.66h66.88V209.33H416.71Z" transform="translate(0.25 0.25)"/>
    <g>
      <path class="cls-7" d="M27.85,452H547.34" transform="translate(0.25 0.25)"/>
      <path d="M536.37,460.16l17-8.15-17-8.15Z" transform="translate(0.25 0.25)"/>
    </g>
    <path class="cls-6" d="M417.67,255.58h66.88V425.26H417.67Z" transform="translate(0.25 0.25)"/>
    <g>
      <path class="cls-4" d="M139,89.9h249.1" transform="translate(0.25 0.25)"/>
      <path class="cls-5" d="M149.92,81.75,133,89.9l17,8.15Z" transform="translate(0.25 0.25)"/>
    </g>
    <g>
      <path class="cls-4" d="M143.73,287.68h249.1" transform="translate(0.25 0.25)"/>
      <path class="cls-5" d="M154.7,279.53l-17,8.15,17,8.15Z" transform="translate(0.25 0.25)"/>
    </g>
    <g>
      <path class="cls-4" d="M142.77,341.18h249.1" transform="translate(0.25 0.25)"/>
      <path class="cls-5" d="M153.74,333l-17,8.15,17,8.15Z" transform="translate(0.25 0.25)"/>
    </g>
    <g>
      <path class="cls-4" d="M144.68,393.73h249.1" transform="translate(0.25 0.25)"/>
      <path class="cls-5" d="M155.65,385.58l-17,8.15,17,8.15Z" transform="translate(0.25 0.25)"/>
    </g>
    <path class="cls-8" d="M149.19,229.39H582" transform="translate(0.25 0.25)"/>
    <path class="cls-9" d="M100.47,229.39a23.89,23.89,0,1,1,23.88,23.89A23.88,23.88,0,0,1,100.47,229.39Z" transform="translate(0.25 0.25)"/>
    <g>
      <path class="cls-7" d="M27.85,452H547.34" transform="translate(0.25 0.25)"/>
      <path d="M536.37,460.16l17-8.15-17-8.15Z" transform="translate(0.25 0.25)"/>
    </g>
    <path class="cls-7" d="M65.11,542.77H460.66" transform="translate(0.25 0.25)"/>
    <path class="cls-9" d="M491.23,229.39a23.89,23.89,0,1,1,23.89,23.89A23.89,23.89,0,0,1,491.23,229.39Z" transform="translate(0.25 0.25)"/>
    <g>
      <path class="cls-10" d="M539,229.39h65" transform="translate(0.25 0.25)"/>
      <path class="cls-11" d="M593,237.54l17-8.15-17-8.15Z" transform="translate(0.25 0.25)"/>
    </g>
  </g>
  <g>
    <path class="cls-12" d="M46.64,510.51c3.84-.08,6.16-.12,9.64-.12,3.12,0,7.8,0,10.24.08l2.64,0a52.69,52.69,0,0,1,.92-6.68H69l-.28.88-1.28,3.6a24.61,24.61,0,0,1-5.08.52H51.16l20.16-25.32v-.8l-6.48.12h-1l-13.16-.12a53.94,53.94,0,0,1-.44,6.36h1a21.67,21.67,0,0,1,.84-3.44l.24-.8a35.35,35.35,0,0,1,7.2-.52h7.2L46.64,509.63Z" transform="translate(0.25 0.25)"/>
    <path class="cls-13" d="M89.55,515.9c0,.45-.42.7-1.21.75l-1.23.09v.78c2.86-.08,2.86-.08,3.42-.08s.56,0,3.41.08v-.78l-.72-.09c-1.32-.19-1.35-.19-1.57-1.45l-2.44-17.5H87.92L77.48,514.3c-1,1.57-1.51,2-2.46,2.24l-.56.14v.84c2.57-.08,2.57-.08,3.13-.08s.59,0,3,.08v-.78l-1.46-.09c-.45,0-.87-.28-.87-.53a4.77,4.77,0,0,1,.73-1.54l2.86-4.9h6.89l.7,5.27V515A5.72,5.72,0,0,1,89.55,515.9Zm-2-15.29,1,8.06h-6Z" transform="translate(0.25 0.25)"/>
  </g>
  <g>
    <path class="cls-12" d="M438.46,511.51c3.84-.08,6.16-.12,9.64-.12,3.12,0,7.8,0,10.24.08l2.64,0a52.69,52.69,0,0,1,.92-6.68h-1l-.28.88-1.28,3.6a24.61,24.61,0,0,1-5.08.52H443l20.16-25.32v-.8l-6.48.12h-1l-13.16-.12a53.94,53.94,0,0,1-.44,6.36h1a21.67,21.67,0,0,1,.84-3.44l.24-.8a35.35,35.35,0,0,1,7.2-.52h7.2l-20.08,25.32Z" transform="translate(0.25 0.25)"/>
    <path class="cls-13" d="M480.69,512.08c0-3.08-2.35-3.53-4.65-3.86a7.88,7.88,0,0,0,3.16-1.68,5,5,0,0,0,1.94-3.84c0-2.29-1.63-3.64-4.43-3.64,0,0-.33,0-.75,0l-1.77,0c-.33,0-1.34,0-1.68,0-.53,0-1.4,0-2.77-.06l-1.46,0-.08.79,1.48,0c.68,0,1,.25,1,.76a17.26,17.26,0,0,1-.25,2.13L468,516.9c-.12.5-.45.7-1.63.89l-.14.73,1,0c.75,0,1.17,0,1.51,0l1.76,0,1,0,.56,0,1.12.05C476.46,518.6,480.69,516,480.69,512.08Zm-10.56,5.21,1.43-8.37h2.38c2.88,0,4.28,1.17,4.28,3.61a4.74,4.74,0,0,1-4.84,5C471.87,517.49,471.28,517.37,470.13,517.29Zm5.21-17.19c2.27,0,3.39,1,3.39,3.11,0,2.94-2.07,4.7-5.55,4.7h-1.45l1.37-7.67C473.55,500.24,474.7,500.1,475.34,500.1Z" transform="translate(0.25 0.25)"/>
  </g>
  <path class="cls-12" d="M536.36,499.17c3.84-.08,6.16-.12,9.64-.12,3.12,0,7.8,0,10.24.08l2.64,0a52.69,52.69,0,0,1,.92-6.68h-1l-.28.88L557.2,497a24.61,24.61,0,0,1-5.08.52H540.88L561,472.17v-.8l-6.48.12h-1l-13.16-.12a53.94,53.94,0,0,1-.44,6.36h1a21.67,21.67,0,0,1,.84-3.44l.24-.8a35.35,35.35,0,0,1,7.2-.52h7.2l-20.08,25.32Z" transform="translate(0.25 0.25)"/>
  <path class="cls-14" d="M83.19,393.45v-3.36H53v3.36Z" transform="translate(0.25 0.25)"/>
  <g>
    <path class="cls-12" d="M272.17,62.73h4.68l5.28.16.76-1.8-.16-.28c-3.24.16-5.64.24-8.76.24h-1.48l1.88-10.8c1.28,0,4.6-.16,5.48-.16,2.48,0,4.12.36,4.16,1l.32,3.56h1a27,27,0,0,1,.84-6.08c-.84-.08-2-.12-2.76-.12-.12,0-.56,0-1.52,0l-4.8,0c-.36,0-7.32,0-7.72,0l-1.8,0-.12,1.12,2.16.08c1,0,1.4.36,1.4,1.08a24.69,24.69,0,0,1-.36,3l-3.48,20.16c-.16.72-.64,1-2.4,1.28l-.2,1,1.64,0c1.24,0,3.72-.08,4.52-.08l9,.12c.56,0,1.56,0,2.88-.08l1.32,0,.16-1.44c.08-.8.28-2,.64-4l.2-1h-1.08l-.64,2.4c-.4,1.44-.76,1.92-1.64,2.12a46.29,46.29,0,0,1-5.88.36,53.7,53.7,0,0,1-5.48-.28Z" transform="translate(0.25 0.25)"/>
    <path d="M289.72,33.52l-7.42-7.81-1.15,1.22,4.54,5.47h-.36v2.12h.36L281.15,40l1.15,1.22Zm-22.43.9h21.35V32.3H267.29Z" transform="translate(0.25 0.25)"/>
  </g>
  <path class="cls-15" d="M69.49,441.28l-3.36,0,.32,30.23,3.36,0Z" transform="translate(0.25 0.25)"/>
  <path class="cls-15" d="M455.48,437.45l-3.36,0,.32,30.24,3.36,0Z" transform="translate(0.25 0.25)"/>
  <path class="cls-16" d="M468.21,181v-3.54h-14.4V163.2h-3.54v14.28h-14.4V181h14.4v14.46h3.54V181Z" transform="translate(0.25 0.25)"/>
  <path class="cls-16" d="M465.33,70.38V66.84h-14.4V52.56h-3.54V66.84H433v3.54h14.4V84.84h3.54V70.38Z" transform="translate(0.25 0.25)"/>
  <path class="cls-14" d="M81.27,343.76V340.4H51v3.36Z" transform="translate(0.25 0.25)"/>
  <path class="cls-14" d="M79.36,279.75v-3.36H49.12v3.36Z" transform="translate(0.25 0.25)"/>
  <path class="cls-14" d="M80.32,223.37V220H50.08v3.36Z" transform="translate(0.25 0.25)"/>
  <path class="cls-14" d="M81.27,158.4V155H51v3.36Z" transform="translate(0.25 0.25)"/>
  <path class="cls-14" d="M81.27,95.36V92H51v3.36Z" transform="translate(0.25 0.25)"/>
  <path class="cls-16" d="M469.16,397v-3.54h-14.4V379.13h-3.54v14.28h-14.4V397h14.4v14.46h3.54V397Z" transform="translate(0.25 0.25)"/>
  <path class="cls-16" d="M466.3,286.31v-3.54H451.9V268.49h-3.54v14.28H434v3.54h14.4v14.46h3.54V286.31Z" transform="translate(0.25 0.25)"/>
  <path class="cls-15" d="M463.13,529.17l-3.36,0,.33,30.23,3.35,0Z" transform="translate(0.25 0.25)"/>
  <path class="cls-15" d="M68.54,529.17l-3.36,0,.32,30.23,3.36,0Z" transform="translate(0.25 0.25)"/>
  <path class="cls-12" d="M253.75,557.1l-.48-.44a16,16,0,0,1-6.4,1.68l-.16.84h1.92c.72,0,1.36.12,1.36.92a4.94,4.94,0,0,1-.08,1l-1.68,9.36a145.62,145.62,0,0,1-3.52,15.44l.28.44,2.76-.64c.32-2.28.88-6.28,2.48-9.16,1.8-3.24,5.92-7.12,7.6-7.12a.83.83,0,0,1,.88.84,16.78,16.78,0,0,1-.6,3.6l-2,7.84a12.73,12.73,0,0,0-.52,3c0,1,.4,1.6,1.24,1.6,1.28,0,4-2,6.36-3.76l-.4-.72-1,.68a7,7,0,0,1-2.44,1.2c-.28,0-.52-.36-.52-.8a6.42,6.42,0,0,1,.28-1.6l2.56-10.24a13.6,13.6,0,0,0,.44-3c0-.68-.24-1.4-1.28-1.4-1.4,0-4.48,1.8-7.2,4.32a37.08,37.08,0,0,0-3.48,4l-.16-.08Z" transform="translate(0.25 0.25)"/>
  <path class="cls-17" d="M139,232v-2.8h-25.2V232Z" transform="translate(0.25 0.25)"/>
  <path class="cls-17" d="M526.94,232v-2.8h-25.2V232Z" transform="translate(0.25 0.25)"/>
  <path class="cls-12" d="M570.3,254.59a19.79,19.79,0,0,0,2.52-.16c-4.44,4.8-6.12,8.12-6.12,12.12,0,3.08,1.84,5.28,4.4,5.28,5.52,0,11.64-9.88,11.64-15.8,0-2.28-1-3.92-2.48-3.92a1.85,1.85,0,0,0-1.32.48l-2,1.88.44.76a1.94,1.94,0,0,1,1.08-.36c1.08,0,1.72.92,1.72,2.52,0,5.92-3.88,12.44-7.4,12.44-2,0-3.2-1.68-3.2-4.28,0-4.2,1.56-7.84,5.48-12.72l-.4-.72a5,5,0,0,1-2.44.48c-1.12,0-2.8-.08-4-.2l-.48,0a3,3,0,0,0-.48,0,2.84,2.84,0,0,0-1.28.28,21,21,0,0,0-1.52,4.72h.88l.68-1.68a2.12,2.12,0,0,1,2-1.12C569.42,254.51,568.78,254.59,570.3,254.59Z" transform="translate(0.25 0.25)"/>
  <path class="cls-12" d="M519.78,193l-1,.68c-2.12,1.52-4,2.32-5.48,2.32-1.88,0-3-1.48-3-3.88a19.28,19.28,0,0,1,.32-3.24c.68-.16,5-1.36,6-1.8,3.4-1.48,5-3.32,5-5.8a3.07,3.07,0,0,0-3.36-3.12c-2.72-.56-7.12,2.36-8.6,5.32a24,24,0,0,0-2.4,9.44c0,3.12,1.76,5,4.64,5,2.28,0,4.52-1.12,8.2-4.12Zm-8.6-6.52c.68-2.76,1.48-4.48,2.64-5.52a4.9,4.9,0,0,1,2.92-1.12,1.87,1.87,0,0,1,1.92,2.08c0,1.76-1.4,3.64-3.48,4.64a19.29,19.29,0,0,1-4.36,1.4Z" transform="translate(0.25 0.25)"/>
  <path class="cls-12" d="M126.78,195l-1,.68c-2.12,1.52-4,2.32-5.48,2.32-1.88,0-3-1.48-3-3.88a19.28,19.28,0,0,1,.32-3.24c.68-.16,5-1.36,6-1.8,3.4-1.48,5-3.32,5-5.8a3.07,3.07,0,0,0-3.36-3.12c-2.72-.56-7.12,2.36-8.6,5.32a24,24,0,0,0-2.4,9.44c0,3.12,1.76,5,4.64,5,2.28,0,4.52-1.12,8.2-4.12Zm-8.6-6.52c.68-2.76,1.48-4.48,2.64-5.52a4.9,4.9,0,0,1,2.92-1.12,1.87,1.87,0,0,1,1.92,2.08c0,1.76-1.4,3.64-3.48,4.64a19.29,19.29,0,0,1-4.36,1.4Z" transform="translate(0.25 0.25)"/>
  <g>
    <path class="cls-18" d="M156.21,247.79a14.84,14.84,0,0,0,1.89-.12c-3.33,3.6-4.59,6.09-4.59,9.09,0,2.31,1.38,4,3.3,4,4.14,0,8.73-7.41,8.73-11.85,0-1.71-.78-2.94-1.86-2.94a1.39,1.39,0,0,0-1,.36l-1.5,1.41.33.57a1.45,1.45,0,0,1,.81-.27c.81,0,1.29.69,1.29,1.89,0,4.44-2.91,9.33-5.55,9.33-1.47,0-2.4-1.26-2.4-3.21,0-3.15,1.17-5.88,4.11-9.54l-.3-.54a3.76,3.76,0,0,1-1.83.36c-.84,0-2.1-.06-3-.15l-.36,0a2.25,2.25,0,0,0-.36,0,2.13,2.13,0,0,0-1,.21,15.76,15.76,0,0,0-1.14,3.54h.66l.51-1.26a1.59,1.59,0,0,1,1.53-.84C155.55,247.73,155.07,247.79,156.21,247.79Z" transform="translate(0.25 0.25)"/>
    <path class="cls-18" d="M193.31,250v-1.77H177.14V250Zm0,6.39V254.6H177.14v1.77Z" transform="translate(0.25 0.25)"/>
    <path class="cls-18" d="M212.11,239.72c-4.65,0-7,3.69-7,10.95,0,3.51.63,6.54,1.68,8a5.56,5.56,0,0,0,4.59,2.31c4.53,0,6.81-3.9,6.81-11.58C218.17,242.84,216.22,239.72,212.11,239.72Zm-.54,1.05c2.91,0,4.08,2.94,4.08,10.14,0,6.39-1.14,9-3.9,9-2.91,0-4.14-3-4.14-10.35C207.61,243.26,208.72,240.77,211.57,240.77Z" transform="translate(0.25 0.25)"/>
  </g>
</svg>
