<svg id="Livello_1" data-name="Livello 1" xmlns="http://www.w3.org/2000/svg" xmlns:xlink="http://www.w3.org/1999/xlink" width="662.5" height="627.5" viewBox="0 0 662.5 627.5">
  <defs>
    <style>
      .cls-1, .cls-2, .cls-4, .cls-6, .cls-7, .cls-9 {
        fill: none;
      }

      .cls-2, .cls-3 {
        stroke: #d3d3d3;
        stroke-width: 0.5px;
      }

      .cls-3 {
        fill: url(#_.4169564083222199);
      }

      .cls-10, .cls-4 {
        stroke: red;
      }

      .cls-4, .cls-7 {
        stroke-width: 4px;
      }

      .cls-10, .cls-5 {
        fill: red;
      }

      .cls-11, .cls-12, .cls-14, .cls-6, .cls-7, .cls-8, .cls-9 {
        stroke: #000;
      }

      .cls-9 {
        stroke-width: 2px;
      }

      .cls-10, .cls-11, .cls-12, .cls-13, .cls-14 {
        stroke-miterlimit: 10;
      }

      .cls-10, .cls-13 {
        stroke-width: 0.48px;
      }

      .cls-11 {
        stroke-width: 0.32px;
      }

      .cls-12 {
        stroke-width: 0.22px;
      }

      .cls-13 {
        fill: #4a90e2;
        stroke: #4a90e2;
      }

      .cls-14 {
        stroke-width: 0.48px;
      }
    </style>
    <pattern id="_.4169564083222199" data-name=".4169564083222199" width="10" height="10" patternTransform="matrix(1, 0, 0, -1, -2.75, 849.14)" patternUnits="userSpaceOnUse" viewBox="0 0 10 10">
      <rect class="cls-1" width="10" height="10"/>
      <path class="cls-2" d="M10,10H0V0"/>
    </pattern>
  </defs>
  <rect class="cls-3" x="0.25" y="0.25" width="662" height="627"/>
  <g>
    <g>
      <path class="cls-4" d="M169,182H430" transform="translate(0.25 0.25)"/>
      <path class="cls-5" d="M419,190.15,436,182l-17-8.15Z" transform="translate(0.25 0.25)"/>
    </g>
    <path class="cls-6" d="M467,67h70V461H467Z" transform="translate(0.25 0.25)"/>
    <path class="cls-6" d="M58,65h70V459H58Z" transform="translate(0.25 0.25)"/>
    <g>
      <path class="cls-7" d="M98,491H496" transform="translate(0.25 0.25)"/>
      <path d="M485,499.15,502,491l-17-8.15Z" transform="translate(0.25 0.25)"/>
    </g>
    <g>
      <path class="cls-4" d="M167,399H428" transform="translate(0.25 0.25)"/>
      <path class="cls-5" d="M417,407.15,434,399l-17-8.15Z" transform="translate(0.25 0.25)"/>
    </g>
    <path class="cls-8" d="M195,245a8,8,0,1,1,8,8A8,8,0,0,1,195,245Z" transform="translate(0.25 0.25)"/>
    <path class="cls-8" d="M387,161a8,8,0,1,1,8,8A8,8,0,0,1,387,161Z" transform="translate(0.25 0.25)"/>
    <g>
      <path class="cls-7" d="M203,245l178.54-81.51" transform="translate(0.25 0.25)"/>
      <path d="M375,175.46,387,161l-18.82-.37Z" transform="translate(0.25 0.25)"/>
    </g>
    <g>
      <path class="cls-9" d="M203,245c35-79-4-179,192-84" transform="translate(0.25 0.25)"/>
      <path d="M252.66,132.18l9.65-8.53-12.69-2.21Z" transform="translate(0.25 0.25)"/>
    </g>
    <g>
      <path class="cls-4" d="M170,334H431" transform="translate(0.25 0.25)"/>
      <path class="cls-5" d="M420,342.15,437,334l-17-8.15Z" transform="translate(0.25 0.25)"/>
    </g>
    <g>
      <path class="cls-4" d="M169,107H430" transform="translate(0.25 0.25)"/>
      <path class="cls-5" d="M419,115.15,436,107l-17-8.15Z" transform="translate(0.25 0.25)"/>
    </g>
    <g>
      <path class="cls-4" d="M164,259H425" transform="translate(0.25 0.25)"/>
      <path class="cls-5" d="M414,267.15,431,259l-17-8.15Z" transform="translate(0.25 0.25)"/>
    </g>
  </g>
  <path class="cls-10" d="M109.15,419.38v-3.54H94.75V401.56H91.21v14.28H76.81v3.54h14.4v14.46h3.54V419.38Z" transform="translate(0.25 0.25)"/>
  <g>
    <g>
      <path class="cls-11" d="M332.42,234.63l-2.84-21.12c-.08-.88.08-1.48,1.68-1.52l1.68-.08v-1.12l-1.64,0c-1.48,0-2.6.08-3.32.08s-1.84,0-3.32-.08l-1.64,0v1.12l1,.08c1.76.12,2.08.44,2.36,1.92l3.52,24.88h2L347,214c1-1.6,1.32-1.88,2.48-2l.72-.08v-1.12l-1.2,0c-1.08,0-2,.08-2.64.08-.4,0-1.48,0-3.12-.08l-1.84,0v1.12l1,.08c1.52.12,2.28.52,2.28,1.28a3.28,3.28,0,0,1-.64,1.68Z" transform="translate(0.25 0.25)"/>
      <path d="M350.85,195.89l-7.42-7.81-1.15,1.22,4.54,5.47h-.36v2.12h.36l-4.54,5.47,1.15,1.22Zm-26.87.9h25.79v-2.12H324Z" transform="translate(0.25 0.25)"/>
    </g>
    <path class="cls-12" d="M365.92,250.73c0,.44-.42.7-1.2.75l-1.23.09v.78c2.85-.08,2.85-.08,3.41-.08s.56,0,3.42.08v-.78l-.73-.09c-1.32-.19-1.34-.19-1.57-1.45l-2.43-17.5H364.3l-10.45,16.6c-1,1.57-1.51,2-2.46,2.24l-.56.14v.84c2.58-.08,2.58-.08,3.14-.08s.58,0,3,.08v-.78l-1.45-.09c-.45,0-.87-.28-.87-.53a4.45,4.45,0,0,1,.73-1.54l2.85-4.9h6.89l.7,5.26v.09A5.33,5.33,0,0,1,365.92,250.73Zm-2-15.29,1,8.06h-6.05Zm22.35,10.47c0-3.08-2.35-3.53-4.65-3.86a7.88,7.88,0,0,0,3.16-1.68,5,5,0,0,0,1.94-3.84c0-2.3-1.63-3.64-4.43-3.64-.05,0-.33,0-.75,0l-1.77,0c-.33,0-1.34,0-1.68,0l-2.77-.05-1.46,0-.08.78,1.48.06c.68,0,1,.25,1,.76a17.14,17.14,0,0,1-.25,2.12l-2.43,14.12c-.12.5-.45.7-1.63.89l-.14.73,1,0c.75,0,1.17,0,1.51,0l1.76,0,1,0,.56,0,1.12.05C382.05,252.43,386.28,249.83,386.28,245.91Zm-10.56,5.21,1.43-8.37h2.38c2.88,0,4.28,1.17,4.28,3.61a4.73,4.73,0,0,1-4.84,4.95C377.46,251.31,376.87,251.2,375.72,251.12Zm5.21-17.19c2.27,0,3.39,1,3.39,3.1,0,2.94-2.07,4.71-5.55,4.71h-1.45l1.37-7.67C379.14,234.07,380.29,233.93,380.93,233.93Z" transform="translate(0.25 0.25)"/>
  </g>
  <path class="cls-11" d="M181.7,294.28c0,.64-.6,1-1.72,1.08l-1.76.12v1.12c4.08-.12,4.08-.12,4.88-.12s.8,0,4.88.12v-1.12l-1-.12c-1.88-.28-1.92-.28-2.24-2.08l-3.48-25h-1.84L164.46,292c-1.44,2.24-2.16,2.88-3.52,3.2l-.8.2v1.2c3.68-.12,3.68-.12,4.48-.12s.84,0,4.28.12v-1.12l-2.08-.12c-.64,0-1.24-.4-1.24-.76a6.57,6.57,0,0,1,1-2.2l4.08-7h9.84l1,7.52V293A7.8,7.8,0,0,1,181.7,294.28Zm-2.84-21.84L180.34,284H171.7Z" transform="translate(0.25 0.25)"/>
  <path class="cls-11" d="M443.74,152.4c0-4.4-3.36-5-6.64-5.52a11.34,11.34,0,0,0,4.52-2.4,7.08,7.08,0,0,0,2.76-5.48c0-3.28-2.32-5.2-6.32-5.2-.08,0-.48,0-1.08,0l-2.52,0c-.48,0-1.92,0-2.4,0-.76,0-2,0-4-.08l-2.08,0-.12,1.12L428,135c1,0,1.4.36,1.4,1.08a24.69,24.69,0,0,1-.36,3l-3.48,20.16c-.16.72-.64,1-2.32,1.28l-.2,1,1.48,0c1.08-.08,1.68-.08,2.16-.08s1.48,0,2.52.08l1.48,0,.8,0c.76,0,1.28.08,1.6.08C437.7,161.72,443.74,158,443.74,152.4Zm-15.08,7.44,2-12h3.4c4.12,0,6.12,1.68,6.12,5.16a6.77,6.77,0,0,1-6.92,7.08C431.14,160.12,430.3,160,428.66,159.84Zm7.44-24.56c3.24,0,4.84,1.44,4.84,4.44,0,4.2-3,6.72-7.92,6.72h-2.08l2-11C433.54,135.48,435.18,135.28,436.1,135.28Z" transform="translate(0.25 0.25)"/>
  <g>
    <path class="cls-11" d="M186.82,554.6c3.84-.08,6.16-.12,9.64-.12,3.12,0,7.8,0,10.24.08l2.64,0a52.69,52.69,0,0,1,.92-6.68h-1l-.28.88-1.28,3.6a24.61,24.61,0,0,1-5.08.52H191.34L211.5,527.6v-.8l-6.48.12h-1l-13.16-.12a53.94,53.94,0,0,1-.44,6.36h1a21.67,21.67,0,0,1,.84-3.44l.24-.8a35.35,35.35,0,0,1,7.2-.52h7.2l-20.08,25.32Z" transform="translate(0.25 0.25)"/>
    <path class="cls-12" d="M229.72,560c0,.45-.42.7-1.2.76l-1.24.08v.78c2.86-.08,2.86-.08,3.42-.08s.56,0,3.42.08v-.78l-.73-.08c-1.32-.2-1.35-.2-1.57-1.46l-2.44-17.5H228.1l-10.45,16.6c-1,1.57-1.51,2-2.46,2.24l-.56.14v.84c2.57-.08,2.57-.08,3.13-.08s.59,0,3,.08v-.78l-1.46-.08c-.44,0-.86-.28-.86-.54a4.63,4.63,0,0,1,.72-1.54l2.86-4.9h6.89l.7,5.27v.08A5.72,5.72,0,0,1,229.72,560Zm-2-15.29,1,8.07h-6.05Z" transform="translate(0.25 0.25)"/>
  </g>
  <g>
    <path class="cls-11" d="M371.82,545.6c3.84-.08,6.16-.12,9.64-.12,3.12,0,7.8,0,10.24.08l2.64,0a52.69,52.69,0,0,1,.92-6.68h-1l-.28.88-1.28,3.6a24.61,24.61,0,0,1-5.08.52H376.34L396.5,518.6v-.8l-6.48.12h-1l-13.16-.12a53.94,53.94,0,0,1-.44,6.36h1a21.67,21.67,0,0,1,.84-3.44l.24-.8a35.35,35.35,0,0,1,7.2-.52h7.2l-20.08,25.32Z" transform="translate(0.25 0.25)"/>
    <path class="cls-12" d="M414.05,546.17c0-3.08-2.35-3.52-4.65-3.86a7.88,7.88,0,0,0,3.16-1.68,5,5,0,0,0,1.94-3.83c0-2.3-1.63-3.64-4.43-3.64l-.75,0-1.77,0c-.33,0-1.34,0-1.68,0-.53,0-1.4,0-2.77-.06l-1.46,0-.08.78L403,534c.68,0,1,.25,1,.75a17.26,17.26,0,0,1-.25,2.13L401.34,551c-.12.5-.45.7-1.63.9l-.14.72,1,0c.75-.06,1.17-.06,1.51-.06s1,0,1.76.06l1,0,.56,0c.53,0,.9.06,1.12.06C409.82,552.7,414.05,550.09,414.05,546.17Zm-10.56,5.21,1.43-8.37h2.38c2.88,0,4.28,1.18,4.28,3.61a4.73,4.73,0,0,1-4.84,5A31.38,31.38,0,0,1,403.49,551.38Zm5.21-17.19c2.27,0,3.39,1,3.39,3.11,0,2.94-2.07,4.7-5.55,4.7h-1.45l1.37-7.67C406.91,534.33,408.06,534.19,408.7,534.19Z" transform="translate(0.25 0.25)"/>
  </g>
  <path class="cls-11" d="M507.82,541.6c3.84-.08,6.16-.12,9.64-.12,3.12,0,7.8,0,10.24.08l2.64,0a52.69,52.69,0,0,1,.92-6.68h-1l-.28.88-1.28,3.6a24.61,24.61,0,0,1-5.08.52H512.34L532.5,514.6v-.8l-6.48.12h-1l-13.16-.12a53.94,53.94,0,0,1-.44,6.36h1a21.67,21.67,0,0,1,.84-3.44l.24-.8a35.35,35.35,0,0,1,7.2-.52h7.2l-20.08,25.32Z" transform="translate(0.25 0.25)"/>
  <path class="cls-13" d="M519.21,424.26V420.9H489v3.36Z" transform="translate(0.25 0.25)"/>
  <g>
    <path class="cls-11" d="M290.86,446.11h4.68l5.28.16.76-1.8-.16-.28c-3.24.16-5.64.24-8.76.24h-1.48l1.88-10.8c1.28,0,4.6-.16,5.48-.16,2.48,0,4.12.36,4.16,1L303,438h1a27,27,0,0,1,.84-6.08c-.84-.08-2-.12-2.76-.12-.12,0-.56,0-1.52,0l-4.8,0c-.36,0-7.32,0-7.72,0l-1.8,0-.12,1.12,2.16.08c1,0,1.4.36,1.4,1.08a24.69,24.69,0,0,1-.36,3l-3.48,20.16c-.16.72-.64,1-2.4,1.28l-.2,1,1.64,0c1.24,0,3.72-.08,4.52-.08l9,.12c.56,0,1.56,0,2.88-.08l1.32,0,.16-1.44c.08-.8.28-2,.64-4l.2-1H302.5l-.64,2.4c-.4,1.44-.76,1.92-1.64,2.12a46.29,46.29,0,0,1-5.88.36,53.7,53.7,0,0,1-5.48-.28Z" transform="translate(0.25 0.25)"/>
    <path d="M308.41,416.89,301,409.08l-1.15,1.22,4.54,5.47H304v2.12h.36l-4.54,5.47,1.15,1.22Zm-22.43.9h21.35v-2.12H286Z" transform="translate(0.25 0.25)"/>
  </g>
  <path class="cls-14" d="M209.15,477.44l-3.36,0,.32,30.24,3.36,0Z" transform="translate(0.25 0.25)"/>
  <path class="cls-14" d="M386.15,478.44l-3.36,0,.32,30.24,3.36,0Z" transform="translate(0.25 0.25)"/>
  <path class="cls-10" d="M109.15,356.38v-3.54H94.75V338.56H91.21v14.28H76.81v3.54h14.4v14.46h3.54V356.38Z" transform="translate(0.25 0.25)"/>
  <path class="cls-10" d="M110.15,293.38v-3.54H95.75V275.56H92.21v14.28H77.81v3.54h14.4v14.46h3.54V293.38Z" transform="translate(0.25 0.25)"/>
  <path class="cls-10" d="M110.15,234.38v-3.54H95.75V216.56H92.21v14.28H77.81v3.54h14.4v14.46h3.54V234.38Z" transform="translate(0.25 0.25)"/>
  <path class="cls-10" d="M110.15,174.38v-3.54H95.75V156.56H92.21v14.28H77.81v3.54h14.4v14.46h3.54V174.38Z" transform="translate(0.25 0.25)"/>
  <path class="cls-10" d="M111.15,112.38v-3.54H96.75V94.56H93.21v14.28H78.81v3.54h14.4v14.46h3.54V112.38Z" transform="translate(0.25 0.25)"/>
  <path class="cls-13" d="M517.21,372.26V368.9H487v3.36Z" transform="translate(0.25 0.25)"/>
  <path class="cls-13" d="M515.21,305.26V301.9H485v3.36Z" transform="translate(0.25 0.25)"/>
  <path class="cls-13" d="M516.21,246.26V242.9H486v3.36Z" transform="translate(0.25 0.25)"/>
  <path class="cls-13" d="M517.21,178.26V174.9H487v3.36Z" transform="translate(0.25 0.25)"/>
  <path class="cls-13" d="M517.21,112.26V108.9H487v3.36Z" transform="translate(0.25 0.25)"/>
</svg>
