<svg id="Livello_1" data-name="Livello 1" xmlns="http://www.w3.org/2000/svg" xmlns:xlink="http://www.w3.org/1999/xlink" width="662.5" height="268.5" viewBox="0 0 662.5 268.5">
  <defs>
    <style>
      .cls-1, .cls-2, .cls-4, .cls-5, .cls-6 {
        fill: none;
      }

      .cls-2, .cls-3 {
        stroke: #d3d3d3;
        stroke-width: 0.5px;
      }

      .cls-3 {
        fill: url(#_.4169564083222199);
      }

      .cls-10, .cls-4, .cls-9 {
        stroke: #000;
      }

      .cls-4 {
        stroke-dasharray: 6 6;
      }

      .cls-5, .cls-6 {
        stroke: #ff001f;
      }

      .cls-5 {
        stroke-width: 3px;
      }

      .cls-6 {
        stroke-width: 4px;
      }

      .cls-7 {
        fill: #ff001f;
      }

      .cls-8 {
        fill: red;
        stroke: red;
        stroke-width: 0.48px;
      }

      .cls-10, .cls-8, .cls-9 {
        stroke-miterlimit: 10;
      }

      .cls-9 {
        stroke-width: 0.32px;
      }

      .cls-10 {
        stroke-width: 0.22px;
      }
    </style>
    <pattern id="_.4169564083222199" data-name=".4169564083222199" width="10" height="10" patternTransform="matrix(1, 0, 0, -1, -2.75, 849.14)" patternUnits="userSpaceOnUse" viewBox="0 0 10 10">
      <rect class="cls-1" width="10" height="10"/>
      <path class="cls-2" d="M10,10H0V0"/>
    </pattern>
  </defs>
  <rect class="cls-3" x="0.25" y="0.25" width="662" height="268"/>
  <g>
    <path class="cls-4" d="M197.19,129.39H538" transform="translate(0.25 0.25)"/>
    <path class="cls-5" d="M148.47,129.39a23.89,23.89,0,1,1,23.88,23.89A23.88,23.88,0,0,1,148.47,129.39Z" transform="translate(0.25 0.25)"/>
    <g>
      <path class="cls-6" d="M197.19,129.39h65" transform="translate(0.25 0.25)"/>
      <path class="cls-7" d="M251.22,137.54l17-8.15-17-8.15Z" transform="translate(0.25 0.25)"/>
    </g>
    <path class="cls-5" d="M538,129.39a34.27,34.27,0,1,1,34.27,34.27A34.26,34.26,0,0,1,538,129.39Z" transform="translate(0.25 0.25)"/>
    <path class="cls-4" d="M52.66,129.39h95.81" transform="translate(0.25 0.25)"/>
  </g>
  <path class="cls-8" d="M189.3,129.31v-3.54H174.9V111.49h-3.54v14.28H157v3.54h14.4v14.46h3.54V129.31Z" transform="translate(0.25 0.25)"/>
  <path class="cls-9" d="M176.66,201c1.84,0,4.52-2.8,5.8-4v-.52h-.52c-.76.72-1.72,1.68-2.8,1.68-1.8,0-1.52-5.16-1.52-6.44a52.59,52.59,0,0,0,5.36-7.88c-.28-.6-.56-1.24-.88-1.84h-.44c-.56,2.72-2.76,5.76-4.2,8.08.08-3.16,1-8.6-3.52-8.64-6.72,0-12.2,9.2-12.32,15.2,0,2.4.76,4.36,3.48,4.36,3.68,0,7.44-3.2,9.84-5.88C174.94,196.55,174.58,201,176.66,201ZM172,182.91c3.48,0,3,8.52,2.92,10.92-1.72,2-5,5.44-7.8,5.44-2.12,0-2.56-1.68-2.52-3.48C164.66,192.31,167.66,182.91,172,182.91Z" transform="translate(0.25 0.25)"/>
  <path class="cls-8" d="M589.3,131.31v-3.54H574.9V113.49h-3.54v14.28H557v3.54h14.4v14.46h3.54V131.31Z" transform="translate(0.25 0.25)"/>
  <g>
    <path class="cls-9" d="M571.54,196.83a7.17,7.17,0,0,0,2-.4c.44-2.48.76-3.84,1.2-5.72h-.88l-.88,2.4a1.4,1.4,0,0,1-1.56,1,8.72,8.72,0,0,1-2-.28l-.72-.16a19.82,19.82,0,0,0-3.44-.48,9.23,9.23,0,0,0-3.8.84l13.56-15.28.24-1.28-.36-.36L574,178a1.75,1.75,0,0,1-1.36.56,22.88,22.88,0,0,1-5.36-.84l-.72-.2a11.54,11.54,0,0,0-2.48-.44,8.78,8.78,0,0,0-2.44.4l-1.28,4.88h.84l1.2-2.32a5.94,5.94,0,0,1,1.56-.2c1.64,0,2.92.6,5,.6a7.23,7.23,0,0,0,3.72-.92l-14.12,16,.36,1.08a5.41,5.41,0,0,1,3.64-1.28C565.14,195.35,568.78,196.83,571.54,196.83Z" transform="translate(0.25 0.25)"/>
    <path class="cls-10" d="M586.75,200.33l-.68.48a7.25,7.25,0,0,1-3.83,1.62c-1.32,0-2.13-1-2.13-2.72a13.36,13.36,0,0,1,.22-2.26c.48-.12,3.53-1,4.23-1.26,2.38-1,3.47-2.33,3.47-4.06a2.15,2.15,0,0,0-2.35-2.19c-1.9-.39-5,1.65-6,3.73a16.79,16.79,0,0,0-1.68,6.6c0,2.19,1.23,3.47,3.25,3.47,1.6,0,3.16-.78,5.74-2.88Zm-6-4.56a7.36,7.36,0,0,1,1.84-3.87,3.45,3.45,0,0,1,2-.78,1.31,1.31,0,0,1,1.34,1.45,4,4,0,0,1-2.43,3.25,13.79,13.79,0,0,1-3.06,1Z" transform="translate(0.25 0.25)"/>
  </g>
  <path class="cls-9" d="M226.3,95.59a19.79,19.79,0,0,0,2.52-.16c-4.44,4.8-6.12,8.12-6.12,12.12,0,3.08,1.84,5.28,4.4,5.28,5.52,0,11.64-9.88,11.64-15.8,0-2.28-1-3.92-2.48-3.92a1.85,1.85,0,0,0-1.32.48l-2,1.88.44.76a1.94,1.94,0,0,1,1.08-.36c1.08,0,1.72.92,1.72,2.52,0,5.92-3.88,12.44-7.4,12.44-2,0-3.2-1.68-3.2-4.28,0-4.2,1.56-7.84,5.48-12.72l-.4-.72a5,5,0,0,1-2.44.48c-1.12,0-2.8-.08-4-.2l-.48,0a3,3,0,0,0-.48,0,2.84,2.84,0,0,0-1.28.28,21,21,0,0,0-1.52,4.72h.88l.68-1.68a2.12,2.12,0,0,1,2-1.12C225.42,95.51,224.78,95.59,226.3,95.59Z" transform="translate(0.25 0.25)"/>
</svg>
