<svg id="Livello_4" data-name="Livello 4" xmlns="http://www.w3.org/2000/svg" viewBox="0 0 310.13 321.08"><defs><style>.cls-1,.cls-2{fill:#546784;}.cls-2{stroke:#546784;stroke-width:3px;}.cls-2,.cls-3,.cls-4,.cls-5{stroke-miterlimit:10;}.cls-3{fill:none;stroke-width:5px;}.cls-3,.cls-4{stroke:#586884;}.cls-4{fill:#586884;}.cls-4,.cls-5{stroke-width:4px;}.cls-5{fill:#fbba3f;stroke:#fbba3f;}</style></defs><path class="cls-1" d="M295.75,176c-3.72,12.62-1,34.82.74,42,0,.16.6,2.42,1.24,5.51,1.34,6.48,2.14,10.44,2,15.54-.06,3.28-.13,5.74-1.32,8.45-.38.86-1.73,3.69-1.93,4.12a25.76,25.76,0,0,0-1.7,3.77,12.45,12.45,0,0,0-.08,5.72,14.69,14.69,0,0,0,1.78,4.71l45.67,15.35a14.72,14.72,0,0,0,4.26-2.68,12.32,12.32,0,0,0,3.39-4.61,24.17,24.17,0,0,0,.92-4c.1-.46.74-3.53,1-4.45.68-2.87,2.11-4.87,4-7.53,3-4.12,6-6.8,11-11.15,2.38-2.08,4.19-3.54,4.31-3.65,5.76-4.66,21.31-20.73,26-33" transform="translate(-287.3 -139.53)"/><path class="cls-2" d="M295.75,176,397.06,210" transform="translate(-287.3 -139.53)"/><path class="cls-1" d="M397.06,210c7.32-19.32-1.71-57-33.63-67.69A53.45,53.45,0,0,0,295.75,176" transform="translate(-287.3 -139.53)"/><path class="cls-1" d="M302.49,323.65l4.19-.87,1.4-1.26,4.91.89,7.2-5.31,2.1.06,8.06-5.13c-1-5,1.83-4.21,1.83-4.21l.54-1.6c-2.14-3.22,1.59-4.73,1.59-4.73l.75-2.24C332.92,296,336.5,295,336.5,295l.66-2c-2.45-3.43,1.64-4.88,1.64-4.88l2.45-7.3-43.8-14.72-2.45,7.3s2.38,3.62-1.64,4.87l-.66,2a2.59,2.59,0,0,1-1.43,4.28l-.76,2.24s2.06,3.46-1.59,4.72l-.54,1.61s2.71,1.07-1.08,4.46l3.33,8.95,1.7,1.23,2.54,8.58,4.45,2.25.35,1.85,2.82,3.23" transform="translate(-287.3 -139.53)"/><polyline class="cls-3" points="134.01 85.31 168.07 99.04 195.96 63.22 187.24 147.85 235.66 79.22 228.36 164.43 276.92 95.86 275.14 139.21 309.19 152.94"/><path class="cls-4" d="M411.87,457.2l1.54-.37L497,436,489,403.56l-70.83,17.65c-.58.16-1.17.31-1.79.45a29,29,0,0,1-11,.15l-.47-.09a29,29,0,0,1-8.34-2.92,27.52,27.52,0,0,1-6.83-5.08,25,25,0,0,1-4.79-7.08,24,24,0,0,1-2.07-8.84,25.33,25.33,0,0,1,1.28-8.88,28.06,28.06,0,0,1,5-8.79,30.4,30.4,0,0,1,14-9.44c1-.32,1.79-.54,2.33-.67l70.83-17.65-8.08-32.44-83.63,20.84c-.69.15-1.68.39-2.86.72a57.22,57.22,0,0,0-24.91,15,61.71,61.71,0,0,0-16.44,30.74,60.85,60.85,0,0,0-.83,17.64,59.74,59.74,0,0,0,67.14,53.29,58.42,58.42,0,0,0,6.82-1.29" transform="translate(-287.3 -139.53)"/><rect class="cls-5" x="456.35" y="321.36" width="16.04" height="33.43" transform="translate(-355.26 -17.22) rotate(-13.99)"/><rect class="cls-5" x="477.2" y="405" width="16.04" height="33.43" transform="translate(-374.87 -9.7) rotate(-13.99)"/></svg>