<svg id="Livello_2" data-name="Livello 2" xmlns="http://www.w3.org/2000/svg" viewBox="0 0 333.18 344.48"><defs><style>.cls-1{font-size:85.82px;fill:#546784;font-family:BaskOldFace, Baskerville Old Face;}.cls-2,.cls-3{font-family:MyriadPro-Regular, Myriad Pro;}.cls-3{letter-spacing:0em;}.cls-4,.cls-6{fill:none;}.cls-4{stroke:#546784;stroke-width:10px;}.cls-4,.cls-5,.cls-6{stroke-miterlimit:10;}.cls-5{fill:#fecb3b;stroke:#fecc3b;}.cls-6{stroke:#fecc3d;stroke-width:7px;}</style></defs><text class="cls-1" transform="matrix(0.85, -0.25, 0.28, 0.96, 20.08, 154.94)">E = m <tspan class="cls-2" x="228.67" y="0">·</tspan><tspan x="246.43" y="0" xml:space="preserve"> c²</tspan><tspan class="cls-3" x="330.95" y="0"> </tspan></text><line class="cls-4" x1="23.37" y1="208.01" x2="328.81" y2="337.46"/><line class="cls-4" x1="282.2" y1="339.49" x2="328.81" y2="337.46"/><line class="cls-4" x1="329.44" y1="335.98" x2="298.48" y2="301.08"/><path class="cls-5" d="M513.55,267.77c5.56.35,17.48-3.35,27.52,2.55,22.56,13.24,23.82,37.45,24.06,42a43.65,43.65,0,0,1-17.9,37.74c-17.15,12.62-38.61,11.4-43.42,11L464.38,347.7c-4-2.63-21.79-14.74-27.69-35.2a43.66,43.66,0,0,1,8.8-40.83c3-3.48,18.74-21.9,44.69-18.65,11.56,1.45,18.75,11.64,23.37,14.75" transform="translate(-234.14 -104.95)"/><polyline class="cls-6" points="279.21 170.56 279.3 147.14 303.37 133.15"/></svg>