<svg id="Livello_1" data-name="Livello 1" xmlns="http://www.w3.org/2000/svg" xmlns:xlink="http://www.w3.org/1999/xlink" width="662.5" height="477.5" viewBox="0 0 662.5 477.5">
  <defs>
    <style>
      .cls-1, .cls-12, .cls-2, .cls-4, .cls-6, .cls-7, .cls-8 {
        fill: none;
      }

      .cls-2, .cls-3 {
        stroke: #d3d3d3;
        stroke-width: 0.5px;
      }

      .cls-3 {
        fill: url(#_.10595472142447826);
      }

      .cls-14, .cls-4 {
        stroke: red;
      }

      .cls-4, .cls-6, .cls-7, .cls-8 {
        stroke-width: 3px;
      }

      .cls-14, .cls-5 {
        fill: red;
      }

      .cls-11, .cls-12, .cls-13, .cls-6, .cls-7, .cls-9 {
        stroke: #000;
      }

      .cls-7 {
        stroke-dasharray: 3.38 4.02;
      }

      .cls-10, .cls-8 {
        stroke: #4a90e2;
      }

      .cls-10, .cls-11, .cls-13, .cls-14, .cls-9 {
        stroke-miterlimit: 10;
      }

      .cls-10, .cls-14, .cls-9 {
        stroke-width: 0.32px;
      }

      .cls-10 {
        fill: #4a90e2;
      }

      .cls-11 {
        stroke-width: 0.2px;
      }

      .cls-13 {
        stroke-width: 0.14px;
      }
    </style>
    <pattern id="_.10595472142447826" data-name=".10595472142447826" width="10" height="10" patternTransform="matrix(1, 0, 0, -1, -2.75, 844.14)" patternUnits="userSpaceOnUse" viewBox="0 0 10 10">
      <rect class="cls-1" width="10" height="10"/>
      <path class="cls-2" d="M10,10H0V0"/>
    </pattern>
  </defs>
  <rect class="cls-3" x="0.25" y="0.25" width="662" height="477"/>
  <g>
    <g>
      <path class="cls-4" d="M280.5,205l110.43-79.09" transform="translate(0.25 0.25)"/>
      <path class="cls-5" d="M386.43,138.63,395,123l-17.56,3.08,8.89,3.13Z" transform="translate(0.25 0.25)"/>
    </g>
    <g>
      <path class="cls-6" d="M49,400H600M104.1,40V440" transform="translate(0.25 0.25)"/>
      <path class="cls-6" d="M593,395l7,5-7,5" transform="translate(0.25 0.25)"/>
      <path class="cls-6" d="M99.1,47l5-7,5,7" transform="translate(0.25 0.25)"/>
    </g>
    <g>
      <path class="cls-6" d="M104.1,400,220.46,283.64" transform="translate(0.25 0.25)"/>
      <path d="M218.1,296.92,224,280.1,207.18,286l9.28,1.64Z" transform="translate(0.25 0.25)"/>
    </g>
    <path class="cls-6" d="M247,146H432V331H247Z" transform="translate(0.25 0.25)"/>
    <path class="cls-6" d="M432,331l67-67" transform="translate(0.25 0.25)"/>
    <path class="cls-6" d="M432,146l67-67" transform="translate(0.25 0.25)"/>
    <path class="cls-6" d="M247,146l67-67" transform="translate(0.25 0.25)"/>
    <path class="cls-6" d="M314,79H499" transform="translate(0.25 0.25)"/>
    <path class="cls-6" d="M499,79V264" transform="translate(0.25 0.25)"/>
    <path class="cls-7" d="M314,79V264" transform="translate(0.25 0.25)"/>
    <path class="cls-7" d="M247,331l67-67" transform="translate(0.25 0.25)"/>
    <path class="cls-7" d="M314,264H499" transform="translate(0.25 0.25)"/>
    <path class="cls-8" d="M248,349H433" transform="translate(0.25 0.25)"/>
    <path class="cls-8" d="M250,360V343" transform="translate(0.25 0.25)"/>
    <path class="cls-8" d="M434,358l-1-18.22" transform="translate(0.25 0.25)"/>
    <path class="cls-8" d="M231.45,333.09l-1.71-185" transform="translate(0.25 0.25)"/>
    <path class="cls-8" d="M241.49,332l-17,.16" transform="translate(0.25 0.25)"/>
    <path class="cls-8" d="M238.78,147l-18.2,1.17" transform="translate(0.25 0.25)"/>
    <path class="cls-8" d="M443,342l67-67" transform="translate(0.25 0.25)"/>
    <path class="cls-8" d="M452,349l-13-12.22" transform="translate(0.25 0.25)"/>
    <path class="cls-8" d="M517,280l-13-12.22" transform="translate(0.25 0.25)"/>
    <path class="cls-6" d="M248,160l67-67" transform="translate(0.25 0.25)"/>
    <path class="cls-6" d="M248,180l67-67" transform="translate(0.25 0.25)"/>
    <path class="cls-6" d="M250,199l67-67" transform="translate(0.25 0.25)"/>
    <path class="cls-6" d="M248,220l67-67" transform="translate(0.25 0.25)"/>
    <path class="cls-6" d="M247,238.5l67-67" transform="translate(0.25 0.25)"/>
    <path class="cls-6" d="M248,254.5l67-67" transform="translate(0.25 0.25)"/>
    <path class="cls-6" d="M247,274.5l67-67" transform="translate(0.25 0.25)"/>
    <path class="cls-6" d="M246,292.5l67-67" transform="translate(0.25 0.25)"/>
    <path class="cls-6" d="M246,308.5l67-67" transform="translate(0.25 0.25)"/>
    <path class="cls-6" d="M248,319.5l67-67" transform="translate(0.25 0.25)"/>
    <path class="cls-6" d="M433,162.5l67-67" transform="translate(0.25 0.25)"/>
    <path class="cls-6" d="M431,178.5l67-67" transform="translate(0.25 0.25)"/>
    <path class="cls-6" d="M432,193.5l67-67" transform="translate(0.25 0.25)"/>
    <path class="cls-6" d="M432,206.5l67-67" transform="translate(0.25 0.25)"/>
    <path class="cls-6" d="M433,221.5l67-67" transform="translate(0.25 0.25)"/>
    <path class="cls-6" d="M432,238.5l67-67" transform="translate(0.25 0.25)"/>
    <path class="cls-6" d="M434,255.5l67-67" transform="translate(0.25 0.25)"/>
    <path class="cls-6" d="M434,273.5l67-67" transform="translate(0.25 0.25)"/>
    <path class="cls-6" d="M433,294.5l67-67" transform="translate(0.25 0.25)"/>
    <path class="cls-6" d="M432,311.5l67-67" transform="translate(0.25 0.25)"/>
    <g>
      <path class="cls-6" d="M465.5,205h66.9" transform="translate(0.25 0.25)"/>
      <path d="M521.33,212.72,537.4,205l-16.07-7.72,5.4,7.72Z" transform="translate(0.25 0.25)"/>
    </g>
    <g>
      <path class="cls-4" d="M465.5,205l110.43-79.09" transform="translate(0.25 0.25)"/>
      <path class="cls-5" d="M571.43,138.63,580,123l-17.56,3.08,8.89,3.13Z" transform="translate(0.25 0.25)"/>
    </g>
    <g>
      <path class="cls-6" d="M213.6,205h66.9" transform="translate(0.25 0.25)"/>
      <path d="M224.67,197.28,208.6,205l16.07,7.72-5.4-7.72Z" transform="translate(0.25 0.25)"/>
    </g>
  </g>
  <path class="cls-9" d="M86.88,58.44a7.17,7.17,0,0,0,2-.4c.44-2.48.76-3.84,1.2-5.72H89.2l-.88,2.4a1.4,1.4,0,0,1-1.56,1,8.72,8.72,0,0,1-2-.28l-.72-.16a19.82,19.82,0,0,0-3.44-.48,9.23,9.23,0,0,0-3.8.84L90.4,40.36l.24-1.28-.36-.36-.92.92A1.75,1.75,0,0,1,88,40.2a22.88,22.88,0,0,1-5.36-.84l-.72-.2a11.54,11.54,0,0,0-2.48-.44,8.78,8.78,0,0,0-2.44.4L75.72,44h.84l1.2-2.32a5.94,5.94,0,0,1,1.56-.2c1.64,0,2.92.6,5,.6a7.23,7.23,0,0,0,3.72-.92L74,57.16l.36,1.08A5.41,5.41,0,0,1,78,57C80.48,57,84.12,58.44,86.88,58.44Z" transform="translate(0.25 0.25)"/>
  <path class="cls-9" d="M602.36,425a3.88,3.88,0,0,0,1.72.48c1.32,0,2.88-1.16,4.12-3l3-4.68.44,2.76c.52,3.4,1.44,5,2.88,5A6.07,6.07,0,0,0,618,423.6l2-1.76-.36-.76c-1.44,1.2-2.44,1.8-3.08,1.8s-1.12-.4-1.52-1.2a15.69,15.69,0,0,1-1-3.4l-.72-4,1.4-2c1.88-2.6,3-3.52,4.2-3.52a1.3,1.3,0,0,1,1.32.92l.56-.16.6-3.4a2.35,2.35,0,0,0-1.2-.4c-1.6,0-3.2,1.44-5.68,5.12L613,413l-.24-1.92c-.48-4-1.56-5.4-3.92-5.4a2.81,2.81,0,0,0-2.28.84l-2.32,3.32.68.4c1.2-1.36,2-1.92,2.76-1.92,1.32,0,2.2,1.64,2.88,5.56l.44,2.48-1.6,2.48c-1.72,2.68-3.08,4-4.2,4-.6,0-1-.16-1.12-.36l-.44-1.12-.8.12A19.74,19.74,0,0,1,602.36,425Z" transform="translate(0.25 0.25)"/>
  <path class="cls-9" d="M190.72,346.2a4.85,4.85,0,0,0,0,.72A3.21,3.21,0,0,0,194,350c4.24,0,8.64-5,11-12.36l5.64-17.6-.44-.36a11.12,11.12,0,0,1-3,.76l-1.4,5.28a25.81,25.81,0,0,1-3.2,6.76c-1.4,2-3.36,3.8-4.24,3.8-.48,0-.84-.92-.8-1.92l.64-8.28c.08-1.24.16-2.76.16-3.88,0-1.8-.28-2.52-1-2.52-.52,0-1.08.28-3,1.6l-3.28,2.24.44.72,2-1.2a2.34,2.34,0,0,1,1-.48c.56,0,.88.76.88,2.08a5,5,0,0,1,0,.6l-.68,9.72,0,1.6c0,1.68.72,2.84,1.72,2.84,1.48,0,4.84-3.4,7.84-7.92l-2,6.84c-2,7.08-4,10-6.84,10a2.44,2.44,0,0,1-2.48-2.48c0-.2,0-.52.08-.88l-.4-.16Z" transform="translate(0.25 0.25)"/>
  <path class="cls-10" d="M348.32,360.12l-.48-.44a15.67,15.67,0,0,1-6.4,1.68l-.16.84h1.92c1,0,1.36.28,1.36,1a7.17,7.17,0,0,1-.08,1l-1.12,6.16a11.51,11.51,0,0,0-3.28-.56c-2.76,0-6.52,2.88-8.36,6.36a22.1,22.1,0,0,0-2,9.48c0,2.6.6,3.88,1.76,3.88a7.13,7.13,0,0,0,3.92-1.76c2.16-1.76,3.48-3.32,6.16-7.36L340.6,384A17.31,17.31,0,0,0,340,388c0,.84.36,1.32,1,1.32a6,6,0,0,0,3-1.48l3.24-2.4-.4-.76L345.08,386a3.35,3.35,0,0,1-1.56.68c-.32,0-.56-.36-.56-.92a7.75,7.75,0,0,1,.32-1.84Zm-14.76,26.52c-.64,0-1-.56-1-1.56,0-5,1.84-11.28,3.8-12.8a3.79,3.79,0,0,1,2.36-.6,8.4,8.4,0,0,1,4.24.92l-.48,2.36C341,382.16,335.36,386.64,333.56,386.64ZM349.32,389a3.88,3.88,0,0,0,1.72.48c1.32,0,2.88-1.16,4.12-3l3-4.68.44,2.76c.52,3.4,1.44,5,2.88,5A6.07,6.07,0,0,0,365,387.6l2-1.76-.36-.76c-1.44,1.2-2.44,1.8-3.08,1.8s-1.12-.4-1.52-1.2a15.69,15.69,0,0,1-1-3.4l-.72-4,1.4-2c1.88-2.6,3-3.52,4.2-3.52a1.3,1.3,0,0,1,1.32.92l.56-.16.6-3.4a2.35,2.35,0,0,0-1.2-.4c-1.6,0-3.2,1.44-5.68,5.12L360,377l-.24-1.92c-.48-4-1.56-5.4-3.92-5.4a2.81,2.81,0,0,0-2.28.84l-2.32,3.32.68.4c1.2-1.36,2-1.92,2.76-1.92,1.32,0,2.2,1.64,2.88,5.56l.44,2.48-1.6,2.48c-1.72,2.68-3.08,4-4.2,4-.6,0-1-.16-1.12-.36l-.44-1.12-.8.12A19.74,19.74,0,0,1,349.32,389Z" transform="translate(0.25 0.25)"/>
  <path class="cls-10" d="M204.32,235.12l-.48-.44a15.67,15.67,0,0,1-6.4,1.68l-.16.84h1.92c1,0,1.36.28,1.36,1a7.17,7.17,0,0,1-.08,1l-1.12,6.16a11.51,11.51,0,0,0-3.28-.56c-2.76,0-6.52,2.88-8.36,6.36a22.1,22.1,0,0,0-2,9.48c0,2.6.6,3.88,1.76,3.88a7.13,7.13,0,0,0,3.92-1.76c2.16-1.76,3.48-3.32,6.16-7.36L196.6,259A17.31,17.31,0,0,0,196,263c0,.84.36,1.32,1,1.32a6,6,0,0,0,3-1.48l3.24-2.4-.4-.76L201.08,261a3.35,3.35,0,0,1-1.56.68c-.32,0-.56-.36-.56-.92a7.75,7.75,0,0,1,.32-1.84Zm-14.76,26.52c-.64,0-1-.56-1-1.56,0-5,1.84-11.28,3.8-12.8a3.79,3.79,0,0,1,2.36-.6,8.4,8.4,0,0,1,4.24.92l-.48,2.36C197,257.16,191.36,261.64,189.56,261.64Zm28.28,2.8a7.17,7.17,0,0,0,2-.4c.44-2.48.76-3.84,1.2-5.72h-.88l-.88,2.4a1.4,1.4,0,0,1-1.56,1,8.72,8.72,0,0,1-2-.28l-.72-.16a19.82,19.82,0,0,0-3.44-.48,9.23,9.23,0,0,0-3.8.84l13.56-15.28.24-1.28-.36-.36-.92.92a1.75,1.75,0,0,1-1.36.56,22.88,22.88,0,0,1-5.36-.84l-.72-.2a11.54,11.54,0,0,0-2.48-.44,8.78,8.78,0,0,0-2.44.4L206.68,250h.84l1.2-2.32a5.94,5.94,0,0,1,1.56-.2c1.64,0,2.92.6,5,.6a7.23,7.23,0,0,0,3.72-.92l-14.12,16,.36,1.08a5.41,5.41,0,0,1,3.64-1.28C211.44,263,215.08,264.44,217.84,264.44Z" transform="translate(0.25 0.25)"/>
  <path class="cls-10" d="M503.32,311.12l-.48-.44a15.67,15.67,0,0,1-6.4,1.68l-.16.84h1.92c1,0,1.36.28,1.36,1a7.17,7.17,0,0,1-.08,1l-1.12,6.16a11.51,11.51,0,0,0-3.28-.56c-2.76,0-6.52,2.88-8.36,6.36a22.1,22.1,0,0,0-2,9.48c0,2.6.6,3.88,1.76,3.88a7.13,7.13,0,0,0,3.92-1.76c2.16-1.76,3.48-3.32,6.16-7.36L495.6,335A17.31,17.31,0,0,0,495,339c0,.84.36,1.32,1,1.32a6,6,0,0,0,3-1.48l3.24-2.4-.4-.76L500.08,337a3.35,3.35,0,0,1-1.56.68c-.32,0-.56-.36-.56-.92a7.75,7.75,0,0,1,.32-1.84Zm-14.76,26.52c-.64,0-1-.56-1-1.56,0-5,1.84-11.28,3.8-12.8a3.79,3.79,0,0,1,2.36-.6,8.4,8.4,0,0,1,4.24.92l-.48,2.36C496,333.16,490.36,337.64,488.56,337.64Zm15.12,9.56a4.85,4.85,0,0,0,0,.72,3.21,3.21,0,0,0,3.28,3.12c4.24,0,8.64-5,11-12.36l5.64-17.6-.44-.36a11.12,11.12,0,0,1-3,.76l-1.4,5.28a25.81,25.81,0,0,1-3.2,6.76c-1.4,2-3.36,3.8-4.24,3.8-.48,0-.84-.92-.8-1.92l.64-8.28c.08-1.24.16-2.76.16-3.88,0-1.8-.28-2.52-1-2.52-.52,0-1.08.28-3,1.6l-3.28,2.24.44.72,2-1.2a2.34,2.34,0,0,1,1-.48c.56,0,.88.76.88,2.08a5,5,0,0,1,0,.6l-.68,9.72,0,1.6c0,1.68.72,2.84,1.72,2.84,1.48,0,4.84-3.4,7.84-7.92l-2,6.84c-2,7.08-4,10-6.84,10a2.44,2.44,0,0,1-2.48-2.48c0-.2,0-.52.08-.88l-.4-.16Z" transform="translate(0.25 0.25)"/>
  <g>
    <g>
      <path class="cls-11" d="M530.3,225.18l-.17-.23-1.7.43-.25,1.27a13.79,13.79,0,0,1-1.78,4.83c-1.47,2.27-3.42,4.05-4.42,4.05-.2,0-.33-.23-.33-.65a6.11,6.11,0,0,1,.18-1.3l1.42-6.78a5.54,5.54,0,0,0,.13-1.07c0-.48-.23-.78-.58-.78s-1.45.53-3.3,1.85l-.7.5.18.5.8-.52c.7-.45,1-.58,1.2-.58a.48.48,0,0,1,.42.5,2.3,2.3,0,0,1,0,.45l-1.57,7.43a7.51,7.51,0,0,0-.1,1.17.94.94,0,0,0,.87,1c1.58,0,4.6-2.8,6.7-6.25l-.92,3.55a6.58,6.58,0,0,0-.28,1.65c0,.62.28,1,.75,1,.65,0,1.55-.53,4-2.35l-.25-.45-.65.42a3.88,3.88,0,0,1-1.52.68c-.2,0-.33-.18-.33-.43C528.05,234.2,529.93,226.6,530.3,225.18Z" transform="translate(0.25 0.25)"/>
      <polyline class="cls-12" points="518.25 220.86 525.19 216.24 532.13 220.86"/>
    </g>
    <path class="cls-13" d="M533.05,239.46l.12.35.56-.37c.65-.4.7-.43.82-.43s.32.17.32.43a41.87,41.87,0,0,1-1.44,6.78l.12.19c.44-.12.84-.23,1.23-.3a10.11,10.11,0,0,1,1.5-4.55c1-1.47,2.26-2.55,3.05-2.55.19,0,.3.15.3.42a5.23,5.23,0,0,1-.2,1.24l-.91,3.71a6.61,6.61,0,0,0-.22,1.33c0,.44.19.7.52.7s1.09-.37,2.8-1.65l-.17-.31-.46.3a2.89,2.89,0,0,1-1.07.52c-.12,0-.22-.16-.22-.35a1.9,1.9,0,0,1,0-.35l1.16-4.83a6.44,6.44,0,0,0,.19-1.29c0-.41-.19-.63-.54-.63a5.44,5.44,0,0,0-3,1.62,14.94,14.94,0,0,0-2.06,2.49l.66-2.82a3.32,3.32,0,0,0,.11-.72c0-.36-.14-.57-.41-.57a5.92,5.92,0,0,0-2.32,1.29Z" transform="translate(0.25 0.25)"/>
  </g>
  <g>
    <g>
      <path class="cls-11" d="M530.3,225.18l-.17-.23-1.7.43-.25,1.27a13.79,13.79,0,0,1-1.78,4.83c-1.47,2.27-3.42,4.05-4.42,4.05-.2,0-.33-.23-.33-.65a6.11,6.11,0,0,1,.18-1.3l1.42-6.78a5.54,5.54,0,0,0,.13-1.07c0-.48-.23-.78-.58-.78s-1.45.53-3.3,1.85l-.7.5.18.5.8-.52c.7-.45,1-.58,1.2-.58a.48.48,0,0,1,.42.5,2.3,2.3,0,0,1,0,.45l-1.57,7.43a7.51,7.51,0,0,0-.1,1.17.94.94,0,0,0,.87,1c1.58,0,4.6-2.8,6.7-6.25l-.92,3.55a6.58,6.58,0,0,0-.28,1.65c0,.62.28,1,.75,1,.65,0,1.55-.53,4-2.35l-.25-.45-.65.42a3.88,3.88,0,0,1-1.52.68c-.2,0-.33-.18-.33-.43C528.05,234.2,529.93,226.6,530.3,225.18Z" transform="translate(0.25 0.25)"/>
      <polyline class="cls-12" points="518.25 220.86 525.19 216.24 532.13 220.86"/>
    </g>
    <path class="cls-13" d="M533.05,239.46l.12.35.56-.37c.65-.4.7-.43.82-.43s.32.17.32.43a41.87,41.87,0,0,1-1.44,6.78l.12.19c.44-.12.84-.23,1.23-.3a10.11,10.11,0,0,1,1.5-4.55c1-1.47,2.26-2.55,3.05-2.55.19,0,.3.15.3.42a5.23,5.23,0,0,1-.2,1.24l-.91,3.71a6.61,6.61,0,0,0-.22,1.33c0,.44.19.7.52.7s1.09-.37,2.8-1.65l-.17-.31-.46.3a2.89,2.89,0,0,1-1.07.52c-.12,0-.22-.16-.22-.35a1.9,1.9,0,0,1,0-.35l1.16-4.83a6.44,6.44,0,0,0,.19-1.29c0-.41-.19-.63-.54-.63a5.44,5.44,0,0,0-3,1.62,14.94,14.94,0,0,0-2.06,2.49l.66-2.82a3.32,3.32,0,0,0,.11-.72c0-.36-.14-.57-.41-.57a5.92,5.92,0,0,0-2.32,1.29Z" transform="translate(0.25 0.25)"/>
  </g>
  <g>
    <path class="cls-14" d="M542.84,116.62h4.68l5.28.16.76-1.8-.16-.28c-3.24.16-5.64.24-8.76.24h-1.48l1.88-10.8c1.28,0,4.6-.16,5.48-.16,2.48,0,4.12.36,4.16,1l.32,3.56h1a27,27,0,0,1,.84-6.08c-.84-.08-2-.12-2.76-.12-.12,0-.56,0-1.52,0l-4.8,0c-.36,0-7.32,0-7.72,0l-1.8,0-.12,1.12,2.16.08c1,0,1.4.36,1.4,1.08a24.69,24.69,0,0,1-.36,3l-3.48,20.16c-.16.72-.64,1-2.4,1.28l-.2,1,1.64,0c1.24,0,3.72-.08,4.52-.08l9,.12c.56,0,1.56,0,2.88-.08l1.32,0,.16-1.44c.08-.8.28-2,.64-4l.2-1h-1.08l-.64,2.4c-.4,1.44-.76,1.92-1.64,2.12a46.29,46.29,0,0,1-5.88.36,53.7,53.7,0,0,1-5.48-.28Zm19.72-5.44a34.37,34.37,0,0,0,5.16-9l-.52-.52c-1.44.48-1.84.6-3.88,1.2a18.6,18.6,0,0,1-3.12,8.92l.6.4Z" transform="translate(0.25 0.25)"/>
    <path class="cls-5" d="M571.47,88.68,563.23,80,562,81.36l5,6.08h-.4V89.8h.4l-5,6.08,1.28,1.36Zm-33.07,1h31.87V87.32H538.4Z" transform="translate(0.25 0.25)"/>
  </g>
  <g>
    <path class="cls-14" d="M350.84,120.62h4.68l5.28.16.76-1.8-.16-.28c-3.24.16-5.64.24-8.76.24h-1.48l1.88-10.8c1.28,0,4.6-.16,5.48-.16,2.48,0,4.12.36,4.16,1l.32,3.56h1a27,27,0,0,1,.84-6.08c-.84-.08-2-.12-2.76-.12-.12,0-.56,0-1.52,0l-4.8,0c-.36,0-7.32,0-7.72,0l-1.8,0-.12,1.12,2.16.08c1,0,1.4.36,1.4,1.08a24.69,24.69,0,0,1-.36,3l-3.48,20.16c-.16.72-.64,1-2.4,1.28l-.2,1,1.64,0c1.24,0,3.72-.08,4.52-.08l9,.12c.56,0,1.56,0,2.88-.08l1.32,0,.16-1.44c.08-.8.28-2,.64-4l.2-1h-1.08l-.64,2.4c-.4,1.44-.76,1.92-1.64,2.12a46.29,46.29,0,0,1-5.88.36,53.7,53.7,0,0,1-5.48-.28Zm19.72-5.44a34.37,34.37,0,0,0,5.16-9l-.52-.52c-1.44.48-1.84.6-3.88,1.2a18.6,18.6,0,0,1-3.12,8.92l.6.4Zm11.08,0a34.37,34.37,0,0,0,5.16-9l-.52-.52c-1.44.48-1.84.6-3.88,1.2a18.6,18.6,0,0,1-3.12,8.92l.6.4Z" transform="translate(0.25 0.25)"/>
    <path class="cls-5" d="M390.55,92.68,382.31,84,381,85.36l5,6.08h-.4V93.8h.4l-5,6.08,1.28,1.36Zm-44.15,1h43V91.32h-43Z" transform="translate(0.25 0.25)"/>
  </g>
  <g>
    <path class="cls-11" d="M193.88,183.93v-1.4h-12.6v1.4Z" transform="translate(0.25 0.25)"/>
    <g>
      <path class="cls-11" d="M207.43,178.18l-.18-.23-1.7.43-.25,1.27a13.79,13.79,0,0,1-1.77,4.83c-1.48,2.27-3.43,4.05-4.43,4.05-.2,0-.32-.23-.32-.65a6.66,6.66,0,0,1,.17-1.3l1.43-6.78a6.36,6.36,0,0,0,.12-1.07c0-.48-.22-.78-.57-.78-.5,0-1.45.53-3.3,1.85l-.7.5.17.5.8-.52c.7-.45,1-.58,1.2-.58a.48.48,0,0,1,.43.5,3.44,3.44,0,0,1-.05.45l-1.58,7.43a7.51,7.51,0,0,0-.1,1.17,1,1,0,0,0,.88,1c1.57,0,4.6-2.8,6.7-6.25l-.93,3.55a7,7,0,0,0-.27,1.65c0,.62.27,1,.75,1,.65,0,1.55-.53,4-2.35l-.25-.45-.65.42a3.85,3.85,0,0,1-1.53.68c-.2,0-.32-.18-.32-.43C205.18,187.2,207.05,179.6,207.43,178.18Z" transform="translate(0.25 0.25)"/>
      <polyline class="cls-12" points="195.38 173.86 202.31 169.24 209.25 173.86"/>
    </g>
    <path class="cls-13" d="M210.17,192.46l.12.35.56-.37c.65-.4.7-.43.83-.43s.31.17.31.43a42.69,42.69,0,0,1-1.43,6.78l.12.19c.44-.12.84-.23,1.22-.3a10.1,10.1,0,0,1,1.51-4.55c.94-1.47,2.26-2.55,3-2.55.2,0,.3.15.3.42a5.1,5.1,0,0,1-.19,1.24l-.91,3.71a6.13,6.13,0,0,0-.23,1.33c0,.44.19.7.53.7s1.08-.37,2.8-1.65l-.18-.31-.45.3a3,3,0,0,1-1.07.52c-.12,0-.23-.16-.23-.35a1.87,1.87,0,0,1,0-.35l1.15-4.83a6.44,6.44,0,0,0,.19-1.29c0-.41-.19-.63-.54-.63a5.45,5.45,0,0,0-3,1.62,14.43,14.43,0,0,0-2.07,2.49l.67-2.82a3.21,3.21,0,0,0,.1-.72c0-.36-.14-.57-.4-.57a5.93,5.93,0,0,0-2.33,1.29Z" transform="translate(0.25 0.25)"/>
  </g>
</svg>
