<svg id="Livello_1" data-name="Livello 1" xmlns="http://www.w3.org/2000/svg" xmlns:xlink="http://www.w3.org/1999/xlink" width="662.5" height="582.5" viewBox="0 0 662.5 582.5">
  <defs>
    <style>
      .cls-1, .cls-11, .cls-2, .cls-4, .cls-5, .cls-6, .cls-7, .cls-8, .cls-9 {
        fill: none;
      }

      .cls-2, .cls-3 {
        stroke: #d3d3d3;
        stroke-width: 0.5px;
      }

      .cls-3 {
        fill: url(#_.7457492991407171);
      }

      .cls-10, .cls-11, .cls-12, .cls-4, .cls-5, .cls-8, .cls-9 {
        stroke: #000;
      }

      .cls-4, .cls-6, .cls-8 {
        stroke-width: 3px;
      }

      .cls-5 {
        stroke-width: 3px;
      }

      .cls-13, .cls-6, .cls-7 {
        stroke: red;
      }

      .cls-7 {
        stroke-width: 3px;
      }

      .cls-8 {
        stroke-dasharray: 9 6;
      }

      .cls-10, .cls-12, .cls-13 {
        stroke-miterlimit: 10;
      }

      .cls-10, .cls-13 {
        stroke-width: 0.24px;
      }

      .cls-11 {
        stroke-width: 2px;
      }

      .cls-12 {
        stroke-width: 0.17px;
      }

      .cls-13, .cls-14 {
        fill: red;
      }
    </style>
    <pattern id="_.7457492991407171" data-name=".7457492991407171" width="10" height="10" patternTransform="matrix(1, 0, 0, -1, -2.75, 842.14)" patternUnits="userSpaceOnUse" viewBox="0 0 10 10">
      <rect class="cls-1" width="10" height="10"/>
      <path class="cls-2" d="M10,10H0V0"/>
    </pattern>
  </defs>
  <rect class="cls-3" x="0.25" y="0.25" width="662" height="582"/>
  <g>
    <path class="cls-4" d="M52,326.25,209.71,121.93" transform="translate(0.25 0.25)"/>
    <path class="cls-4" d="M463.29,431.89,621,227.57" transform="translate(0.25 0.25)"/>
    <path class="cls-4" d="M52,326.25c245.85-36.14,208.74,218.22,411.29,105.64" transform="translate(0.25 0.25)"/>
    <path class="cls-4" d="M209.71,121.93C455.56,85.79,418.45,340.15,621,227.57" transform="translate(0.25 0.25)"/>
    <g>
      <path class="cls-4" d="M276.2,252.59l23.62-81" transform="translate(0.25 0.25)"/>
      <path class="cls-5" d="M301.09,186.06a52.42,52.42,0,0,1-.15-18.26A52.51,52.51,0,0,1,291,183.12" transform="translate(0.25 0.25)"/>
    </g>
    <g>
      <path class="cls-6" d="M276.2,252.59,444.33,109.47" transform="translate(0.25 0.25)"/>
      <path class="cls-7" d="M437.47,122.22a52.13,52.13,0,0,1,9.91-15.34,52.41,52.41,0,0,1-16.73,7.33" transform="translate(0.25 0.25)"/>
    </g>
    <path class="cls-8" d="M340,37.46,276.2,252.59" transform="translate(0.25 0.25)"/>
    <path class="cls-9" d="M286.56,219.79c2.84-34.87,39.12-13.25,25.63,4.93" transform="translate(0.25 0.25)"/>
  </g>
  <path class="cls-10" d="M299.05,273.4c7.08,0,10.05-10,10.17-15.6.06-3.42-.9-5.94-4.71-5.94-7.8,0-10.41,8.7-10.5,15.09C294,270.52,295,273.4,299.05,273.4ZM304,252.64c4,0,3.15,5.55,2.52,8.85H297C297.76,258.37,300.1,252.64,304,252.64Zm-4.44,19.89c-4.53,0-3.18-7.44-2.7-10.08h9.48C305.56,265.81,303.82,272.53,299.53,272.53Z" transform="translate(0.25 0.25)"/>
  <g>
    <g>
      <path class="cls-10" d="M249.93,215.42l-.21-.27-2,.51-.3,1.53a16.47,16.47,0,0,1-2.13,5.79c-1.77,2.73-4.11,4.86-5.31,4.86-.24,0-.39-.27-.39-.78a7.7,7.7,0,0,1,.21-1.56l1.71-8.13a7.11,7.11,0,0,0,.15-1.29c0-.57-.27-.93-.69-.93-.6,0-1.74.63-4,2.22l-.84.6.21.6,1-.63c.84-.54,1.17-.69,1.44-.69a.57.57,0,0,1,.51.6,3.31,3.31,0,0,1-.06.54l-1.89,8.91a9.17,9.17,0,0,0-.12,1.41,1.13,1.13,0,0,0,1,1.23c1.89,0,5.52-3.36,8-7.5l-1.11,4.26a8.18,8.18,0,0,0-.33,2c0,.75.33,1.2.9,1.2.78,0,1.86-.63,4.8-2.82l-.3-.54-.78.51a4.6,4.6,0,0,1-1.83.81c-.24,0-.39-.21-.39-.51C247.23,226.25,249.48,217.13,249.93,215.42Z" transform="translate(0.25 0.25)"/>
      <polyline class="cls-11" points="235.42 210.19 243.75 204.64 252.08 210.19"/>
    </g>
    <path class="cls-12" d="M253.22,232.56l.15.42.67-.45c.78-.48.84-.52,1-.52s.38.21.38.52a49.36,49.36,0,0,1-1.73,8.13l.15.23c.53-.14,1-.27,1.47-.35a12,12,0,0,1,1.81-5.46c1.13-1.77,2.71-3.07,3.65-3.07.23,0,.36.19.36.5a6,6,0,0,1-.23,1.49l-1.09,4.46a7.5,7.5,0,0,0-.28,1.59c0,.53.23.84.63.84.55,0,1.3-.44,3.36-2l-.21-.38-.54.36a3.47,3.47,0,0,1-1.28.63c-.15,0-.28-.19-.28-.42a2.61,2.61,0,0,1,0-.42l1.39-5.8a7.32,7.32,0,0,0,.23-1.55c0-.49-.23-.76-.65-.76a6.59,6.59,0,0,0-3.57,1.95,17.13,17.13,0,0,0-2.48,3l.8-3.38a4.35,4.35,0,0,0,.13-.87c0-.44-.17-.69-.49-.69s-1.26.46-2.79,1.56Z" transform="translate(0.25 0.25)"/>
  </g>
  <path class="cls-10" d="M524.44,405.54l-.36-.33a11.75,11.75,0,0,1-4.8,1.26l-.12.63h1.44c.72,0,1,.21,1,.72a5.37,5.37,0,0,1-.06.72l-.84,4.62a8.63,8.63,0,0,0-2.46-.42c-2.07,0-4.89,2.16-6.27,4.77a16.57,16.57,0,0,0-1.53,7.11c0,1.95.45,2.91,1.32,2.91a5.35,5.35,0,0,0,2.94-1.32,21.22,21.22,0,0,0,4.62-5.52l-.69,2.73a13,13,0,0,0-.48,3.06c0,.63.27,1,.78,1a4.53,4.53,0,0,0,2.25-1.11l2.43-1.8-.3-.57-1.32.93a2.51,2.51,0,0,1-1.17.51c-.24,0-.42-.27-.42-.69a5.82,5.82,0,0,1,.24-1.38Zm-11.07,19.89c-.48,0-.75-.42-.75-1.17,0-3.78,1.38-8.46,2.85-9.6a2.84,2.84,0,0,1,1.77-.45,6.3,6.3,0,0,1,3.18.69l-.36,1.77C519,422.07,514.72,425.43,513.37,425.43Zm28.71,1.89c.39-2,.72-3.93,1.26-5.91v-.09h-.66v.09c-1,2.46-1.26,3.51-4.11,3.51H527.83c2.49-3.24,5.1-6.45,7.77-9.51-1.35-2.43-2.49-5-3.63-7.53h7.59c3,0,3.12.51,3,3.24h.66V411c.33-1.41.57-2.88,1-4.29v-.18c-5.22.24-10.56.21-15.78.24v.48a90.54,90.54,0,0,1,4.59,9.75,110.86,110.86,0,0,1-8.64,9.75v.57C530.35,427.17,536.17,427.17,542.08,427.32Z" transform="translate(0.25 0.25)"/>
  <g>
    <g>
      <path class="cls-10" d="M283.06,526.76l-.21-.27-2,.51-.3,1.53a16.47,16.47,0,0,1-2.13,5.79c-1.77,2.73-4.11,4.86-5.31,4.86-.24,0-.39-.27-.39-.78a7.7,7.7,0,0,1,.21-1.56l1.71-8.13a7.11,7.11,0,0,0,.15-1.29c0-.57-.27-.93-.69-.93-.6,0-1.74.63-4,2.22l-.84.6.21.6,1-.63c.84-.54,1.17-.69,1.44-.69a.57.57,0,0,1,.51.6,3.31,3.31,0,0,1-.06.54l-1.89,8.91a9.17,9.17,0,0,0-.12,1.41,1.13,1.13,0,0,0,1.05,1.23c1.89,0,5.52-3.36,8-7.5L278.29,538a8.18,8.18,0,0,0-.33,2c0,.75.33,1.2.9,1.2.78,0,1.86-.63,4.8-2.82l-.3-.54-.78.51a4.6,4.6,0,0,1-1.83.81c-.24,0-.39-.21-.39-.51C280.36,537.59,282.61,528.47,283.06,526.76Z" transform="translate(0.25 0.25)"/>
      <polyline class="cls-11" points="268.55 521.53 276.88 515.98 285.21 521.53"/>
    </g>
    <path class="cls-12" d="M286.35,543.9l.14.42.68-.44c.77-.49.84-.53,1-.53s.38.21.38.53a50.3,50.3,0,0,1-1.72,8.12l.15.24a13.61,13.61,0,0,1,1.47-.36,12.12,12.12,0,0,1,1.8-5.46c1.14-1.77,2.71-3.07,3.66-3.07.23,0,.35.19.35.51a6.06,6.06,0,0,1-.23,1.49l-1.09,4.45a7.36,7.36,0,0,0-.27,1.6c0,.52.23.84.63.84s1.3-.45,3.36-2l-.21-.38-.55.36a3.47,3.47,0,0,1-1.28.63c-.15,0-.27-.19-.27-.42a2.72,2.72,0,0,1,0-.42l1.39-5.8a7.83,7.83,0,0,0,.23-1.55c0-.48-.23-.76-.65-.76a6.49,6.49,0,0,0-3.57,2,17,17,0,0,0-2.48,3l.8-3.38a4.23,4.23,0,0,0,.12-.86c0-.44-.17-.7-.48-.7s-1.26.47-2.79,1.56Z" transform="translate(0.25 0.25)"/>
    <path class="cls-10" d="M328.8,541v-1.77h-8.4v-15.6h-1.77v15.6h-8.4V541Z" transform="translate(0.25 0.25)"/>
    <path class="cls-10" d="M354.19,519.29l-.36-.33a11.75,11.75,0,0,1-4.8,1.26l-.12.63h1.44c.72,0,1,.21,1,.72a5.37,5.37,0,0,1-.06.72l-.84,4.62a8.63,8.63,0,0,0-2.46-.42c-2.07,0-4.89,2.16-6.27,4.77a16.57,16.57,0,0,0-1.53,7.11c0,2,.45,2.91,1.32,2.91a5.35,5.35,0,0,0,2.94-1.32,21.22,21.22,0,0,0,4.62-5.52l-.69,2.73a13,13,0,0,0-.48,3.06c0,.63.27,1,.78,1a4.53,4.53,0,0,0,2.25-1.11l2.43-1.8-.3-.57-1.32.93a2.51,2.51,0,0,1-1.17.51c-.24,0-.42-.27-.42-.69a5.82,5.82,0,0,1,.24-1.38Zm-11.07,19.89c-.48,0-.75-.42-.75-1.17,0-3.78,1.38-8.46,2.85-9.6A2.84,2.84,0,0,1,347,528a6.3,6.3,0,0,1,3.18.69l-.36,1.77C348.7,535.82,344.47,539.18,343.12,539.18Zm28.71,1.89c.39-2,.72-3.93,1.26-5.91v-.09h-.66v.09c-1,2.46-1.26,3.51-4.11,3.51H357.58c2.49-3.24,5.1-6.45,7.77-9.51-1.35-2.43-2.49-5-3.63-7.53h7.59c3,0,3.12.51,3,3.24H373v-.12c.33-1.41.57-2.88,1-4.29v-.18c-5.22.24-10.56.21-15.78.24V521a90.54,90.54,0,0,1,4.59,9.75,110.86,110.86,0,0,1-8.64,9.75v.57C360.1,540.92,365.92,540.92,371.83,541.07Z" transform="translate(0.25 0.25)"/>
  </g>
  <g>
    <path class="cls-13" d="M452.11,163h3.51l4,.12.57-1.35-.12-.21c-2.43.12-4.23.18-6.57.18h-1.11l1.41-8.1c1,0,3.45-.12,4.11-.12,1.86,0,3.09.27,3.12.72l.24,2.67H462a20.27,20.27,0,0,1,.63-4.56c-.63-.06-1.53-.09-2.07-.09-.09,0-.42,0-1.14,0l-3.6,0c-.27,0-5.49,0-5.79,0l-1.35,0-.09.84,1.62.06c.72,0,1,.27,1,.81a18.52,18.52,0,0,1-.27,2.28l-2.61,15.12c-.12.54-.48.75-1.8,1l-.15.78,1.23,0c.93,0,2.79-.06,3.39-.06l6.75.09c.42,0,1.17,0,2.16-.06l1,0,.12-1.08c.06-.6.21-1.5.48-3l.15-.78h-.81l-.48,1.8c-.3,1.08-.57,1.44-1.23,1.59a34.72,34.72,0,0,1-4.41.27,40.28,40.28,0,0,1-4.11-.21Z" transform="translate(0.25 0.25)"/>
    <path class="cls-14" d="M465.26,141.56l-5.56-5.86-.86.92,3.4,4.1H462v1.59h.27l-3.4,4.1.86.92Zm-16.81.67h16v-1.59h-16Z" transform="translate(0.25 0.25)"/>
  </g>
</svg>
