<svg id="Livello_1" data-name="Livello 1" xmlns="http://www.w3.org/2000/svg" xmlns:xlink="http://www.w3.org/1999/xlink" width="662.5" height="582.5" viewBox="0 0 662.5 582.5">
  <defs>
    <style>
      .cls-1, .cls-11, .cls-2, .cls-4, .cls-5, .cls-6, .cls-7, .cls-8, .cls-9 {
        fill: none;
      }

      .cls-2, .cls-3 {
        stroke: #d3d3d3;
        stroke-width: 0.5px;
      }

      .cls-3 {
        fill: url(#_.7457492991407171);
      }

      .cls-10, .cls-11, .cls-12, .cls-13, .cls-16, .cls-4, .cls-5, .cls-6, .cls-7 {
        stroke: #000;
      }

      .cls-4, .cls-6, .cls-8 {
        stroke-width: 3px;
      }

      .cls-5 {
        stroke-width: 3px;
      }

      .cls-6 {
        stroke-dasharray: 9 6;
      }

      .cls-7 {
        stroke-linecap: round;
        stroke-linejoin: round;
        stroke-width: 4px;
      }

      .cls-14, .cls-8, .cls-9 {
        stroke: red;
      }

      .cls-9 {
        stroke-width: 3px;
      }

      .cls-10, .cls-12, .cls-13, .cls-14, .cls-16 {
        stroke-miterlimit: 10;
      }

      .cls-10 {
        stroke-width: 0.2px;
      }

      .cls-12 {
        stroke-width: 0.14px;
      }

      .cls-13, .cls-14 {
        stroke-width: 0.24px;
      }

      .cls-14, .cls-15 {
        fill: red;
      }

      .cls-16 {
        stroke-width: 0.4px;
      }
    </style>
    <pattern id="_.7457492991407171" data-name=".7457492991407171" width="10" height="10" patternTransform="matrix(1, 0, 0, -1, -2.75, 842.14)" patternUnits="userSpaceOnUse" viewBox="0 0 10 10">
      <rect class="cls-1" width="10" height="10"/>
      <path class="cls-2" d="M10,10H0V0"/>
    </pattern>
  </defs>
  <rect class="cls-3" x="0.25" y="0.25" width="662" height="582"/>
  <g>
    <g>
      <path class="cls-4" d="M231.76,341.27l39.38-51" transform="translate(0.25 0.25)"/>
      <path class="cls-4" d="M334.47,367.65l39.38-51" transform="translate(0.25 0.25)"/>
      <path class="cls-4" d="M271.14,290.25l102.71,26.38" transform="translate(0.25 0.25)"/>
      <path class="cls-4" d="M231.76,341.27l102.71,26.38" transform="translate(0.25 0.25)"/>
    </g>
    <g>
      <path class="cls-4" d="M302.54,323.09l55.12-98" transform="translate(0.25 0.25)"/>
      <path class="cls-5" d="M355.63,239.39a52.66,52.66,0,0,1,4-17.82,52.26,52.26,0,0,1-13.15,12.66" transform="translate(0.25 0.25)"/>
    </g>
    <path class="cls-6" d="M448.71,65.81,302.54,323.09" transform="translate(0.25 0.25)"/>
    <path class="cls-7" d="M394.84,489.09c-12.86-5.15-24-15.4-36.44-21.64-21.42-10.71-50.94-17.26-74-19.36-26.94-2.45-43.83-2.9-74-2.28-18.67.38-36.2,7.34-54.66,8-36.87,1.27-70.67-4-99.08-29.61-9.15-8.22-19.38-16-25.06-27.33-6.89-13.78-8.38-28.33-10.25-43.28s-4.49-31.19,0-45.55c8.18-26.16,19.6-53.71,42.14-70.61,20.14-15.11,46.64-18.84,70.61-25.05a287.44,287.44,0,0,0,83.13-36.45c20-12.7,35.58-34.43,52.39-51.24,14.11-14.11,31.37-25.95,46.69-38.72,10.35-8.63,20.2-18.08,30.75-26.2C382,32.8,436.11,27,478,35.83c18.2,3.83,38.33,9.31,54.66,18.22,18.19,9.92,26.19,28.45,33,46.69,9.39,25.05,15.8,42.82,13.67,69.47-.45,5.64-5.74,14.13-8,19.36s-3,12.81-5.69,18.22c-13.28,26.57-28.83,55-29.61,85.42-.2,7.87-1.44,35.49,1.14,50.1,7.63,43.25,32.44,96.45,2.28,136.67-23.32,31.09-76.5,27-107,19.36-9.64-2.41-20.61-3.37-29.61-6.84-3.84-1.47-10.25-2.72-10.25-6.83" transform="translate(0.25 0.25)"/>
    <g>
      <path class="cls-8" d="M300.59,321.78l346.57-68.56" transform="translate(0.25 0.25)"/>
      <path class="cls-9" d="M635,261a52.17,52.17,0,0,1,16.13-8.56,52.28,52.28,0,0,1-18.17-1.76" transform="translate(0.25 0.25)"/>
    </g>
  </g>
  <g>
    <g>
      <path class="cls-10" d="M314.36,232.44l-.17-.22-1.7.42-.25,1.28a13.66,13.66,0,0,1-1.78,4.82c-1.47,2.28-3.42,4-4.42,4-.2,0-.33-.22-.33-.65a6.19,6.19,0,0,1,.18-1.3l1.42-6.77a5.55,5.55,0,0,0,.13-1.08c0-.47-.23-.77-.58-.77-.5,0-1.45.52-3.3,1.85l-.7.5.18.5.8-.53c.7-.45,1-.57,1.2-.57a.47.47,0,0,1,.42.5,2.3,2.3,0,0,1,0,.45l-1.57,7.42a7.77,7.77,0,0,0-.1,1.18.94.94,0,0,0,.87,1c1.58,0,4.6-2.8,6.7-6.25l-.92,3.55a6.66,6.66,0,0,0-.28,1.65c0,.63.28,1,.75,1,.65,0,1.55-.52,4-2.35l-.25-.45-.65.43a3.82,3.82,0,0,1-1.52.67c-.2,0-.33-.17-.33-.42C312.11,241.47,314,233.87,314.36,232.44Z" transform="translate(0.25 0.25)"/>
      <polyline class="cls-11" points="302.31 228.13 309.25 223.51 316.19 228.13"/>
    </g>
    <path class="cls-12" d="M317.11,246.73l.12.35.56-.37c.65-.4.7-.44.82-.44s.32.18.32.44a41.81,41.81,0,0,1-1.44,6.77l.13.19c.43-.12.84-.22,1.22-.29a9.89,9.89,0,0,1,1.51-4.55c.94-1.47,2.25-2.56,3-2.56.19,0,.3.16.3.42a5,5,0,0,1-.19,1.24l-.91,3.71a6.13,6.13,0,0,0-.23,1.33c0,.44.19.7.52.7s1.09-.36,2.8-1.64l-.17-.32-.46.3a3,3,0,0,1-1.06.53c-.13,0-.23-.16-.23-.35s0-.28,0-.35L325,247a6.42,6.42,0,0,0,.19-1.3c0-.4-.19-.63-.54-.63a5.5,5.5,0,0,0-3,1.63,14.78,14.78,0,0,0-2.06,2.48l.66-2.81a3.5,3.5,0,0,0,.11-.72c0-.37-.14-.58-.4-.58s-1.05.39-2.33,1.3Z" transform="translate(0.25 0.25)"/>
  </g>
  <path class="cls-13" d="M222.74,290.15l-.36-.33a11.75,11.75,0,0,1-4.8,1.26l-.12.63h1.44c.72,0,1,.21,1,.72a5.37,5.37,0,0,1-.06.72l-.84,4.62a8.63,8.63,0,0,0-2.46-.42c-2.07,0-4.89,2.16-6.27,4.77a16.57,16.57,0,0,0-1.53,7.11c0,1.95.45,2.91,1.32,2.91a5.35,5.35,0,0,0,2.94-1.32,21.22,21.22,0,0,0,4.62-5.52L217,308a13,13,0,0,0-.48,3.06c0,.63.27,1,.78,1A4.53,4.53,0,0,0,219.5,311l2.43-1.8-.3-.57-1.32.93a2.51,2.51,0,0,1-1.17.51c-.24,0-.42-.27-.42-.69A5.82,5.82,0,0,1,219,308ZM211.67,310c-.48,0-.75-.42-.75-1.17,0-3.78,1.38-8.46,2.85-9.6a2.84,2.84,0,0,1,1.77-.45,6.3,6.3,0,0,1,3.18.69l-.36,1.77C217.25,306.68,213,310,211.67,310Zm28.71,1.89c.39-2,.72-3.93,1.26-5.91v-.09H241V306c-1,2.46-1.26,3.51-4.11,3.51H226.13c2.49-3.24,5.1-6.45,7.77-9.51-1.35-2.43-2.49-5-3.63-7.53h7.59c3,0,3.12.51,3,3.24h.66v-.12c.33-1.41.57-2.88,1-4.29v-.18c-5.22.24-10.56.21-15.78.24v.48a90.54,90.54,0,0,1,4.59,9.75,110.86,110.86,0,0,1-8.64,9.75v.57C228.65,311.78,234.47,311.78,240.38,311.93Z" transform="translate(0.25 0.25)"/>
  <g>
    <path class="cls-14" d="M623.08,222.75h3.51l4,.12.57-1.35-.12-.21c-2.43.12-4.23.18-6.57.18h-1.11l1.41-8.1c1,0,3.45-.12,4.11-.12,1.86,0,3.09.27,3.12.72l.24,2.67h.72a20.27,20.27,0,0,1,.63-4.56c-.63-.06-1.53-.09-2.07-.09-.09,0-.42,0-1.14,0l-3.6,0c-.27,0-5.49,0-5.79,0l-1.35,0-.09.84,1.62.06c.72,0,1,.27,1,.81a18.52,18.52,0,0,1-.27,2.28l-2.61,15.12c-.12.54-.48.75-1.8,1l-.15.78,1.23,0c.93,0,2.79-.06,3.39-.06l6.75.09c.42,0,1.17,0,2.16-.06l1,0,.12-1.08c.06-.6.21-1.5.48-3l.15-.78h-.81l-.48,1.8c-.3,1.08-.57,1.44-1.23,1.59a34.72,34.72,0,0,1-4.41.27,40.28,40.28,0,0,1-4.11-.21Z" transform="translate(0.25 0.25)"/>
    <path class="cls-15" d="M636.23,201.33l-5.56-5.86-.86.92,3.4,4.1h-.27v1.59h.27l-3.4,4.1.86.92Zm-16.81.67h16v-1.59h-16Z" transform="translate(0.25 0.25)"/>
  </g>
  <path class="cls-16" d="M150.24,192.47c.65-3.3,1.2-6.55,2.1-9.85v-.15h-1.1v.15c-1.7,4.1-2.1,5.85-6.85,5.85h-17.9c4.15-5.4,8.5-10.75,13-15.85-2.25-4.05-4.15-8.35-6.05-12.55H146c5,0,5.2.85,5.05,5.4h1.1v-.2c.55-2.35.95-4.8,1.7-7.15v-.3c-8.7.4-17.6.35-26.3.4v.8a150.89,150.89,0,0,1,7.65,16.25,184.76,184.76,0,0,1-14.4,16.25v.95C130.69,192.22,140.39,192.22,150.24,192.47Z" transform="translate(0.25 0.25)"/>
</svg>
