<svg id="Livello_1" data-name="Livello 1" xmlns="http://www.w3.org/2000/svg" xmlns:xlink="http://www.w3.org/1999/xlink" width="662.5" height="582.5" viewBox="0 0 662.5 582.5">
  <defs>
    <style>
      .cls-1, .cls-14, .cls-2, .cls-4, .cls-6, .cls-7, .cls-8, .cls-9 {
        fill: none;
      }

      .cls-2, .cls-3 {
        stroke: #d3d3d3;
        stroke-width: 0.5px;
      }

      .cls-3 {
        fill: url(#_.7457492991407171);
      }

      .cls-10, .cls-11, .cls-4, .cls-8 {
        stroke: red;
      }

      .cls-4 {
        stroke-width: 6px;
      }

      .cls-10, .cls-11, .cls-5 {
        fill: red;
      }

      .cls-12, .cls-13, .cls-14, .cls-15, .cls-6, .cls-7, .cls-9 {
        stroke: #000;
      }

      .cls-6, .cls-9 {
        stroke-width: 3px;
      }

      .cls-6 {
        stroke-dasharray: 9 6;
      }

      .cls-7, .cls-8 {
        stroke-width: 4px;
      }

      .cls-10, .cls-11, .cls-12, .cls-13, .cls-15 {
        stroke-miterlimit: 10;
      }

      .cls-10, .cls-12 {
        stroke-width: 0.4px;
      }

      .cls-11 {
        stroke-width: 0.24px;
      }

      .cls-13 {
        stroke-width: 0.32px;
      }

      .cls-14 {
        stroke-width: 2px;
      }

      .cls-15 {
        stroke-width: 0.22px;
      }
    </style>
    <pattern id="_.7457492991407171" data-name=".7457492991407171" width="10" height="10" patternTransform="matrix(1, 0, 0, -1, -2.75, 842.14)" patternUnits="userSpaceOnUse" viewBox="0 0 10 10">
      <rect class="cls-1" width="10" height="10"/>
      <path class="cls-2" d="M10,10H0V0"/>
    </pattern>
  </defs>
  <rect class="cls-3" x="0.25" y="0.25" width="662" height="582"/>
  <g>
    <g>
      <path class="cls-4" d="M437.94,169.5l92-118.3" transform="translate(0.25 0.25)"/>
      <path class="cls-5" d="M529.17,71l5.66-26.14L510.89,56.81Z" transform="translate(0.25 0.25)"/>
    </g>
    <path class="cls-6" d="M440,166.85,348,283.64" transform="translate(0.25 0.25)"/>
    <path class="cls-7" d="M147.16,309.15A180.45,180.45,0,1,1,327.6,489.6,180.45,180.45,0,0,1,147.16,309.15Z" transform="translate(0.25 0.25)"/>
    <path class="cls-8" d="M295,309.15a32.6,32.6,0,1,1,32.59,32.6A32.6,32.6,0,0,1,295,309.15Z" transform="translate(0.25 0.25)"/>
    <g>
      <path class="cls-9" d="M348,283.64l42.8-53.25" transform="translate(0.25 0.25)"/>
      <path d="M390.36,241.93l3.6-15.44-14.3,6.84Z" transform="translate(0.25 0.25)"/>
    </g>
    <g>
      <path class="cls-9" d="M437.94,169.5l45.37-58.36" transform="translate(0.25 0.25)"/>
      <path d="M483,122.68l3.36-15.49-14.19,7.07Z" transform="translate(0.25 0.25)"/>
    </g>
  </g>
  <path class="cls-10" d="M342.18,311.08v-2.95h-12v-11.9h-2.95v11.9h-12v2.95h12v12.05h2.95V311.08Z" transform="translate(0.25 0.25)"/>
  <g>
    <path class="cls-11" d="M531.82,106.31h3.51l4,.12.57-1.35-.12-.21c-2.43.12-4.23.18-6.57.18h-1.11l1.41-8.1c1,0,3.45-.12,4.11-.12,1.86,0,3.09.27,3.12.72l.24,2.67h.72a20.27,20.27,0,0,1,.63-4.56c-.63-.06-1.53-.09-2.07-.09-.09,0-.42,0-1.14,0l-3.6,0c-.27,0-5.49,0-5.79,0l-1.35,0-.09.84,1.62.06c.72,0,1,.27,1,.81a18.52,18.52,0,0,1-.27,2.28L528,114.68c-.12.54-.48.75-1.8,1l-.15.78,1.23,0c.93,0,2.79-.06,3.39-.06l6.75.09c.42,0,1.17,0,2.16-.06l1,0,.12-1.08c.06-.6.21-1.5.48-3l.15-.78h-.81l-.48,1.8c-.3,1.08-.57,1.44-1.23,1.59a34.72,34.72,0,0,1-4.41.27,40.28,40.28,0,0,1-4.11-.21Z" transform="translate(0.25 0.25)"/>
    <path class="cls-5" d="M545,84.89,539.41,79l-.86.92,3.4,4.1h-.27v1.59H542l-3.4,4.1.86.92Zm-16.81.67h16V84h-16Z" transform="translate(0.25 0.25)"/>
  </g>
  <path class="cls-12" d="M371.16,344.46a13.41,13.41,0,0,0-5.05-1.2c-3.75,0-8.15,4.4-9.05,5.4-2,2.35-3.95,9.65-3.95,14.8,0,3,.6,4.45,1.8,4.45s2-.4,3.65-1.5a30.38,30.38,0,0,0,8.75-9.5l-3.8,20.7a6.07,6.07,0,0,1-1.35,2.85l.45.7a36,36,0,0,1,4.3-.85,78.6,78.6,0,0,1,.95-7.95l4.3-22.8a41.35,41.35,0,0,1,1.35-5.9l-.7-.3Zm-13.35,20c-.7,0-1.1-1.05-1.1-2.7,0-4.8,2.15-12.3,4.25-14.8a4.91,4.91,0,0,1,3.65-1.2c1.4,0,2.45.3,4.85,1.35l-1,4.75C367,358.66,359.91,364.41,357.81,364.41Z" transform="translate(0.25 0.25)"/>
  <g>
    <g>
      <path class="cls-13" d="M396.62,272.6l-.28-.36-2.72.68-.4,2a22,22,0,0,1-2.84,7.72c-2.36,3.63-5.48,6.47-7.08,6.47-.32,0-.52-.36-.52-1a10.1,10.1,0,0,1,.28-2.07l2.28-10.84a9.48,9.48,0,0,0,.2-1.72c0-.76-.36-1.24-.92-1.24-.8,0-2.32.84-5.28,3l-1.12.8.28.8,1.28-.84c1.12-.72,1.56-.92,1.92-.92a.76.76,0,0,1,.68.8,4.41,4.41,0,0,1-.08.72l-2.52,11.87a12.22,12.22,0,0,0-.16,1.88A1.51,1.51,0,0,0,381,292c2.52,0,7.36-4.48,10.72-10l-1.48,5.67a10.91,10.91,0,0,0-.44,2.64c0,1,.44,1.6,1.2,1.6,1,0,2.48-.84,6.4-3.76l-.4-.72-1,.68a6.14,6.14,0,0,1-2.44,1.08c-.32,0-.52-.28-.52-.68C393,287,396,274.88,396.62,272.6Z" transform="translate(0.25 0.25)"/>
      <polyline class="cls-14" points="377.19 265.53 388.29 258.13 399.39 265.53"/>
    </g>
    <path class="cls-15" d="M410.63,296.09a28.43,28.43,0,0,1,.45-3.11,1.22,1.22,0,0,0-.56-.16c-.87,0-1.74.67-2.74,2.1a33.44,33.44,0,0,0-2.64,4.22l.9-4.25a5.3,5.3,0,0,0,.17-1.18c0-.56-.23-.89-.65-.89-.58,0-1.65.58-3.72,2.07l-.78.56.19.56.9-.59c.78-.5,1.09-.64,1.34-.64s.48.25.48.61a59.85,59.85,0,0,1-2.33,11l.28.19a15.18,15.18,0,0,1,1.52-.36l.36-.06.73-3.36a12.27,12.27,0,0,1,2.38-5.4c.95-1.23,1.71-1.82,2.32-1.82a1.17,1.17,0,0,1,1,.53Z" transform="translate(0.25 0.25)"/>
  </g>
  <path class="cls-13" d="M370.14,195.92a37.1,37.1,0,0,1,.64-4.44,1.8,1.8,0,0,0-.8-.24c-1.24,0-2.48,1-3.92,3a49.32,49.32,0,0,0-3.76,6l1.28-6.08a7.33,7.33,0,0,0,.24-1.68c0-.8-.32-1.28-.92-1.28-.84,0-2.36.84-5.32,3l-1.12.8.28.8L358,195c1.12-.72,1.56-.92,1.92-.92s.68.36.68.88c0,2.32-1.72,10.55-3.32,15.67l.4.28a21.74,21.74,0,0,1,2.16-.52l.52-.08,1-4.8a17.53,17.53,0,0,1,3.4-7.71c1.36-1.76,2.44-2.6,3.32-2.6a1.65,1.65,0,0,1,1.44.76Z" transform="translate(0.25 0.25)"/>
  <g>
    <g>
      <path class="cls-13" d="M437.7,107.28l-.28-.36-2.72.68-.4,2a22,22,0,0,1-2.84,7.72c-2.36,3.64-5.48,6.48-7.08,6.48-.32,0-.52-.36-.52-1a10.26,10.26,0,0,1,.28-2.08l2.28-10.84a9.48,9.48,0,0,0,.2-1.72c0-.76-.36-1.24-.92-1.24-.8,0-2.32.84-5.28,3l-1.12.8.28.8,1.28-.84c1.12-.72,1.56-.92,1.92-.92a.76.76,0,0,1,.68.8,4.41,4.41,0,0,1-.08.72l-2.52,11.88a12.22,12.22,0,0,0-.16,1.88,1.51,1.51,0,0,0,1.4,1.64c2.52,0,7.36-4.48,10.72-10l-1.48,5.68a10.91,10.91,0,0,0-.44,2.64c0,1,.44,1.6,1.2,1.6,1,0,2.48-.84,6.4-3.76l-.4-.72-1,.68a6.14,6.14,0,0,1-2.44,1.08c-.32,0-.52-.28-.52-.68C434.1,121.72,437.1,109.56,437.7,107.28Z" transform="translate(0.25 0.25)"/>
      <polyline class="cls-14" points="418.27 100.22 429.37 92.82 440.47 100.22"/>
    </g>
    <path class="cls-15" d="M442.08,130.14l.19.56.9-.59c1-.65,1.12-.7,1.32-.7s.5.28.5.7a66.85,66.85,0,0,1-2.3,10.83l.2.31c.7-.19,1.34-.36,2-.47.53-3.53,1.12-5.35,2.41-7.28,1.51-2.36,3.61-4.09,4.87-4.09.31,0,.48.25.48.67a8.49,8.49,0,0,1-.31,2L450.84,138a10,10,0,0,0-.36,2.13c0,.7.31,1.12.84,1.12.73,0,1.73-.59,4.48-2.63l-.28-.5-.73.47a4.66,4.66,0,0,1-1.71.84c-.19,0-.36-.25-.36-.56a4.66,4.66,0,0,1,0-.56l1.85-7.73a9.68,9.68,0,0,0,.31-2.07c0-.64-.31-1-.87-1-1.17,0-3.11,1.07-4.76,2.61a23,23,0,0,0-3.3,4l1.06-4.5a5.57,5.57,0,0,0,.17-1.15c0-.59-.22-.93-.64-.93-.59,0-1.68.62-3.73,2.08Z" transform="translate(0.25 0.25)"/>
  </g>
  <g>
    <g>
      <path class="cls-13" d="M175.51,533.38l-.28-.36-2.72.68-.4,2a22,22,0,0,1-2.84,7.72c-2.36,3.64-5.48,6.48-7.08,6.48-.32,0-.52-.36-.52-1a10.26,10.26,0,0,1,.28-2.08L164.23,536a9.48,9.48,0,0,0,.2-1.72c0-.76-.36-1.24-.92-1.24-.8,0-2.32.84-5.28,3l-1.12.8.28.8,1.28-.84c1.12-.72,1.56-.92,1.92-.92a.76.76,0,0,1,.68.8,4.41,4.41,0,0,1-.08.72l-2.52,11.88a12.22,12.22,0,0,0-.16,1.88,1.51,1.51,0,0,0,1.4,1.64c2.52,0,7.36-4.48,10.72-10l-1.48,5.68a10.91,10.91,0,0,0-.44,2.64c0,1,.44,1.6,1.2,1.6,1,0,2.48-.84,6.4-3.76l-.4-.72-1,.68a6.14,6.14,0,0,1-2.44,1.08c-.32,0-.52-.28-.52-.68C171.91,547.82,174.91,535.66,175.51,533.38Z" transform="translate(0.25 0.25)"/>
      <polyline class="cls-14" points="156.08 526.31 167.18 518.91 178.28 526.31"/>
    </g>
    <path class="cls-15" d="M189.52,556.87a27.92,27.92,0,0,1,.45-3.1,1.28,1.28,0,0,0-.56-.17c-.87,0-1.74.67-2.74,2.1a34.16,34.16,0,0,0-2.64,4.23l.9-4.26a5.3,5.3,0,0,0,.17-1.18c0-.56-.23-.89-.65-.89-.58,0-1.65.59-3.72,2.07l-.78.56.19.56.9-.59c.78-.5,1.09-.64,1.34-.64s.48.25.48.61a59.68,59.68,0,0,1-2.33,11l.28.2a14.83,14.83,0,0,1,1.52-.37l.36-.05.73-3.36a12.26,12.26,0,0,1,2.38-5.41c.95-1.23,1.71-1.82,2.32-1.82a1.17,1.17,0,0,1,1,.53Z" transform="translate(0.25 0.25)"/>
    <path class="cls-13" d="M212.35,523.74h-2.2L199,559.06h2.2Zm11.44,0h-2.2l-11.16,35.32h2.2Z" transform="translate(0.25 0.25)"/>
    <path class="cls-13" d="M257.73,552.3" transform="translate(0.25 0.25)"/>
    <g>
      <path class="cls-13" d="M261,533.38l-.28-.36-2.72.68-.4,2a22,22,0,0,1-2.84,7.72c-2.36,3.64-5.48,6.48-7.08,6.48-.32,0-.52-.36-.52-1a10.26,10.26,0,0,1,.28-2.08L249.7,536a9.48,9.48,0,0,0,.2-1.72c0-.76-.36-1.24-.92-1.24-.8,0-2.32.84-5.28,3l-1.12.8.28.8,1.28-.84c1.12-.72,1.56-.92,1.92-.92a.76.76,0,0,1,.68.8,4.41,4.41,0,0,1-.08.72l-2.52,11.88a12.22,12.22,0,0,0-.16,1.88,1.51,1.51,0,0,0,1.4,1.64c2.52,0,7.36-4.48,10.72-10l-1.48,5.68a10.91,10.91,0,0,0-.44,2.64c0,1,.44,1.6,1.2,1.6,1,0,2.48-.84,6.4-3.76l-.4-.72-1,.68a6.14,6.14,0,0,1-2.44,1.08c-.32,0-.52-.28-.52-.68C257.38,547.82,260.38,535.66,261,533.38Z" transform="translate(0.25 0.25)"/>
      <polyline class="cls-14" points="241.55 526.31 252.65 518.91 263.75 526.31"/>
    </g>
    <path class="cls-15" d="M265.36,556.23l.2.56.89-.59c1-.64,1.12-.7,1.32-.7s.5.28.5.7A68,68,0,0,1,266,567l.19.31c.7-.2,1.35-.37,2-.48.53-3.53,1.12-5.35,2.41-7.28,1.51-2.35,3.61-4.09,4.87-4.09.31,0,.48.25.48.67a8.34,8.34,0,0,1-.31,2l-1.46,5.94a9.94,9.94,0,0,0-.36,2.13c0,.7.31,1.12.84,1.12.73,0,1.74-.59,4.48-2.64l-.28-.5-.73.48a4.66,4.66,0,0,1-1.71.84c-.19,0-.36-.26-.36-.56a3.2,3.2,0,0,1,.06-.56l1.84-7.73a9.76,9.76,0,0,0,.31-2.07c0-.65-.31-1-.87-1-1.17,0-3.1,1.06-4.76,2.6a23.25,23.25,0,0,0-3.3,4l1.06-4.51a4.88,4.88,0,0,0,.17-1.15c0-.59-.22-.92-.64-.92-.59,0-1.68.61-3.73,2.07Z" transform="translate(0.25 0.25)"/>
    <path class="cls-13" d="M297.21,540.22v2.36h50.6l-5,6.08,1.28,1.36,8.28-8.68-8.28-8.56-1.28,1.36,5,6.08Z" transform="translate(0.25 0.25)"/>
    <g>
      <path class="cls-13" d="M386.79,533.38l-.28-.36-2.72.68-.4,2a22,22,0,0,1-2.84,7.72c-2.36,3.64-5.48,6.48-7.08,6.48-.32,0-.52-.36-.52-1a10.26,10.26,0,0,1,.28-2.08L375.51,536a9.48,9.48,0,0,0,.2-1.72c0-.76-.36-1.24-.92-1.24-.8,0-2.32.84-5.28,3l-1.12.8.28.8,1.28-.84c1.12-.72,1.56-.92,1.92-.92a.76.76,0,0,1,.68.8,4.41,4.41,0,0,1-.08.72L370,549.22a12.22,12.22,0,0,0-.16,1.88,1.51,1.51,0,0,0,1.4,1.64c2.52,0,7.36-4.48,10.72-10l-1.48,5.68a10.91,10.91,0,0,0-.44,2.64c0,1,.44,1.6,1.2,1.6,1,0,2.48-.84,6.4-3.76l-.4-.72-1,.68a6.14,6.14,0,0,1-2.44,1.08c-.32,0-.52-.28-.52-.68C383.19,547.82,386.19,535.66,386.79,533.38Z" transform="translate(0.25 0.25)"/>
      <polyline class="cls-14" points="367.36 526.31 378.46 518.91 389.56 526.31"/>
    </g>
    <path class="cls-15" d="M400.8,556.87a27.92,27.92,0,0,1,.45-3.1,1.28,1.28,0,0,0-.56-.17c-.87,0-1.73.67-2.74,2.1a33.88,33.88,0,0,0-2.63,4.23l.89-4.26a5.3,5.3,0,0,0,.17-1.18c0-.56-.22-.89-.64-.89-.59,0-1.66.59-3.73,2.07l-.78.56.19.56.9-.59c.78-.5,1.09-.64,1.34-.64s.48.25.48.61a59.5,59.5,0,0,1-2.32,11l.28.2a14.56,14.56,0,0,1,1.51-.37l.36-.05.73-3.36a12.26,12.26,0,0,1,2.38-5.41c.95-1.23,1.71-1.82,2.32-1.82a1.17,1.17,0,0,1,1,.53Z" transform="translate(0.25 0.25)"/>
    <path class="cls-13" d="M439.91,538.42v-2.36H418.35v2.36Zm0,8.52v-2.36H418.35v2.36Z" transform="translate(0.25 0.25)"/>
    <path class="cls-13" d="M480.85,552.3" transform="translate(0.25 0.25)"/>
    <g>
      <path class="cls-13" d="M484.1,533.38l-.28-.36-2.72.68-.4,2a22,22,0,0,1-2.84,7.72c-2.36,3.64-5.48,6.48-7.08,6.48-.32,0-.52-.36-.52-1a10.26,10.26,0,0,1,.28-2.08L472.82,536a9.48,9.48,0,0,0,.2-1.72c0-.76-.36-1.24-.92-1.24-.8,0-2.32.84-5.28,3l-1.12.8.28.8,1.28-.84c1.12-.72,1.56-.92,1.92-.92a.76.76,0,0,1,.68.8,4.41,4.41,0,0,1-.08.72l-2.52,11.88a12.22,12.22,0,0,0-.16,1.88,1.51,1.51,0,0,0,1.4,1.64c2.52,0,7.36-4.48,10.72-10l-1.48,5.68a10.91,10.91,0,0,0-.44,2.64c0,1,.44,1.6,1.2,1.6,1,0,2.48-.84,6.4-3.76l-.4-.72-1,.68a6.14,6.14,0,0,1-2.44,1.08c-.32,0-.52-.28-.52-.68C480.5,547.82,483.5,535.66,484.1,533.38Z" transform="translate(0.25 0.25)"/>
      <polyline class="cls-14" points="464.67 526.31 475.77 518.91 486.87 526.31"/>
    </g>
    <path class="cls-15" d="M488.48,556.23l.2.56.9-.59c1-.64,1.12-.7,1.31-.7s.51.28.51.7A67.13,67.13,0,0,1,489.1,567l.2.31a19.83,19.83,0,0,1,2-.48c.53-3.53,1.12-5.35,2.4-7.28,1.52-2.35,3.62-4.09,4.88-4.09.3,0,.47.25.47.67a7.86,7.86,0,0,1-.31,2l-1.45,5.94a10.14,10.14,0,0,0-.37,2.13c0,.7.31,1.12.84,1.12.73,0,1.74-.59,4.48-2.64l-.28-.5-.72.48a4.74,4.74,0,0,1-1.71.84c-.2,0-.37-.26-.37-.56a3.2,3.2,0,0,1,.06-.56l1.85-7.73a10.46,10.46,0,0,0,.31-2.07c0-.65-.31-1-.87-1-1.18,0-3.11,1.06-4.76,2.6a22.76,22.76,0,0,0-3.31,4l1.07-4.51a5.48,5.48,0,0,0,.17-1.15c0-.59-.23-.92-.65-.92-.59,0-1.68.61-3.72,2.07Z" transform="translate(0.25 0.25)"/>
  </g>
  <path class="cls-13" d="M181.3,182.67c.52-2.64,1-5.24,1.68-7.87v-.12h-.88v.12c-1.36,3.27-1.68,4.67-5.48,4.67H162.3c3.32-4.31,6.8-8.59,10.36-12.67-1.8-3.24-3.32-6.68-4.84-10h10.12c4,0,4.16.68,4,4.32h.88v-.16c.44-1.88.76-3.84,1.36-5.72V155c-7,.32-14.08.28-21,.32v.64a120.72,120.72,0,0,1,6.12,13,147.68,147.68,0,0,1-11.52,13v.76C165.66,182.47,173.42,182.47,181.3,182.67Z" transform="translate(0.25 0.25)"/>
</svg>
