<svg xmlns="http://www.w3.org/2000/svg" width="121.92mm" height="166.23mm" viewBox="0 0 345.6 471.2">
  <defs>
    <style>
      .cls-1, .cls-12 {
        fill: #fff;
      }

      .cls-2 {
        fill: #f49d83;
      }

      .cls-15, .cls-16, .cls-3 {
        fill: #1d1d1b;
      }

      .cls-4 {
        fill: #402718;
      }

      .cls-5, .cls-6 {
        fill: #e30613;
      }

      .cls-12, .cls-13, .cls-15, .cls-5, .cls-6, .cls-7 {
        stroke: #1d1d1b;
      }

      .cls-12, .cls-13, .cls-15, .cls-16, .cls-5, .cls-6, .cls-7, .cls-8 {
        stroke-miterlimit: 10;
      }

      .cls-5, .cls-7 {
        stroke-width: 3px;
      }

      .cls-12, .cls-13, .cls-6, .cls-8 {
        stroke-width: 2px;
      }

      .cls-13, .cls-7, .cls-8 {
        fill: none;
      }

      .cls-16, .cls-8 {
        stroke: #fff;
      }

      .cls-9 {
        fill: #341d0e;
      }

      .cls-10 {
        fill: #36a9e1;
      }

      .cls-11 {
        fill: #27a737;
      }

      .cls-14 {
        fill: #5f3e2b;
      }
    </style>
  </defs>
  <g id="Livello_26" data-name="Livello 26">
    <rect class="cls-1" width="345.6" height="471.2"/>
  </g>
  <g id="Livello_14" data-name="Livello 14">
    <circle class="cls-2" cx="74.83" cy="338.43" r="14.99"/>
  </g>
  <g id="Livello_11" data-name="Livello 11">
    <path class="cls-3" d="M213.64,409.77c-5.56,3.71-10.65,6.75-15,9.2-8.51,4.79-12.77,7.18-16.69,8.51-3.64,1.24-8.66,2.55-15,6.14-2.28,1.28-4.35,2.65-5.11,5.11-1.11,3.53,1.25,6.88,1.7,7.49s1.94,2.38,7.84,4.09c5.56,1.61,8.6-.7,11.58,1.7a7.27,7.27,0,0,1,2.05,2.73c1.68,3.73-.73,6.59-3.41,15.67-2,6.68-.42,4.3-2.39,12.61a8.47,8.47,0,0,0,0,4.77,8.72,8.72,0,0,0,3.75,4.43c3.9,2.39,6.89.49,8.52,2,2.3,2.19-.82,8.65-3.07,14-6.67,15.79-3,15.31-10.56,33.73-1.74,4.27-3.92,9.16-6.81,17.37-1.21,3.42-2.13,6.27-2.73,8.18L295.42,567l-47-45.72-16.7-59.41,10.14-38.07Z" transform="translate(-116.6 -165.2)"/>
  </g>
  <g id="Livello_16" data-name="Livello 16">
    <path class="cls-4" d="M237.8,558.4a10,10,0,0,0-5.11,1.78,18.64,18.64,0,0,0-4,4.48c-1.35,2-1.74,3.15-2.68,3.19s-1.16-.79-2.3-1.66c-1.35-1-2.68-1.28-4.73-1.66a15.79,15.79,0,0,0-16,5.49,21.4,21.4,0,0,0-3.83,6.77,24.68,24.68,0,0,0-1.79,7.41c-.11,1.64-.12,5.11-.13,5.5v1.66h59.41V562c0-1.16-.51-1.58-1.08-2.79-1.22-.71-1.13-.83-2.23-.83Z" transform="translate(-116.6 -165.2)"/>
    <path class="cls-4" d="M304,559.21a10,10,0,0,0-5.11,1.78,18.64,18.64,0,0,0-4,4.48c-1.35,2-1.74,3.15-2.68,3.19s-1.16-.79-2.3-1.66c-1.35-1-2.68-1.29-4.73-1.66a15.79,15.79,0,0,0-16,5.49,21.4,21.4,0,0,0-3.83,6.77,24.68,24.68,0,0,0-1.79,7.41c-.11,1.64-.12,5.1-.13,5.5v1.66h59.41V562.83c0-1.17-.51-1.58-1.08-2.79-1.22-.71-1.13-.83-2.23-.83Z" transform="translate(-116.6 -165.2)"/>
  </g>
  <g id="Livello_15" data-name="Livello 15">
    <path class="cls-2" d="M237.8,550.35c-.72.84-.86,3.41-1.15,8.56-.12,2.27-.11,3.15.51,4,1.29,1.65,4,1.47,5.12,1.4,1.39-.09,4.12-.14,5-1.79.34-.66.3-1.42.34-3.3,0-1.66,0-2.21.08-3,.28-4-.09-5.57-1.06-6.89C245.28,547.5,240.08,547.7,237.8,550.35Z" transform="translate(-116.6 -165.2)"/>
  </g>
  <g id="Livello_9" data-name="Livello 9">
    <path class="cls-5" d="M238.7,494q-3.07,10.23-6.13,20.45l3.06,1.53-5.16,17.89-3.17,14.31-1.63,5.11h55.7l5.37-64.65Z" transform="translate(-116.6 -165.2)"/>
  </g>
  <g id="Livello_8" data-name="Livello 8">
    <path class="cls-5" d="M243,420.41c-3.59,3.55-5.29,7.74-8.69,16.1a98.13,98.13,0,0,0-5.11,17.38c-1.37,6.91-2.34,11.74-1.79,18.39.38,4.57,1,10.8,5.12,17.12,2.73,4.19,4.71,6.28,6.89,7.42a15.35,15.35,0,0,0,5.12,1.53,55.17,55.17,0,0,0,15.33,0c8.51-1.2,16.8-2.36,25.55-2.3,10.29.07,10.18,1.75,12.77.51,8.55-4.09,3.73-19.53,7.67-55.19,1.4-12.72,2.7-17-.51-21.47-5.82-8.16-19.59-7.56-34.75-6.9C258,413.56,249.48,414.05,243,420.41Z" transform="translate(-116.6 -165.2)"/>
  </g>
  <g id="Livello_22" data-name="Livello 22">
    <path class="cls-6" d="M264.76,434.34a145.6,145.6,0,0,0-3.83,50c.52,5.36,1.27,10,2,13.64" transform="translate(-116.6 -165.2)"/>
  </g>
  <g id="Livello_21" data-name="Livello 21">
    <path class="cls-7" d="M238.11,496" transform="translate(-116.6 -165.2)"/>
  </g>
  <g id="Livello_10" data-name="Livello 10">
    <path class="cls-3" d="M305.47,430.21a259.92,259.92,0,0,0-11.58,27.94c-10.38,29.85-12.4,53.3-13.63,68.82-1.08,13.7-1,24.81,2.05,37.47a102.64,102.64,0,0,0,3.4,11.25h52.77l21.07-23.91-21.71-18-1.7-35.43,9.37-17.89,43.09.51-4.94-31L382,434.81l-2.55-14.48-5.25-4.66a.74.74,0,0,0-.27-.16L366.63,413l-14.88-5.28-8.63-1.87-22.61,7.66Z" transform="translate(-116.6 -165.2)"/>
  </g>
  <g id="Livello_24" data-name="Livello 24">
    <ellipse class="cls-8" cx="243.2" cy="316.54" rx="20.85" ry="22.91"/>
    <polyline class="cls-8" points="219.03 279.49 216.13 296.65 211.53 311.53 211.53 321.74 215.28 330.87"/>
  </g>
  <g id="Livello_19" data-name="Livello 19">
    <polygon class="cls-9" points="243.05 426.97 255.82 426.97 248.37 386.81 243.05 426.97"/>
  </g>
  <g id="Livello_17" data-name="Livello 17">
    <circle class="cls-4" cx="248.54" cy="350.35" r="37.73"/>
    <circle class="cls-9" cx="248.54" cy="345.24" r="37.73"/>
    <path class="cls-4" d="M372.72,550.6l39.73,39.74-29.64,1.83-17.67-33-16.23,33h-28.1L358.2,550.6h14.52Z" transform="translate(-116.6 -165.2)"/>
  </g>
  <g id="Livello_13" data-name="Livello 13">
    <circle class="cls-10" cx="248.54" cy="342.22" r="35.13"/>
  </g>
  <g id="Livello_20" data-name="Livello 20">
    <polygon class="cls-11" points="224.31 337.07 239.98 334.85 239.98 347.29 236.91 354.27 234.5 357.2 238.08 364.32 243.05 368.58 244.92 373.86 241.17 375.91 238.73 376.07 232.82 372.16 229.38 363.64 230.46 358.22 224.31 353.93 221.07 348.65 221.07 339.62 224.31 337.07"/>
    <polygon class="cls-11" points="248.54 334.85 252.07 337.58 252.07 341.67 254.12 339.62 254.12 334.85 252.24 331.44 249.43 332.3 248.54 334.85"/>
    <path class="cls-11" d="M366,507.42a7.06,7.06,0,0,1,4.69,0l2.72-1.92v-6.61l3.92-8.12v-8.95l3.92-4a2.35,2.35,0,0,1,1.18-1c4-1.39,14.11,9.68,15.34,21.84a26,26,0,0,1-1.53,11.75,27.08,27.08,0,0,1-4.94,7.84c-2.27,2.63-2.66,2.17-4.09,4.09-3.41,4.59-1.94,8.25-4.43,9.71-2.82,1.65-7.43-1.48-8-1.88-5.87-4.07-7.06-12-7.84-11.75s1,5.66-.68,6.64c-1,.57-2.86-.48-3.92-1.7C358.87,519.37,360.69,509.46,366,507.42Z" transform="translate(-116.6 -165.2)"/>
  </g>
  <g id="Livello_18" data-name="Livello 18">
    <path class="cls-9" d="M374.55,542.19c-.13-.06,1.41-2.92,2.91-8.11A75.78,75.78,0,0,0,380,518.34c.77-17.69-14.14-44.56-12.26-45.65,1.09-.64,8,7.42,12.26,17A51.71,51.71,0,0,1,384.77,516C383.35,531,374.83,542.31,374.55,542.19Z" transform="translate(-116.6 -165.2)"/>
    <path class="cls-9" d="M356.4,544c.14-.06-1.4-2.92-2.9-8.11A76,76,0,0,1,351,520.15c-.76-17.69,14.15-44.56,12.27-45.65-1.1-.64-8,7.42-12.27,17a52,52,0,0,0-4.77,26.24C347.61,532.79,356.12,544.13,356.4,544Z" transform="translate(-116.6 -165.2)"/>
  </g>
  <g id="Livello_12" data-name="Livello 12">
    <circle class="cls-2" cx="243.35" cy="311.65" r="14.99"/>
  </g>
  <g id="Livello_7" data-name="Livello 7">
    <path class="cls-12" d="M240.06,359.34c-2.9-2.36-8.77.77-28.62,11.33l-6.3,6.56-2.9,11.58-.72,4.23h1.15l-1.15,4.12-.77,3.45v2.94a5.94,5.94,0,0,0-2.17,2.3,6.39,6.39,0,0,0-.64,3.45c.05,1.13.08,1.89.64,2.3s1.9,0,2.56-.26a5.37,5.37,0,0,0,1.15-.64,9,9,0,0,0,1.91-2.3,7.65,7.65,0,0,1,3.07-2.17c1.07-.47,2.62-1.16,3.45-.51.63.5.49,2,.43,2.72,0,.24,0,.42-.05.48a46.27,46.27,0,0,1-1.4,5.74c-.14.47-.56,2.36-1.41,6.14a14.77,14.77,0,0,0-.64,4.34,10.71,10.71,0,0,0,1,4,8.08,8.08,0,0,0,2.18,3c.85.69,1.9,1.17,4.51,1.54a23.74,23.74,0,0,0,9,0,27.62,27.62,0,0,0,6.64-2.56c2.08-1,3.95-2.14,4.77-2.64,1-.61,1.77-1.11,3.07-2,2.22-1.45,2.75-1.87,4.51-3a19.79,19.79,0,0,1,3.32-1.87,12.58,12.58,0,0,1,3.92-.77,15.68,15.68,0,0,1,4.18.51c2.24.46,2.66.83,2.89,1.11a5.32,5.32,0,0,1,.77,2.38c.23,1.21.19,1.6.34,2.64a18.79,18.79,0,0,0,.91,3.67,11.06,11.06,0,0,0,1.67,3.25,9.45,9.45,0,0,0,2.42,2.24,7.93,7.93,0,0,0,3.77,1.28,7.55,7.55,0,0,0,4.28-1.09,24,24,0,0,0,6.39-3.51,17.6,17.6,0,0,0,2.87-2.69c.91-1.07.93-1.39,1.86-2.42a9.14,9.14,0,0,1,3-2.49,14.15,14.15,0,0,1,3.7-.77,8.86,8.86,0,0,1,3.2-.19,5.77,5.77,0,0,1,2.94,2.81c1.17,1.86.71,2.42,1.79,3.77a8.85,8.85,0,0,0,3.19,2.3,15.59,15.59,0,0,0,4.22,1.47c1.17.21,6.52,1,10.17-2.18.45-.38,1.38-2,3.24-5.11a69.15,69.15,0,0,0,4.09-7.32c.95-2.8.77-4.35,2.38-5.79a5.17,5.17,0,0,1,2.9-1.37c1.59-.15,2.14.7,5.11,1.88,2.28.9,3.6,1.41,5.11,1,.27-.07.94-.26,2.9-1.87a27.12,27.12,0,0,0,3.92-3.75,29.79,29.79,0,0,0,4.34-7.5c1.56-3.36,1.62-4.4,1.62-5s-.07-1.84-1.45-4.64-2-3-4-6.14c-1.84-2.91-2.86-4.56-3.32-7a8.24,8.24,0,0,1,.25-5.24,7.1,7.1,0,0,1,4.22-3.83,23.36,23.36,0,0,1,2.94-.52c1.8-.24,2.12-.16,2.55-.51.84-.68.82-2,.77-3.83-.06-2.12-.09-3.17-.64-4.22-.39-.73-1.07-1.59-5.62-3.83-1.93-.95-3.93-1.84-4.47-2-5.85-2.15-22.14,10.55-31.47,16C290.64,384,270,381.47,260.84,379.1c-5-1.3-13.07-3.48-17-10.22C241.28,364.43,242.36,361.21,240.06,359.34Z" transform="translate(-116.6 -165.2)"/>
  </g>
  <g id="Livello_23" data-name="Livello 23">
    <polyline class="cls-6" points="123.38 199.25 99.23 210.24 88.37 213.44"/>
    <polyline class="cls-13" points="125.29 203.47 110.86 211.01 100.89 215.74 96.67 219.44 89.65 222.63 85.13 229.41"/>
    <polyline class="cls-13" points="129.65 210.84 114.94 219.53 105.21 224.47 99.95 226.68 92.46 232.98 86.84 238.43 83.43 240.65"/>
    <path class="cls-13" d="M247.9,381.9,240,388.13l-9.51,6-4.38,3.41a56.25,56.25,0,0,0-3.62,7.67c-.53,1.38-.17.61-2.68,9.88-.54,2-1,3.51-.34,5.28a5.33,5.33,0,0,0,2.55,3.06c1.42.69,2.81.38,4.43,0a18.79,18.79,0,0,0,4.94-2c6.68-3.49,6.68-3.46,7-3.75,1.95-1.77,1.47-2.45,4.6-6a30,30,0,0,1,3.06-3.07c1.91-1.62,3.56-3,6.14-3.74a12.24,12.24,0,0,1,4.59-.34,8.38,8.38,0,0,1,4.6,1.53c1.43,1.17,1.81,2.72,2.39,5.28.77,3.38.35,4.58,1.15,10.14a12.89,12.89,0,0,0,1.15,4.08,7.61,7.61,0,0,0,2.55,3.33,6.73,6.73,0,0,0,4.09,1.15,7.8,7.8,0,0,0,3.32-1.15,17.14,17.14,0,0,0,3.84-2.94,33.79,33.79,0,0,0,4.17-4.22c2.2-3.15,1.12-4.37,3.41-7.32a17.47,17.47,0,0,1,3.75-3.41c1.93-1.46,2.93-2.19,4.08-2,1.39.17,2.28,1.39,3.24,2.72a15.93,15.93,0,0,1,2.21,4.77c1.14,3.33.76,3.77,1.71,5.28a8.81,8.81,0,0,0,3.58,3.24,9.25,9.25,0,0,0,4.25.85,8.06,8.06,0,0,0,4.77-1c1-.69,1.73-1.74,2.73-5.28a51.63,51.63,0,0,0,1.7-8.86c.46-4.37.2-5.58,1-8.86a10.82,10.82,0,0,1,2-4.6,8.53,8.53,0,0,1,4.26-2.89c1-.29,2.84-.8,4.26.17,1,.65,1.25,1.67,1.7,3.23s.34,2.06.68,5.11c.39,3.5.65,4.06.85,4.43a7.16,7.16,0,0,0,3.24,2.9,8,8,0,0,0,4.6.68,8.17,8.17,0,0,0,4.43-2.22,8.65,8.65,0,0,0,2.38-3.91" transform="translate(-116.6 -165.2)"/>
    <path class="cls-13" d="M225.54,398.6a6.25,6.25,0,0,0-.43-4.93,4.61,4.61,0,0,0-1.62-1.75,6.26,6.26,0,0,0-3.86-.64,11.32,11.32,0,0,0-3.95,1" transform="translate(-116.6 -165.2)"/>
    <path class="cls-7" d="M213.71,384.74a5.58,5.58,0,0,0-.38-4.37,4.1,4.1,0,0,0-1.44-1.55,5.58,5.58,0,0,0-3.42-.57,9.81,9.81,0,0,0-3.5.85" transform="translate(-116.6 -165.2)"/>
    <polyline class="cls-13" points="137.94 229.41 132.89 238.09 130.47 242.49"/>
    <line class="cls-13" x1="146.37" y1="233.75" x2="145.91" y2="242.19"/>
    <line class="cls-13" x1="173.86" y1="231.19" x2="170.82" y2="249.17"/>
    <line class="cls-13" x1="181.63" y1="226.6" x2="180.86" y2="245.11"/>
    <line class="cls-13" x1="192.49" y1="217.27" x2="205.91" y2="231.96"/>
    <line class="cls-13" x1="198.63" y1="211.65" x2="214.43" y2="229.24"/>
    <line class="cls-13" x1="206.93" y1="200.02" x2="223.8" y2="211.01"/>
  </g>
  <g id="Livello_5" data-name="Livello 5">
    <polygon class="cls-14" points="208.85 141.89 200.54 174.72 220.35 165.65 231.84 155.18 215.36 141.89 208.85 141.89"/>
  </g>
  <g id="viso">
    <path class="cls-2" d="M232.22,300.66c-2.36,3.91-1.86,7.79-1.19,16.86,1.66,22.34,0,18.39,1.37,26.66,0,0,2.95,18.48,18.56,46.34a42.75,42.75,0,0,0,8.69,11.24c1.3,1.18,2.19,1.62,3.83,3.07a4.15,4.15,0,0,0,1.45.85,4.43,4.43,0,0,0,1.36.17,41.19,41.19,0,0,0,11.25-2.22c7.45-2.74,6.54-1.63,10.56-3.4,4.23-1.87,6.88-3.82,11.58-7.33,5.76-4.3,10.74-8,16.19-14.31,2.28-2.63,6.75-7.81,8.17-11.41.87-2.2,2.65-4,3.24-6.3a1.08,1.08,0,0,1,.47-.71,1.11,1.11,0,0,1,1.15.26c.4.38.31.91.38,1.47a4.17,4.17,0,0,0,1.83,2.72c.48.29,1.76.77,4.86-1.1a25.17,25.17,0,0,0,8.39-9.16c3.2-5.48,4.29-9.68,6.26-17.25,1.39-5.36,1.37-6.81.64-8.17-1.91-3.54-7.44-4.21-10.74-3.84a17.64,17.64,0,0,0-12,8.18l-1,1.66h0a10.75,10.75,0,0,1-5,2.05c-.8.07-2.05,0-2.17-.39s.56-.74,1-1.15c1.36-1.19,1.63-2.82,2-4.6,1.2-5.11,2.26-5.58,3.33-11.5.06-.33,1.39-7.85.89-11.24-2.1-14.23-46.1-20.13-76.66-16.22C244.57,292.7,236.07,294.29,232.22,300.66Z" transform="translate(-116.6 -165.2)"/>
  </g>
  <g id="Livello_1" data-name="Livello 1">
    <ellipse class="cls-15" cx="175.83" cy="169.61" rx="3.65" ry="6.13"/>
    <ellipse class="cls-15" cx="134.27" cy="169.61" rx="3.65" ry="6.13"/>
    <path class="cls-3" d="M288,320.12c1-1.49,1.41-1.79,8.22-3.45a24.15,24.15,0,0,1,9.46-.77s6.21.5,14.3,8.18a1.9,1.9,0,0,1,.47.66c.13.33.25.93-.75,3-.83,1.73-1.13,1.79-1.25,1.81-.57.05-1.06-.84-1.34-1.28-.94-1.5-2.35-2.28-5.17-3.84-3.91-2.15-8.13-2-10.42-1.85a20.64,20.64,0,0,0-8.13,1.6c-.3.11-.93.51-2.92,1.53-.37.19-1.28.61-1.66.39a1.92,1.92,0,0,1-1.06-1.49C287.67,323.36,286.8,321.82,288,320.12Z" transform="translate(-116.6 -165.2)"/>
    <path class="cls-3" d="M261.67,316.91c-.76-1.64.42-.9-6.22-2.65a30.17,30.17,0,0,0-5.33-1.15s-6.84-2.2-14.94,5.48a7.27,7.27,0,0,0-.7,1.28,16.3,16.3,0,0,0-1.15,3,2.06,2.06,0,0,0,1.24,2.6c.57.05,2-1.34,2.45-1.65a11.87,11.87,0,0,1,3-1.89,11.51,11.51,0,0,1,8.94-1.15,20.14,20.14,0,0,1,6,1.89c.3.12.93.51,2.92,1.53.37.2,1.29.61,1.66.39a2.43,2.43,0,0,0,1.07-1.49C261.08,321.87,262.62,318.94,261.67,316.91Z" transform="translate(-116.6 -165.2)"/>
    <path class="cls-13" d="M261.52,327.66a40.59,40.59,0,0,1-1,9.54c-.71,3.12-1.34,5.72-3.4,8.35-1.43,1.8-3,1.75-3.24,3.06-.34,2.07,2.72,4.17,4.09,5.11a19.37,19.37,0,0,0,9.2,3.24" transform="translate(-116.6 -165.2)"/>
    <path class="cls-13" d="M271.75,354.57a5.48,5.48,0,0,0,3.57-3.06,4.72,4.72,0,0,0,.17-2.39c-.41-2.51-2.33-3.7-3.06-4.77-1.14-1.66-.9-5.29,5.45-14" transform="translate(-116.6 -165.2)"/>
    <path class="cls-13" d="M252.73,354.74a14.82,14.82,0,0,0-6.48,6.9" transform="translate(-116.6 -165.2)"/>
    <path class="cls-13" d="M291.05,361.87a23.06,23.06,0,0,0-3.9-3.7,22.81,22.81,0,0,0-8.57-3.94" transform="translate(-116.6 -165.2)"/>
    <path class="cls-7" d="M257.78,373.65c3.47,0,11.77.1,15,0a5.94,5.94,0,0,0,.93-.08,9.1,9.1,0,0,0,5.12-2.9" transform="translate(-116.6 -165.2)"/>
    <path class="cls-14" d="M263.68,359.25a13.18,13.18,0,0,1-.1,4.42c-.06.49-1.05.55-2,.32a11.27,11.27,0,0,0-4.41.34c-2.23.38-3.69,1.41-5.58,3.61-2.34,2.74-2.67,5.32-3.9,4.65a8.31,8.31,0,0,1-3.84-3.71c-.17-.32.68-1.26,1-1.74a28.13,28.13,0,0,1,3.35-4.13,23.93,23.93,0,0,1,7.15-3.28C259.07,358.6,263.4,357.59,263.68,359.25Z" transform="translate(-116.6 -165.2)"/>
    <path class="cls-14" d="M268.74,359.25a13.44,13.44,0,0,0,.09,4.42c.06.49,1.05.55,2,.32a11.27,11.27,0,0,1,4.41.34c2.23.38,3.7,1.41,5.58,3.61,2.34,2.74,2.67,5.32,3.9,4.65a8.31,8.31,0,0,0,3.84-3.71c.17-.32-.68-1.26-1-1.74a28.63,28.63,0,0,0-3.36-4.13,23.93,23.93,0,0,0-7.15-3.28C273.35,358.6,269,357.59,268.74,359.25Z" transform="translate(-116.6 -165.2)"/>
  </g>
  <g id="Livello_6" data-name="Livello 6">
    <path class="cls-14" d="M247.77,382.34c.1-.4.45-1.74,1.4-2a2.52,2.52,0,0,1,2.05.64c1.82,1.25,1.54,2.47,2.94,3.7.9.79,2.18,1,4.72,1.53a24.53,24.53,0,0,0,4.22.51,26.72,26.72,0,0,0,8.43-1.15,37.12,37.12,0,0,0,8.82-3.44,6.19,6.19,0,0,1,3.19-1,5.8,5.8,0,0,1,3.07.9c1.57,1,2.1,2.6,2.81,4.85a17,17,0,0,1,.64,9.33c-.34,1.41-.33,2.77-1.06,3.68-1.46,1.81-4,2.07-7.25,2.9-6.86,1.74-6.14,2.12-12.08,2.81-4,.47-5.19.43-6.83-.38a19.08,19.08,0,0,1-7.66-7.48C250.46,389.42,246.86,385.89,247.77,382.34Z" transform="translate(-116.6 -165.2)"/>
  </g>
  <g id="cappello">
    <path class="cls-15" d="M231.29,313.86c-1.86.88-9.88-6.12-10.48-15.33-.33-5,1.5-11.22,5.88-14.57,3-2.29,5-1.57,11.24-5.11a48.41,48.41,0,0,0,6.39-4.34c4.36-3.68,5.9-7.83,9.71-18.14,2.8-7.58,5.85-15.08,8.43-22.74,3.46-10.27,3.41-11.23,5.11-13.55,1.25-1.7,5.75-7.27,20.7-10.47,8.45-1.82,32.61-7,53.66,7.41A62.85,62.85,0,0,1,358,233.37c4.76,7,8,11,7.92,16.35a17.62,17.62,0,0,1-.77,4.86c-4.79,17-8.26,34.26-12.52,51.36a3,3,0,0,0,.32,2.83c.68,1.18-1.27-.81-.38-.08,1.88,1.54,4.62,7.57,4.41,12.33-.16,3.45-.34,6.61-2.05,10.22-.21.43-2.38,4.94-3.83,4.6-.18,0-.59-.22-1.28-2.56-1.11-3.79-.39-4.56-1.28-5.62-1.45-1.73-4-.35-5.62-2.3-.77-.9-.62-1.66-1-3.07-.77-2.69-2.59-4.32-4.6-6.13-9.12-8.2-25.55-13-25.55-13a192.64,192.64,0,0,0-26.07-5.62c-2.68-.4-11.41-.95-28.87-2.05,0,0-5.58-.35-18.4,2.3-1.71.36-4.34.95-5.62,3.07-.76,1.26-.58,2.29-.77,6.64C231.88,311.57,231.78,313.63,231.29,313.86Z" transform="translate(-116.6 -165.2)"/>
    <line class="cls-16" x1="121.64" y1="113.47" x2="123.5" y2="113.47"/>
    <line class="cls-16" x1="121.14" y1="113.61" x2="123" y2="113.61"/>
    <line class="cls-16" x1="120.71" y1="113.61" x2="122.57" y2="113.61"/>
    <line class="cls-16" x1="121.22" y1="113.75" x2="123.09" y2="113.75"/>
    <line class="cls-16" x1="122.24" y1="112.99" x2="124.1" y2="112.99"/>
    <line class="cls-16" x1="122.07" y1="112.99" x2="123.93" y2="112.99"/>
    <line class="cls-16" x1="121.64" y1="113.23" x2="123.5" y2="113.23"/>
    <line class="cls-16" x1="121.92" y1="112.99" x2="123.78" y2="112.99"/>
    <line class="cls-16" x1="121.54" y1="113.61" x2="123.41" y2="113.61"/>
    <line class="cls-16" x1="121.31" y1="113.35" x2="123.17" y2="113.35"/>
  </g>
  <g id="Livello_25" data-name="Livello 25">
    <path class="cls-8" d="M353.3,309.64c-4.63-3.06-9.31-11.13-17.25-16.73-1.68-1.19-6.37-5.68-18.91-9.58-4.84-1.51-16.11-4.63-38.41-5.68-9.61-.45-24.6-.11-39.77.59" transform="translate(-116.6 -165.2)"/>
  </g>
</svg>
