<svg id="Livello_1" data-name="Livello 1" xmlns="http://www.w3.org/2000/svg" xmlns:xlink="http://www.w3.org/1999/xlink" width="662.5" height="503.5" viewBox="0 0 662.5 503.5">
  <defs>
    <style>
      .cls-1, .cls-2, .cls-4, .cls-5, .cls-8 {
        fill: none;
      }

      .cls-2, .cls-3 {
        stroke: #d3d3d3;
        stroke-width: 0.5px;
      }

      .cls-3 {
        fill: url(#_.6608606540881334);
      }

      .cls-10, .cls-4, .cls-6, .cls-7, .cls-8, .cls-9 {
        stroke: #000;
      }

      .cls-4 {
        stroke-width: 2px;
      }

      .cls-5 {
        stroke: red;
        stroke-width: 4px;
      }

      .cls-10, .cls-6, .cls-7, .cls-9 {
        stroke-miterlimit: 10;
      }

      .cls-6 {
        stroke-width: 0.2px;
      }

      .cls-7 {
        stroke-width: 0.14px;
      }

      .cls-9 {
        stroke-width: 0.24px;
      }

      .cls-10 {
        stroke-width: 0.16px;
      }
    </style>
    <pattern id="_.6608606540881334" data-name=".6608606540881334" width="10" height="10" patternTransform="matrix(1, 0, 0, -1, -2.75, 851.14)" patternUnits="userSpaceOnUse" viewBox="0 0 10 10">
      <rect class="cls-1" width="10" height="10"/>
      <path class="cls-2" d="M10,10H0V0"/>
    </pattern>
  </defs>
  <rect class="cls-3" x="0.25" y="0.25" width="662" height="503"/>
  <g>
    <g>
      <path class="cls-4" d="M55,260.9H586.12M320.56,44V475" transform="translate(0.25 0.25)"/>
      <path class="cls-4" d="M579.12,255.9l7,5-7,5" transform="translate(0.25 0.25)"/>
      <path class="cls-4" d="M315.56,51l5-7,5,7" transform="translate(0.25 0.25)"/>
      <path class="cls-4" d="M381.56,255.9v10m61-10v10m61-10v10m61-10v10m-305-10v10m-61-10v10m-61-10v10m-61-10v10m239-66h10m-10-61h10m-10-61h10m-10,244h10m-10,61h10m-10,61h10" transform="translate(0.25 0.25)"/>
    </g>
    <path class="cls-5" d="M320,139.2h247.1" transform="translate(0.25 0.25)"/>
    <path class="cls-5" d="M71.46,382.25h247.1" transform="translate(0.25 0.25)"/>
  </g>
  <g>
    <path class="cls-6" d="M282.68,124.16c4,0,6.5-2.88,6.58-6.8.05-2.15-.6-2.6-2.23-3.68v-.07a28.84,28.84,0,0,0,4.15-.1,7.62,7.62,0,0,0,.33-1.58c-1,.53-4,.18-5.28.43-4.07.82-7.12,3.2-7.12,7.6C279.11,122.58,279.88,124.16,282.68,124.16Zm4.9-7c0,2.47-.95,6.35-4.1,6.35-2.3,0-2.5-2.48-2.47-4.23,0-2.75,1-5.75,4.25-5.75C287.38,113.48,287.58,115.58,287.58,117.11Z" transform="translate(0.25 0.25)"/>
    <g>
      <path class="cls-6" d="M268.17,160.21v.65c4.67,0,4.67-.08,5.57-.08s.9.08,5.73.08v-2.13c-2.88.13-4,0-8.65.13l4.55-4.83c2.42-2.57,3.17-3.95,3.17-5.82,0-2.88-2-4.65-5.12-4.65a5.37,5.37,0,0,0-4.25,1.75l-.43,3.4h.73l.32-1.15c.4-1.45,1.3-2.08,3-2.08a3.27,3.27,0,0,1,3.52,3.48c0,1.87-1.05,3.72-3.87,6.72Zm20.37-5a5.65,5.65,0,0,1,.38-1c-2,0-3.9,0-5.85,0,.47-2.17,1.85-4.4,4.35-4.4a2.56,2.56,0,0,1,2.72,1.73h.5l1-1.33c-4.38-4.25-11.1,1.53-11.1,6.68,0,2.82,1.65,4.15,4.32,4.15,1.93,0,3.53-1.45,5-2.58V158c-1.17.82-2.57,1.8-4.05,1.8-1.85,0-3.37-2.18-3-4.53C283.17,155.31,287.87,155.23,288.54,155.23Z" transform="translate(0.25 0.25)"/>
      <path class="cls-7" d="M297.23,153.15c-2.71,0-4.1,2.15-4.1,6.38a9,9,0,0,0,1,4.68,3.28,3.28,0,0,0,2.68,1.34c2.64,0,4-2.27,4-6.75C300.76,155,299.63,153.15,297.23,153.15Zm-.32.61c1.7,0,2.38,1.71,2.38,5.91,0,3.73-.66,5.27-2.27,5.27s-2.42-1.77-2.42-6C294.6,155.21,295.25,153.76,296.91,153.76Z" transform="translate(0.25 0.25)"/>
    </g>
    <line class="cls-8" x1="268.02" y1="134.78" x2="303.11" y2="134.78"/>
  </g>
  <g>
    <path class="cls-6" d="M355.13,382.93v-1.4h-12.6v1.4Z" transform="translate(0.25 0.25)"/>
    <g>
      <path class="cls-6" d="M373.79,372.38c4,0,6.5-2.88,6.58-6.8.05-2.15-.6-2.6-2.23-3.68v-.07a28.84,28.84,0,0,0,4.15-.1,7.62,7.62,0,0,0,.33-1.58c-1,.53-4,.18-5.28.43-4.07.82-7.12,3.2-7.12,7.6C370.22,370.8,371,372.38,373.79,372.38Zm4.9-7.05c0,2.47-.95,6.35-4.1,6.35-2.3,0-2.5-2.48-2.47-4.23,0-2.75,1-5.75,4.25-5.75C378.49,361.7,378.69,363.8,378.69,365.33Z" transform="translate(0.25 0.25)"/>
      <g>
        <path class="cls-6" d="M359.28,408.43v.65c4.67,0,4.67-.08,5.57-.08s.9.08,5.73.08V407c-2.88.13-4,0-8.65.13l4.55-4.83c2.42-2.57,3.17-3.95,3.17-5.82,0-2.88-1.95-4.65-5.12-4.65a5.37,5.37,0,0,0-4.25,1.75l-.43,3.4h.73l.32-1.15c.4-1.45,1.3-2.08,3-2.08a3.27,3.27,0,0,1,3.52,3.48c0,1.87-1,3.72-3.87,6.72Zm20.37-5a5.65,5.65,0,0,1,.38-1c-2,.05-3.9,0-5.85,0,.47-2.17,1.85-4.4,4.35-4.4a2.56,2.56,0,0,1,2.72,1.73h.5l1-1.33c-4.38-4.25-11.1,1.53-11.1,6.68,0,2.82,1.65,4.15,4.32,4.15,1.93,0,3.53-1.45,5-2.58v-.47c-1.17.82-2.57,1.8-4.05,1.8-1.85,0-3.37-2.18-3-4.53C374.28,403.53,379,403.45,379.65,403.45Z" transform="translate(0.25 0.25)"/>
        <path class="cls-7" d="M388.34,401.36c-2.72,0-4.1,2.16-4.1,6.39a8.92,8.92,0,0,0,1,4.67,3.23,3.23,0,0,0,2.68,1.35c2.64,0,4-2.27,4-6.75C391.87,403.18,390.73,401.36,388.34,401.36ZM388,402c1.7,0,2.38,1.71,2.38,5.91,0,3.73-.66,5.27-2.27,5.27s-2.42-1.77-2.42-6C385.71,403.43,386.36,402,388,402Z" transform="translate(0.25 0.25)"/>
      </g>
      <line class="cls-8" x1="359.13" y1="383" x2="394.22" y2="383"/>
    </g>
  </g>
  <path class="cls-9" d="M338.07,27.51h3.51l4,.12.57-1.35-.12-.21c-2.43.12-4.23.18-6.57.18h-1.11l1.41-8.1c1,0,3.45-.12,4.11-.12,1.86,0,3.09.27,3.12.72l.24,2.67h.72a20.27,20.27,0,0,1,.63-4.56c-.63-.06-1.53-.09-2.07-.09-.09,0-.42,0-1.14,0l-3.6,0c-.27,0-5.49,0-5.79,0l-1.35,0-.09.84,1.62.06c.72,0,1.05.27,1.05.81a18.52,18.52,0,0,1-.27,2.28l-2.61,15.12c-.12.54-.48.75-1.8,1l-.15.78,1.23,0c.93,0,2.79-.06,3.39-.06l6.75.09c.42,0,1.17,0,2.16-.06l1,0,.12-1.08c.06-.6.21-1.5.48-3l.15-.78h-.81l-.48,1.8c-.3,1.08-.57,1.44-1.23,1.59a34.72,34.72,0,0,1-4.41.27,40.28,40.28,0,0,1-4.11-.21Z" transform="translate(0.25 0.25)"/>
  <path class="cls-9" d="M581,286.44a2.91,2.91,0,0,0,1.29.36c1,0,2.16-.87,3.09-2.28l2.28-3.51.33,2.07c.39,2.55,1.08,3.72,2.16,3.72a4.55,4.55,0,0,0,2.58-1.38l1.47-1.32-.27-.57a4.76,4.76,0,0,1-2.31,1.35c-.45,0-.84-.3-1.14-.9a11.77,11.77,0,0,1-.75-2.55l-.54-3,1-1.47c1.41-1.95,2.22-2.64,3.15-2.64a1,1,0,0,1,1,.69l.42-.12.45-2.55a1.76,1.76,0,0,0-.9-.3c-1.2,0-2.4,1.08-4.26,3.84L589,277.5l-.18-1.44c-.36-3-1.17-4.05-2.94-4.05a2.11,2.11,0,0,0-1.71.63l-1.74,2.49.51.3c.9-1,1.5-1.44,2.07-1.44,1,0,1.65,1.23,2.16,4.17l.33,1.86-1.2,1.86c-1.29,2-2.31,3-3.15,3-.45,0-.78-.12-.84-.27l-.33-.84-.6.09A14.81,14.81,0,0,1,581,286.44Z" transform="translate(0.25 0.25)"/>
  <path class="cls-10" d="M306.2,271.61c-3.1,0-4.68,2.46-4.68,7.3a10.21,10.21,0,0,0,1.12,5.34,3.71,3.71,0,0,0,3.06,1.54c3,0,4.54-2.6,4.54-7.72C310.24,273.69,308.94,271.61,306.2,271.61Zm-.36.7c1.94,0,2.72,2,2.72,6.76,0,4.26-.76,6-2.6,6s-2.76-2-2.76-6.9C303.2,274,303.94,272.31,305.84,272.31Z" transform="translate(0.25 0.25)"/>
</svg>
