<svg id="Livello_1" data-name="Livello 1" xmlns="http://www.w3.org/2000/svg" xmlns:xlink="http://www.w3.org/1999/xlink" width="662.56" height="358.61" viewBox="0 0 662.56 358.61">
  <defs>
    <style>
      .cls-1, .cls-2, .cls-4, .cls-5 {
        fill: none;
      }

      .cls-2, .cls-3 {
        stroke: #d3d3d3;
        stroke-width: 0.5px;
      }

      .cls-3 {
        fill: url(#_.2773727735841993);
      }

      .cls-4, .cls-5 {
        stroke: #000;
      }

      .cls-4 {
        stroke-width: 4px;
      }

      .cls-6 {
        isolation: isolate;
        font-size: 40px;
        fill: #ff0101;
        font-family: ArialMT, Arial;
      }

      .cls-7 {
        fill: red;
        stroke: red;
        stroke-miterlimit: 10;
        stroke-width: 0.32px;
      }
    </style>
    <pattern id="_.2773727735841993" data-name=".2773727735841993" width="10" height="10" patternTransform="matrix(1, 0, 0, -1, -2.72, 844.2)" patternUnits="userSpaceOnUse" viewBox="0 0 10 10">
      <rect class="cls-1" width="10" height="10"/>
      <path class="cls-2" d="M10,10H0V0"/>
    </pattern>
  </defs>
  <rect class="cls-3" x="0.28" y="0.31" width="662" height="358"/>
  <path class="cls-4" d="M184.93,181.31a26.54,26.54,0,1,1,26.54,26.53A26.53,26.53,0,0,1,184.93,181.31Z" transform="translate(0.28 0.31)"/>
  <path class="cls-4" d="M427.93,178.31a26.54,26.54,0,1,1,26.54,26.53A26.53,26.53,0,0,1,427.93,178.31Z" transform="translate(0.28 0.31)"/>
  <g>
    <path class="cls-5" d="M343.13,0c2,69.74,24.25,124.9,84.8,178.31" transform="translate(0.28 0.31)"/>
    <path d="M373.48,106.06l-7.83-6.42,0,10.31Z" transform="translate(0.28 0.31)"/>
  </g>
  <g>
    <path class="cls-5" d="M325.3,0c-2.08,70.91-25,127-87.3,181.31" transform="translate(0.28 0.31)"/>
    <path d="M302.1,111.8l0-10.48-8.07,6.53Z" transform="translate(0.28 0.31)"/>
  </g>
  <g>
    <path class="cls-5" d="M323,358c-2-69.1-24.31-123.77-85-176.69" transform="translate(0.28 0.31)"/>
    <path d="M292.59,252.9l7.85,6.36,0-10.22Z" transform="translate(0.28 0.31)"/>
  </g>
  <g>
    <path class="cls-5" d="M341.67,358c2.05-70.28,24.66-125.87,86.26-179.69" transform="translate(0.28 0.31)"/>
    <path d="M364.6,247.19l0,10.39,8-6.47Z" transform="translate(0.28 0.31)"/>
  </g>
  <g>
    <path class="cls-5" d="M282.6,0c-1.08,54.72-12.92,109.43-50.6,162" transform="translate(0.28 0.31)"/>
    <path d="M271.84,95.54l-1.77-10.49L263,93Z" transform="translate(0.28 0.31)"/>
  </g>
  <g>
    <path class="cls-5" d="M384.1,0c1,54.72,12.23,109.43,47.9,162" transform="translate(0.28 0.31)"/>
    <path d="M402.69,93,396,85.05l-1.67,10.49Z" transform="translate(0.28 0.31)"/>
  </g>
  <g>
    <path class="cls-5" d="M386.4,358c1-53,12.41-106,48.6-157" transform="translate(0.28 0.31)"/>
    <path d="M396.74,265.41l1.7,10.16,6.82-7.68Z" transform="translate(0.28 0.31)"/>
  </g>
  <g>
    <path class="cls-5" d="M282.2,358c-1-53-12.31-106-48.2-157" transform="translate(0.28 0.31)"/>
    <path d="M263.49,267.89l6.77,7.68L272,265.41Z" transform="translate(0.28 0.31)"/>
  </g>
  <g>
    <path class="cls-5" d="M252,0c-1.07,51.66-9.65,105.35-29.53,155.78" transform="translate(0.28 0.31)"/>
    <path d="M247.1,88.78l-3-9.64L238,87.34Z" transform="translate(0.28 0.31)"/>
  </g>
  <g>
    <path class="cls-5" d="M418.47,0c1,50,9,102,27.53,150.78" transform="translate(0.28 0.31)"/>
    <path d="M431.5,84.54l-5.71-7.94L423,85.93Z" transform="translate(0.28 0.31)"/>
  </g>
  <g>
    <path class="cls-5" d="M419.51,358c1-50.41,9-102.8,27.49-152" transform="translate(0.28 0.31)"/>
    <path d="M424.07,271.37l2.75,9.41,5.7-8Z" transform="translate(0.28 0.31)"/>
  </g>
  <g>
    <path class="cls-5" d="M249.91,357c-1-49.73-9-101.41-27.44-149.95" transform="translate(0.28 0.31)"/>
    <path d="M236.92,272.87l5.69,7.9,2.75-9.28Z" transform="translate(0.28 0.31)"/>
  </g>
  <g>
    <path class="cls-5" d="M214.07,358c.24-30.77-2.14-94.23-2.6-150.16" transform="translate(0.28 0.31)"/>
    <path d="M208.31,274.12l4.49,8.49,4.09-8.67Z" transform="translate(0.28 0.31)"/>
  </g>
  <g>
    <path class="cls-5" d="M457.07,358c.24-31.39-2.14-96.12-2.6-153.16" transform="translate(0.28 0.31)"/>
    <path d="M451.31,272.44l4.49,8.67,4.09-8.85Z" transform="translate(0.28 0.31)"/>
  </g>
  <g>
    <path class="cls-5" d="M214,0c.25,31.72-2.12,97.13-2.57,154.78" transform="translate(0.28 0.31)"/>
    <path d="M216.88,86.65l-4.09-9-4.49,8.76Z" transform="translate(0.28 0.31)"/>
  </g>
  <g>
    <path class="cls-5" d="M457,0c.25,31.1-2.12,95.25-2.57,151.78" transform="translate(0.28 0.31)"/>
    <path d="M459.88,85l-4.09-8.77-4.49,8.58Z" transform="translate(0.28 0.31)"/>
  </g>
  <g>
    <path class="cls-5" d="M662,176c-37.06,1.24-113.61.92-181,2.28" transform="translate(0.28 0.31)"/>
    <path d="M560.83,181.58l10.3-4.36L560.74,173Z" transform="translate(0.28 0.31)"/>
  </g>
  <g>
    <path class="cls-5" d="M0,179c37.87,1.24,116.08.92,184.93,2.28" transform="translate(0.28 0.31)"/>
    <path d="M103.47,176l-10.62,4.21,10.53,4.36Z" transform="translate(0.28 0.31)"/>
  </g>
  <g>
    <path class="cls-5" d="M0,46c38.32,25.92,117.77,78.72,187.55,125.62" transform="translate(0.28 0.31)"/>
    <path d="M106.76,110.82,94.15,109.1l6.56,11.09Z" transform="translate(0.28 0.31)"/>
  </g>
  <g>
    <path class="cls-5" d="M662,317.69c-37.7-24.82-115.82-75.32-184.45-120.2" transform="translate(0.28 0.31)"/>
    <path d="M557,255.68l12.41,1.65L563,246.72Z" transform="translate(0.28 0.31)"/>
  </g>
  <g>
    <path class="cls-5" d="M0,319.62c40.24-23.83,121.1-76.74,193.57-121.23" transform="translate(0.28 0.31)"/>
    <path d="M104.16,247.67l-7,11.14L110,257.44Z" transform="translate(0.28 0.31)"/>
  </g>
  <g>
    <path class="cls-5" d="M662,39.09c-39.43,24-118.63,77.21-189.63,122" transform="translate(0.28 0.31)"/>
    <path d="M560,111.49l6.81-11.21-12.53,1.38Z" transform="translate(0.28 0.31)"/>
  </g>
  <g>
    <path class="cls-5" d="M576.6,0c-24.25,30.76-69,98.1-111.45,155.23" transform="translate(0.28 0.31)"/>
    <path d="M519,88.89l1.54-11-10.24,5.78Z" transform="translate(0.28 0.31)"/>
  </g>
  <g>
    <path class="cls-5" d="M93.47,0c23,31.75,65.49,101.26,105.75,160.23" transform="translate(0.28 0.31)"/>
    <path d="M156.36,86.34l-9.73-6,1.47,11.38Z" transform="translate(0.28 0.31)"/>
  </g>
  <g>
    <path class="cls-5" d="M97.21,358c22.86-30,65-95.53,105-151.15" transform="translate(0.28 0.31)"/>
    <path d="M151.46,271.43,150,282.17l9.65-5.63Z" transform="translate(0.28 0.31)"/>
  </g>
  <g>
    <path class="cls-5" d="M570.8,358c-22.55-31.15-64.18-99.32-103.65-157.15" transform="translate(0.28 0.31)"/>
    <path d="M509.16,273.31l9.53,5.85L517.26,268Z" transform="translate(0.28 0.31)"/>
  </g>
  <text class="cls-6" transform="translate(200.77 195.8)">+</text>
  <path class="cls-7" d="M194.13,99.63a10.73,10.73,0,0,0-4-1c-3,0-6.52,3.52-7.24,4.32-1.6,1.88-3.16,7.72-3.16,11.84,0,2.36.48,3.56,1.44,3.56a5,5,0,0,0,2.92-1.2,24.31,24.31,0,0,0,7-7.6l-3,16.56a4.86,4.86,0,0,1-1.08,2.28l.36.56a28.78,28.78,0,0,1,3.44-.68,62.88,62.88,0,0,1,.76-6.36l3.44-18.24A33.08,33.08,0,0,1,196,99l-.56-.24Zm-10.68,16c-.56,0-.88-.84-.88-2.16,0-3.84,1.72-9.84,3.4-11.84a3.93,3.93,0,0,1,2.92-1,8.9,8.9,0,0,1,3.88,1.08l-.84,3.8C190.77,111,185.13,115.59,183.45,115.59Z" transform="translate(0.28 0.31)"/>
  <text class="cls-6" transform="translate(443.37 193.75)">+</text>
  <path class="cls-7" d="M483.13,96.63a10.73,10.73,0,0,0-4-1c-3,0-6.52,3.52-7.24,4.32-1.6,1.88-3.16,7.72-3.16,11.84,0,2.36.48,3.56,1.44,3.56a5,5,0,0,0,2.92-1.2,24.31,24.31,0,0,0,7-7.6l-3,16.56a4.86,4.86,0,0,1-1.08,2.28l.36.56a28.78,28.78,0,0,1,3.44-.68,62.88,62.88,0,0,1,.76-6.36l3.44-18.24A33.08,33.08,0,0,1,485,96l-.56-.24Zm-10.68,16c-.56,0-.88-.84-.88-2.16,0-3.84,1.72-9.84,3.4-11.84a3.93,3.93,0,0,1,2.92-1,8.9,8.9,0,0,1,3.88,1.08l-.84,3.8C479.77,108,474.13,112.59,472.45,112.59Z" transform="translate(0.28 0.31)"/>
</svg>
