<svg id="Livello_1" data-name="Livello 1" xmlns="http://www.w3.org/2000/svg" xmlns:xlink="http://www.w3.org/1999/xlink" width="662.5" height="384.5" viewBox="0 0 662.5 384.5">
  <defs>
    <style>
      .cls-1, .cls-10, .cls-11, .cls-12, .cls-14, .cls-2, .cls-4, .cls-5, .cls-7, .cls-8 {
        fill: none;
      }

      .cls-2, .cls-3 {
        stroke: #d3d3d3;
        stroke-width: 0.5px;
      }

      .cls-3 {
        fill: url(#_.6988821181649465);
      }

      .cls-11, .cls-4 {
        stroke: #000;
      }

      .cls-12, .cls-14, .cls-4, .cls-5, .cls-8 {
        stroke-width: 4px;
      }

      .cls-17, .cls-5, .cls-7 {
        stroke: red;
      }

      .cls-17, .cls-6 {
        fill: red;
      }

      .cls-10, .cls-19, .cls-8 {
        stroke: #4a90e2;
      }

      .cls-18, .cls-19, .cls-9 {
        fill: #4a90e2;
      }

      .cls-12 {
        stroke: #ff0606;
      }

      .cls-13 {
        fill: #ff0606;
      }

      .cls-14 {
        stroke: #ff2c00;
      }

      .cls-15 {
        fill: #ff2c00;
      }

      .cls-16, .cls-18 {
        isolation: isolate;
        font-family: ArialMT, Arial;
      }

      .cls-16 {
        font-size: 40px;
        fill: #ff0101;
      }

      .cls-17, .cls-19 {
        stroke-miterlimit: 10;
        stroke-width: 0.32px;
      }

      .cls-18 {
        font-size: 50px;
      }
    </style>
    <pattern id="_.6988821181649465" data-name=".6988821181649465" width="10" height="10" patternTransform="matrix(1, 0, 0, -1, -2.75, 851.14)" patternUnits="userSpaceOnUse" viewBox="0 0 10 10">
      <rect class="cls-1" width="10" height="10"/>
      <path class="cls-2" d="M10,10H0V0"/>
    </pattern>
  </defs>
  <rect class="cls-3" x="0.25" y="0.25" width="662" height="384"/>
  <g>
    <path class="cls-4" d="M152.93,183.58a18.26,18.26,0,1,1,18.26,18.26A18.27,18.27,0,0,1,152.93,183.58Z" transform="translate(0.25 0.25)"/>
    <g>
      <path class="cls-5" d="M171.19,201.84V303.48" transform="translate(0.25 0.25)"/>
      <path class="cls-5" d="M164.94,287.71q5.4,11.35,6.25,20.77.87-9.42,6.25-20.77" transform="translate(0.25 0.25)"/>
    </g>
    <g>
      <path class="cls-5" d="M171.19,64.68V165.32" transform="translate(0.25 0.25)"/>
      <path class="cls-6" d="M179.34,75.65l-8.15-17-8.15,17Z" transform="translate(0.25 0.25)"/>
    </g>
    <g>
      <path class="cls-5" d="M189.45,183.58h92.88" transform="translate(0.25 0.25)"/>
      <path class="cls-5" d="M266.56,189.83q11.35-5.4,20.77-6.25-9.42-.86-20.77-6.25" transform="translate(0.25 0.25)"/>
    </g>
    <g>
      <path class="cls-5" d="M61.06,183.58h91.87" transform="translate(0.25 0.25)"/>
      <path class="cls-6" d="M72,175.43l-17,8.15,17,8.15Z" transform="translate(0.25 0.25)"/>
    </g>
    <g>
      <path class="cls-5" d="M83.41,98.71l72.45,72.45" transform="translate(0.25 0.25)"/>
      <path class="cls-6" d="M96.93,100.71,79.16,94.47l6.24,17.76Z" transform="translate(0.25 0.25)"/>
    </g>
    <g>
      <path class="cls-5" d="M256.79,98,185.07,169.7" transform="translate(0.25 0.25)"/>
      <path class="cls-6" d="M254.8,111.5,261,93.74,243.27,100Z" transform="translate(0.25 0.25)"/>
    </g>
    <g>
      <path class="cls-5" d="M256.79,270.64l-72.45-72.45" transform="translate(0.25 0.25)"/>
      <path class="cls-6" d="M243.27,268.65,261,274.88l-6.23-17.76Z" transform="translate(0.25 0.25)"/>
    </g>
    <g>
      <path class="cls-5" d="M83.41,268.45,155.86,196" transform="translate(0.25 0.25)"/>
      <path class="cls-6" d="M85.4,254.93l-6.24,17.76,17.77-6.24Z" transform="translate(0.25 0.25)"/>
    </g>
    <path class="cls-7" d="M171.92,33.12l-.73,132.2" transform="translate(0.25 0.25)"/>
    <path class="cls-7" d="M171.19,201.84l-.73,132.21" transform="translate(0.25 0.25)"/>
    <path class="cls-7" d="M152.93,183.58H20" transform="translate(0.25 0.25)"/>
    <path class="cls-7" d="M322.39,183.58H189.45" transform="translate(0.25 0.25)"/>
    <path class="cls-7" d="M155.86,196,39.72,312.13" transform="translate(0.25 0.25)"/>
    <path class="cls-7" d="M155.86,171.16,50.68,66" transform="translate(0.25 0.25)"/>
    <path class="cls-4" d="M475.11,183.58a18.26,18.26,0,1,1,18.26,18.26A18.27,18.27,0,0,1,475.11,183.58Z" transform="translate(0.25 0.25)"/>
    <g>
      <path class="cls-8" d="M493.37,207.84V308.48" transform="translate(0.25 0.25)"/>
      <path class="cls-9" d="M501.52,218.81l-8.15-17-8.15,17Z" transform="translate(0.25 0.25)"/>
    </g>
    <g>
      <path class="cls-8" d="M493.37,58.68V159.32" transform="translate(0.25 0.25)"/>
      <path class="cls-9" d="M485.22,148.35l8.15,17,8.15-17Z" transform="translate(0.25 0.25)"/>
    </g>
    <g>
      <path class="cls-8" d="M517.63,183.58h91.88" transform="translate(0.25 0.25)"/>
      <path class="cls-9" d="M528.6,175.43l-17,8.15,17,8.15Z" transform="translate(0.25 0.25)"/>
    </g>
    <g>
      <path class="cls-8" d="M377.24,183.58h91.87" transform="translate(0.25 0.25)"/>
      <path class="cls-9" d="M458.14,191.73l17-8.15-17-8.15Z" transform="translate(0.25 0.25)"/>
    </g>
    <g>
      <path class="cls-8" d="M401.34,94.47l72.45,72.45" transform="translate(0.25 0.25)"/>
      <path class="cls-9" d="M460.27,164.93,478,171.16,471.8,153.4Z" transform="translate(0.25 0.25)"/>
    </g>
    <g>
      <path class="cls-8" d="M583.21,93.74,511.5,165.46" transform="translate(0.25 0.25)"/>
      <path class="cls-9" d="M513.49,151.94l-6.24,17.76L525,163.47Z" transform="translate(0.25 0.25)"/>
    </g>
    <g>
      <path class="cls-8" d="M583.21,274.88l-72.45-72.45" transform="translate(0.25 0.25)"/>
      <path class="cls-9" d="M524.28,204.43l-17.76-6.24L512.76,216Z" transform="translate(0.25 0.25)"/>
    </g>
    <g>
      <path class="cls-8" d="M401.34,272.69l72.45-72.45" transform="translate(0.25 0.25)"/>
      <path class="cls-9" d="M471.8,213.76,478,196l-17.77,6.24Z" transform="translate(0.25 0.25)"/>
    </g>
    <path class="cls-10" d="M494.11,33.12,494,54l-.62,111.31" transform="translate(0.25 0.25)"/>
    <path class="cls-10" d="M493.37,201.84l-.73,132.21" transform="translate(0.25 0.25)"/>
    <path class="cls-10" d="M475.11,183.58H342.18" transform="translate(0.25 0.25)"/>
    <path class="cls-10" d="M644.57,183.58H511.63" transform="translate(0.25 0.25)"/>
    <path class="cls-10" d="M623.39,53.57,507.25,169.7" transform="translate(0.25 0.25)"/>
    <path class="cls-10" d="M611.7,303.37,506.52,198.19" transform="translate(0.25 0.25)"/>
    <path class="cls-11" d="M261,93.74c44-33,89.73-47.65,140.31.73" transform="translate(0.25 0.25)"/>
    <path class="cls-11" d="M261,274.88c52.56,37.53,94.35,40.83,140.31-2.19" transform="translate(0.25 0.25)"/>
    <g>
      <path class="cls-5" d="M267.47,228.5l-77.63-36.33" transform="translate(0.25 0.25)"/>
      <path class="cls-6" d="M254.08,231.23l18.83-.19L261,216.47Z" transform="translate(0.25 0.25)"/>
    </g>
    <g>
      <path class="cls-8" d="M395,232.14l72.78-38.95" transform="translate(0.25 0.25)"/>
      <path class="cls-9" d="M461.92,205.55,473,190.36l-18.81.82Z" transform="translate(0.25 0.25)"/>
    </g>
    <path class="cls-11" d="M272.91,231c49.48,20.9,79.17,23.1,122,1.1" transform="translate(0.25 0.25)"/>
    <g>
      <path class="cls-8" d="M389,137.15l77.3,37" transform="translate(0.25 0.25)"/>
      <path class="cls-9" d="M452.89,176.78l18.82,0-11.78-14.68Z" transform="translate(0.25 0.25)"/>
    </g>
    <g>
      <path class="cls-12" d="M261.64,137.75l-73.12,38.31" transform="translate(0.25 0.25)"/>
      <path class="cls-13" d="M255.71,150.06,267,135l-18.82.65Z" transform="translate(0.25 0.25)"/>
    </g>
    <path class="cls-11" d="M389,137.15c-49.3-21.33-79-23.79-122-2.18" transform="translate(0.25 0.25)"/>
    <g>
      <path class="cls-5" d="M241.21,61.34,178.34,165.07" transform="translate(0.25 0.25)"/>
      <path class="cls-6" d="M242.49,75l1.83-18.74L228.55,66.5Z" transform="translate(0.25 0.25)"/>
    </g>
    <g>
      <path class="cls-8" d="M418.05,59.51l65.68,97.88" transform="translate(0.25 0.25)"/>
      <path class="cls-9" d="M470.85,152.82l16.22,9.55-2.69-18.63Z" transform="translate(0.25 0.25)"/>
    </g>
    <path class="cls-11" d="M244.32,56.21c57.22-42.92,107.92-59.65,173.73,3.3" transform="translate(0.25 0.25)"/>
    <g>
      <path class="cls-8" d="M421.06,313.88l63-103.66" transform="translate(0.25 0.25)"/>
      <path class="cls-9" d="M485.3,223.83l1.85-18.74-15.78,10.27Z" transform="translate(0.25 0.25)"/>
    </g>
    <g>
      <path class="cls-14" d="M244.11,305.34,179.44,203.55" transform="translate(0.25 0.25)"/>
      <path class="cls-15" d="M231.35,300.45l16,9.95-2.22-18.69Z" transform="translate(0.25 0.25)"/>
    </g>
    <path class="cls-11" d="M421.06,313.88c-57.27,42.86-108,59.54-173.73-3.48" transform="translate(0.25 0.25)"/>
    <path class="cls-11" d="M322.39,183.58h19.79" transform="translate(0.25 0.25)"/>
  </g>
  <text class="cls-16" transform="translate(159.16 198.44)">+</text>
  <path class="cls-17" d="M152.13,114.63a10.73,10.73,0,0,0-4-1c-3,0-6.52,3.52-7.24,4.32-1.6,1.88-3.16,7.72-3.16,11.84,0,2.36.48,3.56,1.44,3.56a5,5,0,0,0,2.92-1.2,24.31,24.31,0,0,0,7-7.6l-3,16.56a4.86,4.86,0,0,1-1.08,2.28l.36.56a28.78,28.78,0,0,1,3.44-.68,62.88,62.88,0,0,1,.76-6.36l3.44-18.24A33.08,33.08,0,0,1,154,114l-.56-.24Zm-10.68,16c-.56,0-.88-.84-.88-2.16,0-3.84,1.72-9.84,3.4-11.84a3.93,3.93,0,0,1,2.92-1,8.9,8.9,0,0,1,3.88,1.08l-.84,3.8C148.77,126,143.13,130.59,141.45,130.59Z" transform="translate(0.25 0.25)"/>
  <text class="cls-18" transform="translate(485.92 196.25)">-</text>
  <g>
    <path class="cls-19" d="M567,151.83v-2.24H546.87v2.24Z" transform="translate(0.25 0.25)"/>
    <path class="cls-19" d="M584.43,143.23a10.73,10.73,0,0,0-4-1c-3,0-6.52,3.52-7.24,4.32-1.6,1.88-3.16,7.72-3.16,11.84,0,2.36.48,3.56,1.44,3.56a5,5,0,0,0,2.92-1.2,24.31,24.31,0,0,0,7-7.6l-3,16.56a4.86,4.86,0,0,1-1.08,2.28l.36.56a28.78,28.78,0,0,1,3.44-.68,62.88,62.88,0,0,1,.76-6.36l3.44-18.24a33.08,33.08,0,0,1,1.08-4.72l-.56-.24Zm-10.68,16c-.56,0-.88-.84-.88-2.16,0-3.84,1.72-9.84,3.4-11.84a3.93,3.93,0,0,1,2.92-1,8.9,8.9,0,0,1,3.88,1.08l-.84,3.8C581.07,154.59,575.43,159.19,573.75,159.19Z" transform="translate(0.25 0.25)"/>
  </g>
</svg>
