<svg id="Livello_1" data-name="Livello 1" xmlns="http://www.w3.org/2000/svg" xmlns:xlink="http://www.w3.org/1999/xlink" width="662.5" height="384.74" viewBox="0 0 662.5 384.74">
  <defs>
    <style>
      .cls-1, .cls-11, .cls-12, .cls-13, .cls-15, .cls-2, .cls-21, .cls-4, .cls-5, .cls-6, .cls-8, .cls-9 {
        fill: none;
      }

      .cls-2, .cls-3 {
        stroke: #d3d3d3;
        stroke-width: 0.5px;
      }

      .cls-3 {
        fill: url(#_.6988821181649465);
      }

      .cls-12, .cls-4 {
        stroke: #000;
      }

      .cls-13, .cls-15, .cls-4, .cls-5, .cls-9 {
        stroke-width: 4px;
      }

      .cls-18, .cls-5, .cls-6, .cls-8 {
        stroke: red;
      }

      .cls-6 {
        stroke-width: 4px;
      }

      .cls-18, .cls-7 {
        fill: red;
      }

      .cls-11, .cls-20, .cls-21, .cls-9 {
        stroke: #4a90e2;
      }

      .cls-10, .cls-19, .cls-20 {
        fill: #4a90e2;
      }

      .cls-13 {
        stroke: #ff0606;
      }

      .cls-14 {
        fill: #ff0606;
      }

      .cls-15 {
        stroke: #ff2c00;
      }

      .cls-16 {
        fill: #ff2c00;
      }

      .cls-17, .cls-19 {
        isolation: isolate;
        font-family: ArialMT, Arial;
      }

      .cls-17 {
        font-size: 40px;
        fill: #ff0101;
      }

      .cls-18, .cls-20 {
        stroke-miterlimit: 10;
      }

      .cls-18 {
        stroke-width: 0.32px;
      }

      .cls-19 {
        font-size: 50px;
      }

      .cls-20 {
        stroke-width: 0.24px;
      }

      .cls-21 {
        stroke-width: 2px;
      }
    </style>
    <pattern id="_.6988821181649465" data-name=".6988821181649465" width="10" height="10" patternTransform="matrix(1, 0, 0, -1, -2.75, 851.14)" patternUnits="userSpaceOnUse" viewBox="0 0 10 10">
      <rect class="cls-1" width="10" height="10"/>
      <path class="cls-2" d="M10,10H0V0"/>
    </pattern>
  </defs>
  <rect class="cls-3" x="0.25" y="0.25" width="662" height="384"/>
  <path class="cls-4" d="M144.93,182.31a26.54,26.54,0,1,1,26.54,26.53A26.53,26.53,0,0,1,144.93,182.31Z" transform="translate(0.25 0.25)"/>
  <g>
    <path class="cls-5" d="M198,182.31l84.33,1.2" transform="translate(0.25 0.25)"/>
    <path class="cls-6" d="M266.47,189.53q11.43-5.24,20.86-5.95-9.4-1-20.68-6.54" transform="translate(0.25 0.25)"/>
  </g>
  <g>
    <path class="cls-5" d="M53.06,182.31h91.87" transform="translate(0.25 0.25)"/>
    <path class="cls-7" d="M64,174.16l-17,8.15,17,8.15Z" transform="translate(0.25 0.25)"/>
  </g>
  <g>
    <path class="cls-5" d="M256.85,114.66,190,163" transform="translate(0.25 0.25)"/>
    <path class="cls-7" d="M252.74,127.69l9-16.55-18.52,3.34Z" transform="translate(0.25 0.25)"/>
  </g>
  <g>
    <path class="cls-5" d="M261.79,274.64l-72.45-72.45" transform="translate(0.25 0.25)"/>
    <path class="cls-7" d="M248.27,272.65,266,278.88l-6.23-17.76Z" transform="translate(0.25 0.25)"/>
  </g>
  <path class="cls-8" d="M144.93,182.31,20,183.58" transform="translate(0.25 0.25)"/>
  <path class="cls-4" d="M481,180.42a12.43,12.43,0,1,1,12.42,12.42A12.42,12.42,0,0,1,481,180.42Z" transform="translate(0.25 0.25)"/>
  <g>
    <path class="cls-9" d="M517.63,183.58h91.88" transform="translate(0.25 0.25)"/>
    <path class="cls-10" d="M528.6,175.43l-17,8.15,17,8.15Z" transform="translate(0.25 0.25)"/>
  </g>
  <g>
    <path class="cls-9" d="M377.24,183.58h91.87" transform="translate(0.25 0.25)"/>
    <path class="cls-10" d="M458.14,191.73l17-8.15-17-8.15Z" transform="translate(0.25 0.25)"/>
  </g>
  <g>
    <path class="cls-9" d="M390.71,114.14,473,167.88" transform="translate(0.25 0.25)"/>
    <path class="cls-10" d="M459.37,168.71,478,171.16l-9.76-16.1Z" transform="translate(0.25 0.25)"/>
  </g>
  <g>
    <path class="cls-9" d="M401.34,272.69l72.45-72.45" transform="translate(0.25 0.25)"/>
    <path class="cls-10" d="M471.8,213.76,478,196l-17.77,6.24Z" transform="translate(0.25 0.25)"/>
  </g>
  <path class="cls-11" d="M644.57,183.58H511.63" transform="translate(0.25 0.25)"/>
  <path class="cls-12" d="M261.71,111.14c54-17,77-21,129,3" transform="translate(0.25 0.25)"/>
  <path class="cls-12" d="M261,274.88c52.56,37.53,94.35,40.83,140.31-2.19" transform="translate(0.25 0.25)"/>
  <g>
    <path class="cls-5" d="M273.47,231.5l-77.63-36.33" transform="translate(0.25 0.25)"/>
    <path class="cls-7" d="M260.08,234.23l18.83-.19L267,219.47Z" transform="translate(0.25 0.25)"/>
  </g>
  <g>
    <path class="cls-9" d="M395,232.14l72.78-38.95" transform="translate(0.25 0.25)"/>
    <path class="cls-10" d="M461.92,205.55,473,190.36l-18.81.82Z" transform="translate(0.25 0.25)"/>
  </g>
  <path class="cls-12" d="M272.91,231c49.48,20.9,79.17,23.1,122,1.1" transform="translate(0.25 0.25)"/>
  <g>
    <path class="cls-9" d="M389,137.15l77.3,37" transform="translate(0.25 0.25)"/>
    <path class="cls-10" d="M452.89,176.78l18.82,0-11.78-14.68Z" transform="translate(0.25 0.25)"/>
  </g>
  <g>
    <path class="cls-13" d="M261.59,137.65,195,171" transform="translate(0.25 0.25)"/>
    <path class="cls-14" d="M255.43,149.85,267,135l-18.83.31Z" transform="translate(0.25 0.25)"/>
  </g>
  <path class="cls-12" d="M389,137.15c-49.3-21.33-79-23.79-122-2.18" transform="translate(0.25 0.25)"/>
  <g>
    <path class="cls-5" d="M241.14,61.3,182,156" transform="translate(0.25 0.25)"/>
    <path class="cls-7" d="M242.24,74.92l2.08-18.71-15.9,10.08Z" transform="translate(0.25 0.25)"/>
  </g>
  <g>
    <path class="cls-9" d="M418.05,59.51l65.68,97.88" transform="translate(0.25 0.25)"/>
    <path class="cls-10" d="M470.85,152.82l16.22,9.55-2.69-18.63Z" transform="translate(0.25 0.25)"/>
  </g>
  <path class="cls-12" d="M244.32,56.21c57.22-42.92,107.92-59.65,173.73,3.3" transform="translate(0.25 0.25)"/>
  <g>
    <path class="cls-9" d="M421.06,313.88l63-103.66" transform="translate(0.25 0.25)"/>
    <path class="cls-10" d="M485.3,223.83l1.85-18.74-15.78,10.27Z" transform="translate(0.25 0.25)"/>
  </g>
  <g>
    <path class="cls-15" d="M248.11,309.34,183.44,207.55" transform="translate(0.25 0.25)"/>
    <path class="cls-16" d="M235.35,304.45l16,9.95-2.22-18.69Z" transform="translate(0.25 0.25)"/>
  </g>
  <path class="cls-12" d="M421.06,313.88c-57.27,42.86-104,63.54-169.73.52" transform="translate(0.25 0.25)"/>
  <path class="cls-12" d="M287.33,183.58h89.91" transform="translate(0.25 0.25)"/>
  <g>
    <path class="cls-9" d="M379.71,161.14l82.15,18.32" transform="translate(0.25 0.25)"/>
    <path class="cls-10" d="M449.38,185l18.33-4.26-14.79-11.65Z" transform="translate(0.25 0.25)"/>
  </g>
  <g>
    <path class="cls-13" d="M283.89,162.19,200,177" transform="translate(0.25 0.25)"/>
    <path class="cls-14" d="M274.51,172.12l15.29-11-18.13-5.07Z" transform="translate(0.25 0.25)"/>
  </g>
  <path class="cls-12" d="M379.71,161.14c-34-5-66-5-89.91,0" transform="translate(0.25 0.25)"/>
  <g>
    <path class="cls-9" d="M382.71,211.14l75.21-20.42" transform="translate(0.25 0.25)"/>
    <path class="cls-10" d="M449.47,201.46l14.24-12.32-18.51-3.41Z" transform="translate(0.25 0.25)"/>
  </g>
  <g>
    <path class="cls-13" d="M279.94,212.53l-81.18-22.66" transform="translate(0.25 0.25)"/>
    <path class="cls-14" d="M267.18,217.43l18.53-3.29-14.15-12.41Z" transform="translate(0.25 0.25)"/>
  </g>
  <path class="cls-12" d="M382.71,211.14c-32.91,7-73,7-97,3" transform="translate(0.25 0.25)"/>
  <path class="cls-12" d="M171.47,155.78C174.2,129.69,156.2,50.69,193.08.07" transform="translate(0.25 0.25)"/>
  <g>
    <path class="cls-5" d="M171.21,64.68l.26,91.1" transform="translate(0.25 0.25)"/>
    <path class="cls-7" d="M179.39,75.63l-8.2-16.95-8.1,17Z" transform="translate(0.25 0.25)"/>
  </g>
  <path class="cls-12" d="M180.85,384c-19.77-56.76-4.87-134.74-9.38-175.19" transform="translate(0.25 0.25)"/>
  <g>
    <path class="cls-5" d="M171.47,208.84V310.48" transform="translate(0.25 0.25)"/>
    <path class="cls-5" d="M165.22,294.71q5.4,11.35,6.25,20.77.85-9.42,6.25-20.77" transform="translate(0.25 0.25)"/>
  </g>
  <path class="cls-12" d="M483.83,384.08c16.24-65.86,8-122.92,9.54-182.24" transform="translate(0.25 0.25)"/>
  <g>
    <path class="cls-9" d="M493.37,207.84V308.48" transform="translate(0.25 0.25)"/>
    <path class="cls-10" d="M501.52,218.81l-8.15-17-8.15,17Z" transform="translate(0.25 0.25)"/>
  </g>
  <path class="cls-12" d="M494.37,151.14C498.61,77.83,494,22.35,484.68,0" transform="translate(0.25 0.25)"/>
  <g>
    <path class="cls-9" d="M494.37,51.68V152.32" transform="translate(0.25 0.25)"/>
    <path class="cls-10" d="M486.22,141.35l8.15,17,8.15-17Z" transform="translate(0.25 0.25)"/>
  </g>
  <path class="cls-12" d="M507.25,169.7C583.21,95.82,636.31,39.25,657.05.07" transform="translate(0.25 0.25)"/>
  <g>
    <path class="cls-9" d="M583.21,93.74,511.5,165.46" transform="translate(0.25 0.25)"/>
    <path class="cls-10" d="M513.49,151.94l-6.24,17.76L525,163.47Z" transform="translate(0.25 0.25)"/>
  </g>
  <path class="cls-12" d="M651.25,384.13c-13.56-77.09-127-159.24-144.73-185.94" transform="translate(0.25 0.25)"/>
  <g>
    <path class="cls-9" d="M583.21,274.88l-72.45-72.45" transform="translate(0.25 0.25)"/>
    <path class="cls-10" d="M524.28,204.43l-17.76-6.24L512.76,216Z" transform="translate(0.25 0.25)"/>
  </g>
  <path class="cls-12" d="M18.87,384c1-.23-.4,1.42-.35-11.55.16-43.31,119.17-162,130.12-168.24" transform="translate(0.25 0.25)"/>
  <g>
    <path class="cls-5" d="M79.41,273.45l7.16-7.17,62.07-62.07,3.22-3.21" transform="translate(0.25 0.25)"/>
    <path class="cls-7" d="M81.4,259.93l-6.24,17.76,17.77-6.24Z" transform="translate(0.25 0.25)"/>
  </g>
  <path class="cls-12" d="M149,169C116.43,139.54,34.51,61.31,28.14,0" transform="translate(0.25 0.25)"/>
  <g>
    <path class="cls-5" d="M83.27,98.85,149,169" transform="translate(0.25 0.25)"/>
    <path class="cls-7" d="M96.71,101.28,79.16,94.47l5.66,18Z" transform="translate(0.25 0.25)"/>
  </g>
  <text class="cls-17" transform="translate(160.21 198.21)">+</text>
  <path class="cls-18" d="M152.13,114.63a10.73,10.73,0,0,0-4-1c-3,0-6.52,3.52-7.24,4.32-1.6,1.88-3.16,7.72-3.16,11.84,0,2.36.48,3.56,1.44,3.56a5,5,0,0,0,2.92-1.2,24.31,24.31,0,0,0,7-7.6l-3,16.56a4.86,4.86,0,0,1-1.08,2.28l.36.56a28.78,28.78,0,0,1,3.44-.68,62.88,62.88,0,0,1,.76-6.36l3.44-18.24A33.08,33.08,0,0,1,154,114l-.56-.24Zm-10.68,16c-.56,0-.88-.84-.88-2.16,0-3.84,1.72-9.84,3.4-11.84a3.93,3.93,0,0,1,2.92-1,8.9,8.9,0,0,1,3.88,1.08l-.84,3.8C148.77,126,143.13,130.59,141.45,130.59Z" transform="translate(0.25 0.25)"/>
  <text class="cls-19" transform="translate(485.48 191.98)">-</text>
  <g>
    <path class="cls-20" d="M587.48,142.25v-1.68H572.36v1.68Z" transform="translate(0.25 0.25)"/>
    <g>
      <path class="cls-20" d="M604.08,114.8a8,8,0,0,0-3-.72c-2.25,0-4.89,2.64-5.43,3.24-1.2,1.41-2.37,5.79-2.37,8.88,0,1.77.36,2.67,1.08,2.67a3.76,3.76,0,0,0,2.19-.9,18.23,18.23,0,0,0,5.25-5.7l-2.28,12.42a3.64,3.64,0,0,1-.81,1.71l.27.42a21.59,21.59,0,0,1,2.58-.51,47.16,47.16,0,0,1,.57-4.77l2.58-13.68a24.81,24.81,0,0,1,.81-3.54l-.42-.18Zm-8,12c-.42,0-.66-.63-.66-1.62,0-2.88,1.29-7.38,2.55-8.88a2.94,2.94,0,0,1,2.19-.72,6.67,6.67,0,0,1,2.91.81l-.63,2.85C601.56,123.32,597.33,126.77,596.07,126.77Z" transform="translate(0.25 0.25)"/>
      <path class="cls-20" d="M592.45,172.85v.78c5.61,0,5.61-.09,6.69-.09s1.08.09,6.87.09v-2.55c-3.45.15-4.83,0-10.38.15l5.46-5.79c2.91-3.09,3.81-4.74,3.81-7,0-3.45-2.34-5.58-6.15-5.58a6.46,6.46,0,0,0-5.1,2.1l-.51,4.08H594l.39-1.38c.48-1.74,1.56-2.49,3.57-2.49a3.92,3.92,0,0,1,4.23,4.17c0,2.25-1.26,4.47-4.65,8.07Z" transform="translate(0.25 0.25)"/>
      <line class="cls-21" x1="592.22" y1="142.02" x2="607.2" y2="142.02"/>
    </g>
  </g>
</svg>
