<svg id="Livello_2" data-name="Livello 2" xmlns="http://www.w3.org/2000/svg" width="187.36mm" height="39.49mm" viewBox="0 0 531.09 111.95">
  <defs>
    <style>
      .cls-1 {
        fill: #3d5c80;
      }

      .cls-2 {
        fill: #fdc516;
      }
    </style>
  </defs>
  <path class="cls-1" d="M69.53,489.61a53,53,0,0,0,6.71,3.4A17.33,17.33,0,0,0,83,494.36a22.49,22.49,0,0,0,6.25-.8,26.51,26.51,0,0,1,3.31,6.11,19.38,19.38,0,0,1-5.91,7.06,14.51,14.51,0,0,1-9,3A15.8,15.8,0,0,1,67.78,506,90.62,90.62,0,0,1,57,495.66l-4.3-4.9A18.69,18.69,0,0,1,41,495.16q-6.1,0-9.41-3a9.23,9.23,0,0,1-.1-14.06,10.48,10.48,0,0,1,7.26-2.9,25.82,25.82,0,0,1,7.65,1.1A94.26,94.26,0,0,0,48.46,462q-14-3.19-14-16.41l.6-5.41c.67-.06,1.94-.1,3.81-.1a12.06,12.06,0,0,1,5.4,1.3,21,21,0,0,0-.6,4.21q0,7.9,5.31,8.81.39-8.21.7-11.31,1.09-10.81,7.55-15.92a23.54,23.54,0,0,1,15-5.1q8.55,0,13.06,4.15a14.27,14.27,0,0,1,4.5,11q0,6.86-7.55,14.36a41.11,41.11,0,0,1-18.67,10.51q-2.1,9.62-5.21,20.12Q66.08,487.56,69.53,489.61Zm-25.17-7.06a7.35,7.35,0,0,0-4.2-1.7,4,4,0,0,0-2.91,1,3,3,0,0,0-1,2.1,2.33,2.33,0,0,0,2.66,2.61Q41.55,486.56,44.36,482.55ZM79.89,437a6.84,6.84,0,0,0-1-4,3.3,3.3,0,0,0-2.85-1.5q-3.4,0-5.4,3.55t-3.71,11.26l-1.5,7.21a21.16,21.16,0,0,0,10.81-7A15.51,15.51,0,0,0,79.89,437Z" transform="translate(-28.25 -422.1)"/>
  <path class="cls-1" d="M100.31,494.36q-7.8,0-12.31-4.95t-4.5-14q0-11,6.5-18.67t17.12-7.66l4.5.4a16.43,16.43,0,0,1,4.51-.7c3.33,0,5.72,1.14,7.15,3.4s2.26,5.51,2.46,9.71a34,34,0,0,0,8-1.3l1.4-.4c.47.47.81,1.87,1,4.21l.1,1.1a43.11,43.11,0,0,1-11,3.6,38.08,38.08,0,0,1-8.71,17.92A20.84,20.84,0,0,1,100.31,494.36Zm2-19.31q0,9.3,4.71,9.3,3.3,0,6.75-4.2a23.66,23.66,0,0,0,4.76-10.21q-10.22,0-10.21-9.81a21.31,21.31,0,0,1,.3-3.5,3,3,0,0,0-1.5.3q-1.71,1.8-3.25,7.26A39.27,39.27,0,0,0,102.31,475.05Z" transform="translate(-28.25 -422.1)"/>
  <path class="cls-1" d="M154.26,489q-7,3.81-12.46,3.8a11.43,11.43,0,0,1-9.11-4.35q-3.65-4.35-3.65-13,0-11.52,6.26-19t15-7.51a24.38,24.38,0,0,1,9.51,2.3,48.37,48.37,0,0,1,14.11-1.9h1.7a12.1,12.1,0,0,1,.5,4.46,135.37,135.37,0,0,1-1.25,13.56q-1.25,10.11-2.75,16.91-3.21,14.52-10,23t-17,8.45a13.91,13.91,0,0,1-8.15-2.2,6.6,6.6,0,0,1-3.16-5.6,9.26,9.26,0,0,1,1.66-5.66,12.44,12.44,0,0,1,4.75-3.75,58.26,58.26,0,0,1,13-4.31Zm-10.81,19.32a7.55,7.55,0,0,0,4.36-1.9,13.75,13.75,0,0,0,4.05-6.21Q141,502.08,141,506A2.25,2.25,0,0,0,143.45,508.28ZM154.86,457c-2.33,0-4.12,2-5.35,6a43.87,43.87,0,0,0-1.85,13q0,7,3.3,7a10,10,0,0,0,4.1-1.4q.81-8.1,2.61-24A7.65,7.65,0,0,0,154.86,457Z" transform="translate(-28.25 -422.1)"/>
  <path class="cls-1" d="M203.41,455.68q0,4.45-2.51,13.71t-2.5,12.06c0,1.87.37,2.8,1.1,2.8a15,15,0,0,0,4-1l.9-.4,1.8,5a35.29,35.29,0,0,1-8.46,4.6,25,25,0,0,1-9.16,2,8.79,8.79,0,0,1-6.45-2.3q-2.35-2.3-2.35-6.65c0-2.91.81-7.34,2.45-13.32s2.45-9.76,2.45-11.36a11.14,11.14,0,0,0-2.6-7l-.8-1.1.3-1.71q5.21-1.59,20.22-1.6C202.87,450.62,203.41,452.71,203.41,455.68ZM196,441.61a10,10,0,0,1-7.11-2.4,8.07,8.07,0,0,1-2.55-6.15,7.82,7.82,0,0,1,3.15-6.31,11.82,11.82,0,0,1,7.66-2.55,10.61,10.61,0,0,1,7,2.1,7.28,7.28,0,0,1,2.5,5.91,8.71,8.71,0,0,1-3.05,6.6A10.82,10.82,0,0,1,196,441.61Z" transform="translate(-28.25 -422.1)"/>
  <path class="cls-1" d="M234.74,455.63q-3.11,0-5.31,5.5a29.68,29.68,0,0,0-2.2,11.11q0,12.31,7.1,12.31,4.51,0,10.21-4.3l3.21,4.4a29.94,29.94,0,0,1-10.06,7.21,28.45,28.45,0,0,1-11.66,2.6q-7.82,0-12.66-4.75t-4.86-14.36q0-11.61,7.16-19t18.77-7.41q7.5,0,11.81,3.05a9.17,9.17,0,0,1,4.3,7.71,12.34,12.34,0,0,1-2.8,8.06,23.43,23.43,0,0,1-7.16-1.25,18.63,18.63,0,0,1-6.15-3.16l1.5-7.5A3.6,3.6,0,0,0,234.74,455.63Z" transform="translate(-28.25 -422.1)"/>
  <path class="cls-2" d="M308.1,493.76h-2.5q0-7.1,2.75-19.87t2.75-14.16a6.73,6.73,0,0,0-.9-3.1,11,11,0,0,0-1.8-2.6l-.9-.9.2-1.51q5.81-1.89,20.52-1.9a17.72,17.72,0,0,1,1.5,4.91q8.71-5.72,14.72-5.71a8.81,8.81,0,0,1,5.45,1.7,8.94,8.94,0,0,1,3.15,4.51q8.31-6.21,15.22-6.21a9.15,9.15,0,0,1,7.05,2.75,9.36,9.36,0,0,1,2.56,6.61q0,3.86-2.21,12.46t-2.2,11.06c0,1.64.27,2.45.8,2.45l5.21-1.3,1.8,5a30.84,30.84,0,0,1-8.26,4.4,26.79,26.79,0,0,1-9.46,2q-8.61,0-8.61-8.7,0-3.71,2.11-12.62t2.1-10.86q0-1.95-1.5-1.95a8,8,0,0,0-4.51,1.7c-.2,1-.73,3.41-1.6,7.21a107.68,107.68,0,0,0-2.8,22.72q-4.61,1.71-17.92,1.7a26.37,26.37,0,0,1-.3-5.2c0-2.74.73-7.57,2.2-14.52s2.21-10.94,2.21-12-.47-1.6-1.41-1.6a9.43,9.43,0,0,0-4.4,1.6q-.3,1.71-1.9,8.71-3.41,14.71-3.4,21.42Q319.11,493.76,308.1,493.76Z" transform="translate(-28.25 -422.1)"/>
  <path class="cls-2" d="M430,493.76h-1.7q0-6.19,2.85-18.81T434,460.43a8.2,8.2,0,0,0-.9-3.7,10.47,10.47,0,0,0-1.81-2.7l-.9-.9.2-1.51q5.91-1.89,20.62-1.9a19.54,19.54,0,0,1,1.4,4.81q9.12-5.61,15.32-5.61a8.31,8.31,0,0,1,6.6,2.75,9.69,9.69,0,0,1,2.41,6.61q0,3.86-2.21,12.36t-2.2,11.06c0,1.7.24,2.55.7,2.55l5.31-1.4,1.8,5a36.64,36.64,0,0,1-8.36,4.45,25.76,25.76,0,0,1-9.46,2.05q-8.51,0-8.5-8.8,0-3.81,2.1-12.42t2.1-10.76c0-1.43-.47-2.15-1.4-2.15q-1.8,0-4.81,2c-.26,1.2-.93,4.11-2,8.71q-3.19,14.52-3.2,20.92Q441.93,493.77,430,493.76Z" transform="translate(-28.25 -422.1)"/>
  <path class="cls-2" d="M517.49,457.73l-8.61-.7q-4,17.91-4.35,20.82a42,42,0,0,0-.35,4.75c0,1.24.4,1.85,1.2,1.85s2.7-.6,5.31-1.8l2.4,4.81a27.39,27.39,0,0,1-8.11,4.9,24.87,24.87,0,0,1-9.46,2,10.69,10.69,0,0,1-7.26-2.35,8.34,8.34,0,0,1-2.7-6.65q0-4.31,2.51-13.82t3.3-14.11c-1.6.13-4,.37-7.11.7a20.91,20.91,0,0,1-.4-3.95,20,20,0,0,1,.5-4.16h8c.06-.86.1-3.77.1-8.71l-.2-4.1a59.21,59.21,0,0,1,18.52-3.2,15.5,15.5,0,0,1,.7,5.55,56.62,56.62,0,0,1-1.3,10.46h9A17.73,17.73,0,0,1,517.49,457.73Z" transform="translate(-28.25 -422.1)"/>
  <path class="cls-2" d="M516.09,475.05q0-12.42,7.56-19.32t18.67-6.91q7.7,0,12.36,3.35a10.52,10.52,0,0,1,4.65,9,11.55,11.55,0,0,1-2.5,7.31,16.58,16.58,0,0,1-6.11,4.9,48,48,0,0,1-13.21,4.11l-2.5.3q1.1,6.6,6.6,6.6a15.74,15.74,0,0,0,5.31-1.05,22.74,22.74,0,0,0,4.6-2.15l1.71-1,3.2,4.3-1.1,1.11c-.4.4-1.35,1.18-2.85,2.35a32.61,32.61,0,0,1-4.71,3,31.32,31.32,0,0,1-6.25,2.35,28.55,28.55,0,0,1-7.61,1.05q-8.5,0-13.16-4.95T516.09,475.05Zm24.32-8.66q2.91-4.35,2.91-7.31c0-2-.57-2.95-1.71-2.95-1.66,0-3.2,1.3-4.6,3.9s-2.2,6.31-2.4,11.11C536.54,470.88,538.48,469.29,540.41,466.39Z" transform="translate(-28.25 -422.1)"/>
  <path class="cls-1" d="M295.64,454.62l-.09.2c-.53,1.31-1,2.39-1.35,3.16-.57,1.28-1.86,4.12-3.76,7.67-.5.92-.91,1.67-1.19,2.16l1.29,4.32,2.55,8.1,2.28,5.67a6.3,6.3,0,0,0,1.13,1.61,5.15,5.15,0,0,0,5.06,1.5,9.93,9.93,0,0,0,2.06-.68l.29-.13.66.36q-.22.74-.39,1.56c0,.08,0,.16,0,.25l-1.44.71-3.12,1.36c-.34.12-.82.28-1.41.45a14.05,14.05,0,0,1-2.84.66,8.3,8.3,0,0,1-3.05-.29,5.56,5.56,0,0,1-2.82-1.64,6.83,6.83,0,0,1-1.07-2,17.5,17.5,0,0,1-.78-2.39c-.28-1.1-.73-2.7-1.44-4.89l-1.34-4.6-.23-.79-.12-.12c-.68,1.12-1.65,2.67-2.92,4.47-.9,1.29-1.54,2.19-2.5,3.35a30.94,30.94,0,0,1-4.94,4.9,27.7,27.7,0,0,1-2.33,1.64l-2.26,1.11-2.11.73-2.12.47-2.52.2-1.83-.13-1.83-.26-1.55-.46-2-.85L254,490.67l-1.17-1.5-.88-1.55-.85-2.66-.45-2.27-.26-4.14.21-4.66,1.21-5.36,1-3.11,1.29-2.69,1.43-2.63,1.71-2.41,1.57-1.88,2.39-2,2.25-1.36,2.68-1.21,2.63-.7,2.75-.36h2.65l1.76.08,1.75.38,1.44.47,1.47.63,2.22,1.68,2.29,3.31,1.14,2.43,1,2.82.36.83a53.23,53.23,0,0,0,2.44-8.14c.22-1,.4-2,.55-3l1.24-.67,3.37,2.45Zm-15.37,17.85L278.43,467c-.45-1.26-.88-2.29-1.21-3.06a18,18,0,0,0-2-3.83,5.92,5.92,0,0,0-3.68-2.57,6.75,6.75,0,0,0-1.5-.23,6.56,6.56,0,0,0-1.74.18,6.23,6.23,0,0,0-3.12,1.76,11.12,11.12,0,0,0-1.57,1.84,14.46,14.46,0,0,0-1.85,4.14,21.54,21.54,0,0,0-.87,4,22.74,22.74,0,0,0-.15,2.41,34,34,0,0,0,.26,5.85,31.27,31.27,0,0,0,1,4.35,5.32,5.32,0,0,0,.63,1.49,5.06,5.06,0,0,0,1.26,1.39,4.53,4.53,0,0,0,1.92.93,4.72,4.72,0,0,0,1.73,0,6.91,6.91,0,0,0,1.92-.6,11.12,11.12,0,0,0,2.26-1.32,16.18,16.18,0,0,0,2.39-2.23,36.52,36.52,0,0,0,2.36-2.88c.52-.69,1.15-1.62,1.95-2.75Z" transform="translate(-28.25 -422.1)"/>
  <path class="cls-1" d="M31.43,501.81c32.15,23,72.16,31.43,111.09,32.16,43.22.82,85.79-5.26,128-13.78,23.92-4.83,47.78-10,72.14-12,15-1.25,30-1.63,45-1.71,17.3-.1,34.62,0,51.9,1.13,16.9,1.13,33.77,2.93,50.55,5.29a452.58,452.58,0,0,1,48,8.95c3.16.8,6.29,1.66,9.4,2.61s4.41-3.89,1.33-4.82c-14.49-4.41-29.48-7.2-44.41-9.6q-25.69-4.14-51.67-6.4c-16.2-1.43-32.37-2-48.64-2.14-16.74-.13-33.5,0-50.22.91-24.14,1.36-47.76,5.48-71.42,10.28-17.34,3.52-34.67,7.16-52.15,9.91a524.79,524.79,0,0,1-67.73,6.34c-40.07,1-81.39-3.23-116.74-23.64q-6.19-3.58-12-7.77c-2.62-1.87-5.12,2.46-2.53,4.32Z" transform="translate(-28.25 -422.1)"/>
  <path class="cls-2" d="M417.87,456.68l-4.37,1.83a12.37,12.37,0,0,0-3.87-4,8.1,8.1,0,0,0-4.34-1.4,5.21,5.21,0,0,0-3.54,1.29,5,5,0,0,0-1.62,3.62q-.31,4.5,4.48,7a17.42,17.42,0,0,0,6.72,1.45l0,4.13-2.78-.08q-4.38.09-6.56,2c-1.45,1.24-2.27,3.31-2.47,6.19a13.16,13.16,0,0,0,1.53,7.56q1.83,3.21,4.9,3.11a3.78,3.78,0,0,0,2.46-.8l-.38-6.63a15.71,15.71,0,0,1,9.24-2.83,13.87,13.87,0,0,1,2.06.08c1.24,1.07,1.76,2.7,1.56,4.87-.24,2.78-2.11,5-5.61,6.81a26.82,26.82,0,0,1-11.22,2.9,19.83,19.83,0,0,1-13-3.75A11.61,11.61,0,0,1,386,479.57a10.59,10.59,0,0,1,3.56-7.57,16.55,16.55,0,0,1,8.44-3.82,15.36,15.36,0,0,1-8.15-4.06A9.18,9.18,0,0,1,391,449.73q3.88-2.82,10.2-2.82a19.12,19.12,0,0,1,10.57,2.74A15.48,15.48,0,0,1,417.87,456.68Z" transform="translate(-28.25 -422.1)"/>
</svg>
