<svg id="Livello_1" data-name="Livello 1" xmlns="http://www.w3.org/2000/svg" viewBox="0 0 340.01 340.01"><defs><style>.cls-1{fill:#3f5b80;}.cls-2{fill:#97c1d8;}.cls-3{fill:#fdc516;}</style></defs><circle class="cls-1" cx="170" cy="170" r="170"/><path class="cls-2" d="M291.71,262l-.33.75c-2,4.84-3.72,8.82-5,11.67-2.1,4.72-6.87,15.18-13.9,28.31-1.81,3.4-3.35,6.16-4.36,8l4.74,15.93,9.42,29.92,8.42,20.94a22.31,22.31,0,0,0,4.17,5.91,19.64,19.64,0,0,0,8.48,5.34,20.24,20.24,0,0,0,10.18.23,39.87,39.87,0,0,0,7.63-2.52c.44-.19.8-.36,1.05-.48l2.45,1.32a57.25,57.25,0,0,0-1.43,5.77c-.06.3-.12.6-.17.9l-5.31,2.65-11.5,5c-1.27.45-3.06,1.05-5.23,1.69-4.46,1.31-7.18,2.11-10.46,2.41a30.51,30.51,0,0,1-11.26-1.06c-2.83-.86-7.14-2.17-10.44-6-1.61-1.89-2.38-3.75-3.92-7.48a64.46,64.46,0,0,1-2.9-8.81c-1-4-2.67-9.95-5.3-18l-4.95-17-.84-2.93-.45-.45c-2.5,4.13-6.11,9.86-10.78,16.5-3.34,4.76-5.67,8.08-9.25,12.39a112.62,112.62,0,0,1-18.2,18.08,101.65,101.65,0,0,1-8.63,6L195.33,401l-7.79,2.71-7.82,1.73-9.33.72-6.76-.48-6.76-1L151.16,403l-7.4-3.14L137.89,395l-4.34-5.55-3.22-5.71L127.19,374l-1.69-8.37-1-15.28.8-17.22,4.46-19.79,3.81-11.46,4.76-10,5.25-9.71,6.34-8.87,5.79-6.94,8.81-7.3,8.32-5,9.9-4.47,9.71-2.59,10.14-1.33h9.77l6.52.3,6.45,1.39,5.31,1.75,5.43,2.33,8.21,6.2,8.44,12.22,4.19,9,3.9,10.4,1.32,3.08a197.84,197.84,0,0,0,9-30.05q1.23-5.72,2.06-11.1l4.58-2.47,12.43,9.05ZM235,327.87l-6.77-20.18c-1.67-4.63-3.25-8.45-4.47-11.27-3.8-8.77-6-12.07-7.53-14.14a24.76,24.76,0,0,0-6-6.19,24,24,0,0,0-7.6-3.3,24.94,24.94,0,0,0-5.51-.86,25,25,0,0,0-12.86,3.18,25.57,25.57,0,0,0-5.08,4,42.38,42.38,0,0,0-5.82,6.8c-3.68,5.37-5.24,10.28-6.83,15.28A79.69,79.69,0,0,0,163.27,316a87.92,87.92,0,0,0-.55,8.91,124.08,124.08,0,0,0,1,21.59c.74,5.45,1.72,9,3.67,16A20,20,0,0,0,169.7,368a19.33,19.33,0,0,0,4.65,5.15,16.88,16.88,0,0,0,7.1,3.43,17.45,17.45,0,0,0,6.37,0,25.65,25.65,0,0,0,7.11-2.21,42.76,42.76,0,0,0,8.33-4.9,59.12,59.12,0,0,0,8.82-8.2,134.6,134.6,0,0,0,8.69-10.66c1.94-2.54,4.26-5.95,7.21-10.13Z" transform="translate(-113.29 -159.28)"/><path class="cls-3" d="M428.9,279.56,414,285.85a42.27,42.27,0,0,0-13.25-13.59q-7.71-4.83-14.84-4.8a18,18,0,0,0-12.13,4.4q-5,4.38-5.54,12.41-1.05,15.39,15.33,23.84,8.06,4.09,23,5l.08,14.12-9.49-.26q-15,.29-22.45,6.65t-8.45,21.2q-1,14.82,5.24,25.85t16.78,10.63c3.74-.13,6.54-1,8.38-2.72l-1.3-22.69q12.26-9.17,31.62-9.67a46.19,46.19,0,0,1,7.05.26q6.36,5.51,5.36,16.67-1.28,14.24-19.2,23.29a91.37,91.37,0,0,1-38.4,9.91q-26.13,1-44.6-12.83t-17.37-35.6q.9-15.76,12.16-25.89t28.89-13.07Q343.67,315.64,333,305T323,279.94q.81-14.42,14.07-24.14T372,246.13q21.6,0,36.15,9.4T428.9,279.56Z" transform="translate(-113.29 -159.28)"/></svg>