<svg xmlns="http://www.w3.org/2000/svg" viewBox="0 0 349.7 327.91"><defs><style>.cls-1{fill:#662483;stroke:#662483;}.cls-1,.cls-2{stroke-miterlimit:10;}.cls-2{fill:#00a19a;stroke:#00a19a;}.cls-3{font-size:120.01px;fill:#e30613;}.cls-3,.cls-4{font-family:Montserrat-Black, Montserrat;font-weight:800;}.cls-4{font-size:106.7px;fill:#f39200;}</style></defs><g id="Livello_2" data-name="Livello 2"><polygon class="cls-1" points="0.87 197.43 165.09 0.85 348.59 300.86 0.87 197.43"/></g><g id="Livello_3" data-name="Livello 3"><path class="cls-2" d="M313.39,271.1s-9.28,18,.45,24.63,18.66-3.06,18.66-3.06,4.35-7.14,2.27-20.17S328.35,236,328.35,236l-4.57-20.63L320.54,202l24.64-7.63,8.46,38.55,6.53,27.85s1.88,11,10.23,15,11.06,5.09,23.18.49,11.69-25.81,11.69-25.81l-1.17-10.53-4.2,1.31a16.82,16.82,0,0,1-1.57,13.88c-4.24,7-16.47,3.15-16.47,3.15s-5.15-1.75-9.85-16.49a249.58,249.58,0,0,1-7-27.14l-4.5-20-.91-4.74,26.49-8.21L381,165.42l-66.74,20.67s-26.76,6.9-30.37,20a69.85,69.85,0,0,0-2.13,24.67l3.57-1.11s2.51-18.92,13.86-21.46,11.09-3.43,11.09-3.43,13.13,30.68,3.09,66.32" transform="translate(-243.01 -129.34)"/><text class="cls-3" transform="translate(111.66 264.6) rotate(28.13)">3</text><text class="cls-4" transform="translate(215.38 146.65) rotate(13.14)">X</text></g></svg>