<svg id="Livello_1" data-name="Livello 1" xmlns="http://www.w3.org/2000/svg" xmlns:xlink="http://www.w3.org/1999/xlink" width="662.5" height="568.5" viewBox="0 0 662.5 568.5">
  <defs>
    <style>
      .cls-1, .cls-10, .cls-2, .cls-4, .cls-5, .cls-6, .cls-7, .cls-8 {
        fill: none;
      }

      .cls-2, .cls-3 {
        stroke: #d3d3d3;
        stroke-width: 0.5px;
      }

      .cls-3 {
        fill: url(#_.6498535549321369);
      }

      .cls-13, .cls-4 {
        stroke: #ff001f;
      }

      .cls-4, .cls-5, .cls-6 {
        stroke-width: 3px;
      }

      .cls-12, .cls-15, .cls-5, .cls-7 {
        stroke: #000;
      }

      .cls-5 {
        stroke-dasharray: 9 6;
      }

      .cls-10, .cls-14, .cls-6 {
        stroke: #4a90e2;
      }

      .cls-8 {
        stroke: red;
      }

      .cls-10, .cls-8 {
        stroke-width: 4px;
      }

      .cls-9 {
        fill: red;
      }

      .cls-11, .cls-14 {
        fill: #4a90e2;
      }

      .cls-12, .cls-13, .cls-14, .cls-15 {
        stroke-miterlimit: 10;
      }

      .cls-12 {
        stroke-width: 0.24px;
      }

      .cls-13 {
        fill: #ff001f;
      }

      .cls-13, .cls-14 {
        stroke-width: 0.56px;
      }

      .cls-15 {
        stroke-width: 0.32px;
      }
    </style>
    <pattern id="_.6498535549321369" data-name=".6498535549321369" width="10" height="10" patternTransform="matrix(1, 0, 0, -1, -2.75, 849.14)" patternUnits="userSpaceOnUse" viewBox="0 0 10 10">
      <rect class="cls-1" width="10" height="10"/>
      <path class="cls-2" d="M10,10H0V0"/>
    </pattern>
  </defs>
  <rect class="cls-3" x="0.25" y="0.25" width="662" height="568"/>
  <g>
    <path class="cls-4" d="M285.3,299.4a47.42,47.42,0,1,1,47.42,47.42A47.42,47.42,0,0,1,285.3,299.4Z" transform="translate(0.25 0.25)"/>
    <path class="cls-5" d="M115.44,299.4c0-120,97.28-217.28,217.28-217.28S550,179.4,550,299.4,452.72,516.68,332.72,516.68,115.44,419.4,115.44,299.4Z" transform="translate(0.25 0.25)"/>
    <path class="cls-6" d="M455.85,149.16A33.88,33.88,0,1,1,489.73,183,33.88,33.88,0,0,1,455.85,149.16Z" transform="translate(0.25 0.25)"/>
    <path class="cls-7" d="M332.72,299.4,484.35,453.71" transform="translate(0.25 0.25)"/>
    <g>
      <path class="cls-8" d="M470.79,128.87,372.15,30.23" transform="translate(0.25 0.25)"/>
      <path class="cls-9" d="M385.67,32.23,367.91,26l6.24,17.76Z" transform="translate(0.25 0.25)"/>
    </g>
    <g>
      <path class="cls-10" d="M462.7,173.54l-75.62,75.61" transform="translate(0.25 0.25)"/>
      <path class="cls-11" d="M389.08,235.63l-6.24,17.76,17.76-6.23Z" transform="translate(0.25 0.25)"/>
    </g>
  </g>
  <path class="cls-12" d="M375.46,389.13l1.68.06c.72,0,1.05.27,1.05.81a18.52,18.52,0,0,1-.27,2.28l-2.25,13c-.48,2.73-.54,2.79-1.74,2.91l-1.23.09-.12.84,1.26,0c1.41-.06,2-.06,2.7-.06l2.91.09h.78l.09-.84-1.47-.09c-.81-.06-1.08-.3-1.08-.9a5.81,5.81,0,0,1,.12-1.05l3-16.65a10.17,10.17,0,0,1,2.28-.24c2.61,0,4,1.17,4,3.39,0,2.85-2.34,4.95-5.46,4.95h-1.32l-.09.33c4,5.85,4.95,7.29,7.2,11.1l2.55-.09,1,.09h.39v-.81c-1.2-.15-1.53-.39-2.4-1.65l-5.52-8.25a7.71,7.71,0,0,0,3.6-1.44,5.82,5.82,0,0,0,2.67-4.74c0-2.58-1.92-4-5.25-3.93h-9Z" transform="translate(0.25 0.25)"/>
  <path class="cls-12" d="M254.9,321.39c1.68,0,5.13-2.19,6.42-4.08a15.52,15.52,0,0,0,2.25-7.38c0-2-.69-3.33-1.77-3.33a7.24,7.24,0,0,0-4.41,2.19,12.58,12.58,0,0,0-2.91,3.6l.72-3.57a8.06,8.06,0,0,0,.15-1.32c0-.57-.24-.9-.66-.9-.63,0-1.77.63-4,2.22l-.84.6.21.6,1-.63c.84-.54,1.17-.69,1.44-.69s.51.27.51.69a8.2,8.2,0,0,1-.12,1.14l-1.74,10.29c-.3,1.8-.87,4.53-1.47,7.23l-.23,1.11.2.18a12.54,12.54,0,0,1,2.19-.51l1.26-7.86A6.38,6.38,0,0,0,254.9,321.39Zm-1-5.28c.66-3.84,3.87-7.77,6.36-7.77.78,0,1.14.66,1.14,2a16.64,16.64,0,0,1-2.79,8.28,3.2,3.2,0,0,1-2.79,1.32,4.42,4.42,0,0,1-2.46-.69Z" transform="translate(0.25 0.25)"/>
  <path class="cls-13" d="M351.81,301.46v-4.13H335V280.67h-4.13v16.66h-16.8v4.13h16.8v16.87H335V301.46Z" transform="translate(0.25 0.25)"/>
  <path class="cls-14" d="M508.29,147.43v-3.92H473v3.92Z" transform="translate(0.25 0.25)"/>
  <g>
    <path class="cls-15" d="M457.47,67.79a19.79,19.79,0,0,0,2.52-.16c-4.44,4.8-6.12,8.12-6.12,12.12,0,3.08,1.84,5.28,4.4,5.28,5.52,0,11.64-9.88,11.64-15.8,0-2.28-1-3.92-2.48-3.92a1.85,1.85,0,0,0-1.32.48l-2,1.88.44.76a1.94,1.94,0,0,1,1.08-.36c1.08,0,1.72.92,1.72,2.52,0,5.92-3.88,12.44-7.4,12.44-2,0-3.2-1.68-3.2-4.28,0-4.2,1.56-7.84,5.48-12.72l-.4-.72a5,5,0,0,1-2.44.48c-1.12,0-2.8-.08-4-.2l-.48,0a3,3,0,0,0-.48,0,2.84,2.84,0,0,0-1.28.28,21,21,0,0,0-1.52,4.72h.88l.68-1.68a2.12,2.12,0,0,1,2-1.12C456.59,67.71,456,67.79,457.47,67.79Z" transform="translate(0.25 0.25)"/>
    <path d="M472.8,51l-7.42-7.81-1.15,1.22,4.54,5.47h-.36V52h.36l-4.54,5.47,1.15,1.22Zm-18,.9h16.93V49.8H454.79Z" transform="translate(0.25 0.25)"/>
  </g>
  <g>
    <path class="cls-15" d="M451.91,234.47l4.24-.16c2.48,0,4.08.36,4.12,1l.32,3.56h1a27.39,27.39,0,0,1,.84-6.08c-.88-.08-2-.12-2.68-.12l-1.64,0-6.6.08h-1.16c-1,0-2.6,0-4.12-.08l-2,0-.12,1.12,2.24.08c1,0,1.4.4,1.4,1.08a24.69,24.69,0,0,1-.36,3l-3,17.36c-.68,3.68-.68,3.72-2.32,3.88l-1.44.12-.16,1.12,1.36,0c1.6,0,2.88-.08,3.72-.08s1.88,0,3.44.08l2.08,0,.12-1.12-2.56-.12c-1.08,0-1.44-.36-1.44-1.16a5,5,0,0,1,.08-.84l1.44-8.92h4.68c1.08,0,2.32,0,4.24.12l1,0,.76-1.8-.16-.28c-3.24.16-5.64.24-8.76.24H449l1.84-10.84a4.48,4.48,0,0,1,.36-1.28Zm23.88,21.4-1,.68c-2.12,1.52-4,2.32-5.48,2.32-1.88,0-3-1.48-3-3.88a19.28,19.28,0,0,1,.32-3.24c.68-.16,5-1.36,6-1.8,3.4-1.48,5-3.32,5-5.8a3.07,3.07,0,0,0-3.36-3.12c-2.72-.56-7.12,2.36-8.6,5.32a24,24,0,0,0-2.4,9.44c0,3.12,1.76,5,4.64,5,2.28,0,4.52-1.12,8.2-4.12Zm-8.6-6.52c.68-2.76,1.48-4.48,2.64-5.52a4.9,4.9,0,0,1,2.92-1.12,1.87,1.87,0,0,1,1.92,2.08c0,1.76-1.4,3.64-3.48,4.64a19.29,19.29,0,0,1-4.36,1.4Z" transform="translate(0.25 0.25)"/>
    <path d="M480.17,219l-8.24-8.68-1.28,1.36,5,6.08h-.4v2.36h.4l-5,6.08,1.28,1.36Zm-35.3,1H479v-2.36h-34.1Z" transform="translate(0.25 0.25)"/>
  </g>
</svg>
