<svg id="Livello_1" data-name="Livello 1" xmlns="http://www.w3.org/2000/svg" xmlns:xlink="http://www.w3.org/1999/xlink" width="662.5" height="536.5" viewBox="0 0 662.5 536.5">
  <defs>
    <style>
      .cls-1, .cls-2, .cls-4, .cls-5, .cls-6 {
        fill: none;
      }

      .cls-2, .cls-3 {
        stroke: #d3d3d3;
        stroke-width: 0.5px;
      }

      .cls-3 {
        fill: url(#_.4169564083222199);
      }

      .cls-10, .cls-4, .cls-6 {
        stroke: red;
      }

      .cls-4 {
        stroke-width: 4px;
      }

      .cls-5, .cls-8, .cls-9 {
        stroke: #000;
      }

      .cls-5, .cls-6 {
        stroke-width: 3px;
      }

      .cls-10, .cls-7 {
        fill: red;
      }

      .cls-10, .cls-8, .cls-9 {
        stroke-miterlimit: 10;
      }

      .cls-8 {
        stroke-width: 0.32px;
      }

      .cls-9 {
        stroke-width: 0.22px;
      }

      .cls-10 {
        stroke-width: 0.48px;
      }
    </style>
    <pattern id="_.4169564083222199" data-name=".4169564083222199" width="10" height="10" patternTransform="matrix(1, 0, 0, -1, -2.75, 845.14)" patternUnits="userSpaceOnUse" viewBox="0 0 10 10">
      <rect class="cls-1" width="10" height="10"/>
      <path class="cls-2" d="M10,10H0V0"/>
    </pattern>
  </defs>
  <rect class="cls-3" x="0.25" y="0.25" width="662" height="536"/>
  <g>
    <path class="cls-4" d="M58.23,420.1c0-20.6,16.48-37.3,36.8-37.3s36.79,16.7,36.79,37.3S115.35,457.41,95,457.41,58.23,440.71,58.23,420.1Z" transform="translate(0.25 0.25)"/>
    <path class="cls-4" d="M476.23,161.4c0-20.6,16.48-37.3,36.8-37.3s36.79,16.7,36.79,37.3S533.35,198.71,513,198.71,476.23,182,476.23,161.4Z" transform="translate(0.25 0.25)"/>
    <g>
      <path class="cls-5" d="M95,420.1c80-245.28,338.75-12.32,418.73-257.6" transform="translate(0.25 0.25)"/>
      <path d="M292.91,298.58l14-7.37-14.54-6.34Z" transform="translate(0.25 0.25)"/>
    </g>
    <g>
      <path class="cls-6" d="M95,420.1,239.41,358" transform="translate(0.25 0.25)"/>
      <path class="cls-7" d="M233.58,368,244,356l-15.84-.65Z" transform="translate(0.25 0.25)"/>
    </g>
    <g>
      <path class="cls-6" d="M513,161.4,586.5,34.33" transform="translate(0.25 0.25)"/>
      <path class="cls-7" d="M587.79,45.8,589,30l-13.09,8.94Z" transform="translate(0.25 0.25)"/>
    </g>
  </g>
  <g>
    <path class="cls-8" d="M63.09,472.4a10.73,10.73,0,0,0-4-1c-3,0-6.52,3.52-7.24,4.32-1.6,1.88-3.16,7.72-3.16,11.84,0,2.36.48,3.56,1.44,3.56A5,5,0,0,0,53,490a24.31,24.31,0,0,0,7-7.6l-3,16.56a4.86,4.86,0,0,1-1.08,2.28l.36.56a28.78,28.78,0,0,1,3.44-.68,62.88,62.88,0,0,1,.76-6.36l3.44-18.24A33.08,33.08,0,0,1,65,471.76l-.56-.24Zm-10.68,16c-.56,0-.88-.84-.88-2.16,0-3.84,1.72-9.84,3.4-11.84a3.93,3.93,0,0,1,2.92-1,8.9,8.9,0,0,1,3.88,1.08l-.84,3.8C59.73,483.76,54.09,488.36,52.41,488.36Z" transform="translate(0.25 0.25)"/>
    <path class="cls-9" d="M74.72,478.47c-4.34,0-6.55,3.45-6.55,10.22,0,3.28.59,6.11,1.57,7.48A5.2,5.2,0,0,0,74,498.33c4.23,0,6.36-3.64,6.36-10.81C80.38,481.39,78.56,478.47,74.72,478.47Zm-.5,1c2.72,0,3.81,2.75,3.81,9.47,0,6-1.07,8.43-3.64,8.43-2.72,0-3.87-2.83-3.87-9.66C70.52,481.78,71.56,479.45,74.22,479.45Z" transform="translate(0.25 0.25)"/>
  </g>
  <path class="cls-10" d="M112.15,421.38v-3.54H97.75V403.56H94.21v14.28H79.81v3.54h14.4v14.46h3.54V421.38Z" transform="translate(0.25 0.25)"/>
  <g>
    <path class="cls-8" d="M453.42,128.16a10.73,10.73,0,0,0-4-1c-3,0-6.52,3.52-7.24,4.32-1.6,1.88-3.16,7.72-3.16,11.84,0,2.36.48,3.56,1.44,3.56a5,5,0,0,0,2.92-1.2,24.31,24.31,0,0,0,7-7.6l-3,16.56a4.86,4.86,0,0,1-1.08,2.28l.36.56a28.78,28.78,0,0,1,3.44-.68,62.88,62.88,0,0,1,.76-6.36l3.44-18.24a33.08,33.08,0,0,1,1.08-4.72l-.56-.24Zm-10.68,16c-.56,0-.88-.84-.88-2.16,0-3.84,1.72-9.84,3.4-11.84a3.93,3.93,0,0,1,2.92-1,8.9,8.9,0,0,1,3.88,1.08l-.84,3.8C450.06,139.52,444.42,144.12,442.74,144.12Z" transform="translate(0.25 0.25)"/>
    <path class="cls-9" d="M465.05,134.24c-4.34,0-6.55,3.44-6.55,10.22,0,3.27.59,6.1,1.57,7.47a5.17,5.17,0,0,0,4.28,2.16c4.23,0,6.36-3.64,6.36-10.81C470.71,137.15,468.89,134.24,465.05,134.24Zm-.5,1c2.71,0,3.81,2.74,3.81,9.46,0,6-1.07,8.43-3.64,8.43-2.72,0-3.87-2.83-3.87-9.66C460.85,137.54,461.89,135.22,464.55,135.22Z" transform="translate(0.25 0.25)"/>
  </g>
  <path class="cls-10" d="M529.15,163.68v-3.54h-14.4V145.86h-3.54v14.28h-14.4v3.54h14.4v14.46h3.54V163.68Z" transform="translate(0.25 0.25)"/>
  <g>
    <path class="cls-8" d="M39.42,349.64l-2.84-21.12c-.08-.88.08-1.48,1.68-1.52l1.68-.08V325.8l-1.64,0c-1.48,0-2.6.08-3.32.08s-1.84,0-3.32-.08l-1.64,0v1.12l1,.08c1.76.12,2.08.44,2.36,1.92L36.9,353.8h2L54,329c1-1.6,1.32-1.88,2.48-2l.72-.08V325.8l-1.2,0c-1.08,0-2,.08-2.64.08-.4,0-1.48,0-3.12-.08l-1.84,0v1.12l1,.08c1.52.12,2.28.52,2.28,1.28a3.28,3.28,0,0,1-.64,1.68Z" transform="translate(0.25 0.25)"/>
    <path class="cls-9" d="M72.92,359c0,.45-.42.7-1.2.76l-1.23.08v.78c2.85-.08,2.85-.08,3.41-.08s.56,0,3.42.08v-.78l-.73-.08c-1.32-.2-1.34-.2-1.57-1.46l-2.43-17.5H71.3l-10.45,16.6c-1,1.57-1.51,2-2.46,2.24l-.56.14v.84c2.58-.08,2.58-.08,3.14-.08s.58,0,3,.08v-.78l-1.45-.08c-.45,0-.87-.28-.87-.54a4.54,4.54,0,0,1,.73-1.54l2.85-4.9h6.89l.7,5.27v.08A5.72,5.72,0,0,1,72.92,359Zm-2-15.29,1,8.07h-6Z" transform="translate(0.25 0.25)"/>
  </g>
  <g>
    <path class="cls-8" d="M565.42,247.64l-2.84-21.12c-.08-.88.08-1.48,1.68-1.52l1.68-.08V223.8l-1.64,0c-1.48,0-2.6.08-3.32.08s-1.84,0-3.32-.08l-1.64,0v1.12l1,.08c1.76.12,2.08.44,2.36,1.92l3.52,24.88h2L580,227c1-1.6,1.32-1.88,2.48-2l.72-.08V223.8l-1.2,0c-1.08,0-2,.08-2.64.08-.4,0-1.48,0-3.12-.08l-1.84,0v1.12l1,.08c1.52.12,2.28.52,2.28,1.28a3.28,3.28,0,0,1-.64,1.68Z" transform="translate(0.25 0.25)"/>
    <path class="cls-9" d="M598.25,252.17c0-3.08-2.35-3.52-4.65-3.86a8,8,0,0,0,3.17-1.68,5,5,0,0,0,1.93-3.83c0-2.3-1.63-3.64-4.43-3.64l-.75,0-1.77,0c-.33,0-1.34,0-1.68,0-.53,0-1.4,0-2.77-.06l-1.45,0-.09.78,1.49.06c.67,0,1,.25,1,.75a17.72,17.72,0,0,1-.26,2.13L585.54,257c-.11.5-.45.7-1.63.9l-.14.72,1,0c.76-.06,1.18-.06,1.51-.06s1,0,1.77.06l1,0,.56,0c.53,0,.9.06,1.12.06C594,258.7,598.25,256.09,598.25,252.17Zm-10.56,5.21,1.43-8.37h2.38c2.89,0,4.29,1.18,4.29,3.61a4.74,4.74,0,0,1-4.85,5A31.38,31.38,0,0,1,587.69,257.38Zm5.21-17.19c2.27,0,3.39,1,3.39,3.11,0,2.94-2.07,4.7-5.54,4.7h-1.46l1.37-7.67C591.11,240.33,592.26,240.19,592.9,240.19Z" transform="translate(0.25 0.25)"/>
  </g>
  <g>
    <path class="cls-8" d="M227.66,384.68a19.79,19.79,0,0,0,2.52-.16c-4.44,4.8-6.12,8.12-6.12,12.12,0,3.08,1.84,5.28,4.4,5.28,5.52,0,11.64-9.88,11.64-15.8,0-2.28-1-3.92-2.48-3.92a1.85,1.85,0,0,0-1.32.48l-2,1.88.44.76a1.94,1.94,0,0,1,1.08-.36c1.08,0,1.72.92,1.72,2.52,0,5.92-3.88,12.44-7.4,12.44-2,0-3.2-1.68-3.2-4.28,0-4.2,1.56-7.84,5.48-12.72l-.4-.72a5,5,0,0,1-2.44.48c-1.12,0-2.8-.08-4-.2l-.48,0a3,3,0,0,0-.48,0,2.84,2.84,0,0,0-1.28.28,21,21,0,0,0-1.52,4.72h.88l.68-1.68a2.12,2.12,0,0,1,2-1.12C226.78,384.6,226.14,384.68,227.66,384.68Z" transform="translate(0.25 0.25)"/>
    <path class="cls-9" d="M258.05,407c0,.45-.42.7-1.21.76l-1.23.08v.78c2.86-.08,2.86-.08,3.42-.08s.56,0,3.41.08v-.78l-.72-.08c-1.32-.2-1.35-.2-1.57-1.46l-2.44-17.5h-1.29L246,405.39c-1,1.57-1.51,2-2.46,2.24l-.56.14v.84c2.57-.08,2.57-.08,3.13-.08s.59,0,3,.08v-.78l-1.46-.08c-.45,0-.87-.28-.87-.54a4.77,4.77,0,0,1,.73-1.54l2.86-4.9h6.89l.7,5.27v.08A5.72,5.72,0,0,1,258.05,407Zm-2-15.29,1,8.07h-6.05Z" transform="translate(0.25 0.25)"/>
  </g>
  <g>
    <path class="cls-8" d="M594.66,64.68a19.79,19.79,0,0,0,2.52-.16c-4.44,4.8-6.12,8.12-6.12,12.12,0,3.08,1.84,5.28,4.4,5.28,5.52,0,11.64-9.88,11.64-15.8,0-2.28-1-3.92-2.48-3.92a1.85,1.85,0,0,0-1.32.48l-2,1.88.44.76a1.94,1.94,0,0,1,1.08-.36c1.08,0,1.72.92,1.72,2.52,0,5.92-3.88,12.44-7.4,12.44-2,0-3.2-1.68-3.2-4.28,0-4.2,1.56-7.84,5.48-12.72l-.4-.72a5,5,0,0,1-2.44.48c-1.12,0-2.8-.08-4-.2l-.48,0a3,3,0,0,0-.48,0,2.84,2.84,0,0,0-1.28.28,21,21,0,0,0-1.52,4.72h.88l.68-1.68a2.12,2.12,0,0,1,2-1.12C593.78,64.6,593.14,64.68,594.66,64.68Z" transform="translate(0.25 0.25)"/>
    <path class="cls-9" d="M624.38,82.17c0-3.08-2.36-3.52-4.65-3.86a8,8,0,0,0,3.16-1.68,5,5,0,0,0,1.93-3.83c0-2.3-1.62-3.64-4.42-3.64l-.76,0-1.76,0c-.34,0-1.34,0-1.68,0-.53,0-1.4,0-2.77-.06l-1.46,0-.08.78,1.48.06c.67,0,1,.25,1,.75a17.26,17.26,0,0,1-.25,2.13L611.66,87c-.11.5-.44.7-1.62.9l-.14.72,1,0c.75-.06,1.17-.06,1.51-.06s1,0,1.76.06l1,0,.56,0c.53,0,.89.06,1.12.06C620.15,88.7,624.38,86.09,624.38,82.17Zm-10.56,5.21L615.25,79h2.38c2.88,0,4.28,1.18,4.28,3.61a4.73,4.73,0,0,1-4.84,5A31.38,31.38,0,0,1,613.82,87.38ZM619,70.19c2.27,0,3.39,1,3.39,3.11,0,2.94-2.08,4.7-5.55,4.7h-1.45l1.37-7.67C617.24,70.33,618.38,70.19,619,70.19Z" transform="translate(0.25 0.25)"/>
  </g>
</svg>
