<svg id="Livello_1" data-name="Livello 1" xmlns="http://www.w3.org/2000/svg" xmlns:xlink="http://www.w3.org/1999/xlink" width="662.5" height="586.5" viewBox="0 0 662.5 586.5">
  <defs>
    <style>
      .cls-1, .cls-12, .cls-2, .cls-4, .cls-5, .cls-6, .cls-7, .cls-9 {
        fill: none;
      }

      .cls-2, .cls-3 {
        stroke: #d3d3d3;
        stroke-width: 0.5px;
      }

      .cls-3 {
        fill: url(#_.6498535549321369);
      }

      .cls-11, .cls-12, .cls-4, .cls-6, .cls-7, .cls-8, .cls-9 {
        stroke: #000;
      }

      .cls-13, .cls-5 {
        stroke: #4a90e2;
      }

      .cls-5, .cls-7, .cls-9 {
        stroke-width: 3px;
      }

      .cls-6 {
        stroke-width: 4px;
      }

      .cls-7 {
        stroke-dasharray: 9 6;
      }

      .cls-10 {
        fill: red;
        stroke: red;
      }

      .cls-10, .cls-11, .cls-13 {
        stroke-miterlimit: 10;
      }

      .cls-10, .cls-11 {
        stroke-width: 0.32px;
      }

      .cls-12 {
        stroke-width: 2px;
      }

      .cls-13 {
        fill: #4a90e2;
        stroke-width: 0.24px;
      }
    </style>
    <pattern id="_.6498535549321369" data-name=".6498535549321369" width="10" height="10" patternTransform="matrix(1, 0, 0, -1, -2.75, 850.14)" patternUnits="userSpaceOnUse" viewBox="0 0 10 10">
      <rect class="cls-1" width="10" height="10"/>
      <path class="cls-2" d="M10,10H0V0"/>
    </pattern>
  </defs>
  <rect class="cls-3" x="0.25" y="0.25" width="662" height="586"/>
  <g>
    <path class="cls-4" d="M82.26,287.48c0-124.94,78.13-226.22,174.52-226.22S431.31,162.54,431.31,287.48,353.17,513.7,256.78,513.7,82.26,412.42,82.26,287.48Z" transform="translate(0.25 0.25)"/>
    <path class="cls-5" d="M126.75,294.17C126.75,196.29,188,117,263.47,117S400.2,196.29,400.2,294.17,339,471.39,263.47,471.39,126.75,392.05,126.75,294.17Z" transform="translate(0.25 0.25)"/>
    <g>
      <path class="cls-6" d="M19,297.21H641.8" transform="translate(0.25 0.25)"/>
      <path d="M630.83,305.36l17-8.15-17-8.15Z" transform="translate(0.25 0.25)"/>
    </g>
    <path class="cls-7" d="M158.38,102.56,258,293" transform="translate(0.25 0.25)"/>
    <path class="cls-7" d="M257,134.49,548.07,294.78" transform="translate(0.25 0.25)"/>
    <path class="cls-8" d="M541.38,294.78a6.69,6.69,0,1,1,6.69,6.69A6.69,6.69,0,0,1,541.38,294.78Z" transform="translate(0.25 0.25)"/>
    <path class="cls-9" d="M239.6,117.11h34.75v34.75H239.6Z" transform="translate(0.25 0.25)"/>
    <path class="cls-8" d="M250.1,294.17a6.69,6.69,0,1,1,6.68,6.69A6.69,6.69,0,0,1,250.1,294.17Z" transform="translate(0.25 0.25)"/>
    <path class="cls-5" d="M153,294.17c0-79.11,49.48-143.24,110.51-143.24S374,215.06,374,294.17,324.51,437.41,263.47,437.41,153,373.28,153,294.17Z" transform="translate(0.25 0.25)"/>
    <path class="cls-7" d="M258,150.43V293" transform="translate(0.25 0.25)"/>
    <path class="cls-6" d="M313.72,422.81l23.4-23.41" transform="translate(0.25 0.25)"/>
    <path class="cls-6" d="M337.12,444.09l23.41-23.41" transform="translate(0.25 0.25)"/>
    <path class="cls-6" d="M325.42,411.1l23.41,21.28" transform="translate(0.25 0.25)"/>
    <g>
      <path class="cls-9" d="M413.73,517.5c-39.62,59.43-131.36-31.34-90-81.06" transform="translate(0.25 0.25)"/>
      <path d="M321.4,448.46l5.09-15-14.9,5.42Z" transform="translate(0.25 0.25)"/>
    </g>
  </g>
  <path class="cls-10" d="M337.78,157.91v-2.36h-9.6V146h-2.36v9.52h-9.6v2.36h9.6v9.64h2.36v-9.64Z" transform="translate(0.25 0.25)"/>
  <path class="cls-10" d="M221.22,91.94V89.58h-9.6V80.06h-2.36v9.52h-9.6v2.36h9.6v9.64h2.36V91.94Z" transform="translate(0.25 0.25)"/>
  <path class="cls-10" d="M218.8,264.91v-2.36h-9.6V253h-2.36v9.52h-9.6v2.36h9.6v9.64h2.36v-9.64Z" transform="translate(0.25 0.25)"/>
  <path class="cls-10" d="M383.43,158.36V156h-9.6v-9.52h-2.36V156h-9.6v2.36h9.6V168h2.36v-9.64Z" transform="translate(0.25 0.25)"/>
  <path class="cls-10" d="M383.58,225.09v-2.36H374v-9.52h-2.36v9.52H362v2.36h9.6v9.64H374v-9.64Z" transform="translate(0.25 0.25)"/>
  <path class="cls-10" d="M335.86,257.8v-2.36h-9.6v-9.52H323.9v9.52h-9.6v2.36h9.6v9.64h2.36V257.8Z" transform="translate(0.25 0.25)"/>
  <path class="cls-10" d="M394.53,341.27v-2.36h-9.6v-9.52h-2.36v9.52H373v2.36h9.6v9.64h2.36v-9.64Z" transform="translate(0.25 0.25)"/>
  <path class="cls-10" d="M391.19,417.13v-2.36h-9.6v-9.52h-2.36v9.52h-9.6v2.36h9.6v9.63h2.36v-9.63Z" transform="translate(0.25 0.25)"/>
  <path class="cls-10" d="M324.3,332.92v-2.36h-9.6V321h-2.36v9.52h-9.6v2.36h9.6v9.64h2.36v-9.64Z" transform="translate(0.25 0.25)"/>
  <path class="cls-10" d="M223.22,438.27v-2.36h-9.6v-9.52h-2.36v9.52h-9.6v2.36h9.6v9.64h2.36v-9.64Z" transform="translate(0.25 0.25)"/>
  <path class="cls-10" d="M285.83,490.11v-2.36h-9.6v-9.52h-2.36v9.52h-9.6v2.36h9.6v9.64h2.36v-9.64Z" transform="translate(0.25 0.25)"/>
  <path class="cls-10" d="M214.38,369.11v-2.36h-9.6v-9.52h-2.36v9.52h-9.6v2.36h9.6v9.64h2.36v-9.64Z" transform="translate(0.25 0.25)"/>
  <path class="cls-10" d="M163.3,444.34V442h-9.6v-9.52h-2.36V442h-9.6v2.36h9.6V454h2.36v-9.64Z" transform="translate(0.25 0.25)"/>
  <path class="cls-10" d="M154.78,250.84v-2.36h-9.6V239h-2.36v9.52h-9.6v2.36h9.6v9.64h2.36v-9.64Z" transform="translate(0.25 0.25)"/>
  <path class="cls-10" d="M118.44,339.44v-2.36h-9.6v-9.52h-2.36v9.52h-9.6v2.36h9.6v9.64h2.36v-9.64Z" transform="translate(0.25 0.25)"/>
  <path class="cls-10" d="M148.69,158.38V156h-9.6V146.5h-2.36V156h-9.6v2.36h9.6V168h2.36v-9.63Z" transform="translate(0.25 0.25)"/>
  <path class="cls-10" d="M113.43,259.17v-2.36h-9.6v-9.52h-2.36v9.52h-9.6v2.36h9.6v9.64h2.36v-9.64Z" transform="translate(0.25 0.25)"/>
  <path class="cls-10" d="M429.19,265.86V263.5h-9.6V254h-2.36v9.52h-9.6v2.36h9.6v9.64h2.36v-9.64Z" transform="translate(0.25 0.25)"/>
  <path class="cls-11" d="M261.21,73.29l-.48-.44a15.67,15.67,0,0,1-6.4,1.68l-.16.84h1.92c1,0,1.36.28,1.36,1a7.17,7.17,0,0,1-.08,1l-1.12,6.16a11.51,11.51,0,0,0-3.28-.56c-2.76,0-6.52,2.88-8.36,6.36a22.1,22.1,0,0,0-2,9.48c0,2.6.6,3.88,1.76,3.88a7.13,7.13,0,0,0,3.92-1.76c2.16-1.76,3.48-3.32,6.16-7.36l-.92,3.64a17.31,17.31,0,0,0-.64,4.08c0,.84.36,1.32,1,1.32a6,6,0,0,0,3-1.48l3.24-2.4-.4-.76L258,99.13a3.35,3.35,0,0,1-1.56.68c-.32,0-.56-.36-.56-.92a7.75,7.75,0,0,1,.32-1.84ZM246.45,99.81c-.64,0-1-.56-1-1.56,0-5,1.84-11.28,3.8-12.8a3.79,3.79,0,0,1,2.36-.6,8.4,8.4,0,0,1,4.24.92l-.48,2.36C253.89,95.33,248.25,99.81,246.45,99.81Zm30.8-16a10.73,10.73,0,0,0-4-1c-3,0-6.52,3.52-7.24,4.32-1.6,1.88-3.16,7.72-3.16,11.84,0,2.36.48,3.56,1.44,3.56a5,5,0,0,0,2.92-1.2,24.31,24.31,0,0,0,7-7.6l-3,16.56a4.86,4.86,0,0,1-1.08,2.28l.36.56a28.78,28.78,0,0,1,3.44-.68,62.88,62.88,0,0,1,.76-6.36l3.44-18.24a33.08,33.08,0,0,1,1.08-4.72l-.56-.24Zm-10.68,16c-.56,0-.88-.84-.88-2.16,0-3.84,1.72-9.84,3.4-11.84a3.93,3.93,0,0,1,2.92-1,8.9,8.9,0,0,1,3.88,1.08l-.84,3.8C273.89,95.21,268.25,99.81,266.57,99.81Z" transform="translate(0.25 0.25)"/>
  <path class="cls-11" d="M450.51,185.51l-.48-.44a15.67,15.67,0,0,1-6.4,1.68l-.16.84h1.92c1,0,1.36.28,1.36,1a7.17,7.17,0,0,1-.08,1l-1.12,6.16a11.51,11.51,0,0,0-3.28-.56c-2.76,0-6.52,2.88-8.36,6.36a22.1,22.1,0,0,0-2,9.48c0,2.6.6,3.88,1.76,3.88a7.13,7.13,0,0,0,3.92-1.76c2.16-1.76,3.48-3.32,6.16-7.36l-.92,3.64a17.31,17.31,0,0,0-.64,4.08c0,.84.36,1.32,1,1.32a6,6,0,0,0,3-1.48l3.24-2.4-.4-.76-1.76,1.24a3.35,3.35,0,0,1-1.56.68c-.32,0-.56-.36-.56-.92a7.75,7.75,0,0,1,.32-1.84ZM435.75,212c-.64,0-1-.56-1-1.56,0-5,1.84-11.28,3.8-12.8a3.79,3.79,0,0,1,2.36-.6,8.4,8.4,0,0,1,4.24.92l-.48,2.36C443.19,207.55,437.55,212,435.75,212Z" transform="translate(0.25 0.25)"/>
  <path class="cls-11" d="M185.32,211.69l2.24.08c1,0,1.4.36,1.4,1.08a24.69,24.69,0,0,1-.36,3l-3,17.36c-.64,3.64-.72,3.72-2.32,3.88l-1.64.12-.16,1.12,1.68,0c1.88-.08,2.64-.08,3.6-.08l3.88.12h1l.12-1.12-2-.12c-1.08-.08-1.44-.4-1.44-1.2a7.75,7.75,0,0,1,.16-1.4l4-22.2a13.56,13.56,0,0,1,3-.32c3.48,0,5.32,1.56,5.32,4.52,0,3.8-3.12,6.6-7.28,6.6h-1.76l-.12.44c5.36,7.8,6.6,9.72,9.6,14.8l3.4-.12s.6,0,1.36.12h.52v-1.08c-1.6-.2-2-.52-3.2-2.2l-7.36-11a10.28,10.28,0,0,0,4.8-1.92,7.76,7.76,0,0,0,3.56-6.32c0-3.44-2.56-5.32-7-5.24h-12Z" transform="translate(0.25 0.25)"/>
  <path class="cls-11" d="M539.65,317.35l2.2.08c1,0,1.4.36,1.4,1.08l-3.32,20.4c-.68,3.64-.72,3.76-2.32,3.88l-1.64.12-.16,1.12,1.68,0c1.64,0,2.88-.08,3.6-.08s1.84,0,3.44.08l2.12,0,.12-1.12-2.6-.12c-1,0-1.44-.36-1.44-1.2a8.55,8.55,0,0,1,.16-1.4l3.92-22.2a16.23,16.23,0,0,1,2.84-.32c4.08,0,6,1.76,6,5.48,0,4.32-2.88,7.84-6.4,7.84a8.56,8.56,0,0,1-3.16-.76l.08,1.24a6.94,6.94,0,0,0,3.44.92c5.16,0,9.56-4.68,9.56-10.12,0-4-2.52-6.16-7.28-6H539.77Z" transform="translate(0.25 0.25)"/>
  <path class="cls-11" d="M250.51,326.61c0-7.12-4.16-11.24-11.36-11.24-9.48,0-16.44,7.32-16.44,17.36,0,7.56,3.76,11.6,10.8,11.6C244.39,344.33,250.51,335.33,250.51,326.61Zm-3.52.64c0,7.52-3.56,15.4-12,15.4-5.76,0-8.76-3.44-8.76-10.12,0-5.92,2.32-15.48,11.68-15.48C242.55,317.05,247,319.21,247,327.25Z" transform="translate(0.25 0.25)"/>
  <g>
    <path class="cls-11" d="M622.94,342.69a3.88,3.88,0,0,0,1.72.48c1.32,0,2.88-1.16,4.12-3l3-4.68.44,2.76c.52,3.4,1.44,5,2.88,5a6.07,6.07,0,0,0,3.44-1.84l2-1.76-.36-.76c-1.44,1.2-2.44,1.8-3.08,1.8s-1.12-.4-1.52-1.2a15.69,15.69,0,0,1-1-3.4l-.72-4,1.4-2c1.88-2.6,3-3.52,4.2-3.52a1.3,1.3,0,0,1,1.32.92l.56-.16.6-3.4a2.35,2.35,0,0,0-1.2-.4c-1.6,0-3.2,1.44-5.68,5.12l-1.48,2.2-.24-1.92c-.48-4-1.56-5.4-3.92-5.4a2.81,2.81,0,0,0-2.28.84l-2.32,3.32.68.4c1.2-1.36,2-1.92,2.76-1.92,1.32,0,2.2,1.64,2.88,5.56l.44,2.48-1.6,2.48c-1.72,2.68-3.08,4-4.2,4-.6,0-1-.16-1.12-.36l-.44-1.12-.8.12A19.74,19.74,0,0,1,622.94,342.69Z" transform="translate(0.25 0.25)"/>
    <polyline class="cls-12" points="622.83 316.75 632.81 310.09 642.8 316.75"/>
  </g>
  <path class="cls-10" d="M162.22,357.25v-2.36h-9.6v-9.52h-2.36v9.52h-9.6v2.36h9.6v9.64h2.36v-9.64Z" transform="translate(0.25 0.25)"/>
  <path class="cls-10" d="M297.53,455v-2.36h-9.6V443.1h-2.36v9.52H276V455h9.6v9.64h2.36V455Z" transform="translate(0.25 0.25)"/>
  <path class="cls-10" d="M287.07,391.45v-2.36h-9.6v-9.52h-2.36v9.52h-9.6v2.36h9.6v9.64h2.36v-9.64Z" transform="translate(0.25 0.25)"/>
  <path class="cls-10" d="M242.24,185.44v-2.36h-9.6v-9.52h-2.36v9.52h-9.6v2.36h9.6v9.64h2.36v-9.64Z" transform="translate(0.25 0.25)"/>
  <path class="cls-10" d="M320.1,104.86V102.5h-9.6V93h-2.36v9.52h-9.6v2.36h9.6v9.64h2.36v-9.64Z" transform="translate(0.25 0.25)"/>
  <path class="cls-10" d="M270.64,133.89v-2.36H261V122h-2.36v9.52h-9.6v2.36h9.6v9.64H261v-9.64Z" transform="translate(0.25 0.25)"/>
  <path class="cls-10" d="M181.57,186.17v-2.36H172v-9.52h-2.36v9.52H160v2.36h9.6v9.64H172v-9.64Z" transform="translate(0.25 0.25)"/>
  <path class="cls-11" d="M283.8,198.12a37.1,37.1,0,0,1,.64-4.44,1.8,1.8,0,0,0-.8-.24c-1.24,0-2.48,1-3.92,3a49.32,49.32,0,0,0-3.76,6l1.28-6.08a7.33,7.33,0,0,0,.24-1.68c0-.8-.32-1.28-.92-1.28-.84,0-2.36.84-5.32,3l-1.12.8.28.8,1.28-.84c1.12-.72,1.56-.92,1.92-.92s.68.36.68.88c0,2.32-1.72,10.56-3.32,15.68l.4.28a21.74,21.74,0,0,1,2.16-.52l.52-.08,1-4.8a17.52,17.52,0,0,1,3.4-7.72c1.36-1.76,2.44-2.6,3.32-2.6a1.65,1.65,0,0,1,1.44.76Z" transform="translate(0.25 0.25)"/>
  <path class="cls-13" d="M414.62,500.58a26.59,26.59,0,0,1-.66,4,7.36,7.36,0,0,0,3.21.81,6.94,6.94,0,0,0,4.38-1.74,4.57,4.57,0,0,0,2.16-3.81c0-1.62-1-2.49-3.18-2.91l-1.29-.24c-1.8-.33-2.37-.84-2.37-2.07a2.91,2.91,0,0,1,3.06-2.82,3.33,3.33,0,0,1,2.85,1.35v1.65h.69a30.54,30.54,0,0,1,.57-3.39,6.45,6.45,0,0,0-3-.81,7.34,7.34,0,0,0-4.83,2.34,3.47,3.47,0,0,0-1.11,2.64c0,1.68.93,2.64,2.91,3l1.89.36c1.32.24,1.8.78,1.8,1.95a3.2,3.2,0,0,1-3.51,3.27,4.17,4.17,0,0,1-2.82-1v-2.52Zm16,4.77c1.68,0,5.13-2.19,6.42-4.08a15.52,15.52,0,0,0,2.25-7.38c0-2-.69-3.33-1.77-3.33a7.24,7.24,0,0,0-4.41,2.19,12.58,12.58,0,0,0-2.91,3.6l.72-3.57a8.06,8.06,0,0,0,.15-1.32c0-.57-.24-.9-.66-.9-.63,0-1.77.63-4,2.22l-.84.6.21.6,1-.63c.84-.54,1.17-.69,1.44-.69s.51.27.51.69a8.2,8.2,0,0,1-.12,1.14l-1.74,10.29c-.3,1.8-.87,4.53-1.47,7.23l-.24,1.11.21.18a12.54,12.54,0,0,1,2.19-.51l1.26-7.86A6.38,6.38,0,0,0,430.61,505.35Zm-1-5.28c.66-3.84,3.87-7.77,6.36-7.77.78,0,1.14.66,1.14,2a16.64,16.64,0,0,1-2.79,8.28,3.2,3.2,0,0,1-2.79,1.32,4.42,4.42,0,0,1-2.46-.69Zm20.52,1.62-.72.51a7.79,7.79,0,0,1-4.11,1.74c-1.41,0-2.28-1.11-2.28-2.91a14.46,14.46,0,0,1,.24-2.43c.51-.12,3.78-1,4.53-1.35,2.55-1.11,3.72-2.49,3.72-4.35a2.3,2.3,0,0,0-2.52-2.34c-2-.42-5.34,1.77-6.45,4a18,18,0,0,0-1.8,7.08c0,2.34,1.32,3.72,3.48,3.72,1.71,0,3.39-.84,6.15-3.09Zm-6.45-4.89c.51-2.07,1.11-3.36,2-4.14a3.67,3.67,0,0,1,2.19-.84,1.4,1.4,0,0,1,1.44,1.56,4.24,4.24,0,0,1-2.61,3.48,14.46,14.46,0,0,1-3.27,1.05Zm9.18,3.78a26.59,26.59,0,0,1-.66,4,7.36,7.36,0,0,0,3.21.81,6.94,6.94,0,0,0,4.38-1.74A4.57,4.57,0,0,0,462,499.8c0-1.62-1-2.49-3.18-2.91l-1.29-.24c-1.8-.33-2.37-.84-2.37-2.07a2.91,2.91,0,0,1,3.06-2.82,3.33,3.33,0,0,1,2.85,1.35v1.65h.69a30.54,30.54,0,0,1,.57-3.39,6.45,6.45,0,0,0-3-.81,7.34,7.34,0,0,0-4.83,2.34,3.47,3.47,0,0,0-1.11,2.64c0,1.68.93,2.64,2.91,3l1.89.36c1.32.24,1.8.78,1.8,1.95a3.2,3.2,0,0,1-3.51,3.27,4.17,4.17,0,0,1-2.82-1v-2.52Zm11.64,0a26.59,26.59,0,0,1-.66,4,7.36,7.36,0,0,0,3.21.81,6.94,6.94,0,0,0,4.38-1.74,4.57,4.57,0,0,0,2.16-3.81c0-1.62-1-2.49-3.18-2.91l-1.29-.24c-1.8-.33-2.37-.84-2.37-2.07a2.91,2.91,0,0,1,3.06-2.82,3.33,3.33,0,0,1,2.85,1.35v1.65h.69a30.54,30.54,0,0,1,.57-3.39,6.45,6.45,0,0,0-3-.81,7.34,7.34,0,0,0-4.83,2.34,3.47,3.47,0,0,0-1.11,2.64c0,1.68.93,2.64,2.91,3l1.89.36c1.32.24,1.8.78,1.8,1.95a3.2,3.2,0,0,1-3.51,3.27,4.17,4.17,0,0,1-2.82-1v-2.52Zm11.22-.12c0,3.18,1.35,4.89,3.84,4.89a7.33,7.33,0,0,0,4.8-2,12.22,12.22,0,0,0,3.18-8.22c0-2.82-1.5-4.53-4-4.53C480.44,490.56,475.73,493.56,475.73,500.46Zm6.72-8.76c1.83,0,2.82,1.35,2.82,3.87,0,2.88-.93,6.06-2.25,7.65a2.88,2.88,0,0,1-2.25,1c-1.74,0-2.76-1.35-2.76-3.72,0-3.39,1.17-7.08,2.64-8.28A2.92,2.92,0,0,1,482.45,491.7Zm17.1,2.37a27.83,27.83,0,0,1,.48-3.33,1.35,1.35,0,0,0-.6-.18c-.93,0-1.86.72-2.94,2.25a37,37,0,0,0-2.82,4.53l1-4.56a5.5,5.5,0,0,0,.18-1.26c0-.6-.24-1-.69-1-.63,0-1.77.63-4,2.22l-.84.6.21.6,1-.63c.84-.54,1.17-.69,1.44-.69s.51.27.51.66a64,64,0,0,1-2.49,11.76l.3.21a16.3,16.3,0,0,1,1.62-.39l.39-.06.78-3.6a13.14,13.14,0,0,1,2.55-5.79c1-1.32,1.83-1.95,2.49-1.95a1.24,1.24,0,0,1,1.08.57ZM510,501.69l-.72.51a7.79,7.79,0,0,1-4.11,1.74c-1.41,0-2.28-1.11-2.28-2.91a14.46,14.46,0,0,1,.24-2.43c.51-.12,3.78-1,4.53-1.35,2.55-1.11,3.72-2.49,3.72-4.35a2.3,2.3,0,0,0-2.52-2.34c-2-.42-5.34,1.77-6.45,4a18,18,0,0,0-1.8,7.08c0,2.34,1.32,3.72,3.48,3.72,1.71,0,3.39-.84,6.15-3.09Zm-6.45-4.89c.51-2.07,1.11-3.36,2-4.14a3.67,3.67,0,0,1,2.19-.84,1.4,1.4,0,0,1,1.44,1.56,4.24,4.24,0,0,1-2.61,3.48,14.46,14.46,0,0,1-3.27,1.05Zm30.21-13.44-.36-.33a11.75,11.75,0,0,1-4.8,1.26l-.12.63h1.44c.72,0,1,.21,1,.72a5.37,5.37,0,0,1-.06.72L530,491a8.63,8.63,0,0,0-2.46-.42c-2.07,0-4.89,2.16-6.27,4.77a16.57,16.57,0,0,0-1.53,7.11c0,1.95.45,2.91,1.32,2.91A5.35,5.35,0,0,0,524,504a21.22,21.22,0,0,0,4.62-5.52l-.69,2.73a13,13,0,0,0-.48,3.06c0,.63.27,1,.78,1a4.53,4.53,0,0,0,2.25-1.11l2.43-1.8-.3-.57-1.32.93a2.51,2.51,0,0,1-1.17.51c-.24,0-.42-.27-.42-.69a5.82,5.82,0,0,1,.24-1.38Zm-11.07,19.89c-.48,0-.75-.42-.75-1.17,0-3.78,1.38-8.46,2.85-9.6a2.84,2.84,0,0,1,1.77-.45,6.3,6.3,0,0,1,3.18.69l-.36,1.77C528.26,499.89,524,503.25,522.68,503.25Zm22.59-9.18a27.83,27.83,0,0,1,.48-3.33,1.35,1.35,0,0,0-.6-.18c-.93,0-1.86.72-2.94,2.25a37,37,0,0,0-2.82,4.53l1-4.56a5.5,5.5,0,0,0,.18-1.26c0-.6-.24-1-.69-1-.63,0-1.77.63-4,2.22l-.84.6.21.6,1-.63c.84-.54,1.17-.69,1.44-.69s.51.27.51.66a64,64,0,0,1-2.49,11.76l.3.21a16.3,16.3,0,0,1,1.62-.39l.39-.06.78-3.6a13.14,13.14,0,0,1,2.55-5.79c1-1.32,1.83-1.95,2.49-1.95a1.24,1.24,0,0,1,1.08.57Z" transform="translate(0.25 0.25)"/>
  <path class="cls-11" d="M439.94,346a3.88,3.88,0,0,0,1.72.48c1.32,0,2.88-1.16,4.12-3l3-4.68.44,2.76c.52,3.4,1.44,5,2.88,5a6.07,6.07,0,0,0,3.44-1.84l2-1.76-.36-.76c-1.44,1.2-2.44,1.8-3.08,1.8s-1.12-.4-1.52-1.2a15.69,15.69,0,0,1-1-3.4l-.72-4,1.4-2c1.88-2.6,3-3.52,4.2-3.52a1.3,1.3,0,0,1,1.32.92l.56-.16.6-3.4a2.35,2.35,0,0,0-1.2-.4c-1.6,0-3.2,1.44-5.68,5.12l-1.48,2.2-.24-1.92c-.48-4-1.56-5.4-3.92-5.4a2.81,2.81,0,0,0-2.28.84l-2.32,3.32.68.4c1.2-1.36,2-1.92,2.76-1.92,1.32,0,2.2,1.64,2.88,5.56l.44,2.48-1.6,2.48c-1.72,2.68-3.08,4-4.2,4-.6,0-1-.16-1.12-.36l-.44-1.12-.8.12A19.74,19.74,0,0,1,439.94,346Z" transform="translate(0.25 0.25)"/>
</svg>
