<svg id="Livello_1" data-name="Livello 1" xmlns="http://www.w3.org/2000/svg" xmlns:xlink="http://www.w3.org/1999/xlink" width="662.5" height="732.5" viewBox="0 0 662.5 732.5">
  <defs>
    <style>
      .cls-1, .cls-14, .cls-2, .cls-4, .cls-5, .cls-6, .cls-7 {
        fill: none;
      }

      .cls-2, .cls-3 {
        stroke: #d3d3d3;
        stroke-width: 0.5px;
      }

      .cls-3 {
        fill: url(#_.6498535549321369);
      }

      .cls-13, .cls-14, .cls-15, .cls-4, .cls-5, .cls-6, .cls-9 {
        stroke: #000;
      }

      .cls-4, .cls-7 {
        stroke-width: 4px;
      }

      .cls-6 {
        stroke-width: 3px;
      }

      .cls-12, .cls-7 {
        stroke: red;
      }

      .cls-12, .cls-8 {
        fill: red;
      }

      .cls-10, .cls-11, .cls-12, .cls-13, .cls-15, .cls-9 {
        stroke-miterlimit: 10;
      }

      .cls-10, .cls-11, .cls-12, .cls-9 {
        stroke-width: 0.4px;
      }

      .cls-10 {
        fill: #ff001f;
        stroke: #ff001f;
      }

      .cls-11 {
        fill: #4a90e2;
        stroke: #4a90e2;
      }

      .cls-13 {
        stroke-width: 0.32px;
      }

      .cls-14 {
        stroke-width: 2px;
      }

      .cls-15 {
        stroke-width: 0.22px;
      }
    </style>
    <pattern id="_.6498535549321369" data-name=".6498535549321369" width="10" height="10" patternTransform="matrix(1, 0, 0, -1, -2.75, 847.14)" patternUnits="userSpaceOnUse" viewBox="0 0 10 10">
      <rect class="cls-1" width="10" height="10"/>
      <path class="cls-2" d="M10,10H0V0"/>
    </pattern>
  </defs>
  <rect class="cls-3" x="0.25" y="0.25" width="662" height="732"/>
  <g>
    <g>
      <path class="cls-4" d="M64,483.87H611" transform="translate(0.25 0.25)"/>
      <path d="M600,492l17-8.15-17-8.15Z" transform="translate(0.25 0.25)"/>
    </g>
    <path class="cls-5" d="M121.73,54.43h70.9V444.37h-70.9Z" transform="translate(0.25 0.25)"/>
    <path class="cls-5" d="M475.21,52.41H546.1V442.34H475.21Z" transform="translate(0.25 0.25)"/>
    <path class="cls-6" d="M161.23,457.53v53.68" transform="translate(0.25 0.25)"/>
    <path class="cls-6" d="M509.64,461.58v53.68" transform="translate(0.25 0.25)"/>
    <g>
      <path class="cls-7" d="M212.88,397.78H450" transform="translate(0.25 0.25)"/>
      <path class="cls-8" d="M439,405.93l17-8.15-17-8.15Z" transform="translate(0.25 0.25)"/>
    </g>
    <g>
      <path class="cls-7" d="M211.87,344.1H449" transform="translate(0.25 0.25)"/>
      <path class="cls-8" d="M438,352.25l17-8.15L438,336Z" transform="translate(0.25 0.25)"/>
    </g>
    <g>
      <path class="cls-7" d="M213.9,265.1H451" transform="translate(0.25 0.25)"/>
      <path class="cls-8" d="M440,273.25l17-8.15L440,257Z" transform="translate(0.25 0.25)"/>
    </g>
    <g>
      <path class="cls-7" d="M212.88,191.16H450" transform="translate(0.25 0.25)"/>
      <path class="cls-8" d="M439,199.31l17-8.15L439,183Z" transform="translate(0.25 0.25)"/>
    </g>
    <g>
      <path class="cls-7" d="M215.92,108.11H453" transform="translate(0.25 0.25)"/>
      <path class="cls-8" d="M442,116.26l17-8.15L442,100Z" transform="translate(0.25 0.25)"/>
    </g>
  </g>
  <path class="cls-9" d="M176.59,535.28c0-8.9-5.2-14-14.2-14-11.85,0-20.55,9.15-20.55,21.7,0,9.45,4.7,14.5,13.5,14.5C168.94,557.43,176.59,546.18,176.59,535.28Zm-4.4.8c0,9.4-4.45,19.25-15,19.25-7.2,0-10.95-4.3-10.95-12.65,0-7.4,2.9-19.35,14.6-19.35C166.64,523.33,172.19,526,172.19,536.08Z" transform="translate(0.25 0.25)"/>
  <path class="cls-9" d="M321.05,494.09l-.6-.55a20,20,0,0,1-8,2.1l-.2,1.05h2.4c.9,0,1.7.15,1.7,1.15a6.18,6.18,0,0,1-.1,1.25l-2.1,11.7a182,182,0,0,1-4.4,19.3l.35.55,3.45-.8c.4-2.85,1.1-7.85,3.1-11.45,2.25-4,7.4-8.9,9.5-8.9a1,1,0,0,1,1.1,1.05,21,21,0,0,1-.75,4.5l-2.55,9.8a15.91,15.91,0,0,0-.65,3.8c0,1.25.5,2,1.55,2,1.6,0,5-2.5,7.95-4.7l-.5-.9-1.3.85a8.74,8.74,0,0,1-3.05,1.5c-.35,0-.65-.45-.65-1a8,8,0,0,1,.35-2l3.2-12.8a17,17,0,0,0,.55-3.75c0-.85-.3-1.75-1.6-1.75-1.75,0-5.6,2.25-9,5.4a46.34,46.34,0,0,0-4.35,5l-.2-.1Z" transform="translate(0.25 0.25)"/>
  <path class="cls-9" d="M584.18,534.2a4.85,4.85,0,0,0,2.15.6c1.65,0,3.6-1.45,5.15-3.8l3.8-5.85.55,3.45c.65,4.25,1.8,6.2,3.6,6.2,1.1,0,2.7-.85,4.3-2.3l2.45-2.2-.45-.95c-1.8,1.5-3.05,2.25-3.85,2.25s-1.4-.5-1.9-1.5a19.61,19.61,0,0,1-1.25-4.25l-.9-5.05,1.75-2.45c2.35-3.25,3.7-4.4,5.25-4.4a1.62,1.62,0,0,1,1.65,1.15l.7-.2.75-4.25a2.94,2.94,0,0,0-1.5-.5c-2,0-4,1.8-7.1,6.4l-1.85,2.75-.3-2.4c-.6-4.95-1.95-6.75-4.9-6.75a3.51,3.51,0,0,0-2.85,1.05l-2.9,4.15.85.5c1.5-1.7,2.5-2.4,3.45-2.4,1.65,0,2.75,2,3.6,6.95l.55,3.1-2,3.1c-2.15,3.35-3.85,4.95-5.25,4.95-.75,0-1.3-.2-1.4-.45l-.55-1.4-1,.15A24.68,24.68,0,0,1,584.18,534.2Z" transform="translate(0.25 0.25)"/>
  <path class="cls-10" d="M171.37,397.62v-2.95h-12v-11.9h-3v11.9h-12v2.95h12v12.05h3V397.62Z" transform="translate(0.25 0.25)"/>
  <path class="cls-10" d="M171.37,341.92V339h-12v-11.9h-3V339h-12v2.95h12V354h3V341.92Z" transform="translate(0.25 0.25)"/>
  <path class="cls-10" d="M171.37,266V263h-12V251.1h-3V263h-12V266h12V278h3V266Z" transform="translate(0.25 0.25)"/>
  <path class="cls-10" d="M172.39,196.06v-2.95h-12v-11.9h-2.95v11.9h-12v2.95h12v12.05h2.95V196.06Z" transform="translate(0.25 0.25)"/>
  <path class="cls-10" d="M172.39,114v-3h-12V99.18h-2.95v11.9h-12v3h12v12h2.95V114Z" transform="translate(0.25 0.25)"/>
  <path class="cls-11" d="M522.39,102.79V100h-25.2v2.8Z" transform="translate(0.25 0.25)"/>
  <path class="cls-11" d="M522.39,187.87v-2.8h-25.2v2.8Z" transform="translate(0.25 0.25)"/>
  <path class="cls-11" d="M525.42,257.74v-2.8h-25.2v2.8Z" transform="translate(0.25 0.25)"/>
  <path class="cls-11" d="M525.42,335.74v-2.8h-25.2v2.8Z" transform="translate(0.25 0.25)"/>
  <path class="cls-11" d="M527.45,398.52v-2.8h-25.2v2.8Z" transform="translate(0.25 0.25)"/>
  <g>
    <path class="cls-12" d="M324.39,75.85h5.85l6.6.2,1-2.25-.2-.35c-4,.2-7,.3-10.95.3h-1.85l2.35-13.5c1.6,0,5.75-.2,6.85-.2,3.1,0,5.15.45,5.2,1.2l.4,4.45h1.2a33.79,33.79,0,0,1,1-7.6c-1-.1-2.55-.15-3.45-.15-.15,0-.7,0-1.9,0l-6,0c-.45.05-9.15,0-9.65,0l-2.25,0-.15,1.4,2.7.1c1.2,0,1.75.45,1.75,1.35a30.86,30.86,0,0,1-.45,3.8l-4.35,25.2c-.2.9-.8,1.25-3,1.6l-.25,1.3,2.05,0c1.55-.05,4.65-.1,5.65-.1l11.25.15c.7,0,1.95,0,3.6-.1l1.65,0,.2-1.8c.1-1,.35-2.5.8-5l.25-1.3h-1.35l-.8,3c-.5,1.8-.95,2.4-2.05,2.65a57.86,57.86,0,0,1-7.35.45,67.13,67.13,0,0,1-6.85-.35Z" transform="translate(0.25 0.25)"/>
    <path class="cls-8" d="M346.34,39.82l-9.27-9.77-1.44,1.53,5.67,6.84h-.45v2.66h.45l-5.67,6.84,1.44,1.53Zm-28,1.12H345V38.28h-26.7Z" transform="translate(0.25 0.25)"/>
  </g>
  <path class="cls-12" d="M154.75,41.77c8,0,13-5.75,13.15-13.6.1-4.3-1.2-5.2-4.45-7.35v-.15a57.71,57.71,0,0,0,8.3-.2,15.28,15.28,0,0,0,.65-3.15c-2,1.05-8,.35-10.55.85-8.15,1.65-14.25,6.4-14.25,15.2C147.6,38.62,149.15,41.77,154.75,41.77Zm9.8-14.1c0,4.95-1.9,12.7-8.2,12.7-4.6,0-5-4.95-4.95-8.45,0-5.5,1.95-11.5,8.5-11.5C164.15,20.42,164.55,24.62,164.55,27.67Z" transform="translate(0.25 0.25)"/>
  <g>
    <path class="cls-11" d="M507.38,25.83V23h-25.2v2.8Z" transform="translate(0.25 0.25)"/>
    <path class="cls-11" d="M518.43,38.73c8,0,13-5.75,13.15-13.6.1-4.3-1.2-5.2-4.45-7.35v-.15a57.71,57.71,0,0,0,8.3-.2,15.28,15.28,0,0,0,.65-3.15c-2,1.05-8,.35-10.55.85-8.15,1.65-14.25,6.4-14.25,15.2C511.28,35.58,512.83,38.73,518.43,38.73Zm9.8-14.1c0,4.95-1.9,12.7-8.2,12.7-4.6,0-5-4.95-4.95-8.45,0-5.5,1.95-11.5,8.5-11.5C527.83,17.38,528.23,21.58,528.23,24.63Z" transform="translate(0.25 0.25)"/>
  </g>
  <g>
    <g>
      <path class="cls-13" d="M280.93,615.47h4.68l5.28.16.76-1.8-.16-.28c-3.24.16-5.64.24-8.76.24h-1.48l1.88-10.8c1.28,0,4.6-.16,5.48-.16,2.48,0,4.12.36,4.16,1l.32,3.56h1a27,27,0,0,1,.84-6.08c-.84-.08-2-.12-2.76-.12-.12,0-.56,0-1.52,0l-4.8,0c-.36,0-7.32,0-7.72,0l-1.8,0-.12,1.12,2.16.08c1,0,1.4.36,1.4,1.08a24.69,24.69,0,0,1-.36,3l-3.48,20.16c-.16.72-.64,1-2.4,1.28l-.2,1,1.64,0c1.24,0,3.72-.08,4.52-.08l9,.12c.56,0,1.56,0,2.88-.08l1.32,0,.16-1.44c.08-.8.28-2,.64-4l.2-1h-1.08l-.64,2.4c-.4,1.44-.76,1.92-1.64,2.12a46.29,46.29,0,0,1-5.88.36,53.7,53.7,0,0,1-5.48-.28Z" transform="translate(0.25 0.25)"/>
      <path d="M298.48,586.25l-7.42-7.81-1.15,1.22,4.54,5.47h-.36v2.12h.36l-4.54,5.47,1.15,1.22Zm-22.43.9H297.4V585H276.05Z" transform="translate(0.25 0.25)"/>
    </g>
    <path class="cls-13" d="M332.64,615v-2.36H311.08V615Zm0,8.52v-2.36H311.08v2.36Z" transform="translate(0.25 0.25)"/>
    <path class="cls-13" d="M356,615.47h4.68l5.28.16.76-1.8-.16-.28c-3.24.16-5.64.24-8.76.24h-1.48l1.88-10.8c1.28,0,4.6-.16,5.48-.16,2.48,0,4.12.36,4.16,1l.32,3.56h1a27,27,0,0,1,.84-6.08c-.84-.08-2-.12-2.76-.12-.12,0-.56,0-1.52,0l-4.8,0c-.36,0-7.32,0-7.72,0l-1.8,0-.12,1.12,2.16.08c1,0,1.4.36,1.4,1.08a24.69,24.69,0,0,1-.36,3L351,626.63c-.16.72-.64,1-2.4,1.28l-.2,1,1.64,0c1.24,0,3.72-.08,4.52-.08l9,.12c.56,0,1.56,0,2.88-.08l1.32,0,.16-1.44c.08-.8.28-2,.64-4l.2-1h-1.08l-.64,2.4c-.4,1.44-.76,1.92-1.64,2.12a46.29,46.29,0,0,1-5.88.36A53.7,53.7,0,0,1,354,627Z" transform="translate(0.25 0.25)"/>
    <g>
      <path class="cls-13" d="M399.27,609.91l-.28-.36-2.72.68-.4,2A22,22,0,0,1,393,620c-2.36,3.64-5.48,6.48-7.08,6.48-.32,0-.52-.36-.52-1a10.26,10.26,0,0,1,.28-2.08L388,612.51a9.48,9.48,0,0,0,.2-1.72c0-.76-.36-1.24-.92-1.24-.8,0-2.32.84-5.28,3l-1.12.8.28.8,1.28-.84c1.12-.72,1.56-.92,1.92-.92a.76.76,0,0,1,.68.8,4.41,4.41,0,0,1-.08.72l-2.52,11.88a12.22,12.22,0,0,0-.16,1.88,1.51,1.51,0,0,0,1.4,1.64c2.52,0,7.36-4.48,10.72-10L392.91,625a10.91,10.91,0,0,0-.44,2.64c0,1,.44,1.6,1.2,1.6,1,0,2.48-.84,6.4-3.76l-.4-.72-1,.68a6.14,6.14,0,0,1-2.44,1.08c-.32,0-.52-.28-.52-.68C395.67,624.35,398.67,612.19,399.27,609.91Z" transform="translate(0.25 0.25)"/>
      <polyline class="cls-14" points="379.84 602.84 390.94 595.44 402.04 602.84"/>
    </g>
  </g>
  <g>
    <path class="cls-13" d="M278.26,654.34l-.48-.44a15.67,15.67,0,0,1-6.4,1.68l-.16.84h1.92c1,0,1.36.28,1.36,1a7.17,7.17,0,0,1-.08,1l-1.12,6.16a11.51,11.51,0,0,0-3.28-.56c-2.76,0-6.52,2.88-8.36,6.36a22.1,22.1,0,0,0-2,9.48c0,2.6.6,3.88,1.76,3.88a7.13,7.13,0,0,0,3.92-1.76c2.16-1.76,3.48-3.32,6.16-7.36l-.92,3.64a17.31,17.31,0,0,0-.64,4.08c0,.84.36,1.32,1,1.32a6,6,0,0,0,3-1.48l3.24-2.4-.4-.76L275,680.18a3.35,3.35,0,0,1-1.56.68c-.32,0-.56-.36-.56-.92a7.75,7.75,0,0,1,.32-1.84ZM263.5,680.86c-.64,0-1-.56-1-1.56,0-5,1.84-11.28,3.8-12.8a3.79,3.79,0,0,1,2.36-.6,8.4,8.4,0,0,1,4.24.92l-.48,2.36C270.94,676.38,265.3,680.86,263.5,680.86Z" transform="translate(0.25 0.25)"/>
    <g>
      <path class="cls-13" d="M282.36,677.3a35.46,35.46,0,0,1-.88,5.28,9.81,9.81,0,0,0,4.28,1.08,9.25,9.25,0,0,0,5.84-2.32c2-1.6,2.88-3.08,2.88-5.08,0-2.16-1.28-3.32-4.24-3.88l-1.72-.32c-2.4-.44-3.16-1.12-3.16-2.76a3.89,3.89,0,0,1,4.08-3.76,4.44,4.44,0,0,1,3.8,1.8v2.2h.92a40.72,40.72,0,0,1,.76-4.52,8.6,8.6,0,0,0-4-1.08,9.79,9.79,0,0,0-6.44,3.12,4.63,4.63,0,0,0-1.48,3.52c0,2.24,1.24,3.52,3.88,4l2.52.48c1.76.32,2.4,1,2.4,2.6,0,2.6-1.84,4.36-4.68,4.36a5.57,5.57,0,0,1-3.76-1.4V677.3Z" transform="translate(0.25 0.25)"/>
      <path d="M300.88,649.64l-7.42-7.81-1.15,1.22,4.54,5.47h-.36v2.12h.36l-4.54,5.47,1.15,1.22Zm-18,.9H299.8v-2.12H282.87Z" transform="translate(0.25 0.25)"/>
    </g>
    <path class="cls-13" d="M335,669.34V667H313.47v2.36Zm0,8.52V675.5H313.47v2.36Z" transform="translate(0.25 0.25)"/>
    <path class="cls-13" d="M368.9,654.34l-.48-.44a15.67,15.67,0,0,1-6.4,1.68l-.16.84h1.92c1,0,1.36.28,1.36,1a7.17,7.17,0,0,1-.08,1l-1.12,6.16a11.51,11.51,0,0,0-3.28-.56c-2.76,0-6.52,2.88-8.36,6.36a22.1,22.1,0,0,0-2,9.48c0,2.6.6,3.88,1.76,3.88a7.13,7.13,0,0,0,3.92-1.76c2.16-1.76,3.48-3.32,6.16-7.36l-.92,3.64a17.31,17.31,0,0,0-.64,4.08c0,.84.36,1.32,1,1.32a6,6,0,0,0,3-1.48l3.24-2.4-.4-.76-1.76,1.24a3.35,3.35,0,0,1-1.56.68c-.32,0-.56-.36-.56-.92a7.75,7.75,0,0,1,.32-1.84Zm-14.76,26.52c-.64,0-1-.56-1-1.56,0-5,1.84-11.28,3.8-12.8a3.79,3.79,0,0,1,2.36-.6,8.4,8.4,0,0,1,4.24.92l-.48,2.36C361.58,676.38,355.94,680.86,354.14,680.86Zm15.76,2.32a3.88,3.88,0,0,0,1.72.48c1.32,0,2.88-1.16,4.12-3l3-4.68.44,2.76c.52,3.4,1.44,5,2.88,5a6.07,6.07,0,0,0,3.44-1.84l2-1.76-.36-.76c-1.44,1.2-2.44,1.8-3.08,1.8s-1.12-.4-1.52-1.2a15.69,15.69,0,0,1-1-3.4l-.72-4,1.4-2c1.88-2.6,3-3.52,4.2-3.52a1.3,1.3,0,0,1,1.32.92l.56-.16.6-3.4a2.35,2.35,0,0,0-1.2-.4c-1.6,0-3.2,1.44-5.68,5.12l-1.48,2.2-.24-1.92c-.48-4-1.56-5.4-3.92-5.4a2.81,2.81,0,0,0-2.28.84l-2.32,3.32.68.4c1.2-1.36,2-1.92,2.76-1.92,1.32,0,2.2,1.64,2.88,5.56l.44,2.48-1.6,2.48c-1.72,2.68-3.08,4-4.2,4-.6,0-1-.16-1.12-.36l-.44-1.12-.8.12A19.74,19.74,0,0,1,369.9,683.18Z" transform="translate(0.25 0.25)"/>
    <g>
      <path class="cls-13" d="M417.18,664.3l-.28-.36-2.72.68-.4,2a22,22,0,0,1-2.84,7.72c-2.36,3.64-5.48,6.48-7.08,6.48-.32,0-.52-.36-.52-1a10.26,10.26,0,0,1,.28-2.08l2.28-10.84a9.48,9.48,0,0,0,.2-1.72c0-.76-.36-1.24-.92-1.24-.8,0-2.32.84-5.28,3l-1.12.8.28.8,1.28-.84c1.12-.72,1.56-.92,1.92-.92a.76.76,0,0,1,.68.8,4.41,4.41,0,0,1-.08.72l-2.52,11.88a12.22,12.22,0,0,0-.16,1.88,1.51,1.51,0,0,0,1.4,1.64c2.52,0,7.36-4.48,10.72-10l-1.48,5.68a10.91,10.91,0,0,0-.44,2.64c0,1,.44,1.6,1.2,1.6,1,0,2.48-.84,6.4-3.76l-.4-.72-1,.68a6.14,6.14,0,0,1-2.44,1.08c-.32,0-.52-.28-.52-.68C413.58,678.74,416.58,666.58,417.18,664.3Z" transform="translate(0.25 0.25)"/>
      <polyline class="cls-14" points="397.75 657.23 408.85 649.83 419.95 657.23"/>
    </g>
    <path class="cls-15" d="M421.14,698a2.76,2.76,0,0,0,1.21.33,4,4,0,0,0,2.88-2.12l2.13-3.28.31,1.93c.36,2.38,1,3.47,2,3.47a4.24,4.24,0,0,0,2.41-1.28l1.37-1.24-.25-.53a4.45,4.45,0,0,1-2.16,1.26c-.42,0-.78-.28-1.06-.84a11.09,11.09,0,0,1-.7-2.38l-.5-2.83,1-1.37c1.31-1.82,2.07-2.46,2.94-2.46a.91.91,0,0,1,.92.64l.39-.11.42-2.38a1.6,1.6,0,0,0-.84-.28c-1.12,0-2.24,1-4,3.58l-1,1.54-.17-1.34c-.33-2.77-1.09-3.78-2.74-3.78a2,2,0,0,0-1.6.59l-1.62,2.32.47.28c.84-1,1.4-1.34,1.94-1.34.92,0,1.54,1.15,2,3.89l.31,1.74-1.12,1.73c-1.2,1.88-2.16,2.77-2.94,2.77-.42,0-.73-.11-.78-.25l-.31-.78-.56.08A14.06,14.06,0,0,1,421.14,698Z" transform="translate(0.25 0.25)"/>
  </g>
</svg>
