<svg id="Livello_1" data-name="Livello 1" xmlns="http://www.w3.org/2000/svg" xmlns:xlink="http://www.w3.org/1999/xlink" width="662.5" height="414.5" viewBox="0 0 662.5 414.5">
  <defs>
    <style>
      .cls-1, .cls-2, .cls-4, .cls-5 {
        fill: none;
      }

      .cls-2, .cls-3 {
        stroke: #d3d3d3;
        stroke-width: 0.5px;
      }

      .cls-3 {
        fill: url(#_.6498535549321369);
      }

      .cls-4, .cls-7 {
        stroke: red;
      }

      .cls-4, .cls-6 {
        stroke-width: 3px;
      }

      .cls-5, .cls-6, .cls-8 {
        stroke: #000;
      }

      .cls-7 {
        fill: red;
      }

      .cls-7, .cls-8 {
        stroke-miterlimit: 10;
        stroke-width: 0.4px;
      }
    </style>
    <pattern id="_.6498535549321369" data-name=".6498535549321369" width="10" height="10" patternTransform="matrix(1, 0, 0, -1, -2.75, 846.14)" patternUnits="userSpaceOnUse" viewBox="0 0 10 10">
      <rect class="cls-1" width="10" height="10"/>
      <path class="cls-2" d="M10,10H0V0"/>
    </pattern>
  </defs>
  <rect class="cls-3" x="0.25" y="0.25" width="662" height="414"/>
  <g>
    <path class="cls-4" d="M93.28,289.33a35.58,35.58,0,1,1,35.58,35.58A35.58,35.58,0,0,1,93.28,289.33Z" transform="translate(0.25 0.25)"/>
    <path class="cls-5" d="M154.48,266.56,557.29,75.83" transform="translate(0.25 0.25)"/>
    <path class="cls-6" d="M549.46,75.83a7.83,7.83,0,1,1,7.83,7.83A7.82,7.82,0,0,1,549.46,75.83Z" transform="translate(0.25 0.25)"/>
  </g>
  <path class="cls-7" d="M141.84,287.31v-2.95h-12v-11.9h-3v11.9h-12v2.95h12v12.05h3V287.31Z" transform="translate(0.25 0.25)"/>
  <path class="cls-8" d="M83,325.4a13.41,13.41,0,0,0-5-1.2c-3.75,0-8.15,4.4-9.05,5.4-2,2.35-3.95,9.65-3.95,14.8,0,3,.6,4.45,1.8,4.45s2-.4,3.65-1.5a30.38,30.38,0,0,0,8.75-9.5l-3.8,20.7A6.07,6.07,0,0,1,74,361.4l.45.7a36,36,0,0,1,4.3-.85,78.6,78.6,0,0,1,1-7.95L84,330.5a41.35,41.35,0,0,1,1.35-5.9l-.7-.3Zm-13.35,20c-.7,0-1.1-1.05-1.1-2.7,0-4.8,2.15-12.3,4.25-14.8a4.91,4.91,0,0,1,3.65-1.2c1.4,0,2.45.3,4.85,1.35l-1,4.75C78.75,339.6,71.7,345.35,69.6,345.35Z" transform="translate(0.25 0.25)"/>
  <path class="cls-8" d="M571.8,101.68l2.75.1c1.2,0,1.75.45,1.75,1.35l-4.15,25.5c-.85,4.55-.9,4.7-2.9,4.85l-2,.15L567,135l2.1-.05c2,0,3.6-.1,4.5-.1s2.3.05,4.3.1l2.65.05.15-1.4-3.25-.15c-1.3,0-1.8-.45-1.8-1.5a10.69,10.69,0,0,1,.2-1.75l4.9-27.75a20.29,20.29,0,0,1,3.55-.4c5.1,0,7.55,2.2,7.55,6.85,0,5.4-3.6,9.8-8,9.8a10.69,10.69,0,0,1-4-1l.1,1.55a8.67,8.67,0,0,0,4.3,1.15c6.45,0,12-5.85,12-12.65,0-5-3.15-7.7-9.1-7.55H572Z" transform="translate(0.25 0.25)"/>
  <path class="cls-8" d="M324.26,149.5a46.38,46.38,0,0,1,.8-5.55,2.25,2.25,0,0,0-1-.3c-1.55,0-3.1,1.2-4.9,3.75a61.65,61.65,0,0,0-4.7,7.55l1.6-7.6a9.17,9.17,0,0,0,.3-2.1c0-1-.4-1.6-1.15-1.6-1,0-2.95,1-6.65,3.7l-1.4,1,.35,1,1.6-1c1.4-.9,1.95-1.15,2.4-1.15s.85.45.85,1.1c0,2.9-2.15,13.2-4.15,19.6l.5.35a27.17,27.17,0,0,1,2.7-.65l.65-.1,1.3-6a21.9,21.9,0,0,1,4.25-9.65c1.7-2.2,3.05-3.25,4.15-3.25a2.07,2.07,0,0,1,1.8.95Z" transform="translate(0.25 0.25)"/>
</svg>
