<svg id="Livello_1" data-name="Livello 1" xmlns="http://www.w3.org/2000/svg" xmlns:xlink="http://www.w3.org/1999/xlink" width="662.5" height="568.5" viewBox="0 0 662.5 568.5">
  <defs>
    <style>
      .cls-1, .cls-2, .cls-4, .cls-5, .cls-6 {
        fill: none;
      }

      .cls-2, .cls-3 {
        stroke: #d3d3d3;
        stroke-width: 0.5px;
      }

      .cls-3 {
        fill: url(#_.6498535549321369);
      }

      .cls-4, .cls-5, .cls-6, .cls-7, .cls-8 {
        stroke: #000;
      }

      .cls-4, .cls-6, .cls-7 {
        stroke-width: 3px;
      }

      .cls-6 {
        stroke-dasharray: 9 6;
      }

      .cls-10, .cls-8, .cls-9 {
        stroke-miterlimit: 10;
      }

      .cls-8, .cls-9 {
        stroke-width: 0.24px;
      }

      .cls-9 {
        fill: red;
        stroke: red;
      }

      .cls-10 {
        fill: #ff001f;
        stroke: #ff001f;
        stroke-width: 0.56px;
      }
    </style>
    <pattern id="_.6498535549321369" data-name=".6498535549321369" width="10" height="10" patternTransform="matrix(1, 0, 0, -1, -2.75, 849.14)" patternUnits="userSpaceOnUse" viewBox="0 0 10 10">
      <rect class="cls-1" width="10" height="10"/>
      <path class="cls-2" d="M10,10H0V0"/>
    </pattern>
  </defs>
  <rect class="cls-3" x="0.25" y="0.25" width="662" height="568"/>
  <g>
    <path class="cls-4" d="M141.86,283.9c0-102.37,83-185.36,185.36-185.36s185.36,83,185.36,185.36-83,185.36-185.36,185.36S141.86,386.27,141.86,283.9Z" transform="translate(0.25 0.25)"/>
    <path class="cls-5" d="M327.22,283.9H512.58" transform="translate(0.25 0.25)"/>
    <path class="cls-6" d="M80.44,283.9c0-136.29,110.49-246.78,246.78-246.78S574,147.61,574,283.9,463.51,530.68,327.22,530.68,80.44,420.2,80.44,283.9Z" transform="translate(0.25 0.25)"/>
    <path class="cls-5" d="M327.22,283.9,528,423" transform="translate(0.25 0.25)"/>
    <path class="cls-7" d="M323.15,283.9a4.07,4.07,0,1,1,4.07,4.07A4.07,4.07,0,0,1,323.15,283.9Z" transform="translate(0.25 0.25)"/>
  </g>
  <path class="cls-8" d="M415,256l1.68.06c.72,0,1,.27,1,.81a18.52,18.52,0,0,1-.27,2.28l-2.25,13c-.48,2.73-.54,2.79-1.74,2.91l-1.23.09-.12.84,1.26,0c1.41-.06,2-.06,2.7-.06L419,276h.78l.09-.84-1.47-.09c-.81-.06-1.08-.3-1.08-.9a5.81,5.81,0,0,1,.12-1l3-16.65a10.17,10.17,0,0,1,2.28-.24c2.61,0,4,1.17,4,3.39,0,2.85-2.34,4.95-5.46,4.95H420l-.09.33c4,5.85,5,7.29,7.2,11.1l2.55-.09,1,.09h.39v-.81c-1.2-.15-1.53-.39-2.4-1.65l-5.52-8.25a7.71,7.71,0,0,0,3.6-1.44,5.82,5.82,0,0,0,2.67-4.74c0-2.58-1.92-4-5.25-3.93h-9Z" transform="translate(0.25 0.25)"/>
  <path class="cls-9" d="M465,117.11c-3.57,0-7.2,2.31-8,5.88-1.2,5.37-1.77,11.22-2.55,16.83a7.29,7.29,0,0,0,2.52-.54,39.05,39.05,0,0,1,.81-8.85,3.46,3.46,0,0,0,3.06,1.32c5.31,0,8.25-5.49,8.34-10.2C469.2,118.7,467.85,117.11,465,117.11Zm-1.17,1c2.37,0,3,1.83,2.94,3.9,0,3.24-1.41,9-5.55,9-2.34,0-2.88-1.83-2.82-3.81C458.43,124,459.69,118.07,463.8,118.07Z" transform="translate(0.25 0.25)"/>
  <path class="cls-10" d="M366.48,226.91v-4.13h-16.8V206.12h-4.13v16.66h-16.8v4.13h16.8v16.87h4.13V226.91Z" transform="translate(0.25 0.25)"/>
  <path class="cls-8" d="M414.57,367.25a27.83,27.83,0,0,1,.48-3.33,1.35,1.35,0,0,0-.6-.18c-.93,0-1.86.72-2.94,2.25a37,37,0,0,0-2.82,4.53l1-4.56a5.5,5.5,0,0,0,.18-1.26c0-.6-.24-1-.69-1-.63,0-1.77.63-4,2.22l-.84.6.21.6,1-.63c.84-.54,1.17-.69,1.44-.69s.51.27.51.66a64,64,0,0,1-2.49,11.76l.3.21a16.3,16.3,0,0,1,1.62-.39l.39-.06.78-3.6a13.14,13.14,0,0,1,2.55-5.79c1-1.32,1.83-1.95,2.49-1.95a1.24,1.24,0,0,1,1.08.57Z" transform="translate(0.25 0.25)"/>
  <path class="cls-10" d="M286.48,162.91v-4.13h-16.8V142.12h-4.13v16.66h-16.8v4.13h16.8v16.87h4.13V162.91Z" transform="translate(0.25 0.25)"/>
  <path class="cls-10" d="M382.48,135.91v-4.13h-16.8V115.12h-4.13v16.66h-16.8v4.13h16.8v16.87h4.13V135.91Z" transform="translate(0.25 0.25)"/>
  <path class="cls-10" d="M435.48,189.91v-4.13h-16.8V169.12h-4.13v16.66h-16.8v4.13h16.8v16.87h4.13V189.91Z" transform="translate(0.25 0.25)"/>
  <path class="cls-10" d="M490.48,233.91v-4.13h-16.8V213.12h-4.13v16.66h-16.8v4.13h16.8v16.87h4.13V233.91Z" transform="translate(0.25 0.25)"/>
  <path class="cls-10" d="M497.48,325.91v-4.13h-16.8V305.12h-4.13v16.66h-16.8v4.13h16.8v16.87h4.13V325.91Z" transform="translate(0.25 0.25)"/>
  <path class="cls-10" d="M416.48,307.91v-4.13h-16.8V287.12h-4.13v16.66h-16.8v4.13h16.8v16.87h4.13V307.91Z" transform="translate(0.25 0.25)"/>
  <path class="cls-10" d="M401.48,401.91v-4.13h-16.8V381.12h-4.13v16.66h-16.8v4.13h16.8v16.87h4.13V401.91Z" transform="translate(0.25 0.25)"/>
  <path class="cls-10" d="M340.48,354.91v-4.13h-16.8V334.12h-4.13v16.66h-16.8v4.13h16.8v16.87h4.13V354.91Z" transform="translate(0.25 0.25)"/>
  <path class="cls-10" d="M331.48,424.91v-4.13h-16.8V404.12h-4.13v16.66h-16.8v4.13h16.8v16.87h4.13V424.91Z" transform="translate(0.25 0.25)"/>
  <path class="cls-10" d="M237.48,376.91v-4.13h-16.8V356.12h-4.13v16.66h-16.8v4.13h16.8v16.87h4.13V376.91Z" transform="translate(0.25 0.25)"/>
  <path class="cls-10" d="M201.48,299.91v-4.13h-16.8V279.12h-4.13v16.66h-16.8v4.13h16.8v16.87h4.13V299.91Z" transform="translate(0.25 0.25)"/>
  <path class="cls-10" d="M280.48,299.91v-4.13h-16.8V279.12h-4.13v16.66h-16.8v4.13h16.8v16.87h4.13V299.91Z" transform="translate(0.25 0.25)"/>
  <path class="cls-10" d="M234.48,220.91v-4.13h-16.8V200.12h-4.13v16.66h-16.8v4.13h16.8v16.87h4.13V220.91Z" transform="translate(0.25 0.25)"/>
  <path class="cls-8" d="M315.33,281.14c0-5.34-3.12-8.43-8.52-8.43-7.11,0-12.33,5.49-12.33,13,0,5.67,2.82,8.7,8.1,8.7C310.74,294.43,315.33,287.68,315.33,281.14Zm-2.64.48c0,5.64-2.67,11.55-9,11.55-4.32,0-6.57-2.58-6.57-7.59,0-4.44,1.74-11.61,8.76-11.61C309.36,274,312.69,275.59,312.69,281.62Z" transform="translate(0.25 0.25)"/>
</svg>
