<svg id="Livello_1" data-name="Livello 1" xmlns="http://www.w3.org/2000/svg" xmlns:xlink="http://www.w3.org/1999/xlink" width="662.5" height="586.5" viewBox="0 0 662.5 586.5">
  <defs>
    <style>
      .cls-1, .cls-2, .cls-4, .cls-5, .cls-6, .cls-8 {
        fill: none;
      }

      .cls-2, .cls-3 {
        stroke: #d3d3d3;
        stroke-width: 0.5px;
      }

      .cls-3 {
        fill: url(#_.6498535549321369);
      }

      .cls-10, .cls-4, .cls-5, .cls-6, .cls-7, .cls-8 {
        stroke: #000;
      }

      .cls-5 {
        stroke-width: 4px;
      }

      .cls-6 {
        stroke-dasharray: 6 6;
      }

      .cls-8 {
        stroke-width: 3px;
      }

      .cls-9 {
        fill: red;
        stroke: red;
      }

      .cls-10, .cls-9 {
        stroke-miterlimit: 10;
        stroke-width: 0.32px;
      }
    </style>
    <pattern id="_.6498535549321369" data-name=".6498535549321369" width="10" height="10" patternTransform="matrix(1, 0, 0, -1, -2.75, 850.14)" patternUnits="userSpaceOnUse" viewBox="0 0 10 10">
      <rect class="cls-1" width="10" height="10"/>
      <path class="cls-2" d="M10,10H0V0"/>
    </pattern>
  </defs>
  <rect class="cls-3" x="0.25" y="0.25" width="662" height="586"/>
  <g>
    <path class="cls-4" d="M115.45,289.81c0-117.43,73.44-212.62,164-212.62s164,95.19,164,212.62-73.45,212.62-164,212.62S115.45,407.23,115.45,289.81Z" transform="translate(0.25 0.25)"/>
    <path class="cls-4" d="M141.74,296.1c0-99.44,62.19-180,138.91-180s138.9,80.6,138.9,180-62.19,180-138.9,180S141.74,395.53,141.74,296.1Z" transform="translate(0.25 0.25)"/>
    <g>
      <path class="cls-5" d="M8,299H641" transform="translate(0.25 0.25)"/>
      <path d="M630,307.1,647,299l-17-8.15Z" transform="translate(0.25 0.25)"/>
    </g>
    <path class="cls-6" d="M280.65,116.06V295" transform="translate(0.25 0.25)"/>
    <path class="cls-6" d="M282.35,102.34,553.26,296.67" transform="translate(0.25 0.25)"/>
    <path class="cls-7" d="M547,296.67a6.29,6.29,0,1,1,6.28,6.28A6.28,6.28,0,0,1,547,296.67Z" transform="translate(0.25 0.25)"/>
    <path class="cls-8" d="M258.34,74.9h43.44v43.44H258.34Z" transform="translate(0.25 0.25)"/>
    <path class="cls-7" d="M273.2,296.1a6.29,6.29,0,1,1,6.29,6.28A6.29,6.29,0,0,1,273.2,296.1Z" transform="translate(0.25 0.25)"/>
  </g>
  <path class="cls-9" d="M195.27,138.41v-2.36h-9.6v-9.52h-2.36v9.52h-9.6v2.36h9.6v9.64h2.36v-9.64Z" transform="translate(0.25 0.25)"/>
  <path class="cls-9" d="M246.71,106.41v-2.36h-9.6V94.53h-2.36v9.52h-9.6v2.36h9.6v9.64h2.36v-9.64Z" transform="translate(0.25 0.25)"/>
  <path class="cls-9" d="M292.43,95V92.61h-9.6V83.09h-2.36v9.52h-9.6V95h9.6v9.64h2.36V95Z" transform="translate(0.25 0.25)"/>
  <path class="cls-9" d="M354.16,117.83v-2.36h-9.6V106H342.2v9.52h-9.6v2.36h9.6v9.64h2.36v-9.64Z" transform="translate(0.25 0.25)"/>
  <path class="cls-9" d="M403.32,155.56V153.2h-9.6v-9.52h-2.36v9.52h-9.6v2.36h9.6v9.64h2.36v-9.64Z" transform="translate(0.25 0.25)"/>
  <path class="cls-9" d="M436.46,225.28v-2.36h-9.6V213.4H424.5v9.52h-9.6v2.36h9.6v9.64h2.36v-9.64Z" transform="translate(0.25 0.25)"/>
  <path class="cls-9" d="M437.6,332.73v-2.36H428v-9.52h-2.36v9.52H416v2.36h9.6v9.64H428v-9.64Z" transform="translate(0.25 0.25)"/>
  <path class="cls-9" d="M420.46,391v-2.36h-9.6v-9.52H408.5v9.52h-9.6V391h9.6v9.64h2.36V391Z" transform="translate(0.25 0.25)"/>
  <path class="cls-9" d="M397.6,429.91v-2.36H388V418h-2.36v9.52H376v2.36h9.6v9.64H388v-9.64Z" transform="translate(0.25 0.25)"/>
  <path class="cls-9" d="M365.58,461.91v-2.36H356V450h-2.36v9.52H344v2.36h9.6v9.64H356v-9.64Z" transform="translate(0.25 0.25)"/>
  <path class="cls-9" d="M324.44,483.63v-2.36h-9.6v-9.52h-2.36v9.52h-9.6v2.36h9.6v9.63h2.36v-9.63Z" transform="translate(0.25 0.25)"/>
  <path class="cls-9" d="M267.28,485.92v-2.36h-9.6V474h-2.36v9.52h-9.6v2.36h9.6v9.64h2.36v-9.64Z" transform="translate(0.25 0.25)"/>
  <path class="cls-9" d="M211.27,459.63v-2.36h-9.6v-9.52h-2.36v9.52h-9.6v2.36h9.6v9.63h2.36v-9.63Z" transform="translate(0.25 0.25)"/>
  <path class="cls-9" d="M171.25,412.75v-2.36h-9.6v-9.52h-2.36v9.52h-9.6v2.36h9.6v9.64h2.36v-9.64Z" transform="translate(0.25 0.25)"/>
  <path class="cls-9" d="M146.11,343v-2.36h-9.6v-9.52h-2.36v9.52h-9.6V343h9.6v9.64h2.36V343Z" transform="translate(0.25 0.25)"/>
  <path class="cls-9" d="M157.53,197.86V195.5h-9.6V186h-2.36v9.52H136v2.36h9.6v9.64h2.36v-9.64Z" transform="translate(0.25 0.25)"/>
  <path class="cls-9" d="M140.39,259.58v-2.36h-9.6V247.7h-2.36v9.52h-9.6v2.36h9.6v9.64h2.36v-9.64Z" transform="translate(0.25 0.25)"/>
  <path class="cls-9" d="M442.18,269.88v-2.36h-9.6V258h-2.36v9.52h-9.6v2.36h9.6v9.63h2.36v-9.63Z" transform="translate(0.25 0.25)"/>
  <path class="cls-10" d="M306.66,27.73l-.48-.44a15.67,15.67,0,0,1-6.4,1.68l-.16.84h1.92c1,0,1.36.28,1.36,1a7.17,7.17,0,0,1-.08,1l-1.12,6.16a11.51,11.51,0,0,0-3.28-.56c-2.76,0-6.52,2.88-8.36,6.36a22.1,22.1,0,0,0-2,9.48c0,2.6.6,3.88,1.76,3.88a7.13,7.13,0,0,0,3.92-1.76c2.16-1.76,3.48-3.32,6.16-7.36l-.92,3.64a17.31,17.31,0,0,0-.64,4.08c0,.84.36,1.32,1,1.32a6,6,0,0,0,3-1.48l3.24-2.4-.4-.76-1.76,1.24a3.35,3.35,0,0,1-1.56.68c-.32,0-.56-.36-.56-.92a7.75,7.75,0,0,1,.32-1.84ZM291.9,54.25c-.64,0-1-.56-1-1.56,0-5,1.84-11.28,3.8-12.8a3.79,3.79,0,0,1,2.36-.6,8.4,8.4,0,0,1,4.24.92l-.48,2.36C299.34,49.77,293.7,54.25,291.9,54.25Zm30.8-16a10.73,10.73,0,0,0-4-1c-3,0-6.52,3.52-7.24,4.32-1.6,1.88-3.16,7.72-3.16,11.84,0,2.36.48,3.56,1.44,3.56a5,5,0,0,0,2.92-1.2,24.31,24.31,0,0,0,7-7.6l-3,16.56a4.86,4.86,0,0,1-1.08,2.28l.36.56A28.78,28.78,0,0,1,319.3,67a62.88,62.88,0,0,1,.76-6.36l3.44-18.24a33.08,33.08,0,0,1,1.08-4.72l-.56-.24ZM312,54.25c-.56,0-.88-.84-.88-2.16,0-3.84,1.72-9.84,3.4-11.84a3.93,3.93,0,0,1,2.92-1,8.9,8.9,0,0,1,3.88,1.08l-.84,3.8C319.34,49.65,313.7,54.25,312,54.25Z" transform="translate(0.25 0.25)"/>
  <path class="cls-10" d="M476.53,205.46a37.1,37.1,0,0,1,.64-4.44,1.8,1.8,0,0,0-.8-.24c-1.24,0-2.48,1-3.92,3a49.32,49.32,0,0,0-3.76,6l1.28-6.08a7.33,7.33,0,0,0,.24-1.68c0-.8-.32-1.28-.92-1.28-.84,0-2.36.84-5.32,3l-1.12.8.28.8,1.28-.84c1.12-.72,1.56-.92,1.92-.92s.68.36.68.88c0,2.32-1.72,10.56-3.32,15.68l.4.28a21.74,21.74,0,0,1,2.16-.52l.52-.08,1-4.8a17.52,17.52,0,0,1,3.4-7.72c1.36-1.76,2.44-2.6,3.32-2.6a1.65,1.65,0,0,1,1.44.76Z" transform="translate(0.25 0.25)"/>
  <path class="cls-10" d="M298.76,212.94,301,213c1,0,1.4.36,1.4,1.08a24.69,24.69,0,0,1-.36,3l-3,17.36c-.64,3.64-.72,3.72-2.32,3.88l-1.64.12-.16,1.12,1.68,0c1.88-.08,2.64-.08,3.6-.08l3.88.12h1l.12-1.12-2-.12c-1.08-.08-1.44-.4-1.44-1.2a7.75,7.75,0,0,1,.16-1.4l4-22.2a13.56,13.56,0,0,1,3-.32c3.48,0,5.32,1.56,5.32,4.52,0,3.8-3.12,6.6-7.28,6.6h-1.76l-.12.44c5.36,7.8,6.6,9.72,9.6,14.8l3.4-.12s.6,0,1.36.12h.52v-1.08c-1.6-.2-2-.52-3.2-2.2l-7.36-11a10.28,10.28,0,0,0,4.8-1.92,7.76,7.76,0,0,0,3.56-6.32c0-3.44-2.56-5.32-7-5.24h-12Z" transform="translate(0.25 0.25)"/>
  <path class="cls-10" d="M544.89,317.25l2.2.08c1,0,1.4.36,1.4,1.08l-3.32,20.4c-.68,3.64-.72,3.76-2.32,3.88l-1.64.12-.16,1.12,1.68,0c1.64,0,2.88-.08,3.6-.08s1.84,0,3.44.08l2.12,0,.12-1.12-2.6-.12c-1,0-1.44-.36-1.44-1.2a8.55,8.55,0,0,1,.16-1.4l3.92-22.2a16.23,16.23,0,0,1,2.84-.32c4.08,0,6,1.76,6,5.48,0,4.32-2.88,7.84-6.4,7.84a8.56,8.56,0,0,1-3.16-.76l.08,1.24a6.94,6.94,0,0,0,3.44.92c5.16,0,9.56-4.68,9.56-10.12,0-4-2.52-6.16-7.28-6H545Z" transform="translate(0.25 0.25)"/>
  <path class="cls-10" d="M274.47,326.53c0-7.12-4.16-11.24-11.36-11.24-9.48,0-16.44,7.32-16.44,17.36,0,7.56,3.76,11.6,10.8,11.6C268.35,344.25,274.47,335.25,274.47,326.53Zm-3.52.64c0,7.52-3.56,15.4-12,15.4-5.76,0-8.76-3.44-8.76-10.12,0-5.92,2.32-15.48,11.68-15.48C266.51,317,271,319.13,271,327.17Z" transform="translate(0.25 0.25)"/>
  <path class="cls-10" d="M619.05,341.77a3.88,3.88,0,0,0,1.72.48c1.32,0,2.88-1.16,4.12-3l3-4.68.44,2.76c.52,3.4,1.44,5,2.88,5a6.07,6.07,0,0,0,3.44-1.84l2-1.76-.36-.76c-1.44,1.2-2.44,1.8-3.08,1.8s-1.12-.4-1.52-1.2a15.69,15.69,0,0,1-1-3.4l-.72-4,1.4-2c1.88-2.6,3-3.52,4.2-3.52a1.3,1.3,0,0,1,1.32.92l.56-.16.6-3.4a2.35,2.35,0,0,0-1.2-.4c-1.6,0-3.2,1.44-5.68,5.12l-1.48,2.2-.24-1.92c-.48-4-1.56-5.4-3.92-5.4a2.81,2.81,0,0,0-2.28.84l-2.32,3.32.68.4c1.2-1.36,2-1.92,2.76-1.92,1.32,0,2.2,1.64,2.88,5.56l.44,2.48-1.6,2.48c-1.72,2.68-3.08,4-4.2,4-.6,0-1-.16-1.12-.36l-.44-1.12-.8.12A19.74,19.74,0,0,1,619.05,341.77Z" transform="translate(0.25 0.25)"/>
</svg>
