<svg id="Livello_1" data-name="Livello 1" xmlns="http://www.w3.org/2000/svg" xmlns:xlink="http://www.w3.org/1999/xlink" width="662.5" height="586.5" viewBox="0 0 662.5 586.5">
  <defs>
    <style>
      .cls-1, .cls-2, .cls-4, .cls-6, .cls-7, .cls-8 {
        fill: none;
      }

      .cls-2, .cls-3 {
        stroke: #d3d3d3;
        stroke-width: 0.5px;
      }

      .cls-3 {
        fill: url(#_.6498535549321369);
      }

      .cls-10, .cls-4, .cls-5, .cls-6, .cls-7, .cls-8 {
        stroke: #000;
      }

      .cls-4 {
        stroke-dasharray: 6 6;
      }

      .cls-5, .cls-7 {
        stroke-width: 3px;
      }

      .cls-8 {
        stroke-width: 4px;
      }

      .cls-9 {
        fill: red;
        stroke: red;
      }

      .cls-10, .cls-9 {
        stroke-miterlimit: 10;
        stroke-width: 0.4px;
      }
    </style>
    <pattern id="_.6498535549321369" data-name=".6498535549321369" width="10" height="10" patternTransform="matrix(1, 0, 0, -1, -2.75, 850.14)" patternUnits="userSpaceOnUse" viewBox="0 0 10 10">
      <rect class="cls-1" width="10" height="10"/>
      <path class="cls-2" d="M10,10H0V0"/>
    </pattern>
  </defs>
  <rect class="cls-3" x="0.25" y="0.25" width="662" height="586"/>
  <g>
    <path class="cls-4" d="M315.26,223.17l126,152" transform="translate(0.25 0.25)"/>
    <path class="cls-5" d="M306.76,223.17a8.5,8.5,0,1,1,8.5,8.5A8.5,8.5,0,0,1,306.76,223.17Z" transform="translate(0.25 0.25)"/>
    <path class="cls-6" d="M66.63,378.43H565v54.28H66.63Z" transform="translate(0.25 0.25)"/>
    <g>
      <path class="cls-7" d="M279.38,405.57H643.64M315.8,77.73V442" transform="translate(0.25 0.25)"/>
      <path class="cls-7" d="M636.64,400.57l7,5-7,5" transform="translate(0.25 0.25)"/>
      <path class="cls-7" d="M310.8,84.73l5-7,5,7" transform="translate(0.25 0.25)"/>
    </g>
    <path class="cls-8" d="M417.32,378.43h54.29v54.28H417.32Z" transform="translate(0.25 0.25)"/>
    <path class="cls-7" d="M315.8,405.57V525" transform="translate(0.25 0.25)"/>
    <path class="cls-7" d="M208.32,222.08V377.34" transform="translate(0.25 0.25)"/>
    <path class="cls-7" d="M226,222.08H190.67" transform="translate(0.25 0.25)"/>
    <path class="cls-7" d="M448.81,457.68H316.89" transform="translate(0.25 0.25)"/>
    <path class="cls-7" d="M448.81,444.66v26" transform="translate(0.25 0.25)"/>
    <path class="cls-7" d="M315.8,405.57H8" transform="translate(0.25 0.25)"/>
  </g>
  <path class="cls-9" d="M113.06,408.48v-3h-12v-11.9h-3v11.9h-12v3h12v12h3v-12Z" transform="translate(0.25 0.25)"/>
  <path class="cls-10" d="M276.83,190.28l2.75.1c1.2.05,1.75.45,1.75,1.35l-4.15,25.5c-.85,4.55-.9,4.7-2.9,4.85l-2,.15-.2,1.4,2.1,0c2.05-.05,3.6-.1,4.5-.1s2.3.05,4.3.1l2.65,0,.15-1.4-3.25-.15c-1.3-.05-1.8-.45-1.8-1.5a10.69,10.69,0,0,1,.2-1.75l4.9-27.75a20.29,20.29,0,0,1,3.55-.4c5.1,0,7.55,2.2,7.55,6.85,0,5.4-3.6,9.8-8,9.8a10.69,10.69,0,0,1-3.95-1l.1,1.55a8.67,8.67,0,0,0,4.3,1.15c6.45,0,11.95-5.85,11.95-12.65,0-5.05-3.15-7.7-9.1-7.55H277Z" transform="translate(0.25 0.25)"/>
  <path class="cls-10" d="M489,324.06l-.6-.55a19.58,19.58,0,0,1-8,2.1l-.2,1.05h2.4c1.2,0,1.7.35,1.7,1.2a9,9,0,0,1-.1,1.2l-1.4,7.7a14.39,14.39,0,0,0-4.1-.7c-3.45,0-8.15,3.6-10.45,7.95a27.62,27.62,0,0,0-2.55,11.85c0,3.25.75,4.85,2.2,4.85a8.92,8.92,0,0,0,4.9-2.2c2.7-2.2,4.35-4.15,7.7-9.2l-1.15,4.55a21.63,21.63,0,0,0-.8,5.1c0,1.05.45,1.65,1.3,1.65s2.05-.6,3.75-1.85l4.05-3-.5-.95-2.2,1.55a4.18,4.18,0,0,1-1.95.85c-.4,0-.7-.45-.7-1.15a9.69,9.69,0,0,1,.4-2.3Zm-18.45,33.15c-.8,0-1.25-.7-1.25-1.95,0-6.3,2.3-14.1,4.75-16a4.74,4.74,0,0,1,3-.75,10.5,10.5,0,0,1,5.3,1.15l-.6,2.95C479.83,351.61,472.78,357.21,470.53,357.21ZM509,337.26a13.41,13.41,0,0,0-5-1.2c-3.75,0-8.15,4.4-9.05,5.4-2,2.35-3.95,9.65-3.95,14.8,0,2.95.6,4.45,1.8,4.45s2.05-.4,3.65-1.5a30.38,30.38,0,0,0,8.75-9.5l-3.8,20.7a6.07,6.07,0,0,1-1.35,2.85l.45.7a36,36,0,0,1,4.3-.85,78.6,78.6,0,0,1,1-7.95l4.3-22.8a41.35,41.35,0,0,1,1.35-5.9l-.7-.3Zm-13.35,19.95c-.7,0-1.1-1-1.1-2.7,0-4.8,2.15-12.3,4.25-14.8a4.91,4.91,0,0,1,3.65-1.2c1.4,0,2.45.3,4.85,1.35l-1.05,4.75C504.83,351.46,497.78,357.21,495.68,357.21Z" transform="translate(0.25 0.25)"/>
  <path class="cls-9" d="M165.17,408.48v-3h-12v-11.9h-2.95v11.9h-12v3h12v12h2.95v-12Z" transform="translate(0.25 0.25)"/>
  <path class="cls-9" d="M221.62,408.48v-3h-12v-11.9h-3v11.9h-12v3h12v12h3v-12Z" transform="translate(0.25 0.25)"/>
  <path class="cls-9" d="M279.17,407.39v-2.95h-12v-11.9h-2.95v11.9h-12v2.95h12v12.05h2.95V407.39Z" transform="translate(0.25 0.25)"/>
  <path class="cls-9" d="M327,408.48v-3H315v-11.9H312v11.9H300v3h12v12H315v-12Z" transform="translate(0.25 0.25)"/>
  <path class="cls-9" d="M394.26,407.39v-2.95h-12v-11.9h-2.95v11.9h-12v2.95h12v12.05h2.95V407.39Z" transform="translate(0.25 0.25)"/>
  <path class="cls-9" d="M458.33,407.39v-2.95h-12v-11.9h-2.95v11.9h-12v2.95h12v12.05h2.95V407.39Z" transform="translate(0.25 0.25)"/>
  <path class="cls-9" d="M521.29,407.39v-2.95h-12v-11.9h-3v11.9h-12v2.95h12v12.05h3V407.39Z" transform="translate(0.25 0.25)"/>
  <path class="cls-10" d="M415.76,287.63a46.38,46.38,0,0,1,.8-5.55,2.25,2.25,0,0,0-1-.3c-1.55,0-3.1,1.2-4.9,3.75a61.65,61.65,0,0,0-4.7,7.55l1.6-7.6a9.17,9.17,0,0,0,.3-2.1c0-1-.4-1.6-1.15-1.6-1,0-2.95,1.05-6.65,3.7l-1.4,1,.35,1,1.6-1.05c1.4-.9,1.95-1.15,2.4-1.15s.85.45.85,1.1c0,2.9-2.15,13.2-4.15,19.6l.5.35a27.17,27.17,0,0,1,2.7-.65l.65-.1,1.3-6a21.9,21.9,0,0,1,4.25-9.65c1.7-2.2,3.05-3.25,4.15-3.25a2.07,2.07,0,0,1,1.8.95Z" transform="translate(0.25 0.25)"/>
  <g>
    <path class="cls-10" d="M338.63,72.55a6.07,6.07,0,0,0-.05.9,4,4,0,0,0,4.1,3.9c5.3,0,10.8-6.2,13.75-15.45l7.05-22-.55-.45a13.9,13.9,0,0,1-3.7.95L357.48,47a32.26,32.26,0,0,1-4,8.45c-1.75,2.55-4.2,4.75-5.3,4.75-.6,0-1.05-1.15-1-2.4l.8-10.35c.1-1.55.2-3.45.2-4.85,0-2.25-.35-3.15-1.2-3.15-.65,0-1.35.35-3.75,2l-4.1,2.8.55.9,2.5-1.5a2.92,2.92,0,0,1,1.25-.6c.7,0,1.1,1,1.1,2.6a6.21,6.21,0,0,1,0,.75l-.85,12.15-.05,2c0,2.1.9,3.55,2.15,3.55,1.85,0,6-4.25,9.8-9.9l-2.45,8.55c-2.55,8.85-5.05,12.5-8.55,12.5a3.05,3.05,0,0,1-3.1-3.1c0-.25.05-.65.1-1.1l-.5-.2Z" transform="translate(0.25 0.25)"/>
    <polyline class="cls-7" points="339.23 31.02 351.71 22.7 364.18 31.02"/>
  </g>
  <g>
    <path class="cls-10" d="M618.47,388.12a4.85,4.85,0,0,0,2.15.6c1.65,0,3.6-1.45,5.15-3.8l3.8-5.85.55,3.45c.65,4.25,1.8,6.2,3.6,6.2,1.1,0,2.7-.85,4.3-2.3l2.45-2.2-.45-1c-1.8,1.5-3,2.25-3.85,2.25s-1.4-.5-1.9-1.5a19.61,19.61,0,0,1-1.25-4.25l-.9-5,1.75-2.45c2.35-3.25,3.7-4.4,5.25-4.4a1.62,1.62,0,0,1,1.65,1.15l.7-.2.75-4.25a2.94,2.94,0,0,0-1.5-.5c-2,0-4,1.8-7.1,6.4l-1.85,2.75-.3-2.4c-.6-4.95-2-6.75-4.9-6.75a3.51,3.51,0,0,0-2.85,1.05l-2.9,4.15.85.5c1.5-1.7,2.5-2.4,3.45-2.4,1.65,0,2.75,2.05,3.6,6.95l.55,3.1-2,3.1c-2.15,3.35-3.85,5-5.25,5-.75,0-1.3-.2-1.4-.45l-.55-1.4-1,.15A24.68,24.68,0,0,1,618.47,388.12Z" transform="translate(0.25 0.25)"/>
    <polyline class="cls-7" points="618.27 355.64 630.75 347.32 643.22 355.64"/>
  </g>
  <path class="cls-10" d="M157.32,304a6.07,6.07,0,0,0,0,.9,4,4,0,0,0,4.1,3.9c5.3,0,10.8-6.2,13.75-15.45l7-22-.55-.45a13.9,13.9,0,0,1-3.7.95l-1.75,6.6a32.26,32.26,0,0,1-4,8.45c-1.75,2.55-4.2,4.75-5.3,4.75-.6,0-1.05-1.15-1-2.4l.8-10.35c.1-1.55.2-3.45.2-4.85,0-2.25-.35-3.15-1.2-3.15-.65,0-1.35.35-3.75,2l-4.1,2.8.55.9,2.5-1.5a2.92,2.92,0,0,1,1.25-.6c.7,0,1.1,1,1.1,2.6a6.21,6.21,0,0,1-.05.75L162.32,290l0,2c0,2.1.9,3.55,2.15,3.55,1.85,0,6.05-4.25,9.8-9.9l-2.45,8.55c-2.55,8.85-5.05,12.5-8.55,12.5a3.05,3.05,0,0,1-3.1-3.1c0-.25,0-.65.1-1.1l-.5-.2Z" transform="translate(0.25 0.25)"/>
  <path class="cls-10" d="M370.92,500.17a4.85,4.85,0,0,0,2.15.6c1.65,0,3.6-1.45,5.15-3.8l3.8-5.85.55,3.45c.65,4.25,1.8,6.2,3.6,6.2,1.1,0,2.7-.85,4.3-2.3l2.45-2.2-.45-.95c-1.8,1.5-3.05,2.25-3.85,2.25s-1.4-.5-1.9-1.5a19.61,19.61,0,0,1-1.25-4.25l-.9-5.05,1.75-2.45c2.35-3.25,3.7-4.4,5.25-4.4a1.62,1.62,0,0,1,1.65,1.15l.7-.2.75-4.25a2.94,2.94,0,0,0-1.5-.5c-2,0-4,1.8-7.1,6.4l-1.85,2.75-.3-2.4c-.6-4.95-1.95-6.75-4.9-6.75a3.51,3.51,0,0,0-2.85,1.05l-2.9,4.15.85.5c1.5-1.7,2.5-2.4,3.45-2.4,1.65,0,2.75,2.05,3.6,6.95l.55,3.1-2,3.1c-2.15,3.35-3.85,4.95-5.25,4.95-.75,0-1.3-.2-1.4-.45l-.55-1.4-1,.15A24.68,24.68,0,0,1,370.92,500.17Z" transform="translate(0.25 0.25)"/>
  <g>
    <path class="cls-10" d="M65.72,476.13v-2.8H40.52v2.8Z" transform="translate(0.25 0.25)"/>
    <path class="cls-10" d="M80.77,452.18l-.6-.55a19.58,19.58,0,0,1-8,2.1l-.2,1h2.4c1.2,0,1.7.35,1.7,1.1a7.34,7.34,0,0,1-.15,1.3c-.55,2.75-4.2,22-5,24.5a22.61,22.61,0,0,0-1,5.05c0,1.25.55,2,1.5,2,1.3,0,3.1-1.05,8-4.7l-.5-.9-1.3.85a8.28,8.28,0,0,1-3,1.5c-.35,0-.65-.5-.65-1a7.39,7.39,0,0,1,.2-1.4Z" transform="translate(0.25 0.25)"/>
  </g>
  <path class="cls-10" d="M569.35,452.18l-.6-.55a19.58,19.58,0,0,1-8,2.1l-.2,1H563c1.2,0,1.7.35,1.7,1.1a7.34,7.34,0,0,1-.15,1.3c-.55,2.75-4.2,22-5,24.5a22.61,22.61,0,0,0-.95,5.05c0,1.25.55,2,1.5,2,1.3,0,3.1-1.05,8-4.7l-.5-.9-1.3.85a8.28,8.28,0,0,1-3,1.5c-.35,0-.65-.5-.65-1a7.39,7.39,0,0,1,.2-1.4Z" transform="translate(0.25 0.25)"/>
</svg>
