<svg id="Livello_1" data-name="Livello 1" xmlns="http://www.w3.org/2000/svg" xmlns:xlink="http://www.w3.org/1999/xlink" width="662.5" height="656.5" viewBox="0 0 662.5 656.5">
  <defs>
    <style>
      .cls-1, .cls-11, .cls-13, .cls-2, .cls-4, .cls-5, .cls-7 {
        fill: none;
      }

      .cls-2, .cls-3 {
        stroke: #d3d3d3;
        stroke-width: 0.5px;
      }

      .cls-3 {
        fill: url(#_.7883625370945024);
      }

      .cls-4, .cls-8 {
        stroke: red;
      }

      .cls-4 {
        stroke-width: 4px;
      }

      .cls-10, .cls-11, .cls-12, .cls-13, .cls-5, .cls-6, .cls-7, .cls-9 {
        stroke: #000;
      }

      .cls-5 {
        stroke-dasharray: 6 6;
      }

      .cls-8 {
        fill: red;
        stroke-width: 0.4px;
      }

      .cls-10, .cls-12, .cls-13, .cls-8, .cls-9 {
        stroke-miterlimit: 10;
      }

      .cls-9 {
        stroke-width: 0.32px;
      }

      .cls-10 {
        stroke-width: 0.24px;
      }

      .cls-11 {
        stroke-width: 2px;
      }

      .cls-12 {
        stroke-width: 0.2px;
      }

      .cls-13 {
        stroke-width: 0.06px;
      }
    </style>
    <pattern id="_.7883625370945024" data-name=".7883625370945024" width="10" height="10" patternTransform="matrix(1, 0, 0, -1, -2.75, 845.14)" patternUnits="userSpaceOnUse" viewBox="0 0 10 10">
      <rect class="cls-1" width="10" height="10"/>
      <path class="cls-2" d="M10,10H0V0"/>
    </pattern>
  </defs>
  <rect class="cls-3" x="0.25" y="0.25" width="662" height="656"/>
  <g>
    <path class="cls-4" d="M135.39,409.9a28.95,28.95,0,1,1,28.94,28.94A28.95,28.95,0,0,1,135.39,409.9Z" transform="translate(0.25 0.25)"/>
    <path class="cls-4" d="M489.39,409.9a28.95,28.95,0,1,1,28.94,28.94A28.95,28.95,0,0,1,489.39,409.9Z" transform="translate(0.25 0.25)"/>
    <path class="cls-4" d="M313.39,79.9a28.95,28.95,0,1,1,28.94,28.94A28.95,28.95,0,0,1,313.39,79.9Z" transform="translate(0.25 0.25)"/>
    <path class="cls-5" d="M342.33,79.9l-178,330" transform="translate(0.25 0.25)"/>
    <path class="cls-5" d="M166.33,409.9h354" transform="translate(0.25 0.25)"/>
    <path class="cls-5" d="M342.33,79.9l178,330" transform="translate(0.25 0.25)"/>
    <path class="cls-5" d="M342.33,79.9V409" transform="translate(0.25 0.25)"/>
    <path class="cls-5" d="M342,275,166.33,409.9" transform="translate(0.25 0.25)"/>
    <path class="cls-5" d="M342.67,275,518.33,409.9" transform="translate(0.25 0.25)"/>
    <path class="cls-6" d="M335.67,275a7,7,0,1,1,7,7A7,7,0,0,1,335.67,275Z" transform="translate(0.25 0.25)"/>
    <path class="cls-7" d="M483.09,411.75C453,405,465,375,489,385" transform="translate(0.25 0.25)"/>
  </g>
  <path class="cls-8" d="M179.61,412.89v-2.95h-12V398h-3v11.9h-12v2.95h12v12.05h3V412.89Z" transform="translate(0.25 0.25)"/>
  <path class="cls-8" d="M532.61,410.89v-2.95h-12V396h-3v11.9h-12v2.95h12v12.05h3V410.89Z" transform="translate(0.25 0.25)"/>
  <path class="cls-8" d="M356.61,80.89v-3h-12V66h-2.95v11.9h-12v3h12v12h2.95v-12Z" transform="translate(0.25 0.25)"/>
  <path class="cls-9" d="M305.8,262.64c0,7.76,4.28,12.08,11.92,12.08a16.52,16.52,0,0,0,10.28-3.4l.4-1.44-.4-.28c-3.76,2.28-5.84,3-9,3-6.28,0-9.72-3.84-9.72-11,0-5.52,2.28-13.76,11.4-13.76a12.18,12.18,0,0,1,7.16,2v3.36H329A27.11,27.11,0,0,1,330,247.4a20.84,20.84,0,0,0-7.8-1.64C315,245.76,305.8,250.88,305.8,262.64Z" transform="translate(0.25 0.25)"/>
  <path class="cls-9" d="M332.72,208.4a37.1,37.1,0,0,1,.64-4.44,1.8,1.8,0,0,0-.8-.24c-1.24,0-2.48,1-3.92,3a49.32,49.32,0,0,0-3.76,6l1.28-6.08a7.33,7.33,0,0,0,.24-1.68c0-.8-.32-1.28-.92-1.28-.84,0-2.36.84-5.32,3l-1.12.8.28.8,1.28-.84c1.12-.72,1.56-.92,1.92-.92s.68.36.68.88c0,2.32-1.72,10.56-3.32,15.68l.4.28a21.74,21.74,0,0,1,2.16-.52l.52-.08,1-4.8a17.52,17.52,0,0,1,3.4-7.72c1.36-1.76,2.44-2.6,3.32-2.6a1.65,1.65,0,0,1,1.44.76Z" transform="translate(0.25 0.25)"/>
  <path class="cls-9" d="M249,173.12l-.48-.44a15.67,15.67,0,0,1-6.4,1.68l-.16.84h1.92c1,0,1.36.28,1.36.88a5.88,5.88,0,0,1-.12,1c-.44,2.2-3.36,17.6-4,19.6a18.09,18.09,0,0,0-.76,4c0,1,.44,1.6,1.2,1.6,1,0,2.48-.84,6.4-3.76l-.4-.72-1,.68a6.63,6.63,0,0,1-2.44,1.2c-.28,0-.52-.4-.52-.8a5.91,5.91,0,0,1,.16-1.12Z" transform="translate(0.25 0.25)"/>
  <path class="cls-9" d="M439,172.12l-.48-.44a15.67,15.67,0,0,1-6.4,1.68l-.16.84h1.92c1,0,1.36.28,1.36.88a5.88,5.88,0,0,1-.12,1c-.44,2.2-3.36,17.6-4,19.6a18.09,18.09,0,0,0-.76,4c0,1,.44,1.6,1.2,1.6,1,0,2.48-.84,6.4-3.76l-.4-.72-1,.68a6.63,6.63,0,0,1-2.44,1.2c-.28,0-.52-.4-.52-.8a5.91,5.91,0,0,1,.16-1.12Z" transform="translate(0.25 0.25)"/>
  <g>
    <path class="cls-10" d="M412.84,419.34l-.36-.33a11.75,11.75,0,0,1-4.8,1.26l-.12.63H409c.72,0,1,.21,1,.66a4.41,4.41,0,0,1-.09.78c-.33,1.65-2.52,13.2-3,14.7a13.57,13.57,0,0,0-.57,3c0,.75.33,1.2.9,1.2.78,0,1.86-.63,4.8-2.82l-.3-.54-.78.51a5,5,0,0,1-1.83.9c-.21,0-.39-.3-.39-.6a4.44,4.44,0,0,1,.12-.84Z" transform="translate(0.25 0.25)"/>
    <path class="cls-10" d="M402.46,485.31v.78c5.61,0,5.61-.09,6.69-.09s1.08.09,6.87.09v-2.55c-3.45.15-4.83,0-10.38.15l5.46-5.79c2.91-3.09,3.81-4.74,3.81-7,0-3.45-2.34-5.58-6.15-5.58a6.46,6.46,0,0,0-5.1,2.1l-.51,4.08H404l.39-1.38c.48-1.74,1.56-2.49,3.57-2.49a3.92,3.92,0,0,1,4.23,4.17c0,2.25-1.26,4.47-4.65,8.07Z" transform="translate(0.25 0.25)"/>
    <line class="cls-11" x1="402.23" y1="454.77" x2="417.2" y2="454.77"/>
  </g>
  <path class="cls-9" d="M294.72,330.4a37.1,37.1,0,0,1,.64-4.44,1.8,1.8,0,0,0-.8-.24c-1.24,0-2.48,1-3.92,3a49.32,49.32,0,0,0-3.76,6l1.28-6.08a7.33,7.33,0,0,0,.24-1.68c0-.8-.32-1.28-.92-1.28-.84,0-2.36.84-5.32,3l-1.12.8.28.8,1.28-.84c1.12-.72,1.56-.92,1.92-.92s.68.36.68.88c0,2.32-1.72,10.56-3.32,15.68l.4.28a21.74,21.74,0,0,1,2.16-.52l.52-.08,1-4.8a17.52,17.52,0,0,1,3.4-7.72c1.36-1.76,2.44-2.6,3.32-2.6a1.65,1.65,0,0,1,1.44.76Z" transform="translate(0.25 0.25)"/>
  <path class="cls-9" d="M396.72,327.4a37.1,37.1,0,0,1,.64-4.44,1.8,1.8,0,0,0-.8-.24c-1.24,0-2.48,1-3.92,3a49.32,49.32,0,0,0-3.76,6l1.28-6.08a7.33,7.33,0,0,0,.24-1.68c0-.8-.32-1.28-.92-1.28-.84,0-2.36.84-5.32,3l-1.12.8.28.8,1.28-.84c1.12-.72,1.56-.92,1.92-.92s.68.36.68.88c0,2.32-1.72,10.56-3.32,15.68l.4.28a21.74,21.74,0,0,1,2.16-.52l.52-.08,1-4.8a17.52,17.52,0,0,1,3.4-7.72c1.36-1.76,2.44-2.6,3.32-2.6a1.65,1.65,0,0,1,1.44.76Z" transform="translate(0.25 0.25)"/>
  <path class="cls-9" d="M147.4,454.68a10.73,10.73,0,0,0-4-1c-3,0-6.52,3.52-7.24,4.32-1.6,1.88-3.16,7.72-3.16,11.84,0,2.36.48,3.56,1.44,3.56a5,5,0,0,0,2.92-1.2,24.31,24.31,0,0,0,7-7.6l-3,16.56a4.86,4.86,0,0,1-1.08,2.28l.36.56a28.78,28.78,0,0,1,3.44-.68,62.88,62.88,0,0,1,.76-6.36l3.44-18.24a33.08,33.08,0,0,1,1.08-4.72l-.56-.24Zm-10.68,16c-.56,0-.88-.84-.88-2.16,0-3.84,1.72-9.84,3.4-11.84a3.93,3.93,0,0,1,2.92-1,8.9,8.9,0,0,1,3.88,1.08l-.84,3.8C144,466,138.4,470.64,136.72,470.64Z" transform="translate(0.25 0.25)"/>
  <path class="cls-9" d="M545.4,450.68a10.73,10.73,0,0,0-4-1c-3,0-6.52,3.52-7.24,4.32-1.6,1.88-3.16,7.72-3.16,11.84,0,2.36.48,3.56,1.44,3.56a5,5,0,0,0,2.92-1.2,24.31,24.31,0,0,0,7-7.6l-3,16.56a4.86,4.86,0,0,1-1.08,2.28l.36.56a28.78,28.78,0,0,1,3.44-.68,62.88,62.88,0,0,1,.76-6.36l3.44-18.24a33.08,33.08,0,0,1,1.08-4.72l-.56-.24Zm-10.68,16c-.56,0-.88-.84-.88-2.16,0-3.84,1.72-9.84,3.4-11.84a3.93,3.93,0,0,1,2.92-1,8.9,8.9,0,0,1,3.88,1.08l-.84,3.8C542,462,536.4,466.64,534.72,466.64Z" transform="translate(0.25 0.25)"/>
  <path class="cls-9" d="M387.4,32.68a10.73,10.73,0,0,0-4-1c-3,0-6.52,3.52-7.24,4.32-1.6,1.88-3.16,7.72-3.16,11.84,0,2.36.48,3.56,1.44,3.56a5,5,0,0,0,2.92-1.2,24.31,24.31,0,0,0,7-7.6l-3,16.56a4.86,4.86,0,0,1-1.08,2.28l.36.56a28.78,28.78,0,0,1,3.44-.68,62.88,62.88,0,0,1,.76-6.36l3.44-18.24A33.08,33.08,0,0,1,389.28,32l-.56-.24Zm-10.68,16c-.56,0-.88-.84-.88-2.16,0-3.84,1.72-9.84,3.4-11.84a3.93,3.93,0,0,1,2.92-1A8.9,8.9,0,0,1,386,34.76l-.84,3.8C384,44,378.4,48.64,376.72,48.64Z" transform="translate(0.25 0.25)"/>
  <path class="cls-12" d="M441.55,391.4c0-3-2.67-3.55-3.85-3.75,2-1.55,2.75-2.7,2.75-4.17,0-2.23-1.85-3.7-4.62-3.7a5.12,5.12,0,0,0-4,1.67l-.72,3.1h.77l.45-1.4c.28-.85,1.85-1.7,3.15-1.7a3,3,0,0,1,2.95,2.9,3.38,3.38,0,0,1-3.25,3.45c-.2,0-.47,0-.8-.05l-.37,0-.3,1.32.17.15a4.67,4.67,0,0,1,2.1-.55c2.08,0,3.28,1.33,3.28,3.6,0,2.55-1.53,4.23-3.85,4.23a4.23,4.23,0,0,1-2.93-1.08,5.33,5.33,0,0,1-1.4-2.47l-.67.25a15.91,15.91,0,0,1,.87,3.67,10.62,10.62,0,0,0,3.35.65C437.68,397.5,441.55,394.83,441.55,391.4Zm7.5-11.62c-3.87,0-5.85,3.07-5.85,9.12,0,2.93.53,5.45,1.4,6.68a4.66,4.66,0,0,0,3.83,1.92c3.77,0,5.67-3.25,5.67-9.65C454.1,382.38,452.48,379.78,449.05,379.78Zm-.45.87c2.43,0,3.4,2.45,3.4,8.45,0,5.33-.95,7.53-3.25,7.53s-3.45-2.53-3.45-8.63C445.3,382.73,446.23,380.65,448.6,380.65Zm11.33-.87a3.75,3.75,0,0,0,0,7.5,3.75,3.75,0,1,0,0-7.5Zm0,1a2.75,2.75,0,1,1,0,5.5,2.75,2.75,0,0,1,0-5.5Z" transform="translate(0.25 0.25)"/>
  <g>
    <path class="cls-10" d="M274.84,418.34l-.36-.33a11.75,11.75,0,0,1-4.8,1.26l-.12.63H271c.72,0,1,.21,1,.66a4.41,4.41,0,0,1-.09.78c-.33,1.65-2.52,13.2-3,14.7a13.57,13.57,0,0,0-.57,3c0,.75.33,1.2.9,1.2.78,0,1.86-.63,4.8-2.82l-.3-.54-.78.51a5,5,0,0,1-1.83.9c-.21,0-.39-.3-.39-.6a4.44,4.44,0,0,1,.12-.84Z" transform="translate(0.25 0.25)"/>
    <path class="cls-10" d="M264.46,484.31v.78c5.61,0,5.61-.09,6.69-.09s1.08.09,6.87.09v-2.55c-3.45.15-4.83,0-10.38.15l5.46-5.79c2.91-3.09,3.81-4.74,3.81-7,0-3.45-2.34-5.58-6.15-5.58a6.46,6.46,0,0,0-5.1,2.1l-.51,4.08H266l.39-1.38c.48-1.74,1.56-2.49,3.57-2.49a3.92,3.92,0,0,1,4.23,4.17c0,2.25-1.26,4.47-4.65,8.07Z" transform="translate(0.25 0.25)"/>
    <line class="cls-11" x1="264.23" y1="453.77" x2="279.2" y2="453.77"/>
  </g>
  <g>
    <path class="cls-10" d="M166,592.05a27.83,27.83,0,0,1,.48-3.33,1.35,1.35,0,0,0-.6-.18c-.93,0-1.86.72-2.94,2.25a37,37,0,0,0-2.82,4.53l1-4.56a5.5,5.5,0,0,0,.18-1.26c0-.6-.24-1-.69-1-.63,0-1.77.63-4,2.22l-.84.6.21.6,1-.63c.84-.54,1.17-.69,1.44-.69s.51.27.51.66a64,64,0,0,1-2.49,11.76l.3.21a16.3,16.3,0,0,1,1.62-.39l.39-.06.78-3.6a13.14,13.14,0,0,1,2.55-5.79c1-1.32,1.83-1.95,2.49-1.95a1.24,1.24,0,0,1,1.08.57Z" transform="translate(0.25 0.25)"/>
    <path class="cls-10" d="M184.59,593.67A15.23,15.23,0,0,1,185,590a4.33,4.33,0,0,0-3.6-1.89c-3.72,0-8,4.08-8,8.19,0,.15,0,.27,0,.42a6.61,6.61,0,0,0,6.87,6.9c1.56,0,3.81-.57,4.11-1l.63-1-.3-.45a6.34,6.34,0,0,1-3.15.87c-3.33,0-5.52-2.58-5.52-6.54,0-3.21,1.5-5,4.2-5a4.43,4.43,0,0,1,3.3,1.35l.21,1.83Zm9.69-4.74c-4.38,0-7.41,3.09-7.41,7.56,0,4.23,2.67,7.11,6.54,7.11a7.52,7.52,0,0,0,7.92-7.71A6.75,6.75,0,0,0,194.28,588.93Zm-.54,1c2.76,0,4.8,3,4.8,7.08,0,3.45-1.53,5.61-4,5.61-2.94,0-4.92-2.88-4.92-7.14C189.66,591.87,191.1,589.92,193.74,589.92Zm9.75,8.79a18.57,18.57,0,0,1-.33,4.17,12.37,12.37,0,0,0,4.11.72c3.93,0,6.72-2.1,6.72-5,0-5.19-8.52-2.4-8.52-6.3,0-1.5,1.05-2.34,2.88-2.34,2,0,3.54,1.05,3.54,2.46v.69h.84c0-1.74.06-2.46.15-3.39a11.38,11.38,0,0,0-3.9-.75c-3.48,0-5.61,1.65-5.61,4.35a3.16,3.16,0,0,0,2,3.09c3.54,1.56,6.36.78,6.36,3.36,0,1.62-1.5,2.76-3.63,2.76s-3.75-1-3.75-2.55v-1.23Z" transform="translate(0.25 0.25)"/>
    <path class="cls-10" d="M219.33,595c0-7.8,2.91-11,4.65-13l-.57-.78a17.26,17.26,0,0,0-6.66,13.8,18.86,18.86,0,0,0,2.19,8.94,18.39,18.39,0,0,0,4.47,5.49l.57-.63C222.6,607.11,219.33,603.45,219.33,595Z" transform="translate(0.25 0.25)"/>
    <path class="cls-10" d="M238.78,596.28c0-3.63-3.21-4.26-4.62-4.5,2.4-1.86,3.3-3.24,3.3-5,0-2.67-2.22-4.44-5.55-4.44a6.14,6.14,0,0,0-4.83,2l-.87,3.72h.93l.54-1.68c.33-1,2.22-2,3.78-2a3.53,3.53,0,0,1,3.54,3.48,4.06,4.06,0,0,1-3.9,4.14c-.24,0-.57,0-1-.06l-.45,0-.36,1.59.21.18a5.51,5.51,0,0,1,2.52-.66c2.49,0,3.93,1.59,3.93,4.32,0,3.06-1.83,5.07-4.62,5.07a5.06,5.06,0,0,1-3.51-1.29,6.37,6.37,0,0,1-1.68-3l-.81.3a18.93,18.93,0,0,1,1,4.41,12.68,12.68,0,0,0,4,.78C234.13,603.6,238.78,600.39,238.78,596.28Zm9-13.95c-4.65,0-7,3.69-7,10.95,0,3.51.63,6.54,1.68,8A5.56,5.56,0,0,0,247,603.6c4.53,0,6.81-3.9,6.81-11.58C253.84,585.45,251.89,582.33,247.78,582.33Zm-.54,1c2.91,0,4.08,2.94,4.08,10.14,0,6.39-1.14,9-3.9,9s-4.14-3-4.14-10.35C243.28,585.87,244.39,583.38,247.24,583.38Zm13.59-1a4.5,4.5,0,0,0,0,9,4.5,4.5,0,1,0,0-9Zm0,1.2a3.3,3.3,0,1,1,0,6.6,3.3,3.3,0,0,1,0-6.6Z" transform="translate(0.25 0.25)"/>
    <path class="cls-10" d="M268.39,581.22l-.57.78c1.65,1.92,4.65,5.22,4.65,13,0,8.28-3.12,11.91-4.65,13.8l.57.63a18.43,18.43,0,0,0,6.66-14.4A17.28,17.28,0,0,0,268.39,581.22Z" transform="translate(0.25 0.25)"/>
    <path class="cls-10" d="M296.63,603" transform="translate(0.25 0.25)"/>
    <path class="cls-10" d="M311.4,592.59v-1.77H295.23v1.77Zm0,6.39v-1.77H295.23V599Z" transform="translate(0.25 0.25)"/>
    <path class="cls-10" d="M342.11,603" transform="translate(0.25 0.25)"/>
    <g>
      <path class="cls-10" d="M343.62,560.34l-.36-.33a11.75,11.75,0,0,1-4.8,1.26l-.12.63h1.44c.72,0,1,.21,1,.66a4.41,4.41,0,0,1-.09.78c-.33,1.65-2.52,13.2-3,14.7a13.57,13.57,0,0,0-.57,3c0,.75.33,1.2.9,1.2.78,0,1.86-.63,4.8-2.82l-.3-.54-.78.51a5,5,0,0,1-1.83.9c-.21,0-.39-.3-.39-.6a4.44,4.44,0,0,1,.12-.84Z" transform="translate(0.25 0.25)"/>
      <path class="cls-10" d="M333.25,626.31v.78c5.61,0,5.61-.09,6.69-.09s1.08.09,6.87.09v-2.55c-3.45.15-4.83,0-10.38.15l5.46-5.79c2.91-3.09,3.81-4.74,3.81-7,0-3.45-2.34-5.58-6.15-5.58a6.46,6.46,0,0,0-5.1,2.1l-.51,4.08h.87l.39-1.38c.48-1.74,1.56-2.49,3.57-2.49a3.92,3.92,0,0,1,4.23,4.17c0,2.25-1.26,4.47-4.65,8.07Z" transform="translate(0.25 0.25)"/>
      <line class="cls-11" x1="333.02" y1="595.77" x2="347.98" y2="595.77"/>
    </g>
    <path class="cls-10" d="M361.65,593.94v1.77h38l-3.75,4.56,1,1,6.21-6.51-6.21-6.42-1,1,3.75,4.56Z" transform="translate(0.25 0.25)"/>
    <path class="cls-10" d="M425.1,592.05a27.83,27.83,0,0,1,.48-3.33,1.35,1.35,0,0,0-.6-.18c-.93,0-1.86.72-2.94,2.25a37,37,0,0,0-2.82,4.53l1-4.56a5.5,5.5,0,0,0,.18-1.26c0-.6-.24-1-.69-1-.63,0-1.77.63-4,2.22l-.84.6.21.6,1-.63c.84-.54,1.17-.69,1.44-.69s.51.27.51.66a64,64,0,0,1-2.49,11.76l.3.21a16.3,16.3,0,0,1,1.62-.39l.39-.06.78-3.6a13.14,13.14,0,0,1,2.55-5.79c1-1.32,1.83-1.95,2.49-1.95a1.24,1.24,0,0,1,1.08.57Z" transform="translate(0.25 0.25)"/>
    <path class="cls-10" d="M452.81,592.59v-1.77H436.64v1.77Zm0,6.39v-1.77H436.64V599Z" transform="translate(0.25 0.25)"/>
    <g>
      <path class="cls-10" d="M492.56,560.34l-.36-.33a11.75,11.75,0,0,1-4.8,1.26l-.12.63h1.44c.72,0,1,.21,1,.66a4.41,4.41,0,0,1-.09.78c-.33,1.65-2.52,13.2-3,14.7a13.57,13.57,0,0,0-.57,3c0,.75.33,1.2.9,1.2.78,0,1.86-.63,4.8-2.82l-.3-.54-.78.51a5,5,0,0,1-1.83.9c-.21,0-.39-.3-.39-.6a4.44,4.44,0,0,1,.12-.84Z" transform="translate(0.25 0.25)"/>
      <g>
        <path class="cls-10" d="M510.55,630.28c0-3.63-3.21-4.26-4.62-4.5,2.4-1.86,3.3-3.24,3.3-5,0-2.67-2.22-4.44-5.55-4.44a6.14,6.14,0,0,0-4.83,2l-.87,3.72h.93l.54-1.68c.33-1,2.22-2,3.78-2a3.53,3.53,0,0,1,3.54,3.48,4.06,4.06,0,0,1-3.9,4.14c-.24,0-.57,0-1-.06l-.45,0-.36,1.59.21.18a5.51,5.51,0,0,1,2.52-.66c2.49,0,3.93,1.59,3.93,4.32,0,3.06-1.83,5.07-4.62,5.07a5.06,5.06,0,0,1-3.51-1.29,6.37,6.37,0,0,1-1.68-3l-.81.3a18.93,18.93,0,0,1,1.05,4.41,12.68,12.68,0,0,0,4,.78C505.9,637.6,510.55,634.39,510.55,630.28Z" transform="translate(0.25 0.25)"/>
        <polygon points="467.57 621.9 475.4 617.71 484 635.95 495.83 604.27 511.92 604.27 511.92 606.13 497.04 606.13 483.15 643.6 472.42 621.12 468.07 622.75 467.57 621.9"/>
      </g>
      <line class="cls-11" x1="466.95" y1="595.77" x2="511.92" y2="595.77"/>
    </g>
    <path class="cls-13" d="M534.46,603" transform="translate(0.25 0.25)"/>
  </g>
</svg>
