<svg id="Livello_1" data-name="Livello 1" xmlns="http://www.w3.org/2000/svg" xmlns:xlink="http://www.w3.org/1999/xlink" width="662.5" height="440.5" viewBox="0 0 662.5 440.5">
  <defs>
    <style>
      .cls-1, .cls-10, .cls-11, .cls-12, .cls-2, .cls-4, .cls-5, .cls-6, .cls-7 {
        fill: none;
      }

      .cls-2, .cls-3 {
        stroke: #d3d3d3;
        stroke-width: 0.5px;
      }

      .cls-3 {
        fill: url(#_.9600461161706699);
      }

      .cls-14, .cls-4, .cls-5 {
        stroke: red;
      }

      .cls-10, .cls-12, .cls-4, .cls-6, .cls-7 {
        stroke-width: 3px;
      }

      .cls-4 {
        stroke-dasharray: 3.38 4.02;
      }

      .cls-5, .cls-9 {
        stroke-width: 4px;
      }

      .cls-10, .cls-11, .cls-15, .cls-16, .cls-17, .cls-6, .cls-9 {
        stroke: #000;
      }

      .cls-18, .cls-19, .cls-7 {
        stroke: #7ed321;
      }

      .cls-18, .cls-19, .cls-8 {
        fill: #7ed321;
      }

      .cls-10 {
        stroke-dasharray: 9 6;
      }

      .cls-12, .cls-20 {
        stroke: #4a90e2;
      }

      .cls-13, .cls-20 {
        fill: #4a90e2;
      }

      .cls-14 {
        fill: red;
      }

      .cls-14, .cls-15, .cls-16, .cls-17, .cls-18, .cls-19, .cls-20 {
        stroke-miterlimit: 10;
      }

      .cls-14, .cls-15 {
        stroke-width: 0.4px;
      }

      .cls-16, .cls-18, .cls-20 {
        stroke-width: 0.24px;
      }

      .cls-17, .cls-19 {
        stroke-width: 0.17px;
      }
    </style>
    <pattern id="_.9600461161706699" data-name=".9600461161706699" width="10" height="10" patternTransform="matrix(1, 0, 0, -1, -2.75, 843.14)" patternUnits="userSpaceOnUse" viewBox="0 0 10 10">
      <rect class="cls-1" width="10" height="10"/>
      <path class="cls-2" d="M10,10H0V0"/>
    </pattern>
  </defs>
  <rect class="cls-3" x="0.25" y="0.25" width="662" height="440"/>
  <g>
    <path class="cls-4" d="M72.42,360.11C217.85,237.41,119,106.76,613.22,148.79" transform="translate(0.25 0.25)"/>
    <path class="cls-5" d="M270.39,272.9a28.95,28.95,0,1,1,28.94,28.94A28.95,28.95,0,0,1,270.39,272.9Z" transform="translate(0.25 0.25)"/>
    <g>
      <path class="cls-6" d="M408.26,142.38l95.44.7" transform="translate(0.25 0.25)"/>
      <path d="M494.36,149.87l14.34-6.76-14.24-7Z" transform="translate(0.25 0.25)"/>
    </g>
    <g>
      <path class="cls-7" d="M328.05,259,608.56,150.6" transform="translate(0.25 0.25)"/>
      <path class="cls-8" d="M602.37,160.34l10.85-11.55-15.8-1.24Z" transform="translate(0.25 0.25)"/>
    </g>
    <path class="cls-9" d="M66.63,360.11a5.79,5.79,0,1,1,5.79,5.79A5.8,5.8,0,0,1,66.63,360.11Z" transform="translate(0.25 0.25)"/>
    <path class="cls-9" d="M607.43,148.79a5.79,5.79,0,1,1,5.79,5.79A5.79,5.79,0,0,1,607.43,148.79Z" transform="translate(0.25 0.25)"/>
    <g>
      <path class="cls-7" d="M77.1,358.34l193-73.21" transform="translate(0.25 0.25)"/>
      <path class="cls-8" d="M83.35,348.63,72.42,360.11l15.8,1.35Z" transform="translate(0.25 0.25)"/>
    </g>
    <path class="cls-5" d="M386.27,142.38a22,22,0,1,1,22,22A22,22,0,0,1,386.27,142.38Z" transform="translate(0.25 0.25)"/>
    <path class="cls-10" d="M408.26,142.38,299.33,272.9" transform="translate(0.25 0.25)"/>
    <g>
      <path class="cls-6" d="M408.26,142.38l74.8-104.27" transform="translate(0.25 0.25)"/>
      <path d="M483.22,49.65,486,34l-13.9,7.62Z" transform="translate(0.25 0.25)"/>
    </g>
    <path class="cls-11" d="M427.82,112.9c14.76-3.25,40,2.95,12.21,29.06" transform="translate(0.25 0.25)"/>
    <path class="cls-10" d="M408.26,142.38l31.5,74.11" transform="translate(0.25 0.25)"/>
    <g>
      <path class="cls-12" d="M439.76,216.49l75.66-30.6" transform="translate(0.25 0.25)"/>
      <path class="cls-13" d="M509.38,195.73,520.06,184l-15.82-1Z" transform="translate(0.25 0.25)"/>
    </g>
    <path class="cls-10" d="M504.31,147l15.75,37" transform="translate(0.25 0.25)"/>
  </g>
  <path class="cls-14" d="M313.61,273.89v-2.95h-12V259h-2.95v11.9h-12v2.95h12v12.05h2.95V273.89Z" transform="translate(0.25 0.25)"/>
  <path class="cls-15" d="M36.18,385c0,.8-.75,1.25-2.15,1.35l-2.2.15v1.4c5.1-.15,5.1-.15,6.1-.15s1,0,6.1.15v-1.4l-1.3-.15c-2.35-.35-2.4-.35-2.8-2.6l-4.35-31.25h-2.3L14.63,382.17c-1.8,2.8-2.7,3.6-4.4,4l-1,.25v1.5c4.6-.15,4.6-.15,5.6-.15s1.05,0,5.35.15v-1.4l-2.6-.15c-.8-.05-1.55-.5-1.55-.95s.35-1.1,1.3-2.75l5.1-8.75h12.3l1.25,9.4v.15A9.76,9.76,0,0,1,36.18,385Zm-3.55-27.3,1.85,14.4H23.68Z" transform="translate(0.25 0.25)"/>
  <path class="cls-15" d="M651.1,172.6c0-5.5-4.2-6.3-8.3-6.9,2.85-1,4.1-1.6,5.65-3a8.85,8.85,0,0,0,3.45-6.85c0-4.1-2.9-6.5-7.9-6.5-.1,0-.6,0-1.35.05l-3.15,0c-.6.05-2.4.05-3,.05-1,0-2.5-.05-5-.1l-2.6-.05-.15,1.4,2.65.1c1.2.05,1.75.45,1.75,1.35a30.86,30.86,0,0,1-.45,3.8l-4.35,25.2c-.2.9-.8,1.25-2.9,1.6l-.25,1.3,1.85,0c1.35-.1,2.1-.1,2.7-.1s1.85.05,3.15.1l1.85,0,1,.05c1,0,1.6.1,2,.1C643.55,184.25,651.1,179.6,651.1,172.6Zm-18.85,9.3,2.55-15h4.25c5.15,0,7.65,2.1,7.65,6.45a8.46,8.46,0,0,1-8.65,8.85C635.35,182.25,634.3,182.05,632.25,181.9Zm9.3-30.7c4.05,0,6.05,1.8,6.05,5.55,0,5.25-3.7,8.4-9.9,8.4h-2.6l2.45-13.7C638.35,151.45,640.4,151.2,641.55,151.2Z" transform="translate(0.25 0.25)"/>
  <g>
    <path class="cls-16" d="M445,38.31h3.51l4,.12.57-1.35-.12-.21c-2.43.12-4.23.18-6.57.18h-1.11l1.41-8.1c1,0,3.45-.12,4.11-.12,1.86,0,3.09.27,3.12.72l.24,2.67h.72a20.27,20.27,0,0,1,.63-4.56c-.63-.06-1.53-.09-2.07-.09-.09,0-.42,0-1.14,0l-3.6,0c-.27,0-5.49,0-5.79,0l-1.35,0-.09.84,1.62.06c.72,0,1.05.27,1.05.81a18.52,18.52,0,0,1-.27,2.28l-2.61,15.12c-.12.54-.48.75-1.8,1l-.15.78,1.23,0c.93,0,2.79-.06,3.39-.06l6.75.09c.42,0,1.17,0,2.16-.06l1,0,.12-1.08c.06-.6.21-1.5.48-3l.15-.78h-.81l-.48,1.8c-.3,1.08-.57,1.44-1.23,1.59a34.72,34.72,0,0,1-4.41.27,40.28,40.28,0,0,1-4.11-.21Z" transform="translate(0.25 0.25)"/>
    <path d="M458.19,16.89,452.63,11l-.86.92,3.4,4.1h-.27v1.59h.27l-3.4,4.1.86.92Zm-16.81.67h16V16h-16Z" transform="translate(0.25 0.25)"/>
  </g>
  <g>
    <path class="cls-16" d="M524.08,107.43l-.36-.33a11.75,11.75,0,0,1-4.8,1.26l-.12.63h1.44c.72,0,1,.21,1,.72a5.37,5.37,0,0,1-.06.72l-.84,4.62a8.63,8.63,0,0,0-2.46-.42c-2.07,0-4.89,2.16-6.27,4.77a16.57,16.57,0,0,0-1.53,7.11c0,2,.45,2.91,1.32,2.91a5.35,5.35,0,0,0,2.94-1.32,21.22,21.22,0,0,0,4.62-5.52l-.69,2.73a13,13,0,0,0-.48,3.06c0,.63.27,1,.78,1a4.53,4.53,0,0,0,2.25-1.11l2.43-1.8-.3-.57-1.32.93a2.51,2.51,0,0,1-1.17.51c-.24,0-.42-.27-.42-.69a5.82,5.82,0,0,1,.24-1.38ZM513,127.32c-.48,0-.75-.42-.75-1.17,0-3.78,1.38-8.46,2.85-9.6a2.84,2.84,0,0,1,1.77-.45,6.3,6.3,0,0,1,3.18.69l-.36,1.77C518.59,124,514.36,127.32,513,127.32Z" transform="translate(0.25 0.25)"/>
    <g>
      <path class="cls-16" d="M527.16,124.65a26.59,26.59,0,0,1-.66,4,7.36,7.36,0,0,0,3.21.81,6.94,6.94,0,0,0,4.38-1.74,4.57,4.57,0,0,0,2.16-3.81c0-1.62-1-2.49-3.18-2.91l-1.29-.24c-1.8-.33-2.37-.84-2.37-2.07a2.91,2.91,0,0,1,3.06-2.82,3.33,3.33,0,0,1,2.85,1.35v1.65H536a30.54,30.54,0,0,1,.57-3.39,6.45,6.45,0,0,0-3-.81,7.34,7.34,0,0,0-4.83,2.34,3.47,3.47,0,0,0-1.11,2.64c0,1.68.93,2.64,2.91,3l1.89.36c1.32.24,1.8.78,1.8,2a3.2,3.2,0,0,1-3.51,3.27,4.17,4.17,0,0,1-2.82-1v-2.52Z" transform="translate(0.25 0.25)"/>
      <path d="M541,103.65l-5.56-5.86-.86.92,3.4,4.1h-.27v1.59H538l-3.4,4.1.86.92Zm-13.5.67h12.69v-1.59H527.53Z" transform="translate(0.25 0.25)"/>
    </g>
  </g>
  <g>
    <path class="cls-16" d="M359.88,107a8,8,0,0,0-3-.72c-2.25,0-4.89,2.64-5.43,3.24-1.2,1.41-2.37,5.79-2.37,8.88,0,1.77.36,2.67,1.08,2.67a3.76,3.76,0,0,0,2.19-.9,18.23,18.23,0,0,0,5.25-5.7l-2.28,12.42a3.64,3.64,0,0,1-.81,1.71l.27.42a21.59,21.59,0,0,1,2.58-.51,47.16,47.16,0,0,1,.57-4.77L360.48,110a24.81,24.81,0,0,1,.81-3.54l-.42-.18Zm-8,12c-.42,0-.66-.63-.66-1.62,0-2.88,1.29-7.38,2.55-8.88a2.94,2.94,0,0,1,2.19-.72,6.67,6.67,0,0,1,2.91.81l-.63,2.85C357.36,115.47,353.13,118.92,351.87,118.92Z" transform="translate(0.25 0.25)"/>
    <path class="cls-17" d="M368.6,111.5c-3.25,0-4.91,2.58-4.91,7.66,0,2.46.44,4.58,1.17,5.61a3.9,3.9,0,0,0,3.22,1.62c3.17,0,4.76-2.73,4.76-8.11C372.84,113.68,371.48,111.5,368.6,111.5Zm-.38.73c2,0,2.86,2.06,2.86,7.1,0,4.48-.8,6.32-2.73,6.32s-2.9-2.12-2.9-7.24C365.45,114,366.23,112.23,368.22,112.23Z" transform="translate(0.25 0.25)"/>
  </g>
  <path class="cls-14" d="M421.54,142.11v-3h-12v-11.9h-3v11.9h-12v3h12v12h3v-12Z" transform="translate(0.25 0.25)"/>
  <path class="cls-16" d="M282.61,316.32a8,8,0,0,0-3-.72c-2.25,0-4.89,2.64-5.43,3.24-1.2,1.41-2.37,5.79-2.37,8.88,0,1.77.36,2.67,1.08,2.67a3.76,3.76,0,0,0,2.19-.9,18.23,18.23,0,0,0,5.25-5.7L278,336.21a3.64,3.64,0,0,1-.81,1.71l.27.42a21.59,21.59,0,0,1,2.58-.51,47.16,47.16,0,0,1,.57-4.77l2.58-13.68a24.81,24.81,0,0,1,.81-3.54l-.42-.18Zm-8,12c-.42,0-.66-.63-.66-1.62,0-2.88,1.29-7.38,2.55-8.88a2.94,2.94,0,0,1,2.19-.72,6.67,6.67,0,0,1,2.91.81l-.63,2.85C280.09,324.84,275.86,328.29,274.6,328.29Z" transform="translate(0.25 0.25)"/>
  <path class="cls-16" d="M467,126.43c7.08,0,10.05-10,10.17-15.6.06-3.42-.9-5.94-4.71-5.94-7.8,0-10.41,8.7-10.5,15.09C461.93,123.55,463,126.43,467,126.43ZM472,105.67c4.05,0,3.15,5.55,2.52,8.85H465C465.74,111.4,468.08,105.67,472,105.67Zm-4.44,19.89c-4.53,0-3.18-7.44-2.7-10.08h9.48C473.54,118.84,471.8,125.56,467.51,125.56Z" transform="translate(0.25 0.25)"/>
  <g>
    <path class="cls-18" d="M148,369.71a27.83,27.83,0,0,1,.48-3.33,1.35,1.35,0,0,0-.6-.18c-.93,0-1.86.72-2.94,2.25A37,37,0,0,0,142.1,373l1-4.56a5.5,5.5,0,0,0,.18-1.26c0-.6-.24-1-.69-1-.63,0-1.77.63-4,2.22l-.84.6.21.6,1-.63c.84-.54,1.17-.69,1.44-.69s.51.27.51.66a64,64,0,0,1-2.49,11.76l.3.21a16.3,16.3,0,0,1,1.62-.39l.39-.06.78-3.6a13.14,13.14,0,0,1,2.55-5.79c1-1.32,1.83-1.95,2.49-1.95a1.24,1.24,0,0,1,1.08.57Z" transform="translate(0.25 0.25)"/>
    <path class="cls-19" d="M161.38,384.78c0,.34-.32.53-.91.57l-.92.06V386l2.56-.06,2.56.06v-.59l-.54-.06c-1-.15-1-.15-1.18-1.09l-1.83-13.13h-1l-7.84,12.46c-.75,1.17-1.13,1.51-1.84,1.68l-.42.1V386c1.93-.06,1.93-.06,2.35-.06s.44,0,2.25.06v-.59l-1.1-.06c-.33,0-.65-.21-.65-.4a3.44,3.44,0,0,1,.55-1.15l2.14-3.68h5.17l.52,3.95v.06A3.86,3.86,0,0,1,161.38,384.78Zm-1.5-11.46.78,6h-4.53Z" transform="translate(0.25 0.25)"/>
  </g>
  <g>
    <path class="cls-18" d="M578.37,192.46a27.83,27.83,0,0,1,.48-3.33,1.35,1.35,0,0,0-.6-.18c-.93,0-1.86.72-2.94,2.25a37,37,0,0,0-2.82,4.53l1-4.56a5.5,5.5,0,0,0,.18-1.26c0-.6-.24-1-.69-1-.63,0-1.77.63-4,2.22l-.84.6.21.6,1-.63c.84-.54,1.17-.69,1.44-.69s.51.27.51.66a64,64,0,0,1-2.49,11.76l.3.21a16.3,16.3,0,0,1,1.62-.39l.39-.06.78-3.6a13.14,13.14,0,0,1,2.55-5.79c1-1.32,1.83-2,2.49-2a1.24,1.24,0,0,1,1.08.57Z" transform="translate(0.25 0.25)"/>
    <path class="cls-19" d="M591.26,203.92c0-2.31-1.76-2.65-3.48-2.9a6,6,0,0,0,2.37-1.26,3.7,3.7,0,0,0,1.45-2.87c0-1.73-1.22-2.73-3.32-2.73l-.57,0-1.32,0c-.25,0-1,0-1.26,0l-2.08,0-1.09,0-.06.58,1.11,0c.5,0,.73.18.73.56a13.5,13.5,0,0,1-.18,1.6l-1.83,10.58c-.09.38-.34.53-1.22.67l-.1.55.77,0c.57,0,.88,0,1.14,0l1.32,0,.78,0,.42,0,.84,0C588.09,208.81,591.26,206.86,591.26,203.92Zm-7.91,3.91,1.07-6.28h1.78c2.16,0,3.21.88,3.21,2.71a3.55,3.55,0,0,1-3.63,3.71C584.65,208,584.21,207.89,583.35,207.83Zm3.9-12.9c1.7,0,2.54.76,2.54,2.33,0,2.21-1.55,3.53-4.16,3.53h-1.09l1-5.75C585.91,195,586.77,194.93,587.25,194.93Z" transform="translate(0.25 0.25)"/>
  </g>
  <g>
    <path class="cls-20" d="M490.57,220.09l-.36-.33a11.75,11.75,0,0,1-4.8,1.26l-.12.63h1.44c.72,0,1,.21,1,.72a5.37,5.37,0,0,1-.06.72l-.84,4.62a8.63,8.63,0,0,0-2.46-.42c-2.07,0-4.89,2.16-6.27,4.77a16.57,16.57,0,0,0-1.53,7.11c0,2,.45,2.91,1.32,2.91a5.35,5.35,0,0,0,2.94-1.32,21.22,21.22,0,0,0,4.62-5.52l-.69,2.73a13,13,0,0,0-.48,3.06c0,.63.27,1,.78,1a4.53,4.53,0,0,0,2.25-1.11l2.43-1.8-.3-.57-1.32.93A2.51,2.51,0,0,1,487,240c-.24,0-.42-.27-.42-.69a5.82,5.82,0,0,1,.24-1.38ZM479.5,240c-.48,0-.75-.42-.75-1.17,0-3.78,1.38-8.46,2.85-9.6a2.84,2.84,0,0,1,1.77-.45,6.3,6.3,0,0,1,3.18.69l-.36,1.77C485.08,236.62,480.85,240,479.5,240Z" transform="translate(0.25 0.25)"/>
    <g>
      <path class="cls-20" d="M503.76,230.8a27.83,27.83,0,0,1,.48-3.33,1.35,1.35,0,0,0-.6-.18c-.93,0-1.86.72-2.94,2.25a37,37,0,0,0-2.82,4.53l1-4.56a5.5,5.5,0,0,0,.18-1.26c0-.6-.24-1-.69-1-.63,0-1.77.63-4,2.22l-.84.6.21.6,1-.63c.84-.54,1.17-.69,1.44-.69s.51.27.51.66a64,64,0,0,1-2.49,11.76l.3.21a16.3,16.3,0,0,1,1.62-.39l.39-.06.78-3.6a13.14,13.14,0,0,1,2.55-5.79c1-1.32,1.83-2,2.49-2a1.24,1.24,0,0,1,1.08.57Z" transform="translate(0.25 0.25)"/>
      <path class="cls-13" d="M507.52,216.31,502,210.45l-.86.92,3.4,4.1h-.27v1.59h.27l-3.4,4.1.86.92ZM494,217h12.69v-1.59H494Z" transform="translate(0.25 0.25)"/>
    </g>
  </g>
</svg>
