<svg id="Livello_1" data-name="Livello 1" xmlns="http://www.w3.org/2000/svg" xmlns:xlink="http://www.w3.org/1999/xlink" width="662.5" height="536.5" viewBox="0 0 662.5 536.5">
  <defs>
    <style>
      .cls-1, .cls-2, .cls-4, .cls-5, .cls-6 {
        fill: none;
      }

      .cls-2, .cls-3 {
        stroke: #d3d3d3;
        stroke-width: 0.5px;
      }

      .cls-3 {
        fill: url(#_.7883625370945024);
      }

      .cls-4, .cls-7 {
        stroke: red;
      }

      .cls-4 {
        stroke-width: 4px;
      }

      .cls-5, .cls-6, .cls-8, .cls-9 {
        stroke: #000;
      }

      .cls-5 {
        stroke-dasharray: 6 6;
      }

      .cls-6 {
        stroke-width: 3px;
      }

      .cls-7 {
        fill: red;
        stroke-width: 0.4px;
      }

      .cls-7, .cls-8, .cls-9 {
        stroke-miterlimit: 10;
      }

      .cls-8 {
        stroke-width: 0.32px;
      }

      .cls-9 {
        stroke-width: 0.22px;
      }
    </style>
    <pattern id="_.7883625370945024" data-name=".7883625370945024" width="10" height="10" patternTransform="matrix(1, 0, 0, -1, -2.75, 845.14)" patternUnits="userSpaceOnUse" viewBox="0 0 10 10">
      <rect class="cls-1" width="10" height="10"/>
      <path class="cls-2" d="M10,10H0V0"/>
    </pattern>
  </defs>
  <rect class="cls-3" x="0.25" y="0.25" width="662" height="536"/>
  <g>
    <path class="cls-4" d="M119.39,417.9a28.95,28.95,0,1,1,28.94,28.94A28.95,28.95,0,0,1,119.39,417.9Z" transform="translate(0.25 0.25)"/>
    <path class="cls-4" d="M473.39,417.9a28.95,28.95,0,1,1,28.94,28.94A28.95,28.95,0,0,1,473.39,417.9Z" transform="translate(0.25 0.25)"/>
    <path class="cls-4" d="M297.39,87.9a28.95,28.95,0,1,1,28.94,28.94A28.95,28.95,0,0,1,297.39,87.9Z" transform="translate(0.25 0.25)"/>
    <path class="cls-5" d="M326.33,87.9l-178,330" transform="translate(0.25 0.25)"/>
    <path class="cls-5" d="M150.33,417.9h354" transform="translate(0.25 0.25)"/>
    <path class="cls-5" d="M326.33,87.9l178,330" transform="translate(0.25 0.25)"/>
    <path class="cls-5" d="M326.33,87.9V282" transform="translate(0.25 0.25)"/>
    <path class="cls-5" d="M326,283,150.33,417.9" transform="translate(0.25 0.25)"/>
    <path class="cls-5" d="M326.67,283,502.33,417.9" transform="translate(0.25 0.25)"/>
    <path class="cls-4" d="M297.06,283A28.94,28.94,0,1,1,326,311.94,28.93,28.93,0,0,1,297.06,283Z" transform="translate(0.25 0.25)"/>
    <g>
      <path class="cls-6" d="M326.31,281.93c47.58-121.16,159.26,38.69,206.84-82.48" transform="translate(0.25 0.25)"/>
      <path d="M415.42,244.29l15.5-3.31-12.27-10Z" transform="translate(0.25 0.25)"/>
    </g>
    <path class="cls-4" d="M504.2,199.45a28.95,28.95,0,1,1,28.95,29A28.95,28.95,0,0,1,504.2,199.45Z" transform="translate(0.25 0.25)"/>
  </g>
  <path class="cls-7" d="M163.61,420.89v-2.95h-12V406h-3v11.9h-12v2.95h12v12.05h3V420.89Z" transform="translate(0.25 0.25)"/>
  <path class="cls-7" d="M516.61,418.89v-2.95h-12V404h-2.95v11.9h-12v2.95h12v12.05h2.95V418.89Z" transform="translate(0.25 0.25)"/>
  <path class="cls-7" d="M340.61,88.89v-3h-12V74h-2.95v11.9h-12v3h12v12h2.95v-12Z" transform="translate(0.25 0.25)"/>
  <g>
    <path class="cls-8" d="M131.4,462.68a10.73,10.73,0,0,0-4-1c-3,0-6.52,3.52-7.24,4.32-1.6,1.88-3.16,7.72-3.16,11.84,0,2.36.48,3.56,1.44,3.56a5,5,0,0,0,2.92-1.2,24.31,24.31,0,0,0,7-7.6l-3,16.56a4.86,4.86,0,0,1-1.08,2.28l.36.56a28.78,28.78,0,0,1,3.44-.68,62.88,62.88,0,0,1,.76-6.36l3.44-18.24a33.08,33.08,0,0,1,1.08-4.72l-.56-.24Zm-10.68,16c-.56,0-.88-.84-.88-2.16,0-3.84,1.72-9.84,3.4-11.84a3.93,3.93,0,0,1,2.92-1,8.9,8.9,0,0,1,3.88,1.08l-.84,3.8C128,474,122.4,478.64,120.72,478.64Z" transform="translate(0.25 0.25)"/>
    <path class="cls-9" d="M147.38,488.13v-.84l-1.46-.08c-1.54-.09-1.82-.4-1.82-1.85V468.45l-6.75,2.85.2,1.4,4.2-1.85v14.51c0,1.45-.31,1.76-1.82,1.85l-1.57.08v.84l4.62-.08C143.85,488.05,146.93,488.13,147.38,488.13Z" transform="translate(0.25 0.25)"/>
  </g>
  <g>
    <path class="cls-8" d="M529.4,458.68a10.73,10.73,0,0,0-4-1c-3,0-6.52,3.52-7.24,4.32-1.6,1.88-3.16,7.72-3.16,11.84,0,2.36.48,3.56,1.44,3.56a5,5,0,0,0,2.92-1.2,24.31,24.31,0,0,0,7-7.6l-3,16.56a4.86,4.86,0,0,1-1.08,2.28l.36.56a28.78,28.78,0,0,1,3.44-.68,62.88,62.88,0,0,1,.76-6.36l3.44-18.24a33.08,33.08,0,0,1,1.08-4.72l-.56-.24Zm-10.68,16c-.56,0-.88-.84-.88-2.16,0-3.84,1.72-9.84,3.4-11.84a3.93,3.93,0,0,1,2.92-1,8.9,8.9,0,0,1,3.88,1.08l-.84,3.8C526,470,520.4,474.64,518.72,474.64Z" transform="translate(0.25 0.25)"/>
    <path class="cls-9" d="M534.12,483.4v.73c5.24,0,5.24-.08,6.24-.08s1,.08,6.42.08v-2.38c-3.22.14-4.51,0-9.69.14l5.09-5.4c2.72-2.89,3.56-4.43,3.56-6.53,0-3.22-2.18-5.21-5.74-5.21a6,6,0,0,0-4.76,2l-.48,3.81h.82l.36-1.29c.45-1.62,1.46-2.32,3.33-2.32a3.66,3.66,0,0,1,4,3.89c0,2.1-1.18,4.17-4.34,7.53Z" transform="translate(0.25 0.25)"/>
  </g>
  <g>
    <path class="cls-8" d="M371.4,40.68a10.73,10.73,0,0,0-4-1c-3,0-6.52,3.52-7.24,4.32-1.6,1.88-3.16,7.72-3.16,11.84,0,2.36.48,3.56,1.44,3.56a5,5,0,0,0,2.92-1.2,24.31,24.31,0,0,0,7-7.6l-3,16.56a4.86,4.86,0,0,1-1.08,2.28l.36.56a28.78,28.78,0,0,1,3.44-.68,62.88,62.88,0,0,1,.76-6.36l3.44-18.24A33.08,33.08,0,0,1,373.28,40l-.56-.24Zm-10.68,16c-.56,0-.88-.84-.88-2.16,0-3.84,1.72-9.84,3.4-11.84a3.93,3.93,0,0,1,2.92-1A8.9,8.9,0,0,1,370,42.76l-.84,3.8C368,52,362.4,56.64,360.72,56.64Z" transform="translate(0.25 0.25)"/>
    <path class="cls-9" d="M388.61,59.77c0-3.38-3-4-4.31-4.2,2.24-1.73,3.08-3,3.08-4.67,0-2.49-2.08-4.15-5.18-4.15a5.74,5.74,0,0,0-4.51,1.88l-.81,3.47h.86l.51-1.57c.31-1,2.07-1.9,3.53-1.9a3.29,3.29,0,0,1,3.3,3.25,3.79,3.79,0,0,1-3.64,3.86c-.22,0-.53,0-.9-.05l-.42,0-.33,1.48.19.17a5.14,5.14,0,0,1,2.36-.62c2.32,0,3.66,1.49,3.66,4,0,2.85-1.7,4.73-4.31,4.73a4.68,4.68,0,0,1-3.27-1.21,5.83,5.83,0,0,1-1.57-2.77l-.76.28a17.72,17.72,0,0,1,1,4.12,12,12,0,0,0,3.75.73C384.27,66.61,388.61,63.61,388.61,59.77Z" transform="translate(0.25 0.25)"/>
  </g>
  <path class="cls-8" d="M334,438.12l-.48-.44a15.67,15.67,0,0,1-6.4,1.68l-.16.84h1.92c1,0,1.36.28,1.36.88a5.88,5.88,0,0,1-.12,1c-.44,2.2-3.36,17.6-4,19.6a18.09,18.09,0,0,0-.76,4c0,1,.44,1.6,1.2,1.6,1,0,2.48-.84,6.4-3.76l-.4-.72-1,.68a6.63,6.63,0,0,1-2.44,1.2c-.28,0-.52-.4-.52-.8a5.91,5.91,0,0,1,.16-1.12Z" transform="translate(0.25 0.25)"/>
  <path class="cls-7" d="M339.61,282.89v-2.95h-12V268h-2.95v11.9h-12v2.95h12v12.05h2.95V282.89Z" transform="translate(0.25 0.25)"/>
  <path class="cls-7" d="M546.61,200.89v-2.95h-12V186h-3v11.9h-12v2.95h12v12.05h3V200.89Z" transform="translate(0.25 0.25)"/>
  <g>
    <path class="cls-8" d="M309.4,327.68a10.73,10.73,0,0,0-4-1c-3,0-6.52,3.52-7.24,4.32-1.6,1.88-3.16,7.72-3.16,11.84,0,2.36.48,3.56,1.44,3.56a5,5,0,0,0,2.92-1.2,24.31,24.31,0,0,0,7-7.6l-3,16.56a4.86,4.86,0,0,1-1.08,2.28l.36.56a28.78,28.78,0,0,1,3.44-.68,62.88,62.88,0,0,1,.76-6.36l3.44-18.24a33.08,33.08,0,0,1,1.08-4.72l-.56-.24Zm-10.68,16c-.56,0-.88-.84-.88-2.16,0-3.84,1.72-9.84,3.4-11.84a3.93,3.93,0,0,1,2.92-1,8.9,8.9,0,0,1,3.88,1.08l-.84,3.8C306,339,300.4,343.64,298.72,343.64Z" transform="translate(0.25 0.25)"/>
    <path class="cls-9" d="M321,333.75c-4.34,0-6.56,3.45-6.56,10.22,0,3.28.59,6.11,1.57,7.48a5.21,5.21,0,0,0,4.29,2.16c4.22,0,6.35-3.64,6.35-10.81C326.69,336.67,324.87,333.75,321,333.75Zm-.51,1c2.72,0,3.81,2.75,3.81,9.47,0,6-1.06,8.43-3.64,8.43s-3.86-2.83-3.86-9.66C316.84,337.06,317.87,334.73,320.53,334.73Z" transform="translate(0.25 0.25)"/>
  </g>
  <path class="cls-8" d="M316.72,203.4a37.1,37.1,0,0,1,.64-4.44,1.8,1.8,0,0,0-.8-.24c-1.24,0-2.48,1-3.92,3a49.32,49.32,0,0,0-3.76,6l1.28-6.08a7.33,7.33,0,0,0,.24-1.68c0-.8-.32-1.28-.92-1.28-.84,0-2.36.84-5.32,3l-1.12.8.28.8,1.28-.84c1.12-.72,1.56-.92,1.92-.92s.68.36.68.88c0,2.32-1.72,10.56-3.32,15.68l.4.28a21.74,21.74,0,0,1,2.16-.52l.52-.08,1-4.8a17.52,17.52,0,0,1,3.4-7.72c1.36-1.76,2.44-2.6,3.32-2.6a1.65,1.65,0,0,1,1.44.76Z" transform="translate(0.25 0.25)"/>
  <path class="cls-8" d="M539.72,256.64c0-3.84-2-7.08-6.24-7.08-3.48,0-6.84,3.32-9,5.84-1.76-2.88-5.16-5.92-8.72-5.92-4.64,0-7.6,4.44-7.6,8.76,0,3.84,2.16,7.12,6.32,7.12,3.32,0,7-3.44,8.92-6,2,2.92,5,6,8.76,6C536.84,265.4,539.72,260.84,539.72,256.64Zm-2.4,1.92c0,2.8-1.4,5.12-4.4,5.12-3.16,0-6-4.72-7.68-7,1.28-1.92,4.64-5,7-5C535.6,251.64,537.32,255.72,537.32,258.56Zm-14.6-.36c-1.24,1.88-4.68,4.92-7,4.92-3.36,0-5-4.08-5-7s1.44-5.12,4.48-5.12C518,251,521.48,255.84,522.72,258.2Z" transform="translate(0.25 0.25)"/>
</svg>
