<svg xmlns="http://www.w3.org/2000/svg" viewBox="0 0 279.34 491.85"><defs><style>.cls-1{fill:#e94e1b;stroke:#e94e1b;}.cls-1,.cls-2,.cls-3,.cls-4,.cls-5,.cls-6{stroke-miterlimit:10;}.cls-2{fill:#f39200;stroke:#f39200;}.cls-3,.cls-5{fill:#fff;}.cls-3{stroke:#fff;}.cls-4{fill:#c40d0e;stroke:#c40d0e;}.cls-5{stroke:#1d1d1b;}.cls-6{fill:#29235c;stroke:#29235c;}</style></defs><g id="Livello_6" data-name="Livello 6"><path class="cls-1" d="M267,626.8h54.66s27.25,34.67-27.33,76h.19c-55-42.8-27.33-76-27.33-76" transform="translate(-154.62 -211.45)"/><path class="cls-2" d="M274.48,632.43h39.67s8.67,26.12-19.83,55.14h.14c-28.51-29-19.83-55.14-19.83-55.14" transform="translate(-154.62 -211.45)"/><path class="cls-1" d="M176,592h54.67s27.24,34.67-27.33,76h.19c-54.95-42.8-27.33-76-27.33-76" transform="translate(-154.62 -211.45)"/><path class="cls-2" d="M183.57,597.63h39.66s8.68,26.12-19.83,55.14h.14c-28.5-29-19.83-55.14-19.83-55.14" transform="translate(-154.62 -211.45)"/><path class="cls-1" d="M357.81,592h54.67s27.24,34.67-27.33,76h.19C330.39,625.2,358,592,358,592" transform="translate(-154.62 -211.45)"/><path class="cls-2" d="M365.34,597.63H405s8.68,26.12-19.83,55.14h.14c-28.5-29-19.83-55.14-19.83-55.14" transform="translate(-154.62 -211.45)"/></g><g id="Livello_4" data-name="Livello 4"><path class="cls-3" d="M171.89,595c28.05,16.78,55.54,4.08,61.81.75a4.48,4.48,0,0,0,1.94-2.05c29.23-63,17.9-140.26-28.76-199.16a4.43,4.43,0,0,0-6.95,0C153,453.81,141.79,531.74,171.78,595" transform="translate(-154.62 -211.45)"/><path class="cls-4" d="M203.4,392.82c-7.73-.22-27.33,39.26-27.33,39.26s25.69,24.56,54.67,0C230.74,432.08,211.14,392.6,203.4,392.82Z" transform="translate(-154.62 -211.45)"/><path class="cls-3" d="M353.66,595c28,16.78,55.54,4.08,61.81.75a4.48,4.48,0,0,0,1.94-2.05c29.23-63,17.89-140.26-28.76-199.16a4.43,4.43,0,0,0-6.95,0c-47,59.31-58.14,137.24-28.15,200.46" transform="translate(-154.62 -211.45)"/><path class="cls-4" d="M385.17,392.82c-7.73-.22-27.33,39.26-27.33,39.26s25.69,24.56,54.67,0C412.51,432.08,392.91,392.6,385.17,392.82Z" transform="translate(-154.62 -211.45)"/></g><g id="Livello_1" data-name="Livello 1"><path class="cls-5" d="M240.16,559.11c48.18,28.82,95.4,7,106.16,1.28a7.65,7.65,0,0,0,3.33-3.51c50.19-108.17,30.73-240.89-49.4-342a7.62,7.62,0,0,0-11.93,0C207.64,316.69,188.47,450.54,240,559.11" transform="translate(-154.62 -211.45)"/><path class="cls-4" d="M294.29,212c-13.29-.38-46.94,67.42-46.94,67.42s44.11,42.18,93.88,0C341.23,279.37,307.58,211.57,294.29,212Z" transform="translate(-154.62 -211.45)"/></g><g id="Livello_3" data-name="Livello 3"><circle class="cls-4" cx="139.67" cy="161.44" r="42.6"/><circle class="cls-6" cx="139.67" cy="161.44" r="28.64"/></g><g id="Livello_5" data-name="Livello 5"><path class="cls-5" d="M262.77,629.36c28.06,16.78,55.55,4.08,61.81.74a4.31,4.31,0,0,0,1.94-2c29.23-63,17.9-140.26-28.76-199.17a4.44,4.44,0,0,0-6.94,0c-47,59.32-58.15,137.25-28.16,200.47" transform="translate(-154.62 -211.45)"/><path class="cls-4" d="M294.29,427.22C286.55,427,267,466.48,267,466.48s25.68,24.56,54.66,0C321.62,466.48,302,427,294.29,427.22Z" transform="translate(-154.62 -211.45)"/></g></svg>