<svg id="Livello_1" data-name="Livello 1" xmlns="http://www.w3.org/2000/svg" xmlns:xlink="http://www.w3.org/1999/xlink" width="662.5" height="560.5" viewBox="0 0 662.5 560.5">
  <defs>
    <style>
      .cls-1, .cls-10, .cls-11, .cls-2, .cls-4, .cls-5, .cls-6, .cls-7, .cls-8, .cls-9 {
        fill: none;
      }

      .cls-2, .cls-3 {
        stroke: #d3d3d3;
        stroke-width: 0.5px;
      }

      .cls-3 {
        fill: url(#_.43677617041400585);
      }

      .cls-10, .cls-11, .cls-13, .cls-14, .cls-15, .cls-16, .cls-4, .cls-5, .cls-6, .cls-9 {
        stroke: #000;
      }

      .cls-4, .cls-7, .cls-9 {
        stroke-width: 4px;
      }

      .cls-5 {
        stroke-width: 4px;
      }

      .cls-6 {
        stroke-width: 4px;
      }

      .cls-12, .cls-7, .cls-8 {
        stroke: red;
      }

      .cls-8 {
        stroke-width: 4px;
      }

      .cls-9 {
        stroke-dasharray: 4.5 4.36;
      }

      .cls-10 {
        stroke-width: 4px;
      }

      .cls-11 {
        stroke-width: 4px;
      }

      .cls-12 {
        fill: red;
      }

      .cls-12, .cls-13, .cls-14, .cls-15, .cls-16 {
        stroke-miterlimit: 10;
      }

      .cls-12, .cls-14 {
        stroke-width: 0.24px;
      }

      .cls-13 {
        stroke-width: 0.32px;
      }

      .cls-15 {
        stroke-width: 0.17px;
      }

      .cls-16 {
        stroke-width: 0.32px;
      }
    </style>
    <pattern id="_.43677617041400585" data-name=".43677617041400585" width="10" height="10" patternTransform="matrix(1, 0, 0, -1, -2.75, 843.14)" patternUnits="userSpaceOnUse" viewBox="0 0 10 10">
      <rect class="cls-1" width="10" height="10"/>
      <path class="cls-2" d="M10,10H0V0"/>
    </pattern>
  </defs>
  <rect class="cls-3" x="0.25" y="0.25" width="662" height="560"/>
  <g>
    <path class="cls-4" d="M207.6,511.46a23.77,23.77,0,0,1,24.86-23.84,25.84,25.84,0,0,1,24.86,25.56A23.77,23.77,0,0,1,232.46,537,25.84,25.84,0,0,1,207.6,511.46Z" transform="translate(0.25 0.25)"/>
    <g>
      <path class="cls-4" d="M334.45,222.49l185.46-85.4" transform="translate(0.25 0.25)"/>
      <path class="cls-5" d="M508.2,149.37q8.06-9.66,16.25-14.37-8.91,3.17-21.48,3" transform="translate(0.25 0.25)"/>
    </g>
    <path class="cls-4" d="M335.89,233.26a17.11,17.11,0,0,1-17.57,17.49,18.59,18.59,0,0,1-18.33-18,17.12,17.12,0,0,1,17.57-17.5A18.61,18.61,0,0,1,335.89,233.26Z" transform="translate(0.25 0.25)"/>
    <g>
      <path class="cls-4" d="M324,215.29,361.19,109" transform="translate(0.25 0.25)"/>
      <path class="cls-6" d="M361.88,126q-1.35-12.49,1-21.67-3.91,8.61-12.76,17.55" transform="translate(0.25 0.25)"/>
    </g>
    <g>
      <path class="cls-7" d="M328.9,219.85l229.81-206" transform="translate(0.25 0.25)"/>
      <path class="cls-8" d="M551.14,29.07Q556,17.48,562.43,10.56q-7.59,5.64-19.63,9.21" transform="translate(0.25 0.25)"/>
    </g>
    <path class="cls-9" d="M524.45,135l38-124.44" transform="translate(0.25 0.25)"/>
    <path class="cls-9" d="M362.84,104.29,562.43,10.56" transform="translate(0.25 0.25)"/>
    <g>
      <path class="cls-4" d="M324,215.29,361.19,109" transform="translate(0.25 0.25)"/>
      <path class="cls-6" d="M361.88,126q-1.35-12.49,1-21.67-3.91,8.61-12.76,17.55" transform="translate(0.25 0.25)"/>
    </g>
    <path class="cls-9" d="M262.6,416.6l32-103.82,17.91-58" transform="translate(0.25 0.25)"/>
    <path class="cls-9" d="M209.7,278.15l88.22-36.85" transform="translate(0.25 0.25)"/>
    <g>
      <path class="cls-4" d="M239.61,487.68l21.45-66.32" transform="translate(0.25 0.25)"/>
      <path class="cls-10" d="M262.15,438.28q-1.63-12.45.45-21.68-3.72,8.7-12.34,17.84" transform="translate(0.25 0.25)"/>
    </g>
    <path class="cls-4" d="M101.8,319a23.78,23.78,0,0,1,24.86-23.85,25.85,25.85,0,0,1,24.86,25.56,23.78,23.78,0,0,1-24.86,23.85A25.85,25.85,0,0,1,101.8,319Z" transform="translate(0.25 0.25)"/>
    <g>
      <path class="cls-4" d="M147.79,307.42l57.38-27.13" transform="translate(0.25 0.25)"/>
      <path class="cls-11" d="M193.59,292.68q7.95-9.74,16.11-14.53-8.89,3.25-21.45,3.23" transform="translate(0.25 0.25)"/>
    </g>
  </g>
  <path class="cls-12" d="M580.25,11.79l3.18-.12c1.86,0,3.06.27,3.09.72l.24,2.67h.72a20.54,20.54,0,0,1,.63-4.56c-.66-.06-1.5-.09-2-.09l-1.23,0-5,.06h-.87c-.75,0-1.95,0-3.09-.06l-1.47,0-.09.84,1.68.06c.72,0,1,.3,1,.81a18.52,18.52,0,0,1-.27,2.28l-2.25,13c-.51,2.76-.51,2.79-1.74,2.91l-1.08.09-.12.84,1,0c1.2,0,2.16-.06,2.79-.06s1.41,0,2.58.06l1.56,0,.09-.84-1.92-.09c-.81,0-1.08-.27-1.08-.87a3.74,3.74,0,0,1,.06-.63l1.08-6.69h3.51c.81,0,1.74,0,3.18.09l.78,0,.57-1.35-.12-.21c-2.43.12-4.23.18-6.57.18h-1.11l1.38-8.13a3.36,3.36,0,0,1,.27-1Z" transform="translate(0.25 0.25)"/>
  <path class="cls-13" d="M242.32,511.41v-2.36h-9.6v-9.52h-2.36v9.52h-9.6v2.36h9.6v9.64h2.36v-9.64Z" transform="translate(0.25 0.25)"/>
  <g>
    <path class="cls-14" d="M481.3,174.06l3.18-.12c1.86,0,3.06.27,3.09.72l.24,2.67h.72a20.54,20.54,0,0,1,.63-4.56c-.66-.06-1.5-.09-2-.09l-1.23,0-4.95.06h-.87c-.75,0-2,0-3.09-.06l-1.47,0-.09.84,1.68.06c.72,0,1.05.3,1.05.81a18.52,18.52,0,0,1-.27,2.28l-2.25,13c-.51,2.76-.51,2.79-1.74,2.91l-1.08.09-.12.84,1,0c1.2,0,2.16-.06,2.79-.06s1.41,0,2.58.06l1.56,0,.09-.84-1.92-.09c-.81,0-1.08-.27-1.08-.87a3.74,3.74,0,0,1,.06-.63l1.08-6.69h3.51c.81,0,1.74,0,3.18.09l.78,0,.57-1.35-.12-.21c-2.43.12-4.23.18-6.57.18h-1.11l1.38-8.13a3.36,3.36,0,0,1,.27-1Z" transform="translate(0.25 0.25)"/>
    <path class="cls-15" d="M499,198.78v-.63l-1.09-.06c-1.15-.06-1.36-.3-1.36-1.39V184l-5.06,2.14.14,1.05,3.15-1.39V196.7c0,1.09-.23,1.33-1.36,1.39l-1.18.06v.63l3.47-.06C496.4,198.72,498.71,198.78,499,198.78Z" transform="translate(0.25 0.25)"/>
  </g>
  <path class="cls-16" d="M306.8,231.72l.05,2.36,9.6-.21.2,9.52,2.36,0-.2-9.52,9.6-.2-.05-2.36-9.6.2-.21-9.64-2.36.05.21,9.64Z" transform="translate(0.25 0.25)"/>
  <g>
    <path class="cls-14" d="M317.27,117.49l3.18-.12c1.86,0,3.06.27,3.09.72l.24,2.67h.72a20.54,20.54,0,0,1,.63-4.56c-.66-.06-1.5-.09-2-.09l-1.23,0-4.95.06h-.87c-.75,0-1.95,0-3.09-.06l-1.47,0-.09.84,1.68.06c.72,0,1,.3,1,.81a18.52,18.52,0,0,1-.27,2.28l-2.25,13c-.51,2.76-.51,2.79-1.74,2.91l-1.08.09-.12.84,1,0c1.2,0,2.16-.06,2.79-.06s1.41,0,2.58.06l1.56,0,.09-.84-1.92-.09c-.81,0-1.08-.27-1.08-.87a3.74,3.74,0,0,1,.06-.63l1.08-6.69h3.51c.81,0,1.74,0,3.18.09l.78,0,.57-1.35-.12-.21c-2.43.12-4.23.18-6.57.18h-1.11l1.38-8.13a3.36,3.36,0,0,1,.27-1Z" transform="translate(0.25 0.25)"/>
    <path class="cls-15" d="M326.57,141.67v.55c3.93,0,3.93-.06,4.68-.06s.76.06,4.81.06v-1.79c-2.41.11-3.38,0-7.26.11l3.82-4c2-2.17,2.67-3.32,2.67-4.9,0-2.41-1.64-3.9-4.31-3.9a4.52,4.52,0,0,0-3.57,1.47l-.36,2.85h.61l.28-1a2.21,2.21,0,0,1,2.49-1.75,2.75,2.75,0,0,1,3,2.92c0,1.58-.89,3.13-3.26,5.65Z" transform="translate(0.25 0.25)"/>
  </g>
  <g>
    <path class="cls-14" d="M352.39,261.87a8,8,0,0,0-3-.72c-2.25,0-4.89,2.64-5.43,3.24-1.2,1.41-2.37,5.79-2.37,8.88,0,1.77.36,2.67,1.08,2.67a3.76,3.76,0,0,0,2.19-.9,18.23,18.23,0,0,0,5.25-5.7l-2.28,12.42a3.64,3.64,0,0,1-.81,1.71l.27.42a21.59,21.59,0,0,1,2.58-.51,47.16,47.16,0,0,1,.57-4.77L353,264.93a24.81,24.81,0,0,1,.81-3.54l-.42-.18Zm-8,12c-.42,0-.66-.63-.66-1.62,0-2.88,1.29-7.38,2.55-8.88a2.94,2.94,0,0,1,2.19-.72,6.67,6.67,0,0,1,2.91.81l-.63,2.85C349.87,270.39,345.64,273.84,344.38,273.84Z" transform="translate(0.25 0.25)"/>
    <path class="cls-15" d="M361.12,266.42c-3.26,0-4.92,2.58-4.92,7.67,0,2.45.44,4.57,1.18,5.6a3.88,3.88,0,0,0,3.21,1.62c3.17,0,4.77-2.73,4.77-8.11C365.36,268.61,364,266.42,361.12,266.42Zm-.38.74c2,0,2.85,2,2.85,7.09,0,4.48-.79,6.33-2.73,6.33s-2.89-2.13-2.89-7.25C358,268.9,358.74,267.16,360.74,267.16Z" transform="translate(0.25 0.25)"/>
  </g>
  <path class="cls-13" d="M136.5,318.94v-2.36h-9.6v-9.52h-2.36v9.52h-9.6v2.36h9.6v9.64h2.36v-9.64Z" transform="translate(0.25 0.25)"/>
  <g>
    <path class="cls-14" d="M84.5,275.38a8,8,0,0,0-3-.72c-2.25,0-4.89,2.64-5.43,3.24-1.2,1.41-2.37,5.79-2.37,8.88,0,1.77.36,2.67,1.08,2.67a3.76,3.76,0,0,0,2.19-.9,18.23,18.23,0,0,0,5.25-5.7l-2.28,12.42A3.64,3.64,0,0,1,79.1,297l.27.42a21.59,21.59,0,0,1,2.58-.51,47.16,47.16,0,0,1,.57-4.77l2.58-13.68a24.81,24.81,0,0,1,.81-3.54l-.42-.18Zm-8,12c-.42,0-.66-.63-.66-1.62,0-2.88,1.29-7.38,2.55-8.88a2.94,2.94,0,0,1,2.19-.72,6.67,6.67,0,0,1,2.91.81l-.63,2.85C82,283.9,77.75,287.35,76.49,287.35Z" transform="translate(0.25 0.25)"/>
    <path class="cls-15" d="M96.48,294.47v-.63l-1.09-.06c-1.16-.07-1.37-.3-1.37-1.39V279.71L89,281.85l.15,1,3.15-1.39v10.88c0,1.09-.23,1.32-1.36,1.39l-1.18.06v.63l3.46-.06C93.84,294.41,96.15,294.47,96.48,294.47Z" transform="translate(0.25 0.25)"/>
  </g>
  <g>
    <path class="cls-14" d="M273.94,533a8,8,0,0,0-3-.72c-2.25,0-4.89,2.64-5.43,3.24-1.2,1.41-2.37,5.79-2.37,8.88,0,1.77.36,2.67,1.08,2.67a3.76,3.76,0,0,0,2.19-.9,18.23,18.23,0,0,0,5.25-5.7l-2.28,12.42a3.64,3.64,0,0,1-.81,1.71l.27.42a21.59,21.59,0,0,1,2.58-.51,47.16,47.16,0,0,1,.57-4.77l2.58-13.68a24.81,24.81,0,0,1,.81-3.54l-.42-.18Zm-8,12c-.42,0-.66-.63-.66-1.62,0-2.88,1.29-7.38,2.55-8.88a2.94,2.94,0,0,1,2.19-.72,6.67,6.67,0,0,1,2.91.81l-.63,2.85C271.42,541.53,267.19,545,265.93,545Z" transform="translate(0.25 0.25)"/>
    <path class="cls-15" d="M277.48,551.55v.54c3.92,0,3.92-.06,4.68-.06s.76.06,4.81.06v-1.78c-2.42.1-3.38,0-7.27.1l3.82-4c2-2.16,2.67-3.32,2.67-4.89,0-2.42-1.64-3.91-4.3-3.91a4.51,4.51,0,0,0-3.57,1.47l-.36,2.86h.61l.27-1a2.22,2.22,0,0,1,2.5-1.74,2.74,2.74,0,0,1,3,2.92c0,1.57-.88,3.13-3.25,5.65Z" transform="translate(0.25 0.25)"/>
  </g>
  <g>
    <path class="cls-14" d="M301.45,371.46a27.83,27.83,0,0,1,.48-3.33,1.35,1.35,0,0,0-.6-.18c-.93,0-1.86.72-2.94,2.25a37,37,0,0,0-2.82,4.53l1-4.56a5.5,5.5,0,0,0,.18-1.26c0-.6-.24-1-.69-1-.63,0-1.77.63-4,2.22l-.84.6.21.6,1-.63c.84-.54,1.17-.69,1.44-.69s.51.27.51.66a64,64,0,0,1-2.49,11.76l.3.21a16.3,16.3,0,0,1,1.62-.39l.39-.06.78-3.6a13.14,13.14,0,0,1,2.55-5.79c1-1.32,1.83-1.95,2.49-1.95a1.24,1.24,0,0,1,1.08.57Z" transform="translate(0.25 0.25)"/>
    <path class="cls-15" d="M303.27,387.2v.55c3.93,0,3.93-.06,4.69-.06s.75.06,4.81.06V386c-2.42.1-3.39,0-7.27.1l3.82-4.05c2-2.17,2.67-3.32,2.67-4.9,0-2.41-1.64-3.9-4.31-3.9a4.52,4.52,0,0,0-3.57,1.47l-.35,2.85h.61l.27-1a2.21,2.21,0,0,1,2.5-1.74,2.74,2.74,0,0,1,3,2.91c0,1.58-.88,3.13-3.26,5.65Z" transform="translate(0.25 0.25)"/>
  </g>
  <g>
    <path class="cls-14" d="M226,229.64a27.83,27.83,0,0,1,.48-3.33,1.35,1.35,0,0,0-.6-.18c-.93,0-1.86.72-2.94,2.25a37,37,0,0,0-2.82,4.53l1-4.56a5.5,5.5,0,0,0,.18-1.26c0-.6-.24-1-.69-1-.63,0-1.77.63-4,2.22l-.84.6.21.6,1-.63c.84-.54,1.17-.69,1.44-.69s.51.27.51.66a64,64,0,0,1-2.49,11.76l.3.21a16.3,16.3,0,0,1,1.62-.39l.39-.06.78-3.6A13.14,13.14,0,0,1,222,231c1-1.32,1.83-2,2.49-2a1.24,1.24,0,0,1,1.08.57Z" transform="translate(0.25 0.25)"/>
    <path class="cls-15" d="M236.29,245.94v-.63l-1.09-.07c-1.15-.06-1.36-.29-1.36-1.38V231.17l-5.06,2.15.14,1.05,3.15-1.39v10.88c0,1.09-.23,1.32-1.36,1.38l-1.18.07v.63l3.47-.07C233.65,245.87,236,245.94,236.29,245.94Z" transform="translate(0.25 0.25)"/>
  </g>
  <g>
    <path class="cls-14" d="M221.06,452.64l-.21-.27-2,.51-.3,1.53a16.47,16.47,0,0,1-2.13,5.79c-1.77,2.73-4.11,4.86-5.31,4.86-.24,0-.39-.27-.39-.78a7.7,7.7,0,0,1,.21-1.56l1.71-8.13a7.11,7.11,0,0,0,.15-1.29c0-.57-.27-.93-.69-.93-.6,0-1.74.63-4,2.22l-.84.6.21.6,1-.63c.84-.54,1.17-.69,1.44-.69a.57.57,0,0,1,.51.6,3.31,3.31,0,0,1-.06.54l-1.89,8.91a9.17,9.17,0,0,0-.12,1.41,1.13,1.13,0,0,0,1.05,1.23c1.89,0,5.52-3.36,8-7.5l-1.11,4.26a8.18,8.18,0,0,0-.33,2c0,.75.33,1.2.9,1.2.78,0,1.86-.63,4.8-2.82l-.3-.54-.78.51a4.6,4.6,0,0,1-1.83.81c-.24,0-.39-.21-.39-.51C218.36,463.47,220.61,454.35,221.06,452.64Z" transform="translate(0.25 0.25)"/>
    <path class="cls-15" d="M224.18,471.63v.54c3.93,0,3.93-.06,4.68-.06s.76.06,4.81.06v-1.78c-2.41.1-3.38,0-7.26.1l3.82-4.05c2-2.16,2.66-3.32,2.66-4.89,0-2.42-1.63-3.91-4.3-3.91a4.52,4.52,0,0,0-3.57,1.47l-.36,2.86h.61l.27-1a2.22,2.22,0,0,1,2.5-1.74,2.74,2.74,0,0,1,3,2.92c0,1.57-.88,3.13-3.25,5.65Z" transform="translate(0.25 0.25)"/>
  </g>
  <g>
    <path class="cls-14" d="M190.67,313.06l-.21-.27-2,.51-.3,1.53a16.47,16.47,0,0,1-2.13,5.79c-1.77,2.73-4.11,4.86-5.31,4.86-.24,0-.39-.27-.39-.78a7.7,7.7,0,0,1,.21-1.56l1.71-8.13a7.11,7.11,0,0,0,.15-1.29c0-.57-.27-.93-.69-.93-.6,0-1.74.63-4,2.22l-.84.6.21.6,1-.63c.84-.54,1.17-.69,1.44-.69a.57.57,0,0,1,.51.6,3.31,3.31,0,0,1-.06.54L178,324.94a9.17,9.17,0,0,0-.12,1.41,1.13,1.13,0,0,0,1.05,1.23c1.89,0,5.52-3.36,8-7.5l-1.11,4.26a8.18,8.18,0,0,0-.33,2c0,.75.33,1.2.9,1.2.78,0,1.86-.63,4.8-2.82l-.3-.54-.78.51a4.6,4.6,0,0,1-1.83.81c-.24,0-.39-.21-.39-.51C188,323.89,190.22,314.77,190.67,313.06Z" transform="translate(0.25 0.25)"/>
    <path class="cls-15" d="M202.23,332.59V332l-1.09-.06c-1.16-.06-1.37-.29-1.37-1.38V317.83L194.71,320l.15,1,3.15-1.38v10.88c0,1.09-.23,1.32-1.36,1.38l-1.18.06v.63l3.46-.06C199.59,332.53,201.9,332.59,202.23,332.59Z" transform="translate(0.25 0.25)"/>
  </g>
</svg>
