<svg id="Livello_1" data-name="Livello 1" xmlns="http://www.w3.org/2000/svg" xmlns:xlink="http://www.w3.org/1999/xlink" width="662.5" height="575.5" viewBox="0 0 662.5 575.5">
  <defs>
    <style>
      .cls-1, .cls-2, .cls-4, .cls-5, .cls-6 {
        fill: none;
      }

      .cls-2, .cls-3 {
        stroke: #d3d3d3;
        stroke-width: 0.5px;
      }

      .cls-3 {
        fill: url(#_.6498535549321369);
      }

      .cls-4, .cls-5, .cls-8, .cls-9 {
        stroke: #000;
      }

      .cls-5, .cls-6 {
        stroke-width: 3px;
      }

      .cls-10, .cls-6 {
        stroke: red;
      }

      .cls-10, .cls-7 {
        fill: red;
      }

      .cls-10, .cls-9 {
        stroke-miterlimit: 10;
      }

      .cls-9 {
        stroke-width: 0.4px;
      }

      .cls-10 {
        stroke-width: 0.32px;
      }
    </style>
    <pattern id="_.6498535549321369" data-name=".6498535549321369" width="10" height="10" patternTransform="matrix(1, 0, 0, -1, -2.75, 845.14)" patternUnits="userSpaceOnUse" viewBox="0 0 10 10">
      <rect class="cls-1" width="10" height="10"/>
      <path class="cls-2" d="M10,10H0V0"/>
    </pattern>
  </defs>
  <rect class="cls-3" x="0.25" y="0.25" width="662" height="575"/>
  <g>
    <path class="cls-4" d="M351.44,241.59l35.19,25.18L361.45,302l-35.19-25.19Z" transform="translate(0.25 0.25)"/>
    <path class="cls-5" d="M9,269.44c185.72-20.94,270.9,282.07,367.25,233.2" transform="translate(0.25 0.25)"/>
    <path class="cls-5" d="M261.75,94.89C447.47,74,532.65,377,629,328.09" transform="translate(0.25 0.25)"/>
    <path class="cls-5" d="M9,269.44,261.75,94.89" transform="translate(0.25 0.25)"/>
    <path class="cls-5" d="M376.25,502.64,629,328.09" transform="translate(0.25 0.25)"/>
    <g>
      <path class="cls-6" d="M479.82,54.12,326.26,276.77" transform="translate(0.25 0.25)"/>
      <path class="cls-7" d="M480.19,65.66,482.66,50,468.9,57.87Z" transform="translate(0.25 0.25)"/>
    </g>
    <g>
      <path class="cls-5" d="M454,368.81l-127.76-92" transform="translate(0.25 0.25)"/>
      <path d="M442.48,368.94l15.6,2.79-7.58-13.92Z" transform="translate(0.25 0.25)"/>
    </g>
    <path class="cls-8" d="M319.76,276.77a6.5,6.5,0,1,1,6.5,6.5A6.5,6.5,0,0,1,319.76,276.77Z" transform="translate(0.25 0.25)"/>
  </g>
  <g>
    <path class="cls-9" d="M373.09,340.81l-.6-.55a19.58,19.58,0,0,1-8,2.1l-.2,1.05h2.4c1.2,0,1.7.35,1.7,1.2a9,9,0,0,1-.1,1.2l-1.4,7.7a14.39,14.39,0,0,0-4.1-.7c-3.45,0-8.15,3.6-10.45,7.95a27.62,27.62,0,0,0-2.55,11.85c0,3.25.75,4.85,2.2,4.85a8.92,8.92,0,0,0,4.9-2.2c2.7-2.2,4.35-4.15,7.7-9.2l-1.15,4.55a21.63,21.63,0,0,0-.8,5.1c0,1.05.45,1.65,1.3,1.65s2.05-.6,3.75-1.85l4.05-3-.5-.95-2.2,1.55a4.18,4.18,0,0,1-2,.85c-.4,0-.7-.45-.7-1.15a9.69,9.69,0,0,1,.4-2.3ZM354.64,374c-.8,0-1.25-.7-1.25-1.95,0-6.3,2.3-14.1,4.75-16a4.74,4.74,0,0,1,2.95-.75,10.5,10.5,0,0,1,5.3,1.15l-.6,2.95C363.94,368.36,356.89,374,354.64,374Z" transform="translate(0.25 0.25)"/>
    <g>
      <path class="cls-9" d="M375.44,369.51a44.32,44.32,0,0,1-1.1,6.6,12.27,12.27,0,0,0,5.35,1.35,11.56,11.56,0,0,0,7.3-2.9c2.55-2,3.6-3.85,3.6-6.35,0-2.7-1.6-4.15-5.3-4.85l-2.15-.4c-3-.55-3.95-1.4-3.95-3.45a4.86,4.86,0,0,1,5.1-4.7,5.55,5.55,0,0,1,4.75,2.25v2.75h1.15a50.9,50.9,0,0,1,.95-5.65,10.75,10.75,0,0,0-5-1.35c-2.6,0-5.65,1.5-8.05,3.9a5.79,5.79,0,0,0-1.85,4.4c0,2.8,1.55,4.4,4.85,5.05l3.15.6c2.2.4,3,1.3,3,3.25,0,3.25-2.3,5.45-5.85,5.45a7,7,0,0,1-4.7-1.75v-4.2Z" transform="translate(0.25 0.25)"/>
      <polyline class="cls-5" points="374.14 344.38 383.84 337.91 393.55 344.38"/>
    </g>
  </g>
  <g>
    <path class="cls-10" d="M469.34,117.42H474l5.28.16.76-1.8-.16-.28c-3.24.16-5.64.24-8.76.24h-1.48l1.88-10.8c1.28,0,4.6-.16,5.48-.16,2.48,0,4.12.36,4.16,1l.32,3.56h1a27,27,0,0,1,.84-6.08c-.84-.08-2-.12-2.76-.12-.12,0-.56,0-1.52,0l-4.8,0c-.36,0-7.32,0-7.72,0l-1.8,0-.12,1.12,2.16.08c1,0,1.4.36,1.4,1.08a24.69,24.69,0,0,1-.36,3l-3.48,20.16c-.16.72-.64,1-2.4,1.28l-.2,1,1.64,0c1.24,0,3.72-.08,4.52-.08l9,.12c.56,0,1.56,0,2.88-.08l1.32,0,.16-1.44c.08-.8.28-2,.64-4l.2-1H481l-.64,2.4c-.4,1.44-.76,1.92-1.64,2.12a46.29,46.29,0,0,1-5.88.36,53.7,53.7,0,0,1-5.48-.28Z" transform="translate(0.25 0.25)"/>
    <path class="cls-10" d="M521.05,116.9v-2.36H499.49v2.36Zm0,8.52v-2.36H499.49v2.36Z" transform="translate(0.25 0.25)"/>
    <path class="cls-10" d="M557.79,121.06v-2.24H537.63v2.24Z" transform="translate(0.25 0.25)"/>
    <path class="cls-10" d="M570.4,130.94h1c2.52-4.36,13.64-22.8,17.08-27.64v-.4c-8.36.24-16.84.2-25.2,0v.4A253.83,253.83,0,0,1,570.4,130.94Zm15-26.4c-3.92,7.12-8.24,14.08-12.52,21.08-1.8-6.92-3.44-14-4.76-21.08Zm14.36,22.4-2.84-21.12c-.08-.88.08-1.48,1.68-1.52l1.68-.08V103.1l-1.64,0c-1.48,0-2.6.08-3.32.08s-1.84,0-3.32-.08l-1.64,0v1.12l1,.08c1.76.12,2.08.44,2.36,1.92l3.52,24.88h2l15.12-24.76c1-1.6,1.32-1.88,2.48-2l.72-.08V103.1l-1.2,0c-1.08,0-2,.08-2.64.08-.4,0-1.48,0-3.12-.08l-1.84,0v1.12l1,.08c1.52.12,2.28.52,2.28,1.28a3.28,3.28,0,0,1-.64,1.68Z" transform="translate(0.25 0.25)"/>
  </g>
  <path class="cls-9" d="M272.19,267.71l2.75.1c1.2.05,1.75.45,1.75,1.35l-4.15,25.5c-.85,4.55-.9,4.7-2.9,4.85l-2.05.15-.2,1.4,2.1-.05c2.05-.05,3.6-.1,4.5-.1s2.3,0,4.3.1l2.65.05.15-1.4-3.25-.15c-1.3-.05-1.8-.45-1.8-1.5a10.69,10.69,0,0,1,.2-1.75l4.9-27.75a20.29,20.29,0,0,1,3.55-.4c5.1,0,7.55,2.2,7.55,6.85,0,5.4-3.6,9.8-8,9.8a10.69,10.69,0,0,1-3.95-.95l.1,1.55a8.67,8.67,0,0,0,4.3,1.15c6.45,0,11.95-5.85,11.95-12.65,0-5.05-3.15-7.7-9.1-7.55h-15.2Z" transform="translate(0.25 0.25)"/>
</svg>
