<svg id="Livello_1" data-name="Livello 1" xmlns="http://www.w3.org/2000/svg" xmlns:xlink="http://www.w3.org/1999/xlink" width="662.5" height="503.5" viewBox="0 0 662.5 503.5">
  <defs>
    <style>
      .cls-1, .cls-10, .cls-2, .cls-4, .cls-5, .cls-6, .cls-7, .cls-8 {
        fill: none;
      }

      .cls-2, .cls-3 {
        stroke: #d3d3d3;
        stroke-width: 0.5px;
      }

      .cls-3 {
        fill: url(#_.44066836137648413);
      }

      .cls-12, .cls-13, .cls-14, .cls-15, .cls-4, .cls-5, .cls-7 {
        stroke: #000;
      }

      .cls-4 {
        stroke-dasharray: 6 6;
      }

      .cls-10, .cls-11, .cls-6, .cls-8 {
        stroke: red;
      }

      .cls-6 {
        stroke-width: 2px;
      }

      .cls-7 {
        stroke-dasharray: 1.13 3.35;
      }

      .cls-10, .cls-8 {
        stroke-width: 3px;
      }

      .cls-11, .cls-9 {
        fill: red;
      }

      .cls-10 {
        stroke-dasharray: 3.38 4.02;
      }

      .cls-11, .cls-12, .cls-13, .cls-14, .cls-15 {
        stroke-miterlimit: 10;
      }

      .cls-11, .cls-12 {
        stroke-width: 0.32px;
      }

      .cls-13 {
        stroke-width: 0.16px;
      }

      .cls-14 {
        stroke-width: 0.24px;
      }

      .cls-15 {
        stroke-width: 0.17px;
      }
    </style>
    <pattern id="_.44066836137648413" data-name=".44066836137648413" width="10" height="10" patternTransform="matrix(1, 0, 0, -1, -2.75, 851.14)" patternUnits="userSpaceOnUse" viewBox="0 0 10 10">
      <rect class="cls-1" width="10" height="10"/>
      <path class="cls-2" d="M10,10H0V0"/>
    </pattern>
  </defs>
  <rect class="cls-3" x="0.25" y="0.25" width="662" height="503"/>
  <g>
    <path class="cls-4" d="M333.35,239V457.05" transform="translate(0.25 0.25)"/>
    <path class="cls-5" d="M317.8,239.85,200.29,437.61" transform="translate(0.25 0.25)"/>
    <path class="cls-5" d="M346.24,239.85,466.42,437.61" transform="translate(0.25 0.25)"/>
    <path class="cls-6" d="M179.5,457.05c0-10.73,9.31-19.44,20.79-19.44s20.79,8.71,20.79,19.44-9.31,19.44-20.79,19.44S179.5,467.79,179.5,457.05Z" transform="translate(0.25 0.25)"/>
    <path class="cls-6" d="M445.62,457.05c0-10.73,9.31-19.44,20.8-19.44s20.79,8.71,20.79,19.44-9.31,19.44-20.79,19.44S445.62,467.79,445.62,457.05Z" transform="translate(0.25 0.25)"/>
    <path class="cls-7" d="M221.08,457.05H444.79" transform="translate(0.25 0.25)"/>
    <path class="cls-5" d="M333.35,261.9c4.16,4.66,20.79,5.44,20.79-4.67" transform="translate(0.25 0.25)"/>
    <path class="cls-6" d="M312.56,221.47c0-10.74,9.31-19.44,20.79-19.44s20.79,8.7,20.79,19.44-9.3,19.44-20.79,19.44S312.56,232.2,312.56,221.47Z" transform="translate(0.25 0.25)"/>
    <g>
      <path class="cls-8" d="M272.05,122.6l50,82.21" transform="translate(0.25 0.25)"/>
      <path class="cls-9" d="M282.74,127l-13.29-8.65L271,134.1Z" transform="translate(0.25 0.25)"/>
    </g>
    <g>
      <path class="cls-8" d="M389.73,122.46,341.8,203.12" transform="translate(0.25 0.25)"/>
      <path class="cls-9" d="M390.88,134l1.4-15.79-13.19,8.78Z" transform="translate(0.25 0.25)"/>
    </g>
    <g>
      <path class="cls-8" d="M333.35,26V202" transform="translate(0.25 0.25)"/>
      <path class="cls-9" d="M340.21,35.29,333.35,21l-6.86,14.29Z" transform="translate(0.25 0.25)"/>
    </g>
    <path class="cls-10" d="M332.28,18.16,273.35,121.47" transform="translate(0.25 0.25)"/>
    <path class="cls-10" d="M332.28,18.16l58.94,103.31" transform="translate(0.25 0.25)"/>
    <path class="cls-5" d="M333.14,185.54c-4.15-4.67-20.79-5.44-20.79,4.66" transform="translate(0.25 0.25)"/>
  </g>
  <path class="cls-11" d="M211.74,455.78v-2.36h-9.6V443.9h-2.36v9.52h-9.6v2.36h9.6v9.64h2.36v-9.64Z" transform="translate(0.25 0.25)"/>
  <path class="cls-12" d="M421.45,304.73l-.48-.44a15.67,15.67,0,0,1-6.4,1.68l-.16.84h1.92c1,0,1.36.28,1.36.88a5.88,5.88,0,0,1-.12,1c-.44,2.2-3.36,17.6-4,19.6a18.09,18.09,0,0,0-.76,4c0,1,.44,1.6,1.2,1.6,1,0,2.48-.84,6.4-3.76l-.4-.72-1,.68a6.63,6.63,0,0,1-2.44,1.2c-.28,0-.52-.4-.52-.8a5.91,5.91,0,0,1,.16-1.12Z" transform="translate(0.25 0.25)"/>
  <path class="cls-13" d="M348.72,288c0-2.42-2.14-2.84-3.08-3,1.6-1.24,2.2-2.16,2.2-3.34,0-1.78-1.48-3-3.7-3a4.09,4.09,0,0,0-3.22,1.34l-.58,2.48H341l.36-1.12a2.93,2.93,0,0,1,2.52-1.36,2.36,2.36,0,0,1,2.36,2.32,2.71,2.71,0,0,1-2.6,2.76l-.64,0-.3,0-.24,1.06.14.12a3.67,3.67,0,0,1,1.68-.44c1.66,0,2.62,1.06,2.62,2.88,0,2-1.22,3.38-3.08,3.38a3.37,3.37,0,0,1-2.34-.86,4.25,4.25,0,0,1-1.12-2l-.54.2a12.62,12.62,0,0,1,.7,2.94,8.46,8.46,0,0,0,2.68.52C345.62,292.88,348.72,290.74,348.72,288Zm6-9.3c-3.1,0-4.68,2.46-4.68,7.3a10.21,10.21,0,0,0,1.12,5.34,3.71,3.71,0,0,0,3.06,1.54c3,0,4.54-2.6,4.54-7.72C358.76,280.78,357.46,278.7,354.72,278.7Zm-.36.7c1.94,0,2.72,2,2.72,6.76,0,4.26-.76,6-2.6,6s-2.76-2-2.76-6.9C351.72,281.06,352.46,279.4,354.36,279.4Zm9.06-.7a3,3,0,0,0,0,6,3,3,0,1,0,0-6Zm0,.8a2.2,2.2,0,1,1,0,4.4,2.2,2.2,0,0,1,0-4.4Z" transform="translate(0.25 0.25)"/>
  <g>
    <path class="cls-14" d="M431.3,429.4a8,8,0,0,0-3-.72c-2.25,0-4.89,2.64-5.43,3.24-1.2,1.41-2.37,5.79-2.37,8.88,0,1.77.36,2.67,1.08,2.67a3.76,3.76,0,0,0,2.19-.9,18.23,18.23,0,0,0,5.25-5.7l-2.28,12.42a3.64,3.64,0,0,1-.81,1.71l.27.42a21.59,21.59,0,0,1,2.58-.51,47.16,47.16,0,0,1,.57-4.77l2.58-13.68a24.81,24.81,0,0,1,.81-3.54l-.42-.18Zm-8,12c-.42,0-.66-.63-.66-1.62,0-2.88,1.29-7.38,2.55-8.88a2.94,2.94,0,0,1,2.19-.72,6.67,6.67,0,0,1,2.91.81l-.63,2.85C428.78,437.92,424.55,441.37,423.29,441.37Z" transform="translate(0.25 0.25)"/>
    <path class="cls-15" d="M434.84,447.94v.54c3.92,0,3.92-.06,4.68-.06s.75.06,4.81.06V446.7c-2.42.1-3.38,0-7.27.1l3.82-4.05c2-2.16,2.67-3.32,2.67-4.89,0-2.42-1.64-3.91-4.3-3.91a4.5,4.5,0,0,0-3.57,1.47l-.36,2.86h.61l.27-1a2.22,2.22,0,0,1,2.5-1.74,2.74,2.74,0,0,1,3,2.92c0,1.57-.88,3.13-3.25,5.65Z" transform="translate(0.25 0.25)"/>
  </g>
  <path class="cls-11" d="M343,221.22v-2.36h-9.6v-9.52h-2.36v9.52h-9.6v2.36h9.6v9.64h2.36v-9.64Z" transform="translate(0.25 0.25)"/>
  <g>
    <path class="cls-14" d="M169.16,422.62a8,8,0,0,0-3-.72c-2.25,0-4.89,2.64-5.43,3.24-1.2,1.41-2.37,5.79-2.37,8.88,0,1.77.36,2.67,1.08,2.67a3.76,3.76,0,0,0,2.19-.9,18.23,18.23,0,0,0,5.25-5.7l-2.28,12.42a3.64,3.64,0,0,1-.81,1.71l.27.42a21.59,21.59,0,0,1,2.58-.51,47.16,47.16,0,0,1,.57-4.77l2.58-13.68a24.81,24.81,0,0,1,.81-3.54l-.42-.18Zm-8,12c-.42,0-.66-.63-.66-1.62,0-2.88,1.29-7.38,2.55-8.88a2.94,2.94,0,0,1,2.19-.72,6.67,6.67,0,0,1,2.91.81l-.63,2.85C166.64,431.14,162.41,434.59,161.15,434.59Z" transform="translate(0.25 0.25)"/>
    <path class="cls-15" d="M181.14,441.7v-.63l-1.09-.06c-1.16-.06-1.37-.29-1.37-1.39V426.94l-5.06,2.14.15,1.05,3.15-1.38v10.87c0,1.1-.23,1.33-1.37,1.39l-1.17.06v.63l3.46-.06C178.49,441.64,180.8,441.7,181.14,441.7Z" transform="translate(0.25 0.25)"/>
  </g>
  <path class="cls-11" d="M477.49,455.78v-2.36h-9.6V443.9h-2.36v9.52h-9.6v2.36h9.6v9.64h2.36v-9.64Z" transform="translate(0.25 0.25)"/>
  <path class="cls-12" d="M335.29,461l-.48-.44a15.67,15.67,0,0,1-6.4,1.68l-.16.84h1.92c1,0,1.36.28,1.36.88a5.88,5.88,0,0,1-.12,1c-.44,2.2-3.36,17.6-4,19.6a18.09,18.09,0,0,0-.76,4c0,1,.44,1.6,1.2,1.6,1,0,2.48-.84,6.4-3.76l-.4-.72-1,.68a6.63,6.63,0,0,1-2.44,1.2c-.28,0-.52-.4-.52-.8a5.91,5.91,0,0,1,.16-1.12Z" transform="translate(0.25 0.25)"/>
  <path class="cls-12" d="M243.32,304.73l-.48-.44a15.67,15.67,0,0,1-6.4,1.68l-.16.84h1.92c1,0,1.36.28,1.36.88a5.88,5.88,0,0,1-.12,1c-.44,2.2-3.36,17.6-4,19.6a18.09,18.09,0,0,0-.76,4c0,1,.44,1.6,1.2,1.6,1,0,2.48-.84,6.4-3.76l-.4-.72-1,.68a6.63,6.63,0,0,1-2.44,1.2c-.28,0-.52-.4-.52-.8a5.91,5.91,0,0,1,.16-1.12Z" transform="translate(0.25 0.25)"/>
  <g>
    <path class="cls-14" d="M370.32,219.34a8,8,0,0,0-3-.72c-2.25,0-4.89,2.64-5.43,3.24-1.2,1.41-2.37,5.79-2.37,8.88,0,1.77.36,2.67,1.08,2.67a3.76,3.76,0,0,0,2.19-.9,18.23,18.23,0,0,0,5.25-5.7l-2.28,12.42a3.64,3.64,0,0,1-.81,1.71l.27.42a21.59,21.59,0,0,1,2.58-.51,47.16,47.16,0,0,1,.57-4.77l2.58-13.68a24.81,24.81,0,0,1,.81-3.54l-.42-.18Zm-8,12c-.42,0-.66-.63-.66-1.62,0-2.88,1.29-7.38,2.55-8.88a2.94,2.94,0,0,1,2.19-.72,6.67,6.67,0,0,1,2.91.81l-.63,2.85C367.8,227.86,363.57,231.31,362.31,231.31Z" transform="translate(0.25 0.25)"/>
    <path class="cls-15" d="M383.22,233.66c0-2.55-2.25-3-3.24-3.15,1.68-1.31,2.31-2.27,2.31-3.51,0-1.87-1.55-3.11-3.88-3.11A4.29,4.29,0,0,0,375,225.3l-.61,2.6h.65l.38-1.17a3.05,3.05,0,0,1,2.64-1.43,2.47,2.47,0,0,1,2.48,2.43,2.84,2.84,0,0,1-2.73,2.9c-.17,0-.4,0-.67,0l-.32,0-.25,1.11.15.13a3.82,3.82,0,0,1,1.76-.46c1.75,0,2.75,1.11,2.75,3,0,2.14-1.28,3.55-3.23,3.55a3.58,3.58,0,0,1-2.46-.9,4.58,4.58,0,0,1-1.17-2.08l-.57.21a13.48,13.48,0,0,1,.74,3.08,8.79,8.79,0,0,0,2.81.55C380,238.78,383.22,236.53,383.22,233.66Z" transform="translate(0.25 0.25)"/>
  </g>
  <g>
    <path class="cls-14" d="M255.4,148.06h3.51l4,.12.57-1.35-.12-.21c-2.43.12-4.23.18-6.57.18h-1.11l1.41-8.1c1,0,3.45-.12,4.11-.12,1.86,0,3.09.27,3.12.72l.24,2.67h.72a20.27,20.27,0,0,1,.63-4.56c-.63-.06-1.53-.09-2.07-.09-.09,0-.42,0-1.14,0l-3.6,0c-.27,0-5.49,0-5.79,0l-1.35,0-.09.84,1.62.06c.72,0,1.05.27,1.05.81a18.52,18.52,0,0,1-.27,2.28l-2.61,15.12c-.12.54-.48.75-1.8,1l-.15.78,1.23,0c.93,0,2.79-.06,3.39-.06l6.75.09c.42,0,1.17,0,2.16-.06l1,0,.12-1.08c.06-.6.21-1.5.48-3l.15-.78h-.81l-.48,1.8c-.3,1.08-.57,1.44-1.23,1.59a34.72,34.72,0,0,1-4.41.27,40.28,40.28,0,0,1-4.11-.21Z" transform="translate(0.25 0.25)"/>
    <path class="cls-15" d="M268.29,162.88v.54c3.93,0,3.93-.06,4.68-.06s.76.06,4.81.06v-1.78c-2.41.1-3.38,0-7.26.1l3.82-4.05c2-2.16,2.66-3.32,2.66-4.89,0-2.42-1.63-3.91-4.3-3.91a4.52,4.52,0,0,0-3.57,1.47l-.36,2.86h.61l.27-1a2.22,2.22,0,0,1,2.5-1.74,2.74,2.74,0,0,1,3,2.92c0,1.57-.88,3.13-3.25,5.65Z" transform="translate(0.25 0.25)"/>
  </g>
  <g>
    <path class="cls-14" d="M395.4,150.06h3.51l4,.12.57-1.35-.12-.21c-2.43.12-4.23.18-6.57.18h-1.11l1.41-8.1c1,0,3.45-.12,4.11-.12,1.86,0,3.09.27,3.12.72l.24,2.67h.72a20.27,20.27,0,0,1,.63-4.56c-.63-.06-1.53-.09-2.07-.09-.09,0-.42,0-1.14,0l-3.6,0c-.27,0-5.49,0-5.79,0l-1.35,0-.09.84,1.62.06c.72,0,1.05.27,1.05.81a18.52,18.52,0,0,1-.27,2.28l-2.61,15.12c-.12.54-.48.75-1.8,1l-.15.78,1.23,0c.93,0,2.79-.06,3.39-.06l6.75.09c.42,0,1.17,0,2.16-.06l1,0,.12-1.08c.06-.6.21-1.5.48-3l.15-.78h-.81l-.48,1.8c-.3,1.08-.57,1.44-1.23,1.59a34.72,34.72,0,0,1-4.41.27,40.28,40.28,0,0,1-4.11-.21Z" transform="translate(0.25 0.25)"/>
    <path class="cls-15" d="M416.73,165.42v-.63l-1.09-.06c-1.16-.06-1.37-.29-1.37-1.39V150.66l-5.06,2.14.15,1,3.15-1.38v10.87c0,1.1-.23,1.33-1.36,1.39l-1.18.06v.63l3.46-.06C414.09,165.36,416.4,165.42,416.73,165.42Z" transform="translate(0.25 0.25)"/>
  </g>
  <path class="cls-14" d="M355.4,53.06h3.51l4,.12.57-1.35-.12-.21c-2.43.12-4.23.18-6.57.18h-1.11l1.41-8.1c1,0,3.45-.12,4.11-.12,1.86,0,3.09.27,3.12.72l.24,2.67h.72a20.27,20.27,0,0,1,.63-4.56c-.63-.06-1.53-.09-2.07-.09-.09,0-.42,0-1.14,0l-3.6,0c-.27,0-5.49,0-5.79,0l-1.35,0-.09.84,1.62.06c.72,0,1.05.27,1.05.81a18.52,18.52,0,0,1-.27,2.28l-2.61,15.12c-.12.54-.48.75-1.8,1l-.15.78,1.23,0c.93,0,2.79-.06,3.39-.06l6.75.09c.42,0,1.17,0,2.16-.06l1,0,.12-1.08c.06-.6.21-1.5.48-3l.15-.78h-.81l-.48,1.8c-.3,1.08-.57,1.44-1.23,1.59a34.72,34.72,0,0,1-4.41.27,40.28,40.28,0,0,1-4.11-.21Z" transform="translate(0.25 0.25)"/>
  <path class="cls-13" d="M314.72,171c0-2.42-2.14-2.84-3.08-3,1.6-1.24,2.2-2.16,2.2-3.34,0-1.78-1.48-3-3.7-3a4.09,4.09,0,0,0-3.22,1.34l-.58,2.48H307l.36-1.12a2.93,2.93,0,0,1,2.52-1.36,2.36,2.36,0,0,1,2.36,2.32,2.71,2.71,0,0,1-2.6,2.76l-.64,0-.3,0-.24,1.06.14.12a3.67,3.67,0,0,1,1.68-.44c1.66,0,2.62,1.06,2.62,2.88,0,2-1.22,3.38-3.08,3.38a3.37,3.37,0,0,1-2.34-.86,4.25,4.25,0,0,1-1.12-2l-.54.2a12.62,12.62,0,0,1,.7,2.94,8.46,8.46,0,0,0,2.68.52C311.62,175.88,314.72,173.74,314.72,171Zm6-9.3c-3.1,0-4.68,2.46-4.68,7.3a10.21,10.21,0,0,0,1.12,5.34,3.71,3.71,0,0,0,3.06,1.54c3,0,4.54-2.6,4.54-7.72C324.76,163.78,323.46,161.7,320.72,161.7Zm-.36.7c1.94,0,2.72,2,2.72,6.76,0,4.26-.76,6-2.6,6s-2.76-2-2.76-6.9C317.72,164.06,318.46,162.4,320.36,162.4Zm9.06-.7a3,3,0,0,0,0,6,3,3,0,1,0,0-6Zm0,.8a2.2,2.2,0,1,1,0,4.4,2.2,2.2,0,0,1,0-4.4Z" transform="translate(0.25 0.25)"/>
</svg>
