<svg id="Livello_1" data-name="Livello 1" xmlns="http://www.w3.org/2000/svg" xmlns:xlink="http://www.w3.org/1999/xlink" width="662.5" height="582.5" viewBox="0 0 662.5 582.5">
  <defs>
    <style>
      .cls-1, .cls-10, .cls-2, .cls-4, .cls-5, .cls-6, .cls-7, .cls-8, .cls-9 {
        fill: none;
      }

      .cls-2, .cls-3 {
        stroke: #d3d3d3;
        stroke-width: 0.5px;
      }

      .cls-3 {
        fill: url(#_.44066836137648413);
      }

      .cls-13, .cls-14, .cls-16, .cls-4, .cls-5, .cls-7 {
        stroke: #000;
      }

      .cls-4 {
        stroke-dasharray: 6 6;
      }

      .cls-10, .cls-11, .cls-12, .cls-15, .cls-6, .cls-8, .cls-9 {
        stroke: red;
      }

      .cls-6 {
        stroke-width: 2px;
      }

      .cls-7 {
        stroke-dasharray: 1.13 3.35;
      }

      .cls-8 {
        stroke-width: 3px;
      }

      .cls-9 {
        stroke-width: 3px;
      }

      .cls-10 {
        stroke-width: 3px;
      }

      .cls-12, .cls-15 {
        fill: red;
      }

      .cls-12, .cls-13, .cls-14, .cls-15, .cls-16 {
        stroke-miterlimit: 10;
      }

      .cls-12 {
        stroke-width: 0.32px;
      }

      .cls-13 {
        stroke-width: 0.24px;
      }

      .cls-14 {
        stroke-width: 0.17px;
      }

      .cls-15 {
        stroke-width: 0.22px;
      }

      .cls-16 {
        stroke-width: 0.2px;
      }
    </style>
    <pattern id="_.44066836137648413" data-name=".44066836137648413" width="10" height="10" patternTransform="matrix(1, 0, 0, -1, -2.75, 842.14)" patternUnits="userSpaceOnUse" viewBox="0 0 10 10">
      <rect class="cls-1" width="10" height="10"/>
      <path class="cls-2" d="M10,10H0V0"/>
    </pattern>
  </defs>
  <rect class="cls-3" x="0.25" y="0.25" width="662" height="582"/>
  <g>
    <path class="cls-4" d="M320.07,81V316.3" transform="translate(0.25 0.25)"/>
    <path class="cls-5" d="M305,75.58,174.6,295.05" transform="translate(0.25 0.25)"/>
    <path class="cls-5" d="M332.24,75.68l133.3,219.37" transform="translate(0.25 0.25)"/>
    <path class="cls-6" d="M151.87,316.3c0-11.73,10.18-21.25,22.73-21.25s22.73,9.52,22.73,21.25-10.18,21.25-22.73,21.25S151.87,328,151.87,316.3Z" transform="translate(0.25 0.25)"/>
    <path class="cls-6" d="M442.81,316.3c0-11.73,10.18-21.25,22.73-21.25s22.73,9.52,22.73,21.25-10.17,21.25-22.73,21.25S442.81,328,442.81,316.3Z" transform="translate(0.25 0.25)"/>
    <path class="cls-7" d="M197.33,316.3H441.9" transform="translate(0.25 0.25)"/>
    <path class="cls-6" d="M297.34,58.75c0-11.73,10.18-21.25,22.73-21.25S342.8,47,342.8,58.75,332.62,80,320.07,80,297.34,70.49,297.34,58.75Z" transform="translate(0.25 0.25)"/>
    <path class="cls-4" d="M399.85,187,194.72,304.75" transform="translate(0.25 0.25)"/>
    <path class="cls-4" d="M238.84,187l206.7,118.7" transform="translate(0.25 0.25)"/>
    <g>
      <path class="cls-8" d="M320.09,233.93l76.31-45" transform="translate(0.25 0.25)"/>
      <path class="cls-9" d="M387.45,200.36A52.29,52.29,0,0,1,399.85,187a52.32,52.32,0,0,1-17.74,4.34" transform="translate(0.25 0.25)"/>
    </g>
    <g>
      <path class="cls-8" d="M320.09,233.93l-76.31-45" transform="translate(0.25 0.25)"/>
      <path class="cls-9" d="M258.08,191.29A52.26,52.26,0,0,1,240.34,187a52.47,52.47,0,0,1,12.4,13.41" transform="translate(0.25 0.25)"/>
    </g>
    <g>
      <path class="cls-8" d="M320.12,239l-.05,73.35" transform="translate(0.25 0.25)"/>
      <path class="cls-10" d="M314.82,298.81a52.5,52.5,0,0,1,5.25,17.49,52.23,52.23,0,0,1,5.27-17.48" transform="translate(0.25 0.25)"/>
    </g>
    <path class="cls-11" d="M316.33,233.93a3.77,3.77,0,1,1,3.76,3.77A3.76,3.76,0,0,1,316.33,233.93Z" transform="translate(0.25 0.25)"/>
    <g>
      <path class="cls-8" d="M210.12,479,286.43,434" transform="translate(0.25 0.25)"/>
      <path class="cls-9" d="M277.47,445.38A52.29,52.29,0,0,1,289.87,432a52.32,52.32,0,0,1-17.74,4.34" transform="translate(0.25 0.25)"/>
    </g>
    <g>
      <path class="cls-8" d="M289.87,525.94l-76.31-45" transform="translate(0.25 0.25)"/>
      <path class="cls-9" d="M227.86,483.3A52.49,52.49,0,0,1,210.12,479a52.47,52.47,0,0,1,12.4,13.41" transform="translate(0.25 0.25)"/>
    </g>
    <g>
      <path class="cls-8" d="M289.87,432v90" transform="translate(0.25 0.25)"/>
      <path class="cls-8" d="M284.61,508.45a52.17,52.17,0,0,1,5.26,17.49,52.41,52.41,0,0,1,5.26-17.49" transform="translate(0.25 0.25)"/>
    </g>
  </g>
  <path class="cls-12" d="M186.11,319.59v-2.36h-9.6v-9.52h-2.36v9.52h-9.6v2.36h9.6v9.64h2.36v-9.64Z" transform="translate(0.25 0.25)"/>
  <g>
    <path class="cls-13" d="M491.36,279.59a8,8,0,0,0-3-.72c-2.25,0-4.89,2.64-5.43,3.24-1.2,1.41-2.37,5.79-2.37,8.88,0,1.77.36,2.67,1.08,2.67a3.76,3.76,0,0,0,2.19-.9,18.23,18.23,0,0,0,5.25-5.7l-2.28,12.42a3.64,3.64,0,0,1-.81,1.71l.27.42a21.59,21.59,0,0,1,2.58-.51,47.16,47.16,0,0,1,.57-4.77L492,282.65a24.81,24.81,0,0,1,.81-3.54l-.42-.18Zm-8,12c-.42,0-.66-.63-.66-1.62,0-2.88,1.29-7.38,2.55-8.88a2.94,2.94,0,0,1,2.19-.72,6.67,6.67,0,0,1,2.91.81l-.63,2.85C488.84,288.11,484.61,291.56,483.35,291.56Z" transform="translate(0.25 0.25)"/>
    <path class="cls-14" d="M494.9,298.13v.54c3.93,0,3.93-.06,4.68-.06s.76.06,4.81.06v-1.78c-2.41.1-3.38,0-7.27.1l3.83-4.05c2-2.16,2.66-3.32,2.66-4.89,0-2.42-1.63-3.91-4.3-3.91a4.52,4.52,0,0,0-3.57,1.47l-.36,2.86H496l.27-1a2.22,2.22,0,0,1,2.5-1.74,2.74,2.74,0,0,1,3,2.92c0,1.57-.88,3.13-3.25,5.65Z" transform="translate(0.25 0.25)"/>
  </g>
  <path class="cls-12" d="M329.64,57.89V55.53H320V46h-2.36v9.52h-9.6v2.36h9.6v9.64H320V57.89Z" transform="translate(0.25 0.25)"/>
  <g>
    <path class="cls-13" d="M140.75,279a8,8,0,0,0-3-.72c-2.25,0-4.89,2.64-5.43,3.24-1.2,1.41-2.37,5.79-2.37,8.88,0,1.77.36,2.67,1.08,2.67a3.76,3.76,0,0,0,2.19-.9,18.23,18.23,0,0,0,5.25-5.7l-2.28,12.42a3.64,3.64,0,0,1-.81,1.71l.27.42a21.59,21.59,0,0,1,2.58-.51,47.16,47.16,0,0,1,.57-4.77L141.35,282a24.81,24.81,0,0,1,.81-3.54l-.42-.18Zm-8,12c-.42,0-.66-.63-.66-1.62,0-2.88,1.29-7.38,2.55-8.88a2.94,2.94,0,0,1,2.19-.72,6.67,6.67,0,0,1,2.91.81l-.63,2.85C138.23,287.48,134,290.93,132.74,290.93Z" transform="translate(0.25 0.25)"/>
    <path class="cls-14" d="M152.73,298.05v-.63l-1.09-.07c-1.16-.06-1.37-.29-1.37-1.38V283.28l-5.06,2.15.15,1.05,3.15-1.39V296c0,1.09-.23,1.32-1.36,1.38l-1.18.07v.63l3.46-.07C150.09,298,152.4,298.05,152.73,298.05Z" transform="translate(0.25 0.25)"/>
  </g>
  <path class="cls-12" d="M475.91,320.34V318h-9.6v-9.52H464V318h-9.6v2.36H464V330h2.36v-9.64Z" transform="translate(0.25 0.25)"/>
  <g>
    <path class="cls-13" d="M358.39,43.17a8,8,0,0,0-3-.72c-2.25,0-4.89,2.64-5.43,3.24-1.2,1.41-2.37,5.79-2.37,8.88,0,1.77.36,2.67,1.08,2.67a3.76,3.76,0,0,0,2.19-.9,18.23,18.23,0,0,0,5.25-5.7L353.8,63.06a3.64,3.64,0,0,1-.81,1.71l.27.42a21.59,21.59,0,0,1,2.58-.51,47.16,47.16,0,0,1,.57-4.77L359,46.23a24.81,24.81,0,0,1,.81-3.54l-.42-.18Zm-8,12c-.42,0-.66-.63-.66-1.62,0-2.88,1.29-7.38,2.55-8.88a2.94,2.94,0,0,1,2.19-.72,6.67,6.67,0,0,1,2.91.81l-.63,2.85C355.87,51.69,351.64,55.14,350.38,55.14Z" transform="translate(0.25 0.25)"/>
    <path class="cls-14" d="M371.3,57.48c0-2.54-2.25-3-3.24-3.15,1.68-1.3,2.31-2.26,2.31-3.5,0-1.87-1.55-3.11-3.88-3.11a4.28,4.28,0,0,0-3.38,1.41l-.61,2.6h.65l.38-1.18a3.07,3.07,0,0,1,2.64-1.42,2.47,2.47,0,0,1,2.48,2.43,2.84,2.84,0,0,1-2.73,2.9c-.17,0-.4,0-.67,0l-.32,0-.25,1.11.15.13a3.83,3.83,0,0,1,1.76-.47c1.74,0,2.75,1.12,2.75,3,0,2.14-1.28,3.55-3.23,3.55a3.54,3.54,0,0,1-2.46-.91,4.38,4.38,0,0,1-1.17-2.08l-.57.21a13.09,13.09,0,0,1,.73,3.09,8.9,8.9,0,0,0,2.82.55C368,62.61,371.3,60.36,371.3,57.48Z" transform="translate(0.25 0.25)"/>
  </g>
  <path class="cls-13" d="M321.87,214.81c0,5.82,3.21,9.06,8.94,9.06a12.39,12.39,0,0,0,7.71-2.55l.3-1.08-.3-.21c-2.82,1.71-4.38,2.25-6.72,2.25-4.71,0-7.29-2.88-7.29-8.22,0-4.14,1.71-10.32,8.55-10.32a9.14,9.14,0,0,1,5.37,1.5v2.52h.81a20.34,20.34,0,0,1,.81-4.38,15.63,15.63,0,0,0-5.85-1.23A12.18,12.18,0,0,0,321.87,214.81Z" transform="translate(0.25 0.25)"/>
  <g>
    <path class="cls-12" d="M414.12,187h4.68l5.28.16.76-1.8-.16-.28c-3.24.16-5.64.24-8.76.24h-1.48l1.88-10.8c1.28,0,4.6-.16,5.48-.16,2.48,0,4.12.36,4.16,1l.32,3.56h1a27,27,0,0,1,.84-6.08c-.84-.08-2-.12-2.76-.12-.12,0-.56,0-1.52,0l-4.8,0c-.36,0-7.32,0-7.72,0l-1.8,0-.12,1.12,2.16.08c1,0,1.4.36,1.4,1.08a24.69,24.69,0,0,1-.36,3l-3.48,20.16c-.16.72-.64,1-2.4,1.28l-.2,1,1.64,0c1.24,0,3.72-.08,4.52-.08l9,.12c.56,0,1.56,0,2.88-.08l1.32,0,.16-1.44c.08-.8.28-2,.64-4l.2-1h-1.08l-.64,2.4c-.4,1.44-.76,1.92-1.64,2.12a46.29,46.29,0,0,1-5.88.36,53.7,53.7,0,0,1-5.48-.28Z" transform="translate(0.25 0.25)"/>
    <path class="cls-15" d="M442.58,207.47v-.84l-1.46-.08c-1.54-.08-1.82-.39-1.82-1.85V187.79l-6.75,2.86.2,1.4,4.2-1.85v14.5c0,1.46-.31,1.77-1.82,1.85l-1.57.08v.84l4.62-.08C439.05,207.39,442.13,207.47,442.58,207.47Z" transform="translate(0.25 0.25)"/>
  </g>
  <g>
    <path class="cls-12" d="M202.73,167.91h4.68l5.28.16.76-1.8-.16-.28c-3.24.16-5.64.24-8.76.24h-1.48l1.88-10.8c1.28,0,4.6-.16,5.48-.16,2.48,0,4.12.36,4.16,1l.32,3.56h1a27,27,0,0,1,.84-6.08c-.84-.08-2-.12-2.76-.12-.12,0-.56,0-1.52,0l-4.8,0c-.36,0-7.32,0-7.72,0l-1.8,0-.12,1.12,2.16.08c1,0,1.4.36,1.4,1.08a24.69,24.69,0,0,1-.36,3l-3.48,20.15c-.16.72-.64,1-2.4,1.28l-.2,1,1.64,0c1.24,0,3.72-.08,4.52-.08l9,.12c.56,0,1.56,0,2.88-.08l1.32,0,.16-1.44c.08-.8.28-2,.64-3.95l.2-1h-1.08l-.64,2.39c-.4,1.44-.76,1.92-1.64,2.12a46.29,46.29,0,0,1-5.88.36,53.7,53.7,0,0,1-5.48-.28Z" transform="translate(0.25 0.25)"/>
    <path class="cls-15" d="M219.93,187.67v.73c5.24,0,5.24-.09,6.25-.09s1,.09,6.41.09V186c-3.22.14-4.51,0-9.69.14l5.1-5.41c2.71-2.88,3.55-4.42,3.55-6.52,0-3.22-2.18-5.21-5.74-5.21a6,6,0,0,0-4.76,2l-.47,3.81h.81l.36-1.29c.45-1.62,1.46-2.32,3.33-2.32a3.66,3.66,0,0,1,3.95,3.89c0,2.1-1.17,4.17-4.34,7.53Z" transform="translate(0.25 0.25)"/>
  </g>
  <g>
    <path class="cls-12" d="M333,335.17h4.68l5.28.16.76-1.8-.16-.28c-3.24.16-5.64.24-8.76.24h-1.48l1.88-10.8c1.28,0,4.6-.16,5.48-.16,2.48,0,4.12.36,4.16,1l.32,3.56h1A27,27,0,0,1,347,321c-.84-.08-2-.12-2.76-.12-.12,0-.56,0-1.52,0l-4.8,0c-.36,0-7.32,0-7.72,0l-1.8,0-.12,1.12,2.16.08c1,0,1.4.36,1.4,1.08a24.69,24.69,0,0,1-.36,3L328,346.33c-.16.72-.64,1-2.4,1.28l-.2,1,1.64,0c1.24,0,3.72-.08,4.52-.08l9,.12c.56,0,1.56,0,2.88-.08l1.32,0,.16-1.44c.08-.8.28-2,.64-4l.2-1h-1.08l-.64,2.4c-.4,1.44-.76,1.92-1.64,2.12a46.29,46.29,0,0,1-5.88.36,53.7,53.7,0,0,1-5.48-.28Z" transform="translate(0.25 0.25)"/>
    <path class="cls-15" d="M362.7,349.31c0-3.39-3-4-4.31-4.2,2.24-1.74,3.08-3,3.08-4.68,0-2.49-2.07-4.14-5.18-4.14a5.76,5.76,0,0,0-4.51,1.87l-.81,3.47h.87l.5-1.56c.31-1,2.07-1.91,3.53-1.91a3.3,3.3,0,0,1,3.3,3.25,3.79,3.79,0,0,1-3.64,3.86c-.22,0-.53,0-.89,0l-.42,0-.34,1.48.2.17a5.17,5.17,0,0,1,2.35-.61c2.32,0,3.67,1.48,3.67,4,0,2.85-1.71,4.73-4.31,4.73a4.75,4.75,0,0,1-3.28-1.2,6,6,0,0,1-1.57-2.78l-.75.28a18.25,18.25,0,0,1,1,4.12,11.91,11.91,0,0,0,3.75.73C358.36,356.14,362.7,353.14,362.7,349.31Z" transform="translate(0.25 0.25)"/>
  </g>
  <g>
    <path class="cls-12" d="M305,477.17h4.68l5.28.16.76-1.8-.16-.28c-3.24.16-5.64.24-8.76.24h-1.48l1.88-10.8c1.28,0,4.6-.16,5.48-.16,2.48,0,4.12.36,4.16,1l.32,3.56h1A27,27,0,0,1,319,463c-.84-.08-2-.12-2.76-.12-.12,0-.56,0-1.52,0l-4.8,0c-.36,0-7.32,0-7.72,0l-1.8,0-.12,1.12,2.16.08c1,0,1.4.36,1.4,1.08a24.69,24.69,0,0,1-.36,3L300,488.33c-.16.72-.64,1-2.4,1.28l-.2,1,1.64,0c1.24,0,3.72-.08,4.52-.08l9,.12c.56,0,1.56,0,2.88-.08l1.32,0,.16-1.44c.08-.8.28-2,.64-4l.2-1h-1.08l-.64,2.4c-.4,1.44-.76,1.92-1.64,2.12a46.29,46.29,0,0,1-5.88.36,53.7,53.7,0,0,1-5.48-.28Z" transform="translate(0.25 0.25)"/>
    <path class="cls-15" d="M334.7,491.31c0-3.39-3-4-4.31-4.2,2.24-1.74,3.08-3,3.08-4.68,0-2.49-2.07-4.14-5.18-4.14a5.76,5.76,0,0,0-4.51,1.87l-.81,3.47h.87l.5-1.56c.31-1,2.07-1.91,3.53-1.91a3.3,3.3,0,0,1,3.3,3.25,3.79,3.79,0,0,1-3.64,3.86c-.22,0-.53,0-.89,0l-.42,0-.34,1.48.2.17a5.17,5.17,0,0,1,2.35-.61c2.32,0,3.67,1.48,3.67,4,0,2.85-1.71,4.73-4.31,4.73a4.75,4.75,0,0,1-3.28-1.2,6,6,0,0,1-1.57-2.78l-.75.28a18.25,18.25,0,0,1,1,4.12,11.91,11.91,0,0,0,3.75.73C330.36,498.14,334.7,495.14,334.7,491.31Z" transform="translate(0.25 0.25)"/>
  </g>
  <g>
    <path class="cls-12" d="M221.12,428h4.68l5.28.16.76-1.8-.16-.28c-3.24.16-5.64.24-8.76.24h-1.48l1.88-10.8c1.28,0,4.6-.16,5.48-.16,2.48,0,4.12.36,4.16,1l.32,3.56h1a27,27,0,0,1,.84-6.08c-.84-.08-2-.12-2.76-.12-.12,0-.56,0-1.52,0l-4.8,0c-.36,0-7.32,0-7.72,0l-1.8,0-.12,1.12,2.16.08c1,0,1.4.36,1.4,1.08a24.69,24.69,0,0,1-.36,3l-3.48,20.16c-.16.72-.64,1-2.4,1.28l-.2,1,1.64,0c1.24,0,3.72-.08,4.52-.08l9,.12c.56,0,1.56,0,2.88-.08l1.32,0,.16-1.44c.08-.8.28-2,.64-4l.2-1h-1.08l-.64,2.4c-.4,1.44-.76,1.92-1.64,2.12a46.29,46.29,0,0,1-5.88.36,53.7,53.7,0,0,1-5.48-.28Z" transform="translate(0.25 0.25)"/>
    <path class="cls-15" d="M249.58,448.47v-.84l-1.46-.08c-1.54-.08-1.82-.39-1.82-1.85V428.79l-6.75,2.86.2,1.4,4.2-1.85v14.5c0,1.46-.31,1.77-1.82,1.85l-1.57.08v.84l4.62-.08C246.05,448.39,249.13,448.47,249.58,448.47Z" transform="translate(0.25 0.25)"/>
  </g>
  <g>
    <path class="cls-12" d="M234.73,528.91h4.68l5.28.16.76-1.8-.16-.28c-3.24.16-5.64.24-8.76.24h-1.48l1.88-10.8c1.28,0,4.6-.16,5.48-.16,2.48,0,4.12.36,4.16,1l.32,3.56h1a27,27,0,0,1,.84-6.08c-.84-.08-2-.12-2.76-.12-.12,0-.56,0-1.52,0l-4.8,0c-.36,0-7.32,0-7.72,0l-1.8,0-.12,1.12,2.16.08c1,0,1.4.36,1.4,1.08a24.69,24.69,0,0,1-.36,3l-3.48,20.15c-.16.72-.64,1-2.4,1.28l-.2,1,1.64,0c1.24,0,3.72-.08,4.52-.08l9,.12c.56,0,1.56,0,2.88-.08l1.32,0,.16-1.44c.08-.8.28-2,.64-4l.2-1h-1.08l-.64,2.4c-.4,1.43-.76,1.91-1.64,2.11a46.29,46.29,0,0,1-5.88.36,53.7,53.7,0,0,1-5.48-.28Z" transform="translate(0.25 0.25)"/>
    <path class="cls-15" d="M251.93,548.67v.73c5.24,0,5.24-.09,6.25-.09s1,.09,6.41.09V547c-3.22.14-4.51,0-9.69.14l5.1-5.41c2.71-2.88,3.55-4.42,3.55-6.52,0-3.22-2.18-5.21-5.74-5.21a6,6,0,0,0-4.76,2l-.47,3.81h.81l.36-1.29c.45-1.62,1.46-2.32,3.33-2.32a3.66,3.66,0,0,1,3.95,3.89c0,2.1-1.17,4.17-4.34,7.53Z" transform="translate(0.25 0.25)"/>
  </g>
  <g>
    <path class="cls-16" d="M399.43,459.4l.32-.77c-.7-.1-4.37-.15-4.42.07l-2.13,3.9-6.15,10.55L383.3,458.7a29,29,0,0,1-4.17,0l-.08.7.65.05c1.3.1,1.75.35,1.75,1,0,.15-3.65,13.05-3.7,13.23-.4,1.3-.77,1.62-2.15,1.75l-.08.65,1,0,1.83-.05,1.87.05.88,0,.07-.7-.95-.08c-.8-.05-1.22-.3-1.22-.67a4.15,4.15,0,0,1,.17-1l3.1-11.6L386,476.45h.57l1.43-2.6,6-10.35,1.3-2.17-.92,13c-.1.7-.4.87-1.68,1l-.77.08-.08.7,1.18,0,2.17-.05,2.18.05,1.15,0,.07-.7-.92-.08c-.9-.07-1.35-.35-1.35-.87l0-.93,1-13.27c.05-.48.42-.73,1.15-.78Zm8.6,13.83-.6.42A6.52,6.52,0,0,1,404,475.1c-1.17,0-1.9-.92-1.9-2.42a12.65,12.65,0,0,1,.2-2c.43-.1,3.15-.85,3.78-1.12,2.12-.93,3.1-2.08,3.1-3.63a1.92,1.92,0,0,0-2.1-1.95c-1.7-.35-4.45,1.48-5.38,3.33a15,15,0,0,0-1.5,5.9,2.76,2.76,0,0,0,2.9,3.1c1.43,0,2.83-.7,5.13-2.58Zm-5.38-4.08a6.7,6.7,0,0,1,1.65-3.45,3.08,3.08,0,0,1,1.83-.7,1.17,1.17,0,0,1,1.2,1.3,3.53,3.53,0,0,1-2.18,2.9,12.07,12.07,0,0,1-2.72.88Zm10-2.9-1.4,7.08a10.67,10.67,0,0,0-.32,1.9c0,.62.27,1,.75,1,.87,0,1.75-.5,3.7-2.08l.77-.62-.25-.45-1.12.77a3.62,3.62,0,0,1-1.5.75c-.23,0-.35-.2-.35-.5a56.29,56.29,0,0,1,1.07-6.3l.33-1.55H417l.28-1.25a25.34,25.34,0,0,1-2.75.15,30.76,30.76,0,0,1,1.12-4.92l-.27-.38a13.51,13.51,0,0,1-1.95.9L412.8,465a15.59,15.59,0,0,1-2.2.93l-.05.32Zm5.6,5.95c0,2.65,1.13,4.08,3.2,4.08a6.09,6.09,0,0,0,4-1.7,10.2,10.2,0,0,0,2.65-6.85c0-2.35-1.25-3.78-3.32-3.78C422.18,464,418.25,466.45,418.25,472.2Zm5.6-7.3c1.53,0,2.35,1.13,2.35,3.23a11,11,0,0,1-1.87,6.37,2.39,2.39,0,0,1-1.88.83c-1.45,0-2.3-1.13-2.3-3.1,0-2.83,1-5.9,2.2-6.9A2.41,2.41,0,0,1,423.85,464.9ZM441,458l-.3-.27a9.87,9.87,0,0,1-4,1.05l-.1.52h1.2c.6,0,.85.18.85.6a5.39,5.39,0,0,1-.05.6l-.7,3.85a7.4,7.4,0,0,0-2.05-.35c-1.73,0-4.08,1.8-5.23,4a13.86,13.86,0,0,0-1.27,5.92c0,1.63.37,2.43,1.1,2.43a4.51,4.51,0,0,0,2.45-1.1,17.87,17.87,0,0,0,3.85-4.6l-.58,2.27a11.09,11.09,0,0,0-.4,2.55c0,.53.23.83.65.83a3.74,3.74,0,0,0,1.88-.93l2-1.5-.25-.47-1.1.77a2.12,2.12,0,0,1-1,.43c-.2,0-.35-.23-.35-.58a4.61,4.61,0,0,1,.2-1.15Zm-9.23,16.58c-.4,0-.62-.35-.62-1,0-3.15,1.15-7.05,2.37-8a2.39,2.39,0,0,1,1.48-.37,5.32,5.32,0,0,1,2.65.57l-.3,1.48C436.4,471.73,432.88,474.53,431.75,474.53Zm10.05-2.33c0,2.65,1.13,4.08,3.2,4.08a6.09,6.09,0,0,0,4-1.7,10.2,10.2,0,0,0,2.65-6.85c0-2.35-1.25-3.78-3.32-3.78C445.73,464,441.8,466.45,441.8,472.2Zm5.6-7.3c1.53,0,2.35,1.13,2.35,3.23a11,11,0,0,1-1.87,6.37,2.39,2.39,0,0,1-1.88.83c-1.45,0-2.3-1.13-2.3-3.1,0-2.83,1-5.9,2.2-6.9A2.41,2.41,0,0,1,447.4,464.9Z" transform="translate(0.25 0.25)"/>
    <g>
      <path class="cls-16" d="M380.4,506.28c1.4,0,4.28-1.83,5.35-3.4a12.92,12.92,0,0,0,1.88-6.15c0-1.68-.58-2.78-1.48-2.78a6,6,0,0,0-3.67,1.83,10.28,10.28,0,0,0-2.43,3l.6-3a6.22,6.22,0,0,0,.13-1.1c0-.47-.2-.75-.55-.75-.53,0-1.48.53-3.33,1.85l-.7.5.18.5.8-.52c.7-.45,1-.58,1.2-.58s.42.23.42.58a6.83,6.83,0,0,1-.1,1l-1.45,8.57c-.25,1.5-.72,3.78-1.22,6l-.21.92.18.15a10.68,10.68,0,0,1,1.83-.42l1.05-6.55A5.42,5.42,0,0,0,380.4,506.28Zm-.82-4.4c.55-3.2,3.22-6.48,5.3-6.48.65,0,.95.55.95,1.7a13.81,13.81,0,0,1-2.33,6.9,2.65,2.65,0,0,1-2.32,1.1,3.67,3.67,0,0,1-2.05-.57Zm21.2-7.7-.18-.23-1.7.43-.25,1.27a13.79,13.79,0,0,1-1.77,4.83c-1.48,2.27-3.43,4-4.43,4-.2,0-.32-.23-.32-.65a6.66,6.66,0,0,1,.17-1.3l1.43-6.78a6.36,6.36,0,0,0,.12-1.07c0-.48-.22-.78-.57-.78s-1.45.53-3.3,1.85l-.7.5.17.5.8-.52c.7-.45,1-.58,1.2-.58a.48.48,0,0,1,.43.5,3.44,3.44,0,0,1-.05.45l-1.58,7.43a7.51,7.51,0,0,0-.1,1.17,1,1,0,0,0,.88,1c1.57,0,4.6-2.8,6.7-6.25l-.93,3.55a7,7,0,0,0-.27,1.65c0,.62.27,1,.75,1,.65,0,1.55-.53,4-2.35l-.25-.45-.65.42a3.85,3.85,0,0,1-1.53.68c-.2,0-.32-.18-.32-.43C398.53,503.2,400.4,495.6,400.78,494.18ZM403,496.3l.18.5.8-.52c.92-.58,1-.63,1.17-.63s.45.25.45.63A59.34,59.34,0,0,1,403.5,506l.18.28a17.74,17.74,0,0,1,1.75-.43c.47-3.15,1-4.77,2.15-6.5,1.35-2.1,3.22-3.65,4.35-3.65.27,0,.42.23.42.6a7.28,7.28,0,0,1-.27,1.78l-1.3,5.3a8.62,8.62,0,0,0-.33,1.9c0,.62.28,1,.75,1,.65,0,1.55-.53,4-2.35l-.25-.45-.65.42a4,4,0,0,1-1.52.75c-.18,0-.33-.22-.33-.5a3.85,3.85,0,0,1,.05-.5l1.65-6.9a8.56,8.56,0,0,0,.28-1.85c0-.57-.28-.9-.78-.9-1,0-2.77.95-4.25,2.33a20.19,20.19,0,0,0-2.95,3.55l.95-4a4.79,4.79,0,0,0,.15-1c0-.53-.2-.83-.57-.83-.53,0-1.5.55-3.33,1.85Zm16.4-.05-1.4,7.08a10.67,10.67,0,0,0-.32,1.9c0,.62.27,1,.75,1,.87,0,1.75-.5,3.7-2.08l.77-.62-.25-.45-1.12.77a3.62,3.62,0,0,1-1.5.75c-.23,0-.35-.2-.35-.5a56.29,56.29,0,0,1,1.07-6.3l.33-1.55h2.67L424,495a25.34,25.34,0,0,1-2.75.15,30.76,30.76,0,0,1,1.12-4.92l-.27-.38a13.51,13.51,0,0,1-1.95.9L419.5,495a15.59,15.59,0,0,1-2.2.93l-.05.32Zm11.95,4.65-.72,3.18a5.64,5.64,0,0,0-.15,1.27c0,.55.22.88.6.88.57,0,1.6-.65,3.65-2.35l-.18-.53c-.6.5-1.32,1.18-1.87,1.18-.23,0-.38-.23-.38-.58a.69.69,0,0,1,0-.27l2.3-9.48-.25-.22-.83.45a5.31,5.31,0,0,0-2.12-.48,4,4,0,0,0-1.88.45,6,6,0,0,0-3,2.75,18.59,18.59,0,0,0-1.87,7.18c0,1.1.37,1.95.85,1.95C426.4,506.28,428.4,505,431.3,500.9Zm1.2-5.25a13.82,13.82,0,0,1-1.87,5.33c-1.43,2.1-2.95,3.55-3.75,3.55-.3,0-.45-.33-.45-1A20,20,0,0,1,428,497c.6-1.37,1.18-1.82,2.38-1.82A6.15,6.15,0,0,1,432.5,495.65Z" transform="translate(0.25 0.25)"/>
      <path class="cls-16" d="M454.48,499.93v-1.4h-12.6v1.4Z" transform="translate(0.25 0.25)"/>
      <path class="cls-16" d="M469.28,497.75h.58a16.2,16.2,0,0,1,.6-3.2,4.73,4.73,0,0,0-2.4-.6,6.07,6.07,0,0,0-4.38,2.05c-1.35,1.2-2.32,4-2.32,6.6,0,2.4,1.05,3.68,3.05,3.68a6,6,0,0,0,3.92-1.63l1.25-1-.2-.5-.37.25c-1.8,1.2-2.75,1.62-3.63,1.62-1.4,0-2.12-1-2.12-3,0-2.7.87-5.3,2.1-6.25a3,3,0,0,1,1.9-.6c1.12,0,2,.47,2,1.07Zm2,4.45c0,2.65,1.12,4.08,3.2,4.08a6.13,6.13,0,0,0,4-1.7,10.2,10.2,0,0,0,2.65-6.85c0-2.35-1.25-3.78-3.33-3.78C475.23,494,471.31,496.45,471.31,502.2Zm5.6-7.3c1.52,0,2.35,1.13,2.35,3.23a11,11,0,0,1-1.88,6.37,2.39,2.39,0,0,1-1.87.83c-1.45,0-2.3-1.13-2.3-3.1,0-2.83,1-5.9,2.2-6.9A2.39,2.39,0,0,1,476.91,494.9ZM494,488l-.3-.27a9.87,9.87,0,0,1-4,1.05l-.1.52h1.2c.6,0,.85.18.85.6a3.73,3.73,0,0,1-.05.6l-.7,3.85a7.34,7.34,0,0,0-2.05-.35c-1.72,0-4.07,1.8-5.22,4a13.71,13.71,0,0,0-1.28,5.92c0,1.63.38,2.43,1.1,2.43a4.48,4.48,0,0,0,2.45-1.1,17.67,17.67,0,0,0,3.85-4.6l-.57,2.27a10.56,10.56,0,0,0-.4,2.55c0,.53.22.83.65.83a3.76,3.76,0,0,0,1.87-.93l2-1.5-.25-.47-1.1.77a2.1,2.1,0,0,1-1,.43c-.2,0-.35-.23-.35-.58a5.2,5.2,0,0,1,.2-1.15Zm-9.22,16.58c-.4,0-.63-.35-.63-1,0-3.15,1.15-7.05,2.38-8a2.36,2.36,0,0,1,1.47-.37,5.29,5.29,0,0,1,2.65.57l-.3,1.48C489.46,501.73,485.93,504.53,484.81,504.53Zm16.4-3.63-.73,3.18a5.64,5.64,0,0,0-.15,1.27c0,.55.23.88.6.88.58,0,1.6-.65,3.65-2.35l-.17-.53c-.6.5-1.33,1.18-1.88,1.18-.22,0-.37-.23-.37-.58a1,1,0,0,1,0-.27l2.3-9.48-.25-.22-.82.45a5.35,5.35,0,0,0-2.13-.48,3.93,3.93,0,0,0-1.87.45,6,6,0,0,0-3,2.75,18.62,18.62,0,0,0-1.88,7.18c0,1.1.38,1.95.85,1.95C496.31,506.28,498.31,505,501.21,500.9Zm1.2-5.25a13.8,13.8,0,0,1-1.88,5.33c-1.42,2.1-2.95,3.55-3.75,3.55-.3,0-.45-.33-.45-1a19.82,19.82,0,0,1,1.58-6.53c.6-1.37,1.17-1.82,2.37-1.82A6.15,6.15,0,0,1,502.41,495.65Z" transform="translate(0.25 0.25)"/>
    </g>
  </g>
</svg>
